<?xml version="1.0" encoding="utf-8"?>
<!-- Generator: Adobe Illustrator 26.4.1, SVG Export Plug-In . SVG Version: 6.00 Build 0)  -->
<svg version="1.1" id="FQT-Animation" xmlns="http://www.w3.org/2000/svg" xmlns:xlink="http://www.w3.org/1999/xlink" x="0px"
	 y="0px" viewBox="0 0 1080 9720" style="enable-background:new 0 0 1080 9720;" xml:space="preserve">
<style type="text/css">
	.st0{stroke:#000000;stroke-width:0.3411;stroke-miterlimit:10;}
	.st1{fill:#FFFFFF;stroke:#000000;stroke-width:0.5;stroke-opacity:0.4;stroke-linecap:round;stroke-linejoin:round;stroke-miterlimit:10;}
	.st2{display:none;}
	.st3{display:inline;}
</style>
<g id="Walk-2">
	<g id="Step-18">
		<g id="Footsteps">
			<g>
				<path class="st0" d="M532.1,9243.6c0.2-0.5-0.1-1-0.6-1.2c-1.7-0.6-3-1.3-3.9-1.9c-0.3-0.3-2.3-1.7-4.6-2.6
					c-0.4-0.2-0.8-0.3-1.4-0.3c-1.1-0.1-2.6,0.3-3.5,1.4c-0.9,1.2-0.5,2.8-0.4,3.2c1,4,9.2,5.6,11.8,6c0.4,0,0.9-0.2,1-0.6
					C531.1,9246.2,531.7,9244.9,532.1,9243.6z"/>
				<path class="st0" d="M536.6,9248.7c0.8-0.7,1.3-1.8,1-3.1c-0.3-1.4-1.7-2.4-3.5-2.7c-0.4,0-0.9,0.2-1,0.6l-1.6,4.2
					c-0.2,0.5,0.1,1,0.4,1.2C533.7,9249.8,535.5,9249.7,536.6,9248.7z"/>
			</g>
			<g>
				<path class="st0" d="M535.6,9235c0.2-0.4,0-0.8-0.4-1.1c-2.1-1.4-9.2-5.8-12.7-3.5c-0.4,0.2-1.7,1.1-1.8,2.7
					c-0.2,1.4,0.7,2.7,1.6,3.4c0.4,0.4,0.8,0.5,1.2,0.7c2.4,0.9,4.7,1.2,5.2,1.2c1,0.1,2.5,0.5,4.1,1.2c0.5,0.2,1,0,1.2-0.6
					C534.6,9237.7,535.1,9236.4,535.6,9235z"/>
				<path class="st0" d="M537.7,9235c-0.5-0.1-0.9,0.1-1.2,0.6l-1.7,4.1c-0.2,0.4,0,0.8,0.3,1.1c1.4,1,3.1,1.2,4.3,0.4
					c1-0.7,1.4-1.9,1.3-3C540.7,9236.9,539.5,9235.5,537.7,9235z"/>
			</g>
		</g>
		<g id="Sign_00000043442839617612438530000013833020473189668285_">
			<path class="st1" d="M592.2,9035.4H387.9c-10.4,0-18.9,8.4-18.9,18.9v83.4c0,10.4,8.5,18.9,18.9,18.9h93c3,8.3,6,16.5,9,24.8
				c3.5-8.3,7.1-16.5,10.7-24.8h91.7c10.4,0,18.9-8.5,18.9-18.9v-83.4C611.1,9043.9,602.6,9035.4,592.2,9035.4z"/>
			<g class="st2">
				<path class="st3" d="M407.5,9061c0-0.6,0.1-1,0.3-1.4c0.2-0.2,1.4-0.3,3.5-0.3c0.9,0,1.8,0,2.6,0.1c0.8,0.1,1.2,0.1,1.2,0.2
					c0.3,0.2,0.5,0.8,0.5,1.8c0,0.3,0,0.5-0.1,0.6c0,0.1,0,0.2-0.2,0.2s-0.2,0.1-0.4,0.1c-0.4,0-0.7,0-0.7-0.1c0,0-0.1,0.1-0.1,0.2
					c0,0.5,0,1,0,1.5s0.1,1,0.2,1.4c0.1,0.5,0.2,0.9,0.2,1.2s0.2,0.7,0.4,1.3c0.2,0.6,0.3,0.9,0.4,1.1c0.1,0.2,0.2,0.6,0.5,1.2
					c0.3,0.6,0.4,1,0.5,1.2c0.5-1.1,0.8-1.9,1.1-2.6c0.2-0.7,0.5-1.6,0.8-2.8c0.2-1.1,0.3-2.4,0.3-3.6c0-0.1,0-0.2-0.1-0.2
					c0,0.1-0.2,0.1-0.7,0.1c-0.2,0-0.3,0-0.4-0.1c-0.1-0.1-0.2-0.1-0.2-0.2c0-0.1-0.1-0.4-0.1-0.6c0-1,0.2-1.6,0.5-1.8
					c0-0.1,0.4-0.1,1.2-0.2c0.8-0.1,1.7-0.1,2.6-0.1c2.2,0,3.3,0.1,3.5,0.3s0.3,0.6,0.3,1.2c0,0.8-0.1,1.3-0.4,1.5
					c-0.1,0.1-0.3,0.1-0.5,0.1c-0.4,0-0.7-0.1-0.8-0.1c0,0.8-0.7,3-2,6.8s-2.2,5.7-2.5,5.9c-0.7,0.3-1.6,0.4-2.8,0.4
					c-1.5,0-2.4-0.1-2.8-0.4c-0.3-0.1-1.2-2.1-2.5-5.9s-2-6-2-6.7c0-0.1,0-0.1,0-0.1c-0.3,0.1-0.6,0.2-0.8,0.2s-0.3,0-0.5-0.1
					C407.7,9062.3,407.5,9061.8,407.5,9061z"/>
				<path class="st3" d="M424.9,9070.4c0-1.1,0.2-2.1,0.5-3.1s0.8-1.8,1.6-2.6c0.7-0.7,1.6-1.1,2.6-1.1c0.4,0,0.8,0.1,1.1,0.2
					c0.3,0.1,0.6,0.3,0.8,0.4c0.2,0.1,0.3,0.4,0.5,0.5c0.1,0.2,0.2,0.3,0.2,0.4l0.1,0.2c0-0.5,0-0.9,0-1.1c0.5-0.4,1.4-0.6,2.7-0.6
					c0.5,0,0.8,0,1.2,0.1c0.3,0,0.6,0.1,0.8,0.1s0.3,0.1,0.5,0.1c0.1,0.1,0.2,0.1,0.2,0.1l0,0c0,0.1,0.1,0.6,0.1,1.3s0,1.1-0.1,1.3
					c-0.2,0.3-0.6,0.4-1.1,0.4c-0.2,0-0.3,0-0.5-0.1c0,0.1,0.1,0.4,0.1,1.1c0,1.9-0.1,2.9-0.2,3.1c0.1-0.1,0.2-0.1,0.4-0.1
					s0.6,0.1,1.2,0.3c0.1,0.1,0.2,0.8,0.2,2c0,0.6,0,1.1-0.1,1.2c-0.1,0.2-0.4,0.3-1,0.5c-0.6,0.1-1.2,0.2-1.8,0.2
					c-1.8,0-2.8,0-3-0.1c-0.1-0.3-0.2-0.5-0.2-0.7c0-0.1,0-0.2,0.1-0.3c-0.2,0.1-0.7,0.3-1.5,0.7c-0.8,0.4-1.3,0.6-1.7,0.6
					c-1.2,0-2-0.5-2.6-1.5C425.2,9073,424.9,9071.8,424.9,9070.4z M427.9,9070c0,0.5,0.2,1,0.4,1.3c0.3,0.4,0.7,0.6,1.1,0.6
					c0.6,0,1.2-0.3,1.7-0.9s0.8-1.2,0.8-1.9c0-0.5-0.2-0.9-0.5-1.2c-0.3-0.3-0.7-0.5-1.2-0.5s-0.9,0.1-1.2,0.4
					c-0.4,0.3-0.7,0.7-0.9,1.1C428,9069.3,427.9,9069.6,427.9,9070z"/>
				<path class="st3" d="M438.9,9073.2c0-0.7,0-1.1,0.1-1.2s0.4-0.1,0.8-0.2c0.3-0.1,0.5-0.1,0.5-0.1c-0.2-0.9-0.2-2.3-0.2-4.4
					c0-2.4,0.1-4.6,0.2-6.4c-0.5,0-0.8,0-1-0.1c0-0.3,0-0.6,0-0.7c0-0.6,0.2-1.2,0.5-1.7c0.7-0.1,1.5-0.2,2.6-0.2
					c0.8,0,1.5,0.1,1.9,0.2c0.2,1.4,0.2,2.9,0.2,4.4c0,1.1,0,2.7-0.2,4.7s-0.2,3.4-0.2,4.2c0.1,0,0.2,0,0.4,0c0.4,0,0.8,0.1,1.1,0.2
					c0,0.1,0.1,0.2,0.1,0.4c0,0.3-0.1,0.8-0.2,1.4c-0.1,0.6-0.2,1-0.3,1.1c-0.2,0.1-1.1,0.2-2.5,0.2c-2.1,0-3.3-0.2-3.7-0.6
					C438.9,9074.4,438.9,9074,438.9,9073.2z"/>
				<path class="st3" d="M446.5,9073.2c0-0.7,0-1.1,0.1-1.2s0.4-0.1,0.8-0.2c0.3-0.1,0.5-0.1,0.5-0.1c-0.2-0.9-0.2-2.3-0.2-4.4
					c0-2.4,0.1-4.6,0.2-6.4c-0.5,0-0.8,0-1-0.1c0-0.3,0-0.6,0-0.7c0-0.6,0.2-1.2,0.5-1.7c0.7-0.1,1.5-0.2,2.6-0.2
					c0.8,0,1.5,0.1,1.9,0.2c0.2,1.4,0.2,2.9,0.2,4.4c0,1.1,0,2.7-0.2,4.7s-0.2,3.4-0.2,4.2c0.1,0,0.2,0,0.4,0c0.4,0,0.8,0.1,1.1,0.2
					c0,0.1,0.1,0.2,0.1,0.4c0,0.3-0.1,0.8-0.2,1.4c-0.1,0.6-0.2,1-0.3,1.1c-0.2,0.1-1.1,0.2-2.5,0.2c-2.1,0-3.3-0.2-3.7-0.6
					C446.5,9074.4,446.5,9074,446.5,9073.2z"/>
				<path class="st3" d="M454.1,9070.2c0-0.7,0.2-1.4,0.4-2.1c0.3-0.7,0.7-1.4,1.2-2.1c0.5-0.6,1.2-1.2,2.2-1.6
					c0.9-0.4,1.9-0.6,3-0.6c1.2,0,2.2,0.2,2.9,0.8c0.7,0.6,1,1.2,1,2.1c0,1.2-0.6,2.3-1.8,3.1s-2.5,1.2-3.9,1.2
					c-0.4,0-0.8,0-1.2-0.1c0,1.1,1,1.6,2.8,1.6c0.3,0,0.6,0,0.8-0.1c0-0.1,0-0.2,0.1-0.4c0.7-0.5,1.4-0.8,2.1-0.8c0.2,0,0.2,0,0.3,0
					c1,0.5,1.6,1.4,1.8,2.6c0,0.1-0.1,0.2-0.2,0.4s-0.2,0.2-0.3,0.4c-0.1,0.2-0.2,0.2-0.5,0.3c-0.3,0.1-0.3,0.2-0.5,0.3
					c-0.1,0.1-0.3,0.1-0.5,0.3s-0.3,0.2-0.4,0.2s-0.2,0-0.2,0s-0.1-0.1-0.2-0.1s-0.1-0.1-0.1-0.1s0-0.1-0.1-0.2
					c-0.1-0.1-0.1-0.1-0.1-0.1c-0.8,0.3-1.7,0.5-2.6,0.5c-2,0-3.6-0.5-4.7-1.6C454.6,9072.9,454.1,9071.6,454.1,9070.2z
					 M458.5,9067.8c0,0.5,0.3,0.8,1.1,0.8c0.5,0,1-0.1,1.5-0.4s0.8-0.6,0.8-0.9c0-0.2-0.1-0.5-0.2-0.8c-0.2-0.3-0.5-0.4-0.8-0.4
					c-0.5,0-1,0.2-1.5,0.6C458.7,9067,458.5,9067.4,458.5,9067.8z"/>
				<path class="st3" d="M465.7,9080c0-0.7,0.1-1.6,0.3-2.6s0.4-1.6,0.5-1.8c0.2-0.1,0.4-0.1,0.6-0.1c0.7,0,1.2,0.2,1.8,0.5
					c0,0,0,0.1,0,0.3c0,0.1,0,0.2,0,0.4c0.2,0.1,0.5,0.1,0.9,0.2c0.4,0.1,0.7,0.1,0.8,0.2c0.2,0.1,0.4,0.1,0.6,0.1
					c0.2,0.1,0.5,0.1,0.7,0.1s0.4,0,0.7,0c1.2,0,2.1-0.3,2.7-0.8s0.9-1.5,1-2.8c-1.5,1.2-3.1,1.8-4.7,1.8c-2.7,0-4-1.8-4-5.5
					c0-0.9,0-1.6,0.2-2.3c0,0-0.1,0-0.2,0c-0.2,0-0.6,0-1-0.1c-0.2-0.3-0.3-0.9-0.3-1.6c0-0.9,0.1-1.4,0.3-1.8
					c1.2-0.3,2.2-0.5,3.2-0.5s1.9,0.1,2.6,0.4c0.3,0.4,0.5,0.9,0.5,1.7c0,0.7-0.1,1.2-0.3,1.6c-0.2,0.1-0.3,0.2-0.5,0.2
					c-0.1,0-0.1,0-0.1,0s0,0-0.1-0.1l-0.1-0.1c-0.1,0.4-0.1,0.9-0.1,1.5c0,0.9,0.2,1.6,0.5,2c0.3,0.5,0.8,0.7,1.3,0.7
					c0.6,0,1.2-0.3,1.7-0.8s0.7-1.2,0.7-2.2c0-0.4,0-0.8-0.1-1.2c-0.2,0.1-0.4,0.2-0.7,0.2s-0.5-0.1-0.5-0.1
					c-0.2-0.1-0.4-0.5-0.4-1.3s0.1-1.3,0.3-1.4c0.7-0.5,2-0.8,3.9-0.8c1.7,0,2.8,0.2,3.2,0.5c0,0.2,0.1,0.5,0.1,0.9
					c0,0.8-0.1,1.4-0.2,1.6c-0.1,0.1-0.3,0.2-0.7,0.2c-0.2,0-0.5-0.1-0.8-0.2c0,0.3,0,0.9,0.1,1.6c0.1,0.7,0.1,1.4,0.2,2.1
					s0.1,1.3,0.1,1.9c0,1.6-0.2,2.9-0.5,4.1c-0.3,1.1-0.8,2-1.3,2.7c-0.6,0.6-1.2,1.1-1.9,1.4c-0.7,0.3-1.4,0.4-2.2,0.4s-1.5,0-2,0
					s-1.1-0.1-1.8-0.2s-1.4-0.4-2-0.7c-0.2,0.5-0.2,0.8-0.2,0.8c-0.1,0.1-0.4,0.1-1,0.1c-1,0-1.4-0.1-1.5-0.2
					C465.8,9080.5,465.7,9080.3,465.7,9080z"/>
				<path class="st3" d="M487.1,9070.7c0-1.1,0.3-2.2,0.8-3.2s1.4-1.9,2.4-2.7s2.2-1.1,3.5-1.1c1.5,0,2.7,0.5,3.4,1.6
					c0.7,1,1.1,2.3,1.1,3.9c0,2.1-0.5,3.6-1.7,4.7c-1.2,1.1-2.6,1.6-4.3,1.6s-3-0.4-3.8-1.4C487.5,9073.1,487.1,9072,487.1,9070.7z
					 M491.4,9070c0,0.4,0.2,0.9,0.4,1.2c0.3,0.4,0.7,0.5,1.1,0.5c0.6,0,1.2-0.3,1.7-0.8s0.8-1.1,0.8-1.8c0-0.5-0.2-0.9-0.5-1.2
					c-0.3-0.3-0.7-0.5-1.2-0.5c-0.7,0-1.2,0.3-1.7,0.9C491.7,9068.8,491.4,9069.4,491.4,9070z"/>
				<path class="st3" d="M499.5,9066.4c0-1.1,0.1-1.8,0.2-2.1c0.2-0.1,0.7-0.2,1.4-0.3c0-1,0-1.7,0-2.3c0-0.5,0.1-1.1,0.2-1.6
					s0.2-0.9,0.4-1.1s0.4-0.4,0.8-0.6c0.3-0.2,0.8-0.3,1.2-0.3c0.4-0.1,1-0.1,1.7-0.1c1,0,1.7,0.1,2.2,0.1s1,0.2,1.5,0.5
					c0.2,0.2,0.3,0.9,0.3,2.1c0,0.6-0.1,1.1-0.2,1.5l-2.1-0.5l0.2-0.5c-0.1,0-0.2,0-0.4,0c-1.2,0-1.7,0.6-1.7,1.8c0,0.1,0,0.2,0,0.4
					c0,0.2,0,0.3,0,0.4h0.9c0.2,0,0.4,0,0.5,0s0.2,0,0.2,0c0.2,0,0.6,0,1,0.1c0,0.1,0.1,0.2,0.1,0.6c0,1.1-0.1,1.9-0.3,2.1
					c-0.2,0.2-1,0.3-2.2,0.3v4.7c0.2-0.1,0.4-0.1,0.7-0.1s0.4,0.1,0.5,0.1c0.2,0,0.2,0.3,0.2,0.9c0,0.1-0.1,0.8-0.2,1.9
					c-0.6,0.3-1.2,0.5-1.7,0.6s-1.2,0.2-2,0.2c-1.8,0-2.8-0.2-3.1-0.6c-0.2-0.2-0.2-0.5-0.2-1.1c0-0.9,0.2-1.4,0.7-1.6
					c0.2-0.1,0.4-0.2,0.7-0.2c0.1,0,0.2,0,0.3,0.1c0-3-0.1-4.5-0.1-4.6c0,0,0,0-0.1,0s-0.1,0-0.2,0h-0.3c-0.2,0-0.5,0-1-0.1
					C499.5,9066.9,499.5,9066.7,499.5,9066.4z"/>
				<path class="st3" d="M513.2,9067.4c0-2.4,0.6-4.4,1.7-5.9c1.2-1.5,2.6-2.3,4.4-2.3c1,0,2.1,0.3,3.2,0.8c0,0,0.1-0.1,0.2-0.4
					c0.1-0.3,0.2-0.4,0.3-0.4c0.7-0.1,1.2-0.2,1.7-0.2c0.6,0,1.1,0.1,1.4,0.4c0.1,0.4,0.2,0.9,0.2,1.4c0,1.1-0.2,2.1-0.5,3
					c-0.1,0.1-0.6,0.2-1.5,0.2c-0.8,0-1.3-0.1-1.6-0.2c-0.1-0.1-0.2-0.2-0.2-0.4c0-0.1,0-0.2,0.1-0.5c-0.6-0.2-1.2-0.3-1.7-0.3
					c-1.2,0-2,0.4-2.6,1.4s-0.9,2.1-0.9,3.4c0,1.3,0.3,2.3,0.8,2.9c0.5,0.6,1.2,0.9,2,0.9c0.5,0,0.9-0.1,1.4-0.3
					c0.2-0.4,0.3-0.7,0.3-1c0-0.3-0.1-0.6-0.3-0.9c-1.3,0-2-0.1-2-0.3c-0.1-0.1-0.2-0.4-0.2-0.9c0-0.8,0.1-1.2,0.3-1.3
					c0.3-0.5,1.2-0.7,2.6-0.7c0.8,0,1.5,0.1,2.3,0.2c0.7,0.1,1.2,0.3,1.2,0.6c0.1,0.3,0.2,0.9,0.4,1.9c0.1,1,0.2,2,0.2,3.1
					c0,1.3-0.1,2.5-0.2,3.4c-0.3,0.2-0.8,0.4-1.4,0.4c-0.4,0-1-0.1-1.7-0.2c-0.3-0.1-0.5-0.4-0.5-0.9c-1,0.7-2,1-3,1
					c-0.8,0-1.5-0.1-2.3-0.5c-0.8-0.3-1.4-0.8-2-1.4c-0.6-0.6-1.1-1.4-1.5-2.5C513.3,9069.9,513.2,9068.7,513.2,9067.4z"/>
				<path class="st3" d="M527.1,9065.6c1.3-1,3.2-1.8,5.9-2.2c0.6,0.9,0.9,1.6,0.9,2.3c0,0.1-0.2,0.2-0.5,0.4
					c-0.3,0.1-0.6,0.2-0.7,0.2c0.2,0.9,0.8,2.3,1.8,4.1c0.4-0.3,0.8-0.9,1.1-1.7s0.7-1.7,1-2.7s0.5-1.5,0.5-1.7c0.4-0.3,1-0.4,2-0.4
					c0.6,0,1.2,0.1,1.8,0.4c0,0.1,0.1,0.4,0.3,1.1c0.2,0.7,0.4,1.2,0.5,1.6c0.1,0.3,0.3,0.8,0.5,1.3c0.2,0.6,0.4,1,0.7,1.4
					c0.2,0.4,0.4,0.6,0.7,0.9c0.3-0.4,0.6-1.2,1-2.2s0.7-1.7,0.7-2.1c-0.2,0-0.4-0.1-0.8-0.2c-0.3-0.1-0.5-0.2-0.5-0.4
					c0-0.1,0.1-0.6,0.3-1.2s0.4-1,0.5-1.1c2.6,0.4,4.6,1.1,5.9,2.2c-0.2,0.9-0.3,1.8-0.6,2.4c-0.3-0.1-0.6-0.2-1-0.4
					c0,0.4-0.2,1.1-0.7,2c-0.2,0.6-0.8,1.5-1.6,2.9c0.4,0.1,0.8,0.4,1.1,0.8c0,0.6-0.3,1.1-1,1.7c0,0-0.3,0.1-0.7,0.1
					s-0.9,0.1-1.5,0.1s-1.2,0-1.8,0c-0.5,0-1.1-0.5-1.8-1.5c-0.8-1-1.5-2.1-2.1-3.2c-0.6,1.1-1.3,2.2-2.1,3.2s-1.4,1.5-1.8,1.5
					c-0.6,0-1.2,0-1.8,0c-0.7,0-1.2-0.1-1.5-0.1c-0.4,0-0.6-0.1-0.7-0.1c-0.7-0.6-1-1.1-1-1.7c0.1-0.1,0.3-0.2,0.5-0.5
					c0.3-0.2,0.5-0.3,0.5-0.3c-0.8-1.4-1.4-2.4-1.6-2.9c-0.4-0.9-0.7-1.6-0.7-2c-0.3,0.2-0.7,0.3-1,0.4
					C527.5,9067.3,527.2,9066.5,527.1,9065.6z"/>
				<path class="st3" d="M551.1,9070.2c0-0.7,0.2-1.4,0.4-2.1c0.3-0.7,0.7-1.4,1.2-2.1c0.5-0.6,1.2-1.2,2.2-1.6
					c0.9-0.4,1.9-0.6,3-0.6c1.2,0,2.2,0.2,2.9,0.8c0.7,0.6,1,1.2,1,2.1c0,1.2-0.6,2.3-1.8,3.1s-2.5,1.2-3.9,1.2
					c-0.4,0-0.8,0-1.2-0.1c0,1.1,1,1.6,2.8,1.6c0.3,0,0.6,0,0.8-0.1c0-0.1,0-0.2,0.1-0.4c0.7-0.5,1.4-0.8,2.1-0.8c0.2,0,0.2,0,0.3,0
					c1,0.5,1.6,1.4,1.8,2.6c0,0.1-0.1,0.2-0.2,0.4c-0.1,0.2-0.2,0.2-0.3,0.4c-0.1,0.2-0.2,0.2-0.5,0.3c-0.3,0.1-0.3,0.2-0.5,0.3
					c-0.1,0.1-0.3,0.1-0.5,0.3s-0.3,0.2-0.4,0.2c-0.1,0-0.2,0-0.2,0s-0.1-0.1-0.2-0.1c-0.1,0-0.1-0.1-0.1-0.1s0-0.1-0.1-0.2
					c-0.1-0.1-0.1-0.1-0.1-0.1c-0.8,0.3-1.7,0.5-2.6,0.5c-2,0-3.6-0.5-4.7-1.6C551.6,9072.9,551.1,9071.6,551.1,9070.2z
					 M555.5,9067.8c0,0.5,0.3,0.8,1.1,0.8c0.5,0,1-0.1,1.5-0.4s0.8-0.6,0.8-0.9c0-0.2-0.1-0.5-0.2-0.8c-0.2-0.3-0.5-0.4-0.8-0.4
					c-0.5,0-1,0.2-1.5,0.6C555.7,9067,555.5,9067.4,555.5,9067.8z"/>
				<path class="st3" d="M563.6,9073.3c0-0.7,0.2-1.1,0.5-1.3c0.1-0.1,0.4-0.1,0.8-0.2c0.3-0.1,0.5-0.1,0.5-0.1
					c-0.2-1.8-0.2-2.9-0.2-3.3c0-1.1,0.1-1.8,0.2-2.1c-0.4,0-0.8,0-1-0.1c-0.1-0.3-0.2-0.6-0.2-0.8c0-0.5,0.2-1,0.6-1.6
					c0.5-0.1,1.6-0.1,3.1-0.1c0.5,0,1,0,1.5,0.1c0.5,0.1,0.9,0.1,1.2,0.2s0.4,0.1,0.4,0.2c0.1,0.2,0.2,0.4,0.2,0.8
					c0,0.8-0.1,1.4-0.4,1.6c0,0.1-0.2,0.1-0.6,0.1c-0.4,0-0.6,0-0.8-0.1c-0.2,1.1-0.2,2.4-0.2,4.1c0,0.7,0,1.1,0.1,1.1s0.2,0,0.4,0
					c0.4,0,0.7,0.1,1,0.2c0,0.1,0.1,0.3,0.1,0.6c0,0.4,0,0.8-0.2,1.3s-0.2,0.9-0.3,1.1c-0.2,0.1-1,0.2-2.3,0.2
					c-2.2,0-3.5-0.2-3.8-0.6C563.7,9074.3,563.6,9073.9,563.6,9073.3z M565.8,9059.3c0-0.4,0.2-0.6,0.7-0.6c0.4,0,0.8,0.1,1.2,0.4
					c0.3-0.3,0.7-0.5,1.2-0.5c0.3,0,0.6,0.1,0.8,0.4s0.4,0.5,0.4,0.9c0,0.2,0,0.4-0.1,0.6s-0.2,0.3-0.2,0.4
					c-0.1,0.1-0.2,0.2-0.5,0.4c-0.2,0.1-0.4,0.3-0.5,0.4c-0.1,0.1-0.3,0.2-0.6,0.4c-0.3,0.1-0.5,0.2-0.5,0.3c-0.6-0.4-1-0.9-1.4-1.5
					C566,9060.2,565.8,9059.7,565.8,9059.3z"/>
				<path class="st3" d="M414.5,9089.5c0-0.8,0-1.2,0.1-1.3c0.2-0.2,0.5-0.4,0.8-0.6c0.3-0.2,0.9-0.4,1.7-0.7
					c0.8-0.2,1.6-0.4,2.5-0.4c0.5,0,1,0.1,1.2,0.2c0.2,0.4,0.3,1.9,0.3,4.6c0,3.7-0.1,6.2-0.3,7.6c0.1,0,0.2,0,0.4,0
					c0.4,0,0.8,0.1,1.1,0.2c0,0.1,0.1,0.2,0.1,0.4c0,0.3-0.1,0.8-0.2,1.4c-0.1,0.6-0.2,1-0.3,1.1c-0.3,0.1-1.1,0.2-2.4,0.2
					c-2.3,0-3.7-0.2-4.1-0.6c-0.1-0.1-0.1-0.6-0.1-1.3s0-1.1,0.1-1.2l1.2-0.2c0.3-0.1,0.5-0.1,0.5-0.1c-0.2-1.5-0.3-3-0.3-4.5
					c0-1.4,0.1-2.9,0.3-4.4c-0.7,0.5-1.5,0.8-2.4,0.9C414.6,9090.6,414.5,9090.2,414.5,9089.5z"/>
				<path class="st3" d="M423.5,9094.3c0-0.7,0-1.2,0.1-1.5c1.3-2.6,3.2-4.6,5.8-6.1c0.7-0.3,1.4-0.4,2.1-0.4s1.3,0.1,1.7,0.4
					c0.2,0.7,0.3,2.2,0.3,4.7c0,0.7,0,1.2,0,1.5c0,0,0.1,0,0.2,0s0.2,0,0.2,0c0.2,0,0.3,0,0.5,0.1c0.3,0.1,0.5,0.7,0.5,1.5
					c0,0.6-0.1,1.1-0.4,1.3c-0.1,0.1-0.3,0.1-0.7,0.1c-0.2,0-0.4,0-0.5,0c0.1,0.5,0.1,1,0.1,1.3c0,0.8-0.1,1.4-0.3,1.8
					c0.1,0,0.2,0,0.4,0c0.4,0,0.8,0.1,1.1,0.2c0.3,0.2,0.5,0.8,0.5,1.8c0,0.5,0,0.9-0.2,1.1c-0.7,0.1-2,0.2-3.8,0.2
					c-1.9,0-3-0.1-3.1-0.3s-0.2-0.7-0.2-1.5c0-0.7,0.1-1.1,0.2-1.3c0.1-0.1,0.3-0.1,0.6-0.2c0.2-0.1,0.5-0.1,0.7-0.1
					c-0.1-0.9-0.1-1.5-0.1-1.8c0-0.5,0-0.9,0.1-1.2c-0.7,0.1-1.7,0.1-3,0.1c-1.7,0-2.6-0.1-2.9-0.1
					C423.6,9095.7,423.5,9095.1,423.5,9094.3z M427.3,9092.8c0.5,0,0.9-0.1,1.2-0.1c0.4,0,0.8,0,1.1,0.1c0-0.5,0-1.4,0.1-2.6
					C428.7,9091.1,427.9,9092,427.3,9092.8z"/>
				<path class="st3" d="M441.3,9091.8c0-1.6,0.5-3,1.7-4c1.1-1.1,2.4-1.6,3.9-1.6c1.1,0,2.1,0.3,3,0.8c0.1-0.4,0.2-0.8,0.5-0.9
					c0.3-0.1,0.7-0.2,1.1-0.2c0.7,0,1.2,0.1,1.5,0.4c0.1,0.3,0.1,0.8,0.1,1.6c0,2-0.3,3.1-0.9,3.2c-0.2,0.1-0.5,0.1-0.8,0.1
					c-0.5,0-1-0.1-1.3-0.3c-0.1-0.2-0.1-0.5-0.1-0.7c-0.5-0.4-1.1-0.6-1.7-0.6c-0.7,0-1.2,0.2-1.7,0.7s-0.8,0.9-0.8,1.5
					c0,0.9,0.7,1.3,2,1.3c0.1,0,0.5,0,1.1,0s1,0,1.1,0c1,0,1.8,0.3,2.4,0.8s1,1.5,1,2.8c0,1.7-0.6,3.1-1.8,4.2
					c-1.2,1.1-2.7,1.6-4.5,1.6c-1,0-2-0.3-2.7-0.8c0,0.4-0.1,0.6-0.2,0.8c-0.3,0.1-0.7,0.2-1.3,0.2c-0.7,0-1.1-0.1-1.3-0.3
					c-0.1-0.6-0.1-1.1-0.1-1.6c0-1.4,0.3-2.6,1-3.8c0.3-0.1,0.5-0.1,0.8-0.1c0.5,0,1,0.1,1.2,0.4c0.1,0.2,0.1,0.5,0.2,0.9
					c0.4,0.5,1,0.8,1.8,0.8s1.4-0.1,1.9-0.4c0.5-0.3,0.7-0.7,0.7-1.2c0-0.3-0.1-0.5-0.2-0.6c-0.2-0.2-0.3-0.3-0.7-0.4
					c-0.4-0.1-0.5-0.1-0.8-0.1s-0.5-0.1-0.8-0.1c-0.4,0-0.7,0-0.9-0.1c-0.2,0-0.5-0.1-1-0.1s-0.8-0.2-1-0.3
					c-0.2-0.1-0.6-0.2-0.9-0.5c-0.3-0.2-0.6-0.4-0.8-0.7s-0.3-0.6-0.5-1C441.4,9092.8,441.3,9092.3,441.3,9091.8z"/>
				<path class="st3" d="M454.6,9097.2c0-0.7,0.2-1.4,0.4-2.1c0.3-0.7,0.7-1.4,1.2-2.1c0.5-0.6,1.2-1.2,2.2-1.6
					c0.9-0.4,1.9-0.6,3-0.6c1.2,0,2.2,0.2,2.9,0.8c0.7,0.6,1,1.2,1,2.1c0,1.2-0.6,2.3-1.8,3.1s-2.5,1.2-3.9,1.2
					c-0.4,0-0.8,0-1.2-0.1c0,1.1,1,1.6,2.8,1.6c0.3,0,0.6,0,0.8-0.1c0-0.1,0-0.2,0.1-0.4c0.7-0.5,1.4-0.8,2.1-0.8c0.2,0,0.2,0,0.3,0
					c1,0.5,1.6,1.4,1.8,2.6c0,0.1-0.1,0.2-0.2,0.4s-0.2,0.2-0.3,0.4c-0.1,0.2-0.2,0.2-0.5,0.3c-0.3,0.1-0.3,0.2-0.5,0.3
					c-0.1,0.1-0.3,0.1-0.5,0.3s-0.3,0.2-0.4,0.2s-0.2,0-0.2,0s-0.1-0.1-0.2-0.1s-0.1-0.1-0.1-0.1s0-0.1-0.1-0.2
					c-0.1-0.1-0.1-0.1-0.1-0.1c-0.8,0.3-1.7,0.5-2.6,0.5c-2,0-3.6-0.5-4.7-1.6C455.2,9099.9,454.6,9098.6,454.6,9097.2z M459,9094.8
					c0,0.5,0.3,0.8,1.1,0.8c0.5,0,1-0.1,1.5-0.4s0.8-0.6,0.8-0.9c0-0.2-0.1-0.5-0.2-0.8c-0.2-0.3-0.5-0.4-0.8-0.4
					c-0.5,0-1,0.2-1.5,0.6C459.2,9094,459,9094.4,459,9094.8z"/>
				<path class="st3" d="M466.8,9106.1c0-0.7,0-1.1,0.1-1.3c0.1-0.1,0.3-0.2,0.8-0.3c0.4-0.1,0.8-0.1,1.1-0.1c0.2,0,0.2,0,0.3,0
					c0-0.2,0-0.9,0-1.9s0-1.9,0-2.6c0-2.6,0.1-4.4,0.2-5.2c0,0-0.2,0-0.4,0c-0.5,0-1-0.1-1.5-0.1c-0.1-0.1-0.2-0.7-0.2-1.9
					c0-0.7,0-1.1,0.1-1.3c0.1-0.2,0.5-0.3,1-0.5c0.6-0.1,1.2-0.2,2-0.2c1.4,0,2.2,0,2.5,0.1c0.1,0.3,0.1,0.6,0.1,0.9
					c0,0.1,0,0.2,0,0.2c0.2-0.1,0.7-0.3,1.5-0.7c0.7-0.4,1.3-0.6,1.8-0.6c0.8,0,1.5,0.3,2.1,0.9s1.1,1.4,1.4,2.2
					c0.3,0.9,0.5,1.7,0.5,2.6c0,1.5-0.5,2.9-1.3,4.1c-0.9,1.2-2.1,1.8-3.6,1.8c-0.7,0-1.3-0.1-2-0.3c0,0,0,0.3,0,0.9
					c0,0.6,0,1.2,0,1.8c0,1.5,0,2.3-0.1,2.4c-0.5,0.5-1.6,0.7-3.2,0.7c-0.8,0-1.4-0.1-2-0.1c-0.5-0.1-0.8-0.1-1-0.2l-0.2-0.1
					C466.8,9107.2,466.8,9106.8,466.8,9106.1z M472.7,9097.2c0,0.5,0.2,0.9,0.5,1.3s0.7,0.5,1.2,0.5c0.6,0,1.2-0.3,1.7-0.9
					c0.5-0.6,0.8-1.2,0.8-1.8c0-0.5-0.2-0.9-0.4-1.2c-0.3-0.4-0.7-0.5-1.1-0.5c-0.6,0-1.2,0.3-1.7,0.8
					C473,9095.9,472.7,9096.5,472.7,9097.2z"/>
				<path class="st3" d="M480.5,9091.4c0-0.3,0-0.5,0.1-0.6c0.4-0.1,0.7-0.1,1-0.1c0.1,0,0.2,0,0.2,0c0.1,0,0.2,0,0.2,0h0.1v-4.2
					c1.2-0.1,1.8-0.1,2.1-0.1c0.5,0,1.2,0.1,2,0.1v4.2c1.3,0.1,2.1,0.1,2.4,0.3c0.2,0.2,0.3,0.9,0.3,2.1c0,0.3,0,0.5-0.1,0.6
					c-0.4,0.1-0.8,0.1-1,0.1h-0.2c-0.1,0-0.3,0-0.6,0s-0.6,0-1,0c0,0.1,0,0.6,0,1.6s0,1.6,0,1.6c0,0.6,0.1,1.1,0.4,1.4
					c0.2,0.3,0.6,0.4,1.1,0.4c0.2,0,0.3,0,0.3-0.1c0,0,0.1-0.1,0.1-0.3c0-0.1,0.2-0.2,0.6-0.3l1.5-0.4c0.2,0.4,0.2,0.9,0.2,1.5
					c0,1.1-0.1,1.9-0.3,2.1c0,0-0.2,0.1-0.3,0.2c-0.2,0.1-0.3,0.2-0.3,0.2s-0.2,0.1-0.3,0.1s-0.3,0.1-0.4,0.1s-0.3,0.1-0.5,0.1
					s-0.5,0.1-0.7,0.1s-0.5,0-0.9,0c-0.7,0-1.2,0-1.6-0.1s-0.8-0.2-1.2-0.4c-0.4-0.2-0.7-0.5-0.9-0.9c-0.2-0.4-0.4-0.9-0.5-1.6
					c-0.2-0.6-0.2-1.4-0.2-2.4c0-0.9,0-2,0-3.3c-0.7-0.1-1.1-0.2-1.3-0.3C480.5,9093.2,480.5,9092.5,480.5,9091.4z"/>
				<path class="st3" d="M491,9097.2c0-0.7,0.2-1.4,0.4-2.1c0.3-0.7,0.7-1.4,1.2-2.1c0.5-0.6,1.2-1.2,2.2-1.6c0.9-0.4,1.9-0.6,3-0.6
					c1.2,0,2.2,0.2,2.9,0.8c0.7,0.6,1,1.2,1,2.1c0,1.2-0.6,2.3-1.8,3.1s-2.5,1.2-3.9,1.2c-0.4,0-0.8,0-1.2-0.1c0,1.1,1,1.6,2.8,1.6
					c0.3,0,0.6,0,0.8-0.1c0-0.1,0-0.2,0.1-0.4c0.7-0.5,1.4-0.8,2.1-0.8c0.2,0,0.2,0,0.3,0c1,0.5,1.6,1.4,1.8,2.6
					c0,0.1-0.1,0.2-0.2,0.4s-0.2,0.2-0.3,0.4c-0.1,0.2-0.2,0.2-0.5,0.3c-0.3,0.1-0.3,0.2-0.5,0.3c-0.1,0.1-0.3,0.1-0.5,0.3
					s-0.3,0.2-0.4,0.2s-0.2,0-0.2,0s-0.1-0.1-0.2-0.1s-0.1-0.1-0.1-0.1s0-0.1-0.1-0.2c-0.1-0.1-0.1-0.1-0.1-0.1
					c-0.8,0.3-1.7,0.5-2.6,0.5c-2,0-3.6-0.5-4.7-1.6C491.5,9099.9,491,9098.6,491,9097.2z M495.4,9094.8c0,0.5,0.3,0.8,1.1,0.8
					c0.5,0,1-0.1,1.5-0.4s0.8-0.6,0.8-0.9c0-0.2-0.1-0.5-0.2-0.8c-0.2-0.3-0.5-0.4-0.8-0.4c-0.5,0-1,0.2-1.5,0.6
					C495.6,9094,495.4,9094.4,495.4,9094.8z"/>
				<path class="st3" d="M503.6,9100.6c0-0.9,0.2-1.5,0.6-1.8c0.2-0.1,0.4-0.2,0.6-0.2c0.1,0,0.2,0,0.3,0.1c0-0.4,0-1.1,0-2.1
					c0-0.9,0-1.7,0-2.2c0,0-0.2,0-0.3,0.1s-0.2,0.1-0.3,0.1c0,0-0.2,0-0.3-0.1c-0.1,0-0.2-0.1-0.3-0.1c0-0.1-0.1-0.2-0.1-0.5
					c0-0.4,0-0.9,0.2-1.5c0.1-0.6,0.2-1,0.3-1.1c0.2-0.1,0.5-0.2,1-0.3s1.1-0.1,1.7-0.1c0.7,0,1.3,0.1,1.8,0.3
					c0.1,0.1,0.2,0.3,0.2,0.6c0,0.1,0,0.3-0.1,0.8c1.6-1.2,3-1.8,4.4-1.8c1.5,0,2.5,0.6,3.2,1.8c1.8-1.2,3.3-1.8,4.7-1.8
					c1.2,0,2.1,0.4,2.8,1.3c0.7,0.9,1.1,2.1,1.1,3.8c0,0.2,0,1.1-0.2,2.4c0,0,0.1-0.1,0.2-0.1c0.2,0,0.5,0,1,0.1
					c0.1,0.1,0.2,0.6,0.2,1.5c0,1.1-0.1,1.7-0.2,1.9c-1.1,0.3-2.2,0.4-3.1,0.4c-1,0-1.9-0.1-2.7-0.4c-0.1-0.1-0.2-0.4-0.3-0.8
					c-0.1-0.5-0.2-0.9-0.2-1.2c0-0.5,0.1-0.9,0.4-1.3c0.2-0.1,0.4-0.1,0.6-0.1c0.1,0,0.1,0,0.2,0c0.1,0,0.1,0,0.1,0.1l0.1,0.1
					c0.1-0.4,0.1-0.9,0.1-1.2c0-0.9-0.2-1.5-0.6-2c-0.4-0.4-0.9-0.7-1.5-0.7c-0.4,0-0.8,0.1-1.2,0.4c-0.4,0.2-0.7,0.6-0.9,1.1
					c0,1.1-0.1,1.8-0.1,2.2c0,0,0.1-0.1,0.2-0.1c0.2,0,0.5,0,1,0.1c0.1,0.1,0.2,0.6,0.2,1.5c0,1.1-0.1,1.7-0.2,1.9
					c-1.1,0.3-2.2,0.4-3.1,0.4c-1,0-1.9-0.1-2.7-0.4c-0.1-0.1-0.2-0.4-0.3-0.8c-0.1-0.5-0.2-0.9-0.2-1.2c0-0.5,0.1-0.9,0.4-1.3
					c0.2-0.1,0.4-0.1,0.6-0.1c0.1,0,0.1,0,0.2,0c0.1,0,0.1,0,0.1,0.1l0.1,0.1c0-0.4,0.1-0.6,0.1-0.9c0-1-0.2-1.8-0.6-2.3
					c-0.4-0.5-0.9-0.8-1.5-0.8s-1.2,0.2-1.6,0.8c-0.4,0.6-0.7,1.2-0.7,2.1c0,0.4,0,0.8,0.1,1.2c0.2-0.1,0.4-0.1,0.7-0.1
					s0.4,0.1,0.5,0.1c0.2,0,0.2,0.3,0.2,0.9c0,0.1-0.1,0.8-0.2,1.9c-1.1,0.5-2.5,0.8-4,0.8c-1.4,0-2.3-0.2-2.7-0.6
					C503.7,9101.3,503.6,9101,503.6,9100.6z"/>
				<path class="st3" d="M527,9086.8c0-0.7,0-1.1,0.1-1.2l0.2-0.1c0.1-0.1,0.4-0.1,0.9-0.2c0.5-0.1,1.1-0.1,1.9-0.1
					c1.7,0,2.8,0.2,3.3,0.7c0.1,0.1,0.1,0.9,0.1,2.4c0,0.6,0,1.2,0,1.8c0,0.6,0,0.9,0,0.9c0.6-0.2,1.3-0.3,2-0.3
					c1.6,0,2.8,0.6,3.7,1.8s1.4,2.6,1.4,4.1c0,0.9-0.2,1.7-0.5,2.6c-0.3,0.9-0.8,1.6-1.5,2.3c-0.7,0.6-1.4,0.9-2.2,0.9
					c-0.5,0-1.1-0.2-1.8-0.6c-0.7-0.4-1.2-0.6-1.5-0.7c0,0,0,0.1,0,0.2c0,0.2,0,0.5-0.1,0.8c-0.3,0.1-1.2,0.1-2.6,0.1
					c-0.7,0-1.3-0.1-1.9-0.2c-0.5-0.1-0.9-0.3-1-0.4c0-0.2-0.1-0.6-0.1-1.2c0-1.1,0-1.8,0.2-1.9c0.5-0.1,0.9-0.1,1.4-0.1
					c0.2,0,0.4,0,0.4,0c-0.2-0.9-0.2-2.6-0.2-5.4c0-0.7,0-1.6,0-2.6s0-1.6,0-1.9c-0.2,0-0.3,0.1-0.5,0.1c-0.3,0-0.7,0-1-0.1
					c-0.4-0.1-0.6-0.2-0.7-0.3C527,9087.9,527,9087.5,527,9086.8z M533,9095.7c0,0.7,0.3,1.4,0.8,1.9s1.1,0.8,1.7,0.8
					c0.5,0,0.8-0.2,1.1-0.5c0.3-0.4,0.4-0.8,0.4-1.2c0-0.6-0.2-1.3-0.7-1.9c-0.5-0.6-1-0.9-1.7-0.9c-0.5,0-0.9,0.2-1.2,0.5
					C533.2,9094.8,533,9095.2,533,9095.7z"/>
				<path class="st3" d="M541,9097.2c0-0.7,0.2-1.4,0.4-2.1c0.3-0.7,0.7-1.4,1.2-2.1c0.5-0.6,1.2-1.2,2.2-1.6c0.9-0.4,1.9-0.6,3-0.6
					c1.2,0,2.2,0.2,2.9,0.8c0.7,0.6,1,1.2,1,2.1c0,1.2-0.6,2.3-1.8,3.1s-2.5,1.2-3.9,1.2c-0.4,0-0.8,0-1.2-0.1c0,1.1,1,1.6,2.8,1.6
					c0.3,0,0.6,0,0.8-0.1c0-0.1,0-0.2,0.1-0.4c0.7-0.5,1.4-0.8,2.1-0.8c0.2,0,0.2,0,0.3,0c1,0.5,1.6,1.4,1.8,2.6
					c0,0.1-0.1,0.2-0.2,0.4c-0.1,0.2-0.2,0.2-0.3,0.4c-0.1,0.2-0.2,0.2-0.5,0.3c-0.3,0.1-0.3,0.2-0.5,0.3c-0.1,0.1-0.3,0.1-0.5,0.3
					s-0.3,0.2-0.4,0.2c-0.1,0-0.2,0-0.2,0s-0.1-0.1-0.2-0.1c-0.1,0-0.1-0.1-0.1-0.1s0-0.1-0.1-0.2c-0.1-0.1-0.1-0.1-0.1-0.1
					c-0.8,0.3-1.7,0.5-2.6,0.5c-2,0-3.6-0.5-4.7-1.6C541.6,9099.9,541,9098.6,541,9097.2z M545.4,9094.8c0,0.5,0.3,0.8,1.1,0.8
					c0.5,0,1-0.1,1.5-0.4s0.8-0.6,0.8-0.9c0-0.2-0.1-0.5-0.2-0.8c-0.2-0.3-0.5-0.4-0.8-0.4c-0.5,0-1,0.2-1.5,0.6
					C545.7,9094,545.4,9094.4,545.4,9094.8z"/>
				<path class="st3" d="M553.7,9092.3c0-0.7,0-1.1,0.1-1.3c0.6-0.3,1.7-0.4,3.4-0.4c0.6,0,1.1,0.1,1.4,0.1s0.6,0.2,0.9,0.5
					c0,0.2,0,0.6,0,1.1l0.1-0.2c0-0.1,0.2-0.3,0.3-0.4c0.1-0.1,0.3-0.4,0.5-0.5c0.2-0.2,0.4-0.3,0.8-0.4c0.3-0.1,0.7-0.2,1.1-0.2
					c1.2,0,2.1,0.5,2.9,1.5c-0.3,1.4-1.2,2.4-2.5,2.9c-0.5-0.4-1-0.6-1.5-0.6c-0.6,0-1,0.3-1.4,0.9c-0.3,0.6-0.5,1.3-0.5,2.2
					c0,0.3,0,0.6,0,1c0.1,0,0.3,0.1,0.8,0.1l0.2,0.1c0.2,0.2,0.3,0.6,0.3,1.2c0,0.4,0,0.9-0.2,1.4c-0.1,0.4-0.3,0.8-0.5,1
					c-0.3,0.1-1.1,0.1-2.4,0.1c-0.8,0-1.5-0.1-2.3-0.2c-0.8-0.1-1.2-0.3-1.3-0.4c0-0.2-0.1-0.6-0.1-1.2c0-1.2,0-1.8,0.2-1.9
					c0.6-0.1,1-0.2,1.2-0.2s0.4,0,0.5,0.1c-0.2-0.2-0.4-1.3-0.4-3.2c0-0.7,0-1.1,0.1-1.1c-0.2,0-0.3,0.1-0.5,0.1
					c-0.5,0-0.9-0.1-1.1-0.4C553.8,9093.4,553.7,9093,553.7,9092.3z"/>
				<path class="st3" d="M409.2,9115.5c0-0.7,0.1-1.1,0.4-1.3c0.1-0.2,0.6-0.4,1.3-0.6c0.8-0.1,1.5-0.2,2.4-0.2s1.5,0.1,1.8,0.2
					c0.1,0.3,0.1,0.6,0.1,0.8c0,0.1,0,0.2,0,0.2c0.2-0.1,0.7-0.3,1.5-0.7c0.8-0.4,1.5-0.6,2-0.6c0.8,0,1.5,0.3,2.1,1
					c0.6,0.6,1.1,1.4,1.4,2.3c0.3,0.9,0.4,1.8,0.4,2.6c0,1.5-0.4,2.7-1.3,3.7c-0.8,1-2,1.5-3.5,1.5c-0.8,0-1.5-0.1-2.2-0.3
					c0,0.1,0,0.3,0,0.5c0,0.6,0,1.1-0.1,1.7c0.1,0,0.3,0,0.7,0c0.2,0,0.5,0,0.8,0.1c0.3,0.1,0.5,0.2,0.5,0.3c0.2,0.1,0.4,0.5,0.4,1
					s-0.1,0.8-0.4,1c-0.1,0.3-1.5,0.5-4,0.5c-1,0-2,0-2.8-0.1c-0.8-0.1-1.3-0.2-1.3-0.3c-0.2-0.2-0.3-0.5-0.3-1s0.1-0.8,0.3-1.1
					c0.1-0.1,0.2-0.2,0.5-0.3c0.2-0.1,0.5-0.1,0.8-0.1c0.2,0,0.3,0,0.3,0c0-0.2,0-0.7,0-1.4c0-0.7,0-1.4,0-2.1
					c0-2.7,0.1-4.4,0.2-5.3c0,0-0.2,0-0.4,0c-0.3,0-0.8,0-1.2-0.1C409.4,9116.9,409.2,9116.3,409.2,9115.5z M415.6,9119.5
					c0,0.5,0.1,0.9,0.4,1.1c0.2,0.2,0.6,0.4,1,0.4c0.5,0,1-0.2,1.5-0.7s0.7-1,0.7-1.7c0-0.4-0.1-0.8-0.3-1.1
					c-0.2-0.3-0.5-0.4-0.9-0.4c-0.6,0-1.2,0.2-1.7,0.8C415.8,9118.5,415.6,9118.9,415.6,9119.5z"/>
				<path class="st3" d="M423.9,9119.3c0-0.7,0-1.1,0.1-1.3c0.6-0.3,1.7-0.4,3.4-0.4c0.6,0,1.1,0.1,1.4,0.1c0.3,0.1,0.6,0.2,0.9,0.5
					c0,0.2,0,0.6,0,1.1l0.1-0.2c0-0.1,0.2-0.3,0.3-0.5c0.1-0.2,0.3-0.4,0.5-0.5c0.2-0.1,0.4-0.3,0.8-0.4c0.3-0.1,0.7-0.2,1.1-0.2
					c1.2,0,2.1,0.5,2.9,1.5c-0.3,1.4-1.2,2.4-2.5,3c-0.5-0.4-1-0.6-1.5-0.6c-0.6,0-1,0.3-1.4,0.9c-0.3,0.6-0.5,1.3-0.5,2.2
					c0,0.3,0,0.6,0,1c0.1,0,0.3,0,0.8,0.1h0.2c0.2,0.2,0.3,0.5,0.3,1.2c0,0.5,0,0.9-0.2,1.4s-0.3,0.8-0.5,1c-0.3,0-1.1,0.1-2.4,0.1
					c-0.8,0-1.5-0.1-2.3-0.2c-0.8-0.1-1.2-0.3-1.3-0.5c0-0.2-0.1-0.6-0.1-1.2c0-1.2,0-1.8,0.2-1.9c0.6-0.1,1-0.2,1.2-0.2
					s0.4,0,0.5,0.1c-0.2-0.2-0.4-1.3-0.4-3.2c0-0.7,0-1,0.1-1.1c-0.2,0-0.3,0.1-0.5,0.1c-0.5,0-0.9-0.1-1.1-0.4
					C423.9,9120.4,423.9,9120,423.9,9119.3z"/>
				<path class="st3" d="M435.2,9124.2c0-0.7,0.2-1.4,0.4-2.1c0.3-0.7,0.7-1.4,1.2-2.1c0.5-0.6,1.2-1.2,2.2-1.6
					c0.9-0.4,1.9-0.6,3-0.6c1.2,0,2.2,0.2,2.9,0.8c0.7,0.6,1,1.2,1,2.1c0,1.2-0.6,2.3-1.8,3.1c-1.2,0.8-2.5,1.2-3.9,1.2
					c-0.4,0-0.8,0-1.2-0.1c0,1.1,1,1.6,2.8,1.6c0.3,0,0.6,0,0.8-0.1c0-0.1,0-0.2,0.1-0.4c0.7-0.5,1.4-0.8,2.1-0.8c0.2,0,0.2,0,0.3,0
					c1,0.5,1.6,1.4,1.8,2.6c0,0.1-0.1,0.2-0.2,0.4s-0.2,0.2-0.3,0.4c-0.1,0.2-0.2,0.2-0.5,0.3c-0.3,0.1-0.3,0.2-0.5,0.3
					c-0.2,0.1-0.3,0.1-0.5,0.3s-0.3,0.2-0.4,0.2s-0.2,0-0.2,0s-0.1,0-0.2-0.1l-0.1-0.1c0,0,0-0.1-0.1-0.2c0-0.1-0.1-0.1-0.1-0.1
					c-0.8,0.3-1.7,0.5-2.6,0.5c-2,0-3.6-0.5-4.7-1.5C435.7,9126.9,435.2,9125.6,435.2,9124.2z M439.6,9121.8c0,0.5,0.3,0.8,1.1,0.8
					c0.5,0,1-0.1,1.5-0.4s0.8-0.6,0.8-0.9c0-0.2-0.1-0.5-0.2-0.8c-0.2-0.3-0.5-0.4-0.8-0.4c-0.5,0-1,0.2-1.5,0.5
					C439.8,9121,439.6,9121.4,439.6,9121.8z"/>
				<path class="st3" d="M447.5,9128.4c0-0.4,0.1-0.9,0.2-1.3c0.1-0.4,0.3-0.8,0.7-1.2c0.4-0.4,0.7-0.5,1.2-0.5
					c0.4,0,0.8,0.1,1.2,0.2c0.5,0.1,0.7,0.4,0.7,0.6c0,0,0,0.1,0,0.2c0.5,0.1,0.9,0.2,1.1,0.2c0.3,0,0.7-0.1,0.9-0.4
					s0.4-0.5,0.4-0.9c0-0.4-0.2-0.6-0.4-0.8c-0.3-0.2-0.6-0.3-1-0.3s-0.9,0-1.4-0.1c-0.5-0.1-1-0.2-1.4-0.3c-0.4-0.1-0.8-0.4-1-0.8
					c-0.3-0.4-0.4-1-0.4-1.7c0-0.9,0.2-1.7,0.8-2.3c0.5-0.6,1.1-1,1.8-1.2s1.5-0.3,2.3-0.3c0.7,0,1.4,0.1,2.2,0.2
					c0.2-0.3,0.3-0.4,0.5-0.5c1.1,0.1,1.8,0.5,2.2,1.2c0,0.4-0.1,0.9-0.2,1.3c-0.1,0.4-0.3,0.8-0.7,1.2c-0.4,0.4-0.7,0.6-1.2,0.6
					c-0.4,0-0.8-0.1-1.2-0.2c-0.4-0.1-0.7-0.4-0.7-0.6c0-0.1,0-0.1,0-0.2c-0.3-0.1-0.7-0.2-0.8-0.2c-0.3,0-0.7,0.1-0.9,0.4
					c-0.2,0.2-0.4,0.5-0.4,0.8c0,0.4,0.2,0.6,0.7,0.8c0.4,0.2,1,0.3,1.5,0.3c0.6,0,1.2,0.1,1.8,0.3c0.6,0.1,1.1,0.4,1.6,0.8
					c0.5,0.4,0.7,1,0.7,1.8c0,1.3-0.5,2.3-1.7,3c-1.1,0.7-2.4,1-4,1c-0.7,0-1.5-0.1-2.3-0.2c-0.2,0.3-0.3,0.4-0.5,0.5
					C448.6,9129.5,447.9,9129.1,447.5,9128.4z"/>
				<path class="st3" d="M459.3,9124.4c0-1.1,0.2-2.1,0.5-3.1s0.8-1.8,1.6-2.5c0.7-0.7,1.6-1.1,2.6-1.1c0.4,0,0.8,0.1,1.1,0.2
					c0.3,0.1,0.6,0.3,0.8,0.4c0.2,0.2,0.3,0.4,0.5,0.5c0.1,0.2,0.2,0.3,0.2,0.5l0.1,0.2c0-0.5,0-0.9,0-1.1c0.5-0.4,1.4-0.6,2.7-0.6
					c0.5,0,0.8,0,1.2,0.1c0.3,0,0.6,0.1,0.8,0.1s0.3,0.1,0.5,0.1c0.1,0,0.2,0.1,0.2,0.1l0,0c0,0.1,0.1,0.5,0.1,1.3s0,1.1-0.1,1.3
					c-0.2,0.3-0.6,0.4-1.1,0.4c-0.2,0-0.3,0-0.5,0c0,0.1,0.1,0.4,0.1,1c0,1.9-0.1,3-0.2,3.1c0.1,0,0.2-0.1,0.4-0.1s0.6,0.1,1.2,0.3
					c0.1,0.1,0.2,0.8,0.2,2c0,0.6,0,1.1-0.1,1.2c-0.1,0.2-0.4,0.3-1,0.5s-1.2,0.2-1.8,0.2c-1.8,0-2.8,0-3-0.1
					c-0.1-0.3-0.2-0.5-0.2-0.7c0-0.1,0-0.2,0.1-0.3c-0.2,0.1-0.7,0.3-1.5,0.7s-1.3,0.6-1.7,0.6c-1.2,0-2-0.5-2.6-1.5
					C459.6,9127,459.3,9125.8,459.3,9124.4z M462.3,9124c0,0.5,0.2,1,0.4,1.3c0.3,0.4,0.7,0.5,1.1,0.5c0.6,0,1.2-0.3,1.7-0.9
					c0.5-0.5,0.8-1.2,0.8-1.9c0-0.5-0.2-0.9-0.5-1.2s-0.7-0.5-1.2-0.5s-0.9,0.1-1.2,0.4c-0.4,0.3-0.7,0.7-0.9,1.1
					C462.4,9123.3,462.3,9123.6,462.3,9124z"/>
				<path class="st3" d="M473.2,9127.2c0-0.7,0-1.1,0.1-1.2s0.4-0.1,0.8-0.2c0.3,0,0.5-0.1,0.5-0.1c-0.2-0.9-0.2-2.3-0.2-4.4
					c0-2.4,0.1-4.5,0.2-6.4c-0.5,0-0.8,0-1-0.1c0-0.3,0-0.5,0-0.7c0-0.6,0.2-1.2,0.5-1.7c0.7-0.1,1.5-0.2,2.6-0.2
					c0.8,0,1.5,0.1,1.9,0.2c0.2,1.4,0.2,2.9,0.2,4.4c0,1.1,0,2.7-0.2,4.7c-0.1,2-0.2,3.5-0.2,4.2c0.1,0,0.2,0,0.4,0
					c0.4,0,0.8,0.1,1.1,0.2c0,0,0.1,0.2,0.1,0.4c0,0.3-0.1,0.8-0.2,1.4c-0.1,0.6-0.2,1-0.3,1.1c-0.2,0.1-1.1,0.2-2.5,0.2
					c-2.1,0-3.3-0.2-3.7-0.6C473.3,9128.4,473.2,9128,473.2,9127.2z"/>
				<path class="st3" d="M480.9,9124.2c0-0.7,0.2-1.4,0.4-2.1c0.3-0.7,0.7-1.4,1.2-2.1c0.5-0.6,1.2-1.2,2.2-1.6
					c0.9-0.4,1.9-0.6,3-0.6c1.2,0,2.2,0.2,2.9,0.8c0.7,0.6,1,1.2,1,2.1c0,1.2-0.6,2.3-1.8,3.1c-1.2,0.8-2.5,1.2-3.9,1.2
					c-0.4,0-0.8,0-1.2-0.1c0,1.1,1,1.6,2.8,1.6c0.3,0,0.6,0,0.8-0.1c0-0.1,0-0.2,0.1-0.4c0.7-0.5,1.4-0.8,2.1-0.8c0.2,0,0.2,0,0.3,0
					c1,0.5,1.6,1.4,1.8,2.6c0,0.1-0.1,0.2-0.2,0.4s-0.2,0.2-0.3,0.4c-0.1,0.2-0.2,0.2-0.5,0.3c-0.3,0.1-0.3,0.2-0.5,0.3
					c-0.1,0-0.3,0.1-0.5,0.3s-0.3,0.2-0.4,0.2s-0.2,0-0.2,0s-0.1,0-0.2-0.1l-0.1-0.1c0,0,0-0.1-0.1-0.2c0-0.1-0.1-0.1-0.1-0.1
					c-0.8,0.3-1.7,0.5-2.6,0.5c-2,0-3.6-0.5-4.7-1.5C481.4,9126.9,480.9,9125.6,480.9,9124.2z M485.2,9121.8c0,0.5,0.3,0.8,1.1,0.8
					c0.5,0,1-0.1,1.5-0.4s0.8-0.6,0.8-0.9c0-0.2-0.1-0.5-0.2-0.8c-0.2-0.3-0.5-0.4-0.8-0.4c-0.5,0-1,0.2-1.5,0.5
					C485.5,9121,485.2,9121.4,485.2,9121.8z"/>
				<path class="st3" d="M498.1,9115.4c0-1,0.1-1.6,0.3-1.9c0.5-0.1,1.7-0.2,3.7-0.2c2.2,0,3.4,0.1,3.6,0.2c0.2,0.4,0.3,1,0.3,2
					c0,0.4,0,0.6-0.1,0.7c-0.3,0.1-0.7,0.2-1.2,0.2c-0.3,0-0.5,0-0.8-0.1c0,0.9-0.1,1.9-0.1,3c0,2.2,0.2,4.3,0.8,6.1
					c0,0.1,0.5,0.2,1.5,0.2c0.8,0,1.4-0.1,1.7-0.3l-0.1-1.4c0.8-0.5,1.6-0.7,2.4-0.7c0.3,0,0.6,0.1,1,0.1c0.4,1.1,0.5,2.2,0.5,3.3
					c0,0.9-0.1,1.5-0.2,1.9c-0.6,0.2-1.7,0.4-3.4,0.5c-1.7,0.2-3.2,0.2-4.7,0.2c-2.3,0-4-0.2-4.9-0.7c-0.1-0.2-0.2-0.4-0.2-0.8
					c0-1.4,0.2-2.2,0.6-2.4c0.2-0.1,0.4-0.2,0.6-0.2c0,0,0.2,0,0.3,0c-0.2-2.8-0.3-4.7-0.3-5.7c0-0.5,0.1-1.6,0.2-3.4
					c-0.2,0.1-0.5,0.1-0.7,0.1c-0.3,0-0.6,0-0.8-0.1C498.1,9116,498.1,9115.8,498.1,9115.4z"/>
				<path class="st3" d="M512.5,9124.4c0-1.1,0.2-2.1,0.5-3.1s0.8-1.8,1.6-2.5c0.7-0.7,1.6-1.1,2.6-1.1c0.4,0,0.8,0.1,1.1,0.2
					c0.3,0.1,0.6,0.3,0.8,0.4c0.2,0.2,0.3,0.4,0.5,0.5c0.1,0.2,0.2,0.3,0.2,0.5l0.1,0.2c0-0.5,0-0.9,0-1.1c0.5-0.4,1.4-0.6,2.7-0.6
					c0.5,0,0.8,0,1.2,0.1c0.3,0,0.6,0.1,0.8,0.1s0.3,0.1,0.5,0.1c0.1,0,0.2,0.1,0.2,0.1l0,0c0,0.1,0.1,0.5,0.1,1.3s0,1.1-0.1,1.3
					c-0.2,0.3-0.6,0.4-1.1,0.4c-0.2,0-0.3,0-0.5,0c0,0.1,0.1,0.4,0.1,1c0,1.9-0.1,3-0.2,3.1c0.1,0,0.2-0.1,0.4-0.1s0.6,0.1,1.2,0.3
					c0.1,0.1,0.2,0.8,0.2,2c0,0.6,0,1.1-0.1,1.2c-0.1,0.2-0.4,0.3-1,0.5s-1.2,0.2-1.8,0.2c-1.8,0-2.8,0-3-0.1
					c-0.1-0.3-0.2-0.5-0.2-0.7c0-0.1,0-0.2,0.1-0.3c-0.2,0.1-0.7,0.3-1.5,0.7s-1.3,0.6-1.7,0.6c-1.2,0-2-0.5-2.6-1.5
					C512.7,9127,512.5,9125.8,512.5,9124.4z M515.5,9124c0,0.5,0.2,1,0.4,1.3c0.3,0.4,0.7,0.5,1.1,0.5c0.6,0,1.2-0.3,1.7-0.9
					c0.5-0.5,0.8-1.2,0.8-1.9c0-0.5-0.2-0.9-0.5-1.2s-0.7-0.5-1.2-0.5s-0.9,0.1-1.2,0.4c-0.4,0.3-0.7,0.7-0.9,1.1
					C515.5,9123.3,515.5,9123.6,515.5,9124z"/>
				<path class="st3" d="M526.2,9120.3c0-1,0.1-1.6,0.2-1.9c1.1-0.3,2.2-0.5,3.1-0.5c1,0,1.9,0.1,2.7,0.4c0.1,0.1,0.2,0.4,0.3,0.8
					c0.1,0.5,0.2,0.9,0.2,1.2c0,0.5-0.1,0.9-0.4,1.3c-0.2,0.1-0.4,0.1-0.6,0.1c-0.1,0-0.1,0-0.2,0c-0.1,0-0.1,0-0.1-0.1h-0.1
					c-0.1,0.4-0.1,0.9-0.1,1.2c0,0.9,0.2,1.5,0.7,2c0.4,0.5,1,0.7,1.6,0.7s1.1-0.3,1.6-0.8s0.7-1.2,0.7-2.2c0-0.4,0-0.8-0.1-1.2
					c-0.2,0.1-0.4,0.2-0.7,0.2c-0.2,0-0.3-0.1-0.3-0.1c-0.2-0.1-0.3-0.6-0.3-1.4s0.1-1.2,0.3-1.4c1-0.5,2.3-0.8,3.7-0.8
					c1.6,0,2.6,0.2,2.9,0.6c0.2,0.2,0.2,0.6,0.2,1c0,0.9-0.2,1.4-0.7,1.6c-0.2,0.1-0.4,0.2-0.6,0.2c-0.1,0-0.2,0-0.3,0
					c0,0.4,0,1.1,0,2.1s0,1.7,0,2.2c0.5,0,0.7,0,0.8,0c0.2,0,0.3,0,0.4,0c0.1,0,0.1,0.2,0.1,0.5c0,0.4-0.1,0.9-0.2,1.5
					c-0.2,0.6-0.3,1-0.4,1.1c-0.2,0.1-0.5,0.2-1.2,0.3c-0.6,0.1-1.2,0.2-1.8,0.2c-0.7,0-1.2-0.1-1.6-0.3c-0.1-0.1-0.2-0.3-0.2-0.6
					c0,0,0-0.3,0.1-0.8c-1.6,1.2-3.1,1.8-4.5,1.8c-1.2,0-2.2-0.4-2.8-1.2c-0.7-0.9-1.1-2.1-1.1-3.9c0-0.3,0-1.1,0.2-2.5
					c0,0-0.1,0.1-0.2,0.1c-0.2,0-0.5,0-1-0.1C526.3,9121.6,526.2,9121.1,526.2,9120.3z"/>
				<path class="st3" d="M542.5,9124c0-2.1,0.7-3.6,2-4.7c1.3-1.1,3.2-1.6,5.8-1.6l0.2-0.6c0.4-0.1,0.8-0.1,1.2-0.1
					c0.9,0,1.7,0.2,2.4,0.8c0,0.2,0.1,0.5,0.1,0.9c0,0.8-0.1,1.4-0.4,2c-0.2,0.5-0.6,0.9-1,1c-0.7,0.2-1.2,0.4-1.8,0.4
					c-0.5,0-1-0.1-1.5-0.4l0.2-0.8c-0.3-0.1-0.7-0.2-1-0.2c-0.7,0-1.2,0.3-1.7,1s-0.7,1.3-0.7,2.1c0,0.6,0.2,1.2,0.5,1.7
					s0.7,0.8,1.1,0.8s0.9-0.2,1.5-0.5l-0.2-0.6c0.7-0.5,1.5-0.8,2.4-0.8c0.3,0,0.7,0,1.2,0.1c0.9,1,1.4,2.2,1.4,3.6
					c0,0.3,0,0.6-0.1,0.9c-0.8,0.5-1.8,0.8-2.8,0.8c-0.2,0-0.4,0-0.7,0l-0.2-0.6c-1,0.2-1.9,0.3-2.7,0.3c-1.6,0-2.9-0.5-3.8-1.3
					C543,9127.2,542.5,9125.9,542.5,9124z"/>
				<path class="st3" d="M554.6,9114.7c0-1.1,0.2-1.8,0.6-2c0.5-0.3,1.4-0.4,2.8-0.4c0.7,0,1.5,0.1,2.3,0.3c0.3,0.5,0.5,1.8,0.5,3.9
					c0,1.5-0.1,2.5-0.2,3c1.6-1.2,3.1-1.8,4.5-1.8c1.2,0,2.1,0.4,2.8,1.3s1.1,2.1,1.1,3.9c0,0.3,0,1.1-0.2,2.5c0,0,0.1,0,0.2,0
					c0.2,0,0.6,0,1,0.1c0.1,0.1,0.2,0.6,0.2,1.5c0,1-0.1,1.7-0.2,2c-1.1,0.2-2.2,0.4-3.1,0.4c-1,0-1.9-0.1-2.7-0.3
					c-0.1-0.1-0.2-0.4-0.3-0.8c-0.1-0.5-0.2-0.9-0.2-1.2c0-0.5,0.1-0.9,0.4-1.3c0.2-0.1,0.4-0.1,0.6-0.1c0.1,0,0.1,0,0.2,0
					c0.1,0,0.1,0,0.1,0h0.1c0.1-0.5,0.1-0.9,0.1-1.2c0-0.9-0.2-1.5-0.6-2c-0.4-0.5-0.9-0.7-1.5-0.7s-1.2,0.3-1.6,0.8
					c-0.5,0.6-0.7,1.3-0.7,2.2c0,0.4,0,0.8,0.1,1.2c0.2-0.1,0.4-0.2,0.6-0.2s0.4,0,0.5,0.1c0.1,0,0.2,0.3,0.2,0.9
					c0,0.1-0.1,0.8-0.2,1.9c-1.1,0.5-2.3,0.7-3.8,0.7c-1.7,0-2.6-0.2-2.9-0.6c-0.1-0.2-0.2-0.4-0.2-0.8c0-1.1,0.2-1.7,0.6-1.9
					c0.2-0.1,0.5-0.2,0.8-0.2c0.1,0,0.2,0,0.3,0c-0.2-1-0.2-3.1-0.2-6.1c0-2,0-3.3,0.2-3.8c-0.2,0.1-0.6,0.1-1.1,0.1
					c-0.3,0-0.7,0-0.9-0.1C554.6,9115.6,554.6,9115.3,554.6,9114.7z"/>
			</g>
		</g>
	</g>
	<g id="Step-17">
		<g>
			<path class="st0" d="M586.4,8415.6c-0.1-0.5-0.7-0.8-1.1-0.6c-1.7,0.5-3.2,0.7-4.3,0.8c-0.4,0-2.8,0-5.3,0.7
				c-0.4,0.1-0.8,0.2-1.3,0.6c-0.9,0.6-1.9,1.8-2,3.3c0,1.5,1.2,2.5,1.6,2.8c3.2,2.6,10.7-1,13-2.2c0.3-0.3,0.6-0.7,0.4-1.1
				C587.1,8418.3,586.8,8416.9,586.4,8415.6z"/>
			<path class="st0" d="M593.1,8417c0.2-1.1,0-2.3-1-3.1c-1.1-1-2.8-1-4.4-0.1c-0.3,0.3-0.6,0.7-0.4,1.1l1.2,4.3
				c0.1,0.5,0.7,0.8,1.1,0.7C591.4,8419.6,592.7,8418.5,593.1,8417z"/>
		</g>
		<g>
			<path class="st0" d="M535.6,8425c0.2-0.4,0-0.8-0.4-1.1c-2.1-1.4-9.2-5.8-12.7-3.5c-0.4,0.2-1.7,1.1-1.8,2.7
				c-0.2,1.4,0.7,2.7,1.6,3.4c0.4,0.4,0.8,0.5,1.2,0.7c2.4,0.9,4.7,1.2,5.2,1.2c1,0.1,2.5,0.5,4.1,1.2c0.5,0.2,1,0,1.2-0.6
				C534.6,8427.7,535.1,8426.4,535.6,8425z"/>
			<path class="st0" d="M537.7,8425c-0.5-0.1-0.9,0.1-1.2,0.6l-1.7,4.1c-0.2,0.4,0,0.8,0.3,1.1c1.4,1,3.1,1.2,4.3,0.4
				c1-0.7,1.4-1.9,1.3-3C540.7,8426.9,539.5,8425.5,537.7,8425z"/>
		</g>
	</g>
	<g id="Step-16">
		<g>
			<path class="st0" d="M586.4,7605.6c-0.1-0.5-0.7-0.8-1.1-0.6c-1.7,0.5-3.2,0.7-4.3,0.8c-0.4,0-2.8,0-5.3,0.7
				c-0.4,0.1-0.8,0.2-1.3,0.6c-0.9,0.6-1.9,1.8-2,3.3c0,1.5,1.2,2.5,1.6,2.8c3.2,2.6,10.7-1,13-2.2c0.3-0.3,0.6-0.7,0.4-1.1
				C587.1,7608.3,586.8,7606.9,586.4,7605.6z"/>
			<path class="st0" d="M593.1,7607c0.2-1.1,0-2.3-1-3.1c-1.1-1-2.8-1-4.4-0.1c-0.3,0.3-0.6,0.7-0.4,1.1l1.2,4.3
				c0.1,0.5,0.7,0.8,1.1,0.7C591.4,7609.6,592.7,7608.5,593.1,7607z"/>
		</g>
		<g>
			<path class="st0" d="M628.2,7592.6c0-0.4-0.3-0.8-0.8-0.9c-2.5-0.5-10.8-1.7-13.1,1.7c-0.2,0.3-1.1,1.7-0.7,3.2
				c0.3,1.4,1.7,2.2,2.8,2.6c0.5,0.2,0.9,0.1,1.3,0.2c2.5-0.1,4.7-0.7,5.2-0.9c1-0.3,2.4-0.5,4.3-0.6c0.5,0,0.9-0.4,0.8-1
				C628.4,7595.5,628.3,7594.1,628.2,7592.6z"/>
			<path class="st0" d="M630.2,7591.8c-0.5,0.1-0.8,0.5-0.8,1l0.1,4.5c0,0.4,0.3,0.8,0.7,0.9c1.7,0.4,3.3-0.1,4.1-1.3
				c0.6-1,0.5-2.3,0-3.3C633.7,7592.3,632,7591.6,630.2,7591.8z"/>
		</g>
	</g>
	<g id="Step-15">
		<g>
			<path class="st0" d="M671.9,6790.8c0-0.5-0.5-0.9-1-0.8c-1.8,0.2-3.3,0.1-4.3-0.1c-0.4-0.1-2.8-0.5-5.3-0.4
				c-0.4,0-0.8,0.1-1.4,0.3c-1,0.4-2.3,1.4-2.6,2.8c-0.3,1.5,0.7,2.7,1,3.1c2.6,3.2,10.7,1.2,13.2,0.4c0.4-0.2,0.7-0.6,0.6-0.9
				C672.1,6793.6,672.1,6792.2,671.9,6790.8z"/>
			<path class="st0" d="M678.2,6793.5c0.4-1,0.4-2.2-0.4-3.2c-0.9-1.1-2.6-1.5-4.3-0.9c-0.4,0.2-0.7,0.6-0.6,0.9l0.3,4.4
				c0,0.5,0.5,0.9,0.9,0.9C676.1,6795.7,677.6,6794.9,678.2,6793.5z"/>
		</g>
		<g>
			<path class="st0" d="M628.2,6782.6c0-0.4-0.3-0.8-0.8-0.9c-2.5-0.5-10.8-1.7-13.1,1.7c-0.2,0.3-1.1,1.7-0.7,3.2
				c0.3,1.4,1.7,2.2,2.8,2.6c0.5,0.2,0.9,0.1,1.3,0.2c2.5-0.1,4.7-0.7,5.2-0.9c1-0.3,2.4-0.5,4.3-0.6c0.5,0,0.9-0.4,0.8-1
				C628.4,6785.5,628.3,6784.1,628.2,6782.6z"/>
			<path class="st0" d="M630.2,6781.8c-0.5,0.1-0.8,0.5-0.8,1l0.1,4.5c0,0.4,0.3,0.8,0.7,0.9c1.7,0.4,3.3-0.1,4.1-1.3
				c0.6-1,0.5-2.3,0-3.3C633.7,6782.3,632,6781.6,630.2,6781.8z"/>
		</g>
	</g>
	<g id="Step-14">
		<g>
			<path class="st0" d="M671.9,5980.8c0-0.5-0.5-0.9-1-0.8c-1.8,0.2-3.3,0.1-4.3-0.1c-0.4-0.1-2.8-0.5-5.3-0.4
				c-0.4,0-0.8,0.1-1.4,0.3c-1,0.4-2.3,1.4-2.6,2.8c-0.3,1.5,0.7,2.7,1,3.1c2.6,3.2,10.7,1.2,13.2,0.4c0.4-0.2,0.7-0.6,0.6-0.9
				C672.1,5983.6,672.1,5982.2,671.9,5980.8z"/>
			<path class="st0" d="M678.2,5983.5c0.4-1,0.4-2.2-0.4-3.2c-0.9-1.1-2.6-1.5-4.3-0.9c-0.4,0.2-0.7,0.6-0.6,0.9l0.3,4.4
				c0,0.5,0.5,0.9,0.9,0.9C676.1,5985.7,677.6,5984.9,678.2,5983.5z"/>
		</g>
		<g>
			<path class="st0" d="M713.5,5972.6c0-0.4-0.3-0.8-0.8-0.9c-2.5-0.5-10.8-1.7-13.1,1.7c-0.2,0.3-1.1,1.7-0.7,3.2
				c0.3,1.4,1.7,2.2,2.8,2.6c0.5,0.2,0.9,0.1,1.3,0.2c2.5-0.1,4.7-0.7,5.2-0.9c1-0.3,2.4-0.5,4.3-0.6c0.5,0,0.9-0.4,0.8-1
				C713.6,5975.5,713.5,5974.1,713.5,5972.6z"/>
			<path class="st0" d="M715.5,5971.8c-0.5,0.1-0.8,0.5-0.8,1l0.1,4.5c0,0.4,0.3,0.8,0.7,0.9c1.7,0.4,3.3-0.1,4.1-1.3
				c0.6-1,0.5-2.3,0-3.3C718.9,5972.3,717.3,5971.6,715.5,5971.8z"/>
		</g>
	</g>
	<g id="Step-13">
		<g>
			<path class="st0" d="M753.8,5165.6c0-0.5-0.6-0.9-1-0.7c-1.8,0.3-3.2,0.3-4.3,0.2c-0.4-0.1-2.8-0.4-5.3-0.1
				c-0.4,0-0.8,0.1-1.3,0.4c-1,0.5-2.2,1.5-2.4,3s0.9,2.7,1.2,3c2.8,3,10.7,0.5,13.2-0.4c0.4-0.2,0.7-0.6,0.6-1
				C754.2,5168.4,754.1,5167,753.8,5165.6z"/>
			<path class="st0" d="M760.3,5167.9c0.3-1,0.3-2.3-0.6-3.2c-0.9-1.1-2.7-1.3-4.3-0.6c-0.4,0.2-0.7,0.6-0.6,1l0.6,4.4
				c0,0.5,0.6,0.9,1,0.9C758.2,5170.2,759.7,5169.3,760.3,5167.9z"/>
		</g>
		<g>
			<path class="st0" d="M713.5,5162.6c0-0.4-0.3-0.8-0.8-0.9c-2.5-0.5-10.8-1.7-13.1,1.7c-0.2,0.3-1.1,1.7-0.7,3.2
				c0.3,1.4,1.7,2.2,2.8,2.6c0.5,0.2,0.9,0.1,1.3,0.2c2.5-0.1,4.7-0.7,5.2-0.9c1-0.3,2.4-0.5,4.3-0.6c0.5,0,0.9-0.4,0.8-1
				C713.6,5165.5,713.5,5164.1,713.5,5162.6z"/>
			<path class="st0" d="M715.5,5161.8c-0.5,0.1-0.8,0.5-0.8,1l0.1,4.5c0,0.4,0.3,0.8,0.7,0.9c1.7,0.4,3.3-0.1,4.1-1.3
				c0.6-1,0.5-2.3,0-3.3C718.9,5162.3,717.3,5161.6,715.5,5161.8z"/>
		</g>
	</g>
	<g id="Step-12">
		<g>
			<path class="st0" d="M753.8,4355.6c0-0.5-0.6-0.9-1-0.7c-1.8,0.3-3.2,0.3-4.3,0.2c-0.4-0.1-2.8-0.4-5.3-0.1
				c-0.4,0-0.8,0.1-1.3,0.4c-1,0.5-2.2,1.5-2.4,3s0.9,2.7,1.2,3c2.8,3,10.7,0.5,13.2-0.4c0.4-0.2,0.7-0.6,0.6-1
				C754.2,4358.4,754.1,4357,753.8,4355.6z"/>
			<path class="st0" d="M760.3,4357.9c0.3-1,0.3-2.3-0.6-3.2c-0.9-1.1-2.7-1.3-4.3-0.6c-0.4,0.2-0.7,0.6-0.6,1l0.6,4.4
				c0,0.5,0.6,0.9,1,0.9C758.2,4360.2,759.7,4359.3,760.3,4357.9z"/>
		</g>
		<g>
			<path class="st0" d="M789.2,4343.1c0-0.4-0.3-0.8-0.7-0.9c-2.5-0.6-10.7-2.1-13.2,1.2c-0.3,0.3-1.2,1.7-0.8,3.1
				c0.3,1.4,1.6,2.3,2.7,2.7c0.5,0.2,0.9,0.2,1.3,0.2c2.5,0,4.8-0.6,5.2-0.7c1-0.2,2.5-0.4,4.3-0.4c0.5,0,1-0.3,0.9-0.9
				C789.2,4346,789.2,4344.6,789.2,4343.1z"/>
			<path class="st0" d="M791.2,4342.4c-0.5,0.1-0.9,0.4-0.9,0.9l-0.1,4.5c0,0.4,0.3,0.8,0.6,0.9c1.7,0.5,3.3,0,4.2-1.2
				c0.7-1,0.6-2.3,0.2-3.3C794.7,4343,793,4342.2,791.2,4342.4z"/>
		</g>
	</g>
	<g id="Step-11">
		<g>
			<path class="st0" d="M821.8,3554.2c0.2-0.5-0.1-1-0.6-1.1c-1.7-0.5-3-1.2-3.9-1.8c-0.4-0.3-2.3-1.6-4.7-2.4
				c-0.4-0.2-0.8-0.2-1.4-0.3c-1.1,0-2.6,0.4-3.5,1.6c-0.9,1.3-0.4,2.8-0.3,3.2c1.2,4,9.4,5.3,12,5.6c0.4,0,0.9-0.2,0.9-0.6
				C820.8,3556.9,821.4,3555.6,821.8,3554.2z"/>
			<path class="st0" d="M826.5,3559.2c0.8-0.8,1.3-1.9,0.9-3.1c-0.3-1.4-1.8-2.4-3.6-2.5c-0.4,0-0.9,0.2-0.9,0.6l-1.4,4.2
				c-0.2,0.5,0.1,1,0.5,1.2C823.6,3560.4,825.4,3560.2,826.5,3559.2z"/>
		</g>
		<g>
			<path class="st0" d="M789.2,3533.1c0-0.4-0.3-0.8-0.7-0.9c-2.5-0.6-10.7-2.1-13.2,1.2c-0.3,0.3-1.2,1.7-0.8,3.1
				c0.3,1.4,1.6,2.3,2.7,2.7c0.5,0.2,0.9,0.2,1.3,0.2c2.5,0,4.8-0.6,5.2-0.7c1-0.2,2.5-0.4,4.3-0.4c0.5,0,1-0.3,0.9-0.9
				C789.2,3536,789.2,3534.6,789.2,3533.1z"/>
			<path class="st0" d="M791.2,3532.4c-0.5,0.1-0.9,0.4-0.9,0.9l-0.1,4.5c0,0.4,0.3,0.8,0.6,0.9c1.7,0.5,3.3,0,4.2-1.2
				c0.7-1,0.6-2.3,0.2-3.3C794.7,3533,793,3532.2,791.2,3532.4z"/>
		</g>
	</g>
	<g id="Step-10">
		<g>
			<path class="st0" d="M821.8,2744.2c0.2-0.5-0.1-1-0.6-1.1c-1.7-0.5-3-1.2-3.9-1.8c-0.4-0.3-2.3-1.6-4.7-2.4
				c-0.4-0.2-0.8-0.2-1.4-0.3c-1.1,0-2.6,0.4-3.5,1.6c-0.9,1.3-0.4,2.8-0.3,3.2c1.2,4,9.4,5.3,12,5.6c0.4,0,0.9-0.2,0.9-0.6
				C820.8,2746.9,821.4,2745.6,821.8,2744.2z"/>
			<path class="st0" d="M826.5,2749.2c0.8-0.8,1.3-1.9,0.9-3.1c-0.3-1.4-1.8-2.4-3.6-2.5c-0.4,0-0.9,0.2-0.9,0.6l-1.4,4.2
				c-0.2,0.5,0.1,1,0.5,1.2C823.6,2750.4,825.4,2750.2,826.5,2749.2z"/>
		</g>
		<g>
			<path class="st0" d="M858.5,2749.8c0.2-0.4,0-0.8-0.3-1.1c-2.1-1.4-9.2-5.9-12.7-3.7c-0.4,0.2-1.7,1.1-1.9,2.6
				c-0.2,1.4,0.7,2.7,1.5,3.5c0.4,0.4,0.8,0.5,1.2,0.7c2.4,0.9,4.6,1.2,5.2,1.3c1,0.1,2.5,0.5,4.1,1.2c0.5,0.2,1,0,1.2-0.5
				C857.4,2752.5,857.9,2751.2,858.5,2749.8z"/>
			<path class="st0" d="M860.6,2749.9c-0.5-0.1-0.9,0.1-1.2,0.5l-1.7,4.1c-0.2,0.4,0,0.8,0.2,1.1c1.4,1.1,3.1,1.3,4.3,0.4
				c1-0.7,1.4-1.9,1.3-3C863.6,2751.8,862.3,2750.4,860.6,2749.9z"/>
		</g>
	</g>
	<g id="Step-9">
		<g>
			<path class="st0" d="M885.7,1954.8c0-0.5-0.4-1-0.9-0.9c-1.8,0-3.2-0.3-4.3-0.6c-0.4-0.2-2.7-0.8-5.2-1c-0.4-0.1-0.8,0-1.4,0.1
				c-1.1,0.3-2.4,1.1-2.9,2.5c-0.5,1.5,0.4,2.8,0.6,3.2c2.3,3.5,10.5,2.4,13.1,1.9c0.4-0.1,0.8-0.5,0.7-0.9
				C885.6,1957.6,885.7,1956.2,885.7,1954.8z"/>
			<path class="st0" d="M891.7,1958.2c0.5-1,0.7-2.2,0-3.2c-0.7-1.2-2.4-1.8-4.2-1.4c-0.4,0.1-0.8,0.5-0.7,0.9l-0.2,4.4
				c0,0.5,0.4,1,0.8,1C889.2,1960.1,890.9,1959.5,891.7,1958.2z"/>
		</g>
		<g>
			<path class="st0" d="M858.5,1939.8c0.2-0.4,0-0.8-0.3-1.1c-2.1-1.4-9.2-5.9-12.7-3.7c-0.4,0.2-1.7,1.1-1.9,2.6
				c-0.2,1.4,0.7,2.7,1.5,3.5c0.4,0.4,0.8,0.5,1.2,0.7c2.4,0.9,4.6,1.2,5.2,1.3c1,0.1,2.5,0.5,4.1,1.2c0.5,0.2,1,0,1.2-0.5
				C857.4,1942.5,857.9,1941.2,858.5,1939.8z"/>
			<path class="st0" d="M860.6,1939.9c-0.5-0.1-0.9,0.1-1.2,0.5l-1.7,4.1c-0.2,0.4,0,0.8,0.2,1.1c1.4,1.1,3.1,1.3,4.3,0.4
				c1-0.7,1.4-1.9,1.3-3C863.6,1941.8,862.3,1940.4,860.6,1939.9z"/>
		</g>
	</g>
	<g id="Step-8">
		<g>
			<path class="st0" d="M885.7,1144.8c0-0.5-0.4-1-0.9-0.9c-1.8,0-3.2-0.3-4.3-0.6c-0.4-0.2-2.7-0.8-5.2-1c-0.4-0.1-0.8,0-1.4,0.1
				c-1.1,0.3-2.4,1.1-2.9,2.5c-0.5,1.5,0.4,2.8,0.6,3.2c2.3,3.5,10.5,2.4,13.1,1.9c0.4-0.1,0.8-0.5,0.7-0.9
				C885.6,1147.6,885.7,1146.2,885.7,1144.8z"/>
			<path class="st0" d="M891.7,1148.2c0.5-1,0.7-2.2,0-3.2c-0.7-1.2-2.4-1.8-4.2-1.4c-0.4,0.1-0.8,0.5-0.7,0.9l-0.2,4.4
				c0,0.5,0.4,1,0.8,1C889.2,1150.1,890.9,1149.5,891.7,1148.2z"/>
		</g>
		<g>
			<path class="st0" d="M921.1,1138.3c0.1-0.4-0.2-0.8-0.6-1c-2.4-0.8-10.4-3.2-13.2,0c-0.3,0.3-1.3,1.6-1.1,3
				c0.2,1.4,1.4,2.4,2.4,2.9c0.5,0.3,0.9,0.3,1.3,0.3c2.5,0.2,4.8-0.1,5.3-0.2c1-0.1,2.5-0.2,4.3,0c0.5,0.1,1-0.2,1-0.8
				C920.8,1141.2,920.9,1139.8,921.1,1138.3z"/>
			<path class="st0" d="M923.1,1137.8c-0.5,0-0.9,0.3-1,0.8l-0.5,4.4c-0.1,0.4,0.2,0.8,0.5,1c1.6,0.6,3.3,0.4,4.3-0.8
				c0.8-0.9,0.8-2.2,0.5-3.2C926.5,1138.8,925,1137.8,923.1,1137.8z"/>
		</g>
	</g>
	<g id="Step-7">
		<g>
			<path class="st0" d="M953.6,339.7c0.1-0.5-0.3-1-0.8-1c-1.8-0.2-3.2-0.6-4.2-1c-0.4-0.2-2.6-1.1-5.1-1.5c-0.4-0.1-0.8-0.1-1.4,0
				c-1.1,0.2-2.5,0.9-3.1,2.2c-0.6,1.4,0.1,2.8,0.3,3.2c1.9,3.7,10.2,3.4,12.8,3.2c0.4-0.1,0.8-0.4,0.8-0.8
				C953.2,342.5,953.5,341.1,953.6,339.7z"/>
			<path class="st0" d="M959.2,343.7c0.6-0.9,0.9-2.1,0.3-3.2c-0.6-1.3-2.2-2-4-1.8c-0.4,0.1-0.8,0.4-0.8,0.8l-0.6,4.4
				c-0.1,0.5,0.3,1,0.7,1.1C956.6,345.4,958.3,344.9,959.2,343.7z"/>
		</g>
		<g>
			<path class="st0" d="M921.1,328.3c0.1-0.4-0.2-0.8-0.6-1c-2.4-0.8-10.4-3.2-13.2,0c-0.3,0.3-1.3,1.6-1.1,3s1.4,2.4,2.4,2.9
				c0.5,0.3,0.9,0.3,1.3,0.3c2.5,0.2,4.8-0.1,5.3-0.2c1-0.1,2.5-0.2,4.3,0c0.5,0.1,1-0.2,1-0.8C920.8,331.2,920.9,329.8,921.1,328.3
				z"/>
			<path class="st0" d="M923.1,327.8c-0.5,0-0.9,0.3-1,0.8l-0.5,4.4c-0.1,0.4,0.2,0.8,0.5,1c1.6,0.6,3.3,0.4,4.3-0.8
				c0.8-0.9,0.8-2.2,0.5-3.2C926.5,328.8,925,327.8,923.1,327.8z"/>
		</g>
	</g>
</g>
</svg>
