<?xml version="1.0" encoding="utf-8"?>
<!-- Generator: Adobe Illustrator 26.4.1, SVG Export Plug-In . SVG Version: 6.00 Build 0)  -->
<svg version="1.1" id="FQT-Animation" xmlns="http://www.w3.org/2000/svg" xmlns:xlink="http://www.w3.org/1999/xlink" x="0px"
	 y="0px" viewBox="0 0 1080 14580" style="enable-background:new 0 0 1080 14580;" xml:space="preserve">
<style type="text/css">
	.st0{stroke:#000000;stroke-width:0.3411;stroke-miterlimit:10;}
	.st1{fill:#FFFFFF;stroke:#000000;stroke-width:0.5;stroke-opacity:0.4;stroke-linecap:round;stroke-linejoin:round;stroke-miterlimit:10;}
	.st2{display:none;}
	.st3{display:inline;}
</style>
<g id="Walk-4">
	<g id="Step-40">
		<g id="Footsteps">
			<g>
				<path class="st0" d="M189.8,14387.8c0,0.4,0.4,0.7,0.9,0.8c2.6,0.2,10.9,0.5,12.8-3.2c0.2-0.4,0.9-1.8,0.3-3.2
					c-0.5-1.3-2-2-3.1-2.2c-0.6-0.1-0.9,0-1.4,0c-2.5,0.4-4.6,1.3-5.1,1.5c-0.9,0.4-2.4,0.8-4.2,1c-0.5,0-0.9,0.5-0.7,1.1
					C189.3,14384.9,189.5,14386.3,189.8,14387.8z"/>
				<path class="st0" d="M187.9,14388.8c0.5-0.1,0.8-0.5,0.7-1.1l-0.6-4.4c0-0.4-0.4-0.7-0.8-0.8c-1.7-0.2-3.3,0.5-3.9,1.8
					c-0.5,1.1-0.2,2.4,0.3,3.2C184.4,14388.7,186.1,14389.2,187.9,14388.8z"/>
			</g>
			<g>
				<path class="st0" d="M188.6,14379c0.1,0.5,0.7,0.8,1.1,0.6c1.7-0.5,3.2-0.6,4.3-0.6c0.4,0,2.8,0,5.3-0.5
					c0.4-0.1,0.8-0.2,1.3-0.5c0.9-0.6,2-1.8,2.1-3.2c0-1.5-1.1-2.6-1.5-2.9c-3.1-2.7-10.7,0.7-13.1,1.8c-0.3,0.2-0.6,0.7-0.4,1
					C187.9,14376.3,188.1,14377.7,188.6,14379z"/>
				<path class="st0" d="M181.9,14377.4c-0.2,1.1-0.1,2.3,0.9,3.1c1,1,2.8,1,4.4,0.2c0.3-0.2,0.6-0.7,0.4-1l-1.1-4.3
					c-0.1-0.5-0.7-0.8-1.1-0.8C183.7,14374.9,182.3,14376,181.9,14377.4z"/>
			</g>
		</g>
		<g id="Sign_00000121985695250944884140000001047359552277383867_">
			<path class="st1" d="M322.9,14198.9H118.6c-10.4,0-18.9,8.4-18.9,18.9v83.4c0,10.4,8.5,18.9,18.9,18.9h93c3,8.3,6,16.5,9,24.8
				c3.5-8.3,7.1-16.5,10.7-24.8H323c10.4,0,18.9-8.5,18.9-18.9v-83.4C341.8,14207.4,333.3,14198.9,322.9,14198.9z"/>
			<g class="st2">
				<path class="st3" d="M138.2,14224.5c0-0.6,0.1-1,0.3-1.4c0.2-0.2,1.4-0.3,3.5-0.3c0.9,0,1.8,0,2.6,0.1c0.8,0.1,1.2,0.1,1.2,0.2
					c0.3,0.2,0.5,0.8,0.5,1.8c0,0.3,0,0.5-0.1,0.6c0,0.1,0,0.2-0.2,0.2s-0.2,0.1-0.4,0.1c-0.4,0-0.7,0-0.7-0.1c0,0-0.1,0.1-0.1,0.2
					c0,0.5,0,1,0,1.5s0.1,1,0.2,1.4c0.1,0.5,0.2,0.9,0.2,1.2s0.2,0.7,0.4,1.3c0.2,0.6,0.3,0.9,0.4,1.1c0.1,0.2,0.2,0.6,0.5,1.2
					c0.3,0.6,0.4,1,0.5,1.2c0.5-1.1,0.8-1.9,1.1-2.6c0.2-0.7,0.5-1.6,0.8-2.8c0.2-1.1,0.3-2.4,0.3-3.6c0-0.1,0-0.2-0.1-0.2
					c0,0.1-0.2,0.1-0.7,0.1c-0.2,0-0.3,0-0.4-0.1c-0.1-0.1-0.2-0.1-0.2-0.2c0-0.1-0.1-0.4-0.1-0.6c0-1,0.2-1.6,0.5-1.8
					c0-0.1,0.4-0.1,1.2-0.2c0.8-0.1,1.7-0.1,2.6-0.1c2.2,0,3.3,0.1,3.5,0.3s0.3,0.6,0.3,1.2c0,0.8-0.1,1.3-0.4,1.5
					c-0.1,0.1-0.3,0.1-0.5,0.1c-0.4,0-0.7-0.1-0.8-0.1c0,0.8-0.7,3-2,6.8s-2.2,5.7-2.5,5.9c-0.7,0.3-1.6,0.4-2.8,0.4
					c-1.5,0-2.4-0.1-2.8-0.4c-0.3-0.1-1.2-2.1-2.5-5.9s-2-6-2-6.7c0-0.1,0-0.1,0-0.1c-0.3,0.1-0.6,0.2-0.8,0.2s-0.3,0-0.5-0.1
					C138.4,14225.8,138.2,14225.3,138.2,14224.5z"/>
				<path class="st3" d="M155.6,14233.9c0-1.1,0.2-2.1,0.5-3.1s0.8-1.8,1.6-2.6c0.7-0.7,1.6-1.1,2.6-1.1c0.4,0,0.8,0.1,1.1,0.2
					c0.3,0.1,0.6,0.3,0.8,0.4c0.2,0.1,0.3,0.4,0.5,0.5c0.1,0.2,0.2,0.3,0.2,0.4l0.1,0.2c0-0.5,0-0.9,0-1.1c0.5-0.4,1.4-0.6,2.7-0.6
					c0.5,0,0.8,0,1.2,0.1c0.3,0,0.6,0.1,0.8,0.1s0.3,0.1,0.5,0.1c0.1,0.1,0.2,0.1,0.2,0.1l0,0c0,0.1,0.1,0.6,0.1,1.3s0,1.1-0.1,1.3
					c-0.2,0.3-0.6,0.4-1.1,0.4c-0.2,0-0.3,0-0.5-0.1c0,0.1,0.1,0.4,0.1,1.1c0,1.9-0.1,2.9-0.2,3.1c0.1-0.1,0.2-0.1,0.4-0.1
					s0.6,0.1,1.2,0.3c0.1,0.1,0.2,0.8,0.2,2c0,0.6,0,1.1-0.1,1.2c-0.1,0.2-0.4,0.3-1,0.5c-0.6,0.1-1.2,0.2-1.8,0.2
					c-1.8,0-2.8,0-3-0.1c-0.1-0.3-0.2-0.5-0.2-0.7c0-0.1,0-0.2,0.1-0.3c-0.2,0.1-0.7,0.3-1.5,0.7c-0.8,0.4-1.3,0.6-1.7,0.6
					c-1.2,0-2-0.5-2.6-1.5C155.9,14236.5,155.6,14235.3,155.6,14233.9z M158.6,14233.5c0,0.5,0.2,1,0.4,1.3c0.3,0.4,0.7,0.6,1.1,0.6
					c0.6,0,1.2-0.3,1.7-0.9s0.8-1.2,0.8-1.9c0-0.5-0.2-0.9-0.5-1.2c-0.3-0.3-0.7-0.5-1.2-0.5s-0.9,0.1-1.2,0.4
					c-0.4,0.3-0.7,0.7-0.9,1.1C158.7,14232.8,158.6,14233.1,158.6,14233.5z"/>
				<path class="st3" d="M169.6,14236.7c0-0.7,0-1.1,0.1-1.2s0.4-0.1,0.8-0.2c0.3-0.1,0.5-0.1,0.5-0.1c-0.2-0.9-0.2-2.3-0.2-4.4
					c0-2.4,0.1-4.6,0.2-6.4c-0.5,0-0.8,0-1-0.1c0-0.3,0-0.6,0-0.7c0-0.6,0.2-1.2,0.5-1.7c0.7-0.1,1.5-0.2,2.6-0.2
					c0.8,0,1.5,0.1,1.9,0.2c0.2,1.4,0.2,2.9,0.2,4.4c0,1.1,0,2.7-0.2,4.7s-0.2,3.4-0.2,4.2c0.1,0,0.2,0,0.4,0c0.4,0,0.8,0.1,1.1,0.2
					c0,0.1,0.1,0.2,0.1,0.4c0,0.3-0.1,0.8-0.2,1.4c-0.1,0.6-0.2,1-0.3,1.1c-0.2,0.1-1.1,0.2-2.5,0.2c-2.1,0-3.3-0.2-3.7-0.6
					C169.6,14237.9,169.6,14237.5,169.6,14236.7z"/>
				<path class="st3" d="M177.2,14236.7c0-0.7,0-1.1,0.1-1.2s0.4-0.1,0.8-0.2c0.3-0.1,0.5-0.1,0.5-0.1c-0.2-0.9-0.2-2.3-0.2-4.4
					c0-2.4,0.1-4.6,0.2-6.4c-0.5,0-0.8,0-1-0.1c0-0.3,0-0.6,0-0.7c0-0.6,0.2-1.2,0.5-1.7c0.7-0.1,1.5-0.2,2.6-0.2
					c0.8,0,1.5,0.1,1.9,0.2c0.2,1.4,0.2,2.9,0.2,4.4c0,1.1,0,2.7-0.2,4.7s-0.2,3.4-0.2,4.2c0.1,0,0.2,0,0.4,0c0.4,0,0.8,0.1,1.1,0.2
					c0,0.1,0.1,0.2,0.1,0.4c0,0.3-0.1,0.8-0.2,1.4c-0.1,0.6-0.2,1-0.3,1.1c-0.2,0.1-1.1,0.2-2.5,0.2c-2.1,0-3.3-0.2-3.7-0.6
					C177.2,14237.9,177.2,14237.5,177.2,14236.7z"/>
				<path class="st3" d="M184.8,14233.7c0-0.7,0.2-1.4,0.4-2.1c0.3-0.7,0.7-1.4,1.2-2.1c0.5-0.6,1.2-1.2,2.2-1.6
					c0.9-0.4,1.9-0.6,3-0.6c1.2,0,2.2,0.2,2.9,0.8c0.7,0.6,1,1.2,1,2.1c0,1.2-0.6,2.3-1.8,3.1s-2.5,1.2-3.9,1.2
					c-0.4,0-0.8,0-1.2-0.1c0,1.1,1,1.6,2.8,1.6c0.3,0,0.6,0,0.8-0.1c0-0.1,0-0.2,0.1-0.4c0.7-0.5,1.4-0.8,2.1-0.8c0.2,0,0.2,0,0.3,0
					c1,0.5,1.6,1.4,1.8,2.6c0,0.1-0.1,0.2-0.2,0.4c-0.1,0.2-0.2,0.2-0.3,0.4c-0.1,0.2-0.2,0.2-0.5,0.3c-0.3,0.1-0.3,0.2-0.5,0.3
					c-0.1,0.1-0.3,0.1-0.5,0.3s-0.3,0.2-0.4,0.2c-0.1,0-0.2,0-0.2,0s-0.1-0.1-0.2-0.1s-0.1-0.1-0.1-0.1s0-0.1-0.1-0.2
					c-0.1-0.1-0.1-0.1-0.1-0.1c-0.8,0.3-1.7,0.5-2.6,0.5c-2,0-3.6-0.5-4.7-1.6C185.3,14236.4,184.8,14235.1,184.8,14233.7z
					 M189.2,14231.3c0,0.5,0.3,0.8,1.1,0.8c0.5,0,1-0.1,1.5-0.4s0.8-0.6,0.8-0.9c0-0.2-0.1-0.5-0.2-0.8c-0.2-0.3-0.5-0.4-0.8-0.4
					c-0.5,0-1,0.2-1.5,0.6C189.4,14230.5,189.2,14230.9,189.2,14231.3z"/>
				<path class="st3" d="M196.4,14243.5c0-0.7,0.1-1.6,0.3-2.6s0.4-1.6,0.5-1.8c0.2-0.1,0.4-0.1,0.6-0.1c0.7,0,1.2,0.2,1.8,0.5
					c0,0,0,0.1,0,0.3c0,0.1,0,0.2,0,0.4c0.2,0.1,0.5,0.1,0.9,0.2c0.4,0.1,0.7,0.1,0.8,0.2c0.2,0.1,0.4,0.1,0.6,0.1
					c0.2,0.1,0.5,0.1,0.7,0.1s0.4,0,0.7,0c1.2,0,2.1-0.3,2.7-0.8s0.9-1.5,1-2.8c-1.5,1.2-3.1,1.8-4.7,1.8c-2.7,0-4-1.8-4-5.5
					c0-0.9,0-1.6,0.2-2.3c0,0-0.1,0-0.2,0c-0.2,0-0.6,0-1-0.1c-0.2-0.3-0.3-0.9-0.3-1.6c0-0.9,0.1-1.4,0.3-1.8
					c1.2-0.3,2.2-0.5,3.2-0.5s1.9,0.1,2.6,0.4c0.3,0.4,0.5,0.9,0.5,1.7c0,0.7-0.1,1.2-0.3,1.6c-0.2,0.1-0.3,0.2-0.5,0.2
					c-0.1,0-0.1,0-0.1,0s0,0-0.1-0.1l-0.1-0.1c-0.1,0.4-0.1,0.9-0.1,1.5c0,0.9,0.2,1.6,0.5,2c0.3,0.5,0.8,0.7,1.3,0.7
					c0.6,0,1.2-0.3,1.7-0.8s0.7-1.2,0.7-2.2c0-0.4,0-0.8-0.1-1.2c-0.2,0.1-0.4,0.2-0.7,0.2s-0.5-0.1-0.5-0.1
					c-0.2-0.1-0.4-0.5-0.4-1.3s0.1-1.3,0.3-1.4c0.7-0.5,2-0.8,3.9-0.8c1.7,0,2.8,0.2,3.2,0.5c0,0.2,0.1,0.5,0.1,0.9
					c0,0.8-0.1,1.4-0.2,1.6c-0.1,0.1-0.3,0.2-0.7,0.2c-0.2,0-0.5-0.1-0.8-0.2c0,0.3,0,0.9,0.1,1.6c0.1,0.7,0.1,1.4,0.2,2.1
					s0.1,1.3,0.1,1.9c0,1.6-0.2,2.9-0.5,4.1c-0.3,1.1-0.8,2-1.3,2.7c-0.6,0.6-1.2,1.1-1.9,1.4s-1.4,0.4-2.2,0.4s-1.5,0-2,0
					s-1.1-0.1-1.8-0.2s-1.4-0.4-2-0.7c-0.2,0.5-0.2,0.8-0.2,0.8c-0.1,0.1-0.4,0.1-1,0.1c-1,0-1.4-0.1-1.5-0.2
					C196.5,14244,196.4,14243.8,196.4,14243.5z"/>
				<path class="st3" d="M217.8,14234.2c0-1.1,0.3-2.2,0.8-3.2s1.4-1.9,2.4-2.7s2.2-1.1,3.5-1.1c1.5,0,2.7,0.5,3.4,1.6
					c0.7,1,1.1,2.3,1.1,3.9c0,2.1-0.5,3.6-1.7,4.7c-1.2,1.1-2.6,1.6-4.3,1.6s-3-0.4-3.8-1.4
					C218.2,14236.6,217.8,14235.5,217.8,14234.2z M222.1,14233.5c0,0.4,0.2,0.9,0.4,1.2c0.3,0.4,0.7,0.5,1.1,0.5
					c0.6,0,1.2-0.3,1.7-0.8s0.8-1.1,0.8-1.8c0-0.5-0.2-0.9-0.5-1.2c-0.3-0.3-0.7-0.5-1.2-0.5c-0.7,0-1.2,0.3-1.7,0.9
					C222.4,14232.3,222.1,14232.9,222.1,14233.5z"/>
				<path class="st3" d="M230.2,14229.9c0-1.1,0.1-1.8,0.2-2.1c0.2-0.1,0.7-0.2,1.4-0.3c0-1,0-1.7,0-2.3c0-0.5,0.1-1.1,0.2-1.6
					c0.1-0.5,0.2-0.9,0.4-1.1s0.4-0.4,0.8-0.6c0.3-0.2,0.8-0.3,1.2-0.3c0.4-0.1,1-0.1,1.7-0.1c1,0,1.7,0.1,2.2,0.1s1,0.2,1.5,0.5
					c0.2,0.2,0.3,0.9,0.3,2.1c0,0.6-0.1,1.1-0.2,1.5l-2.1-0.5l0.2-0.5c-0.1,0-0.2,0-0.4,0c-1.2,0-1.7,0.6-1.7,1.8c0,0.1,0,0.2,0,0.4
					c0,0.2,0,0.3,0,0.4h0.9c0.2,0,0.4,0,0.5,0s0.2,0,0.2,0c0.2,0,0.6,0,1,0.1c0,0.1,0.1,0.2,0.1,0.6c0,1.1-0.1,1.9-0.3,2.1
					c-0.2,0.2-1,0.3-2.2,0.3v4.7c0.2-0.1,0.4-0.1,0.7-0.1s0.4,0.1,0.5,0.1c0.2,0,0.2,0.3,0.2,0.9c0,0.1-0.1,0.8-0.2,1.9
					c-0.6,0.3-1.2,0.5-1.7,0.6s-1.2,0.2-2,0.2c-1.8,0-2.8-0.2-3.1-0.6c-0.2-0.2-0.2-0.5-0.2-1.1c0-0.9,0.2-1.4,0.7-1.6
					c0.2-0.1,0.4-0.2,0.7-0.2c0.1,0,0.2,0,0.3,0.1c0-3-0.1-4.5-0.1-4.6c0,0,0,0-0.1,0s-0.1,0-0.2,0h-0.3c-0.2,0-0.5,0-1-0.1
					C230.2,14230.4,230.2,14230.2,230.2,14229.9z"/>
				<path class="st3" d="M243.9,14230.9c0-2.4,0.6-4.4,1.7-5.9c1.2-1.5,2.6-2.3,4.4-2.3c1,0,2.1,0.3,3.2,0.8c0,0,0.1-0.1,0.2-0.4
					c0.1-0.3,0.2-0.4,0.3-0.4c0.7-0.1,1.2-0.2,1.7-0.2c0.6,0,1.1,0.1,1.4,0.4c0.1,0.4,0.2,0.9,0.2,1.4c0,1.1-0.2,2.1-0.5,3
					c-0.1,0.1-0.6,0.2-1.5,0.2c-0.8,0-1.3-0.1-1.6-0.2c-0.1-0.1-0.2-0.2-0.2-0.4c0-0.1,0-0.2,0.1-0.5c-0.6-0.2-1.2-0.3-1.7-0.3
					c-1.2,0-2,0.4-2.6,1.4s-0.9,2.1-0.9,3.4c0,1.3,0.3,2.3,0.8,2.9c0.5,0.6,1.2,0.9,2,0.9c0.5,0,0.9-0.1,1.4-0.3
					c0.2-0.4,0.3-0.7,0.3-1c0-0.3-0.1-0.6-0.3-0.9c-1.3,0-2-0.1-2-0.3c-0.1-0.1-0.2-0.4-0.2-0.9c0-0.8,0.1-1.2,0.3-1.3
					c0.3-0.5,1.2-0.7,2.6-0.7c0.8,0,1.5,0.1,2.3,0.2c0.7,0.1,1.2,0.3,1.2,0.6c0.1,0.3,0.2,0.9,0.4,1.9c0.1,1,0.2,2,0.2,3.1
					c0,1.3-0.1,2.5-0.2,3.4c-0.3,0.2-0.8,0.4-1.4,0.4c-0.4,0-1-0.1-1.7-0.2c-0.3-0.1-0.5-0.4-0.5-0.9c-1,0.7-2,1-3,1
					c-0.8,0-1.5-0.1-2.3-0.5c-0.8-0.3-1.4-0.8-2-1.4c-0.6-0.6-1.1-1.4-1.5-2.5C244,14233.4,243.9,14232.2,243.9,14230.9z"/>
				<path class="st3" d="M257.8,14229.1c1.3-1,3.2-1.8,5.9-2.2c0.6,0.9,0.9,1.6,0.9,2.3c0,0.1-0.2,0.2-0.5,0.4
					c-0.3,0.1-0.6,0.2-0.7,0.2c0.2,0.9,0.8,2.3,1.8,4.1c0.4-0.3,0.8-0.9,1.1-1.7c0.3-0.8,0.7-1.7,1-2.7s0.5-1.5,0.5-1.7
					c0.4-0.3,1-0.4,2-0.4c0.6,0,1.2,0.1,1.8,0.4c0,0.1,0.1,0.4,0.3,1.1c0.2,0.7,0.4,1.2,0.5,1.6c0.1,0.3,0.3,0.8,0.5,1.3
					c0.2,0.6,0.4,1,0.7,1.4c0.2,0.4,0.4,0.6,0.7,0.9c0.3-0.4,0.6-1.2,1-2.2s0.7-1.7,0.7-2.1c-0.2,0-0.4-0.1-0.8-0.2
					c-0.3-0.1-0.5-0.2-0.5-0.4c0-0.1,0.1-0.6,0.3-1.2c0.2-0.6,0.4-1,0.5-1.1c2.6,0.4,4.6,1.1,5.9,2.2c-0.2,0.9-0.3,1.8-0.6,2.4
					c-0.3-0.1-0.6-0.2-1-0.4c0,0.4-0.2,1.1-0.7,2c-0.2,0.6-0.8,1.5-1.6,2.9c0.4,0.1,0.8,0.4,1.1,0.8c0,0.6-0.3,1.1-1,1.7
					c0,0-0.3,0.1-0.7,0.1s-0.9,0.1-1.5,0.1s-1.2,0-1.8,0c-0.5,0-1.1-0.5-1.8-1.5c-0.8-1-1.5-2.1-2.1-3.2c-0.6,1.1-1.3,2.2-2.1,3.2
					s-1.4,1.5-1.8,1.5c-0.6,0-1.2,0-1.8,0c-0.7,0-1.2-0.1-1.5-0.1c-0.4,0-0.6-0.1-0.7-0.1c-0.7-0.6-1-1.1-1-1.7
					c0.1-0.1,0.3-0.2,0.5-0.5c0.3-0.2,0.5-0.3,0.5-0.3c-0.8-1.4-1.4-2.4-1.6-2.9c-0.4-0.9-0.7-1.6-0.7-2c-0.3,0.2-0.7,0.3-1,0.4
					C258.2,14230.8,257.9,14230,257.8,14229.1z"/>
				<path class="st3" d="M281.8,14233.7c0-0.7,0.2-1.4,0.4-2.1c0.3-0.7,0.7-1.4,1.2-2.1c0.5-0.6,1.2-1.2,2.2-1.6
					c0.9-0.4,1.9-0.6,3-0.6c1.2,0,2.2,0.2,2.9,0.8c0.7,0.6,1,1.2,1,2.1c0,1.2-0.6,2.3-1.8,3.1c-1.2,0.8-2.5,1.2-3.9,1.2
					c-0.4,0-0.8,0-1.2-0.1c0,1.1,1,1.6,2.8,1.6c0.3,0,0.6,0,0.8-0.1c0-0.1,0-0.2,0.1-0.4c0.7-0.5,1.4-0.8,2.1-0.8c0.2,0,0.2,0,0.3,0
					c1,0.5,1.6,1.4,1.8,2.6c0,0.1-0.1,0.2-0.2,0.4s-0.2,0.2-0.3,0.4c-0.1,0.2-0.2,0.2-0.5,0.3c-0.3,0.1-0.3,0.2-0.5,0.3
					c-0.1,0.1-0.3,0.1-0.5,0.3s-0.3,0.2-0.4,0.2s-0.2,0-0.2,0s-0.1-0.1-0.2-0.1s-0.1-0.1-0.1-0.1s0-0.1-0.1-0.2
					c-0.1-0.1-0.1-0.1-0.1-0.1c-0.8,0.3-1.7,0.5-2.6,0.5c-2,0-3.6-0.5-4.7-1.6C282.3,14236.4,281.8,14235.1,281.8,14233.7z
					 M286.2,14231.3c0,0.5,0.3,0.8,1.1,0.8c0.5,0,1-0.1,1.5-0.4s0.8-0.6,0.8-0.9c0-0.2-0.1-0.5-0.2-0.8c-0.2-0.3-0.5-0.4-0.8-0.4
					c-0.5,0-1,0.2-1.5,0.6C286.4,14230.5,286.2,14230.9,286.2,14231.3z"/>
				<path class="st3" d="M294.3,14236.8c0-0.7,0.2-1.1,0.5-1.3c0.1-0.1,0.4-0.1,0.8-0.2c0.3-0.1,0.5-0.1,0.5-0.1
					c-0.2-1.8-0.2-2.9-0.2-3.3c0-1.1,0.1-1.8,0.2-2.1c-0.4,0-0.8,0-1-0.1c-0.1-0.3-0.2-0.6-0.2-0.8c0-0.5,0.2-1,0.6-1.6
					c0.5-0.1,1.6-0.1,3.1-0.1c0.5,0,1,0,1.5,0.1c0.5,0.1,0.9,0.1,1.2,0.2s0.4,0.1,0.4,0.2c0.1,0.2,0.2,0.4,0.2,0.8
					c0,0.8-0.1,1.4-0.4,1.6c0,0.1-0.2,0.1-0.6,0.1s-0.6,0-0.8-0.1c-0.2,1.1-0.2,2.4-0.2,4.1c0,0.7,0,1.1,0.1,1.1s0.2,0,0.4,0
					c0.4,0,0.7,0.1,1,0.2c0,0.1,0.1,0.3,0.1,0.6c0,0.4,0,0.8-0.2,1.3s-0.2,0.9-0.3,1.1c-0.2,0.1-1,0.2-2.3,0.2
					c-2.2,0-3.5-0.2-3.8-0.6C294.4,14237.8,294.3,14237.4,294.3,14236.8z M296.5,14222.8c0-0.4,0.2-0.6,0.7-0.6
					c0.4,0,0.8,0.1,1.2,0.4c0.3-0.3,0.7-0.5,1.2-0.5c0.3,0,0.6,0.1,0.8,0.4s0.4,0.5,0.4,0.9c0,0.2,0,0.4-0.1,0.6s-0.2,0.3-0.2,0.4
					c-0.1,0.1-0.2,0.2-0.5,0.4c-0.2,0.1-0.4,0.3-0.5,0.4c-0.1,0.1-0.3,0.2-0.6,0.4c-0.3,0.1-0.5,0.2-0.5,0.3c-0.6-0.4-1-0.9-1.4-1.5
					C296.7,14223.7,296.5,14223.2,296.5,14222.8z"/>
				<path class="st3" d="M145.2,14253c0-0.8,0-1.2,0.1-1.3c0.2-0.2,0.5-0.4,0.8-0.6c0.3-0.2,0.9-0.4,1.7-0.7
					c0.8-0.2,1.6-0.4,2.5-0.4c0.5,0,1,0.1,1.2,0.2c0.2,0.4,0.3,1.9,0.3,4.6c0,3.7-0.1,6.2-0.3,7.6c0.1,0,0.2,0,0.4,0
					c0.4,0,0.8,0.1,1.1,0.2c0,0.1,0.1,0.2,0.1,0.4c0,0.3-0.1,0.8-0.2,1.4c-0.1,0.6-0.2,1-0.3,1.1c-0.3,0.1-1.1,0.2-2.4,0.2
					c-2.3,0-3.7-0.2-4.1-0.6c-0.1-0.1-0.1-0.6-0.1-1.3s0-1.1,0.1-1.2l1.2-0.2c0.3-0.1,0.5-0.1,0.5-0.1c-0.2-1.5-0.3-3-0.3-4.5
					c0-1.4,0.1-2.9,0.3-4.4c-0.7,0.5-1.5,0.8-2.4,0.9C145.3,14254.1,145.2,14253.7,145.2,14253z"/>
				<path class="st3" d="M154.2,14257.8c0-0.7,0-1.2,0.1-1.5c1.3-2.6,3.2-4.6,5.8-6.1c0.7-0.3,1.4-0.4,2.1-0.4s1.3,0.1,1.7,0.4
					c0.2,0.7,0.3,2.2,0.3,4.7c0,0.7,0,1.2,0,1.5c0,0,0.1,0,0.2,0c0.1,0,0.2,0,0.2,0c0.2,0,0.3,0,0.5,0.1c0.3,0.1,0.5,0.7,0.5,1.5
					c0,0.6-0.1,1.1-0.4,1.3c-0.1,0.1-0.3,0.1-0.7,0.1c-0.2,0-0.4,0-0.5,0c0.1,0.5,0.1,1,0.1,1.3c0,0.8-0.1,1.4-0.3,1.8
					c0.1,0,0.2,0,0.4,0c0.4,0,0.8,0.1,1.1,0.2c0.3,0.2,0.5,0.8,0.5,1.8c0,0.5,0,0.9-0.2,1.1c-0.7,0.1-2,0.2-3.8,0.2
					c-1.9,0-3-0.1-3.1-0.3s-0.2-0.7-0.2-1.5c0-0.7,0.1-1.1,0.2-1.3c0.1-0.1,0.3-0.1,0.6-0.2c0.2-0.1,0.5-0.1,0.7-0.1
					c-0.1-0.9-0.1-1.5-0.1-1.8c0-0.5,0-0.9,0.1-1.2c-0.7,0.1-1.7,0.1-3,0.1c-1.7,0-2.6-0.1-2.9-0.1
					C154.3,14259.2,154.2,14258.6,154.2,14257.8z M158,14256.3c0.5,0,0.9-0.1,1.2-0.1c0.4,0,0.8,0,1.1,0.1c0-0.5,0-1.4,0.1-2.6
					C159.4,14254.6,158.6,14255.5,158,14256.3z"/>
				<path class="st3" d="M172,14255.3c0-1.6,0.5-3,1.7-4c1.1-1.1,2.4-1.6,3.9-1.6c1.1,0,2.1,0.3,3,0.8c0.1-0.4,0.2-0.8,0.5-0.9
					c0.3-0.1,0.7-0.2,1.1-0.2c0.7,0,1.2,0.1,1.5,0.4c0.1,0.3,0.1,0.8,0.1,1.6c0,2-0.3,3.1-0.9,3.2c-0.2,0.1-0.5,0.1-0.8,0.1
					c-0.5,0-1-0.1-1.3-0.3c-0.1-0.2-0.1-0.5-0.1-0.7c-0.5-0.4-1.1-0.6-1.7-0.6c-0.7,0-1.2,0.2-1.7,0.7s-0.8,0.9-0.8,1.5
					c0,0.9,0.7,1.3,2,1.3c0.1,0,0.5,0,1.1,0s1,0,1.1,0c1,0,1.8,0.3,2.4,0.8s1,1.5,1,2.8c0,1.7-0.6,3.1-1.8,4.2
					c-1.2,1.1-2.7,1.6-4.5,1.6c-1,0-2-0.3-2.7-0.8c0,0.4-0.1,0.6-0.2,0.8c-0.3,0.1-0.7,0.2-1.3,0.2c-0.7,0-1.1-0.1-1.3-0.3
					c-0.1-0.6-0.1-1.1-0.1-1.6c0-1.4,0.3-2.6,1-3.8c0.3-0.1,0.5-0.1,0.8-0.1c0.5,0,1,0.1,1.2,0.4c0.1,0.2,0.1,0.5,0.2,0.9
					c0.4,0.5,1,0.8,1.8,0.8s1.4-0.1,1.9-0.4c0.5-0.3,0.7-0.7,0.7-1.2c0-0.3-0.1-0.5-0.2-0.6c-0.2-0.2-0.3-0.3-0.7-0.4
					c-0.4-0.1-0.5-0.1-0.8-0.1s-0.5-0.1-0.8-0.1c-0.4,0-0.7,0-0.9-0.1c-0.2,0-0.5-0.1-1-0.1s-0.8-0.2-1-0.3
					c-0.2-0.1-0.6-0.2-0.9-0.5c-0.3-0.2-0.6-0.4-0.8-0.7s-0.3-0.6-0.5-1C172.1,14256.3,172,14255.8,172,14255.3z"/>
				<path class="st3" d="M185.3,14260.7c0-0.7,0.2-1.4,0.4-2.1c0.3-0.7,0.7-1.4,1.2-2.1c0.5-0.6,1.2-1.2,2.2-1.6
					c0.9-0.4,1.9-0.6,3-0.6c1.2,0,2.2,0.2,2.9,0.8c0.7,0.6,1,1.2,1,2.1c0,1.2-0.6,2.3-1.8,3.1s-2.5,1.2-3.9,1.2
					c-0.4,0-0.8,0-1.2-0.1c0,1.1,1,1.6,2.8,1.6c0.3,0,0.6,0,0.8-0.1c0-0.1,0-0.2,0.1-0.4c0.7-0.5,1.4-0.8,2.1-0.8c0.2,0,0.2,0,0.3,0
					c1,0.5,1.6,1.4,1.8,2.6c0,0.1-0.1,0.2-0.2,0.4c-0.1,0.2-0.2,0.2-0.3,0.4c-0.1,0.2-0.2,0.2-0.5,0.3c-0.3,0.1-0.3,0.2-0.5,0.3
					c-0.1,0.1-0.3,0.1-0.5,0.3s-0.3,0.2-0.4,0.2c-0.1,0-0.2,0-0.2,0s-0.1-0.1-0.2-0.1s-0.1-0.1-0.1-0.1s0-0.1-0.1-0.2
					c-0.1-0.1-0.1-0.1-0.1-0.1c-0.8,0.3-1.7,0.5-2.6,0.5c-2,0-3.6-0.5-4.7-1.6C185.9,14263.4,185.3,14262.1,185.3,14260.7z
					 M189.7,14258.3c0,0.5,0.3,0.8,1.1,0.8c0.5,0,1-0.1,1.5-0.4s0.8-0.6,0.8-0.9c0-0.2-0.1-0.5-0.2-0.8c-0.2-0.3-0.5-0.4-0.8-0.4
					c-0.5,0-1,0.2-1.5,0.6C189.9,14257.5,189.7,14257.9,189.7,14258.3z"/>
				<path class="st3" d="M197.5,14269.6c0-0.7,0-1.1,0.1-1.3c0.1-0.1,0.3-0.2,0.8-0.3c0.4-0.1,0.8-0.1,1.1-0.1c0.2,0,0.2,0,0.3,0
					c0-0.2,0-0.9,0-1.9s0-1.9,0-2.6c0-2.6,0.1-4.4,0.2-5.2c0,0-0.2,0-0.4,0c-0.5,0-1-0.1-1.5-0.1c-0.1-0.1-0.2-0.7-0.2-1.9
					c0-0.7,0-1.1,0.1-1.3c0.1-0.2,0.5-0.3,1-0.5c0.6-0.1,1.2-0.2,2-0.2c1.4,0,2.2,0,2.5,0.1c0.1,0.3,0.1,0.6,0.1,0.9
					c0,0.1,0,0.2,0,0.2c0.2-0.1,0.7-0.3,1.5-0.7c0.7-0.4,1.3-0.6,1.8-0.6c0.8,0,1.5,0.3,2.1,0.9s1.1,1.4,1.4,2.2
					c0.3,0.9,0.5,1.7,0.5,2.6c0,1.5-0.5,2.9-1.3,4.1c-0.9,1.2-2.1,1.8-3.6,1.8c-0.7,0-1.3-0.1-2-0.3c0,0,0,0.3,0,0.9
					c0,0.6,0,1.2,0,1.8c0,1.5,0,2.3-0.1,2.4c-0.5,0.5-1.6,0.7-3.2,0.7c-0.8,0-1.4-0.1-2-0.1c-0.5-0.1-0.8-0.1-1-0.2l-0.2-0.1
					C197.5,14270.7,197.5,14270.3,197.5,14269.6z M203.4,14260.7c0,0.5,0.2,0.9,0.5,1.3s0.7,0.5,1.2,0.5c0.6,0,1.2-0.3,1.7-0.9
					c0.5-0.6,0.8-1.2,0.8-1.8c0-0.5-0.2-0.9-0.4-1.2c-0.3-0.4-0.7-0.5-1.1-0.5c-0.6,0-1.2,0.3-1.7,0.8
					C203.7,14259.4,203.4,14260,203.4,14260.7z"/>
				<path class="st3" d="M211.2,14254.9c0-0.3,0-0.5,0.1-0.6c0.4-0.1,0.7-0.1,1-0.1c0.1,0,0.2,0,0.2,0c0.1,0,0.2,0,0.2,0h0.1v-4.2
					c1.2-0.1,1.8-0.1,2.1-0.1c0.5,0,1.2,0.1,2,0.1v4.2c1.3,0.1,2.1,0.1,2.4,0.3c0.2,0.2,0.3,0.9,0.3,2.1c0,0.3,0,0.5-0.1,0.6
					c-0.4,0.1-0.8,0.1-1,0.1h-0.2c-0.1,0-0.3,0-0.6,0s-0.6,0-1,0c0,0.1,0,0.6,0,1.6s0,1.6,0,1.6c0,0.6,0.1,1.1,0.4,1.4
					c0.2,0.3,0.6,0.4,1.1,0.4c0.2,0,0.3,0,0.3-0.1c0,0,0.1-0.1,0.1-0.3c0-0.1,0.2-0.2,0.6-0.3l1.5-0.4c0.2,0.4,0.2,0.9,0.2,1.5
					c0,1.1-0.1,1.9-0.3,2.1c0,0-0.2,0.1-0.3,0.2c-0.2,0.1-0.3,0.2-0.3,0.2s-0.2,0.1-0.3,0.1s-0.3,0.1-0.4,0.1s-0.3,0.1-0.5,0.1
					s-0.5,0.1-0.7,0.1s-0.5,0-0.9,0c-0.7,0-1.2,0-1.6-0.1s-0.8-0.2-1.2-0.4c-0.4-0.2-0.7-0.5-0.9-0.9c-0.2-0.4-0.4-0.9-0.5-1.6
					c-0.2-0.6-0.2-1.4-0.2-2.4c0-0.9,0-2,0-3.3c-0.7-0.1-1.1-0.2-1.3-0.3C211.2,14256.7,211.2,14256,211.2,14254.9z"/>
				<path class="st3" d="M221.7,14260.7c0-0.7,0.2-1.4,0.4-2.1c0.3-0.7,0.7-1.4,1.2-2.1c0.5-0.6,1.2-1.2,2.2-1.6
					c0.9-0.4,1.9-0.6,3-0.6c1.2,0,2.2,0.2,2.9,0.8c0.7,0.6,1,1.2,1,2.1c0,1.2-0.6,2.3-1.8,3.1s-2.5,1.2-3.9,1.2
					c-0.4,0-0.8,0-1.2-0.1c0,1.1,1,1.6,2.8,1.6c0.3,0,0.6,0,0.8-0.1c0-0.1,0-0.2,0.1-0.4c0.7-0.5,1.4-0.8,2.1-0.8c0.2,0,0.2,0,0.3,0
					c1,0.5,1.6,1.4,1.8,2.6c0,0.1-0.1,0.2-0.2,0.4c-0.1,0.2-0.2,0.2-0.3,0.4c-0.1,0.2-0.2,0.2-0.5,0.3c-0.3,0.1-0.3,0.2-0.5,0.3
					c-0.1,0.1-0.3,0.1-0.5,0.3s-0.3,0.2-0.4,0.2c-0.1,0-0.2,0-0.2,0s-0.1-0.1-0.2-0.1s-0.1-0.1-0.1-0.1s0-0.1-0.1-0.2
					c-0.1-0.1-0.1-0.1-0.1-0.1c-0.8,0.3-1.7,0.5-2.6,0.5c-2,0-3.6-0.5-4.7-1.6C222.2,14263.4,221.7,14262.1,221.7,14260.7z
					 M226.1,14258.3c0,0.5,0.3,0.8,1.1,0.8c0.5,0,1-0.1,1.5-0.4s0.8-0.6,0.8-0.9c0-0.2-0.1-0.5-0.2-0.8c-0.2-0.3-0.5-0.4-0.8-0.4
					c-0.5,0-1,0.2-1.5,0.6C226.3,14257.5,226.1,14257.9,226.1,14258.3z"/>
				<path class="st3" d="M234.3,14264.1c0-0.9,0.2-1.5,0.6-1.8c0.2-0.1,0.4-0.2,0.6-0.2c0.1,0,0.2,0,0.3,0.1c0-0.4,0-1.1,0-2.1
					c0-0.9,0-1.7,0-2.2c0,0-0.2,0-0.3,0.1s-0.2,0.1-0.3,0.1c0,0-0.2,0-0.3-0.1c-0.1,0-0.2-0.1-0.3-0.1c0-0.1-0.1-0.2-0.1-0.5
					c0-0.4,0-0.9,0.2-1.5c0.1-0.6,0.2-1,0.3-1.1c0.2-0.1,0.5-0.2,1-0.3s1.1-0.1,1.7-0.1c0.7,0,1.3,0.1,1.8,0.3
					c0.1,0.1,0.2,0.3,0.2,0.6c0,0.1,0,0.3-0.1,0.8c1.6-1.2,3-1.8,4.4-1.8c1.5,0,2.5,0.6,3.2,1.8c1.8-1.2,3.3-1.8,4.7-1.8
					c1.2,0,2.1,0.4,2.8,1.3c0.7,0.9,1.1,2.1,1.1,3.8c0,0.2,0,1.1-0.2,2.4c0,0,0.1-0.1,0.2-0.1c0.2,0,0.5,0,1,0.1
					c0.1,0.1,0.2,0.6,0.2,1.5c0,1.1-0.1,1.7-0.2,1.9c-1.1,0.3-2.2,0.4-3.1,0.4c-1,0-1.9-0.1-2.7-0.4c-0.1-0.1-0.2-0.4-0.3-0.8
					c-0.1-0.5-0.2-0.9-0.2-1.2c0-0.5,0.1-0.9,0.4-1.3c0.2-0.1,0.4-0.1,0.6-0.1c0.1,0,0.1,0,0.2,0s0.1,0,0.1,0.1l0.1,0.1
					c0.1-0.4,0.1-0.9,0.1-1.2c0-0.9-0.2-1.5-0.6-2c-0.4-0.4-0.9-0.7-1.5-0.7c-0.4,0-0.8,0.1-1.2,0.4c-0.4,0.2-0.7,0.6-0.9,1.1
					c0,1.1-0.1,1.8-0.1,2.2c0,0,0.1-0.1,0.2-0.1c0.2,0,0.5,0,1,0.1c0.1,0.1,0.2,0.6,0.2,1.5c0,1.1-0.1,1.7-0.2,1.9
					c-1.1,0.3-2.2,0.4-3.1,0.4c-1,0-1.9-0.1-2.7-0.4c-0.1-0.1-0.2-0.4-0.3-0.8c-0.1-0.5-0.2-0.9-0.2-1.2c0-0.5,0.1-0.9,0.4-1.3
					c0.2-0.1,0.4-0.1,0.6-0.1c0.1,0,0.1,0,0.2,0s0.1,0,0.1,0.1l0.1,0.1c0-0.4,0.1-0.6,0.1-0.9c0-1-0.2-1.8-0.6-2.3
					c-0.4-0.5-0.9-0.8-1.5-0.8s-1.2,0.2-1.6,0.8c-0.4,0.6-0.7,1.2-0.7,2.1c0,0.4,0,0.8,0.1,1.2c0.2-0.1,0.4-0.1,0.7-0.1
					s0.4,0.1,0.5,0.1c0.2,0,0.2,0.3,0.2,0.9c0,0.1-0.1,0.8-0.2,1.9c-1.1,0.5-2.5,0.8-4,0.8c-1.4,0-2.3-0.2-2.7-0.6
					C234.4,14264.8,234.3,14264.5,234.3,14264.1z"/>
				<path class="st3" d="M257.7,14250.3c0-0.7,0-1.1,0.1-1.2l0.2-0.1c0.1-0.1,0.4-0.1,0.9-0.2c0.5-0.1,1.1-0.1,1.9-0.1
					c1.7,0,2.8,0.2,3.3,0.7c0.1,0.1,0.1,0.9,0.1,2.4c0,0.6,0,1.2,0,1.8c0,0.6,0,0.9,0,0.9c0.6-0.2,1.3-0.3,2-0.3
					c1.6,0,2.8,0.6,3.7,1.8c0.9,1.2,1.4,2.6,1.4,4.1c0,0.9-0.2,1.7-0.5,2.6c-0.3,0.9-0.8,1.6-1.5,2.3c-0.7,0.6-1.4,0.9-2.2,0.9
					c-0.5,0-1.1-0.2-1.8-0.6c-0.7-0.4-1.2-0.6-1.5-0.7c0,0,0,0.1,0,0.2c0,0.2,0,0.5-0.1,0.8c-0.3,0.1-1.2,0.1-2.6,0.1
					c-0.7,0-1.3-0.1-1.9-0.2c-0.5-0.1-0.9-0.3-1-0.4c0-0.2-0.1-0.6-0.1-1.2c0-1.1,0-1.8,0.2-1.9c0.5-0.1,0.9-0.1,1.4-0.1
					c0.2,0,0.4,0,0.4,0c-0.2-0.9-0.2-2.6-0.2-5.4c0-0.7,0-1.6,0-2.6s0-1.6,0-1.9c-0.2,0-0.3,0.1-0.5,0.1c-0.3,0-0.7,0-1-0.1
					c-0.4-0.1-0.6-0.2-0.7-0.3C257.7,14251.4,257.7,14251,257.7,14250.3z M263.7,14259.2c0,0.7,0.3,1.4,0.8,1.9s1.1,0.8,1.7,0.8
					c0.5,0,0.8-0.2,1.1-0.5c0.3-0.4,0.4-0.8,0.4-1.2c0-0.6-0.2-1.3-0.7-1.9c-0.5-0.6-1-0.9-1.7-0.9c-0.5,0-0.9,0.2-1.2,0.5
					C263.9,14258.3,263.7,14258.7,263.7,14259.2z"/>
				<path class="st3" d="M271.7,14260.7c0-0.7,0.2-1.4,0.4-2.1c0.3-0.7,0.7-1.4,1.2-2.1c0.5-0.6,1.2-1.2,2.2-1.6
					c0.9-0.4,1.9-0.6,3-0.6c1.2,0,2.2,0.2,2.9,0.8c0.7,0.6,1,1.2,1,2.1c0,1.2-0.6,2.3-1.8,3.1c-1.2,0.8-2.5,1.2-3.9,1.2
					c-0.4,0-0.8,0-1.2-0.1c0,1.1,1,1.6,2.8,1.6c0.3,0,0.6,0,0.8-0.1c0-0.1,0-0.2,0.1-0.4c0.7-0.5,1.4-0.8,2.1-0.8c0.2,0,0.2,0,0.3,0
					c1,0.5,1.6,1.4,1.8,2.6c0,0.1-0.1,0.2-0.2,0.4s-0.2,0.2-0.3,0.4c-0.1,0.2-0.2,0.2-0.5,0.3c-0.3,0.1-0.3,0.2-0.5,0.3
					c-0.1,0.1-0.3,0.1-0.5,0.3s-0.3,0.2-0.4,0.2s-0.2,0-0.2,0s-0.1-0.1-0.2-0.1s-0.1-0.1-0.1-0.1s0-0.1-0.1-0.2
					c-0.1-0.1-0.1-0.1-0.1-0.1c-0.8,0.3-1.7,0.5-2.6,0.5c-2,0-3.6-0.5-4.7-1.6C272.3,14263.4,271.7,14262.1,271.7,14260.7z
					 M276.1,14258.3c0,0.5,0.3,0.8,1.1,0.8c0.5,0,1-0.1,1.5-0.4s0.8-0.6,0.8-0.9c0-0.2-0.1-0.5-0.2-0.8c-0.2-0.3-0.5-0.4-0.8-0.4
					c-0.5,0-1,0.2-1.5,0.6C276.4,14257.5,276.1,14257.9,276.1,14258.3z"/>
				<path class="st3" d="M284.4,14255.8c0-0.7,0-1.1,0.1-1.3c0.6-0.3,1.7-0.4,3.4-0.4c0.6,0,1.1,0.1,1.4,0.1s0.6,0.2,0.9,0.5
					c0,0.2,0,0.6,0,1.1l0.1-0.2c0-0.1,0.2-0.3,0.3-0.4c0.1-0.1,0.3-0.4,0.5-0.5c0.2-0.2,0.4-0.3,0.8-0.4c0.3-0.1,0.7-0.2,1.1-0.2
					c1.2,0,2.1,0.5,2.9,1.5c-0.3,1.4-1.2,2.4-2.5,2.9c-0.5-0.4-1-0.6-1.5-0.6c-0.6,0-1,0.3-1.4,0.9c-0.3,0.6-0.5,1.3-0.5,2.2
					c0,0.3,0,0.6,0,1c0.1,0,0.3,0.1,0.8,0.1l0.2,0.1c0.2,0.2,0.3,0.6,0.3,1.2c0,0.4,0,0.9-0.2,1.4c-0.1,0.4-0.3,0.8-0.5,1
					c-0.3,0.1-1.1,0.1-2.4,0.1c-0.8,0-1.5-0.1-2.3-0.2c-0.8-0.1-1.2-0.3-1.3-0.4c0-0.2-0.1-0.6-0.1-1.2c0-1.2,0-1.8,0.2-1.9
					c0.6-0.1,1-0.2,1.2-0.2s0.4,0,0.5,0.1c-0.2-0.2-0.4-1.3-0.4-3.2c0-0.7,0-1.1,0.1-1.1c-0.2,0-0.3,0.1-0.5,0.1
					c-0.5,0-0.9-0.1-1.1-0.4C284.5,14256.9,284.4,14256.5,284.4,14255.8z"/>
				<path class="st3" d="M139.9,14279c0-0.7,0.1-1.1,0.4-1.3c0.1-0.2,0.6-0.4,1.3-0.6c0.8-0.1,1.5-0.2,2.4-0.2s1.5,0.1,1.8,0.2
					c0.1,0.3,0.1,0.6,0.1,0.8c0,0.1,0,0.2,0,0.2c0.2-0.1,0.7-0.3,1.5-0.7c0.8-0.4,1.5-0.6,2-0.6c0.8,0,1.5,0.3,2.1,1
					c0.6,0.6,1.1,1.4,1.4,2.3c0.3,0.9,0.4,1.8,0.4,2.6c0,1.5-0.4,2.7-1.3,3.7c-0.8,1-2,1.5-3.5,1.5c-0.8,0-1.5-0.1-2.2-0.3
					c0,0.1,0,0.3,0,0.5c0,0.6,0,1.1-0.1,1.7c0.1,0,0.3,0,0.7,0c0.2,0,0.5,0,0.8,0.1c0.3,0.1,0.5,0.2,0.5,0.3c0.2,0.1,0.4,0.5,0.4,1
					s-0.1,0.8-0.4,1c-0.1,0.3-1.5,0.5-4,0.5c-1,0-2,0-2.8-0.1c-0.8-0.1-1.3-0.2-1.3-0.3c-0.2-0.2-0.3-0.5-0.3-1s0.1-0.8,0.3-1.1
					c0.1-0.1,0.2-0.2,0.5-0.3c0.2-0.1,0.5-0.1,0.8-0.1c0.2,0,0.3,0,0.3,0c0-0.2,0-0.7,0-1.4c0-0.7,0-1.4,0-2.1
					c0-2.7,0.1-4.4,0.2-5.3c0,0-0.2,0-0.4,0c-0.3,0-0.8,0-1.2-0.1C140.1,14280.4,139.9,14279.8,139.9,14279z M146.3,14283
					c0,0.5,0.1,0.9,0.4,1.1c0.2,0.2,0.6,0.4,1,0.4c0.5,0,1-0.2,1.5-0.7s0.7-1,0.7-1.7c0-0.4-0.1-0.8-0.3-1.1s-0.5-0.4-0.9-0.4
					c-0.6,0-1.2,0.2-1.7,0.8C146.5,14282,146.3,14282.4,146.3,14283z"/>
				<path class="st3" d="M154.6,14282.8c0-0.7,0-1.1,0.1-1.3c0.6-0.3,1.7-0.4,3.4-0.4c0.6,0,1.1,0.1,1.4,0.1
					c0.3,0.1,0.6,0.2,0.9,0.5c0,0.2,0,0.6,0,1.1l0.1-0.2c0-0.1,0.2-0.3,0.3-0.5c0.1-0.2,0.3-0.4,0.5-0.5c0.2-0.1,0.4-0.3,0.8-0.4
					c0.3-0.1,0.7-0.2,1.1-0.2c1.2,0,2.1,0.5,2.9,1.5c-0.3,1.4-1.2,2.4-2.5,3c-0.5-0.4-1-0.6-1.5-0.6c-0.6,0-1,0.3-1.4,0.9
					c-0.3,0.6-0.5,1.3-0.5,2.2c0,0.3,0,0.6,0,1c0.1,0,0.3,0,0.8,0.1h0.2c0.2,0.2,0.3,0.5,0.3,1.2c0,0.5,0,0.9-0.2,1.4
					s-0.3,0.8-0.5,1c-0.3,0-1.1,0.1-2.4,0.1c-0.8,0-1.5-0.1-2.3-0.2c-0.8-0.1-1.2-0.3-1.3-0.5c0-0.2-0.1-0.6-0.1-1.2
					c0-1.2,0-1.8,0.2-1.9c0.6-0.1,1-0.2,1.2-0.2s0.4,0,0.5,0.1c-0.2-0.2-0.4-1.3-0.4-3.2c0-0.7,0-1,0.1-1.1c-0.2,0-0.3,0.1-0.5,0.1
					c-0.5,0-0.9-0.1-1.1-0.4C154.6,14283.9,154.6,14283.5,154.6,14282.8z"/>
				<path class="st3" d="M165.9,14287.7c0-0.7,0.2-1.4,0.4-2.1c0.3-0.7,0.7-1.4,1.2-2.1c0.5-0.6,1.2-1.2,2.2-1.6
					c0.9-0.4,1.9-0.6,3-0.6c1.2,0,2.2,0.2,2.9,0.8c0.7,0.6,1,1.2,1,2.1c0,1.2-0.6,2.3-1.8,3.1s-2.5,1.2-3.9,1.2
					c-0.4,0-0.8,0-1.2-0.1c0,1.1,1,1.6,2.8,1.6c0.3,0,0.6,0,0.8-0.1c0-0.1,0-0.2,0.1-0.4c0.7-0.5,1.4-0.8,2.1-0.8c0.2,0,0.2,0,0.3,0
					c1,0.5,1.6,1.4,1.8,2.6c0,0.1-0.1,0.2-0.2,0.4c-0.1,0.2-0.2,0.2-0.3,0.4c-0.1,0.2-0.2,0.2-0.5,0.3c-0.3,0.1-0.3,0.2-0.5,0.3
					c-0.2,0.1-0.3,0.1-0.5,0.3s-0.3,0.2-0.4,0.2c-0.1,0-0.2,0-0.2,0s-0.1,0-0.2-0.1l-0.1-0.1c0,0,0-0.1-0.1-0.2
					c0-0.1-0.1-0.1-0.1-0.1c-0.8,0.3-1.7,0.5-2.6,0.5c-2,0-3.6-0.5-4.7-1.5C166.4,14290.4,165.9,14289.1,165.9,14287.7z
					 M170.3,14285.3c0,0.5,0.3,0.8,1.1,0.8c0.5,0,1-0.1,1.5-0.4s0.8-0.6,0.8-0.9c0-0.2-0.1-0.5-0.2-0.8c-0.2-0.3-0.5-0.4-0.8-0.4
					c-0.5,0-1,0.2-1.5,0.5C170.5,14284.5,170.3,14284.9,170.3,14285.3z"/>
				<path class="st3" d="M178.2,14291.9c0-0.4,0.1-0.9,0.2-1.3c0.1-0.4,0.3-0.8,0.7-1.2c0.4-0.4,0.7-0.5,1.2-0.5
					c0.4,0,0.8,0.1,1.2,0.2c0.5,0.1,0.7,0.4,0.7,0.6c0,0,0,0.1,0,0.2c0.5,0.1,0.9,0.2,1.1,0.2c0.3,0,0.7-0.1,0.9-0.4
					s0.4-0.5,0.4-0.9c0-0.4-0.2-0.6-0.4-0.8c-0.3-0.2-0.6-0.3-1-0.3s-0.9,0-1.4-0.1c-0.5-0.1-1-0.2-1.4-0.3c-0.4-0.1-0.8-0.4-1-0.8
					c-0.3-0.4-0.4-1-0.4-1.7c0-0.9,0.2-1.7,0.8-2.3c0.5-0.6,1.1-1,1.8-1.2s1.5-0.3,2.3-0.3c0.7,0,1.4,0.1,2.2,0.2
					c0.2-0.3,0.3-0.4,0.5-0.5c1.1,0.1,1.8,0.5,2.2,1.2c0,0.4-0.1,0.9-0.2,1.3c-0.1,0.4-0.3,0.8-0.7,1.2c-0.4,0.4-0.7,0.6-1.2,0.6
					c-0.4,0-0.8-0.1-1.2-0.2c-0.4-0.1-0.7-0.4-0.7-0.6c0-0.1,0-0.1,0-0.2c-0.3-0.1-0.7-0.2-0.8-0.2c-0.3,0-0.7,0.1-0.9,0.4
					c-0.2,0.2-0.4,0.5-0.4,0.8c0,0.4,0.2,0.6,0.7,0.8c0.4,0.2,1,0.3,1.5,0.3c0.6,0,1.2,0.1,1.8,0.3c0.6,0.1,1.1,0.4,1.6,0.8
					c0.5,0.4,0.7,1,0.7,1.8c0,1.3-0.5,2.3-1.7,3c-1.1,0.7-2.4,1-4,1c-0.7,0-1.5-0.1-2.3-0.2c-0.2,0.3-0.3,0.4-0.5,0.5
					C179.3,14293,178.6,14292.6,178.2,14291.9z"/>
				<path class="st3" d="M190,14287.9c0-1.1,0.2-2.1,0.5-3.1s0.8-1.8,1.6-2.5c0.7-0.7,1.6-1.1,2.6-1.1c0.4,0,0.8,0.1,1.1,0.2
					c0.3,0.1,0.6,0.3,0.8,0.4c0.2,0.2,0.3,0.4,0.5,0.5c0.1,0.2,0.2,0.3,0.2,0.5l0.1,0.2c0-0.5,0-0.9,0-1.1c0.5-0.4,1.4-0.6,2.7-0.6
					c0.5,0,0.8,0,1.2,0.1c0.3,0,0.6,0.1,0.8,0.1s0.3,0.1,0.5,0.1c0.1,0,0.2,0.1,0.2,0.1l0,0c0,0.1,0.1,0.5,0.1,1.3s0,1.1-0.1,1.3
					c-0.2,0.3-0.6,0.4-1.1,0.4c-0.2,0-0.3,0-0.5,0c0,0.1,0.1,0.4,0.1,1c0,1.9-0.1,3-0.2,3.1c0.1,0,0.2-0.1,0.4-0.1s0.6,0.1,1.2,0.3
					c0.1,0.1,0.2,0.8,0.2,2c0,0.6,0,1.1-0.1,1.2c-0.1,0.2-0.4,0.3-1,0.5s-1.2,0.2-1.8,0.2c-1.8,0-2.8,0-3-0.1
					c-0.1-0.3-0.2-0.5-0.2-0.7c0-0.1,0-0.2,0.1-0.3c-0.2,0.1-0.7,0.3-1.5,0.7s-1.3,0.6-1.7,0.6c-1.2,0-2-0.5-2.6-1.5
					C190.3,14290.5,190,14289.3,190,14287.9z M193,14287.5c0,0.5,0.2,1,0.4,1.3c0.3,0.4,0.7,0.5,1.1,0.5c0.6,0,1.2-0.3,1.7-0.9
					c0.5-0.5,0.8-1.2,0.8-1.9c0-0.5-0.2-0.9-0.5-1.2s-0.7-0.5-1.2-0.5s-0.9,0.1-1.2,0.4c-0.4,0.3-0.7,0.7-0.9,1.1
					C193.1,14286.8,193,14287.1,193,14287.5z"/>
				<path class="st3" d="M203.9,14290.7c0-0.7,0-1.1,0.1-1.2s0.4-0.1,0.8-0.2c0.3,0,0.5-0.1,0.5-0.1c-0.2-0.9-0.2-2.3-0.2-4.4
					c0-2.4,0.1-4.5,0.2-6.4c-0.5,0-0.8,0-1-0.1c0-0.3,0-0.5,0-0.7c0-0.6,0.2-1.2,0.5-1.7c0.7-0.1,1.5-0.2,2.6-0.2
					c0.8,0,1.5,0.1,1.9,0.2c0.2,1.4,0.2,2.9,0.2,4.4c0,1.1,0,2.7-0.2,4.7c-0.1,2-0.2,3.5-0.2,4.2c0.1,0,0.2,0,0.4,0
					c0.4,0,0.8,0.1,1.1,0.2c0,0,0.1,0.2,0.1,0.4c0,0.3-0.1,0.8-0.2,1.4c-0.1,0.6-0.2,1-0.3,1.1c-0.2,0.1-1.1,0.2-2.5,0.2
					c-2.1,0-3.3-0.2-3.7-0.6C204,14291.9,203.9,14291.5,203.9,14290.7z"/>
				<path class="st3" d="M211.6,14287.7c0-0.7,0.2-1.4,0.4-2.1c0.3-0.7,0.7-1.4,1.2-2.1c0.5-0.6,1.2-1.2,2.2-1.6
					c0.9-0.4,1.9-0.6,3-0.6c1.2,0,2.2,0.2,2.9,0.8c0.7,0.6,1,1.2,1,2.1c0,1.2-0.6,2.3-1.8,3.1s-2.5,1.2-3.9,1.2
					c-0.4,0-0.8,0-1.2-0.1c0,1.1,1,1.6,2.8,1.6c0.3,0,0.6,0,0.8-0.1c0-0.1,0-0.2,0.1-0.4c0.7-0.5,1.4-0.8,2.1-0.8c0.2,0,0.2,0,0.3,0
					c1,0.5,1.6,1.4,1.8,2.6c0,0.1-0.1,0.2-0.2,0.4c-0.1,0.2-0.2,0.2-0.3,0.4c-0.1,0.2-0.2,0.2-0.5,0.3c-0.3,0.1-0.3,0.2-0.5,0.3
					c-0.1,0-0.3,0.1-0.5,0.3s-0.3,0.2-0.4,0.2c-0.1,0-0.2,0-0.2,0s-0.1,0-0.2-0.1l-0.1-0.1c0,0,0-0.1-0.1-0.2c0-0.1-0.1-0.1-0.1-0.1
					c-0.8,0.3-1.7,0.5-2.6,0.5c-2,0-3.6-0.5-4.7-1.5C212.1,14290.4,211.6,14289.1,211.6,14287.7z M215.9,14285.3
					c0,0.5,0.3,0.8,1.1,0.8c0.5,0,1-0.1,1.5-0.4s0.8-0.6,0.8-0.9c0-0.2-0.1-0.5-0.2-0.8c-0.2-0.3-0.5-0.4-0.8-0.4
					c-0.5,0-1,0.2-1.5,0.5C216.2,14284.5,215.9,14284.9,215.9,14285.3z"/>
				<path class="st3" d="M228.8,14278.9c0-1,0.1-1.6,0.3-1.9c0.5-0.1,1.7-0.2,3.7-0.2c2.2,0,3.4,0.1,3.6,0.2c0.2,0.4,0.3,1,0.3,2
					c0,0.4,0,0.6-0.1,0.7c-0.3,0.1-0.7,0.2-1.2,0.2c-0.3,0-0.5,0-0.8-0.1c0,0.9-0.1,1.9-0.1,3c0,2.2,0.2,4.3,0.8,6.1
					c0,0.1,0.5,0.2,1.5,0.2c0.8,0,1.4-0.1,1.7-0.3l-0.1-1.4c0.8-0.5,1.6-0.7,2.4-0.7c0.3,0,0.6,0.1,1,0.1c0.4,1.1,0.5,2.2,0.5,3.3
					c0,0.9-0.1,1.5-0.2,1.9c-0.6,0.2-1.7,0.4-3.4,0.5c-1.7,0.2-3.2,0.2-4.7,0.2c-2.3,0-4-0.2-4.9-0.7c-0.1-0.2-0.2-0.4-0.2-0.8
					c0-1.4,0.2-2.2,0.6-2.4c0.2-0.1,0.4-0.2,0.6-0.2c0,0,0.2,0,0.3,0c-0.2-2.8-0.3-4.7-0.3-5.7c0-0.5,0.1-1.6,0.2-3.4
					c-0.2,0.1-0.5,0.1-0.7,0.1c-0.3,0-0.6,0-0.8-0.1C228.8,14279.5,228.8,14279.3,228.8,14278.9z"/>
				<path class="st3" d="M243.2,14287.9c0-1.1,0.2-2.1,0.5-3.1s0.8-1.8,1.6-2.5c0.7-0.7,1.6-1.1,2.6-1.1c0.4,0,0.8,0.1,1.1,0.2
					c0.3,0.1,0.6,0.3,0.8,0.4c0.2,0.2,0.3,0.4,0.5,0.5c0.1,0.2,0.2,0.3,0.2,0.5l0.1,0.2c0-0.5,0-0.9,0-1.1c0.5-0.4,1.4-0.6,2.7-0.6
					c0.5,0,0.8,0,1.2,0.1c0.3,0,0.6,0.1,0.8,0.1s0.3,0.1,0.5,0.1c0.1,0,0.2,0.1,0.2,0.1l0,0c0,0.1,0.1,0.5,0.1,1.3s0,1.1-0.1,1.3
					c-0.2,0.3-0.6,0.4-1.1,0.4c-0.2,0-0.3,0-0.5,0c0,0.1,0.1,0.4,0.1,1c0,1.9-0.1,3-0.2,3.1c0.1,0,0.2-0.1,0.4-0.1s0.6,0.1,1.2,0.3
					c0.1,0.1,0.2,0.8,0.2,2c0,0.6,0,1.1-0.1,1.2c-0.1,0.2-0.4,0.3-1,0.5s-1.2,0.2-1.8,0.2c-1.8,0-2.8,0-3-0.1
					c-0.1-0.3-0.2-0.5-0.2-0.7c0-0.1,0-0.2,0.1-0.3c-0.2,0.1-0.7,0.3-1.5,0.7s-1.3,0.6-1.7,0.6c-1.2,0-2-0.5-2.6-1.5
					C243.4,14290.5,243.2,14289.3,243.2,14287.9z M246.2,14287.5c0,0.5,0.2,1,0.4,1.3c0.3,0.4,0.7,0.5,1.1,0.5
					c0.6,0,1.2-0.3,1.7-0.9c0.5-0.5,0.8-1.2,0.8-1.9c0-0.5-0.2-0.9-0.5-1.2s-0.7-0.5-1.2-0.5s-0.9,0.1-1.2,0.4
					c-0.4,0.3-0.7,0.7-0.9,1.1C246.2,14286.8,246.2,14287.1,246.2,14287.5z"/>
				<path class="st3" d="M256.9,14283.8c0-1,0.1-1.6,0.2-1.9c1.1-0.3,2.2-0.5,3.1-0.5c1,0,1.9,0.1,2.7,0.4c0.1,0.1,0.2,0.4,0.3,0.8
					c0.1,0.5,0.2,0.9,0.2,1.2c0,0.5-0.1,0.9-0.4,1.3c-0.2,0.1-0.4,0.1-0.6,0.1c-0.1,0-0.1,0-0.2,0s-0.1,0-0.1-0.1H262
					c-0.1,0.4-0.1,0.9-0.1,1.2c0,0.9,0.2,1.5,0.7,2c0.4,0.5,1,0.7,1.6,0.7s1.1-0.3,1.6-0.8s0.7-1.2,0.7-2.2c0-0.4,0-0.8-0.1-1.2
					c-0.2,0.1-0.4,0.2-0.7,0.2c-0.2,0-0.3-0.1-0.3-0.1c-0.2-0.1-0.3-0.6-0.3-1.4s0.1-1.2,0.3-1.4c1-0.5,2.3-0.8,3.7-0.8
					c1.6,0,2.6,0.2,2.9,0.6c0.2,0.2,0.2,0.6,0.2,1c0,0.9-0.2,1.4-0.7,1.6c-0.2,0.1-0.4,0.2-0.6,0.2c-0.1,0-0.2,0-0.3,0
					c0,0.4,0,1.1,0,2.1s0,1.7,0,2.2c0.5,0,0.7,0,0.8,0c0.2,0,0.3,0,0.4,0s0.1,0.2,0.1,0.5c0,0.4-0.1,0.9-0.2,1.5
					c-0.2,0.6-0.3,1-0.4,1.1c-0.2,0.1-0.5,0.2-1.2,0.3c-0.6,0.1-1.2,0.2-1.8,0.2c-0.7,0-1.2-0.1-1.6-0.3c-0.1-0.1-0.2-0.3-0.2-0.6
					c0,0,0-0.3,0.1-0.8c-1.6,1.2-3.1,1.8-4.5,1.8c-1.2,0-2.2-0.4-2.8-1.2c-0.7-0.9-1.1-2.1-1.1-3.9c0-0.3,0-1.1,0.2-2.5
					c0,0-0.1,0.1-0.2,0.1c-0.2,0-0.5,0-1-0.1C257,14285.1,256.9,14284.6,256.9,14283.8z"/>
				<path class="st3" d="M273.2,14287.5c0-2.1,0.7-3.6,2-4.7c1.3-1.1,3.2-1.6,5.8-1.6l0.2-0.6c0.4-0.1,0.8-0.1,1.2-0.1
					c0.9,0,1.7,0.2,2.4,0.8c0,0.2,0.1,0.5,0.1,0.9c0,0.8-0.1,1.4-0.4,2c-0.2,0.5-0.6,0.9-1,1c-0.7,0.2-1.2,0.4-1.8,0.4
					c-0.5,0-1-0.1-1.5-0.4l0.2-0.8c-0.3-0.1-0.7-0.2-1-0.2c-0.7,0-1.2,0.3-1.7,1s-0.7,1.3-0.7,2.1c0,0.6,0.2,1.2,0.5,1.7
					s0.7,0.8,1.1,0.8s0.9-0.2,1.5-0.5l-0.2-0.6c0.7-0.5,1.5-0.8,2.4-0.8c0.3,0,0.7,0,1.2,0.1c0.9,1,1.4,2.2,1.4,3.6
					c0,0.3,0,0.6-0.1,0.9c-0.8,0.5-1.8,0.8-2.8,0.8c-0.2,0-0.4,0-0.7,0l-0.2-0.6c-1,0.2-1.9,0.3-2.7,0.3c-1.6,0-2.9-0.5-3.8-1.3
					C273.7,14290.7,273.2,14289.4,273.2,14287.5z"/>
				<path class="st3" d="M285.3,14278.2c0-1.1,0.2-1.8,0.6-2c0.5-0.3,1.4-0.4,2.8-0.4c0.7,0,1.5,0.1,2.3,0.3
					c0.3,0.5,0.5,1.8,0.5,3.9c0,1.5-0.1,2.5-0.2,3c1.6-1.2,3.1-1.8,4.5-1.8c1.2,0,2.1,0.4,2.8,1.3c0.7,0.9,1.1,2.1,1.1,3.9
					c0,0.3,0,1.1-0.2,2.5c0,0,0.1,0,0.2,0c0.2,0,0.6,0,1,0.1c0.1,0.1,0.2,0.6,0.2,1.5c0,1-0.1,1.7-0.2,2c-1.1,0.2-2.2,0.4-3.1,0.4
					c-1,0-1.9-0.1-2.7-0.3c-0.1-0.1-0.2-0.4-0.3-0.8c-0.1-0.5-0.2-0.9-0.2-1.2c0-0.5,0.1-0.9,0.4-1.3c0.2-0.1,0.4-0.1,0.6-0.1
					c0.1,0,0.1,0,0.2,0s0.1,0,0.1,0h0.1c0.1-0.5,0.1-0.9,0.1-1.2c0-0.9-0.2-1.5-0.6-2s-0.9-0.7-1.5-0.7s-1.2,0.3-1.6,0.8
					c-0.5,0.6-0.7,1.3-0.7,2.2c0,0.4,0,0.8,0.1,1.2c0.2-0.1,0.4-0.2,0.6-0.2s0.4,0,0.5,0.1c0.1,0,0.2,0.3,0.2,0.9
					c0,0.1-0.1,0.8-0.2,1.9c-1.1,0.5-2.3,0.7-3.8,0.7c-1.7,0-2.6-0.2-2.9-0.6c-0.1-0.2-0.2-0.4-0.2-0.8c0-1.1,0.2-1.7,0.6-1.9
					c0.2-0.1,0.5-0.2,0.8-0.2c0.1,0,0.2,0,0.3,0c-0.2-1-0.2-3.1-0.2-6.1c0-2,0-3.3,0.2-3.8c-0.2,0.1-0.6,0.1-1.1,0.1
					c-0.3,0-0.7,0-0.9-0.1C285.3,14279.1,285.3,14278.8,285.3,14278.2z"/>
			</g>
		</g>
	</g>
	<g id="Step-39">
		<g>
			<path class="st0" d="M189.8,13577.8c0,0.4,0.4,0.7,0.9,0.8c2.6,0.2,10.9,0.5,12.8-3.2c0.2-0.4,0.9-1.8,0.3-3.2
				c-0.5-1.3-2-2-3.1-2.2c-0.6-0.1-0.9,0-1.4,0c-2.5,0.4-4.6,1.3-5.1,1.5c-0.9,0.4-2.4,0.8-4.2,1c-0.5,0-0.9,0.5-0.7,1.1
				C189.3,13574.9,189.5,13576.3,189.8,13577.8z"/>
			<path class="st0" d="M187.9,13578.8c0.5-0.1,0.8-0.5,0.7-1.1l-0.6-4.4c0-0.4-0.4-0.7-0.8-0.8c-1.7-0.2-3.3,0.5-3.9,1.8
				c-0.5,1.1-0.2,2.4,0.3,3.2C184.4,13578.7,186.1,13579.2,187.9,13578.8z"/>
		</g>
		<g>
			<path class="st0" d="M144.4,13575.6c0,0.5,0.5,0.9,1,0.8c1.8-0.1,3.3,0,4.3,0.2c0.4,0.1,2.8,0.6,5.3,0.5c0.4,0,0.8-0.1,1.4-0.3
				c1-0.4,2.3-1.4,2.6-2.7c0.3-1.5-0.6-2.7-0.9-3.1c-2.6-3.3-10.7-1.4-13.2-0.7c-0.4,0.2-0.7,0.5-0.6,0.9
				C144.3,13572.7,144.3,13574.2,144.4,13575.6z"/>
			<path class="st0" d="M138.2,13572.7c-0.4,1-0.5,2.2,0.3,3.2c0.8,1.2,2.5,1.5,4.3,1c0.4-0.2,0.7-0.5,0.6-0.9l-0.2-4.4
				c0-0.5-0.5-0.9-0.9-0.9C140.4,13570.5,138.8,13571.4,138.2,13572.7z"/>
		</g>
	</g>
	<g id="Step-38">
		<g>
			<path class="st0" d="M112.8,12776.7c-0.1,0.4,0.2,0.8,0.5,1c2.3,1,10.1,4.2,13.1,1.3c0.3-0.3,1.5-1.4,1.4-2.9
				c0-1.4-1.2-2.6-2.1-3.1c-0.5-0.3-0.9-0.3-1.3-0.5c-2.5-0.4-4.8-0.4-5.3-0.3c-1,0-2.5,0-4.3-0.4c-0.5-0.1-1,0.1-1,0.7
				C113.3,12773.8,113.1,12775.2,112.8,12776.7z"/>
			<path class="st0" d="M110.7,12776.9c0.5,0,0.9-0.3,1-0.7l0.9-4.4c0.1-0.4-0.2-0.8-0.4-1c-1.6-0.8-3.3-0.7-4.3,0.4
				c-0.8,0.9-1,2.1-0.8,3.2C107.4,12775.7,108.9,12776.8,110.7,12776.9z"/>
		</g>
		<g>
			<path class="st0" d="M144.4,12765.6c0,0.5,0.5,0.9,1,0.8c1.8-0.1,3.3,0,4.3,0.2c0.4,0.1,2.8,0.6,5.3,0.5c0.4,0,0.8-0.1,1.4-0.3
				c1-0.4,2.3-1.4,2.6-2.7c0.3-1.5-0.6-2.7-0.9-3.1c-2.6-3.3-10.7-1.4-13.2-0.7c-0.4,0.2-0.7,0.5-0.6,0.9
				C144.3,12762.7,144.3,12764.2,144.4,12765.6z"/>
			<path class="st0" d="M138.2,12762.7c-0.4,1-0.5,2.2,0.3,3.2c0.8,1.2,2.5,1.5,4.3,1c0.4-0.2,0.7-0.5,0.6-0.9l-0.2-4.4
				c0-0.5-0.5-0.9-0.9-0.9C140.4,12760.5,138.8,12761.4,138.2,12762.7z"/>
		</g>
	</g>
	<g id="Step-37">
		<g>
			<path class="st0" d="M112.8,11966.7c-0.1,0.4,0.2,0.8,0.5,1c2.3,1,10.1,4.2,13.1,1.3c0.3-0.3,1.5-1.4,1.4-2.9
				c0-1.4-1.2-2.6-2.1-3.1c-0.5-0.3-0.9-0.3-1.3-0.5c-2.5-0.4-4.8-0.4-5.3-0.3c-1,0-2.5,0-4.3-0.4c-0.5-0.1-1,0.1-1,0.7
				C113.3,11963.8,113.1,11965.2,112.8,11966.7z"/>
			<path class="st0" d="M110.7,11966.9c0.5,0,0.9-0.3,1-0.7l0.9-4.4c0.1-0.4-0.2-0.8-0.4-1c-1.6-0.8-3.3-0.7-4.3,0.4
				c-0.8,0.9-1,2.1-0.8,3.2C107.4,11965.7,108.9,11966.8,110.7,11966.9z"/>
		</g>
		<g>
			<path class="st0" d="M90.1,11946.9c-0.5,0.1-0.8,0.7-0.5,1.2c0.6,1.7,0.9,3.1,1,4.2c0,0.4,0.2,2.8,1,5.2c0.1,0.4,0.3,0.8,0.6,1.2
				c0.7,0.9,1.9,1.8,3.4,1.8c1.5-0.1,2.4-1.4,2.7-1.7c2.4-3.4-1.6-10.6-3-12.9c-0.3-0.3-0.7-0.5-1.1-0.3
				C92.8,11946,91.4,11946.4,90.1,11946.9z"/>
			<path class="st0" d="M91.1,11940.1c-1.1-0.1-2.3,0.2-3,1.2c-0.9,1.1-0.8,2.9,0.2,4.4c0.3,0.3,0.7,0.5,1.1,0.3l4.2-1.5
				c0.5-0.1,0.8-0.7,0.7-1.1C93.8,11941.7,92.6,11940.4,91.1,11940.1z"/>
		</g>
	</g>
	<g id="Step-36">
		<g>
			<path class="st0" d="M90.1,11136.9c-0.5,0.1-0.8,0.7-0.5,1.2c0.6,1.7,0.9,3.1,1,4.2c0,0.4,0.2,2.8,1,5.2c0.1,0.4,0.3,0.8,0.6,1.2
				c0.7,0.9,1.9,1.8,3.4,1.8c1.5-0.1,2.4-1.4,2.7-1.7c2.4-3.4-1.6-10.6-3-12.9c-0.3-0.3-0.7-0.5-1.1-0.3
				C92.8,11136,91.4,11136.4,90.1,11136.9z"/>
			<path class="st0" d="M91.1,11130.1c-1.1-0.1-2.3,0.2-3,1.2c-0.9,1.1-0.8,2.9,0.2,4.4c0.3,0.3,0.7,0.5,1.1,0.3l4.2-1.5
				c0.5-0.1,0.8-0.7,0.7-1.1C93.8,11131.7,92.6,11130.4,91.1,11130.1z"/>
		</g>
		<g>
			<path class="st0" d="M84.4,11106.5c-0.3-0.2-0.8-0.1-1.1,0.2c-1.7,1.9-7,8.4-5.2,12.1c0.2,0.4,0.9,1.8,2.4,2.2
				c1.3,0.4,2.8-0.3,3.6-1.1c0.5-0.4,0.6-0.7,0.8-1.1c1.2-2.2,1.8-4.5,1.9-5c0.3-1,0.8-2.4,1.7-3.9c0.3-0.4,0.2-1-0.4-1.2
				C86.9,11107.9,85.7,11107.2,84.4,11106.5z"/>
			<path class="st0" d="M84.7,11104.4c-0.2,0.5,0,0.9,0.4,1.2l3.9,2.2c0.3,0.2,0.8,0.1,1.1-0.1c1.2-1.2,1.6-2.9,1-4.2
				c-0.6-1.1-1.7-1.6-2.8-1.7C86.9,11101.7,85.5,11102.7,84.7,11104.4z"/>
		</g>
	</g>
	<g id="Step-35">
		<g>
			<path class="st0" d="M84.4,10296.5c-0.3-0.2-0.8-0.1-1.1,0.2c-1.7,1.9-7,8.4-5.2,12.1c0.2,0.4,0.9,1.8,2.4,2.2
				c1.3,0.4,2.8-0.3,3.6-1.1c0.5-0.4,0.6-0.7,0.8-1.1c1.2-2.2,1.8-4.5,1.9-5c0.3-1,0.8-2.4,1.7-3.9c0.3-0.4,0.2-1-0.4-1.2
				C86.9,10297.9,85.7,10297.2,84.4,10296.5z"/>
			<path class="st0" d="M84.7,10294.4c-0.2,0.5,0,0.9,0.4,1.2l3.9,2.2c0.3,0.2,0.8,0.1,1.1-0.1c1.2-1.2,1.6-2.9,1-4.2
				c-0.6-1.1-1.7-1.6-2.8-1.7C86.9,10291.7,85.5,10292.7,84.7,10294.4z"/>
		</g>
	</g>
	<g id="Step-34">
		<g>
			<path class="st0" d="M206.9,6144.6c-0.5,0.1-0.8,0.7-0.5,1.2c0.6,1.7,0.9,3.1,1,4.2c0,0.4,0.2,2.8,1,5.2c0.1,0.4,0.3,0.8,0.6,1.2
				c0.7,0.9,1.9,1.8,3.4,1.8c1.5-0.1,2.4-1.4,2.7-1.7c2.4-3.4-1.6-10.6-3-12.9c-0.3-0.3-0.7-0.5-1.1-0.3
				C209.6,6143.7,208.2,6144.1,206.9,6144.6z"/>
			<path class="st0" d="M207.9,6137.8c-1.1-0.1-2.3,0.2-3,1.2c-0.9,1.1-0.8,2.9,0.2,4.4c0.3,0.3,0.7,0.5,1.1,0.3l4.2-1.5
				c0.5-0.1,0.8-0.7,0.7-1.1C210.6,6139.3,209.4,6138.1,207.9,6137.8z"/>
		</g>
	</g>
	<g id="Step-33">
		<g>
			<path class="st0" d="M206.9,5334.6c-0.5,0.1-0.8,0.7-0.5,1.2c0.6,1.7,0.9,3.1,1,4.2c0,0.4,0.2,2.8,1,5.2c0.1,0.4,0.3,0.8,0.6,1.2
				c0.7,0.9,1.9,1.8,3.4,1.8c1.5-0.1,2.4-1.4,2.7-1.7c2.4-3.4-1.6-10.6-3-12.9c-0.3-0.3-0.7-0.5-1.1-0.3
				C209.6,5333.7,208.2,5334.1,206.9,5334.6z"/>
			<path class="st0" d="M207.9,5327.8c-1.1-0.1-2.3,0.2-3,1.2c-0.9,1.1-0.8,2.9,0.2,4.4c0.3,0.3,0.7,0.5,1.1,0.3l4.2-1.5
				c0.5-0.1,0.8-0.7,0.7-1.1C210.6,5329.3,209.4,5328.1,207.9,5327.8z"/>
		</g>
		<g>
			<path class="st0" d="M181.6,5304.5c-0.4,0-0.7,0.4-0.8,0.9c-0.2,2.6-0.6,10.9,3.1,12.8c0.4,0.2,1.8,0.9,3.2,0.3
				c1.3-0.5,2-1.9,2.2-3c0.1-0.6,0-0.9,0-1.4c-0.4-2.5-1.2-4.6-1.5-5.1c-0.4-0.9-0.8-2.4-1-4.2c0-0.5-0.5-0.9-1-0.7
				C184.5,5304,183.1,5304.2,181.6,5304.5z"/>
			<path class="st0" d="M180.7,5302.6c0.1,0.5,0.5,0.8,1,0.7l4.4-0.6c0.4,0,0.7-0.4,0.8-0.8c0.2-1.7-0.4-3.3-1.8-4
				c-1.1-0.5-2.4-0.3-3.2,0.3C180.8,5299.1,180.3,5300.8,180.7,5302.6z"/>
		</g>
	</g>
	<g id="Step-32">
		<g>
			<path class="st0" d="M194.2,4454.4c-0.5,0-0.9,0.5-0.8,1c0.2,1.8,0.1,3.3-0.1,4.3c-0.1,0.4-0.5,2.8-0.4,5.3
				c0,0.4,0.1,0.8,0.3,1.4c0.4,1,1.4,2.3,2.8,2.6c1.5,0.3,2.7-0.7,3.1-1c3.2-2.6,1.2-10.7,0.4-13.2c-0.2-0.4-0.6-0.7-1-0.6
				C197,4454.2,195.5,4454.2,194.2,4454.4z"/>
			<path class="st0" d="M196.9,4448c-1-0.4-2.2-0.4-3.2,0.4c-1.1,0.9-1.5,2.6-0.9,4.3c0.2,0.4,0.6,0.7,1,0.6l4.4-0.3
				c0.5,0,0.9-0.5,0.9-0.9C199.1,4450.2,198.2,4448.7,196.9,4448z"/>
		</g>
		<g>
			<path class="st0" d="M181.6,4494.5c-0.4,0-0.7,0.4-0.8,0.9c-0.2,2.6-0.6,10.9,3.1,12.8c0.4,0.2,1.8,0.9,3.2,0.3
				c1.3-0.5,2-1.9,2.2-3c0.1-0.6,0-0.9,0-1.4c-0.4-2.5-1.2-4.6-1.5-5.1c-0.4-0.9-0.8-2.4-1-4.2c0-0.5-0.5-0.9-1-0.7
				C184.5,4494,183.1,4494.2,181.6,4494.5z"/>
			<path class="st0" d="M180.7,4492.6c0.1,0.5,0.5,0.8,1,0.7l4.4-0.6c0.4,0,0.7-0.4,0.8-0.8c0.2-1.7-0.4-3.3-1.8-4
				c-1.1-0.5-2.4-0.3-3.2,0.3C180.8,4489.1,180.3,4490.8,180.7,4492.6z"/>
		</g>
	</g>
	<g id="Step-31">
		<g>
			<path class="st0" d="M194.2,3644.4c-0.5,0-0.9,0.5-0.8,1c0.2,1.8,0.1,3.3-0.1,4.3c-0.1,0.4-0.5,2.8-0.4,5.3
				c0,0.4,0.1,0.8,0.3,1.4c0.4,1,1.4,2.3,2.8,2.6c1.5,0.3,2.7-0.7,3.1-1c3.2-2.6,1.2-10.7,0.4-13.2c-0.2-0.4-0.6-0.7-1-0.6
				C197,3644.2,195.5,3644.2,194.2,3644.4z"/>
			<path class="st0" d="M196.9,3638c-1-0.4-2.2-0.4-3.2,0.4c-1.1,0.9-1.5,2.6-0.9,4.3c0.2,0.4,0.6,0.7,1,0.6l4.4-0.3
				c0.5,0,0.9-0.5,0.9-0.9C199.1,3640.2,198.2,3638.7,196.9,3638z"/>
		</g>
		<g>
			<path class="st0" d="M178.1,3615.6c-0.4-0.1-0.8,0.1-1.1,0.5c-1.2,2.3-4.7,9.9-2,13.1c0.3,0.3,1.3,1.6,2.9,1.5
				c1.4,0.1,2.6-1,3.2-2c0.4-0.5,0.4-0.9,0.5-1.2c0.6-2.5,0.6-4.8,0.6-5.3c0-1,0.2-2.5,0.7-4.3c0.2-0.5-0.1-1-0.7-1.1
				C180.9,3616.3,179.5,3615.9,178.1,3615.6z"/>
			<path class="st0" d="M177.9,3613.5c-0.1,0.5,0.2,0.9,0.7,1.1l4.3,1.2c0.4,0.1,0.8-0.1,1-0.4c0.9-1.5,0.8-3.2-0.1-4.3
				c-0.8-0.9-2.1-1.1-3.1-0.9C179.3,3610.3,178.2,3611.7,177.9,3613.5z"/>
		</g>
	</g>
	<g id="Step-30">
		<g>
			<path class="st0" d="M203,2776.3c-0.4-0.2-1,0-1.2,0.5c-0.7,1.7-1.5,2.9-2.2,3.7c-0.3,0.3-1.8,2.1-3,4.4
				c-0.2,0.4-0.3,0.7-0.4,1.3c-0.1,1.1,0.1,2.7,1.2,3.6c1.2,1,2.7,0.7,3.1,0.7c4.1-0.7,6.3-8.7,6.9-11.2c0-0.4-0.1-0.9-0.5-1
				C205.6,2777.5,204.3,2776.8,203,2776.3z"/>
			<path class="st0" d="M208.5,2772.2c-0.7-0.8-1.7-1.5-3-1.2c-1.4,0.2-2.6,1.5-2.9,3.3c0,0.4,0.1,0.9,0.5,1l4,1.9
				c0.4,0.2,1,0,1.3-0.3C209.4,2775.1,209.4,2773.4,208.5,2772.2z"/>
		</g>
		<g>
			<path class="st0" d="M178.1,2805.6c-0.4-0.1-0.8,0.1-1.1,0.5c-1.2,2.3-4.7,9.9-2,13.1c0.3,0.3,1.3,1.6,2.9,1.5
				c1.4,0.1,2.6-1,3.2-2c0.4-0.5,0.4-0.9,0.5-1.2c0.6-2.5,0.6-4.8,0.6-5.3c0-1,0.2-2.5,0.7-4.3c0.2-0.5-0.1-1-0.7-1.1
				C180.9,2806.3,179.5,2805.9,178.1,2805.6z"/>
			<path class="st0" d="M177.9,2803.5c-0.1,0.5,0.2,0.9,0.7,1.1l4.3,1.2c0.4,0.1,0.8-0.1,1-0.4c0.9-1.5,0.8-3.2-0.1-4.3
				c-0.8-0.9-2.1-1.1-3.1-0.9C179.3,2800.3,178.2,2801.7,177.9,2803.5z"/>
		</g>
	</g>
	<g id="Step-29">
		<g>
			<path class="st0" d="M203,1966.3c-0.4-0.2-1,0-1.2,0.5c-0.7,1.7-1.5,2.9-2.2,3.7c-0.3,0.3-1.8,2.1-3,4.4
				c-0.2,0.4-0.3,0.7-0.4,1.3c-0.1,1.1,0.1,2.7,1.2,3.6c1.2,1,2.7,0.7,3.1,0.7c4.1-0.7,6.3-8.7,6.9-11.2c0-0.4-0.1-0.9-0.5-1
				C205.6,1967.5,204.3,1966.8,203,1966.3z"/>
			<path class="st0" d="M208.5,1962.2c-0.7-0.8-1.7-1.5-3-1.2c-1.4,0.2-2.6,1.5-2.9,3.3c0,0.4,0.1,0.9,0.5,1l4,1.9
				c0.4,0.2,1,0,1.3-0.3C209.4,1965.1,209.4,1963.4,208.5,1962.2z"/>
		</g>
		<g>
			<path class="st0" d="M208,1932.2c-0.3-0.3-0.8-0.3-1.2-0.1c-2.2,1.4-9.1,6-8.5,10.1c0.1,0.4,0.3,2,1.7,2.8c1.2,0.8,2.8,0.5,3.8,0
				c0.5-0.2,0.8-0.5,1.1-0.8c1.8-1.8,3-3.7,3.2-4.2c0.5-0.9,1.4-2,2.8-3.3c0.4-0.3,0.4-0.9,0-1.3
				C210,1934.3,209.1,1933.3,208,1932.2z"/>
			<path class="st0" d="M208.9,1930.3c-0.3,0.4-0.3,0.9,0,1.3l3.1,3.2c0.3,0.3,0.8,0.3,1.1,0.2c1.5-0.8,2.4-2.3,2.1-3.8
				c-0.2-1.2-1.2-2.1-2.2-2.4C211.8,1928.3,210.1,1928.9,208.9,1930.3z"/>
		</g>
	</g>
	<g id="Step-28">
		<g>
			<path class="st0" d="M242.4,1108.3c-0.3-0.4-0.9-0.5-1.3-0.1c-1.4,1.1-2.7,1.8-3.7,2.3c-0.4,0.1-2.6,1.1-4.7,2.6
				c-0.4,0.2-0.6,0.5-1,1c-0.6,0.9-1.1,2.4-0.6,3.7c0.6,1.4,2.1,1.9,2.5,2c4,1.3,9.6-4.8,11.3-6.8c0.2-0.4,0.3-0.8,0-1.1
				C244.1,1110.6,243.4,1109.4,242.4,1108.3z"/>
			<path class="st0" d="M249.2,1107.2c-0.2-1.1-0.9-2.1-2.1-2.5c-1.3-0.5-3,0.1-4.1,1.6c-0.2,0.4-0.3,0.8,0,1.1l2.7,3.5
				c0.3,0.4,0.9,0.5,1.3,0.3C248.6,1110.2,249.4,1108.7,249.2,1107.2z"/>
		</g>
		<g>
			<path class="st0" d="M208,1122.2c-0.3-0.3-0.8-0.3-1.2-0.1c-2.2,1.4-9.1,6-8.5,10.1c0.1,0.4,0.3,2,1.7,2.8c1.2,0.8,2.8,0.5,3.8,0
				c0.5-0.2,0.8-0.5,1.1-0.8c1.8-1.8,3-3.7,3.2-4.2c0.5-0.9,1.4-2,2.8-3.3c0.4-0.3,0.4-0.9,0-1.3
				C210,1124.3,209.1,1123.3,208,1122.2z"/>
			<path class="st0" d="M208.9,1120.3c-0.3,0.4-0.3,0.9,0,1.3l3.1,3.2c0.3,0.3,0.8,0.3,1.1,0.2c1.5-0.8,2.4-2.3,2.1-3.8
				c-0.2-1.2-1.2-2.1-2.2-2.4C211.8,1118.3,210.1,1118.9,208.9,1120.3z"/>
		</g>
	</g>
	<g id="Step-27">
		<g>
			<path class="st0" d="M242.4,298.3c-0.3-0.4-0.9-0.5-1.3-0.1c-1.4,1.1-2.7,1.8-3.7,2.3c-0.4,0.1-2.6,1.1-4.7,2.6
				c-0.4,0.2-0.6,0.5-1,1c-0.6,0.9-1.1,2.4-0.6,3.7c0.6,1.4,2.1,1.9,2.5,2c4,1.3,9.6-4.8,11.3-6.8c0.2-0.4,0.3-0.8,0-1.1
				C244.1,300.6,243.4,299.4,242.4,298.3z"/>
			<path class="st0" d="M249.2,297.2c-0.2-1.1-0.9-2.1-2.1-2.5c-1.3-0.5-3,0.1-4.1,1.6c-0.2,0.4-0.3,0.8,0,1.1l2.7,3.5
				c0.3,0.4,0.9,0.5,1.3,0.3C248.6,300.2,249.4,298.7,249.2,297.2z"/>
		</g>
		<g>
			<path class="st0" d="M254.1,278.4c0.1-0.4-0.2-0.8-0.6-1c-2.4-0.9-10.3-3.6-13.2-0.6c-0.3,0.3-1.4,1.5-1.2,3
				c0.1,1.4,1.3,2.5,2.3,3c0.5,0.3,0.9,0.3,1.3,0.4c2.5,0.3,4.8,0.1,5.3,0c1-0.1,2.5-0.1,4.3,0.2c0.5,0.1,1-0.2,1-0.8
				C253.7,281.3,253.9,279.9,254.1,278.4z"/>
			<path class="st0" d="M256.2,278c-0.5,0-0.9,0.3-1,0.8l-0.7,4.4c-0.1,0.4,0.2,0.8,0.5,1c1.6,0.7,3.3,0.5,4.3-0.6
				c0.8-0.9,0.9-2.2,0.6-3.2C259.5,279.1,258,278.1,256.2,278z"/>
		</g>
	</g>
</g>
</svg>
