<?xml version="1.0" encoding="utf-8"?>
<!-- Generator: Adobe Illustrator 26.4.1, SVG Export Plug-In . SVG Version: 6.00 Build 0)  -->
<svg version="1.1" id="FQT-Animation" xmlns="http://www.w3.org/2000/svg" xmlns:xlink="http://www.w3.org/1999/xlink" x="0px"
	 y="0px" viewBox="0 0 1080 4050" style="enable-background:new 0 0 1080 4050;" xml:space="preserve">
<style type="text/css">
	.st0{stroke:#000000;stroke-width:0.3411;stroke-miterlimit:10;}
	.st1{fill:#FFFFFF;stroke:#000000;stroke-width:0.5;stroke-opacity:0.4;stroke-linecap:round;stroke-linejoin:round;stroke-miterlimit:10;}
</style>
<g id="Walk-1">
	<g id="Step-5">
		<g id="Footsteps">
			<g>
				<path class="st0" d="M953.6,3579.7c0.1-0.5-0.3-1-0.8-1c-1.8-0.2-3.2-0.6-4.2-1c-0.4-0.2-2.6-1.1-5.1-1.5
					c-0.4-0.1-0.8-0.1-1.4,0c-1.1,0.2-2.5,0.9-3.1,2.2c-0.6,1.4,0.1,2.8,0.3,3.2c1.9,3.7,10.2,3.4,12.8,3.2c0.4-0.1,0.8-0.4,0.8-0.8
					C953.2,3582.5,953.5,3581.1,953.6,3579.7z"/>
				<path class="st0" d="M959.2,3583.7c0.6-0.9,0.9-2.1,0.3-3.2c-0.6-1.3-2.2-2-4-1.8c-0.4,0.1-0.8,0.4-0.8,0.8l-0.6,4.4
					c-0.1,0.5,0.3,1,0.7,1.1C956.6,3585.4,958.3,3584.9,959.2,3583.7z"/>
			</g>
			<g>
				<path class="st0" d="M955.1,3570.5c0.1-0.4-0.2-0.8-0.6-1c-2.4-0.9-10.3-3.6-13.2-0.6c-0.3,0.3-1.4,1.5-1.2,3
					c0.1,1.4,1.3,2.5,2.3,3c0.5,0.3,0.9,0.3,1.3,0.4c2.5,0.3,4.8,0.1,5.3,0c1-0.1,2.5-0.1,4.3,0.2c0.5,0.1,1-0.2,1-0.8
					C954.7,3573.4,954.9,3572,955.1,3570.5z"/>
				<path class="st0" d="M957.2,3570.1c-0.5,0-0.9,0.3-1,0.8l-0.7,4.4c-0.1,0.4,0.2,0.8,0.5,1c1.6,0.7,3.3,0.5,4.3-0.6
					c0.8-0.9,0.9-2.2,0.6-3.2C960.5,3571.2,959,3570.2,957.2,3570.1z"/>
			</g>
		</g>
		<g id="Sign_00000114060106351584546680000012430426811201159061_">
			<path class="st1" d="M1009.4,3424.9H805.1c-10.4,0-18.9,8.4-18.9,18.9v83.4c0,10.4,8.5,18.9,18.9,18.9h93c3,8.3,6,16.5,9,24.8
				c3.5-8.3,7.1-16.5,10.7-24.8h91.7c10.4,0,18.9-8.5,18.9-18.9v-83.4C1028.3,3433.4,1019.8,3424.9,1009.4,3424.9z"/>
			<g>
				<path d="M824.7,3450.5c0-0.6,0.1-1,0.3-1.4c0.2-0.2,1.4-0.3,3.5-0.3c0.9,0,1.8,0,2.6,0.1c0.8,0.1,1.2,0.1,1.2,0.2
					c0.3,0.2,0.5,0.8,0.5,1.8c0,0.3,0,0.5-0.1,0.6c0,0.1,0,0.2-0.2,0.2s-0.2,0.1-0.4,0.1c-0.4,0-0.7,0-0.7-0.1c0,0-0.1,0.1-0.1,0.2
					c0,0.5,0,1,0,1.5s0.1,1,0.2,1.4c0.1,0.5,0.2,0.9,0.2,1.2s0.2,0.7,0.4,1.3c0.2,0.6,0.3,0.9,0.4,1.1c0.1,0.2,0.2,0.6,0.5,1.2
					c0.3,0.6,0.4,1,0.5,1.2c0.5-1.1,0.8-1.9,1.1-2.6c0.2-0.7,0.5-1.6,0.8-2.8c0.2-1.1,0.3-2.4,0.3-3.6c0-0.1,0-0.2-0.1-0.2
					c0,0.1-0.2,0.1-0.7,0.1c-0.2,0-0.3,0-0.4-0.1c-0.1-0.1-0.2-0.1-0.2-0.2c0-0.1-0.1-0.4-0.1-0.6c0-1,0.2-1.6,0.5-1.8
					c0-0.1,0.4-0.1,1.2-0.2c0.8-0.1,1.7-0.1,2.6-0.1c2.2,0,3.3,0.1,3.5,0.3s0.3,0.6,0.3,1.2c0,0.8-0.1,1.3-0.4,1.5
					c-0.1,0.1-0.3,0.1-0.5,0.1c-0.4,0-0.7-0.1-0.8-0.1c0,0.8-0.7,3-2,6.8s-2.2,5.7-2.5,5.9c-0.7,0.3-1.6,0.4-2.8,0.4
					c-1.5,0-2.4-0.1-2.8-0.4c-0.3-0.1-1.2-2.1-2.5-5.9s-2-6-2-6.7c0-0.1,0-0.1,0-0.1c-0.3,0.1-0.6,0.2-0.8,0.2s-0.3,0-0.5-0.1
					C824.9,3451.8,824.7,3451.3,824.7,3450.5z"/>
				<path d="M842.1,3459.9c0-1.1,0.2-2.1,0.5-3.1s0.8-1.8,1.6-2.6c0.7-0.7,1.6-1.1,2.6-1.1c0.4,0,0.8,0.1,1.1,0.2
					c0.3,0.1,0.6,0.3,0.8,0.4c0.2,0.1,0.3,0.4,0.5,0.5c0.1,0.2,0.2,0.3,0.2,0.4l0.1,0.2c0-0.5,0-0.9,0-1.1c0.5-0.4,1.4-0.6,2.7-0.6
					c0.5,0,0.8,0,1.2,0.1c0.3,0,0.6,0.1,0.8,0.1s0.3,0.1,0.5,0.1c0.1,0.1,0.2,0.1,0.2,0.1l0,0c0,0.1,0.1,0.6,0.1,1.3s0,1.1-0.1,1.3
					c-0.2,0.3-0.6,0.4-1.1,0.4c-0.2,0-0.3,0-0.5-0.1c0,0.1,0.1,0.4,0.1,1.1c0,1.9-0.1,2.9-0.2,3.1c0.1-0.1,0.2-0.1,0.4-0.1
					s0.6,0.1,1.2,0.3c0.1,0.1,0.2,0.8,0.2,2c0,0.6,0,1.1-0.1,1.2c-0.1,0.2-0.4,0.3-1,0.5c-0.6,0.1-1.2,0.2-1.8,0.2
					c-1.8,0-2.8,0-3-0.1c-0.1-0.3-0.2-0.5-0.2-0.7c0-0.1,0-0.2,0.1-0.3c-0.2,0.1-0.7,0.3-1.5,0.7c-0.8,0.4-1.3,0.6-1.7,0.6
					c-1.2,0-2-0.5-2.6-1.5C842.4,3462.5,842.1,3461.3,842.1,3459.9z M845.1,3459.5c0,0.5,0.2,1,0.4,1.3c0.3,0.4,0.7,0.6,1.1,0.6
					c0.6,0,1.2-0.3,1.7-0.9s0.8-1.2,0.8-1.9c0-0.5-0.2-0.9-0.5-1.2c-0.3-0.3-0.7-0.5-1.2-0.5s-0.9,0.1-1.2,0.4
					c-0.4,0.3-0.7,0.7-0.9,1.1C845.2,3458.8,845.1,3459.1,845.1,3459.5z"/>
				<path d="M856.1,3462.7c0-0.7,0-1.1,0.1-1.2s0.4-0.1,0.8-0.2c0.3-0.1,0.5-0.1,0.5-0.1c-0.2-0.9-0.2-2.3-0.2-4.4
					c0-2.4,0.1-4.6,0.2-6.4c-0.5,0-0.8,0-1-0.1c0-0.3,0-0.6,0-0.7c0-0.6,0.2-1.2,0.5-1.7c0.7-0.1,1.5-0.2,2.6-0.2
					c0.8,0,1.5,0.1,1.9,0.2c0.2,1.4,0.2,2.9,0.2,4.4c0,1.1,0,2.7-0.2,4.7s-0.2,3.4-0.2,4.2c0.1,0,0.2,0,0.4,0c0.4,0,0.8,0.1,1.1,0.2
					c0,0.1,0.1,0.2,0.1,0.4c0,0.3-0.1,0.8-0.2,1.4c-0.1,0.6-0.2,1-0.3,1.1c-0.2,0.1-1.1,0.2-2.5,0.2c-2.1,0-3.3-0.2-3.7-0.6
					C856.1,3463.9,856.1,3463.5,856.1,3462.7z"/>
				<path d="M863.7,3462.7c0-0.7,0-1.1,0.1-1.2s0.4-0.1,0.8-0.2c0.3-0.1,0.5-0.1,0.5-0.1c-0.2-0.9-0.2-2.3-0.2-4.4
					c0-2.4,0.1-4.6,0.2-6.4c-0.5,0-0.8,0-1-0.1c0-0.3,0-0.6,0-0.7c0-0.6,0.2-1.2,0.5-1.7c0.7-0.1,1.5-0.2,2.6-0.2
					c0.8,0,1.5,0.1,1.9,0.2c0.2,1.4,0.2,2.9,0.2,4.4c0,1.1,0,2.7-0.2,4.7s-0.2,3.4-0.2,4.2c0.1,0,0.2,0,0.4,0c0.4,0,0.8,0.1,1.1,0.2
					c0,0.1,0.1,0.2,0.1,0.4c0,0.3-0.1,0.8-0.2,1.4c-0.1,0.6-0.2,1-0.3,1.1c-0.2,0.1-1.1,0.2-2.5,0.2c-2.1,0-3.3-0.2-3.7-0.6
					C863.7,3463.9,863.7,3463.5,863.7,3462.7z"/>
				<path d="M871.3,3459.7c0-0.7,0.2-1.4,0.4-2.1c0.3-0.7,0.7-1.4,1.2-2.1c0.5-0.6,1.2-1.2,2.2-1.6c0.9-0.4,1.9-0.6,3-0.6
					c1.2,0,2.2,0.2,2.9,0.8c0.7,0.6,1,1.2,1,2.1c0,1.2-0.6,2.3-1.8,3.1s-2.5,1.2-3.9,1.2c-0.4,0-0.8,0-1.2-0.1c0,1.1,1,1.6,2.8,1.6
					c0.3,0,0.6,0,0.8-0.1c0-0.1,0-0.2,0.1-0.4c0.7-0.5,1.4-0.8,2.1-0.8c0.2,0,0.2,0,0.3,0c1,0.5,1.6,1.4,1.8,2.6
					c0,0.1-0.1,0.2-0.2,0.4s-0.2,0.2-0.3,0.4c-0.1,0.2-0.2,0.2-0.5,0.3c-0.3,0.1-0.3,0.2-0.5,0.3c-0.1,0.1-0.3,0.1-0.5,0.3
					s-0.3,0.2-0.4,0.2c-0.1,0-0.2,0-0.2,0s-0.1-0.1-0.2-0.1s-0.1-0.1-0.1-0.1s0-0.1-0.1-0.2c-0.1-0.1-0.1-0.1-0.1-0.1
					c-0.8,0.3-1.7,0.5-2.6,0.5c-2,0-3.6-0.5-4.7-1.6C871.8,3462.4,871.3,3461.1,871.3,3459.7z M875.7,3457.3c0,0.5,0.3,0.8,1.1,0.8
					c0.5,0,1-0.1,1.5-0.4s0.8-0.6,0.8-0.9c0-0.2-0.1-0.5-0.2-0.8c-0.2-0.3-0.5-0.4-0.8-0.4c-0.5,0-1,0.2-1.5,0.6
					C875.9,3456.5,875.7,3456.9,875.7,3457.3z"/>
				<path d="M882.9,3469.5c0-0.7,0.1-1.6,0.3-2.6s0.4-1.6,0.5-1.8c0.2-0.1,0.4-0.1,0.6-0.1c0.7,0,1.2,0.2,1.8,0.5c0,0,0,0.1,0,0.3
					c0,0.1,0,0.2,0,0.4c0.2,0.1,0.5,0.1,0.9,0.2c0.4,0.1,0.7,0.1,0.8,0.2c0.2,0.1,0.4,0.1,0.6,0.1c0.2,0.1,0.5,0.1,0.7,0.1
					s0.4,0,0.7,0c1.2,0,2.1-0.3,2.7-0.8s0.9-1.5,1-2.8c-1.5,1.2-3.1,1.8-4.7,1.8c-2.7,0-4-1.8-4-5.5c0-0.9,0-1.6,0.2-2.3
					c0,0-0.1,0-0.2,0c-0.2,0-0.6,0-1-0.1c-0.2-0.3-0.3-0.9-0.3-1.6c0-0.9,0.1-1.4,0.3-1.8c1.2-0.3,2.2-0.5,3.2-0.5s1.9,0.1,2.6,0.4
					c0.3,0.4,0.5,0.9,0.5,1.7c0,0.7-0.1,1.2-0.3,1.6c-0.2,0.1-0.3,0.2-0.5,0.2c-0.1,0-0.1,0-0.1,0s0,0-0.1-0.1l-0.1-0.1
					c-0.1,0.4-0.1,0.9-0.1,1.5c0,0.9,0.2,1.6,0.5,2c0.3,0.5,0.8,0.7,1.3,0.7c0.6,0,1.2-0.3,1.7-0.8s0.7-1.2,0.7-2.2
					c0-0.4,0-0.8-0.1-1.2c-0.2,0.1-0.4,0.2-0.7,0.2s-0.5-0.1-0.5-0.1c-0.2-0.1-0.4-0.5-0.4-1.3s0.1-1.3,0.3-1.4
					c0.7-0.5,2-0.8,3.9-0.8c1.7,0,2.8,0.2,3.2,0.5c0,0.2,0.1,0.5,0.1,0.9c0,0.8-0.1,1.4-0.2,1.6c-0.1,0.1-0.3,0.2-0.7,0.2
					c-0.2,0-0.5-0.1-0.8-0.2c0,0.3,0,0.9,0.1,1.6c0.1,0.7,0.1,1.4,0.2,2.1s0.1,1.3,0.1,1.9c0,1.6-0.2,2.9-0.5,4.1
					c-0.3,1.1-0.8,2-1.3,2.7c-0.6,0.6-1.2,1.1-1.9,1.4c-0.7,0.3-1.4,0.4-2.2,0.4s-1.5,0-2,0s-1.1-0.1-1.8-0.2
					c-0.7-0.1-1.4-0.4-2-0.7c-0.2,0.5-0.2,0.8-0.2,0.8c-0.1,0.1-0.4,0.1-1,0.1c-1,0-1.4-0.1-1.5-0.2
					C883,3470,882.9,3469.8,882.9,3469.5z"/>
				<path d="M904.3,3460.2c0-1.1,0.3-2.2,0.8-3.2s1.4-1.9,2.4-2.7s2.2-1.1,3.5-1.1c1.5,0,2.7,0.5,3.4,1.6c0.7,1,1.1,2.3,1.1,3.9
					c0,2.1-0.5,3.6-1.7,4.7c-1.2,1.1-2.6,1.6-4.3,1.6s-3-0.4-3.8-1.4C904.7,3462.6,904.3,3461.5,904.3,3460.2z M908.6,3459.5
					c0,0.4,0.2,0.9,0.4,1.2c0.3,0.4,0.7,0.5,1.1,0.5c0.6,0,1.2-0.3,1.7-0.8s0.8-1.1,0.8-1.8c0-0.5-0.2-0.9-0.5-1.2
					c-0.3-0.3-0.7-0.5-1.2-0.5c-0.7,0-1.2,0.3-1.7,0.9C908.9,3458.3,908.6,3458.9,908.6,3459.5z"/>
				<path d="M916.7,3455.9c0-1.1,0.1-1.8,0.2-2.1c0.2-0.1,0.7-0.2,1.4-0.3c0-1,0-1.7,0-2.3c0-0.5,0.1-1.1,0.2-1.6
					c0.1-0.5,0.2-0.9,0.4-1.1s0.4-0.4,0.8-0.6c0.3-0.2,0.8-0.3,1.2-0.3c0.4-0.1,1-0.1,1.7-0.1c1,0,1.7,0.1,2.2,0.1s1,0.2,1.5,0.5
					c0.2,0.2,0.3,0.9,0.3,2.1c0,0.6-0.1,1.1-0.2,1.5l-2.1-0.5l0.2-0.5c-0.1,0-0.2,0-0.4,0c-1.2,0-1.7,0.6-1.7,1.8c0,0.1,0,0.2,0,0.4
					s0,0.3,0,0.4h0.9c0.2,0,0.4,0,0.5,0s0.2,0,0.2,0c0.2,0,0.6,0,1,0.1c0,0.1,0.1,0.2,0.1,0.6c0,1.1-0.1,1.9-0.3,2.1
					c-0.2,0.2-1,0.3-2.2,0.3v4.7c0.2-0.1,0.4-0.1,0.7-0.1s0.4,0.1,0.5,0.1c0.2,0,0.2,0.3,0.2,0.9c0,0.1-0.1,0.8-0.2,1.9
					c-0.6,0.3-1.2,0.5-1.7,0.6s-1.2,0.2-2,0.2c-1.8,0-2.8-0.2-3.1-0.6c-0.2-0.2-0.2-0.5-0.2-1.1c0-0.9,0.2-1.4,0.7-1.6
					c0.2-0.1,0.4-0.2,0.7-0.2c0.1,0,0.2,0,0.3,0.1c0-3-0.1-4.5-0.1-4.6c0,0,0,0-0.1,0s-0.1,0-0.2,0h-0.3c-0.2,0-0.5,0-1-0.1
					C916.7,3456.4,916.7,3456.2,916.7,3455.9z"/>
				<path d="M930.4,3456.9c0-2.4,0.6-4.4,1.7-5.9c1.2-1.5,2.6-2.3,4.4-2.3c1,0,2.1,0.3,3.2,0.8c0,0,0.1-0.1,0.2-0.4
					c0.1-0.3,0.2-0.4,0.3-0.4c0.7-0.1,1.2-0.2,1.7-0.2c0.6,0,1.1,0.1,1.4,0.4c0.1,0.4,0.2,0.9,0.2,1.4c0,1.1-0.2,2.1-0.5,3
					c-0.1,0.1-0.6,0.2-1.5,0.2c-0.8,0-1.3-0.1-1.6-0.2c-0.1-0.1-0.2-0.2-0.2-0.4c0-0.1,0-0.2,0.1-0.5c-0.6-0.2-1.2-0.3-1.7-0.3
					c-1.2,0-2,0.4-2.6,1.4s-0.9,2.1-0.9,3.4c0,1.3,0.3,2.3,0.8,2.9c0.5,0.6,1.2,0.9,2,0.9c0.5,0,0.9-0.1,1.4-0.3
					c0.2-0.4,0.3-0.7,0.3-1c0-0.3-0.1-0.6-0.3-0.9c-1.3,0-2-0.1-2-0.3c-0.1-0.1-0.2-0.4-0.2-0.9c0-0.8,0.1-1.2,0.3-1.3
					c0.3-0.5,1.2-0.7,2.6-0.7c0.8,0,1.5,0.1,2.3,0.2c0.7,0.1,1.2,0.3,1.2,0.6c0.1,0.3,0.2,0.9,0.4,1.9c0.1,1,0.2,2,0.2,3.1
					c0,1.3-0.1,2.5-0.2,3.4c-0.3,0.2-0.8,0.4-1.4,0.4c-0.4,0-1-0.1-1.7-0.2c-0.3-0.1-0.5-0.4-0.5-0.9c-1,0.7-2,1-3,1
					c-0.8,0-1.5-0.1-2.3-0.5c-0.8-0.3-1.4-0.8-2-1.4c-0.6-0.6-1.1-1.4-1.5-2.5C930.5,3459.4,930.4,3458.2,930.4,3456.9z"/>
				<path d="M944.3,3455.1c1.3-1,3.2-1.8,5.9-2.2c0.6,0.9,0.9,1.6,0.9,2.3c0,0.1-0.2,0.2-0.5,0.4c-0.3,0.1-0.6,0.2-0.7,0.2
					c0.2,0.9,0.8,2.3,1.8,4.1c0.4-0.3,0.8-0.9,1.1-1.7s0.7-1.7,1-2.7s0.5-1.5,0.5-1.7c0.4-0.3,1-0.4,2-0.4c0.6,0,1.2,0.1,1.8,0.4
					c0,0.1,0.1,0.4,0.3,1.1c0.2,0.7,0.4,1.2,0.5,1.6c0.1,0.3,0.3,0.8,0.5,1.3c0.2,0.6,0.4,1,0.7,1.4c0.2,0.4,0.4,0.6,0.7,0.9
					c0.3-0.4,0.6-1.2,1-2.2s0.7-1.7,0.7-2.1c-0.2,0-0.4-0.1-0.8-0.2c-0.3-0.1-0.5-0.2-0.5-0.4c0-0.1,0.1-0.6,0.3-1.2
					c0.2-0.6,0.4-1,0.5-1.1c2.6,0.4,4.6,1.1,5.9,2.2c-0.2,0.9-0.3,1.8-0.6,2.4c-0.3-0.1-0.6-0.2-1-0.4c0,0.4-0.2,1.1-0.7,2
					c-0.2,0.6-0.8,1.5-1.6,2.9c0.4,0.1,0.8,0.4,1.1,0.8c0,0.6-0.3,1.1-1,1.7c0,0-0.3,0.1-0.7,0.1s-0.9,0.1-1.5,0.1s-1.2,0-1.8,0
					c-0.5,0-1.1-0.5-1.8-1.5c-0.8-1-1.5-2.1-2.1-3.2c-0.6,1.1-1.3,2.2-2.1,3.2s-1.4,1.5-1.8,1.5c-0.6,0-1.2,0-1.8,0
					c-0.7,0-1.2-0.1-1.5-0.1c-0.4,0-0.6-0.1-0.7-0.1c-0.7-0.6-1-1.1-1-1.7c0.1-0.1,0.3-0.2,0.5-0.5c0.3-0.2,0.5-0.3,0.5-0.3
					c-0.8-1.4-1.4-2.4-1.6-2.9c-0.4-0.9-0.7-1.6-0.7-2c-0.3,0.2-0.7,0.3-1,0.4C944.7,3456.8,944.4,3456,944.3,3455.1z"/>
				<path d="M968.3,3459.7c0-0.7,0.2-1.4,0.4-2.1c0.3-0.7,0.7-1.4,1.2-2.1c0.5-0.6,1.2-1.2,2.2-1.6c0.9-0.4,1.9-0.6,3-0.6
					c1.2,0,2.2,0.2,2.9,0.8c0.7,0.6,1,1.2,1,2.1c0,1.2-0.6,2.3-1.8,3.1s-2.5,1.2-3.9,1.2c-0.4,0-0.8,0-1.2-0.1c0,1.1,1,1.6,2.8,1.6
					c0.3,0,0.6,0,0.8-0.1c0-0.1,0-0.2,0.1-0.4c0.7-0.5,1.4-0.8,2.1-0.8c0.2,0,0.2,0,0.3,0c1,0.5,1.6,1.4,1.8,2.6
					c0,0.1-0.1,0.2-0.2,0.4s-0.2,0.2-0.3,0.4c-0.1,0.2-0.2,0.2-0.5,0.3c-0.3,0.1-0.3,0.2-0.5,0.3c-0.1,0.1-0.3,0.1-0.5,0.3
					s-0.3,0.2-0.4,0.2c-0.1,0-0.2,0-0.2,0s-0.1-0.1-0.2-0.1s-0.1-0.1-0.1-0.1s0-0.1-0.1-0.2c-0.1-0.1-0.1-0.1-0.1-0.1
					c-0.8,0.3-1.7,0.5-2.6,0.5c-2,0-3.6-0.5-4.7-1.6C968.8,3462.4,968.3,3461.1,968.3,3459.7z M972.7,3457.3c0,0.5,0.3,0.8,1.1,0.8
					c0.5,0,1-0.1,1.5-0.4s0.8-0.6,0.8-0.9c0-0.2-0.1-0.5-0.2-0.8c-0.2-0.3-0.5-0.4-0.8-0.4c-0.5,0-1,0.2-1.5,0.6
					C972.9,3456.5,972.7,3456.9,972.7,3457.3z"/>
				<path d="M980.8,3462.8c0-0.7,0.2-1.1,0.5-1.3c0.1-0.1,0.4-0.1,0.8-0.2c0.3-0.1,0.5-0.1,0.5-0.1c-0.2-1.8-0.2-2.9-0.2-3.3
					c0-1.1,0.1-1.8,0.2-2.1c-0.4,0-0.8,0-1-0.1c-0.1-0.3-0.2-0.6-0.2-0.8c0-0.5,0.2-1,0.6-1.6c0.5-0.1,1.6-0.1,3.1-0.1
					c0.5,0,1,0,1.5,0.1c0.5,0.1,0.9,0.1,1.2,0.2s0.4,0.1,0.4,0.2c0.1,0.2,0.2,0.4,0.2,0.8c0,0.8-0.1,1.4-0.4,1.6
					c0,0.1-0.2,0.1-0.6,0.1s-0.6,0-0.8-0.1c-0.2,1.1-0.2,2.4-0.2,4.1c0,0.7,0,1.1,0.1,1.1s0.2,0,0.4,0c0.4,0,0.7,0.1,1,0.2
					c0,0.1,0.1,0.3,0.1,0.6c0,0.4,0,0.8-0.2,1.3s-0.2,0.9-0.3,1.1c-0.2,0.1-1,0.2-2.3,0.2c-2.2,0-3.5-0.2-3.8-0.6
					C980.9,3463.8,980.8,3463.4,980.8,3462.8z M983,3448.8c0-0.4,0.2-0.6,0.7-0.6c0.4,0,0.8,0.1,1.2,0.4c0.3-0.3,0.7-0.5,1.2-0.5
					c0.3,0,0.6,0.1,0.8,0.4s0.4,0.5,0.4,0.9c0,0.2,0,0.4-0.1,0.6s-0.2,0.3-0.2,0.4c-0.1,0.1-0.2,0.2-0.5,0.4
					c-0.2,0.1-0.4,0.3-0.5,0.4c-0.1,0.1-0.3,0.2-0.6,0.4c-0.3,0.1-0.5,0.2-0.5,0.3c-0.6-0.4-1-0.9-1.4-1.5
					C983.2,3449.7,983,3449.2,983,3448.8z"/>
				<path d="M831.7,3479c0-0.8,0-1.2,0.1-1.3c0.2-0.2,0.5-0.4,0.8-0.6c0.3-0.2,0.9-0.4,1.7-0.7c0.8-0.2,1.6-0.4,2.5-0.4
					c0.5,0,1,0.1,1.2,0.2c0.2,0.4,0.3,1.9,0.3,4.6c0,3.7-0.1,6.2-0.3,7.6c0.1,0,0.2,0,0.4,0c0.4,0,0.8,0.1,1.1,0.2
					c0,0.1,0.1,0.2,0.1,0.4c0,0.3-0.1,0.8-0.2,1.4c-0.1,0.6-0.2,1-0.3,1.1c-0.3,0.1-1.1,0.2-2.4,0.2c-2.3,0-3.7-0.2-4.1-0.6
					c-0.1-0.1-0.1-0.6-0.1-1.3s0-1.1,0.1-1.2l1.2-0.2c0.3-0.1,0.5-0.1,0.5-0.1c-0.2-1.5-0.3-3-0.3-4.5c0-1.4,0.1-2.9,0.3-4.4
					c-0.7,0.5-1.5,0.8-2.4,0.9C831.8,3480.1,831.7,3479.7,831.7,3479z"/>
				<path d="M840.7,3483.8c0-0.7,0-1.2,0.1-1.5c1.3-2.6,3.2-4.6,5.8-6.1c0.7-0.3,1.4-0.4,2.1-0.4s1.3,0.1,1.7,0.4
					c0.2,0.7,0.3,2.2,0.3,4.7c0,0.7,0,1.2,0,1.5c0,0,0.1,0,0.2,0c0.1,0,0.2,0,0.2,0c0.2,0,0.3,0,0.5,0.1c0.3,0.1,0.5,0.7,0.5,1.5
					c0,0.6-0.1,1.1-0.4,1.3c-0.1,0.1-0.3,0.1-0.7,0.1c-0.2,0-0.4,0-0.5,0c0.1,0.5,0.1,1,0.1,1.3c0,0.8-0.1,1.4-0.3,1.8
					c0.1,0,0.2,0,0.4,0c0.4,0,0.8,0.1,1.1,0.2c0.3,0.2,0.5,0.8,0.5,1.8c0,0.5,0,0.9-0.2,1.1c-0.7,0.1-2,0.2-3.8,0.2
					c-1.9,0-3-0.1-3.1-0.3s-0.2-0.7-0.2-1.5c0-0.7,0.1-1.1,0.2-1.3c0.1-0.1,0.3-0.1,0.6-0.2c0.2-0.1,0.5-0.1,0.7-0.1
					c-0.1-0.9-0.1-1.5-0.1-1.8c0-0.5,0-0.9,0.1-1.2c-0.7,0.1-1.7,0.1-3,0.1c-1.7,0-2.6-0.1-2.9-0.1
					C840.8,3485.2,840.7,3484.6,840.7,3483.8z M844.5,3482.3c0.5,0,0.9-0.1,1.2-0.1c0.4,0,0.8,0,1.1,0.1c0-0.5,0-1.4,0.1-2.6
					C845.9,3480.6,845.1,3481.5,844.5,3482.3z"/>
				<path d="M858.5,3481.3c0-1.6,0.5-3,1.7-4c1.1-1.1,2.4-1.6,3.9-1.6c1.1,0,2.1,0.3,3,0.8c0.1-0.4,0.2-0.8,0.5-0.9
					c0.3-0.1,0.7-0.2,1.1-0.2c0.7,0,1.2,0.1,1.5,0.4c0.1,0.3,0.1,0.8,0.1,1.6c0,2-0.3,3.1-0.9,3.2c-0.2,0.1-0.5,0.1-0.8,0.1
					c-0.5,0-1-0.1-1.3-0.3c-0.1-0.2-0.1-0.5-0.1-0.7c-0.5-0.4-1.1-0.6-1.7-0.6c-0.7,0-1.2,0.2-1.7,0.7s-0.8,0.9-0.8,1.5
					c0,0.9,0.7,1.3,2,1.3c0.1,0,0.5,0,1.1,0s1,0,1.1,0c1,0,1.8,0.3,2.4,0.8s1,1.5,1,2.8c0,1.7-0.6,3.1-1.8,4.2
					c-1.2,1.1-2.7,1.6-4.5,1.6c-1,0-2-0.3-2.7-0.8c0,0.4-0.1,0.6-0.2,0.8c-0.3,0.1-0.7,0.2-1.3,0.2c-0.7,0-1.1-0.1-1.3-0.3
					c-0.1-0.6-0.1-1.1-0.1-1.6c0-1.4,0.3-2.6,1-3.8c0.3-0.1,0.5-0.1,0.8-0.1c0.5,0,1,0.1,1.2,0.4c0.1,0.2,0.1,0.5,0.2,0.9
					c0.4,0.5,1,0.8,1.8,0.8s1.4-0.1,1.9-0.4c0.5-0.3,0.7-0.7,0.7-1.2c0-0.3-0.1-0.5-0.2-0.6c-0.2-0.2-0.3-0.3-0.7-0.4
					c-0.4-0.1-0.5-0.1-0.8-0.1s-0.5-0.1-0.8-0.1c-0.4,0-0.7,0-0.9-0.1c-0.2,0-0.5-0.1-1-0.1s-0.8-0.2-1-0.3s-0.6-0.2-0.9-0.5
					c-0.3-0.2-0.6-0.4-0.8-0.7s-0.3-0.6-0.5-1C858.6,3482.3,858.5,3481.8,858.5,3481.3z"/>
				<path d="M871.8,3486.7c0-0.7,0.2-1.4,0.4-2.1c0.3-0.7,0.7-1.4,1.2-2.1c0.5-0.6,1.2-1.2,2.2-1.6c0.9-0.4,1.9-0.6,3-0.6
					c1.2,0,2.2,0.2,2.9,0.8c0.7,0.6,1,1.2,1,2.1c0,1.2-0.6,2.3-1.8,3.1s-2.5,1.2-3.9,1.2c-0.4,0-0.8,0-1.2-0.1c0,1.1,1,1.6,2.8,1.6
					c0.3,0,0.6,0,0.8-0.1c0-0.1,0-0.2,0.1-0.4c0.7-0.5,1.4-0.8,2.1-0.8c0.2,0,0.2,0,0.3,0c1,0.5,1.6,1.4,1.8,2.6
					c0,0.1-0.1,0.2-0.2,0.4s-0.2,0.2-0.3,0.4c-0.1,0.2-0.2,0.2-0.5,0.3c-0.3,0.1-0.3,0.2-0.5,0.3c-0.1,0.1-0.3,0.1-0.5,0.3
					s-0.3,0.2-0.4,0.2c-0.1,0-0.2,0-0.2,0s-0.1-0.1-0.2-0.1s-0.1-0.1-0.1-0.1s0-0.1-0.1-0.2c-0.1-0.1-0.1-0.1-0.1-0.1
					c-0.8,0.3-1.7,0.5-2.6,0.5c-2,0-3.6-0.5-4.7-1.6C872.4,3489.4,871.8,3488.1,871.8,3486.7z M876.2,3484.3c0,0.5,0.3,0.8,1.1,0.8
					c0.5,0,1-0.1,1.5-0.4s0.8-0.6,0.8-0.9c0-0.2-0.1-0.5-0.2-0.8c-0.2-0.3-0.5-0.4-0.8-0.4c-0.5,0-1,0.2-1.5,0.6
					C876.4,3483.5,876.2,3483.9,876.2,3484.3z"/>
				<path d="M884,3495.6c0-0.7,0-1.1,0.1-1.3c0.1-0.1,0.3-0.2,0.8-0.3c0.4-0.1,0.8-0.1,1.1-0.1c0.2,0,0.2,0,0.3,0c0-0.2,0-0.9,0-1.9
					s0-1.9,0-2.6c0-2.6,0.1-4.4,0.2-5.2c0,0-0.2,0-0.4,0c-0.5,0-1-0.1-1.5-0.1c-0.1-0.1-0.2-0.7-0.2-1.9c0-0.7,0-1.1,0.1-1.3
					c0.1-0.2,0.5-0.3,1-0.5c0.6-0.1,1.2-0.2,2-0.2c1.4,0,2.2,0,2.5,0.1c0.1,0.3,0.1,0.6,0.1,0.9c0,0.1,0,0.2,0,0.2
					c0.2-0.1,0.7-0.3,1.5-0.7c0.7-0.4,1.3-0.6,1.8-0.6c0.8,0,1.5,0.3,2.1,0.9s1.1,1.4,1.4,2.2c0.3,0.9,0.5,1.7,0.5,2.6
					c0,1.5-0.5,2.9-1.3,4.1c-0.9,1.2-2.1,1.8-3.6,1.8c-0.7,0-1.3-0.1-2-0.3c0,0,0,0.3,0,0.9c0,0.6,0,1.2,0,1.8c0,1.5,0,2.3-0.1,2.4
					c-0.5,0.5-1.6,0.7-3.2,0.7c-0.8,0-1.4-0.1-2-0.1c-0.5-0.1-0.8-0.1-1-0.2l-0.2-0.1C884,3496.7,884,3496.3,884,3495.6z
					 M889.9,3486.7c0,0.5,0.2,0.9,0.5,1.3s0.7,0.5,1.2,0.5c0.6,0,1.2-0.3,1.7-0.9c0.5-0.6,0.8-1.2,0.8-1.8c0-0.5-0.2-0.9-0.4-1.2
					c-0.3-0.4-0.7-0.5-1.1-0.5c-0.6,0-1.2,0.3-1.7,0.8C890.2,3485.4,889.9,3486,889.9,3486.7z"/>
				<path d="M897.7,3480.9c0-0.3,0-0.5,0.1-0.6c0.4-0.1,0.7-0.1,1-0.1c0.1,0,0.2,0,0.2,0c0.1,0,0.2,0,0.2,0h0.1v-4.2
					c1.2-0.1,1.8-0.1,2.1-0.1c0.5,0,1.2,0.1,2,0.1v4.2c1.3,0.1,2.1,0.1,2.4,0.3c0.2,0.2,0.3,0.9,0.3,2.1c0,0.3,0,0.5-0.1,0.6
					c-0.4,0.1-0.8,0.1-1,0.1h-0.2c-0.1,0-0.3,0-0.6,0s-0.6,0-1,0c0,0.1,0,0.6,0,1.6s0,1.6,0,1.6c0,0.6,0.1,1.1,0.4,1.4
					c0.2,0.3,0.6,0.4,1.1,0.4c0.2,0,0.3,0,0.3-0.1c0,0,0.1-0.1,0.1-0.3c0-0.1,0.2-0.2,0.6-0.3l1.5-0.4c0.2,0.4,0.2,0.9,0.2,1.5
					c0,1.1-0.1,1.9-0.3,2.1c0,0-0.2,0.1-0.3,0.2c-0.2,0.1-0.3,0.2-0.3,0.2s-0.2,0.1-0.3,0.1s-0.3,0.1-0.4,0.1s-0.3,0.1-0.5,0.1
					s-0.5,0.1-0.7,0.1s-0.5,0-0.9,0c-0.7,0-1.2,0-1.6-0.1s-0.8-0.2-1.2-0.4s-0.7-0.5-0.9-0.9c-0.2-0.4-0.4-0.9-0.5-1.6
					c-0.2-0.6-0.2-1.4-0.2-2.4c0-0.9,0-2,0-3.3c-0.7-0.1-1.1-0.2-1.3-0.3C897.7,3482.7,897.7,3482,897.7,3480.9z"/>
				<path d="M908.2,3486.7c0-0.7,0.2-1.4,0.4-2.1c0.3-0.7,0.7-1.4,1.2-2.1c0.5-0.6,1.2-1.2,2.2-1.6c0.9-0.4,1.9-0.6,3-0.6
					c1.2,0,2.2,0.2,2.9,0.8c0.7,0.6,1,1.2,1,2.1c0,1.2-0.6,2.3-1.8,3.1s-2.5,1.2-3.9,1.2c-0.4,0-0.8,0-1.2-0.1c0,1.1,1,1.6,2.8,1.6
					c0.3,0,0.6,0,0.8-0.1c0-0.1,0-0.2,0.1-0.4c0.7-0.5,1.4-0.8,2.1-0.8c0.2,0,0.2,0,0.3,0c1,0.5,1.6,1.4,1.8,2.6
					c0,0.1-0.1,0.2-0.2,0.4s-0.2,0.2-0.3,0.4c-0.1,0.2-0.2,0.2-0.5,0.3c-0.3,0.1-0.3,0.2-0.5,0.3c-0.1,0.1-0.3,0.1-0.5,0.3
					s-0.3,0.2-0.4,0.2c-0.1,0-0.2,0-0.2,0s-0.1-0.1-0.2-0.1s-0.1-0.1-0.1-0.1s0-0.1-0.1-0.2c-0.1-0.1-0.1-0.1-0.1-0.1
					c-0.8,0.3-1.7,0.5-2.6,0.5c-2,0-3.6-0.5-4.7-1.6C908.7,3489.4,908.2,3488.1,908.2,3486.7z M912.6,3484.3c0,0.5,0.3,0.8,1.1,0.8
					c0.5,0,1-0.1,1.5-0.4s0.8-0.6,0.8-0.9c0-0.2-0.1-0.5-0.2-0.8c-0.2-0.3-0.5-0.4-0.8-0.4c-0.5,0-1,0.2-1.5,0.6
					C912.8,3483.5,912.6,3483.9,912.6,3484.3z"/>
				<path d="M920.8,3490.1c0-0.9,0.2-1.5,0.6-1.8c0.2-0.1,0.4-0.2,0.6-0.2c0.1,0,0.2,0,0.3,0.1c0-0.4,0-1.1,0-2.1c0-0.9,0-1.7,0-2.2
					c0,0-0.2,0-0.3,0.1s-0.2,0.1-0.3,0.1c0,0-0.2,0-0.3-0.1c-0.1,0-0.2-0.1-0.3-0.1c0-0.1-0.1-0.2-0.1-0.5c0-0.4,0-0.9,0.2-1.5
					c0.1-0.6,0.2-1,0.3-1.1c0.2-0.1,0.5-0.2,1-0.3s1.1-0.1,1.7-0.1c0.7,0,1.3,0.1,1.8,0.3c0.1,0.1,0.2,0.3,0.2,0.6
					c0,0.1,0,0.3-0.1,0.8c1.6-1.2,3-1.8,4.4-1.8c1.5,0,2.5,0.6,3.2,1.8c1.8-1.2,3.3-1.8,4.7-1.8c1.2,0,2.1,0.4,2.8,1.3
					c0.7,0.9,1.1,2.1,1.1,3.8c0,0.2,0,1.1-0.2,2.4c0,0,0.1-0.1,0.2-0.1c0.2,0,0.5,0,1,0.1c0.1,0.1,0.2,0.6,0.2,1.5
					c0,1.1-0.1,1.7-0.2,1.9c-1.1,0.3-2.2,0.4-3.1,0.4c-1,0-1.9-0.1-2.7-0.4c-0.1-0.1-0.2-0.4-0.3-0.8c-0.1-0.5-0.2-0.9-0.2-1.2
					c0-0.5,0.1-0.9,0.4-1.3c0.2-0.1,0.4-0.1,0.6-0.1c0.1,0,0.1,0,0.2,0s0.1,0,0.1,0.1l0.1,0.1c0.1-0.4,0.1-0.9,0.1-1.2
					c0-0.9-0.2-1.5-0.6-2c-0.4-0.4-0.9-0.7-1.5-0.7c-0.4,0-0.8,0.1-1.2,0.4c-0.4,0.2-0.7,0.6-0.9,1.1c0,1.1-0.1,1.8-0.1,2.2
					c0,0,0.1-0.1,0.2-0.1c0.2,0,0.5,0,1,0.1c0.1,0.1,0.2,0.6,0.2,1.5c0,1.1-0.1,1.7-0.2,1.9c-1.1,0.3-2.2,0.4-3.1,0.4
					c-1,0-1.9-0.1-2.7-0.4c-0.1-0.1-0.2-0.4-0.3-0.8c-0.1-0.5-0.2-0.9-0.2-1.2c0-0.5,0.1-0.9,0.4-1.3c0.2-0.1,0.4-0.1,0.6-0.1
					c0.1,0,0.1,0,0.2,0s0.1,0,0.1,0.1l0.1,0.1c0-0.4,0.1-0.6,0.1-0.9c0-1-0.2-1.8-0.6-2.3c-0.4-0.5-0.9-0.8-1.5-0.8
					s-1.2,0.2-1.6,0.8c-0.4,0.6-0.7,1.2-0.7,2.1c0,0.4,0,0.8,0.1,1.2c0.2-0.1,0.4-0.1,0.7-0.1s0.4,0.1,0.5,0.1
					c0.2,0,0.2,0.3,0.2,0.9c0,0.1-0.1,0.8-0.2,1.9c-1.1,0.5-2.5,0.8-4,0.8c-1.4,0-2.3-0.2-2.7-0.6
					C920.9,3490.8,920.8,3490.5,920.8,3490.1z"/>
				<path d="M944.2,3476.3c0-0.7,0-1.1,0.1-1.2l0.2-0.1c0.1-0.1,0.4-0.1,0.9-0.2c0.5-0.1,1.1-0.1,1.9-0.1c1.7,0,2.8,0.2,3.3,0.7
					c0.1,0.1,0.1,0.9,0.1,2.4c0,0.6,0,1.2,0,1.8c0,0.6,0,0.9,0,0.9c0.6-0.2,1.3-0.3,2-0.3c1.6,0,2.8,0.6,3.7,1.8s1.4,2.6,1.4,4.1
					c0,0.9-0.2,1.7-0.5,2.6c-0.3,0.9-0.8,1.6-1.5,2.3c-0.7,0.6-1.4,0.9-2.2,0.9c-0.5,0-1.1-0.2-1.8-0.6c-0.7-0.4-1.2-0.6-1.5-0.7
					c0,0,0,0.1,0,0.2c0,0.2,0,0.5-0.1,0.8c-0.3,0.1-1.2,0.1-2.6,0.1c-0.7,0-1.3-0.1-1.9-0.2c-0.5-0.1-0.9-0.3-1-0.4
					c0-0.2-0.1-0.6-0.1-1.2c0-1.1,0-1.8,0.2-1.9c0.5-0.1,0.9-0.1,1.4-0.1c0.2,0,0.4,0,0.4,0c-0.2-0.9-0.2-2.6-0.2-5.4
					c0-0.7,0-1.6,0-2.6s0-1.6,0-1.9c-0.2,0-0.3,0.1-0.5,0.1c-0.3,0-0.7,0-1-0.1c-0.4-0.1-0.6-0.2-0.7-0.3
					C944.2,3477.4,944.2,3477,944.2,3476.3z M950.2,3485.2c0,0.7,0.3,1.4,0.8,1.9s1.1,0.8,1.7,0.8c0.5,0,0.8-0.2,1.1-0.5
					c0.3-0.4,0.4-0.8,0.4-1.2c0-0.6-0.2-1.3-0.7-1.9c-0.5-0.6-1-0.9-1.7-0.9c-0.5,0-0.9,0.2-1.2,0.5
					C950.4,3484.3,950.2,3484.7,950.2,3485.2z"/>
				<path d="M958.2,3486.7c0-0.7,0.2-1.4,0.4-2.1c0.3-0.7,0.7-1.4,1.2-2.1c0.5-0.6,1.2-1.2,2.2-1.6c0.9-0.4,1.9-0.6,3-0.6
					c1.2,0,2.2,0.2,2.9,0.8c0.7,0.6,1,1.2,1,2.1c0,1.2-0.6,2.3-1.8,3.1s-2.5,1.2-3.9,1.2c-0.4,0-0.8,0-1.2-0.1c0,1.1,1,1.6,2.8,1.6
					c0.3,0,0.6,0,0.8-0.1c0-0.1,0-0.2,0.1-0.4c0.7-0.5,1.4-0.8,2.1-0.8c0.2,0,0.2,0,0.3,0c1,0.5,1.6,1.4,1.8,2.6
					c0,0.1-0.1,0.2-0.2,0.4s-0.2,0.2-0.3,0.4c-0.1,0.2-0.2,0.2-0.5,0.3c-0.3,0.1-0.3,0.2-0.5,0.3c-0.1,0.1-0.3,0.1-0.5,0.3
					s-0.3,0.2-0.4,0.2c-0.1,0-0.2,0-0.2,0s-0.1-0.1-0.2-0.1s-0.1-0.1-0.1-0.1s0-0.1-0.1-0.2c-0.1-0.1-0.1-0.1-0.1-0.1
					c-0.8,0.3-1.7,0.5-2.6,0.5c-2,0-3.6-0.5-4.7-1.6C958.8,3489.4,958.2,3488.1,958.2,3486.7z M962.6,3484.3c0,0.5,0.3,0.8,1.1,0.8
					c0.5,0,1-0.1,1.5-0.4s0.8-0.6,0.8-0.9c0-0.2-0.1-0.5-0.2-0.8c-0.2-0.3-0.5-0.4-0.8-0.4c-0.5,0-1,0.2-1.5,0.6
					C962.9,3483.5,962.6,3483.9,962.6,3484.3z"/>
				<path d="M970.9,3481.8c0-0.7,0-1.1,0.1-1.3c0.6-0.3,1.7-0.4,3.4-0.4c0.6,0,1.1,0.1,1.4,0.1s0.6,0.2,0.9,0.5c0,0.2,0,0.6,0,1.1
					l0.1-0.2c0-0.1,0.2-0.3,0.3-0.4c0.1-0.1,0.3-0.4,0.5-0.5c0.2-0.2,0.4-0.3,0.8-0.4c0.3-0.1,0.7-0.2,1.1-0.2
					c1.2,0,2.1,0.5,2.9,1.5c-0.3,1.4-1.2,2.4-2.5,2.9c-0.5-0.4-1-0.6-1.5-0.6c-0.6,0-1,0.3-1.4,0.9c-0.3,0.6-0.5,1.3-0.5,2.2
					c0,0.3,0,0.6,0,1c0.1,0,0.3,0.1,0.8,0.1l0.2,0.1c0.2,0.2,0.3,0.6,0.3,1.2c0,0.4,0,0.9-0.2,1.4c-0.1,0.4-0.3,0.8-0.5,1
					c-0.3,0.1-1.1,0.1-2.4,0.1c-0.8,0-1.5-0.1-2.3-0.2c-0.8-0.1-1.2-0.3-1.3-0.4c0-0.2-0.1-0.6-0.1-1.2c0-1.2,0-1.8,0.2-1.9
					c0.6-0.1,1-0.2,1.2-0.2s0.4,0,0.5,0.1c-0.2-0.2-0.4-1.3-0.4-3.2c0-0.7,0-1.1,0.1-1.1c-0.2,0-0.3,0.1-0.5,0.1
					c-0.5,0-0.9-0.1-1.1-0.4C971,3482.9,970.9,3482.5,970.9,3481.8z"/>
				<path d="M826.4,3505c0-0.7,0.1-1.1,0.4-1.3c0.1-0.2,0.6-0.4,1.3-0.6c0.8-0.1,1.5-0.2,2.4-0.2s1.5,0.1,1.8,0.2
					c0.1,0.3,0.1,0.6,0.1,0.8c0,0.1,0,0.2,0,0.2c0.2-0.1,0.7-0.3,1.5-0.7c0.8-0.4,1.5-0.6,2-0.6c0.8,0,1.5,0.3,2.1,1
					c0.6,0.6,1.1,1.4,1.4,2.3c0.3,0.9,0.4,1.8,0.4,2.6c0,1.5-0.4,2.7-1.3,3.7c-0.8,1-2,1.5-3.5,1.5c-0.8,0-1.5-0.1-2.2-0.3
					c0,0.1,0,0.3,0,0.5c0,0.6,0,1.1-0.1,1.7c0.1,0,0.3,0,0.7,0c0.2,0,0.5,0,0.8,0.1c0.3,0.1,0.5,0.2,0.5,0.3c0.2,0.1,0.4,0.5,0.4,1
					s-0.1,0.8-0.4,1c-0.1,0.3-1.5,0.5-4,0.5c-1,0-2,0-2.8-0.1c-0.8-0.1-1.3-0.2-1.3-0.3c-0.2-0.2-0.3-0.5-0.3-1s0.1-0.8,0.3-1.1
					c0.1-0.1,0.2-0.2,0.5-0.3c0.2-0.1,0.5-0.1,0.8-0.1c0.2,0,0.3,0,0.3,0c0-0.2,0-0.7,0-1.4c0-0.7,0-1.4,0-2.1
					c0-2.7,0.1-4.4,0.2-5.3c0,0-0.2,0-0.4,0c-0.3,0-0.8,0-1.2-0.1C826.6,3506.4,826.4,3505.8,826.4,3505z M832.8,3509
					c0,0.5,0.1,0.9,0.4,1.1c0.2,0.2,0.6,0.4,1,0.4c0.5,0,1-0.2,1.5-0.7s0.7-1,0.7-1.7c0-0.4-0.1-0.8-0.3-1.1s-0.5-0.4-0.9-0.4
					c-0.6,0-1.2,0.2-1.7,0.8C833,3508,832.8,3508.4,832.8,3509z"/>
				<path d="M841.1,3508.8c0-0.7,0-1.1,0.1-1.3c0.6-0.3,1.7-0.4,3.4-0.4c0.6,0,1.1,0.1,1.4,0.1c0.3,0.1,0.6,0.2,0.9,0.5
					c0,0.2,0,0.6,0,1.1l0.1-0.2c0-0.1,0.2-0.3,0.3-0.5c0.1-0.2,0.3-0.4,0.5-0.5c0.2-0.1,0.4-0.3,0.8-0.4c0.3-0.1,0.7-0.2,1.1-0.2
					c1.2,0,2.1,0.5,2.9,1.5c-0.3,1.4-1.2,2.4-2.5,3c-0.5-0.4-1-0.6-1.5-0.6c-0.6,0-1,0.3-1.4,0.9c-0.3,0.6-0.5,1.3-0.5,2.2
					c0,0.3,0,0.6,0,1c0.1,0,0.3,0,0.8,0.1h0.2c0.2,0.2,0.3,0.5,0.3,1.2c0,0.5,0,0.9-0.2,1.4s-0.3,0.8-0.5,1c-0.3,0-1.1,0.1-2.4,0.1
					c-0.8,0-1.5-0.1-2.3-0.2c-0.8-0.1-1.2-0.3-1.3-0.5c0-0.2-0.1-0.6-0.1-1.2c0-1.2,0-1.8,0.2-1.9c0.6-0.1,1-0.2,1.2-0.2
					s0.4,0,0.5,0.1c-0.2-0.2-0.4-1.3-0.4-3.2c0-0.7,0-1,0.1-1.1c-0.2,0-0.3,0.1-0.5,0.1c-0.5,0-0.9-0.1-1.1-0.4
					C841.1,3509.9,841.1,3509.5,841.1,3508.8z"/>
				<path d="M852.4,3513.7c0-0.7,0.2-1.4,0.4-2.1c0.3-0.7,0.7-1.4,1.2-2.1c0.5-0.6,1.2-1.2,2.2-1.6c0.9-0.4,1.9-0.6,3-0.6
					c1.2,0,2.2,0.2,2.9,0.8c0.7,0.6,1,1.2,1,2.1c0,1.2-0.6,2.3-1.8,3.1s-2.5,1.2-3.9,1.2c-0.4,0-0.8,0-1.2-0.1c0,1.1,1,1.6,2.8,1.6
					c0.3,0,0.6,0,0.8-0.1c0-0.1,0-0.2,0.1-0.4c0.7-0.5,1.4-0.8,2.1-0.8c0.2,0,0.2,0,0.3,0c1,0.5,1.6,1.4,1.8,2.6
					c0,0.1-0.1,0.2-0.2,0.4s-0.2,0.2-0.3,0.4c-0.1,0.2-0.2,0.2-0.5,0.3c-0.3,0.1-0.3,0.2-0.5,0.3c-0.2,0.1-0.3,0.1-0.5,0.3
					s-0.3,0.2-0.4,0.2c-0.1,0-0.2,0-0.2,0s-0.1,0-0.2-0.1l-0.1-0.1c0,0,0-0.1-0.1-0.2c0-0.1-0.1-0.1-0.1-0.1
					c-0.8,0.3-1.7,0.5-2.6,0.5c-2,0-3.6-0.5-4.7-1.5C852.9,3516.4,852.4,3515.1,852.4,3513.7z M856.8,3511.3c0,0.5,0.3,0.8,1.1,0.8
					c0.5,0,1-0.1,1.5-0.4s0.8-0.6,0.8-0.9c0-0.2-0.1-0.5-0.2-0.8c-0.2-0.3-0.5-0.4-0.8-0.4c-0.5,0-1,0.2-1.5,0.5
					C857,3510.5,856.8,3510.9,856.8,3511.3z"/>
				<path d="M864.7,3517.9c0-0.4,0.1-0.9,0.2-1.3c0.1-0.4,0.3-0.8,0.7-1.2c0.4-0.4,0.7-0.5,1.2-0.5c0.4,0,0.8,0.1,1.2,0.2
					c0.5,0.1,0.7,0.4,0.7,0.6c0,0,0,0.1,0,0.2c0.5,0.1,0.9,0.2,1.1,0.2c0.3,0,0.7-0.1,0.9-0.4c0.2-0.3,0.4-0.5,0.4-0.9
					s-0.2-0.6-0.4-0.8c-0.3-0.2-0.6-0.3-1-0.3s-0.9,0-1.4-0.1s-1-0.2-1.4-0.3c-0.4-0.1-0.8-0.4-1-0.8c-0.3-0.4-0.4-1-0.4-1.7
					c0-0.9,0.2-1.7,0.8-2.3c0.5-0.6,1.1-1,1.8-1.2s1.5-0.3,2.3-0.3c0.7,0,1.4,0.1,2.2,0.2c0.2-0.3,0.3-0.4,0.5-0.5
					c1.1,0.1,1.8,0.5,2.2,1.2c0,0.4-0.1,0.9-0.2,1.3c-0.1,0.4-0.3,0.8-0.7,1.2c-0.4,0.4-0.7,0.6-1.2,0.6c-0.4,0-0.8-0.1-1.2-0.2
					c-0.4-0.1-0.7-0.4-0.7-0.6c0-0.1,0-0.1,0-0.2c-0.3-0.1-0.7-0.2-0.8-0.2c-0.3,0-0.7,0.1-0.9,0.4c-0.2,0.2-0.4,0.5-0.4,0.8
					c0,0.4,0.2,0.6,0.7,0.8c0.4,0.2,1,0.3,1.5,0.3c0.6,0,1.2,0.1,1.8,0.3c0.6,0.1,1.1,0.4,1.6,0.8c0.5,0.4,0.7,1,0.7,1.8
					c0,1.3-0.5,2.3-1.7,3c-1.1,0.7-2.4,1-4,1c-0.7,0-1.5-0.1-2.3-0.2c-0.2,0.3-0.3,0.4-0.5,0.5
					C865.8,3519,865.1,3518.6,864.7,3517.9z"/>
				<path d="M876.5,3513.9c0-1.1,0.2-2.1,0.5-3.1s0.8-1.8,1.6-2.5c0.7-0.7,1.6-1.1,2.6-1.1c0.4,0,0.8,0.1,1.1,0.2
					c0.3,0.1,0.6,0.3,0.8,0.4c0.2,0.2,0.3,0.4,0.5,0.5c0.1,0.2,0.2,0.3,0.2,0.5l0.1,0.2c0-0.5,0-0.9,0-1.1c0.5-0.4,1.4-0.6,2.7-0.6
					c0.5,0,0.8,0,1.2,0.1c0.3,0,0.6,0.1,0.8,0.1s0.3,0.1,0.5,0.1c0.1,0,0.2,0.1,0.2,0.1l0,0c0,0.1,0.1,0.5,0.1,1.3s0,1.1-0.1,1.3
					c-0.2,0.3-0.6,0.4-1.1,0.4c-0.2,0-0.3,0-0.5,0c0,0.1,0.1,0.4,0.1,1c0,1.9-0.1,3-0.2,3.1c0.1,0,0.2-0.1,0.4-0.1s0.6,0.1,1.2,0.3
					c0.1,0.1,0.2,0.8,0.2,2c0,0.6,0,1.1-0.1,1.2c-0.1,0.2-0.4,0.3-1,0.5s-1.2,0.2-1.8,0.2c-1.8,0-2.8,0-3-0.1
					c-0.1-0.3-0.2-0.5-0.2-0.7c0-0.1,0-0.2,0.1-0.3c-0.2,0.1-0.7,0.3-1.5,0.7s-1.3,0.6-1.7,0.6c-1.2,0-2-0.5-2.6-1.5
					C876.8,3516.5,876.5,3515.3,876.5,3513.9z M879.5,3513.5c0,0.5,0.2,1,0.4,1.3c0.3,0.4,0.7,0.5,1.1,0.5c0.6,0,1.2-0.3,1.7-0.9
					c0.5-0.5,0.8-1.2,0.8-1.9c0-0.5-0.2-0.9-0.5-1.2s-0.7-0.5-1.2-0.5s-0.9,0.1-1.2,0.4c-0.4,0.3-0.7,0.7-0.9,1.1
					C879.6,3512.8,879.5,3513.1,879.5,3513.5z"/>
				<path d="M890.4,3516.7c0-0.7,0-1.1,0.1-1.2s0.4-0.1,0.8-0.2c0.3,0,0.5-0.1,0.5-0.1c-0.2-0.9-0.2-2.3-0.2-4.4
					c0-2.4,0.1-4.5,0.2-6.4c-0.5,0-0.8,0-1-0.1c0-0.3,0-0.5,0-0.7c0-0.6,0.2-1.2,0.5-1.7c0.7-0.1,1.5-0.2,2.6-0.2
					c0.8,0,1.5,0.1,1.9,0.2c0.2,1.4,0.2,2.9,0.2,4.4c0,1.1,0,2.7-0.2,4.7c-0.1,2-0.2,3.5-0.2,4.2c0.1,0,0.2,0,0.4,0
					c0.4,0,0.8,0.1,1.1,0.2c0,0,0.1,0.2,0.1,0.4c0,0.3-0.1,0.8-0.2,1.4c-0.1,0.6-0.2,1-0.3,1.1c-0.2,0.1-1.1,0.2-2.5,0.2
					c-2.1,0-3.3-0.2-3.7-0.6C890.5,3517.9,890.4,3517.5,890.4,3516.7z"/>
				<path d="M898.1,3513.7c0-0.7,0.2-1.4,0.4-2.1c0.3-0.7,0.7-1.4,1.2-2.1c0.5-0.6,1.2-1.2,2.2-1.6c0.9-0.4,1.9-0.6,3-0.6
					c1.2,0,2.2,0.2,2.9,0.8c0.7,0.6,1,1.2,1,2.1c0,1.2-0.6,2.3-1.8,3.1s-2.5,1.2-3.9,1.2c-0.4,0-0.8,0-1.2-0.1c0,1.1,1,1.6,2.8,1.6
					c0.3,0,0.6,0,0.8-0.1c0-0.1,0-0.2,0.1-0.4c0.7-0.5,1.4-0.8,2.1-0.8c0.2,0,0.2,0,0.3,0c1,0.5,1.6,1.4,1.8,2.6
					c0,0.1-0.1,0.2-0.2,0.4s-0.2,0.2-0.3,0.4c-0.1,0.2-0.2,0.2-0.5,0.3c-0.3,0.1-0.3,0.2-0.5,0.3c-0.1,0-0.3,0.1-0.5,0.3
					s-0.3,0.2-0.4,0.2c-0.1,0-0.2,0-0.2,0s-0.1,0-0.2-0.1l-0.1-0.1c0,0,0-0.1-0.1-0.2c0-0.1-0.1-0.1-0.1-0.1
					c-0.8,0.3-1.7,0.5-2.6,0.5c-2,0-3.6-0.5-4.7-1.5C898.6,3516.4,898.1,3515.1,898.1,3513.7z M902.4,3511.3c0,0.5,0.3,0.8,1.1,0.8
					c0.5,0,1-0.1,1.5-0.4s0.8-0.6,0.8-0.9c0-0.2-0.1-0.5-0.2-0.8c-0.2-0.3-0.5-0.4-0.8-0.4c-0.5,0-1,0.2-1.5,0.5
					C902.7,3510.5,902.4,3510.9,902.4,3511.3z"/>
				<path d="M915.3,3504.9c0-1,0.1-1.6,0.3-1.9c0.5-0.1,1.7-0.2,3.7-0.2c2.2,0,3.4,0.1,3.6,0.2c0.2,0.4,0.3,1,0.3,2
					c0,0.4,0,0.6-0.1,0.7c-0.3,0.1-0.7,0.2-1.2,0.2c-0.3,0-0.5,0-0.8-0.1c0,0.9-0.1,1.9-0.1,3c0,2.2,0.2,4.3,0.8,6.1
					c0,0.1,0.5,0.2,1.5,0.2c0.8,0,1.4-0.1,1.7-0.3l-0.1-1.4c0.8-0.5,1.6-0.7,2.4-0.7c0.3,0,0.6,0.1,1,0.1c0.4,1.1,0.5,2.2,0.5,3.3
					c0,0.9-0.1,1.5-0.2,1.9c-0.6,0.2-1.7,0.4-3.4,0.5c-1.7,0.2-3.2,0.2-4.7,0.2c-2.3,0-4-0.2-4.9-0.7c-0.1-0.2-0.2-0.4-0.2-0.8
					c0-1.4,0.2-2.2,0.6-2.4c0.2-0.1,0.4-0.2,0.6-0.2c0,0,0.2,0,0.3,0c-0.2-2.8-0.3-4.7-0.3-5.7c0-0.5,0.1-1.6,0.2-3.4
					c-0.2,0.1-0.5,0.1-0.7,0.1c-0.3,0-0.6,0-0.8-0.1C915.3,3505.5,915.3,3505.3,915.3,3504.9z"/>
				<path d="M929.7,3513.9c0-1.1,0.2-2.1,0.5-3.1s0.8-1.8,1.6-2.5c0.7-0.7,1.6-1.1,2.6-1.1c0.4,0,0.8,0.1,1.1,0.2
					c0.3,0.1,0.6,0.3,0.8,0.4c0.2,0.2,0.3,0.4,0.5,0.5c0.1,0.2,0.2,0.3,0.2,0.5l0.1,0.2c0-0.5,0-0.9,0-1.1c0.5-0.4,1.4-0.6,2.7-0.6
					c0.5,0,0.8,0,1.2,0.1c0.3,0,0.6,0.1,0.8,0.1s0.3,0.1,0.5,0.1c0.1,0,0.2,0.1,0.2,0.1l0,0c0,0.1,0.1,0.5,0.1,1.3s0,1.1-0.1,1.3
					c-0.2,0.3-0.6,0.4-1.1,0.4c-0.2,0-0.3,0-0.5,0c0,0.1,0.1,0.4,0.1,1c0,1.9-0.1,3-0.2,3.1c0.1,0,0.2-0.1,0.4-0.1s0.6,0.1,1.2,0.3
					c0.1,0.1,0.2,0.8,0.2,2c0,0.6,0,1.1-0.1,1.2c-0.1,0.2-0.4,0.3-1,0.5s-1.2,0.2-1.8,0.2c-1.8,0-2.8,0-3-0.1
					c-0.1-0.3-0.2-0.5-0.2-0.7c0-0.1,0-0.2,0.1-0.3c-0.2,0.1-0.7,0.3-1.5,0.7s-1.3,0.6-1.7,0.6c-1.2,0-2-0.5-2.6-1.5
					C929.9,3516.5,929.7,3515.3,929.7,3513.9z M932.7,3513.5c0,0.5,0.2,1,0.4,1.3c0.3,0.4,0.7,0.5,1.1,0.5c0.6,0,1.2-0.3,1.7-0.9
					c0.5-0.5,0.8-1.2,0.8-1.9c0-0.5-0.2-0.9-0.5-1.2s-0.7-0.5-1.2-0.5s-0.9,0.1-1.2,0.4c-0.4,0.3-0.7,0.7-0.9,1.1
					C932.7,3512.8,932.7,3513.1,932.7,3513.5z"/>
				<path d="M943.4,3509.8c0-1,0.1-1.6,0.2-1.9c1.1-0.3,2.2-0.5,3.1-0.5c1,0,1.9,0.1,2.7,0.4c0.1,0.1,0.2,0.4,0.3,0.8
					c0.1,0.5,0.2,0.9,0.2,1.2c0,0.5-0.1,0.9-0.4,1.3c-0.2,0.1-0.4,0.1-0.6,0.1c-0.1,0-0.1,0-0.2,0s-0.1,0-0.1-0.1h-0.1
					c-0.1,0.4-0.1,0.9-0.1,1.2c0,0.9,0.2,1.5,0.7,2c0.4,0.5,1,0.7,1.6,0.7s1.1-0.3,1.6-0.8s0.7-1.2,0.7-2.2c0-0.4,0-0.8-0.1-1.2
					c-0.2,0.1-0.4,0.2-0.7,0.2c-0.2,0-0.3-0.1-0.3-0.1c-0.2-0.1-0.3-0.6-0.3-1.4s0.1-1.2,0.3-1.4c1-0.5,2.3-0.8,3.7-0.8
					c1.6,0,2.6,0.2,2.9,0.6c0.2,0.2,0.2,0.6,0.2,1c0,0.9-0.2,1.4-0.7,1.6c-0.2,0.1-0.4,0.2-0.6,0.2c-0.1,0-0.2,0-0.3,0
					c0,0.4,0,1.1,0,2.1s0,1.7,0,2.2c0.5,0,0.7,0,0.8,0c0.2,0,0.3,0,0.4,0c0.1,0,0.1,0.2,0.1,0.5c0,0.4-0.1,0.9-0.2,1.5
					c-0.2,0.6-0.3,1-0.4,1.1c-0.2,0.1-0.5,0.2-1.2,0.3c-0.6,0.1-1.2,0.2-1.8,0.2c-0.7,0-1.2-0.1-1.6-0.3c-0.1-0.1-0.2-0.3-0.2-0.6
					c0,0,0-0.3,0.1-0.8c-1.6,1.2-3.1,1.8-4.5,1.8c-1.2,0-2.2-0.4-2.8-1.2c-0.7-0.9-1.1-2.1-1.1-3.9c0-0.3,0-1.1,0.2-2.5
					c0,0-0.1,0.1-0.2,0.1c-0.2,0-0.5,0-1-0.1C943.5,3511.1,943.4,3510.6,943.4,3509.8z"/>
				<path d="M959.7,3513.5c0-2.1,0.7-3.6,2-4.7c1.3-1.1,3.2-1.6,5.8-1.6l0.2-0.6c0.4-0.1,0.8-0.1,1.2-0.1c0.9,0,1.7,0.2,2.4,0.8
					c0,0.2,0.1,0.5,0.1,0.9c0,0.8-0.1,1.4-0.4,2c-0.2,0.5-0.6,0.9-1,1c-0.7,0.2-1.2,0.4-1.8,0.4c-0.5,0-1-0.1-1.5-0.4l0.2-0.8
					c-0.3-0.1-0.7-0.2-1-0.2c-0.7,0-1.2,0.3-1.7,1s-0.7,1.3-0.7,2.1c0,0.6,0.2,1.2,0.5,1.7s0.7,0.8,1.1,0.8c0.4,0,0.9-0.2,1.5-0.5
					l-0.2-0.6c0.7-0.5,1.5-0.8,2.4-0.8c0.3,0,0.7,0,1.2,0.1c0.9,1,1.4,2.2,1.4,3.6c0,0.3,0,0.6-0.1,0.9c-0.8,0.5-1.8,0.8-2.8,0.8
					c-0.2,0-0.4,0-0.7,0l-0.2-0.6c-1,0.2-1.9,0.3-2.7,0.3c-1.6,0-2.9-0.5-3.8-1.3C960.2,3516.7,959.7,3515.4,959.7,3513.5z"/>
				<path d="M971.8,3504.2c0-1.1,0.2-1.8,0.6-2c0.5-0.3,1.4-0.4,2.8-0.4c0.7,0,1.5,0.1,2.3,0.3c0.3,0.5,0.5,1.8,0.5,3.9
					c0,1.5-0.1,2.5-0.2,3c1.6-1.2,3.1-1.8,4.5-1.8c1.2,0,2.1,0.4,2.8,1.3s1.1,2.1,1.1,3.9c0,0.3,0,1.1-0.2,2.5c0,0,0.1,0,0.2,0
					c0.2,0,0.6,0,1,0.1c0.1,0.1,0.2,0.6,0.2,1.5c0,1-0.1,1.7-0.2,2c-1.1,0.2-2.2,0.4-3.1,0.4c-1,0-1.9-0.1-2.7-0.3
					c-0.1-0.1-0.2-0.4-0.3-0.8c-0.1-0.5-0.2-0.9-0.2-1.2c0-0.5,0.1-0.9,0.4-1.3c0.2-0.1,0.4-0.1,0.6-0.1c0.1,0,0.1,0,0.2,0
					s0.1,0,0.1,0h0.1c0.1-0.5,0.1-0.9,0.1-1.2c0-0.9-0.2-1.5-0.6-2s-0.9-0.7-1.5-0.7s-1.2,0.3-1.6,0.8c-0.5,0.6-0.7,1.3-0.7,2.2
					c0,0.4,0,0.8,0.1,1.2c0.2-0.1,0.4-0.2,0.6-0.2s0.4,0,0.5,0.1c0.1,0,0.2,0.3,0.2,0.9c0,0.1-0.1,0.8-0.2,1.9
					c-1.1,0.5-2.3,0.7-3.8,0.7c-1.7,0-2.6-0.2-2.9-0.6c-0.1-0.2-0.2-0.4-0.2-0.8c0-1.1,0.2-1.7,0.6-1.9c0.2-0.1,0.5-0.2,0.8-0.2
					c0.1,0,0.2,0,0.3,0c-0.2-1-0.2-3.1-0.2-6.1c0-2,0-3.3,0.2-3.8c-0.2,0.1-0.6,0.1-1.1,0.1c-0.3,0-0.7,0-0.9-0.1
					C971.8,3505.1,971.8,3504.8,971.8,3504.2z"/>
			</g>
		</g>
	</g>
	<g id="Step-4">
		<g>
			<path class="st0" d="M953.6,2769.7c0.1-0.5-0.3-1-0.8-1c-1.8-0.2-3.2-0.6-4.2-1c-0.4-0.2-2.6-1.1-5.1-1.5c-0.4-0.1-0.8-0.1-1.4,0
				c-1.1,0.2-2.5,0.9-3.1,2.2c-0.6,1.4,0.1,2.8,0.3,3.2c1.9,3.7,10.2,3.4,12.8,3.2c0.4-0.1,0.8-0.4,0.8-0.8
				C953.2,2772.5,953.5,2771.1,953.6,2769.7z"/>
			<path class="st0" d="M959.2,2773.7c0.6-0.9,0.9-2.1,0.3-3.2c-0.6-1.3-2.2-2-4-1.8c-0.4,0.1-0.8,0.4-0.8,0.8l-0.6,4.4
				c-0.1,0.5,0.3,1,0.7,1.1C956.6,2775.4,958.3,2774.9,959.2,2773.7z"/>
		</g>
		<g>
			<path class="st0" d="M986.4,2767.7c0.1-0.4-0.2-0.8-0.6-1c-2.4-0.9-10.3-3.6-13.2-0.6c-0.3,0.3-1.4,1.5-1.2,3
				c0.1,1.4,1.3,2.5,2.3,3c0.5,0.3,0.9,0.3,1.3,0.4c2.5,0.3,4.8,0.1,5.3,0c1-0.1,2.5-0.1,4.3,0.2c0.5,0.1,1-0.2,1-0.8
				C986,2770.6,986.1,2769.2,986.4,2767.7z"/>
			<path class="st0" d="M988.5,2767.3c-0.5,0-0.9,0.3-1,0.8l-0.7,4.4c-0.1,0.4,0.2,0.8,0.5,1c1.6,0.7,3.3,0.5,4.3-0.6
				c0.8-0.9,0.9-2.2,0.6-3.2C991.7,2768.4,990.2,2767.4,988.5,2767.3z"/>
		</g>
	</g>
	<g id="Step-3">
		<g>
			<path class="st0" d="M1015.7,1966.9c0-0.5-0.4-0.9-0.9-0.9c-1.8,0.1-3.3-0.1-4.3-0.3c-0.5-0.1-2.8-0.6-5.3-0.6
				c-0.4,0-0.9,0-1.4,0.2c-1,0.4-2.3,1.3-2.6,2.7c-0.4,1.5,0.6,2.7,0.9,3.1c2.5,3.4,10.7,1.6,13.2,1c0.4-0.1,0.7-0.5,0.7-0.9
				C1015.8,1969.7,1015.8,1968.3,1015.7,1966.9z"/>
			<path class="st0" d="M1021.9,1969.9c0.5-0.9,0.5-2.2-0.2-3.2c-0.8-1.1-2.5-1.6-4.2-1.1c-0.4,0.1-0.7,0.5-0.7,0.9l0.2,4.4
				c0,0.5,0.4,0.9,0.9,0.9C1019.7,1972,1021.2,1971.1,1021.9,1969.9z"/>
		</g>
		<g>
			<path class="st0" d="M986.4,1957.7c0.1-0.4-0.2-0.8-0.6-1c-2.4-0.9-10.3-3.6-13.2-0.6c-0.3,0.3-1.4,1.5-1.2,3
				c0.1,1.4,1.3,2.5,2.3,3c0.5,0.3,0.9,0.3,1.3,0.4c2.5,0.3,4.8,0.1,5.3,0c1-0.1,2.5-0.1,4.3,0.2c0.5,0.1,1-0.2,1-0.8
				C986,1960.6,986.1,1959.2,986.4,1957.7z"/>
			<path class="st0" d="M988.5,1957.3c-0.5,0-0.9,0.3-1,0.8l-0.7,4.4c-0.1,0.4,0.2,0.8,0.5,1c1.6,0.7,3.3,0.5,4.3-0.6
				c0.8-0.9,0.9-2.2,0.6-3.2C991.7,1958.4,990.2,1957.4,988.5,1957.3z"/>
		</g>
	</g>
	<g id="Step-2">
		<g>
			<path class="st0" d="M1015.7,1156.9c0-0.5-0.4-0.9-0.9-0.9c-1.8,0.1-3.3-0.1-4.3-0.3c-0.5-0.1-2.8-0.6-5.3-0.6
				c-0.4,0-0.9,0-1.4,0.2c-1,0.4-2.3,1.3-2.6,2.7c-0.4,1.5,0.6,2.7,0.9,3.1c2.5,3.4,10.7,1.6,13.2,1c0.4-0.1,0.7-0.5,0.7-0.9
				C1015.8,1159.7,1015.8,1158.3,1015.7,1156.9z"/>
			<path class="st0" d="M1021.9,1159.9c0.5-0.9,0.5-2.2-0.2-3.2c-0.8-1.1-2.5-1.6-4.2-1.1c-0.4,0.1-0.7,0.5-0.7,0.9l0.2,4.4
				c0,0.5,0.4,0.9,0.9,0.9C1019.7,1162,1021.2,1161.1,1021.9,1159.9z"/>
		</g>
		<g>
			<path class="st0" d="M1044.8,1146.5c0-0.4-0.4-0.7-0.8-0.8c-2.5-0.3-10.9-0.7-12.9,3c-0.2,0.4-1,1.8-0.4,3.2c0.5,1.3,1.9,2,3,2.3
				c0.5,0.1,0.9,0.1,1.4,0c2.5-0.4,4.7-1.2,5.1-1.4c1-0.4,2.4-0.8,4.2-0.9c0.5-0.1,0.9-0.5,0.8-1
				C1045.2,1149.3,1045,1147.9,1044.8,1146.5z"/>
			<path class="st0" d="M1046.7,1145.5c-0.5,0.1-0.8,0.6-0.8,1.1l0.5,4.4c0,0.4,0.4,0.8,0.8,0.8c1.7,0.3,3.4-0.4,4-1.7
				c0.5-1.1,0.3-2.3-0.3-3.2C1050.2,1145.7,1048.5,1145.1,1046.7,1145.5z"/>
		</g>
	</g>
	<g id="Step-1">
		<g>
			<path class="st0" d="M1044.8,336.5c0-0.4-0.4-0.7-0.8-0.8c-2.5-0.3-10.9-0.7-12.9,3c-0.2,0.4-1,1.8-0.4,3.2c0.5,1.3,1.9,2,3,2.3
				c0.5,0.1,0.9,0.1,1.4,0c2.5-0.4,4.7-1.2,5.1-1.4c1-0.4,2.4-0.8,4.2-0.9c0.5-0.1,0.9-0.5,0.8-1
				C1045.2,339.3,1045,337.9,1044.8,336.5z"/>
			<path class="st0" d="M1046.7,335.5c-0.5,0.1-0.8,0.6-0.8,1.1l0.5,4.4c0,0.4,0.4,0.8,0.8,0.8c1.7,0.3,3.4-0.4,4-1.7
				c0.5-1.1,0.3-2.3-0.3-3.2C1050.2,335.7,1048.5,335.1,1046.7,335.5z"/>
		</g>
	</g>
</g>
</svg>
