<?xml version="1.0" encoding="utf-8"?>
<!-- Generator: Adobe Illustrator 26.4.1, SVG Export Plug-In . SVG Version: 6.00 Build 0)  -->
<svg version="1.1" id="FQT-Animation" xmlns="http://www.w3.org/2000/svg" xmlns:xlink="http://www.w3.org/1999/xlink" x="0px"
	 y="0px" viewBox="0 0 1080 7290" style="enable-background:new 0 0 1080 7290;" xml:space="preserve">
<style type="text/css">
	.st0{stroke:#000000;stroke-width:0.3411;stroke-miterlimit:10;}
	.st1{fill:#FFFFFF;stroke:#000000;stroke-width:0.5;stroke-opacity:0.4;stroke-linecap:round;stroke-linejoin:round;stroke-miterlimit:10;}
	.st2{display:none;}
	.st3{display:inline;}
</style>
<g id="Walk-3">
	<g id="Step-27">
		<g id="Footsteps">
			<g>
				<path class="st0" d="M252.6,6767.6c0.1-0.5-0.3-1-0.8-1c-1.8-0.2-3.2-0.6-4.2-1c-0.4-0.2-2.6-1.1-5.1-1.5
					c-0.4-0.1-0.8-0.1-1.4,0c-1.1,0.2-2.5,0.9-3.1,2.2c-0.6,1.4,0.1,2.8,0.3,3.2c1.9,3.7,10.2,3.4,12.8,3.2c0.4-0.1,0.8-0.4,0.8-0.8
					C252.2,6770.4,252.5,6769,252.6,6767.6z"/>
				<path class="st0" d="M258.2,6771.6c0.6-0.9,0.9-2.1,0.3-3.2c-0.6-1.3-2.2-2-4-1.8c-0.4,0.1-0.8,0.4-0.8,0.8l-0.6,4.4
					c-0.1,0.5,0.3,1,0.7,1.1C255.6,6773.3,257.3,6772.8,258.2,6771.6z"/>
			</g>
			<g>
				<path class="st0" d="M254.1,6758.4c0.1-0.4-0.2-0.8-0.6-1c-2.4-0.9-10.3-3.6-13.2-0.6c-0.3,0.3-1.4,1.5-1.2,3
					c0.1,1.4,1.3,2.5,2.3,3c0.5,0.3,0.9,0.3,1.3,0.4c2.5,0.3,4.8,0.1,5.3,0c1-0.1,2.5-0.1,4.3,0.2c0.5,0.1,1-0.2,1-0.8
					C253.7,6761.3,253.9,6759.9,254.1,6758.4z"/>
				<path class="st0" d="M256.2,6758c-0.5,0-0.9,0.3-1,0.8l-0.7,4.4c-0.1,0.4,0.2,0.8,0.5,1c1.6,0.7,3.3,0.5,4.3-0.6
					c0.8-0.9,0.9-2.2,0.6-3.2C259.5,6759.1,258,6758.1,256.2,6758z"/>
			</g>
		</g>
		<g id="Sign">
			<path class="st1" d="M296.7,6612H92.4c-10.4,0-18.9,8.4-18.9,18.9v83.4c0,10.4,8.5,18.9,18.9,18.9h93c3,8.3,6,16.5,9,24.8
				c3.5-8.3,7.1-16.5,10.7-24.8h91.7c10.4,0,18.9-8.5,18.9-18.9v-83.4C315.6,6620.5,307.1,6612,296.7,6612z"/>
			<g class="st2">
				<path class="st3" d="M112,6637.6c0-0.6,0.1-1,0.3-1.4c0.2-0.2,1.4-0.3,3.5-0.3c0.9,0,1.8,0,2.6,0.1s1.2,0.1,1.2,0.2
					c0.3,0.2,0.5,0.8,0.5,1.8c0,0.3,0,0.5-0.1,0.6c0,0.1,0,0.2-0.2,0.2s-0.2,0.1-0.4,0.1c-0.4,0-0.7,0-0.7-0.1c0,0-0.1,0.1-0.1,0.2
					c0,0.5,0,1,0,1.5s0.1,1,0.2,1.4c0.1,0.5,0.2,0.9,0.2,1.2c0,0.3,0.2,0.7,0.4,1.3s0.3,0.9,0.4,1.1s0.2,0.6,0.5,1.2
					c0.3,0.6,0.4,1,0.5,1.2c0.5-1.1,0.8-1.9,1.1-2.6c0.2-0.7,0.5-1.6,0.8-2.8c0.2-1.1,0.3-2.4,0.3-3.6c0-0.1,0-0.2-0.1-0.2
					c0,0.1-0.2,0.1-0.7,0.1c-0.2,0-0.3,0-0.4-0.1c-0.1-0.1-0.2-0.1-0.2-0.2s-0.1-0.4-0.1-0.6c0-1,0.2-1.6,0.5-1.8
					c0-0.1,0.4-0.1,1.2-0.2c0.8-0.1,1.7-0.1,2.6-0.1c2.2,0,3.3,0.1,3.5,0.3c0.2,0.2,0.3,0.6,0.3,1.2c0,0.8-0.1,1.3-0.4,1.5
					c-0.1,0.1-0.3,0.1-0.5,0.1c-0.4,0-0.7-0.1-0.8-0.1c0,0.8-0.7,3-2,6.8c-1.3,3.8-2.2,5.7-2.5,5.9c-0.7,0.3-1.6,0.4-2.8,0.4
					c-1.5,0-2.4-0.1-2.8-0.4c-0.3-0.1-1.2-2.1-2.5-5.9c-1.3-3.8-2-6-2-6.7c0-0.1,0-0.1,0-0.1c-0.3,0.1-0.6,0.2-0.8,0.2
					s-0.3,0-0.5-0.1C112.2,6638.9,112,6638.4,112,6637.6z"/>
				<path class="st3" d="M129.4,6647c0-1.1,0.2-2.1,0.5-3.1s0.8-1.8,1.6-2.6c0.7-0.7,1.6-1.1,2.6-1.1c0.4,0,0.8,0.1,1.1,0.2
					s0.6,0.3,0.8,0.4c0.2,0.1,0.3,0.4,0.5,0.5c0.1,0.2,0.2,0.3,0.2,0.4l0.1,0.2c0-0.5,0-0.9,0-1.1c0.5-0.4,1.4-0.6,2.7-0.6
					c0.5,0,0.8,0,1.2,0.1c0.3,0,0.6,0.1,0.8,0.1s0.3,0.1,0.5,0.1c0.1,0.1,0.2,0.1,0.2,0.1l0,0c0,0.1,0.1,0.6,0.1,1.3
					c0,0.7,0,1.1-0.1,1.3c-0.2,0.3-0.6,0.4-1.1,0.4c-0.2,0-0.3,0-0.5-0.1c0,0.1,0.1,0.4,0.1,1.1c0,1.9-0.1,2.9-0.2,3.1
					c0.1-0.1,0.2-0.1,0.4-0.1s0.6,0.1,1.2,0.3c0.1,0.1,0.2,0.8,0.2,2c0,0.6,0,1.1-0.1,1.2c-0.1,0.2-0.4,0.3-1,0.5
					c-0.6,0.1-1.2,0.2-1.8,0.2c-1.8,0-2.8,0-3-0.1c-0.1-0.3-0.2-0.5-0.2-0.7c0-0.1,0-0.2,0.1-0.3c-0.2,0.1-0.7,0.3-1.5,0.7
					s-1.3,0.6-1.7,0.6c-1.2,0-2-0.5-2.6-1.5C129.7,6649.6,129.4,6648.4,129.4,6647z M132.4,6646.6c0,0.5,0.2,1,0.4,1.3
					c0.3,0.4,0.7,0.6,1.1,0.6c0.6,0,1.2-0.3,1.7-0.9s0.8-1.2,0.8-1.9c0-0.5-0.2-0.9-0.5-1.2s-0.7-0.5-1.2-0.5s-0.9,0.1-1.2,0.4
					c-0.4,0.3-0.7,0.7-0.9,1.1C132.5,6645.9,132.4,6646.2,132.4,6646.6z"/>
				<path class="st3" d="M143.4,6649.8c0-0.7,0-1.1,0.1-1.2s0.4-0.1,0.8-0.2c0.3-0.1,0.5-0.1,0.5-0.1c-0.2-0.9-0.2-2.3-0.2-4.4
					c0-2.4,0.1-4.6,0.2-6.4c-0.5,0-0.8,0-1-0.1c0-0.3,0-0.6,0-0.7c0-0.6,0.2-1.2,0.5-1.7c0.7-0.1,1.5-0.2,2.6-0.2
					c0.8,0,1.5,0.1,1.9,0.2c0.2,1.4,0.2,2.9,0.2,4.4c0,1.1,0,2.7-0.2,4.7s-0.2,3.4-0.2,4.2c0.1,0,0.2,0,0.4,0c0.4,0,0.8,0.1,1.1,0.2
					c0,0.1,0.1,0.2,0.1,0.4c0,0.3-0.1,0.8-0.2,1.4c-0.1,0.6-0.2,1-0.3,1.1c-0.2,0.1-1.1,0.2-2.5,0.2c-2.1,0-3.3-0.2-3.7-0.6
					C143.4,6651,143.4,6650.6,143.4,6649.8z"/>
				<path class="st3" d="M151,6649.8c0-0.7,0-1.1,0.1-1.2s0.4-0.1,0.8-0.2c0.3-0.1,0.5-0.1,0.5-0.1c-0.2-0.9-0.2-2.3-0.2-4.4
					c0-2.4,0.1-4.6,0.2-6.4c-0.5,0-0.8,0-1-0.1c0-0.3,0-0.6,0-0.7c0-0.6,0.2-1.2,0.5-1.7c0.7-0.1,1.5-0.2,2.6-0.2
					c0.8,0,1.5,0.1,1.9,0.2c0.2,1.4,0.2,2.9,0.2,4.4c0,1.1,0,2.7-0.2,4.7s-0.2,3.4-0.2,4.2c0.1,0,0.2,0,0.4,0c0.4,0,0.8,0.1,1.1,0.2
					c0,0.1,0.1,0.2,0.1,0.4c0,0.3-0.1,0.8-0.2,1.4c-0.1,0.6-0.2,1-0.3,1.1c-0.2,0.1-1.1,0.2-2.5,0.2c-2.1,0-3.3-0.2-3.7-0.6
					C151,6651,151,6650.6,151,6649.8z"/>
				<path class="st3" d="M158.6,6646.8c0-0.7,0.2-1.4,0.4-2.1c0.3-0.7,0.7-1.4,1.2-2.1c0.5-0.6,1.2-1.2,2.2-1.6
					c0.9-0.4,1.9-0.6,3-0.6c1.2,0,2.2,0.2,2.9,0.8c0.7,0.6,1,1.2,1,2.1c0,1.2-0.6,2.3-1.8,3.1c-1.2,0.8-2.5,1.2-3.9,1.2
					c-0.4,0-0.8,0-1.2-0.1c0,1.1,1,1.6,2.8,1.6c0.3,0,0.6,0,0.8-0.1c0-0.1,0-0.2,0.1-0.4c0.7-0.5,1.4-0.8,2.1-0.8c0.2,0,0.2,0,0.3,0
					c1,0.5,1.6,1.4,1.8,2.6c0,0.1-0.1,0.2-0.2,0.4c-0.1,0.2-0.2,0.2-0.3,0.4c-0.1,0.2-0.2,0.2-0.5,0.3s-0.3,0.2-0.5,0.3
					c-0.1,0.1-0.3,0.1-0.5,0.3c-0.2,0.2-0.3,0.2-0.4,0.2c-0.1,0-0.2,0-0.2,0s-0.1-0.1-0.2-0.1s-0.1-0.1-0.1-0.1s0-0.1-0.1-0.2
					s-0.1-0.1-0.1-0.1c-0.8,0.3-1.7,0.5-2.6,0.5c-2,0-3.6-0.5-4.7-1.6C159.1,6649.5,158.6,6648.2,158.6,6646.8z M163,6644.4
					c0,0.5,0.3,0.8,1.1,0.8c0.5,0,1-0.1,1.5-0.4c0.5-0.3,0.8-0.6,0.8-0.9c0-0.2-0.1-0.5-0.2-0.8c-0.2-0.3-0.5-0.4-0.8-0.4
					c-0.5,0-1,0.2-1.5,0.6C163.2,6643.6,163,6644,163,6644.4z"/>
				<path class="st3" d="M170.2,6656.6c0-0.7,0.1-1.6,0.3-2.6s0.4-1.6,0.5-1.8c0.2-0.1,0.4-0.1,0.6-0.1c0.7,0,1.2,0.2,1.8,0.5
					c0,0,0,0.1,0,0.3c0,0.1,0,0.2,0,0.4c0.2,0.1,0.5,0.1,0.9,0.2s0.7,0.1,0.8,0.2c0.2,0.1,0.4,0.1,0.6,0.1c0.2,0.1,0.5,0.1,0.7,0.1
					s0.4,0,0.7,0c1.2,0,2.1-0.3,2.7-0.8s0.9-1.5,1-2.8c-1.5,1.2-3.1,1.8-4.7,1.8c-2.7,0-4-1.8-4-5.5c0-0.9,0-1.6,0.2-2.3
					c0,0-0.1,0-0.2,0c-0.2,0-0.6,0-1-0.1c-0.2-0.3-0.3-0.9-0.3-1.6c0-0.9,0.1-1.4,0.3-1.8c1.2-0.3,2.2-0.5,3.2-0.5s1.9,0.1,2.6,0.4
					c0.3,0.4,0.5,0.9,0.5,1.7c0,0.7-0.1,1.2-0.3,1.6c-0.2,0.1-0.3,0.2-0.5,0.2c-0.1,0-0.1,0-0.1,0s0,0-0.1-0.1l-0.1-0.1
					c-0.1,0.4-0.1,0.9-0.1,1.5c0,0.9,0.2,1.6,0.5,2c0.3,0.5,0.8,0.7,1.3,0.7c0.6,0,1.2-0.3,1.7-0.8s0.7-1.2,0.7-2.2
					c0-0.4,0-0.8-0.1-1.2c-0.2,0.1-0.4,0.2-0.7,0.2s-0.5-0.1-0.5-0.1c-0.2-0.1-0.4-0.5-0.4-1.3c0-0.8,0.1-1.3,0.3-1.4
					c0.7-0.5,2-0.8,3.9-0.8c1.7,0,2.8,0.2,3.2,0.5c0,0.2,0.1,0.5,0.1,0.9c0,0.8-0.1,1.4-0.2,1.6c-0.1,0.1-0.3,0.2-0.7,0.2
					c-0.2,0-0.5-0.1-0.8-0.2c0,0.3,0,0.9,0.1,1.6c0.1,0.7,0.1,1.4,0.2,2.1c0.1,0.7,0.1,1.3,0.1,1.9c0,1.6-0.2,2.9-0.5,4.1
					c-0.3,1.1-0.8,2-1.3,2.7c-0.6,0.6-1.2,1.1-1.9,1.4c-0.7,0.3-1.4,0.4-2.2,0.4s-1.5,0-2,0s-1.1-0.1-1.8-0.2
					c-0.7-0.1-1.4-0.4-2-0.7c-0.2,0.5-0.2,0.8-0.2,0.8c-0.1,0.1-0.4,0.1-1,0.1c-1,0-1.4-0.1-1.5-0.2
					C170.3,6657.1,170.2,6656.9,170.2,6656.6z"/>
				<path class="st3" d="M191.6,6647.3c0-1.1,0.3-2.2,0.8-3.2s1.4-1.9,2.4-2.7c1-0.8,2.2-1.1,3.5-1.1c1.5,0,2.7,0.5,3.4,1.6
					c0.7,1,1.1,2.3,1.1,3.9c0,2.1-0.5,3.6-1.7,4.7s-2.6,1.6-4.3,1.6s-3-0.4-3.8-1.4C192,6649.7,191.6,6648.6,191.6,6647.3z
					 M195.9,6646.6c0,0.4,0.2,0.9,0.4,1.2c0.3,0.4,0.7,0.5,1.1,0.5c0.6,0,1.2-0.3,1.7-0.8s0.8-1.1,0.8-1.8c0-0.5-0.2-0.9-0.5-1.2
					s-0.7-0.5-1.2-0.5c-0.7,0-1.2,0.3-1.7,0.9C196.2,6645.4,195.9,6646,195.9,6646.6z"/>
				<path class="st3" d="M204,6643c0-1.1,0.1-1.8,0.2-2.1c0.2-0.1,0.7-0.2,1.4-0.3c0-1,0-1.7,0-2.3c0-0.5,0.1-1.1,0.2-1.6
					c0.1-0.5,0.2-0.9,0.4-1.1c0.2-0.2,0.4-0.4,0.8-0.6c0.3-0.2,0.8-0.3,1.2-0.3c0.4-0.1,1-0.1,1.7-0.1c1,0,1.7,0.1,2.2,0.1
					s1,0.2,1.5,0.5c0.2,0.2,0.3,0.9,0.3,2.1c0,0.6-0.1,1.1-0.2,1.5l-2.1-0.5l0.2-0.5c-0.1,0-0.2,0-0.4,0c-1.2,0-1.7,0.6-1.7,1.8
					c0,0.1,0,0.2,0,0.4s0,0.3,0,0.4h0.9c0.2,0,0.4,0,0.5,0s0.2,0,0.2,0c0.2,0,0.6,0,1,0.1c0,0.1,0.1,0.2,0.1,0.6
					c0,1.1-0.1,1.9-0.3,2.1c-0.2,0.2-1,0.3-2.2,0.3v4.7c0.2-0.1,0.4-0.1,0.7-0.1s0.4,0.1,0.5,0.1c0.2,0,0.2,0.3,0.2,0.9
					c0,0.1-0.1,0.8-0.2,1.9c-0.6,0.3-1.2,0.5-1.7,0.6s-1.2,0.2-2,0.2c-1.8,0-2.8-0.2-3.1-0.6c-0.2-0.2-0.2-0.5-0.2-1.1
					c0-0.9,0.2-1.4,0.7-1.6c0.2-0.1,0.4-0.2,0.7-0.2c0.1,0,0.2,0,0.3,0.1c0-3-0.1-4.5-0.1-4.6c0,0,0,0-0.1,0s-0.1,0-0.2,0h-0.3
					c-0.2,0-0.5,0-1-0.1C204,6643.5,204,6643.3,204,6643z"/>
				<path class="st3" d="M217.7,6644c0-2.4,0.6-4.4,1.7-5.9c1.2-1.5,2.6-2.3,4.4-2.3c1,0,2.1,0.3,3.2,0.8c0,0,0.1-0.1,0.2-0.4
					c0.1-0.3,0.2-0.4,0.3-0.4c0.7-0.1,1.2-0.2,1.7-0.2c0.6,0,1.1,0.1,1.4,0.4c0.1,0.4,0.2,0.9,0.2,1.4c0,1.1-0.2,2.1-0.5,3
					c-0.1,0.1-0.6,0.2-1.5,0.2c-0.8,0-1.3-0.1-1.6-0.2c-0.1-0.1-0.2-0.2-0.2-0.4c0-0.1,0-0.2,0.1-0.5c-0.6-0.2-1.2-0.3-1.7-0.3
					c-1.2,0-2,0.4-2.6,1.4s-0.9,2.1-0.9,3.4s0.3,2.3,0.8,2.9s1.2,0.9,2,0.9c0.5,0,0.9-0.1,1.4-0.3c0.2-0.4,0.3-0.7,0.3-1
					s-0.1-0.6-0.3-0.9c-1.3,0-2-0.1-2-0.3c-0.1-0.1-0.2-0.4-0.2-0.9c0-0.8,0.1-1.2,0.3-1.3c0.3-0.5,1.2-0.7,2.6-0.7
					c0.8,0,1.5,0.1,2.3,0.2c0.7,0.1,1.2,0.3,1.2,0.6c0.1,0.3,0.2,0.9,0.4,1.9c0.1,1,0.2,2,0.2,3.1c0,1.3-0.1,2.5-0.2,3.4
					c-0.3,0.2-0.8,0.4-1.4,0.4c-0.4,0-1-0.1-1.7-0.2c-0.3-0.1-0.5-0.4-0.5-0.9c-1,0.7-2,1-3,1c-0.8,0-1.5-0.1-2.3-0.5
					c-0.8-0.3-1.4-0.8-2-1.4s-1.1-1.4-1.5-2.5C217.8,6646.5,217.7,6645.3,217.7,6644z"/>
				<path class="st3" d="M231.6,6642.2c1.3-1,3.2-1.8,5.9-2.2c0.6,0.9,0.9,1.6,0.9,2.3c0,0.1-0.2,0.2-0.5,0.4
					c-0.3,0.1-0.6,0.2-0.7,0.2c0.2,0.9,0.8,2.3,1.8,4.1c0.4-0.3,0.8-0.9,1.1-1.7c0.3-0.8,0.7-1.7,1-2.7s0.5-1.5,0.5-1.7
					c0.4-0.3,1-0.4,2-0.4c0.6,0,1.2,0.1,1.8,0.4c0,0.1,0.1,0.4,0.3,1.1s0.4,1.2,0.5,1.6c0.1,0.3,0.3,0.8,0.5,1.3
					c0.2,0.6,0.4,1,0.7,1.4c0.2,0.4,0.4,0.6,0.7,0.9c0.3-0.4,0.6-1.2,1-2.2s0.7-1.7,0.7-2.1c-0.2,0-0.4-0.1-0.8-0.2
					c-0.3-0.1-0.5-0.2-0.5-0.4c0-0.1,0.1-0.6,0.3-1.2s0.4-1,0.5-1.1c2.6,0.4,4.6,1.1,5.9,2.2c-0.2,0.9-0.3,1.8-0.6,2.4
					c-0.3-0.1-0.6-0.2-1-0.4c0,0.4-0.2,1.1-0.7,2c-0.2,0.6-0.8,1.5-1.6,2.9c0.4,0.1,0.8,0.4,1.1,0.8c0,0.6-0.3,1.1-1,1.7
					c0,0-0.3,0.1-0.7,0.1s-0.9,0.1-1.5,0.1s-1.2,0-1.8,0c-0.5,0-1.1-0.5-1.8-1.5c-0.8-1-1.5-2.1-2.1-3.2c-0.6,1.1-1.3,2.2-2.1,3.2
					s-1.4,1.5-1.8,1.5c-0.6,0-1.2,0-1.8,0c-0.7,0-1.2-0.1-1.5-0.1c-0.4,0-0.6-0.1-0.7-0.1c-0.7-0.6-1-1.1-1-1.7
					c0.1-0.1,0.3-0.2,0.5-0.5c0.3-0.2,0.5-0.3,0.5-0.3c-0.8-1.4-1.4-2.4-1.6-2.9c-0.4-0.9-0.7-1.6-0.7-2c-0.3,0.2-0.7,0.3-1,0.4
					C232,6643.9,231.7,6643.1,231.6,6642.2z"/>
				<path class="st3" d="M255.6,6646.8c0-0.7,0.2-1.4,0.4-2.1c0.3-0.7,0.7-1.4,1.2-2.1c0.5-0.6,1.2-1.2,2.2-1.6
					c0.9-0.4,1.9-0.6,3-0.6c1.2,0,2.2,0.2,2.9,0.8c0.7,0.6,1,1.2,1,2.1c0,1.2-0.6,2.3-1.8,3.1c-1.2,0.8-2.5,1.2-3.9,1.2
					c-0.4,0-0.8,0-1.2-0.1c0,1.1,1,1.6,2.8,1.6c0.3,0,0.6,0,0.8-0.1c0-0.1,0-0.2,0.1-0.4c0.7-0.5,1.4-0.8,2.1-0.8c0.2,0,0.2,0,0.3,0
					c1,0.5,1.6,1.4,1.8,2.6c0,0.1-0.1,0.2-0.2,0.4c-0.1,0.2-0.2,0.2-0.3,0.4c-0.1,0.2-0.2,0.2-0.5,0.3s-0.3,0.2-0.5,0.3
					c-0.1,0.1-0.3,0.1-0.5,0.3c-0.2,0.2-0.3,0.2-0.4,0.2s-0.2,0-0.2,0s-0.1-0.1-0.2-0.1s-0.1-0.1-0.1-0.1s0-0.1-0.1-0.2
					s-0.1-0.1-0.1-0.1c-0.8,0.3-1.7,0.5-2.6,0.5c-2,0-3.6-0.5-4.7-1.6C256.1,6649.5,255.6,6648.2,255.6,6646.8z M260,6644.4
					c0,0.5,0.3,0.8,1.1,0.8c0.5,0,1-0.1,1.5-0.4c0.5-0.3,0.8-0.6,0.8-0.9c0-0.2-0.1-0.5-0.2-0.8c-0.2-0.3-0.5-0.4-0.8-0.4
					c-0.5,0-1,0.2-1.5,0.6C260.2,6643.6,260,6644,260,6644.4z"/>
				<path class="st3" d="M268.1,6649.9c0-0.7,0.2-1.1,0.5-1.3c0.1-0.1,0.4-0.1,0.8-0.2c0.3-0.1,0.5-0.1,0.5-0.1
					c-0.2-1.8-0.2-2.9-0.2-3.3c0-1.1,0.1-1.8,0.2-2.1c-0.4,0-0.8,0-1-0.1c-0.1-0.3-0.2-0.6-0.2-0.8c0-0.5,0.2-1,0.6-1.6
					c0.5-0.1,1.6-0.1,3.1-0.1c0.5,0,1,0,1.5,0.1s0.9,0.1,1.2,0.2s0.4,0.1,0.4,0.2c0.1,0.2,0.2,0.4,0.2,0.8c0,0.8-0.1,1.4-0.4,1.6
					c0,0.1-0.2,0.1-0.6,0.1s-0.6,0-0.8-0.1c-0.2,1.1-0.2,2.4-0.2,4.1c0,0.7,0,1.1,0.1,1.1s0.2,0,0.4,0c0.4,0,0.7,0.1,1,0.2
					c0,0.1,0.1,0.3,0.1,0.6c0,0.4,0,0.8-0.2,1.3s-0.2,0.9-0.3,1.1c-0.2,0.1-1,0.2-2.3,0.2c-2.2,0-3.5-0.2-3.8-0.6
					C268.2,6650.9,268.1,6650.5,268.1,6649.9z M270.3,6635.9c0-0.4,0.2-0.6,0.7-0.6c0.4,0,0.8,0.1,1.2,0.4c0.3-0.3,0.7-0.5,1.2-0.5
					c0.3,0,0.6,0.1,0.8,0.4c0.2,0.3,0.4,0.5,0.4,0.9c0,0.2,0,0.4-0.1,0.6c-0.1,0.2-0.2,0.3-0.2,0.4c-0.1,0.1-0.2,0.2-0.5,0.4
					c-0.2,0.1-0.4,0.3-0.5,0.4c-0.1,0.1-0.3,0.2-0.6,0.4c-0.3,0.1-0.5,0.2-0.5,0.3c-0.6-0.4-1-0.9-1.4-1.5
					C270.5,6636.8,270.3,6636.3,270.3,6635.9z"/>
				<path class="st3" d="M119,6666.1c0-0.8,0-1.2,0.1-1.3c0.2-0.2,0.5-0.4,0.8-0.6c0.3-0.2,0.9-0.4,1.7-0.7c0.8-0.2,1.6-0.4,2.5-0.4
					c0.5,0,1,0.1,1.2,0.2c0.2,0.4,0.3,1.9,0.3,4.6c0,3.7-0.1,6.2-0.3,7.6c0.1,0,0.2,0,0.4,0c0.4,0,0.8,0.1,1.1,0.2
					c0,0.1,0.1,0.2,0.1,0.4c0,0.3-0.1,0.8-0.2,1.4s-0.2,1-0.3,1.1c-0.3,0.1-1.1,0.2-2.4,0.2c-2.3,0-3.7-0.2-4.1-0.6
					c-0.1-0.1-0.1-0.6-0.1-1.3c0-0.7,0-1.1,0.1-1.2l1.2-0.2c0.3-0.1,0.5-0.1,0.5-0.1c-0.2-1.5-0.3-3-0.3-4.5c0-1.4,0.1-2.9,0.3-4.4
					c-0.7,0.5-1.5,0.8-2.4,0.9C119.1,6667.2,119,6666.8,119,6666.1z"/>
				<path class="st3" d="M128,6670.9c0-0.7,0-1.2,0.1-1.5c1.3-2.6,3.2-4.6,5.8-6.1c0.7-0.3,1.4-0.4,2.1-0.4s1.3,0.1,1.7,0.4
					c0.2,0.7,0.3,2.2,0.3,4.7c0,0.7,0,1.2,0,1.5c0,0,0.1,0,0.2,0c0.1,0,0.2,0,0.2,0c0.2,0,0.3,0,0.5,0.1c0.3,0.1,0.5,0.7,0.5,1.5
					c0,0.6-0.1,1.1-0.4,1.3c-0.1,0.1-0.3,0.1-0.7,0.1c-0.2,0-0.4,0-0.5,0c0.1,0.5,0.1,1,0.1,1.3c0,0.8-0.1,1.4-0.3,1.8
					c0.1,0,0.2,0,0.4,0c0.4,0,0.8,0.1,1.1,0.2c0.3,0.2,0.5,0.8,0.5,1.8c0,0.5,0,0.9-0.2,1.1c-0.7,0.1-2,0.2-3.8,0.2
					c-1.9,0-3-0.1-3.1-0.3c-0.1-0.2-0.2-0.7-0.2-1.5c0-0.7,0.1-1.1,0.2-1.3c0.1-0.1,0.3-0.1,0.6-0.2c0.2-0.1,0.5-0.1,0.7-0.1
					c-0.1-0.9-0.1-1.5-0.1-1.8c0-0.5,0-0.9,0.1-1.2c-0.7,0.1-1.7,0.1-3,0.1c-1.7,0-2.6-0.1-2.9-0.1
					C128.1,6672.3,128,6671.7,128,6670.9z M131.8,6669.4c0.5,0,0.9-0.1,1.2-0.1c0.4,0,0.8,0,1.1,0.1c0-0.5,0-1.4,0.1-2.6
					C133.2,6667.7,132.4,6668.6,131.8,6669.4z"/>
				<path class="st3" d="M145.8,6668.4c0-1.6,0.5-3,1.7-4c1.1-1.1,2.4-1.6,3.9-1.6c1.1,0,2.1,0.3,3,0.8c0.1-0.4,0.2-0.8,0.5-0.9
					c0.3-0.1,0.7-0.2,1.1-0.2c0.7,0,1.2,0.1,1.5,0.4c0.1,0.3,0.1,0.8,0.1,1.6c0,2-0.3,3.1-0.9,3.2c-0.2,0.1-0.5,0.1-0.8,0.1
					c-0.5,0-1-0.1-1.3-0.3c-0.1-0.2-0.1-0.5-0.1-0.7c-0.5-0.4-1.1-0.6-1.7-0.6c-0.7,0-1.2,0.2-1.7,0.7s-0.8,0.9-0.8,1.5
					c0,0.9,0.7,1.3,2,1.3c0.1,0,0.5,0,1.1,0s1,0,1.1,0c1,0,1.8,0.3,2.4,0.8s1,1.5,1,2.8c0,1.7-0.6,3.1-1.8,4.2s-2.7,1.6-4.5,1.6
					c-1,0-2-0.3-2.7-0.8c0,0.4-0.1,0.6-0.2,0.8c-0.3,0.1-0.7,0.2-1.3,0.2c-0.7,0-1.1-0.1-1.3-0.3c-0.1-0.6-0.1-1.1-0.1-1.6
					c0-1.4,0.3-2.6,1-3.8c0.3-0.1,0.5-0.1,0.8-0.1c0.5,0,1,0.1,1.2,0.4c0.1,0.2,0.1,0.5,0.2,0.9c0.4,0.5,1,0.8,1.8,0.8
					s1.4-0.1,1.9-0.4c0.5-0.3,0.7-0.7,0.7-1.2c0-0.3-0.1-0.5-0.2-0.6c-0.2-0.2-0.3-0.3-0.7-0.4s-0.5-0.1-0.8-0.1s-0.5-0.1-0.8-0.1
					c-0.4,0-0.7,0-0.9-0.1c-0.2,0-0.5-0.1-1-0.1s-0.8-0.2-1-0.3c-0.2-0.1-0.6-0.2-0.9-0.5c-0.3-0.2-0.6-0.4-0.8-0.7
					c-0.2-0.3-0.3-0.6-0.5-1C145.9,6669.4,145.8,6668.9,145.8,6668.4z"/>
				<path class="st3" d="M159.1,6673.8c0-0.7,0.2-1.4,0.4-2.1c0.3-0.7,0.7-1.4,1.2-2.1c0.5-0.6,1.2-1.2,2.2-1.6
					c0.9-0.4,1.9-0.6,3-0.6c1.2,0,2.2,0.2,2.9,0.8c0.7,0.6,1,1.2,1,2.1c0,1.2-0.6,2.3-1.8,3.1c-1.2,0.8-2.5,1.2-3.9,1.2
					c-0.4,0-0.8,0-1.2-0.1c0,1.1,1,1.6,2.8,1.6c0.3,0,0.6,0,0.8-0.1c0-0.1,0-0.2,0.1-0.4c0.7-0.5,1.4-0.8,2.1-0.8c0.2,0,0.2,0,0.3,0
					c1,0.5,1.6,1.4,1.8,2.6c0,0.1-0.1,0.2-0.2,0.4c-0.1,0.2-0.2,0.2-0.3,0.4c-0.1,0.2-0.2,0.2-0.5,0.3s-0.3,0.2-0.5,0.3
					c-0.1,0.1-0.3,0.1-0.5,0.3c-0.2,0.2-0.3,0.2-0.4,0.2c-0.1,0-0.2,0-0.2,0s-0.1-0.1-0.2-0.1s-0.1-0.1-0.1-0.1s0-0.1-0.1-0.2
					s-0.1-0.1-0.1-0.1c-0.8,0.3-1.7,0.5-2.6,0.5c-2,0-3.6-0.5-4.7-1.6C159.7,6676.5,159.1,6675.2,159.1,6673.8z M163.5,6671.4
					c0,0.5,0.3,0.8,1.1,0.8c0.5,0,1-0.1,1.5-0.4c0.5-0.3,0.8-0.6,0.8-0.9c0-0.2-0.1-0.5-0.2-0.8c-0.2-0.3-0.5-0.4-0.8-0.4
					c-0.5,0-1,0.2-1.5,0.6C163.7,6670.6,163.5,6671,163.5,6671.4z"/>
				<path class="st3" d="M171.3,6682.7c0-0.7,0-1.1,0.1-1.3c0.1-0.1,0.3-0.2,0.8-0.3c0.4-0.1,0.8-0.1,1.1-0.1c0.2,0,0.2,0,0.3,0
					c0-0.2,0-0.9,0-1.9s0-1.9,0-2.6c0-2.6,0.1-4.4,0.2-5.2c0,0-0.2,0-0.4,0c-0.5,0-1-0.1-1.5-0.1c-0.1-0.1-0.2-0.7-0.2-1.9
					c0-0.7,0-1.1,0.1-1.3s0.5-0.3,1-0.5c0.6-0.1,1.2-0.2,2-0.2c1.4,0,2.2,0,2.5,0.1c0.1,0.3,0.1,0.6,0.1,0.9c0,0.1,0,0.2,0,0.2
					c0.2-0.1,0.7-0.3,1.5-0.7c0.7-0.4,1.3-0.6,1.8-0.6c0.8,0,1.5,0.3,2.1,0.9s1.1,1.4,1.4,2.2c0.3,0.9,0.5,1.7,0.5,2.6
					c0,1.5-0.5,2.9-1.3,4.1c-0.9,1.2-2.1,1.8-3.6,1.8c-0.7,0-1.3-0.1-2-0.3c0,0,0,0.3,0,0.9s0,1.2,0,1.8c0,1.5,0,2.3-0.1,2.4
					c-0.5,0.5-1.6,0.7-3.2,0.7c-0.8,0-1.4-0.1-2-0.1c-0.5-0.1-0.8-0.1-1-0.2l-0.2-0.1C171.3,6683.8,171.3,6683.4,171.3,6682.7z
					 M177.2,6673.8c0,0.5,0.2,0.9,0.5,1.3s0.7,0.5,1.2,0.5c0.6,0,1.2-0.3,1.7-0.9c0.5-0.6,0.8-1.2,0.8-1.8c0-0.5-0.2-0.9-0.4-1.2
					c-0.3-0.4-0.7-0.5-1.1-0.5c-0.6,0-1.2,0.3-1.7,0.8C177.5,6672.5,177.2,6673.1,177.2,6673.8z"/>
				<path class="st3" d="M185,6668c0-0.3,0-0.5,0.1-0.6c0.4-0.1,0.7-0.1,1-0.1c0.1,0,0.2,0,0.2,0c0.1,0,0.2,0,0.2,0h0.1v-4.2
					c1.2-0.1,1.8-0.1,2.1-0.1c0.5,0,1.2,0.1,2,0.1v4.2c1.3,0.1,2.1,0.1,2.4,0.3c0.2,0.2,0.3,0.9,0.3,2.1c0,0.3,0,0.5-0.1,0.6
					c-0.4,0.1-0.8,0.1-1,0.1h-0.2c-0.1,0-0.3,0-0.6,0s-0.6,0-1,0c0,0.1,0,0.6,0,1.6s0,1.6,0,1.6c0,0.6,0.1,1.1,0.4,1.4
					c0.2,0.3,0.6,0.4,1.1,0.4c0.2,0,0.3,0,0.3-0.1c0,0,0.1-0.1,0.1-0.3c0-0.1,0.2-0.2,0.6-0.3l1.5-0.4c0.2,0.4,0.2,0.9,0.2,1.5
					c0,1.1-0.1,1.9-0.3,2.1c0,0-0.2,0.1-0.3,0.2c-0.2,0.1-0.3,0.2-0.3,0.2s-0.2,0.1-0.3,0.1s-0.3,0.1-0.4,0.1s-0.3,0.1-0.5,0.1
					s-0.5,0.1-0.7,0.1s-0.5,0-0.9,0c-0.7,0-1.2,0-1.6-0.1s-0.8-0.2-1.2-0.4c-0.4-0.2-0.7-0.5-0.9-0.9c-0.2-0.4-0.4-0.9-0.5-1.6
					c-0.2-0.6-0.2-1.4-0.2-2.4c0-0.9,0-2,0-3.3c-0.7-0.1-1.1-0.2-1.3-0.3C185,6669.8,185,6669.1,185,6668z"/>
				<path class="st3" d="M195.5,6673.8c0-0.7,0.2-1.4,0.4-2.1c0.3-0.7,0.7-1.4,1.2-2.1c0.5-0.6,1.2-1.2,2.2-1.6
					c0.9-0.4,1.9-0.6,3-0.6c1.2,0,2.2,0.2,2.9,0.8c0.7,0.6,1,1.2,1,2.1c0,1.2-0.6,2.3-1.8,3.1c-1.2,0.8-2.5,1.2-3.9,1.2
					c-0.4,0-0.8,0-1.2-0.1c0,1.1,1,1.6,2.8,1.6c0.3,0,0.6,0,0.8-0.1c0-0.1,0-0.2,0.1-0.4c0.7-0.5,1.4-0.8,2.1-0.8c0.2,0,0.2,0,0.3,0
					c1,0.5,1.6,1.4,1.8,2.6c0,0.1-0.1,0.2-0.2,0.4c-0.1,0.2-0.2,0.2-0.3,0.4c-0.1,0.2-0.2,0.2-0.5,0.3s-0.3,0.2-0.5,0.3
					c-0.1,0.1-0.3,0.1-0.5,0.3c-0.2,0.2-0.3,0.2-0.4,0.2c-0.1,0-0.2,0-0.2,0s-0.1-0.1-0.2-0.1s-0.1-0.1-0.1-0.1s0-0.1-0.1-0.2
					s-0.1-0.1-0.1-0.1c-0.8,0.3-1.7,0.5-2.6,0.5c-2,0-3.6-0.5-4.7-1.6C196,6676.5,195.5,6675.2,195.5,6673.8z M199.9,6671.4
					c0,0.5,0.3,0.8,1.1,0.8c0.5,0,1-0.1,1.5-0.4c0.5-0.3,0.8-0.6,0.8-0.9c0-0.2-0.1-0.5-0.2-0.8c-0.2-0.3-0.5-0.4-0.8-0.4
					c-0.5,0-1,0.2-1.5,0.6C200.1,6670.6,199.9,6671,199.9,6671.4z"/>
				<path class="st3" d="M208.1,6677.2c0-0.9,0.2-1.5,0.6-1.8c0.2-0.1,0.4-0.2,0.6-0.2c0.1,0,0.2,0,0.3,0.1c0-0.4,0-1.1,0-2.1
					c0-0.9,0-1.7,0-2.2c0,0-0.2,0-0.3,0.1s-0.2,0.1-0.3,0.1c0,0-0.2,0-0.3-0.1c-0.1,0-0.2-0.1-0.3-0.1c0-0.1-0.1-0.2-0.1-0.5
					c0-0.4,0-0.9,0.2-1.5c0.1-0.6,0.2-1,0.3-1.1c0.2-0.1,0.5-0.2,1-0.3s1.1-0.1,1.7-0.1c0.7,0,1.3,0.1,1.8,0.3
					c0.1,0.1,0.2,0.3,0.2,0.6c0,0.1,0,0.3-0.1,0.8c1.6-1.2,3-1.8,4.4-1.8c1.5,0,2.5,0.6,3.2,1.8c1.8-1.2,3.3-1.8,4.7-1.8
					c1.2,0,2.1,0.4,2.8,1.3c0.7,0.9,1.1,2.1,1.1,3.8c0,0.2,0,1.1-0.2,2.4c0,0,0.1-0.1,0.2-0.1c0.2,0,0.5,0,1,0.1
					c0.1,0.1,0.2,0.6,0.2,1.5c0,1.1-0.1,1.7-0.2,1.9c-1.1,0.3-2.2,0.4-3.1,0.4c-1,0-1.9-0.1-2.7-0.4c-0.1-0.1-0.2-0.4-0.3-0.8
					c-0.1-0.5-0.2-0.9-0.2-1.2c0-0.5,0.1-0.9,0.4-1.3c0.2-0.1,0.4-0.1,0.6-0.1c0.1,0,0.1,0,0.2,0s0.1,0,0.1,0.1l0.1,0.1
					c0.1-0.4,0.1-0.9,0.1-1.2c0-0.9-0.2-1.5-0.6-2c-0.4-0.4-0.9-0.7-1.5-0.7c-0.4,0-0.8,0.1-1.2,0.4c-0.4,0.2-0.7,0.6-0.9,1.1
					c0,1.1-0.1,1.8-0.1,2.2c0,0,0.1-0.1,0.2-0.1c0.2,0,0.5,0,1,0.1c0.1,0.1,0.2,0.6,0.2,1.5c0,1.1-0.1,1.7-0.2,1.9
					c-1.1,0.3-2.2,0.4-3.1,0.4c-1,0-1.9-0.1-2.7-0.4c-0.1-0.1-0.2-0.4-0.3-0.8c-0.1-0.5-0.2-0.9-0.2-1.2c0-0.5,0.1-0.9,0.4-1.3
					c0.2-0.1,0.4-0.1,0.6-0.1c0.1,0,0.1,0,0.2,0s0.1,0,0.1,0.1l0.1,0.1c0-0.4,0.1-0.6,0.1-0.9c0-1-0.2-1.8-0.6-2.3
					c-0.4-0.5-0.9-0.8-1.5-0.8s-1.2,0.2-1.6,0.8s-0.7,1.2-0.7,2.1c0,0.4,0,0.8,0.1,1.2c0.2-0.1,0.4-0.1,0.7-0.1s0.4,0.1,0.5,0.1
					c0.2,0,0.2,0.3,0.2,0.9c0,0.1-0.1,0.8-0.2,1.9c-1.1,0.5-2.5,0.8-4,0.8c-1.4,0-2.3-0.2-2.7-0.6
					C208.2,6677.9,208.1,6677.6,208.1,6677.2z"/>
				<path class="st3" d="M231.5,6663.4c0-0.7,0-1.1,0.1-1.2l0.2-0.1c0.1-0.1,0.4-0.1,0.9-0.2s1.1-0.1,1.9-0.1c1.7,0,2.8,0.2,3.3,0.7
					c0.1,0.1,0.1,0.9,0.1,2.4c0,0.6,0,1.2,0,1.8c0,0.6,0,0.9,0,0.9c0.6-0.2,1.3-0.3,2-0.3c1.6,0,2.8,0.6,3.7,1.8
					c0.9,1.2,1.4,2.6,1.4,4.1c0,0.9-0.2,1.7-0.5,2.6c-0.3,0.9-0.8,1.6-1.5,2.3c-0.7,0.6-1.4,0.9-2.2,0.9c-0.5,0-1.1-0.2-1.8-0.6
					s-1.2-0.6-1.5-0.7c0,0,0,0.1,0,0.2c0,0.2,0,0.5-0.1,0.8c-0.3,0.1-1.2,0.1-2.6,0.1c-0.7,0-1.3-0.1-1.9-0.2
					c-0.5-0.1-0.9-0.3-1-0.4c0-0.2-0.1-0.6-0.1-1.2c0-1.1,0-1.8,0.2-1.9c0.5-0.1,0.9-0.1,1.4-0.1c0.2,0,0.4,0,0.4,0
					c-0.2-0.9-0.2-2.6-0.2-5.4c0-0.7,0-1.6,0-2.6s0-1.6,0-1.9c-0.2,0-0.3,0.1-0.5,0.1c-0.3,0-0.7,0-1-0.1c-0.4-0.1-0.6-0.2-0.7-0.3
					C231.5,6664.5,231.5,6664.1,231.5,6663.4z M237.5,6672.3c0,0.7,0.3,1.4,0.8,1.9s1.1,0.8,1.7,0.8c0.5,0,0.8-0.2,1.1-0.5
					c0.3-0.4,0.4-0.8,0.4-1.2c0-0.6-0.2-1.3-0.7-1.9s-1-0.9-1.7-0.9c-0.5,0-0.9,0.2-1.2,0.5C237.7,6671.4,237.5,6671.8,237.5,6672.3
					z"/>
				<path class="st3" d="M245.5,6673.8c0-0.7,0.2-1.4,0.4-2.1c0.3-0.7,0.7-1.4,1.2-2.1c0.5-0.6,1.2-1.2,2.2-1.6
					c0.9-0.4,1.9-0.6,3-0.6c1.2,0,2.2,0.2,2.9,0.8c0.7,0.6,1,1.2,1,2.1c0,1.2-0.6,2.3-1.8,3.1c-1.2,0.8-2.5,1.2-3.9,1.2
					c-0.4,0-0.8,0-1.2-0.1c0,1.1,1,1.6,2.8,1.6c0.3,0,0.6,0,0.8-0.1c0-0.1,0-0.2,0.1-0.4c0.7-0.5,1.4-0.8,2.1-0.8c0.2,0,0.2,0,0.3,0
					c1,0.5,1.6,1.4,1.8,2.6c0,0.1-0.1,0.2-0.2,0.4c-0.1,0.2-0.2,0.2-0.3,0.4c-0.1,0.2-0.2,0.2-0.5,0.3s-0.3,0.2-0.5,0.3
					c-0.1,0.1-0.3,0.1-0.5,0.3c-0.2,0.2-0.3,0.2-0.4,0.2c-0.1,0-0.2,0-0.2,0s-0.1-0.1-0.2-0.1s-0.1-0.1-0.1-0.1s0-0.1-0.1-0.2
					s-0.1-0.1-0.1-0.1c-0.8,0.3-1.7,0.5-2.6,0.5c-2,0-3.6-0.5-4.7-1.6C246.1,6676.5,245.5,6675.2,245.5,6673.8z M249.9,6671.4
					c0,0.5,0.3,0.8,1.1,0.8c0.5,0,1-0.1,1.5-0.4c0.5-0.3,0.8-0.6,0.8-0.9c0-0.2-0.1-0.5-0.2-0.8c-0.2-0.3-0.5-0.4-0.8-0.4
					c-0.5,0-1,0.2-1.5,0.6C250.2,6670.6,249.9,6671,249.9,6671.4z"/>
				<path class="st3" d="M258.2,6668.9c0-0.7,0-1.1,0.1-1.3c0.6-0.3,1.7-0.4,3.4-0.4c0.6,0,1.1,0.1,1.4,0.1s0.6,0.2,0.9,0.5
					c0,0.2,0,0.6,0,1.1l0.1-0.2c0-0.1,0.2-0.3,0.3-0.4c0.1-0.1,0.3-0.4,0.5-0.5c0.2-0.2,0.4-0.3,0.8-0.4c0.3-0.1,0.7-0.2,1.1-0.2
					c1.2,0,2.1,0.5,2.9,1.5c-0.3,1.4-1.2,2.4-2.5,2.9c-0.5-0.4-1-0.6-1.5-0.6c-0.6,0-1,0.3-1.4,0.9c-0.3,0.6-0.5,1.3-0.5,2.2
					c0,0.3,0,0.6,0,1c0.1,0,0.3,0.1,0.8,0.1l0.2,0.1c0.2,0.2,0.3,0.6,0.3,1.2c0,0.4,0,0.9-0.2,1.4c-0.1,0.4-0.3,0.8-0.5,1
					c-0.3,0.1-1.1,0.1-2.4,0.1c-0.8,0-1.5-0.1-2.3-0.2c-0.8-0.1-1.2-0.3-1.3-0.4c0-0.2-0.1-0.6-0.1-1.2c0-1.2,0-1.8,0.2-1.9
					c0.6-0.1,1-0.2,1.2-0.2s0.4,0,0.5,0.1c-0.2-0.2-0.4-1.3-0.4-3.2c0-0.7,0-1.1,0.1-1.1c-0.2,0-0.3,0.1-0.5,0.1
					c-0.5,0-0.9-0.1-1.1-0.4C258.3,6670,258.2,6669.6,258.2,6668.9z"/>
				<path class="st3" d="M113.7,6692.1c0-0.7,0.1-1.1,0.4-1.3c0.1-0.2,0.6-0.4,1.3-0.6c0.8-0.1,1.5-0.2,2.4-0.2s1.5,0.1,1.8,0.2
					c0.1,0.3,0.1,0.6,0.1,0.8c0,0.1,0,0.2,0,0.2c0.2-0.1,0.7-0.3,1.5-0.7s1.5-0.6,2-0.6c0.8,0,1.5,0.3,2.1,1
					c0.6,0.6,1.1,1.4,1.4,2.3c0.3,0.9,0.4,1.8,0.4,2.6c0,1.5-0.4,2.7-1.3,3.7c-0.8,1-2,1.5-3.5,1.5c-0.8,0-1.5-0.1-2.2-0.3
					c0,0.1,0,0.3,0,0.5c0,0.6,0,1.1-0.1,1.7c0.1,0,0.3,0,0.7,0c0.2,0,0.5,0,0.8,0.1s0.5,0.2,0.5,0.3c0.2,0.1,0.4,0.5,0.4,1
					s-0.1,0.8-0.4,1c-0.1,0.3-1.5,0.5-4,0.5c-1,0-2,0-2.8-0.1c-0.8-0.1-1.3-0.2-1.3-0.3c-0.2-0.2-0.3-0.5-0.3-1s0.1-0.8,0.3-1.1
					c0.1-0.1,0.2-0.2,0.5-0.3c0.2-0.1,0.5-0.1,0.8-0.1c0.2,0,0.3,0,0.3,0c0-0.2,0-0.7,0-1.4s0-1.4,0-2.1c0-2.7,0.1-4.4,0.2-5.3
					c0,0-0.2,0-0.4,0c-0.3,0-0.8,0-1.2-0.1C113.9,6693.5,113.7,6692.9,113.7,6692.1z M120.1,6696.1c0,0.5,0.1,0.9,0.4,1.1
					c0.2,0.2,0.6,0.4,1,0.4c0.5,0,1-0.2,1.5-0.7s0.7-1,0.7-1.7c0-0.4-0.1-0.8-0.3-1.1c-0.2-0.3-0.5-0.4-0.9-0.4
					c-0.6,0-1.2,0.2-1.7,0.8S120.1,6695.5,120.1,6696.1z"/>
				<path class="st3" d="M128.4,6695.9c0-0.7,0-1.1,0.1-1.3c0.6-0.3,1.7-0.4,3.4-0.4c0.6,0,1.1,0.1,1.4,0.1c0.3,0.1,0.6,0.2,0.9,0.5
					c0,0.2,0,0.6,0,1.1l0.1-0.2c0-0.1,0.2-0.3,0.3-0.5c0.1-0.2,0.3-0.4,0.5-0.5c0.2-0.1,0.4-0.3,0.8-0.4c0.3-0.1,0.7-0.2,1.1-0.2
					c1.2,0,2.1,0.5,2.9,1.5c-0.3,1.4-1.2,2.4-2.5,3c-0.5-0.4-1-0.6-1.5-0.6c-0.6,0-1,0.3-1.4,0.9c-0.3,0.6-0.5,1.3-0.5,2.2
					c0,0.3,0,0.6,0,1c0.1,0,0.3,0,0.8,0.1h0.2c0.2,0.2,0.3,0.5,0.3,1.2c0,0.5,0,0.9-0.2,1.4s-0.3,0.8-0.5,1c-0.3,0-1.1,0.1-2.4,0.1
					c-0.8,0-1.5-0.1-2.3-0.2c-0.8-0.1-1.2-0.3-1.3-0.5c0-0.2-0.1-0.6-0.1-1.2c0-1.2,0-1.8,0.2-1.9c0.6-0.1,1-0.2,1.2-0.2
					s0.4,0,0.5,0.1c-0.2-0.2-0.4-1.3-0.4-3.2c0-0.7,0-1,0.1-1.1c-0.2,0-0.3,0.1-0.5,0.1c-0.5,0-0.9-0.1-1.1-0.4
					C128.4,6697,128.4,6696.6,128.4,6695.9z"/>
				<path class="st3" d="M139.7,6700.8c0-0.7,0.2-1.4,0.4-2.1c0.3-0.7,0.7-1.4,1.2-2.1c0.5-0.6,1.2-1.2,2.2-1.6
					c0.9-0.4,1.9-0.6,3-0.6c1.2,0,2.2,0.2,2.9,0.8c0.7,0.6,1,1.2,1,2.1c0,1.2-0.6,2.3-1.8,3.1c-1.2,0.8-2.5,1.2-3.9,1.2
					c-0.4,0-0.8,0-1.2-0.1c0,1.1,1,1.6,2.8,1.6c0.3,0,0.6,0,0.8-0.1c0-0.1,0-0.2,0.1-0.4c0.7-0.5,1.4-0.8,2.1-0.8c0.2,0,0.2,0,0.3,0
					c1,0.5,1.6,1.4,1.8,2.6c0,0.1-0.1,0.2-0.2,0.4c-0.1,0.2-0.2,0.2-0.3,0.4c-0.1,0.2-0.2,0.2-0.5,0.3s-0.3,0.2-0.5,0.3
					c-0.2,0.1-0.3,0.1-0.5,0.3c-0.2,0.2-0.3,0.2-0.4,0.2c-0.1,0-0.2,0-0.2,0s-0.1,0-0.2-0.1l-0.1-0.1c0,0,0-0.1-0.1-0.2
					c0-0.1-0.1-0.1-0.1-0.1c-0.8,0.3-1.7,0.5-2.6,0.5c-2,0-3.6-0.5-4.7-1.5C140.2,6703.5,139.7,6702.2,139.7,6700.8z M144.1,6698.4
					c0,0.5,0.3,0.8,1.1,0.8c0.5,0,1-0.1,1.5-0.4c0.5-0.3,0.8-0.6,0.8-0.9c0-0.2-0.1-0.5-0.2-0.8c-0.2-0.3-0.5-0.4-0.8-0.4
					c-0.5,0-1,0.2-1.5,0.5C144.3,6697.6,144.1,6698,144.1,6698.4z"/>
				<path class="st3" d="M152,6705c0-0.4,0.1-0.9,0.2-1.3c0.1-0.4,0.3-0.8,0.7-1.2s0.7-0.5,1.2-0.5c0.4,0,0.8,0.1,1.2,0.2
					c0.5,0.1,0.7,0.4,0.7,0.6c0,0,0,0.1,0,0.2c0.5,0.1,0.9,0.2,1.1,0.2c0.3,0,0.7-0.1,0.9-0.4c0.2-0.3,0.4-0.5,0.4-0.9
					s-0.2-0.6-0.4-0.8c-0.3-0.2-0.6-0.3-1-0.3s-0.9,0-1.4-0.1c-0.5-0.1-1-0.2-1.4-0.3s-0.8-0.4-1-0.8c-0.3-0.4-0.4-1-0.4-1.7
					c0-0.9,0.2-1.7,0.8-2.3c0.5-0.6,1.1-1,1.8-1.2c0.7-0.2,1.5-0.3,2.3-0.3c0.7,0,1.4,0.1,2.2,0.2c0.2-0.3,0.3-0.4,0.5-0.5
					c1.1,0.1,1.8,0.5,2.2,1.2c0,0.4-0.1,0.9-0.2,1.3c-0.1,0.4-0.3,0.8-0.7,1.2s-0.7,0.6-1.2,0.6c-0.4,0-0.8-0.1-1.2-0.2
					s-0.7-0.4-0.7-0.6c0-0.1,0-0.1,0-0.2c-0.3-0.1-0.7-0.2-0.8-0.2c-0.3,0-0.7,0.1-0.9,0.4c-0.2,0.2-0.4,0.5-0.4,0.8
					c0,0.4,0.2,0.6,0.7,0.8c0.4,0.2,1,0.3,1.5,0.3c0.6,0,1.2,0.1,1.8,0.3c0.6,0.1,1.1,0.4,1.6,0.8c0.5,0.4,0.7,1,0.7,1.8
					c0,1.3-0.5,2.3-1.7,3c-1.1,0.7-2.4,1-4,1c-0.7,0-1.5-0.1-2.3-0.2c-0.2,0.3-0.3,0.4-0.5,0.5C153.1,6706.1,152.4,6705.7,152,6705z
					"/>
				<path class="st3" d="M163.8,6701c0-1.1,0.2-2.1,0.5-3.1s0.8-1.8,1.6-2.5c0.7-0.7,1.6-1.1,2.6-1.1c0.4,0,0.8,0.1,1.1,0.2
					s0.6,0.3,0.8,0.4c0.2,0.2,0.3,0.4,0.5,0.5c0.1,0.2,0.2,0.3,0.2,0.5l0.1,0.2c0-0.5,0-0.9,0-1.1c0.5-0.4,1.4-0.6,2.7-0.6
					c0.5,0,0.8,0,1.2,0.1c0.3,0,0.6,0.1,0.8,0.1s0.3,0.1,0.5,0.1c0.1,0,0.2,0.1,0.2,0.1l0,0c0,0.1,0.1,0.5,0.1,1.3
					c0,0.8,0,1.1-0.1,1.3c-0.2,0.3-0.6,0.4-1.1,0.4c-0.2,0-0.3,0-0.5,0c0,0.1,0.1,0.4,0.1,1c0,1.9-0.1,3-0.2,3.1
					c0.1,0,0.2-0.1,0.4-0.1s0.6,0.1,1.2,0.3c0.1,0.1,0.2,0.8,0.2,2c0,0.6,0,1.1-0.1,1.2c-0.1,0.2-0.4,0.3-1,0.5
					c-0.6,0.2-1.2,0.2-1.8,0.2c-1.8,0-2.8,0-3-0.1c-0.1-0.3-0.2-0.5-0.2-0.7c0-0.1,0-0.2,0.1-0.3c-0.2,0.1-0.7,0.3-1.5,0.7
					s-1.3,0.6-1.7,0.6c-1.2,0-2-0.5-2.6-1.5C164.1,6703.6,163.8,6702.4,163.8,6701z M166.8,6700.6c0,0.5,0.2,1,0.4,1.3
					c0.3,0.4,0.7,0.5,1.1,0.5c0.6,0,1.2-0.3,1.7-0.9c0.5-0.5,0.8-1.2,0.8-1.9c0-0.5-0.2-0.9-0.5-1.2c-0.3-0.3-0.7-0.5-1.2-0.5
					s-0.9,0.1-1.2,0.4c-0.4,0.3-0.7,0.7-0.9,1.1C166.9,6699.9,166.8,6700.2,166.8,6700.6z"/>
				<path class="st3" d="M177.7,6703.8c0-0.7,0-1.1,0.1-1.2s0.4-0.1,0.8-0.2c0.3,0,0.5-0.1,0.5-0.1c-0.2-0.9-0.2-2.3-0.2-4.4
					c0-2.4,0.1-4.5,0.2-6.4c-0.5,0-0.8,0-1-0.1c0-0.3,0-0.5,0-0.7c0-0.6,0.2-1.2,0.5-1.7c0.7-0.1,1.5-0.2,2.6-0.2
					c0.8,0,1.5,0.1,1.9,0.2c0.2,1.4,0.2,2.9,0.2,4.4c0,1.1,0,2.7-0.2,4.7c-0.1,2-0.2,3.5-0.2,4.2c0.1,0,0.2,0,0.4,0
					c0.4,0,0.8,0.1,1.1,0.2c0,0,0.1,0.2,0.1,0.4c0,0.3-0.1,0.8-0.2,1.4c-0.1,0.6-0.2,1-0.3,1.1c-0.2,0.1-1.1,0.2-2.5,0.2
					c-2.1,0-3.3-0.2-3.7-0.6C177.8,6705,177.7,6704.6,177.7,6703.8z"/>
				<path class="st3" d="M185.4,6700.8c0-0.7,0.2-1.4,0.4-2.1c0.3-0.7,0.7-1.4,1.2-2.1c0.5-0.6,1.2-1.2,2.2-1.6
					c0.9-0.4,1.9-0.6,3-0.6c1.2,0,2.2,0.2,2.9,0.8c0.7,0.6,1,1.2,1,2.1c0,1.2-0.6,2.3-1.8,3.1c-1.2,0.8-2.5,1.2-3.9,1.2
					c-0.4,0-0.8,0-1.2-0.1c0,1.1,1,1.6,2.8,1.6c0.3,0,0.6,0,0.8-0.1c0-0.1,0-0.2,0.1-0.4c0.7-0.5,1.4-0.8,2.1-0.8c0.2,0,0.2,0,0.3,0
					c1,0.5,1.6,1.4,1.8,2.6c0,0.1-0.1,0.2-0.2,0.4c-0.1,0.2-0.2,0.2-0.3,0.4c-0.1,0.2-0.2,0.2-0.5,0.3s-0.3,0.2-0.5,0.3
					c-0.1,0-0.3,0.1-0.5,0.3c-0.2,0.2-0.3,0.2-0.4,0.2c-0.1,0-0.2,0-0.2,0s-0.1,0-0.2-0.1l-0.1-0.1c0,0,0-0.1-0.1-0.2
					c0-0.1-0.1-0.1-0.1-0.1c-0.8,0.3-1.7,0.5-2.6,0.5c-2,0-3.6-0.5-4.7-1.5C185.9,6703.5,185.4,6702.2,185.4,6700.8z M189.7,6698.4
					c0,0.5,0.3,0.8,1.1,0.8c0.5,0,1-0.1,1.5-0.4c0.5-0.3,0.8-0.6,0.8-0.9c0-0.2-0.1-0.5-0.2-0.8c-0.2-0.3-0.5-0.4-0.8-0.4
					c-0.5,0-1,0.2-1.5,0.5C190,6697.6,189.7,6698,189.7,6698.4z"/>
				<path class="st3" d="M202.6,6692c0-1,0.1-1.6,0.3-1.9c0.5-0.1,1.7-0.2,3.7-0.2c2.2,0,3.4,0.1,3.6,0.2c0.2,0.4,0.3,1,0.3,2
					c0,0.4,0,0.6-0.1,0.7c-0.3,0.1-0.7,0.2-1.2,0.2c-0.3,0-0.5,0-0.8-0.1c0,0.9-0.1,1.9-0.1,3c0,2.2,0.2,4.3,0.8,6.1
					c0,0.1,0.5,0.2,1.5,0.2c0.8,0,1.4-0.1,1.7-0.3l-0.1-1.4c0.8-0.5,1.6-0.7,2.4-0.7c0.3,0,0.6,0.1,1,0.1c0.4,1.1,0.5,2.2,0.5,3.3
					c0,0.9-0.1,1.5-0.2,1.9c-0.6,0.2-1.7,0.4-3.4,0.5c-1.7,0.2-3.2,0.2-4.7,0.2c-2.3,0-4-0.2-4.9-0.7c-0.1-0.2-0.2-0.4-0.2-0.8
					c0-1.4,0.2-2.2,0.6-2.4c0.2-0.1,0.4-0.2,0.6-0.2c0,0,0.2,0,0.3,0c-0.2-2.8-0.3-4.7-0.3-5.7c0-0.5,0.1-1.6,0.2-3.4
					c-0.2,0.1-0.5,0.1-0.7,0.1c-0.3,0-0.6,0-0.8-0.1C202.6,6692.6,202.6,6692.4,202.6,6692z"/>
				<path class="st3" d="M217,6701c0-1.1,0.2-2.1,0.5-3.1s0.8-1.8,1.6-2.5c0.7-0.7,1.6-1.1,2.6-1.1c0.4,0,0.8,0.1,1.1,0.2
					s0.6,0.3,0.8,0.4c0.2,0.2,0.3,0.4,0.5,0.5c0.1,0.2,0.2,0.3,0.2,0.5l0.1,0.2c0-0.5,0-0.9,0-1.1c0.5-0.4,1.4-0.6,2.7-0.6
					c0.5,0,0.8,0,1.2,0.1c0.3,0,0.6,0.1,0.8,0.1s0.3,0.1,0.5,0.1c0.1,0,0.2,0.1,0.2,0.1l0,0c0,0.1,0.1,0.5,0.1,1.3
					c0,0.8,0,1.1-0.1,1.3c-0.2,0.3-0.6,0.4-1.1,0.4c-0.2,0-0.3,0-0.5,0c0,0.1,0.1,0.4,0.1,1c0,1.9-0.1,3-0.2,3.1
					c0.1,0,0.2-0.1,0.4-0.1s0.6,0.1,1.2,0.3c0.1,0.1,0.2,0.8,0.2,2c0,0.6,0,1.1-0.1,1.2c-0.1,0.2-0.4,0.3-1,0.5
					c-0.6,0.2-1.2,0.2-1.8,0.2c-1.8,0-2.8,0-3-0.1c-0.1-0.3-0.2-0.5-0.2-0.7c0-0.1,0-0.2,0.1-0.3c-0.2,0.1-0.7,0.3-1.5,0.7
					s-1.3,0.6-1.7,0.6c-1.2,0-2-0.5-2.6-1.5C217.2,6703.6,217,6702.4,217,6701z M220,6700.6c0,0.5,0.2,1,0.4,1.3
					c0.3,0.4,0.7,0.5,1.1,0.5c0.6,0,1.2-0.3,1.7-0.9c0.5-0.5,0.8-1.2,0.8-1.9c0-0.5-0.2-0.9-0.5-1.2c-0.3-0.3-0.7-0.5-1.2-0.5
					s-0.9,0.1-1.2,0.4c-0.4,0.3-0.7,0.7-0.9,1.1C220,6699.9,220,6700.2,220,6700.6z"/>
				<path class="st3" d="M230.7,6696.9c0-1,0.1-1.6,0.2-1.9c1.1-0.3,2.2-0.5,3.1-0.5c1,0,1.9,0.1,2.7,0.4c0.1,0.1,0.2,0.4,0.3,0.8
					c0.1,0.5,0.2,0.9,0.2,1.2c0,0.5-0.1,0.9-0.4,1.3c-0.2,0.1-0.4,0.1-0.6,0.1c-0.1,0-0.1,0-0.2,0s-0.1,0-0.1-0.1h-0.1
					c-0.1,0.4-0.1,0.9-0.1,1.2c0,0.9,0.2,1.5,0.7,2c0.4,0.5,1,0.7,1.6,0.7s1.1-0.3,1.6-0.8s0.7-1.2,0.7-2.2c0-0.4,0-0.8-0.1-1.2
					c-0.2,0.1-0.4,0.2-0.7,0.2c-0.2,0-0.3-0.1-0.3-0.1c-0.2-0.1-0.3-0.6-0.3-1.4c0-0.8,0.1-1.2,0.3-1.4c1-0.5,2.3-0.8,3.7-0.8
					c1.6,0,2.6,0.2,2.9,0.6c0.2,0.2,0.2,0.6,0.2,1c0,0.9-0.2,1.4-0.7,1.6c-0.2,0.1-0.4,0.2-0.6,0.2c-0.1,0-0.2,0-0.3,0
					c0,0.4,0,1.1,0,2.1s0,1.7,0,2.2c0.5,0,0.7,0,0.8,0c0.2,0,0.3,0,0.4,0c0.1,0,0.1,0.2,0.1,0.5c0,0.4-0.1,0.9-0.2,1.5
					c-0.2,0.6-0.3,1-0.4,1.1c-0.2,0.1-0.5,0.2-1.2,0.3c-0.6,0.1-1.2,0.2-1.8,0.2c-0.7,0-1.2-0.1-1.6-0.3c-0.1-0.1-0.2-0.3-0.2-0.6
					c0,0,0-0.3,0.1-0.8c-1.6,1.2-3.1,1.8-4.5,1.8c-1.2,0-2.2-0.4-2.8-1.2c-0.7-0.9-1.1-2.1-1.1-3.9c0-0.3,0-1.1,0.2-2.5
					c0,0-0.1,0.1-0.2,0.1c-0.2,0-0.5,0-1-0.1C230.8,6698.2,230.7,6697.7,230.7,6696.9z"/>
				<path class="st3" d="M247,6700.6c0-2.1,0.7-3.6,2-4.7s3.2-1.6,5.8-1.6l0.2-0.6c0.4-0.1,0.8-0.1,1.2-0.1c0.9,0,1.7,0.2,2.4,0.8
					c0,0.2,0.1,0.5,0.1,0.9c0,0.8-0.1,1.4-0.4,2c-0.2,0.5-0.6,0.9-1,1c-0.7,0.2-1.2,0.4-1.8,0.4c-0.5,0-1-0.1-1.5-0.4l0.2-0.8
					c-0.3-0.1-0.7-0.2-1-0.2c-0.7,0-1.2,0.3-1.7,1c-0.5,0.7-0.7,1.3-0.7,2.1c0,0.6,0.2,1.2,0.5,1.7s0.7,0.8,1.1,0.8
					c0.4,0,0.9-0.2,1.5-0.5l-0.2-0.6c0.7-0.5,1.5-0.8,2.4-0.8c0.3,0,0.7,0,1.2,0.1c0.9,1,1.4,2.2,1.4,3.6c0,0.3,0,0.6-0.1,0.9
					c-0.8,0.5-1.8,0.8-2.8,0.8c-0.2,0-0.4,0-0.7,0l-0.2-0.6c-1,0.2-1.9,0.3-2.7,0.3c-1.6,0-2.9-0.5-3.8-1.3
					C247.5,6703.8,247,6702.5,247,6700.6z"/>
				<path class="st3" d="M259.1,6691.3c0-1.1,0.2-1.8,0.6-2c0.5-0.3,1.4-0.4,2.8-0.4c0.7,0,1.5,0.1,2.3,0.3c0.3,0.5,0.5,1.8,0.5,3.9
					c0,1.5-0.1,2.5-0.2,3c1.6-1.2,3.1-1.8,4.5-1.8c1.2,0,2.1,0.4,2.8,1.3s1.1,2.1,1.1,3.9c0,0.3,0,1.1-0.2,2.5c0,0,0.1,0,0.2,0
					c0.2,0,0.6,0,1,0.1c0.1,0.1,0.2,0.6,0.2,1.5c0,1-0.1,1.7-0.2,2c-1.1,0.2-2.2,0.4-3.1,0.4c-1,0-1.9-0.1-2.7-0.3
					c-0.1-0.1-0.2-0.4-0.3-0.8c-0.1-0.5-0.2-0.9-0.2-1.2c0-0.5,0.1-0.9,0.4-1.3c0.2-0.1,0.4-0.1,0.6-0.1c0.1,0,0.1,0,0.2,0
					s0.1,0,0.1,0h0.1c0.1-0.5,0.1-0.9,0.1-1.2c0-0.9-0.2-1.5-0.6-2s-0.9-0.7-1.5-0.7s-1.2,0.3-1.6,0.8c-0.5,0.6-0.7,1.3-0.7,2.2
					c0,0.4,0,0.8,0.1,1.2c0.2-0.1,0.4-0.2,0.6-0.2s0.4,0,0.5,0.1c0.1,0,0.2,0.3,0.2,0.9c0,0.1-0.1,0.8-0.2,1.9
					c-1.1,0.5-2.3,0.7-3.8,0.7c-1.7,0-2.6-0.2-2.9-0.6c-0.1-0.2-0.2-0.4-0.2-0.8c0-1.1,0.2-1.7,0.6-1.9c0.2-0.1,0.5-0.2,0.8-0.2
					c0.1,0,0.2,0,0.3,0c-0.2-1-0.2-3.1-0.2-6.1c0-2,0-3.3,0.2-3.8c-0.2,0.1-0.6,0.1-1.1,0.1c-0.3,0-0.7,0-0.9-0.1
					C259.1,6692.2,259.1,6691.9,259.1,6691.3z"/>
			</g>
		</g>
	</g>
	<g id="Step-26">
		<g>
			<path class="st0" d="M252.6,5957.6c0.1-0.5-0.3-1-0.8-1c-1.8-0.2-3.2-0.6-4.2-1c-0.4-0.2-2.6-1.1-5.1-1.5c-0.4-0.1-0.8-0.1-1.4,0
				c-1.1,0.2-2.5,0.9-3.1,2.2c-0.6,1.4,0.1,2.8,0.3,3.2c1.9,3.7,10.2,3.4,12.8,3.2c0.4-0.1,0.8-0.4,0.8-0.8
				C252.2,5960.4,252.5,5959,252.6,5957.6z"/>
			<path class="st0" d="M258.2,5961.6c0.6-0.9,0.9-2.1,0.3-3.2c-0.6-1.3-2.2-2-4-1.8c-0.4,0.1-0.8,0.4-0.8,0.8l-0.6,4.4
				c-0.1,0.5,0.3,1,0.7,1.1C255.6,5963.3,257.3,5962.8,258.2,5961.6z"/>
		</g>
		<g>
			<path class="st0" d="M285.9,5945.9c0-0.4-0.4-0.7-0.8-0.8c-2.5-0.3-10.9-1-12.9,2.7c-0.2,0.4-1,1.8-0.4,3.2
				c0.4,1.3,1.9,2.1,3,2.3c0.6,0.2,0.9,0.1,1.4,0.1c2.5-0.3,4.7-1.1,5.1-1.3c0.9-0.3,2.4-0.7,4.2-0.9c0.5,0,0.9-0.4,0.8-1
				C286.2,5948.8,286.1,5947.4,285.9,5945.9z"/>
			<path class="st0" d="M287.8,5945c-0.5,0.1-0.8,0.5-0.8,1l0.4,4.4c0,0.4,0.4,0.7,0.7,0.8c1.7,0.3,3.3-0.3,4-1.6
				c0.6-1.1,0.3-2.4-0.2-3.2C291.3,5945.3,289.6,5944.7,287.8,5945z"/>
		</g>
	</g>
	<g id="Step-25">
		<g>
			<path class="st0" d="M326,5142.9c0-0.5-0.5-0.9-1-0.8c-1.8,0.2-3.3,0.1-4.3-0.1c-0.4-0.1-2.8-0.5-5.3-0.4c-0.4,0-0.8,0.1-1.4,0.3
				c-1,0.4-2.3,1.4-2.6,2.8c-0.3,1.5,0.7,2.7,0.9,3.1c2.6,3.2,10.7,1.3,13.2,0.5c0.4-0.2,0.7-0.6,0.6-0.9
				C326.1,5145.7,326.2,5144.3,326,5142.9z"/>
			<path class="st0" d="M332.3,5145.7c0.4-1,0.5-2.2-0.4-3.2c-0.9-1.2-2.6-1.5-4.3-1c-0.4,0.2-0.7,0.6-0.6,0.9l0.3,4.4
				c0,0.5,0.5,0.9,0.9,0.9C330.1,5147.9,331.6,5147,332.3,5145.7z"/>
		</g>
		<g>
			<path class="st0" d="M285.9,5135.9c0-0.4-0.4-0.7-0.8-0.8c-2.5-0.3-10.9-1-12.9,2.7c-0.2,0.4-1,1.8-0.4,3.2
				c0.4,1.3,1.9,2.1,3,2.3c0.6,0.2,0.9,0.1,1.4,0.1c2.5-0.3,4.7-1.1,5.1-1.3c0.9-0.3,2.4-0.7,4.2-0.9c0.5,0,0.9-0.4,0.8-1
				C286.2,5138.8,286.1,5137.4,285.9,5135.9z"/>
			<path class="st0" d="M287.8,5135c-0.5,0.1-0.8,0.5-0.8,1l0.4,4.4c0,0.4,0.4,0.7,0.7,0.8c1.7,0.3,3.3-0.3,4-1.6
				c0.6-1.1,0.3-2.4-0.2-3.2C291.3,5135.3,289.6,5134.7,287.8,5135z"/>
		</g>
	</g>
	<g id="Step-24">
		<g>
			<path class="st0" d="M326,4332.9c0-0.5-0.5-0.9-1-0.8c-1.8,0.2-3.3,0.1-4.3-0.1c-0.4-0.1-2.8-0.5-5.3-0.4c-0.4,0-0.8,0.1-1.4,0.3
				c-1,0.4-2.3,1.4-2.6,2.8c-0.3,1.5,0.7,2.7,0.9,3.1c2.6,3.2,10.7,1.3,13.2,0.5c0.4-0.2,0.7-0.6,0.6-0.9
				C326.1,4335.7,326.2,4334.3,326,4332.9z"/>
			<path class="st0" d="M332.3,4335.7c0.4-1,0.5-2.2-0.4-3.2c-0.9-1.2-2.6-1.5-4.3-1c-0.4,0.2-0.7,0.6-0.6,0.9l0.3,4.4
				c0,0.5,0.5,0.9,0.9,0.9C330.1,4337.9,331.6,4337,332.3,4335.7z"/>
		</g>
		<g>
			<path class="st0" d="M361.3,4321.6c0.1-0.4-0.1-0.8-0.5-1.1c-2.3-1.1-9.9-4.6-13.1-1.9c-0.3,0.3-1.5,1.4-1.5,2.9
				c0,1.4,1.1,2.6,2,3.2c0.5,0.3,0.9,0.4,1.3,0.5c2.5,0.5,4.8,0.6,5.3,0.5c1,0,2.5,0.1,4.3,0.6c0.5,0.1,1-0.1,1.1-0.7
				C360.7,4324.4,361,4323,361.3,4321.6z"/>
			<path class="st0" d="M363.5,4321.4c-0.5,0-0.9,0.2-1.1,0.7l-1.1,4.3c-0.1,0.4,0.1,0.8,0.4,1c1.5,0.8,3.2,0.8,4.3-0.2
				c0.9-0.8,1.1-2.1,0.9-3.1C366.6,4322.8,365.2,4321.6,363.5,4321.4z"/>
		</g>
	</g>
	<g id="Step-23">
		<g>
			<path class="st0" d="M390.7,3535.4c0.2-0.5-0.2-1-0.7-1.1c-1.8-0.4-3.1-1-4-1.6c-0.4-0.3-2.4-1.4-4.8-2.2
				c-0.4-0.2-0.8-0.2-1.4-0.2c-1.1,0-2.6,0.6-3.4,1.8c-0.8,1.3-0.3,2.8-0.1,3.2c1.4,3.9,9.6,4.8,12.2,4.9c0.4,0,0.8-0.3,0.9-0.7
				C389.9,3538.2,390.4,3536.8,390.7,3535.4z"/>
			<path class="st0" d="M395.7,3540.2c0.7-0.8,1.2-2,0.7-3.1c-0.4-1.4-1.9-2.3-3.7-2.3c-0.4,0-0.8,0.3-0.9,0.7l-1.2,4.3
				c-0.2,0.5,0.2,1,0.5,1.2C392.9,3541.5,394.7,3541.2,395.7,3540.2z"/>
		</g>
		<g>
			<path class="st0" d="M361.3,3511.6c0.1-0.4-0.1-0.8-0.5-1.1c-2.3-1.1-9.9-4.6-13.1-1.9c-0.3,0.3-1.5,1.4-1.5,2.9
				c0,1.4,1.1,2.6,2,3.2c0.5,0.3,0.9,0.4,1.3,0.5c2.5,0.5,4.8,0.6,5.3,0.5c1,0,2.5,0.1,4.3,0.6c0.5,0.1,1-0.1,1.1-0.7
				C360.7,3514.4,361,3513,361.3,3511.6z"/>
			<path class="st0" d="M363.5,3511.4c-0.5,0-0.9,0.2-1.1,0.7l-1.1,4.3c-0.1,0.4,0.1,0.8,0.4,1c1.5,0.8,3.2,0.8,4.3-0.2
				c0.9-0.8,1.1-2.1,0.9-3.1C366.6,3512.8,365.2,3511.6,363.5,3511.4z"/>
		</g>
	</g>
	<g id="Step-22">
		<g>
			<path class="st0" d="M390.7,2725.4c0.2-0.5-0.2-1-0.7-1.1c-1.8-0.4-3.1-1-4-1.6c-0.4-0.3-2.4-1.4-4.8-2.2
				c-0.4-0.2-0.8-0.2-1.4-0.2c-1.1,0-2.6,0.6-3.4,1.8c-0.8,1.3-0.3,2.8-0.1,3.2c1.4,3.9,9.6,4.8,12.2,4.9c0.4,0,0.8-0.3,0.9-0.7
				C389.9,2728.2,390.4,2726.8,390.7,2725.4z"/>
			<path class="st0" d="M395.7,2730.2c0.7-0.8,1.2-2,0.7-3.1c-0.4-1.4-1.9-2.3-3.7-2.3c-0.4,0-0.8,0.3-0.9,0.7l-1.2,4.3
				c-0.2,0.5,0.2,1,0.5,1.2C392.9,2731.5,394.7,2731.2,395.7,2730.2z"/>
		</g>
		<g>
			<path class="st0" d="M432.6,2727.6c0.2-0.4,0-0.8-0.4-1.1c-2.2-1.3-9.4-5.5-12.8-3.1c-0.4,0.2-1.7,1.2-1.8,2.7
				c-0.2,1.4,0.8,2.7,1.7,3.4c0.4,0.4,0.8,0.5,1.2,0.6c2.4,0.8,4.7,1,5.2,1c1,0.1,2.5,0.4,4.2,1c0.5,0.2,1,0,1.1-0.6
				C431.7,2730.4,432.2,2729,432.6,2727.6z"/>
			<path class="st0" d="M434.8,2727.6c-0.5-0.1-0.9,0.1-1.1,0.6l-1.5,4.2c-0.2,0.4,0,0.8,0.3,1.1c1.4,1,3.1,1.1,4.3,0.2
				c1-0.7,1.3-2,1.2-3C437.8,2729.3,436.5,2728,434.8,2727.6z"/>
		</g>
	</g>
	<g id="Step-21">
		<g>
			<path class="st0" d="M464.7,1932.4c0.1-0.5-0.3-1-0.8-1c-1.8-0.1-3.2-0.5-4.2-0.8c-0.4-0.2-2.6-1-5.2-1.3
				c-0.4-0.1-0.8-0.1-1.4,0.1c-1.1,0.2-2.5,1-3,2.3c-0.5,1.4,0.2,2.8,0.4,3.2c2.1,3.6,10.3,2.9,12.9,2.6c0.4-0.1,0.8-0.4,0.8-0.8
				C464.4,1935.3,464.6,1933.8,464.7,1932.4z"/>
			<path class="st0" d="M470.4,1936.2c0.6-0.9,0.8-2.1,0.2-3.2c-0.7-1.3-2.3-1.9-4.1-1.6c-0.4,0.1-0.8,0.4-0.8,0.8l-0.4,4.4
				c-0.1,0.5,0.3,1,0.7,1.1C467.9,1938,469.6,1937.4,470.4,1936.2z"/>
		</g>
		<g>
			<path class="st0" d="M432.6,1917.6c0.2-0.4,0-0.8-0.4-1.1c-2.2-1.3-9.4-5.5-12.8-3.1c-0.4,0.2-1.7,1.2-1.8,2.7
				c-0.2,1.4,0.8,2.7,1.7,3.4c0.4,0.4,0.8,0.5,1.2,0.6c2.4,0.8,4.7,1,5.2,1c1,0.1,2.5,0.4,4.2,1c0.5,0.2,1,0,1.1-0.6
				C431.7,1920.4,432.2,1919,432.6,1917.6z"/>
			<path class="st0" d="M434.8,1917.6c-0.5-0.1-0.9,0.1-1.1,0.6l-1.5,4.2c-0.2,0.4,0,0.8,0.3,1.1c1.4,1,3.1,1.1,4.3,0.2
				c1-0.7,1.3-2,1.2-3C437.8,1919.3,436.5,1918,434.8,1917.6z"/>
		</g>
	</g>
	<g id="Step-20">
		<g>
			<path class="st0" d="M464.7,1122.4c0.1-0.5-0.3-1-0.8-1c-1.8-0.1-3.2-0.5-4.2-0.8c-0.4-0.2-2.6-1-5.2-1.3
				c-0.4-0.1-0.8-0.1-1.4,0.1c-1.1,0.2-2.5,1-3,2.3c-0.5,1.4,0.2,2.8,0.4,3.2c2.1,3.6,10.3,2.9,12.9,2.6c0.4-0.1,0.8-0.4,0.8-0.8
				C464.4,1125.3,464.6,1123.8,464.7,1122.4z"/>
			<path class="st0" d="M470.4,1126.2c0.6-0.9,0.8-2.1,0.2-3.2c-0.7-1.3-2.3-1.9-4.1-1.6c-0.4,0.1-0.8,0.4-0.8,0.8l-0.4,4.4
				c-0.1,0.5,0.3,1,0.7,1.1C467.9,1128,469.6,1127.4,470.4,1126.2z"/>
		</g>
		<g>
			<path class="st0" d="M501.6,1117.3c0.2-0.4,0-0.8-0.4-1.1c-2.1-1.4-9.2-5.8-12.7-3.5c-0.4,0.2-1.7,1.1-1.8,2.7
				c-0.2,1.4,0.7,2.7,1.6,3.4c0.4,0.4,0.8,0.5,1.2,0.7c2.4,0.9,4.7,1.2,5.2,1.2c1,0.1,2.5,0.5,4.1,1.2c0.5,0.2,1,0,1.2-0.6
				C500.5,1120.1,501,1118.8,501.6,1117.3z"/>
			<path class="st0" d="M503.7,1117.4c-0.5-0.1-0.9,0.1-1.2,0.6l-1.7,4.1c-0.2,0.4,0,0.8,0.3,1.1c1.4,1,3.1,1.2,4.3,0.4
				c1-0.7,1.4-1.9,1.3-3C506.7,1119.2,505.4,1117.9,503.7,1117.4z"/>
		</g>
	</g>
	<g id="Step-19">
		<g>
			<path class="st0" d="M532.1,333.6c0.2-0.5-0.1-1-0.6-1.2c-1.7-0.6-3-1.3-3.9-1.9c-0.3-0.3-2.3-1.7-4.6-2.6
				c-0.4-0.2-0.8-0.3-1.4-0.3c-1.1-0.1-2.6,0.3-3.5,1.4c-0.9,1.2-0.5,2.8-0.4,3.2c1,4,9.2,5.6,11.8,6c0.4,0,0.9-0.2,1-0.6
				C531.1,336.2,531.7,334.9,532.1,333.6z"/>
			<path class="st0" d="M536.6,338.7c0.8-0.7,1.3-1.8,1-3.1c-0.3-1.4-1.7-2.4-3.5-2.7c-0.4,0-0.9,0.2-1,0.6l-1.6,4.2
				c-0.2,0.5,0.1,1,0.4,1.2C533.7,339.8,535.5,339.7,536.6,338.7z"/>
		</g>
		<g>
			<path class="st0" d="M501.6,307.3c0.2-0.4,0-0.8-0.4-1.1c-2.1-1.4-9.2-5.8-12.7-3.5c-0.4,0.2-1.7,1.1-1.8,2.7
				c-0.2,1.4,0.7,2.7,1.6,3.4c0.4,0.4,0.8,0.5,1.2,0.7c2.4,0.9,4.7,1.2,5.2,1.2c1,0.1,2.5,0.5,4.1,1.2c0.5,0.2,1,0,1.2-0.6
				C500.5,310.1,501,308.8,501.6,307.3z"/>
			<path class="st0" d="M503.7,307.4c-0.5-0.1-0.9,0.1-1.2,0.6l-1.7,4.1c-0.2,0.4,0,0.8,0.3,1.1c1.4,1,3.1,1.2,4.3,0.4
				c1-0.7,1.4-1.9,1.3-3C506.7,309.2,505.4,307.9,503.7,307.4z"/>
		</g>
	</g>
</g>
</svg>
