<?xml version="1.0" encoding="utf-8"?>
<!-- Generator: Adobe Illustrator 26.4.1, SVG Export Plug-In . SVG Version: 6.00 Build 0)  -->
<svg version="1.1" id="FQT-Animation" xmlns="http://www.w3.org/2000/svg" xmlns:xlink="http://www.w3.org/1999/xlink" x="0px"
	 y="0px" viewBox="0 0 1080 6480" style="enable-background:new 0 0 1080 6480;" xml:space="preserve">
<style type="text/css">
	.st0{stroke:#000000;stroke-width:0.3411;stroke-miterlimit:10;}
	.st1{fill:#FFFFFF;stroke:#000000;stroke-width:0.5;stroke-opacity:0.4;stroke-linecap:round;stroke-linejoin:round;stroke-miterlimit:10;}
	.st2{display:none;}
	.st3{display:inline;}
</style>
<g id="Walk-5">
	<g id="Step-48">
		<g id="Footsteps">
			<g>
				<path class="st0" d="M503.3,6230.4c0.1,0.4,0.5,0.6,1,0.7c2.6-0.2,10.9-1,12.3-5c0.1-0.4,0.6-1.9-0.2-3.2
					c-0.7-1.2-2.2-1.7-3.3-1.8c-0.6-0.1-0.9,0.1-1.3,0.2c-2.4,0.8-4.4,1.9-4.8,2.2c-0.9,0.5-2.2,1.1-4,1.6c-0.5,0.1-0.8,0.6-0.6,1.1
					C502.5,6227.6,502.9,6228.9,503.3,6230.4z"/>
				<path class="st0" d="M501.6,6231.6c0.5-0.2,0.7-0.6,0.6-1.1l-1.2-4.3c-0.1-0.4-0.5-0.6-0.9-0.7c-1.7,0-3.2,0.9-3.7,2.3
					c-0.4,1.2,0.1,2.4,0.8,3.2C498.1,6232,499.9,6232.3,501.6,6231.6z"/>
			</g>
			<g>
				<path class="st0" d="M500.4,6222.1c0.2,0.5,0.8,0.7,1.2,0.4c1.6-0.8,3-1.2,4.1-1.3c0.4,0,2.8-0.4,5.1-1.4
					c0.4-0.1,0.7-0.3,1.2-0.7c0.8-0.7,1.7-2.1,1.5-3.5c-0.2-1.5-1.5-2.3-1.9-2.6c-3.6-2.2-10.5,2.4-12.6,3.9
					c-0.3,0.3-0.5,0.8-0.3,1.1C499.3,6219.5,499.8,6220.9,500.4,6222.1z"/>
				<path class="st0" d="M493.5,6221.7c0,1.1,0.3,2.3,1.4,2.9c1.2,0.8,2.9,0.6,4.4-0.5c0.3-0.3,0.5-0.8,0.3-1.1l-1.8-4.1
					c-0.2-0.5-0.8-0.7-1.2-0.6C494.9,6218.8,493.7,6220.2,493.5,6221.7z"/>
			</g>
		</g>
		<g id="Sign_00000156558194394858027890000010846547609407926197_">
			<path class="st1" d="M633.7,6012.1H429.4c-10.4,0-18.9,8.4-18.9,18.9v83.4c0,10.4,8.5,18.9,18.9,18.9h93c3,8.3,6,16.5,9,24.8
				c3.5-8.3,7.1-16.5,10.7-24.8h91.7c10.4,0,18.9-8.5,18.9-18.9V6031C652.6,6020.6,644.1,6012.1,633.7,6012.1z"/>
			<g class="st2">
				<path class="st3" d="M449,6037.7c0-0.6,0.1-1,0.3-1.4c0.2-0.2,1.4-0.3,3.5-0.3c0.9,0,1.8,0,2.6,0.1s1.2,0.1,1.2,0.2
					c0.3,0.2,0.5,0.8,0.5,1.8c0,0.3,0,0.5-0.1,0.6c0,0.1,0,0.2-0.2,0.2s-0.2,0.1-0.4,0.1c-0.4,0-0.7,0-0.7-0.1c0,0-0.1,0.1-0.1,0.2
					c0,0.5,0,1,0,1.5s0.1,1,0.2,1.4c0.1,0.5,0.2,0.9,0.2,1.2c0,0.3,0.2,0.7,0.4,1.3s0.3,0.9,0.4,1.1s0.2,0.6,0.5,1.2
					c0.3,0.6,0.4,1,0.5,1.2c0.5-1.1,0.8-1.9,1.1-2.6c0.2-0.7,0.5-1.6,0.8-2.8c0.2-1.1,0.3-2.4,0.3-3.6c0-0.1,0-0.2-0.1-0.2
					c0,0.1-0.2,0.1-0.7,0.1c-0.2,0-0.3,0-0.4-0.1c-0.1-0.1-0.2-0.1-0.2-0.2s-0.1-0.4-0.1-0.6c0-1,0.2-1.6,0.5-1.8
					c0-0.1,0.4-0.1,1.2-0.2c0.8-0.1,1.7-0.1,2.6-0.1c2.2,0,3.3,0.1,3.5,0.3c0.2,0.2,0.3,0.6,0.3,1.2c0,0.8-0.1,1.3-0.4,1.5
					c-0.1,0.1-0.3,0.1-0.5,0.1c-0.4,0-0.7-0.1-0.8-0.1c0,0.8-0.7,3-2,6.8c-1.3,3.8-2.2,5.7-2.5,5.9c-0.7,0.3-1.6,0.4-2.8,0.4
					c-1.5,0-2.4-0.1-2.8-0.4c-0.3-0.1-1.2-2.1-2.5-5.9c-1.3-3.8-2-6-2-6.7c0-0.1,0-0.1,0-0.1c-0.3,0.1-0.6,0.2-0.8,0.2
					s-0.3,0-0.5-0.1C449.2,6039,449,6038.5,449,6037.7z"/>
				<path class="st3" d="M466.4,6047.1c0-1.1,0.2-2.1,0.5-3.1s0.8-1.8,1.6-2.6c0.7-0.7,1.6-1.1,2.6-1.1c0.4,0,0.8,0.1,1.1,0.2
					c0.3,0.1,0.6,0.3,0.8,0.4c0.2,0.1,0.3,0.4,0.5,0.5c0.1,0.2,0.2,0.3,0.2,0.4l0.1,0.2c0-0.5,0-0.9,0-1.1c0.5-0.4,1.4-0.6,2.7-0.6
					c0.5,0,0.8,0,1.2,0.1c0.3,0,0.6,0.1,0.8,0.1s0.3,0.1,0.5,0.1c0.1,0.1,0.2,0.1,0.2,0.1l0,0c0,0.1,0.1,0.6,0.1,1.3s0,1.1-0.1,1.3
					c-0.2,0.3-0.6,0.4-1.1,0.4c-0.2,0-0.3,0-0.5-0.1c0,0.1,0.1,0.4,0.1,1.1c0,1.9-0.1,2.9-0.2,3.1c0.1-0.1,0.2-0.1,0.4-0.1
					s0.6,0.1,1.2,0.3c0.1,0.1,0.2,0.8,0.2,2c0,0.6,0,1.1-0.1,1.2c-0.1,0.2-0.4,0.3-1,0.5c-0.6,0.1-1.2,0.2-1.8,0.2
					c-1.8,0-2.8,0-3-0.1c-0.1-0.3-0.2-0.5-0.2-0.7c0-0.1,0-0.2,0.1-0.3c-0.2,0.1-0.7,0.3-1.5,0.7s-1.3,0.6-1.7,0.6
					c-1.2,0-2-0.5-2.6-1.5C466.7,6049.7,466.4,6048.5,466.4,6047.1z M469.4,6046.7c0,0.5,0.2,1,0.4,1.3c0.3,0.4,0.7,0.6,1.1,0.6
					c0.6,0,1.2-0.3,1.7-0.9c0.5-0.6,0.8-1.2,0.8-1.9c0-0.5-0.2-0.9-0.5-1.2c-0.3-0.3-0.7-0.5-1.2-0.5s-0.9,0.1-1.2,0.4
					c-0.4,0.3-0.7,0.7-0.9,1.1C469.5,6046,469.4,6046.3,469.4,6046.7z"/>
				<path class="st3" d="M480.4,6049.9c0-0.7,0-1.1,0.1-1.2c0.1-0.1,0.4-0.1,0.8-0.2c0.3-0.1,0.5-0.1,0.5-0.1
					c-0.2-0.9-0.2-2.3-0.2-4.4c0-2.4,0.1-4.6,0.2-6.4c-0.5,0-0.8,0-1-0.1c0-0.3,0-0.6,0-0.7c0-0.6,0.2-1.2,0.5-1.7
					c0.7-0.1,1.5-0.2,2.6-0.2c0.8,0,1.5,0.1,1.9,0.2c0.2,1.4,0.2,2.9,0.2,4.4c0,1.1,0,2.7-0.2,4.7s-0.2,3.4-0.2,4.2
					c0.1,0,0.2,0,0.4,0c0.4,0,0.8,0.1,1.1,0.2c0,0.1,0.1,0.2,0.1,0.4c0,0.3-0.1,0.8-0.2,1.4s-0.2,1-0.3,1.1
					c-0.2,0.1-1.1,0.2-2.5,0.2c-2.1,0-3.3-0.2-3.7-0.6C480.4,6051.1,480.4,6050.7,480.4,6049.9z"/>
				<path class="st3" d="M488,6049.9c0-0.7,0-1.1,0.1-1.2c0.1-0.1,0.4-0.1,0.8-0.2c0.3-0.1,0.5-0.1,0.5-0.1
					c-0.2-0.9-0.2-2.3-0.2-4.4c0-2.4,0.1-4.6,0.2-6.4c-0.5,0-0.8,0-1-0.1c0-0.3,0-0.6,0-0.7c0-0.6,0.2-1.2,0.5-1.7
					c0.7-0.1,1.5-0.2,2.6-0.2c0.8,0,1.5,0.1,1.9,0.2c0.2,1.4,0.2,2.9,0.2,4.4c0,1.1,0,2.7-0.2,4.7s-0.2,3.4-0.2,4.2
					c0.1,0,0.2,0,0.4,0c0.4,0,0.8,0.1,1.1,0.2c0,0.1,0.1,0.2,0.1,0.4c0,0.3-0.1,0.8-0.2,1.4s-0.2,1-0.3,1.1
					c-0.2,0.1-1.1,0.2-2.5,0.2c-2.1,0-3.3-0.2-3.7-0.6C488,6051.1,488,6050.7,488,6049.9z"/>
				<path class="st3" d="M495.6,6046.9c0-0.7,0.2-1.4,0.4-2.1c0.3-0.7,0.7-1.4,1.2-2.1c0.5-0.6,1.2-1.2,2.2-1.6
					c0.9-0.4,1.9-0.6,3-0.6c1.2,0,2.2,0.2,2.9,0.8c0.7,0.6,1,1.2,1,2.1c0,1.2-0.6,2.3-1.8,3.1c-1.2,0.8-2.5,1.2-3.9,1.2
					c-0.4,0-0.8,0-1.2-0.1c0,1.1,1,1.6,2.8,1.6c0.3,0,0.6,0,0.8-0.1c0-0.1,0-0.2,0.1-0.4c0.7-0.5,1.4-0.8,2.1-0.8c0.2,0,0.2,0,0.3,0
					c1,0.5,1.6,1.4,1.8,2.6c0,0.1-0.1,0.2-0.2,0.4c-0.1,0.2-0.2,0.2-0.3,0.4c-0.1,0.2-0.2,0.2-0.5,0.3s-0.3,0.2-0.5,0.3
					c-0.1,0.1-0.3,0.1-0.5,0.3c-0.2,0.2-0.3,0.2-0.4,0.2s-0.2,0-0.2,0s-0.1-0.1-0.2-0.1s-0.1-0.1-0.1-0.1s0-0.1-0.1-0.2
					s-0.1-0.1-0.1-0.1c-0.8,0.3-1.7,0.5-2.6,0.5c-2,0-3.6-0.5-4.7-1.6C496.1,6049.6,495.6,6048.3,495.6,6046.9z M500,6044.5
					c0,0.5,0.3,0.8,1.1,0.8c0.5,0,1-0.1,1.5-0.4c0.5-0.3,0.8-0.6,0.8-0.9c0-0.2-0.1-0.5-0.2-0.8c-0.2-0.3-0.5-0.4-0.8-0.4
					c-0.5,0-1,0.2-1.5,0.6C500.2,6043.7,500,6044.1,500,6044.5z"/>
				<path class="st3" d="M507.2,6056.7c0-0.7,0.1-1.6,0.3-2.6s0.4-1.6,0.5-1.8c0.2-0.1,0.4-0.1,0.6-0.1c0.7,0,1.2,0.2,1.8,0.5
					c0,0,0,0.1,0,0.3c0,0.1,0,0.2,0,0.4c0.2,0.1,0.5,0.1,0.9,0.2s0.7,0.1,0.8,0.2c0.2,0.1,0.4,0.1,0.6,0.1c0.2,0.1,0.5,0.1,0.7,0.1
					s0.4,0,0.7,0c1.2,0,2.1-0.3,2.7-0.8s0.9-1.5,1-2.8c-1.5,1.2-3.1,1.8-4.7,1.8c-2.7,0-4-1.8-4-5.5c0-0.9,0-1.6,0.2-2.3
					c0,0-0.1,0-0.2,0c-0.2,0-0.6,0-1-0.1c-0.2-0.3-0.3-0.9-0.3-1.6c0-0.9,0.1-1.4,0.3-1.8c1.2-0.3,2.2-0.5,3.2-0.5s1.9,0.1,2.6,0.4
					c0.3,0.4,0.5,0.9,0.5,1.7c0,0.7-0.1,1.2-0.3,1.6c-0.2,0.1-0.3,0.2-0.5,0.2c-0.1,0-0.1,0-0.1,0s0,0-0.1-0.1l-0.1-0.1
					c-0.1,0.4-0.1,0.9-0.1,1.5c0,0.9,0.2,1.6,0.5,2c0.3,0.5,0.8,0.7,1.3,0.7c0.6,0,1.2-0.3,1.7-0.8s0.7-1.2,0.7-2.2
					c0-0.4,0-0.8-0.1-1.2c-0.2,0.1-0.4,0.2-0.7,0.2s-0.5-0.1-0.5-0.1c-0.2-0.1-0.4-0.5-0.4-1.3c0-0.8,0.1-1.3,0.3-1.4
					c0.7-0.5,2-0.8,3.9-0.8c1.7,0,2.8,0.2,3.2,0.5c0,0.2,0.1,0.5,0.1,0.9c0,0.8-0.1,1.4-0.2,1.6c-0.1,0.1-0.3,0.2-0.7,0.2
					c-0.2,0-0.5-0.1-0.8-0.2c0,0.3,0,0.9,0.1,1.6c0.1,0.7,0.1,1.4,0.2,2.1c0.1,0.7,0.1,1.3,0.1,1.9c0,1.6-0.2,2.9-0.5,4.1
					c-0.3,1.1-0.8,2-1.3,2.7c-0.6,0.6-1.2,1.1-1.9,1.4c-0.7,0.3-1.4,0.4-2.2,0.4s-1.5,0-2,0s-1.1-0.1-1.8-0.2s-1.4-0.4-2-0.7
					c-0.2,0.5-0.2,0.8-0.2,0.8c-0.1,0.1-0.4,0.1-1,0.1c-1,0-1.4-0.1-1.5-0.2C507.3,6057.2,507.2,6057,507.2,6056.7z"/>
				<path class="st3" d="M528.6,6047.4c0-1.1,0.3-2.2,0.8-3.2s1.4-1.9,2.4-2.7s2.2-1.1,3.5-1.1c1.5,0,2.7,0.5,3.4,1.6
					c0.7,1,1.1,2.3,1.1,3.9c0,2.1-0.5,3.6-1.7,4.7s-2.6,1.6-4.3,1.6s-3-0.4-3.8-1.4C529,6049.8,528.6,6048.7,528.6,6047.4z
					 M532.9,6046.7c0,0.4,0.2,0.9,0.4,1.2c0.3,0.4,0.7,0.5,1.1,0.5c0.6,0,1.2-0.3,1.7-0.8s0.8-1.1,0.8-1.8c0-0.5-0.2-0.9-0.5-1.2
					c-0.3-0.3-0.7-0.5-1.2-0.5c-0.7,0-1.2,0.3-1.7,0.9C533.2,6045.5,532.9,6046.1,532.9,6046.7z"/>
				<path class="st3" d="M541,6043.1c0-1.1,0.1-1.8,0.2-2.1c0.2-0.1,0.7-0.2,1.4-0.3c0-1,0-1.7,0-2.3c0-0.5,0.1-1.1,0.2-1.6
					c0.1-0.5,0.2-0.9,0.4-1.1c0.2-0.2,0.4-0.4,0.8-0.6c0.3-0.2,0.8-0.3,1.2-0.3c0.4-0.1,1-0.1,1.7-0.1c1,0,1.7,0.1,2.2,0.1
					s1,0.2,1.5,0.5c0.2,0.2,0.3,0.9,0.3,2.1c0,0.6-0.1,1.1-0.2,1.5l-2.1-0.5l0.2-0.5c-0.1,0-0.2,0-0.4,0c-1.2,0-1.7,0.6-1.7,1.8
					c0,0.1,0,0.2,0,0.4c0,0.2,0,0.3,0,0.4h0.9c0.2,0,0.4,0,0.5,0s0.2,0,0.2,0c0.2,0,0.6,0,1,0.1c0,0.1,0.1,0.2,0.1,0.6
					c0,1.1-0.1,1.9-0.3,2.1c-0.2,0.2-1,0.3-2.2,0.3v4.7c0.2-0.1,0.4-0.1,0.7-0.1s0.4,0.1,0.5,0.1c0.2,0,0.2,0.3,0.2,0.9
					c0,0.1-0.1,0.8-0.2,1.9c-0.6,0.3-1.2,0.5-1.7,0.6c-0.5,0.1-1.2,0.2-2,0.2c-1.8,0-2.8-0.2-3.1-0.6c-0.2-0.2-0.2-0.5-0.2-1.1
					c0-0.9,0.2-1.4,0.7-1.6c0.2-0.1,0.4-0.2,0.7-0.2c0.1,0,0.2,0,0.3,0.1c0-3-0.1-4.5-0.1-4.6c0,0,0,0-0.1,0s-0.1,0-0.2,0h-0.3
					c-0.2,0-0.5,0-1-0.1C541,6043.6,541,6043.4,541,6043.1z"/>
				<path class="st3" d="M554.7,6044.1c0-2.4,0.6-4.4,1.7-5.9c1.2-1.5,2.6-2.3,4.4-2.3c1,0,2.1,0.3,3.2,0.8c0,0,0.1-0.1,0.2-0.4
					c0.1-0.3,0.2-0.4,0.3-0.4c0.7-0.1,1.2-0.2,1.7-0.2c0.6,0,1.1,0.1,1.4,0.4c0.1,0.4,0.2,0.9,0.2,1.4c0,1.1-0.2,2.1-0.5,3
					c-0.1,0.1-0.6,0.2-1.5,0.2c-0.8,0-1.3-0.1-1.6-0.2c-0.1-0.1-0.2-0.2-0.2-0.4c0-0.1,0-0.2,0.1-0.5c-0.6-0.2-1.2-0.3-1.7-0.3
					c-1.2,0-2,0.4-2.6,1.4s-0.9,2.1-0.9,3.4c0,1.3,0.3,2.3,0.8,2.9s1.2,0.9,2,0.9c0.5,0,0.9-0.1,1.4-0.3c0.2-0.4,0.3-0.7,0.3-1
					c0-0.3-0.1-0.6-0.3-0.9c-1.3,0-2-0.1-2-0.3c-0.1-0.1-0.2-0.4-0.2-0.9c0-0.8,0.1-1.2,0.3-1.3c0.3-0.5,1.2-0.7,2.6-0.7
					c0.8,0,1.5,0.1,2.3,0.2c0.7,0.1,1.2,0.3,1.2,0.6c0.1,0.3,0.2,0.9,0.4,1.9c0.1,1,0.2,2,0.2,3.1c0,1.3-0.1,2.5-0.2,3.4
					c-0.3,0.2-0.8,0.4-1.4,0.4c-0.4,0-1-0.1-1.7-0.2c-0.3-0.1-0.5-0.4-0.5-0.9c-1,0.7-2,1-3,1c-0.8,0-1.5-0.1-2.3-0.5
					c-0.8-0.3-1.4-0.8-2-1.4s-1.1-1.4-1.5-2.5C554.8,6046.6,554.7,6045.4,554.7,6044.1z"/>
				<path class="st3" d="M568.6,6042.3c1.3-1,3.2-1.8,5.9-2.2c0.6,0.9,0.9,1.6,0.9,2.3c0,0.1-0.2,0.2-0.5,0.4
					c-0.3,0.1-0.6,0.2-0.7,0.2c0.2,0.9,0.8,2.3,1.8,4.1c0.4-0.3,0.8-0.9,1.1-1.7c0.3-0.8,0.7-1.7,1-2.7s0.5-1.5,0.5-1.7
					c0.4-0.3,1-0.4,2-0.4c0.6,0,1.2,0.1,1.8,0.4c0,0.1,0.1,0.4,0.3,1.1c0.2,0.7,0.4,1.2,0.5,1.6c0.1,0.3,0.3,0.8,0.5,1.3
					c0.2,0.6,0.4,1,0.7,1.4c0.2,0.4,0.4,0.6,0.7,0.9c0.3-0.4,0.6-1.2,1-2.2s0.7-1.7,0.7-2.1c-0.2,0-0.4-0.1-0.8-0.2
					c-0.3-0.1-0.5-0.2-0.5-0.4c0-0.1,0.1-0.6,0.3-1.2c0.2-0.6,0.4-1,0.5-1.1c2.6,0.4,4.6,1.1,5.9,2.2c-0.2,0.9-0.3,1.8-0.6,2.4
					c-0.3-0.1-0.6-0.2-1-0.4c0,0.4-0.2,1.1-0.7,2c-0.2,0.6-0.8,1.5-1.6,2.9c0.4,0.1,0.8,0.4,1.1,0.8c0,0.6-0.3,1.1-1,1.7
					c0,0-0.3,0.1-0.7,0.1s-0.9,0.1-1.5,0.1s-1.2,0-1.8,0c-0.5,0-1.1-0.5-1.8-1.5c-0.8-1-1.5-2.1-2.1-3.2c-0.6,1.1-1.3,2.2-2.1,3.2
					s-1.4,1.5-1.8,1.5c-0.6,0-1.2,0-1.8,0c-0.7,0-1.2-0.1-1.5-0.1c-0.4,0-0.6-0.1-0.7-0.1c-0.7-0.6-1-1.1-1-1.7
					c0.1-0.1,0.3-0.2,0.5-0.5c0.3-0.2,0.5-0.3,0.5-0.3c-0.8-1.4-1.4-2.4-1.6-2.9c-0.4-0.9-0.7-1.6-0.7-2c-0.3,0.2-0.7,0.3-1,0.4
					C569,6044,568.7,6043.2,568.6,6042.3z"/>
				<path class="st3" d="M592.6,6046.9c0-0.7,0.2-1.4,0.4-2.1c0.3-0.7,0.7-1.4,1.2-2.1c0.5-0.6,1.2-1.2,2.2-1.6
					c0.9-0.4,1.9-0.6,3-0.6c1.2,0,2.2,0.2,2.9,0.8c0.7,0.6,1,1.2,1,2.1c0,1.2-0.6,2.3-1.8,3.1s-2.5,1.2-3.9,1.2
					c-0.4,0-0.8,0-1.2-0.1c0,1.1,1,1.6,2.8,1.6c0.3,0,0.6,0,0.8-0.1c0-0.1,0-0.2,0.1-0.4c0.7-0.5,1.4-0.8,2.1-0.8c0.2,0,0.2,0,0.3,0
					c1,0.5,1.6,1.4,1.8,2.6c0,0.1-0.1,0.2-0.2,0.4c-0.1,0.2-0.2,0.2-0.3,0.4c-0.1,0.2-0.2,0.2-0.5,0.3s-0.3,0.2-0.5,0.3
					c-0.1,0.1-0.3,0.1-0.5,0.3c-0.2,0.2-0.3,0.2-0.4,0.2c-0.1,0-0.2,0-0.2,0s-0.1-0.1-0.2-0.1s-0.1-0.1-0.1-0.1s0-0.1-0.1-0.2
					s-0.1-0.1-0.1-0.1c-0.8,0.3-1.7,0.5-2.6,0.5c-2,0-3.6-0.5-4.7-1.6C593.1,6049.6,592.6,6048.3,592.6,6046.9z M597,6044.5
					c0,0.5,0.3,0.8,1.1,0.8c0.5,0,1-0.1,1.5-0.4c0.5-0.3,0.8-0.6,0.8-0.9c0-0.2-0.1-0.5-0.2-0.8c-0.2-0.3-0.5-0.4-0.8-0.4
					c-0.5,0-1,0.2-1.5,0.6C597.2,6043.7,597,6044.1,597,6044.5z"/>
				<path class="st3" d="M605.1,6050c0-0.7,0.2-1.1,0.5-1.3c0.1-0.1,0.4-0.1,0.8-0.2c0.3-0.1,0.5-0.1,0.5-0.1
					c-0.2-1.8-0.2-2.9-0.2-3.3c0-1.1,0.1-1.8,0.2-2.1c-0.4,0-0.8,0-1-0.1c-0.1-0.3-0.2-0.6-0.2-0.8c0-0.5,0.2-1,0.6-1.6
					c0.5-0.1,1.6-0.1,3.1-0.1c0.5,0,1,0,1.5,0.1s0.9,0.1,1.2,0.2c0.3,0.1,0.4,0.1,0.4,0.2c0.1,0.2,0.2,0.4,0.2,0.8
					c0,0.8-0.1,1.4-0.4,1.6c0,0.1-0.2,0.1-0.6,0.1s-0.6,0-0.8-0.1c-0.2,1.1-0.2,2.4-0.2,4.1c0,0.7,0,1.1,0.1,1.1s0.2,0,0.4,0
					c0.4,0,0.7,0.1,1,0.2c0,0.1,0.1,0.3,0.1,0.6c0,0.4,0,0.8-0.2,1.3s-0.2,0.9-0.3,1.1c-0.2,0.1-1,0.2-2.3,0.2
					c-2.2,0-3.5-0.2-3.8-0.6C605.2,6051,605.1,6050.6,605.1,6050z M607.3,6036c0-0.4,0.2-0.6,0.7-0.6c0.4,0,0.8,0.1,1.2,0.4
					c0.3-0.3,0.7-0.5,1.2-0.5c0.3,0,0.6,0.1,0.8,0.4c0.2,0.3,0.4,0.5,0.4,0.9c0,0.2,0,0.4-0.1,0.6c-0.1,0.2-0.2,0.3-0.2,0.4
					c-0.1,0.1-0.2,0.2-0.5,0.4c-0.2,0.1-0.4,0.3-0.5,0.4s-0.3,0.2-0.6,0.4c-0.3,0.1-0.5,0.2-0.5,0.3c-0.6-0.4-1-0.9-1.4-1.5
					C607.5,6036.9,607.3,6036.4,607.3,6036z"/>
				<path class="st3" d="M456,6066.2c0-0.8,0-1.2,0.1-1.3c0.2-0.2,0.5-0.4,0.8-0.6c0.3-0.2,0.9-0.4,1.7-0.7c0.8-0.2,1.6-0.4,2.5-0.4
					c0.5,0,1,0.1,1.2,0.2c0.2,0.4,0.3,1.9,0.3,4.6c0,3.7-0.1,6.2-0.3,7.6c0.1,0,0.2,0,0.4,0c0.4,0,0.8,0.1,1.1,0.2
					c0,0.1,0.1,0.2,0.1,0.4c0,0.3-0.1,0.8-0.2,1.4s-0.2,1-0.3,1.1c-0.3,0.1-1.1,0.2-2.4,0.2c-2.3,0-3.7-0.2-4.1-0.6
					c-0.1-0.1-0.1-0.6-0.1-1.3s0-1.1,0.1-1.2l1.2-0.2c0.3-0.1,0.5-0.1,0.5-0.1c-0.2-1.5-0.3-3-0.3-4.5c0-1.4,0.1-2.9,0.3-4.4
					c-0.7,0.5-1.5,0.8-2.4,0.9C456.1,6067.3,456,6066.9,456,6066.2z"/>
				<path class="st3" d="M465,6071c0-0.7,0-1.2,0.1-1.5c1.3-2.6,3.2-4.6,5.8-6.1c0.7-0.3,1.4-0.4,2.1-0.4s1.3,0.1,1.7,0.4
					c0.2,0.7,0.3,2.2,0.3,4.7c0,0.7,0,1.2,0,1.5c0,0,0.1,0,0.2,0s0.2,0,0.2,0c0.2,0,0.3,0,0.5,0.1c0.3,0.1,0.5,0.7,0.5,1.5
					c0,0.6-0.1,1.1-0.4,1.3c-0.1,0.1-0.3,0.1-0.7,0.1c-0.2,0-0.4,0-0.5,0c0.1,0.5,0.1,1,0.1,1.3c0,0.8-0.1,1.4-0.3,1.8
					c0.1,0,0.2,0,0.4,0c0.4,0,0.8,0.1,1.1,0.2c0.3,0.2,0.5,0.8,0.5,1.8c0,0.5,0,0.9-0.2,1.1c-0.7,0.1-2,0.2-3.8,0.2
					c-1.9,0-3-0.1-3.1-0.3c-0.1-0.2-0.2-0.7-0.2-1.5c0-0.7,0.1-1.1,0.2-1.3c0.1-0.1,0.3-0.1,0.6-0.2c0.2-0.1,0.5-0.1,0.7-0.1
					c-0.1-0.9-0.1-1.5-0.1-1.8c0-0.5,0-0.9,0.1-1.2c-0.7,0.1-1.7,0.1-3,0.1c-1.7,0-2.6-0.1-2.9-0.1
					C465.1,6072.4,465,6071.8,465,6071z M468.8,6069.5c0.5,0,0.9-0.1,1.2-0.1c0.4,0,0.8,0,1.1,0.1c0-0.5,0-1.4,0.1-2.6
					C470.2,6067.8,469.4,6068.7,468.8,6069.5z"/>
				<path class="st3" d="M482.8,6068.5c0-1.6,0.5-3,1.7-4c1.1-1.1,2.4-1.6,3.9-1.6c1.1,0,2.1,0.3,3,0.8c0.1-0.4,0.2-0.8,0.5-0.9
					c0.3-0.1,0.7-0.2,1.1-0.2c0.7,0,1.2,0.1,1.5,0.4c0.1,0.3,0.1,0.8,0.1,1.6c0,2-0.3,3.1-0.9,3.2c-0.2,0.1-0.5,0.1-0.8,0.1
					c-0.5,0-1-0.1-1.3-0.3c-0.1-0.2-0.1-0.5-0.1-0.7c-0.5-0.4-1.1-0.6-1.7-0.6c-0.7,0-1.2,0.2-1.7,0.7s-0.8,0.9-0.8,1.5
					c0,0.9,0.7,1.3,2,1.3c0.1,0,0.5,0,1.1,0s1,0,1.1,0c1,0,1.8,0.3,2.4,0.8s1,1.5,1,2.8c0,1.7-0.6,3.1-1.8,4.2
					c-1.2,1.1-2.7,1.6-4.5,1.6c-1,0-2-0.3-2.7-0.8c0,0.4-0.1,0.6-0.2,0.8c-0.3,0.1-0.7,0.2-1.3,0.2c-0.7,0-1.1-0.1-1.3-0.3
					c-0.1-0.6-0.1-1.1-0.1-1.6c0-1.4,0.3-2.6,1-3.8c0.3-0.1,0.5-0.1,0.8-0.1c0.5,0,1,0.1,1.2,0.4c0.1,0.2,0.1,0.5,0.2,0.9
					c0.4,0.5,1,0.8,1.8,0.8s1.4-0.1,1.9-0.4c0.5-0.3,0.7-0.7,0.7-1.2c0-0.3-0.1-0.5-0.2-0.6c-0.2-0.2-0.3-0.3-0.7-0.4
					c-0.4-0.1-0.5-0.1-0.8-0.1s-0.5-0.1-0.8-0.1c-0.4,0-0.7,0-0.9-0.1c-0.2,0-0.5-0.1-1-0.1s-0.8-0.2-1-0.3s-0.6-0.2-0.9-0.5
					c-0.3-0.2-0.6-0.4-0.8-0.7c-0.2-0.3-0.3-0.6-0.5-1C482.9,6069.5,482.8,6069,482.8,6068.5z"/>
				<path class="st3" d="M496.1,6073.9c0-0.7,0.2-1.4,0.4-2.1c0.3-0.7,0.7-1.4,1.2-2.1c0.5-0.6,1.2-1.2,2.2-1.6
					c0.9-0.4,1.9-0.6,3-0.6c1.2,0,2.2,0.2,2.9,0.8c0.7,0.6,1,1.2,1,2.1c0,1.2-0.6,2.3-1.8,3.1c-1.2,0.8-2.5,1.2-3.9,1.2
					c-0.4,0-0.8,0-1.2-0.1c0,1.1,1,1.6,2.8,1.6c0.3,0,0.6,0,0.8-0.1c0-0.1,0-0.2,0.1-0.4c0.7-0.5,1.4-0.8,2.1-0.8c0.2,0,0.2,0,0.3,0
					c1,0.5,1.6,1.4,1.8,2.6c0,0.1-0.1,0.2-0.2,0.4c-0.1,0.2-0.2,0.2-0.3,0.4c-0.1,0.2-0.2,0.2-0.5,0.3s-0.3,0.2-0.5,0.3
					c-0.1,0.1-0.3,0.1-0.5,0.3c-0.2,0.2-0.3,0.2-0.4,0.2s-0.2,0-0.2,0s-0.1-0.1-0.2-0.1s-0.1-0.1-0.1-0.1s0-0.1-0.1-0.2
					s-0.1-0.1-0.1-0.1c-0.8,0.3-1.7,0.5-2.6,0.5c-2,0-3.6-0.5-4.7-1.6C496.7,6076.6,496.1,6075.3,496.1,6073.9z M500.5,6071.5
					c0,0.5,0.3,0.8,1.1,0.8c0.5,0,1-0.1,1.5-0.4c0.5-0.3,0.8-0.6,0.8-0.9c0-0.2-0.1-0.5-0.2-0.8c-0.2-0.3-0.5-0.4-0.8-0.4
					c-0.5,0-1,0.2-1.5,0.6C500.7,6070.7,500.5,6071.1,500.5,6071.5z"/>
				<path class="st3" d="M508.3,6082.8c0-0.7,0-1.1,0.1-1.3c0.1-0.1,0.3-0.2,0.8-0.3c0.4-0.1,0.8-0.1,1.1-0.1c0.2,0,0.2,0,0.3,0
					c0-0.2,0-0.9,0-1.9s0-1.9,0-2.6c0-2.6,0.1-4.4,0.2-5.2c0,0-0.2,0-0.4,0c-0.5,0-1-0.1-1.5-0.1c-0.1-0.1-0.2-0.7-0.2-1.9
					c0-0.7,0-1.1,0.1-1.3c0.1-0.2,0.5-0.3,1-0.5c0.6-0.1,1.2-0.2,2-0.2c1.4,0,2.2,0,2.5,0.1c0.1,0.3,0.1,0.6,0.1,0.9
					c0,0.1,0,0.2,0,0.2c0.2-0.1,0.7-0.3,1.5-0.7c0.7-0.4,1.3-0.6,1.8-0.6c0.8,0,1.5,0.3,2.1,0.9c0.6,0.6,1.1,1.4,1.4,2.2
					c0.3,0.9,0.5,1.7,0.5,2.6c0,1.5-0.5,2.9-1.3,4.1c-0.9,1.2-2.1,1.8-3.6,1.8c-0.7,0-1.3-0.1-2-0.3c0,0,0,0.3,0,0.9s0,1.2,0,1.8
					c0,1.5,0,2.3-0.1,2.4c-0.5,0.5-1.6,0.7-3.2,0.7c-0.8,0-1.4-0.1-2-0.1c-0.5-0.1-0.8-0.1-1-0.2l-0.2-0.1
					C508.3,6083.9,508.3,6083.5,508.3,6082.8z M514.2,6073.9c0,0.5,0.2,0.9,0.5,1.3c0.3,0.4,0.7,0.5,1.2,0.5c0.6,0,1.2-0.3,1.7-0.9
					c0.5-0.6,0.8-1.2,0.8-1.8c0-0.5-0.2-0.9-0.4-1.2c-0.3-0.4-0.7-0.5-1.1-0.5c-0.6,0-1.2,0.3-1.7,0.8
					C514.5,6072.6,514.2,6073.2,514.2,6073.9z"/>
				<path class="st3" d="M522,6068.1c0-0.3,0-0.5,0.1-0.6c0.4-0.1,0.7-0.1,1-0.1c0.1,0,0.2,0,0.2,0c0.1,0,0.2,0,0.2,0h0.1v-4.2
					c1.2-0.1,1.8-0.1,2.1-0.1c0.5,0,1.2,0.1,2,0.1v4.2c1.3,0.1,2.1,0.1,2.4,0.3c0.2,0.2,0.3,0.9,0.3,2.1c0,0.3,0,0.5-0.1,0.6
					c-0.4,0.1-0.8,0.1-1,0.1h-0.2c-0.1,0-0.3,0-0.6,0s-0.6,0-1,0c0,0.1,0,0.6,0,1.6s0,1.6,0,1.6c0,0.6,0.1,1.1,0.4,1.4
					c0.2,0.3,0.6,0.4,1.1,0.4c0.2,0,0.3,0,0.3-0.1c0,0,0.1-0.1,0.1-0.3c0-0.1,0.2-0.2,0.6-0.3l1.5-0.4c0.2,0.4,0.2,0.9,0.2,1.5
					c0,1.1-0.1,1.9-0.3,2.1c0,0-0.2,0.1-0.3,0.2c-0.2,0.1-0.3,0.2-0.3,0.2s-0.2,0.1-0.3,0.1s-0.3,0.1-0.4,0.1s-0.3,0.1-0.5,0.1
					s-0.5,0.1-0.7,0.1s-0.5,0-0.9,0c-0.7,0-1.2,0-1.6-0.1s-0.8-0.2-1.2-0.4c-0.4-0.2-0.7-0.5-0.9-0.9c-0.2-0.4-0.4-0.9-0.5-1.6
					c-0.2-0.6-0.2-1.4-0.2-2.4c0-0.9,0-2,0-3.3c-0.7-0.1-1.1-0.2-1.3-0.3C522,6069.9,522,6069.2,522,6068.1z"/>
				<path class="st3" d="M532.5,6073.9c0-0.7,0.2-1.4,0.4-2.1c0.3-0.7,0.7-1.4,1.2-2.1c0.5-0.6,1.2-1.2,2.2-1.6
					c0.9-0.4,1.9-0.6,3-0.6c1.2,0,2.2,0.2,2.9,0.8c0.7,0.6,1,1.2,1,2.1c0,1.2-0.6,2.3-1.8,3.1s-2.5,1.2-3.9,1.2
					c-0.4,0-0.8,0-1.2-0.1c0,1.1,1,1.6,2.8,1.6c0.3,0,0.6,0,0.8-0.1c0-0.1,0-0.2,0.1-0.4c0.7-0.5,1.4-0.8,2.1-0.8c0.2,0,0.2,0,0.3,0
					c1,0.5,1.6,1.4,1.8,2.6c0,0.1-0.1,0.2-0.2,0.4c-0.1,0.2-0.2,0.2-0.3,0.4c-0.1,0.2-0.2,0.2-0.5,0.3s-0.3,0.2-0.5,0.3
					c-0.1,0.1-0.3,0.1-0.5,0.3c-0.2,0.2-0.3,0.2-0.4,0.2c-0.1,0-0.2,0-0.2,0s-0.1-0.1-0.2-0.1s-0.1-0.1-0.1-0.1s0-0.1-0.1-0.2
					s-0.1-0.1-0.1-0.1c-0.8,0.3-1.7,0.5-2.6,0.5c-2,0-3.6-0.5-4.7-1.6C533,6076.6,532.5,6075.3,532.5,6073.9z M536.9,6071.5
					c0,0.5,0.3,0.8,1.1,0.8c0.5,0,1-0.1,1.5-0.4c0.5-0.3,0.8-0.6,0.8-0.9c0-0.2-0.1-0.5-0.2-0.8c-0.2-0.3-0.5-0.4-0.8-0.4
					c-0.5,0-1,0.2-1.5,0.6C537.1,6070.7,536.9,6071.1,536.9,6071.5z"/>
				<path class="st3" d="M545.1,6077.3c0-0.9,0.2-1.5,0.6-1.8c0.2-0.1,0.4-0.2,0.6-0.2c0.1,0,0.2,0,0.3,0.1c0-0.4,0-1.1,0-2.1
					c0-0.9,0-1.7,0-2.2c0,0-0.2,0-0.3,0.1c-0.1,0.1-0.2,0.1-0.3,0.1c0,0-0.2,0-0.3-0.1c-0.1,0-0.2-0.1-0.3-0.1
					c0-0.1-0.1-0.2-0.1-0.5c0-0.4,0-0.9,0.2-1.5c0.1-0.6,0.2-1,0.3-1.1c0.2-0.1,0.5-0.2,1-0.3c0.5-0.1,1.1-0.1,1.7-0.1
					c0.7,0,1.3,0.1,1.8,0.3c0.1,0.1,0.2,0.3,0.2,0.6c0,0.1,0,0.3-0.1,0.8c1.6-1.2,3-1.8,4.4-1.8c1.5,0,2.5,0.6,3.2,1.8
					c1.8-1.2,3.3-1.8,4.7-1.8c1.2,0,2.1,0.4,2.8,1.3c0.7,0.9,1.1,2.1,1.1,3.8c0,0.2,0,1.1-0.2,2.4c0,0,0.1-0.1,0.2-0.1
					c0.2,0,0.5,0,1,0.1c0.1,0.1,0.2,0.6,0.2,1.5c0,1.1-0.1,1.7-0.2,1.9c-1.1,0.3-2.2,0.4-3.1,0.4c-1,0-1.9-0.1-2.7-0.4
					c-0.1-0.1-0.2-0.4-0.3-0.8c-0.1-0.5-0.2-0.9-0.2-1.2c0-0.5,0.1-0.9,0.4-1.3c0.2-0.1,0.4-0.1,0.6-0.1c0.1,0,0.1,0,0.2,0
					s0.1,0,0.1,0.1l0.1,0.1c0.1-0.4,0.1-0.9,0.1-1.2c0-0.9-0.2-1.5-0.6-2c-0.4-0.4-0.9-0.7-1.5-0.7c-0.4,0-0.8,0.1-1.2,0.4
					c-0.4,0.2-0.7,0.6-0.9,1.1c0,1.1-0.1,1.8-0.1,2.2c0,0,0.1-0.1,0.2-0.1c0.2,0,0.5,0,1,0.1c0.1,0.1,0.2,0.6,0.2,1.5
					c0,1.1-0.1,1.7-0.2,1.9c-1.1,0.3-2.2,0.4-3.1,0.4c-1,0-1.9-0.1-2.7-0.4c-0.1-0.1-0.2-0.4-0.3-0.8c-0.1-0.5-0.2-0.9-0.2-1.2
					c0-0.5,0.1-0.9,0.4-1.3c0.2-0.1,0.4-0.1,0.6-0.1c0.1,0,0.1,0,0.2,0s0.1,0,0.1,0.1l0.1,0.1c0-0.4,0.1-0.6,0.1-0.9
					c0-1-0.2-1.8-0.6-2.3c-0.4-0.5-0.9-0.8-1.5-0.8s-1.2,0.2-1.6,0.8s-0.7,1.2-0.7,2.1c0,0.4,0,0.8,0.1,1.2c0.2-0.1,0.4-0.1,0.7-0.1
					s0.4,0.1,0.5,0.1c0.2,0,0.2,0.3,0.2,0.9c0,0.1-0.1,0.8-0.2,1.9c-1.1,0.5-2.5,0.8-4,0.8c-1.4,0-2.3-0.2-2.7-0.6
					C545.2,6078,545.1,6077.7,545.1,6077.3z"/>
				<path class="st3" d="M568.5,6063.5c0-0.7,0-1.1,0.1-1.2l0.2-0.1c0.1-0.1,0.4-0.1,0.9-0.2s1.1-0.1,1.9-0.1c1.7,0,2.8,0.2,3.3,0.7
					c0.1,0.1,0.1,0.9,0.1,2.4c0,0.6,0,1.2,0,1.8c0,0.6,0,0.9,0,0.9c0.6-0.2,1.3-0.3,2-0.3c1.6,0,2.8,0.6,3.7,1.8
					c0.9,1.2,1.4,2.6,1.4,4.1c0,0.9-0.2,1.7-0.5,2.6s-0.8,1.6-1.5,2.3c-0.7,0.6-1.4,0.9-2.2,0.9c-0.5,0-1.1-0.2-1.8-0.6
					s-1.2-0.6-1.5-0.7c0,0,0,0.1,0,0.2c0,0.2,0,0.5-0.1,0.8c-0.3,0.1-1.2,0.1-2.6,0.1c-0.7,0-1.3-0.1-1.9-0.2
					c-0.5-0.1-0.9-0.3-1-0.4c0-0.2-0.1-0.6-0.1-1.2c0-1.1,0-1.8,0.2-1.9c0.5-0.1,0.9-0.1,1.4-0.1c0.2,0,0.4,0,0.4,0
					c-0.2-0.9-0.2-2.6-0.2-5.4c0-0.7,0-1.6,0-2.6s0-1.6,0-1.9c-0.2,0-0.3,0.1-0.5,0.1c-0.3,0-0.7,0-1-0.1c-0.4-0.1-0.6-0.2-0.7-0.3
					C568.5,6064.6,568.5,6064.2,568.5,6063.5z M574.5,6072.4c0,0.7,0.3,1.4,0.8,1.9s1.1,0.8,1.7,0.8c0.5,0,0.8-0.2,1.1-0.5
					c0.3-0.4,0.4-0.8,0.4-1.2c0-0.6-0.2-1.3-0.7-1.9s-1-0.9-1.7-0.9c-0.5,0-0.9,0.2-1.2,0.5C574.7,6071.5,574.5,6071.9,574.5,6072.4
					z"/>
				<path class="st3" d="M582.5,6073.9c0-0.7,0.2-1.4,0.4-2.1c0.3-0.7,0.7-1.4,1.2-2.1c0.5-0.6,1.2-1.2,2.2-1.6
					c0.9-0.4,1.9-0.6,3-0.6c1.2,0,2.2,0.2,2.9,0.8c0.7,0.6,1,1.2,1,2.1c0,1.2-0.6,2.3-1.8,3.1s-2.5,1.2-3.9,1.2
					c-0.4,0-0.8,0-1.2-0.1c0,1.1,1,1.6,2.8,1.6c0.3,0,0.6,0,0.8-0.1c0-0.1,0-0.2,0.1-0.4c0.7-0.5,1.4-0.8,2.1-0.8c0.2,0,0.2,0,0.3,0
					c1,0.5,1.6,1.4,1.8,2.6c0,0.1-0.1,0.2-0.2,0.4c-0.1,0.2-0.2,0.2-0.3,0.4c-0.1,0.2-0.2,0.2-0.5,0.3s-0.3,0.2-0.5,0.3
					c-0.1,0.1-0.3,0.1-0.5,0.3c-0.2,0.2-0.3,0.2-0.4,0.2c-0.1,0-0.2,0-0.2,0s-0.1-0.1-0.2-0.1s-0.1-0.1-0.1-0.1s0-0.1-0.1-0.2
					s-0.1-0.1-0.1-0.1c-0.8,0.3-1.7,0.5-2.6,0.5c-2,0-3.6-0.5-4.7-1.6C583.1,6076.6,582.5,6075.3,582.5,6073.9z M586.9,6071.5
					c0,0.5,0.3,0.8,1.1,0.8c0.5,0,1-0.1,1.5-0.4c0.5-0.3,0.8-0.6,0.8-0.9c0-0.2-0.1-0.5-0.2-0.8c-0.2-0.3-0.5-0.4-0.8-0.4
					c-0.5,0-1,0.2-1.5,0.6C587.2,6070.7,586.9,6071.1,586.9,6071.5z"/>
				<path class="st3" d="M595.2,6069c0-0.7,0-1.1,0.1-1.3c0.6-0.3,1.7-0.4,3.4-0.4c0.6,0,1.1,0.1,1.4,0.1s0.6,0.2,0.9,0.5
					c0,0.2,0,0.6,0,1.1l0.1-0.2c0-0.1,0.2-0.3,0.3-0.4s0.3-0.4,0.5-0.5c0.2-0.2,0.4-0.3,0.8-0.4c0.3-0.1,0.7-0.2,1.1-0.2
					c1.2,0,2.1,0.5,2.9,1.5c-0.3,1.4-1.2,2.4-2.5,2.9c-0.5-0.4-1-0.6-1.5-0.6c-0.6,0-1,0.3-1.4,0.9c-0.3,0.6-0.5,1.3-0.5,2.2
					c0,0.3,0,0.6,0,1c0.1,0,0.3,0.1,0.8,0.1l0.2,0.1c0.2,0.2,0.3,0.6,0.3,1.2c0,0.4,0,0.9-0.2,1.4c-0.1,0.4-0.3,0.8-0.5,1
					c-0.3,0.1-1.1,0.1-2.4,0.1c-0.8,0-1.5-0.1-2.3-0.2s-1.2-0.3-1.3-0.4c0-0.2-0.1-0.6-0.1-1.2c0-1.2,0-1.8,0.2-1.9
					c0.6-0.1,1-0.2,1.2-0.2s0.4,0,0.5,0.1c-0.2-0.2-0.4-1.3-0.4-3.2c0-0.7,0-1.1,0.1-1.1c-0.2,0-0.3,0.1-0.5,0.1
					c-0.5,0-0.9-0.1-1.1-0.4C595.3,6070.1,595.2,6069.7,595.2,6069z"/>
				<path class="st3" d="M450.7,6092.2c0-0.7,0.1-1.1,0.4-1.3c0.1-0.2,0.6-0.4,1.3-0.6c0.8-0.1,1.5-0.2,2.4-0.2s1.5,0.1,1.8,0.2
					c0.1,0.3,0.1,0.6,0.1,0.8c0,0.1,0,0.2,0,0.2c0.2-0.1,0.7-0.3,1.5-0.7s1.5-0.6,2-0.6c0.8,0,1.5,0.3,2.1,1
					c0.6,0.6,1.1,1.4,1.4,2.3c0.3,0.9,0.4,1.8,0.4,2.6c0,1.5-0.4,2.7-1.3,3.7c-0.8,1-2,1.5-3.5,1.5c-0.8,0-1.5-0.1-2.2-0.3
					c0,0.1,0,0.3,0,0.5c0,0.6,0,1.1-0.1,1.7c0.1,0,0.3,0,0.7,0c0.2,0,0.5,0,0.8,0.1s0.5,0.2,0.5,0.3c0.2,0.1,0.4,0.5,0.4,1
					s-0.1,0.8-0.4,1c-0.1,0.3-1.5,0.5-4,0.5c-1,0-2,0-2.8-0.1c-0.8-0.1-1.3-0.2-1.3-0.3c-0.2-0.2-0.3-0.5-0.3-1s0.1-0.8,0.3-1.1
					c0.1-0.1,0.2-0.2,0.5-0.3c0.2-0.1,0.5-0.1,0.8-0.1c0.2,0,0.3,0,0.3,0c0-0.2,0-0.7,0-1.4c0-0.7,0-1.4,0-2.1
					c0-2.7,0.1-4.4,0.2-5.3c0,0-0.2,0-0.4,0c-0.3,0-0.8,0-1.2-0.1C450.9,6093.6,450.7,6093,450.7,6092.2z M457.1,6096.2
					c0,0.5,0.1,0.9,0.4,1.1c0.2,0.2,0.6,0.4,1,0.4c0.5,0,1-0.2,1.5-0.7s0.7-1,0.7-1.7c0-0.4-0.1-0.8-0.3-1.1
					c-0.2-0.3-0.5-0.4-0.9-0.4c-0.6,0-1.2,0.2-1.7,0.8S457.1,6095.6,457.1,6096.2z"/>
				<path class="st3" d="M465.4,6096c0-0.7,0-1.1,0.1-1.3c0.6-0.3,1.7-0.4,3.4-0.4c0.6,0,1.1,0.1,1.4,0.1c0.3,0.1,0.6,0.2,0.9,0.5
					c0,0.2,0,0.6,0,1.1l0.1-0.2c0-0.1,0.2-0.3,0.3-0.5c0.1-0.2,0.3-0.4,0.5-0.5c0.2-0.1,0.4-0.3,0.8-0.4c0.3-0.1,0.7-0.2,1.1-0.2
					c1.2,0,2.1,0.5,2.9,1.5c-0.3,1.4-1.2,2.4-2.5,3c-0.5-0.4-1-0.6-1.5-0.6c-0.6,0-1,0.3-1.4,0.9c-0.3,0.6-0.5,1.3-0.5,2.2
					c0,0.3,0,0.6,0,1c0.1,0,0.3,0,0.8,0.1h0.2c0.2,0.2,0.3,0.5,0.3,1.2c0,0.5,0,0.9-0.2,1.4s-0.3,0.8-0.5,1c-0.3,0-1.1,0.1-2.4,0.1
					c-0.8,0-1.5-0.1-2.3-0.2c-0.8-0.1-1.2-0.3-1.3-0.5c0-0.2-0.1-0.6-0.1-1.2c0-1.2,0-1.8,0.2-1.9c0.6-0.1,1-0.2,1.2-0.2
					s0.4,0,0.5,0.1c-0.2-0.2-0.4-1.3-0.4-3.2c0-0.7,0-1,0.1-1.1c-0.2,0-0.3,0.1-0.5,0.1c-0.5,0-0.9-0.1-1.1-0.4
					C465.4,6097.1,465.4,6096.7,465.4,6096z"/>
				<path class="st3" d="M476.7,6100.9c0-0.7,0.2-1.4,0.4-2.1c0.3-0.7,0.7-1.4,1.2-2.1c0.5-0.6,1.2-1.2,2.2-1.6
					c0.9-0.4,1.9-0.6,3-0.6c1.2,0,2.2,0.2,2.9,0.8c0.7,0.6,1,1.2,1,2.1c0,1.2-0.6,2.3-1.8,3.1c-1.2,0.8-2.5,1.2-3.9,1.2
					c-0.4,0-0.8,0-1.2-0.1c0,1.1,1,1.6,2.8,1.6c0.3,0,0.6,0,0.8-0.1c0-0.1,0-0.2,0.1-0.4c0.7-0.5,1.4-0.8,2.1-0.8c0.2,0,0.2,0,0.3,0
					c1,0.5,1.6,1.4,1.8,2.6c0,0.1-0.1,0.2-0.2,0.4c-0.1,0.2-0.2,0.2-0.3,0.4c-0.1,0.2-0.2,0.2-0.5,0.3s-0.3,0.2-0.5,0.3
					s-0.3,0.1-0.5,0.3c-0.2,0.2-0.3,0.2-0.4,0.2s-0.2,0-0.2,0s-0.1,0-0.2-0.1l-0.1-0.1c0,0,0-0.1-0.1-0.2c0-0.1-0.1-0.1-0.1-0.1
					c-0.8,0.3-1.7,0.5-2.6,0.5c-2,0-3.6-0.5-4.7-1.5C477.2,6103.6,476.7,6102.3,476.7,6100.9z M481.1,6098.5c0,0.5,0.3,0.8,1.1,0.8
					c0.5,0,1-0.1,1.5-0.4c0.5-0.3,0.8-0.6,0.8-0.9c0-0.2-0.1-0.5-0.2-0.8c-0.2-0.3-0.5-0.4-0.8-0.4c-0.5,0-1,0.2-1.5,0.5
					C481.3,6097.7,481.1,6098.1,481.1,6098.5z"/>
				<path class="st3" d="M489,6105.1c0-0.4,0.1-0.9,0.2-1.3c0.1-0.4,0.3-0.8,0.7-1.2s0.7-0.5,1.2-0.5c0.4,0,0.8,0.1,1.2,0.2
					c0.5,0.1,0.7,0.4,0.7,0.6c0,0,0,0.1,0,0.2c0.5,0.1,0.9,0.2,1.1,0.2c0.3,0,0.7-0.1,0.9-0.4c0.2-0.3,0.4-0.5,0.4-0.9
					s-0.2-0.6-0.4-0.8c-0.3-0.2-0.6-0.3-1-0.3s-0.9,0-1.4-0.1c-0.5-0.1-1-0.2-1.4-0.3s-0.8-0.4-1-0.8c-0.3-0.4-0.4-1-0.4-1.7
					c0-0.9,0.2-1.7,0.8-2.3c0.5-0.6,1.1-1,1.8-1.2c0.7-0.2,1.5-0.3,2.3-0.3c0.7,0,1.4,0.1,2.2,0.2c0.2-0.3,0.3-0.4,0.5-0.5
					c1.1,0.1,1.8,0.5,2.2,1.2c0,0.4-0.1,0.9-0.2,1.3c-0.1,0.4-0.3,0.8-0.7,1.2s-0.7,0.6-1.2,0.6c-0.4,0-0.8-0.1-1.2-0.2
					s-0.7-0.4-0.7-0.6c0-0.1,0-0.1,0-0.2c-0.3-0.1-0.7-0.2-0.8-0.2c-0.3,0-0.7,0.1-0.9,0.4c-0.2,0.2-0.4,0.5-0.4,0.8
					c0,0.4,0.2,0.6,0.7,0.8c0.4,0.2,1,0.3,1.5,0.3c0.6,0,1.2,0.1,1.8,0.3c0.6,0.1,1.1,0.4,1.6,0.8s0.7,1,0.7,1.8
					c0,1.3-0.5,2.3-1.7,3c-1.1,0.7-2.4,1-4,1c-0.7,0-1.5-0.1-2.3-0.2c-0.2,0.3-0.3,0.4-0.5,0.5
					C490.1,6106.2,489.4,6105.8,489,6105.1z"/>
				<path class="st3" d="M500.8,6101.1c0-1.1,0.2-2.1,0.5-3.1s0.8-1.8,1.6-2.5c0.7-0.7,1.6-1.1,2.6-1.1c0.4,0,0.8,0.1,1.1,0.2
					s0.6,0.3,0.8,0.4c0.2,0.2,0.3,0.4,0.5,0.5c0.1,0.2,0.2,0.3,0.2,0.5l0.1,0.2c0-0.5,0-0.9,0-1.1c0.5-0.4,1.4-0.6,2.7-0.6
					c0.5,0,0.8,0,1.2,0.1c0.3,0,0.6,0.1,0.8,0.1s0.3,0.1,0.5,0.1c0.1,0,0.2,0.1,0.2,0.1l0,0c0,0.1,0.1,0.5,0.1,1.3
					c0,0.8,0,1.1-0.1,1.3c-0.2,0.3-0.6,0.4-1.1,0.4c-0.2,0-0.3,0-0.5,0c0,0.1,0.1,0.4,0.1,1c0,1.9-0.1,3-0.2,3.1
					c0.1,0,0.2-0.1,0.4-0.1s0.6,0.1,1.2,0.3c0.1,0.1,0.2,0.8,0.2,2c0,0.6,0,1.1-0.1,1.2c-0.1,0.2-0.4,0.3-1,0.5
					c-0.6,0.2-1.2,0.2-1.8,0.2c-1.8,0-2.8,0-3-0.1c-0.1-0.3-0.2-0.5-0.2-0.7c0-0.1,0-0.2,0.1-0.3c-0.2,0.1-0.7,0.3-1.5,0.7
					c-0.8,0.4-1.3,0.6-1.7,0.6c-1.2,0-2-0.5-2.6-1.5C501.1,6103.7,500.8,6102.5,500.8,6101.1z M503.8,6100.7c0,0.5,0.2,1,0.4,1.3
					c0.3,0.4,0.7,0.5,1.1,0.5c0.6,0,1.2-0.3,1.7-0.9c0.5-0.5,0.8-1.2,0.8-1.9c0-0.5-0.2-0.9-0.5-1.2s-0.7-0.5-1.2-0.5
					s-0.9,0.1-1.2,0.4c-0.4,0.3-0.7,0.7-0.9,1.1C503.9,6100,503.8,6100.3,503.8,6100.7z"/>
				<path class="st3" d="M514.7,6103.9c0-0.7,0-1.1,0.1-1.2c0.1-0.1,0.4-0.1,0.8-0.2c0.3,0,0.5-0.1,0.5-0.1
					c-0.2-0.9-0.2-2.3-0.2-4.4c0-2.4,0.1-4.5,0.2-6.4c-0.5,0-0.8,0-1-0.1c0-0.3,0-0.5,0-0.7c0-0.6,0.2-1.2,0.5-1.7
					c0.7-0.1,1.5-0.2,2.6-0.2c0.8,0,1.5,0.1,1.9,0.2c0.2,1.4,0.2,2.9,0.2,4.4c0,1.1,0,2.7-0.2,4.7c-0.1,2-0.2,3.5-0.2,4.2
					c0.1,0,0.2,0,0.4,0c0.4,0,0.8,0.1,1.1,0.2c0,0,0.1,0.2,0.1,0.4c0,0.3-0.1,0.8-0.2,1.4s-0.2,1-0.3,1.1c-0.2,0.1-1.1,0.2-2.5,0.2
					c-2.1,0-3.3-0.2-3.7-0.6C514.8,6105.1,514.7,6104.7,514.7,6103.9z"/>
				<path class="st3" d="M522.4,6100.9c0-0.7,0.2-1.4,0.4-2.1c0.3-0.7,0.7-1.4,1.2-2.1c0.5-0.6,1.2-1.2,2.2-1.6
					c0.9-0.4,1.9-0.6,3-0.6c1.2,0,2.2,0.2,2.9,0.8c0.7,0.6,1,1.2,1,2.1c0,1.2-0.6,2.3-1.8,3.1s-2.5,1.2-3.9,1.2
					c-0.4,0-0.8,0-1.2-0.1c0,1.1,1,1.6,2.8,1.6c0.3,0,0.6,0,0.8-0.1c0-0.1,0-0.2,0.1-0.4c0.7-0.5,1.4-0.8,2.1-0.8c0.2,0,0.2,0,0.3,0
					c1,0.5,1.6,1.4,1.8,2.6c0,0.1-0.1,0.2-0.2,0.4c-0.1,0.2-0.2,0.2-0.3,0.4c-0.1,0.2-0.2,0.2-0.5,0.3s-0.3,0.2-0.5,0.3
					c-0.1,0-0.3,0.1-0.5,0.3c-0.2,0.2-0.3,0.2-0.4,0.2c-0.1,0-0.2,0-0.2,0s-0.1,0-0.2-0.1l-0.1-0.1c0,0,0-0.1-0.1-0.2
					c0-0.1-0.1-0.1-0.1-0.1c-0.8,0.3-1.7,0.5-2.6,0.5c-2,0-3.6-0.5-4.7-1.5C522.9,6103.6,522.4,6102.3,522.4,6100.9z M526.7,6098.5
					c0,0.5,0.3,0.8,1.1,0.8c0.5,0,1-0.1,1.5-0.4c0.5-0.3,0.8-0.6,0.8-0.9c0-0.2-0.1-0.5-0.2-0.8c-0.2-0.3-0.5-0.4-0.8-0.4
					c-0.5,0-1,0.2-1.5,0.5C527,6097.7,526.7,6098.1,526.7,6098.5z"/>
				<path class="st3" d="M539.6,6092.1c0-1,0.1-1.6,0.3-1.9c0.5-0.1,1.7-0.2,3.7-0.2c2.2,0,3.4,0.1,3.6,0.2c0.2,0.4,0.3,1,0.3,2
					c0,0.4,0,0.6-0.1,0.7c-0.3,0.1-0.7,0.2-1.2,0.2c-0.3,0-0.5,0-0.8-0.1c0,0.9-0.1,1.9-0.1,3c0,2.2,0.2,4.3,0.8,6.1
					c0,0.1,0.5,0.2,1.5,0.2c0.8,0,1.4-0.1,1.7-0.3l-0.1-1.4c0.8-0.5,1.6-0.7,2.4-0.7c0.3,0,0.6,0.1,1,0.1c0.4,1.1,0.5,2.2,0.5,3.3
					c0,0.9-0.1,1.5-0.2,1.9c-0.6,0.2-1.7,0.4-3.4,0.5c-1.7,0.2-3.2,0.2-4.7,0.2c-2.3,0-4-0.2-4.9-0.7c-0.1-0.2-0.2-0.4-0.2-0.8
					c0-1.4,0.2-2.2,0.6-2.4c0.2-0.1,0.4-0.2,0.6-0.2c0,0,0.2,0,0.3,0c-0.2-2.8-0.3-4.7-0.3-5.7c0-0.5,0.1-1.6,0.2-3.4
					c-0.2,0.1-0.5,0.1-0.7,0.1c-0.3,0-0.6,0-0.8-0.1C539.6,6092.7,539.6,6092.5,539.6,6092.1z"/>
				<path class="st3" d="M554,6101.1c0-1.1,0.2-2.1,0.5-3.1s0.8-1.8,1.6-2.5c0.7-0.7,1.6-1.1,2.6-1.1c0.4,0,0.8,0.1,1.1,0.2
					s0.6,0.3,0.8,0.4c0.2,0.2,0.3,0.4,0.5,0.5c0.1,0.2,0.2,0.3,0.2,0.5l0.1,0.2c0-0.5,0-0.9,0-1.1c0.5-0.4,1.4-0.6,2.7-0.6
					c0.5,0,0.8,0,1.2,0.1c0.3,0,0.6,0.1,0.8,0.1s0.3,0.1,0.5,0.1c0.1,0,0.2,0.1,0.2,0.1l0,0c0,0.1,0.1,0.5,0.1,1.3
					c0,0.8,0,1.1-0.1,1.3c-0.2,0.3-0.6,0.4-1.1,0.4c-0.2,0-0.3,0-0.5,0c0,0.1,0.1,0.4,0.1,1c0,1.9-0.1,3-0.2,3.1
					c0.1,0,0.2-0.1,0.4-0.1s0.6,0.1,1.2,0.3c0.1,0.1,0.2,0.8,0.2,2c0,0.6,0,1.1-0.1,1.2c-0.1,0.2-0.4,0.3-1,0.5
					c-0.6,0.2-1.2,0.2-1.8,0.2c-1.8,0-2.8,0-3-0.1c-0.1-0.3-0.2-0.5-0.2-0.7c0-0.1,0-0.2,0.1-0.3c-0.2,0.1-0.7,0.3-1.5,0.7
					c-0.8,0.4-1.3,0.6-1.7,0.6c-1.2,0-2-0.5-2.6-1.5C554.2,6103.7,554,6102.5,554,6101.1z M557,6100.7c0,0.5,0.2,1,0.4,1.3
					c0.3,0.4,0.7,0.5,1.1,0.5c0.6,0,1.2-0.3,1.7-0.9c0.5-0.5,0.8-1.2,0.8-1.9c0-0.5-0.2-0.9-0.5-1.2s-0.7-0.5-1.2-0.5
					s-0.9,0.1-1.2,0.4c-0.4,0.3-0.7,0.7-0.9,1.1C557,6100,557,6100.3,557,6100.7z"/>
				<path class="st3" d="M567.7,6097c0-1,0.1-1.6,0.2-1.9c1.1-0.3,2.2-0.5,3.1-0.5c1,0,1.9,0.1,2.7,0.4c0.1,0.1,0.2,0.4,0.3,0.8
					c0.1,0.5,0.2,0.9,0.2,1.2c0,0.5-0.1,0.9-0.4,1.3c-0.2,0.1-0.4,0.1-0.6,0.1c-0.1,0-0.1,0-0.2,0s-0.1,0-0.1-0.1h-0.1
					c-0.1,0.4-0.1,0.9-0.1,1.2c0,0.9,0.2,1.5,0.7,2c0.4,0.5,1,0.7,1.6,0.7s1.1-0.3,1.6-0.8s0.7-1.2,0.7-2.2c0-0.4,0-0.8-0.1-1.2
					c-0.2,0.1-0.4,0.2-0.7,0.2c-0.2,0-0.3-0.1-0.3-0.1c-0.2-0.1-0.3-0.6-0.3-1.4c0-0.8,0.1-1.2,0.3-1.4c1-0.5,2.3-0.8,3.7-0.8
					c1.6,0,2.6,0.2,2.9,0.6c0.2,0.2,0.2,0.6,0.2,1c0,0.9-0.2,1.4-0.7,1.6c-0.2,0.1-0.4,0.2-0.6,0.2c-0.1,0-0.2,0-0.3,0
					c0,0.4,0,1.1,0,2.1s0,1.7,0,2.2c0.5,0,0.7,0,0.8,0c0.2,0,0.3,0,0.4,0c0.1,0,0.1,0.2,0.1,0.5c0,0.4-0.1,0.9-0.2,1.5
					c-0.2,0.6-0.3,1-0.4,1.1c-0.2,0.1-0.5,0.2-1.2,0.3c-0.6,0.1-1.2,0.2-1.8,0.2c-0.7,0-1.2-0.1-1.6-0.3c-0.1-0.1-0.2-0.3-0.2-0.6
					c0,0,0-0.3,0.1-0.8c-1.6,1.2-3.1,1.8-4.5,1.8c-1.2,0-2.2-0.4-2.8-1.2c-0.7-0.9-1.1-2.1-1.1-3.9c0-0.3,0-1.1,0.2-2.5
					c0,0-0.1,0.1-0.2,0.1c-0.2,0-0.5,0-1-0.1C567.8,6098.3,567.7,6097.8,567.7,6097z"/>
				<path class="st3" d="M584,6100.7c0-2.1,0.7-3.6,2-4.7s3.2-1.6,5.8-1.6l0.2-0.6c0.4-0.1,0.8-0.1,1.2-0.1c0.9,0,1.7,0.2,2.4,0.8
					c0,0.2,0.1,0.5,0.1,0.9c0,0.8-0.1,1.4-0.4,2c-0.2,0.5-0.6,0.9-1,1c-0.7,0.2-1.2,0.4-1.8,0.4c-0.5,0-1-0.1-1.5-0.4l0.2-0.8
					c-0.3-0.1-0.7-0.2-1-0.2c-0.7,0-1.2,0.3-1.7,1c-0.5,0.7-0.7,1.3-0.7,2.1c0,0.6,0.2,1.2,0.5,1.7s0.7,0.8,1.1,0.8
					c0.4,0,0.9-0.2,1.5-0.5l-0.2-0.6c0.7-0.5,1.5-0.8,2.4-0.8c0.3,0,0.7,0,1.2,0.1c0.9,1,1.4,2.2,1.4,3.6c0,0.3,0,0.6-0.1,0.9
					c-0.8,0.5-1.8,0.8-2.8,0.8c-0.2,0-0.4,0-0.7,0l-0.2-0.6c-1,0.2-1.9,0.3-2.7,0.3c-1.6,0-2.9-0.5-3.8-1.3
					C584.5,6103.9,584,6102.6,584,6100.7z"/>
				<path class="st3" d="M596.1,6091.4c0-1.1,0.2-1.8,0.6-2c0.5-0.3,1.4-0.4,2.8-0.4c0.7,0,1.5,0.1,2.3,0.3c0.3,0.5,0.5,1.8,0.5,3.9
					c0,1.5-0.1,2.5-0.2,3c1.6-1.2,3.1-1.8,4.5-1.8c1.2,0,2.1,0.4,2.8,1.3c0.7,0.9,1.1,2.1,1.1,3.9c0,0.3,0,1.1-0.2,2.5
					c0,0,0.1,0,0.2,0c0.2,0,0.6,0,1,0.1c0.1,0.1,0.2,0.6,0.2,1.5c0,1-0.1,1.7-0.2,2c-1.1,0.2-2.2,0.4-3.1,0.4c-1,0-1.9-0.1-2.7-0.3
					c-0.1-0.1-0.2-0.4-0.3-0.8c-0.1-0.5-0.2-0.9-0.2-1.2c0-0.5,0.1-0.9,0.4-1.3c0.2-0.1,0.4-0.1,0.6-0.1c0.1,0,0.1,0,0.2,0
					s0.1,0,0.1,0h0.1c0.1-0.5,0.1-0.9,0.1-1.2c0-0.9-0.2-1.5-0.6-2s-0.9-0.7-1.5-0.7s-1.2,0.3-1.6,0.8c-0.5,0.6-0.7,1.3-0.7,2.2
					c0,0.4,0,0.8,0.1,1.2c0.2-0.1,0.4-0.2,0.6-0.2s0.4,0,0.5,0.1c0.1,0,0.2,0.3,0.2,0.9c0,0.1-0.1,0.8-0.2,1.9
					c-1.1,0.5-2.3,0.7-3.8,0.7c-1.7,0-2.6-0.2-2.9-0.6c-0.1-0.2-0.2-0.4-0.2-0.8c0-1.1,0.2-1.7,0.6-1.9c0.2-0.1,0.5-0.2,0.8-0.2
					c0.1,0,0.2,0,0.3,0c-0.2-1-0.2-3.1-0.2-6.1c0-2,0-3.3,0.2-3.8c-0.2,0.1-0.6,0.1-1.1,0.1c-0.3,0-0.7,0-0.9-0.1
					C596.1,6092.3,596.1,6092,596.1,6091.4z"/>
			</g>
		</g>
	</g>
	<g id="Step-47">
		<g>
			<path class="st0" d="M503.3,5420.4c0.1,0.4,0.5,0.6,1,0.7c2.6-0.2,10.9-1,12.3-5c0.1-0.4,0.6-1.9-0.2-3.2
				c-0.7-1.2-2.2-1.7-3.3-1.8c-0.6-0.1-0.9,0.1-1.3,0.2c-2.4,0.8-4.4,1.9-4.8,2.2c-0.9,0.5-2.2,1.1-4,1.6c-0.5,0.1-0.8,0.6-0.6,1.1
				C502.5,5417.6,502.9,5418.9,503.3,5420.4z"/>
			<path class="st0" d="M501.6,5421.6c0.5-0.2,0.7-0.6,0.6-1.1l-1.2-4.3c-0.1-0.4-0.5-0.6-0.9-0.7c-1.7,0-3.2,0.9-3.7,2.3
				c-0.4,1.2,0.1,2.4,0.8,3.2C498.1,5422,499.9,5422.3,501.6,5421.6z"/>
		</g>
		<g>
			<path class="st0" d="M454,5428.8c0.2,0.5,0.8,0.7,1.2,0.4c1.6-0.8,3-1.2,4.1-1.3c0.4,0,2.8-0.4,5.1-1.4c0.4-0.1,0.7-0.3,1.2-0.7
				c0.8-0.7,1.7-2.1,1.5-3.5c-0.2-1.5-1.5-2.3-1.9-2.6c-3.6-2.2-10.5,2.4-12.6,3.9c-0.3,0.3-0.5,0.8-0.3,1.1
				C452.9,5426.2,453.3,5427.5,454,5428.8z"/>
			<path class="st0" d="M447.1,5428.3c0,1.1,0.3,2.3,1.4,2.9c1.2,0.8,2.9,0.6,4.4-0.5c0.3-0.3,0.5-0.8,0.3-1.1l-1.8-4.1
				c-0.2-0.5-0.8-0.7-1.2-0.6C448.4,5425.5,447.3,5426.8,447.1,5428.3z"/>
		</g>
	</g>
	<g id="Step-46">
		<g>
			<path class="st0" d="M416.7,4646.2c0.1,0.4,0.5,0.6,1,0.7c2.6-0.2,10.9-1,12.3-5c0.1-0.4,0.6-1.9-0.2-3.2
				c-0.7-1.2-2.2-1.7-3.3-1.8c-0.6-0.1-0.9,0.1-1.3,0.2c-2.4,0.8-4.4,1.9-4.8,2.2c-0.9,0.5-2.2,1.1-4,1.6c-0.5,0.1-0.8,0.6-0.6,1.1
				C415.8,4643.4,416.2,4644.7,416.7,4646.2z"/>
			<path class="st0" d="M414.9,4647.4c0.5-0.2,0.7-0.6,0.6-1.1l-1.2-4.3c-0.1-0.4-0.5-0.6-0.9-0.7c-1.7,0-3.2,0.9-3.7,2.3
				c-0.4,1.2,0.1,2.4,0.8,3.2C411.5,4647.8,413.3,4648.1,414.9,4647.4z"/>
		</g>
		<g>
			<path class="st0" d="M454,4618.8c0.2,0.5,0.8,0.7,1.2,0.4c1.6-0.8,3-1.2,4.1-1.3c0.4,0,2.8-0.4,5.1-1.4c0.4-0.1,0.7-0.3,1.2-0.7
				c0.8-0.7,1.7-2.1,1.5-3.5c-0.2-1.5-1.5-2.3-1.9-2.6c-3.6-2.2-10.5,2.4-12.6,3.9c-0.3,0.3-0.5,0.8-0.3,1.1
				C452.9,4616.2,453.3,4617.5,454,4618.8z"/>
			<path class="st0" d="M447.1,4618.3c0,1.1,0.3,2.3,1.4,2.9c1.2,0.8,2.9,0.6,4.4-0.5c0.3-0.3,0.5-0.8,0.3-1.1l-1.8-4.1
				c-0.2-0.5-0.8-0.7-1.2-0.6C448.4,4615.5,447.3,4616.8,447.1,4618.3z"/>
		</g>
	</g>
	<g id="Step-45">
		<g>
			<path class="st0" d="M416.7,3836.2c0.1,0.4,0.5,0.6,1,0.7c2.6-0.2,10.9-1,12.3-5c0.1-0.4,0.6-1.9-0.2-3.2
				c-0.7-1.2-2.2-1.7-3.3-1.8c-0.6-0.1-0.9,0.1-1.3,0.2c-2.4,0.8-4.4,1.9-4.8,2.2c-0.9,0.5-2.2,1.1-4,1.6c-0.5,0.1-0.8,0.6-0.6,1.1
				C415.8,3833.4,416.2,3834.7,416.7,3836.2z"/>
			<path class="st0" d="M414.9,3837.4c0.5-0.2,0.7-0.6,0.6-1.1l-1.2-4.3c-0.1-0.4-0.5-0.6-0.9-0.7c-1.7,0-3.2,0.9-3.7,2.3
				c-0.4,1.2,0.1,2.4,0.8,3.2C411.5,3837.8,413.3,3838.1,414.9,3837.4z"/>
		</g>
		<g>
			<path class="st0" d="M360.2,3836.5c0.1,0.5,0.6,0.8,1.1,0.7c1.8-0.4,3.2-0.6,4.3-0.5c0.4,0,2.8,0.1,5.3-0.4
				c0.4,0,0.8-0.2,1.3-0.5c1-0.6,2-1.7,2.1-3.1c0.1-1.5-1.1-2.6-1.4-2.9c-3.1-2.8-10.7,0.4-13.1,1.5c-0.3,0.2-0.6,0.7-0.5,1
				C359.6,3833.8,359.8,3835.2,360.2,3836.5z"/>
			<path class="st0" d="M353.6,3834.8c-0.2,1.1-0.1,2.3,0.8,3.1c1,1,2.8,1.1,4.4,0.3c0.3-0.2,0.6-0.7,0.5-1l-1-4.3
				c-0.1-0.5-0.6-0.8-1-0.8C355.4,3832.3,354,3833.3,353.6,3834.8z"/>
		</g>
	</g>
	<g id="Step-44">
		<g>
			<path class="st0" d="M316.1,3042.1c0,0.4,0.4,0.7,0.8,0.9c2.5,0.4,10.8,1.4,13-2.1c0.2-0.4,1.1-1.8,0.6-3.2
				c-0.4-1.3-1.8-2.2-2.9-2.5c-0.6-0.2-0.9-0.1-1.4-0.1c-2.5,0.2-4.7,0.9-5.2,1.1c-1,0.3-2.4,0.6-4.2,0.7c-0.5,0-0.9,0.4-0.8,1
				C315.9,3039.2,316,3040.6,316.1,3042.1z"/>
			<path class="st0" d="M314.1,3042.9c0.5-0.1,0.8-0.5,0.8-1l-0.2-4.5c0-0.4-0.4-0.7-0.7-0.9c-1.7-0.4-3.3,0.2-4.1,1.5
				c-0.6,1-0.4,2.3,0.1,3.3C310.7,3042.5,312.4,3043.2,314.1,3042.9z"/>
		</g>
		<g>
			<path class="st0" d="M360.2,3026.5c0.1,0.5,0.6,0.8,1.1,0.7c1.8-0.4,3.2-0.6,4.3-0.5c0.4,0,2.8,0.1,5.3-0.4
				c0.4,0,0.8-0.2,1.3-0.5c1-0.6,2-1.7,2.1-3.1c0.1-1.5-1.1-2.6-1.4-2.9c-3.1-2.8-10.7,0.4-13.1,1.5c-0.3,0.2-0.6,0.7-0.5,1
				C359.6,3023.8,359.8,3025.2,360.2,3026.5z"/>
			<path class="st0" d="M353.6,3024.8c-0.2,1.1-0.1,2.3,0.8,3.1c1,1,2.8,1.1,4.4,0.3c0.3-0.2,0.6-0.7,0.5-1l-1-4.3
				c-0.1-0.5-0.6-0.8-1-0.8C355.4,3022.3,354,3023.3,353.6,3024.8z"/>
		</g>
	</g>
	<g id="Step-43">
		<g>
			<path class="st0" d="M316.1,2232.1c0,0.4,0.4,0.7,0.8,0.9c2.5,0.4,10.8,1.4,13-2.1c0.2-0.4,1.1-1.8,0.6-3.2
				c-0.4-1.3-1.8-2.2-2.9-2.5c-0.6-0.2-0.9-0.1-1.4-0.1c-2.5,0.2-4.7,0.9-5.2,1.1c-1,0.3-2.4,0.6-4.2,0.7c-0.5,0-0.9,0.4-0.8,1
				C315.9,2229.2,316,2230.6,316.1,2232.1z"/>
			<path class="st0" d="M314.1,2232.9c0.5-0.1,0.8-0.5,0.8-1l-0.2-4.5c0-0.4-0.4-0.7-0.7-0.9c-1.7-0.4-3.3,0.2-4.1,1.5
				c-0.6,1-0.4,2.3,0.1,3.3C310.7,2232.5,312.4,2233.2,314.1,2232.9z"/>
		</g>
		<g>
			<path class="st0" d="M268.2,2226.9c0,0.5,0.5,0.9,1,0.8c1.8-0.2,3.3-0.1,4.3,0.1c0.4,0.1,2.8,0.5,5.3,0.3c0.4,0,0.8-0.1,1.4-0.3
				c1-0.4,2.2-1.4,2.5-2.8c0.3-1.5-0.7-2.7-1-3.1c-2.7-3.2-10.7-1.1-13.2-0.3c-0.4,0.2-0.7,0.6-0.6,1
				C268,2224.1,268,2225.5,268.2,2226.9z"/>
			<path class="st0" d="M261.9,2224.2c-0.4,1-0.4,2.2,0.4,3.2c0.9,1.1,2.6,1.5,4.3,0.9c0.4-0.2,0.7-0.6,0.6-1l-0.4-4.4
				c0-0.5-0.5-0.9-0.9-0.9C264.1,2222,262.5,2222.9,261.9,2224.2z"/>
		</g>
	</g>
	<g id="Step-42">
		<g>
			<path class="st0" d="M226.3,1428.5c0,0.4,0.3,0.8,0.7,0.9c2.5,0.5,10.7,1.9,13.1-1.5c0.2-0.3,1.1-1.7,0.7-3.2
				c-0.3-1.4-1.7-2.3-2.7-2.6c-0.5-0.2-0.9-0.2-1.3-0.2c-2.5,0.1-4.8,0.7-5.2,0.8c-1,0.3-2.5,0.5-4.3,0.5c-0.5,0-1,0.4-0.9,0.9
				C226.2,1425.6,226.2,1427,226.3,1428.5z"/>
			<path class="st0" d="M224.3,1429.3c0.5-0.1,0.8-0.4,0.9-0.9v-4.5c0-0.4-0.3-0.8-0.7-0.9c-1.7-0.4-3.3,0-4.2,1.3
				c-0.6,1-0.5,2.3-0.1,3.3C220.8,1428.7,222.5,1429.4,224.3,1429.3z"/>
		</g>
		<g>
			<path class="st0" d="M268.2,1416.9c0,0.5,0.5,0.9,1,0.8c1.8-0.2,3.3-0.1,4.3,0.1c0.4,0.1,2.8,0.5,5.3,0.3c0.4,0,0.8-0.1,1.4-0.3
				c1-0.4,2.2-1.4,2.5-2.8c0.3-1.5-0.7-2.7-1-3.1c-2.7-3.2-10.7-1.1-13.2-0.3c-0.4,0.2-0.7,0.6-0.6,1
				C268,1414.1,268,1415.5,268.2,1416.9z"/>
			<path class="st0" d="M261.9,1414.2c-0.4,1-0.4,2.2,0.4,3.2c0.9,1.1,2.6,1.5,4.3,0.9c0.4-0.2,0.7-0.6,0.6-1l-0.4-4.4
				c0-0.5-0.5-0.9-0.9-0.9C264.1,1412,262.5,1412.9,261.9,1414.2z"/>
		</g>
	</g>
	<g id="Step-41">
		<g>
			<path class="st0" d="M226.3,618.5c0,0.4,0.3,0.8,0.7,0.9c2.5,0.5,10.7,1.9,13.1-1.5c0.2-0.3,1.1-1.7,0.7-3.2
				c-0.3-1.4-1.7-2.3-2.7-2.6c-0.5-0.2-0.9-0.2-1.3-0.2c-2.5,0.1-4.8,0.7-5.2,0.8c-1,0.3-2.5,0.5-4.3,0.5c-0.5,0-1,0.4-0.9,0.9
				C226.2,615.6,226.2,617,226.3,618.5z"/>
			<path class="st0" d="M224.3,619.3c0.5-0.1,0.8-0.4,0.9-0.9v-4.5c0-0.4-0.3-0.8-0.7-0.9c-1.7-0.4-3.3,0-4.2,1.3
				c-0.6,1-0.5,2.3-0.1,3.3C220.8,618.7,222.5,619.4,224.3,619.3z"/>
		</g>
		<g>
			<path class="st0" d="M188.6,609c0.1,0.5,0.7,0.8,1.1,0.6c1.7-0.5,3.2-0.6,4.3-0.6c0.4,0,2.8,0,5.3-0.5c0.4-0.1,0.8-0.2,1.3-0.5
				c0.9-0.6,2-1.8,2.1-3.2c0-1.5-1.1-2.6-1.5-2.9c-3.1-2.7-10.7,0.7-13.1,1.8c-0.3,0.2-0.6,0.7-0.4,1
				C187.9,606.3,188.1,607.7,188.6,609z"/>
			<path class="st0" d="M181.9,607.4c-0.2,1.1-0.1,2.3,0.9,3.1c1,1,2.8,1,4.4,0.2c0.3-0.2,0.6-0.7,0.4-1l-1.1-4.3
				c-0.1-0.5-0.7-0.8-1.1-0.8C183.7,604.9,182.3,606,181.9,607.4z"/>
		</g>
	</g>
</g>
</svg>
