<?xml version="1.0" encoding="utf-8"?>
<svg version="1.1" id="FQT-Animation" xmlns="http://www.w3.org/2000/svg" xmlns:xlink="http://www.w3.org/1999/xlink" x="0px"
	 y="0px" viewBox="0 0 1080 15120" style="enable-background:new 0 0 1080 15120;" xml:space="preserve">
<style type="text/css">
	.st0{fill:#FFF9D9;stroke:#000000;stroke-opacity:0.4;stroke-width:1;stroke-linecap:round;stroke-linejoin:round;stroke-miterlimit:10;}
</style>
<g id="Flip-Page-Reverse">
	<g id="Page-13">
		<path class="st0" d="M979.1,14743.8c0.9,15.2,2,30.3,3.1,45.4c-67.2,1.5-122.1-2-160.7-5.5c-120.6-11.2-174.9-23.2-220.4,9.4
			c-10.2,7.3-43.3,31-54,72.8c-2.5,9.9-3.2,18.5-3.3,24.3l1.5-316.2c0.5-105.4,1-210.8,1.5-316.1c4.1-4.5,7.6-7.5,9-8.8
			c72-61.2,189.9,14.6,398.2,28.7c14.6,1,26.2,1.4,29.8,1.6C971,14434.9,969.5,14589.7,979.1,14743.8z"/>
	</g>
	<g id="Page-12">
		<path class="st0" d="M911.5,13175.3c-167,4.4-265.1-67.3-346.4-13.2c-5.2,3.4-12,8.5-19.3,15.9c-0.7,210.7-1.3,421.5-2,632.2
			c5.3-27.1,17.3-63.5,47.7-89.8c57.4-49.8,151.7-38.8,214.4-31.5c35.9,4.2,83.9,13.8,154.4,6.8c11-1.1,20-2.3,25.8-3.2
			c-5.1-61.2-8.5-122.4-10.3-183.7c-3.4-113-1.3-226.3,6.3-339.6C965.4,13171.6,941,13174.5,911.5,13175.3z"/>
	</g>
	<g id="Page-11">
		<path class="st0" d="M834.1,12071.8c-137.9,6.3-238.5-43.3-276.7,3.5c-6.5,8-9.4,16.6-10.8,22.6c-1,210.8-1.9,421.5-2.9,632.3
			c0.5-9.8,2-24.4,7.9-40.9c16.3-46.2,53.7-73.1,71.5-83.3c93.1-53.4,188.9,40.8,306.4-17.6c12.1-6,21.3-12,26.6-15.7
			c-2.3-61.3-3.8-122.6-4.3-183.9c-1-112.4,1-224.9,5.9-337.3C910.8,12064.8,869.1,12070.2,834.1,12071.8z"/>
	</g>
	<g id="Page-10">
		<path class="st0" d="M873.2,10951.8c-148.8,45.6-266-26.9-311.8,26c-3.9,4.5-7.8,8.9-10.6,15.1c-4.8,10.5-4.2,20-4.2,22.5
			c0.5,16.6-0.9,274.2-2.9,634.7c8.5-67.8,33.9-101.2,55.6-119.2c93.5-77.5,272.5,2,305.2-64.2c3.4-6.9,4.1-13.4,4.2-17
			c0.4-56.4,0.6-112.8,0.5-169.2c0-0.7,0.2,2.7-0.2-94.3c-0.2-57.2-0.6-140.1-1.4-246.9C900.8,10942.2,888.7,10947.1,873.2,10951.8z
			"/>
	</g>
	<g id="Page-9">
		<path class="st0" d="M856.1,9824.7c-14.4,6.4-40.2,16.9-73.6,25.1c-110.6,27.1-185-0.6-220.3,43.5c-5.8,7.3-10,14.8-12.5,22.9
			c-3.2,10-3,18.2-3,20.8c0.1,18.2-1.2,277.2-2.9,633.3c3.1-80.2,29.1-120.7,54-142.9c73.4-65.4,192.4-22.2,237.9-93.9
			c12.3-19.5,13.4-38.7,14.3-56.5C858.2,10118.2,856.4,9870.7,856.1,9824.7z"/>
	</g>
	<g id="Page-8">
		<path class="st0" d="M773.2,8709.7c-7.8-1.7-8.5,12.1-31.3,29.8c-57,44.3-118.4,9.8-162.1,45.6c-9,7.4-16.9,16.2-22.7,27
			c-10.8,20.1-10.5,39.4-10.4,45.8c0.3,34.2-1.5,286-2.9,632.3c-3.4-96.7,23.9-142.7,51-166.9c54.3-48.5,147.7-44.3,163.6-101.5
			c2.3-8.2,2.1-14.6,2-19.7C758.2,9056.6,812.3,8718.1,773.2,8709.7z"/>
	</g>
	<g id="Page-7">
		<path class="st0" d="M502.3,7722.4c2.5,2.1,6.4,5.2,11.2,8.4c18.2,12.3,26.6,11.7,31.3,26.9c3,9.8,2.8,17.8,2.8,19.5
			c-0.6,12.1-2,273-3.8,632.9c0,0.5,1.5-9.5,0.4-28c-4.2-69.2-44.1-126.6-43.5-159.1c0-1.3,0.2-10.4,0.3-23.5c0-6.5,0-12.4,0-20.2
			c0-20.4,0.1-31.5,0.1-33.8C501.2,8136,501.5,8028.7,502.3,7722.4z"/>
		<path class="st0" d="M507.1,7705.9c-44.5,38.4-18.2,98.9-10.6,345.3c2.2,73.1,3.1,172,4.1,172c0.2,0-0.3-5.7,0.6-10.7
			c6.5-37,89.3-29.1,133.2-64.5c86.8-70-16.5-278.6,1.2-417.9c0.8-6.4,3.3-24.1-7-36.4C608.3,7669.7,542,7675.7,507.1,7705.9z"/>
	</g>
	<g id="Page-6">
		<path class="st0" d="M445.1,6643.2c5.7,2.1,14.4,5.2,25.1,8.4c40.6,12.4,59.6,11.7,70,26.9c2.6,3.7,5.6,9.8,6.2,19.5
			c-0.9,210.7-1.8,421.4-2.8,632.2c0.9-19.7-2.4-34.2-5-42.9c-20.2-66.8-98.1-112.7-97.1-143.4c0-1.5,0.5-10.4,0.8-23.5
			c0.1-6.5,0.1-12.4,0.1-20.2c0-20.4,0.2-31.5,0.3-33.8C442.9,7056.7,443.5,6949.5,445.1,6643.2z"/>
		<path class="st0" d="M456.2,6626.6c-40.3,27-26,97.9-18.5,237.9c7.7,144,2.4,279.4,4,279.4c0.4,0-0.8-7.5,2.3-16.4
			c9.4-26.7,45.9-32.8,61.9-40.2c73.6-33.9,15.4-233,22.3-406c0.5-13.8,2.4-48.4-17.2-61.1C495.2,6610.2,470.2,6617.2,456.2,6626.6z
			"/>
	</g>
	<g id="Page-5">
		<path class="st0" d="M344,5585.9c16.3,3.4,30.2,4.5,40.8,4.7c75,1.6,116-36.6,150.3,8.1c5.5,7.1,9.3,14.4,11.7,19.5
			c-1,210.7-2,421.3-3,632l0,0c0,0,1-45.5-18-75c-27.3-42.5-96.5-53.4-123-57.5c-0.7-0.1-1.2-0.2-2.2-0.4
			c-24.9-4.9-52.7-30.3-52.6-53.2c0-5.3,1.6-22.5,1.6-43.7c0,0,0.2-7.2,0.5-33.8C351.8,5853.1,349.7,5719.6,344,5585.9z"/>
		<path class="st0" d="M343.9,5571.8c-42.4,39.6-9.1,119.6-3.4,212.9c4.1,66.7,8.3,161.8,7.5,279.4c-0.4-3.7-0.5-9.4,1.5-15.7
			c9.2-28,49.6-27.9,71.6-41.5c80.8-50-25.1-323.7-5.5-425.6c1-5.3,4.7-22.4-3.9-29.9C398.6,5540,362.2,5554.7,343.9,5571.8z"/>
	</g>
	<g id="Page-4">
		<path class="st0" d="M281.2,4505.6c21.4,3.4,39.5,4.5,53.4,4.7c98.2,1.6,151.9-36.6,196.7,8.1c7.1,7.1,12.2,14.4,15.3,19.5
			c-1,210.7-2,421.5-2.9,632.2c-0.3-17.8-3.8-62.7-36.4-94.6c0,0-43.6-42.5-136-37.8c0,0-0.2,0-0.5,0c-1.2,0-4.2,0.2-8.2,0
			c-2.1-0.1-4.6-0.3-7.2-0.8c-32.6-4.9-69-30.3-68.9-53.2c0-5.3,2.1-22.5,2.1-43.7c0,0,0.2-7.2,0.6-33.8
			C291.5,4772.9,288.8,4639.4,281.2,4505.6z"/>
		<path class="st0" d="M281.2,4491.6c-40.1,26.8-11,130.9-4.4,212.9c5.4,66.7,10.9,161.8,9.8,279.4c-0.8-4.6-1-10.5,2-15.7
			c10.2-18,44.5-4,64-13.3c70.1-33.5-39.8-371.1-29.6-444.9c0.5-4.1,3.2-20.1-4.9-26.2C308.1,4476.2,287.1,4487.6,281.2,4491.6z"/>
	</g>
	<g id="Page-3">
		<path class="st0" d="M209.2,3425c27.2,3.4,50.4,4.5,68.1,4.7c125.1,1.6,193.6-36.6,250.8,8.1c9.1,7.1,15.5,14.4,19.5,19.5
			c-1.3,211-2.5,421.9-3.8,632.9l0,0c0,0-0.3-22.2-0.5-26c-1-20.7-24.3-64-67-86.6c-24.8-13.1-71-15.6-163.4-20.5
			c-2.3-0.1-5.1-0.3-9-0.7c-41.5-4.9-87.9-30.3-87.8-53.2c0-5.3,2.6-22.5,2.6-43.7c0,0,0.3-7.2,0.8-33.8
			C222.2,3692.3,218.8,3558.7,209.2,3425z"/>
		<path class="st0" d="M209.1,3410.9c-29.7,10.6-12.8,143.7-5.6,212.9c6.9,66.7,13.9,161.8,12.5,279.4c-0.8-4.9-0.8-10.8,2.5-15.7
			c5.7-8.5,17.7-8.3,22-9.5c45.2-12.5-22.8-382.6-9.4-438.9c0.8-3.5,5.3-19.8-2.4-26.6C222.6,3407,211.5,3410.1,209.1,3410.9z"/>
	</g>
	<g id="Page-2">
		<path class="st0" d="M173.5,2344.9c30.1,3.4,55.6,4.5,75.1,4.7c138.1,1.6,213.7-36.6,276.8,8.1c10,7.1,17.2,14.4,21.5,19.5
			c-1.1,211-2.1,422-3.2,633c0.2-3,0.2-7.6-0.2-13.1c0,0-3.4-47.1-42.9-84.7c-44.4-42.4-101.5-13.1-200.4-35.4
			c-30.9-7-72-20.4-118.2-48.5c1.2-27.6,2.1-55.2,2.8-82.9C187.9,2612.2,184.1,2478.6,173.5,2344.9z"/>
	</g>
	<g id="Page-1">
		<path class="st0" d="M141.5,1291.2c4.2,0.6,13.4,2,25.1,3.1c171.1,16.7,272.1-70.5,357.4-16.9c4.7,2.9,13.7,9.1,23.6,19.5
			c0.4,52.7,0.6,105.4,0.7,158.1c0.1,158.4-1.4,316.8-4.5,475.2c0.6-3,1-7,0.8-11.5c-0.2-5.3-1.3-9.7-2.3-12.9
			c-6.4-24.1-18.8-53.5-45.3-73.7c-49.9-38-109.4-12-214.6-21.2c-33.6-3-80.7-10.2-136.6-29.6c1.1-18.8,2-37.5,2.8-56.3
			C154.5,1580.7,152.2,1436.1,141.5,1291.2z"/>
	</g>
	<g id="Page-0">
	</g>
</g>
</svg>
