<?xml version="1.0" encoding="utf-8"?>
<svg version="1.1" id="FQT-Animation" xmlns="http://www.w3.org/2000/svg" xmlns:xlink="http://www.w3.org/1999/xlink" x="0px"
	 y="0px" viewBox="0 0 1080 15120" style="enable-background:new 0 0 1080 15120;" xml:space="preserve">
<style type="text/css">
	.st0{fill:#FFF9D9;stroke:#000000;stroke-opacity:0.4;stroke-width:1;stroke-linecap:round;stroke-linejoin:round;stroke-miterlimit:10;}
</style>
<g id="Flip-Page">
	<g id="Page-13">
		<path class="st0" d="M546.6,14257.9l-1.5,316.2l-1.5,316.2c-0.4-6.5-1.6-16-5.2-26.7c-14.4-42.6-53-63.8-65.4-70.6
			c-60-33-118.1-9.2-243.8,2.5c-32.6,3-79.2,5.5-136.5,1.7c0.8-18.1,1.4-36.2,2-54.3c4.9-153.2,3.2-306.6-5.1-460.3
			c10.2-0.5,27.8-1.5,49.7-3.5c201.7-18.9,304.7-84.6,395.9-28.9C537.9,14251.9,541.9,14254.4,546.6,14257.9z"/>
	</g>
	<g id="Page-12">
		<path class="st0" d="M110.4,13169.1c4.7,113.2,6.8,226.4,6.3,339.7c-0.3,61-1.3,122.1-3.1,183.1c6.6,1.2,16.3,3,28.2,4.7
			c178.5,25.5,266.2-41.5,337.7,1.2c23.1,13.8,50,42.3,63.9,107.7c1.1-209.1,2.2-418.3,3.2-627.4c-4.2-3.7-10.3-8.6-18.2-13.6
			c-85.3-53.5-181.2,15.5-347.5,10.8C161.1,13174.8,137.3,13173.1,110.4,13169.1z"/>
	</g>
	<g id="Page-11">
		<path class="st0" d="M135.5,12051.5c4.9,112.4,6.9,224.9,5.9,337.3c-0.6,61.3-2,122.6-4.3,183.9c5.3,3.7,14.5,9.7,26.6,15.7
			c118.8,58.9,224.5-26.4,306.3,17.6c24.8,13.3,56.2,43.2,73.3,119.4c1.1-209.1,2.2-418.3,3.2-627.4c-1.4-6-4.3-14.6-10.8-22.6
			c-38.1-46.8-138.7,2.8-276.6-3.5C224.1,12070.2,182.4,12064.8,135.5,12051.5z"/>
	</g>
	<g id="Page-10">
		<path class="st0" d="M185.5,10941.7c-0.8,106.8-1.1,189.7-1.4,246.9c-0.4,97-0.2,93.6-0.2,94.3c0,56.4,0.1,112.8,0.6,169.2
			c0.1,3.6,0.8,10.2,4.2,17c33,66,214.5-14.5,305.2,64.2c20,17.4,42.8,48.8,50,110.2c1.2-352.7,2.1-608.9,2.6-625.7
			c0.1-2.6,0.6-12.2-4.2-22.7c-2.8-6.1-6.7-10.5-10.6-14.9c-45.9-52.9-163,19.5-311.8-26
			C204.6,10949.5,192.4,10944.6,185.5,10941.7z"/>
	</g>
	<g id="Page-9">
		<path class="st0" d="M243.2,10278.1c0.9,17.8,2.1,37,14.4,56.3c45.3,71.4,167,25.1,237.9,93.9c55.5,53.8,48.2,147.5,48.3,141.8
			c1-210.8,1.9-421.5,2.9-632.3c0.1-16.5-5-30.4-15.5-43.6c-35.4-44.1-109.7-16.4-220.3-43.5c-33.4-8.2-59.1-18.7-73.6-25.1
			C236.9,9871.8,235.1,10119.2,243.2,10278.1z"/>
	</g>
	<g id="Page-8">
		<path class="st0" d="M333,9202c-0.1,5.1-0.2,11.5,2,19.7c16.3,58.5,110.2,39.5,163.6,101.5c50.5,58.7,45.1,166.9,45.2,166.9l0,0
			c1-210.8,1.9-421.5,2.9-632.3c0.2-34.8-13.8-56.9-33.1-72.8c-43.7-35.8-105-1.4-162.1-45.6c-22.8-17.7-23.5-31.4-31.3-29.8
			C281,8718.1,335.1,9056.6,333,9202z"/>
	</g>
	<g id="Page-7">
		<path class="st0" d="M590.4,8146.3c0,2.3,0.1,13.4,0.1,33.8l0,0c0,15.4,0,23.1,0.4,43.7c0.4,21.7-37.2,52.2-43.5,106.9
			c-1,9-2.7,31.2-3.3,55.2c-0.3,10.2-0.3,18.6-0.4,24.3l0.2-316.2c0-105.4,0.1-210.8,0.2-316.1c0.2-9.6,1.6-15.8,2.8-19.5
			c4.7-15.2,13.1-14.6,31.3-26.9c4.8-3.3,8.7-6.4,11.2-8.4C590.1,8029.3,590.4,8136.5,590.4,8146.3z"/>
		<path class="st0" d="M463,7694.3c-10.4,12.3-7.9,30-7,36.4c17.6,139.4-85.7,348,1.2,417.9c43.8,35.4,126.6,27.4,133.1,64.5
			c0.9,5,0.3,10.7,0.6,10.7c1,0,1.9-98.9,4.2-172c7.6-246.4,33.8-306.9-10.7-345.3C549.5,7676.3,483.3,7670.3,463,7694.3z"/>
	</g>
	<g id="Page-6">
		<path class="st0" d="M648.2,7066.3c0,2.3,0.3,13.4,0.3,33.8l0,0c0,15.4,0,23.1,0.8,43.7c0.9,21.7-83.2,52.2-97.3,106.9
			c-2.3,9-6,31.2-7.5,55.2c-0.7,10.2-0.8,18.6-0.8,24.3L544,7014c0.1-105.4,0.2-210.8,0.3-316.1c0.5-9.6,3.6-15.8,6.2-19.5
			c10.5-15.2,29.4-14.6,70-26.9c10.8-3.3,19.5-6.4,25.2-8.4C647.5,6949.3,648.1,7056.5,648.2,7066.3z"/>
		<path class="st0" d="M580,6620.2c-19.7,12.6-17.8,47.2-17.2,61.1c7.2,175.2-53,369.6,22.3,406c17.6,8.5,55.9,14.7,63.5,40.9
			c2.4,8.3,0.9,15.7,0.8,15.7c-0.3,0-3.6-138.5,4-279.4c7.5-140,21.8-210.9-18.5-237.9C620.8,6617.1,595.8,6610,580,6620.2z"/>
	</g>
	<g id="Page-5">
		<path class="st0" d="M741.7,5986.3c0.3,26.6,0.5,33.8,0.5,33.8l0,0c0,21.2,1.6,38.3,1.6,43.7c0,22.9-27.7,48.3-52.6,53.2
			c-5.6,1.1-9.6,0.9-12.2,0.8c-41.8-1.4-82.8-2.1-108.9,35.3c-14.4,20.7-21.3,49.8-24.8,72.8c-1.2,9.9-1.5,18.5-1.5,24.3l0.7-316.1
			c0.2-105.4,0.5-210.8,0.7-316.1c2.4-5,6.2-12.4,11.7-19.5c34.2-44.7,75.3-6.6,150.3-8.1c10.6-0.2,24.5-1.3,40.8-4.7
			C742.1,5719.3,740.1,5852.9,741.7,5986.3z"/>
		<path class="st0" d="M680.2,5551.1c-8.6,7.5-4.9,24.6-3.8,29.9c19.6,101.9-86.3,375.6-5.5,425.6c22,13.6,62.4,13.5,71.5,41.5
			c2,6.2,1.9,12,1.5,15.7c-0.8-117.6,3.3-212.7,7.5-279.4c5.8-93.3,39-173.3-3.3-212.9C729.7,5554.4,693.2,5539.7,680.2,5551.1z"/>
	</g>
	<g id="Page-4">
		<path class="st0" d="M802.9,4906.3c0.4,26.6,0.7,33.8,0.7,33.8l0,0c0,21.2,2,38.3,2.1,43.7c0.1,22.9-36.3,48.3-68.9,53.2
			c-7.3,1.1-12.6,0.9-15.9,0.8c-54.7-1.4-108.4-2.1-142.5,35.3c-18.8,20.7-27.8,49.8-32.5,72.8c-1.5,9.9-1.9,18.5-2,24.3l0.9-316.1
			c0.3-105.4,0.6-210.8,0.9-316.1c3.1-5,8.2-12.4,15.3-19.5c44.8-44.7,98.6-6.6,196.8-8.1c13.8-0.2,32-1.3,53.4-4.7
			C803.4,4639.3,800.7,4772.9,802.9,4906.3z"/>
		<path class="st0" d="M774.1,4483.6c-8.1,6.1-5.4,22.2-4.9,26.2c10.2,73.8-99.7,411.4-29.6,444.9c19.6,9.3,53.8-4.7,64,13.3
			c3,5.2,2.8,11,2,15.7c-1.1-117.6,4.3-212.7,9.8-279.4c6.7-82,35.7-186.1-4.4-212.9C805.1,4487.5,784.1,4476.1,774.1,4483.6z"/>
	</g>
	<g id="Page-3">
		<path class="st0" d="M874,3826.3c0.5,26.6,0.8,33.8,0.8,33.8l0,0c0,21.2,2.6,38.3,2.7,43.7c0.1,22.9-46.3,48.3-87.8,53.2
			c-9.3,1.1-16.1,0.9-20.3,0.8c-69.7-1.4-138.1-2.1-181.6,35.3c-24,20.7-35.5,49.8-41.5,72.8c-2,9.9-2.5,18.5-2.6,24.3l1.1-316.1
			c0.4-105.4,0.8-210.8,1.1-316.1c4-5,10.4-12.4,19.5-19.5c57.2-44.7,125.7-6.6,250.8-8.1c17.7-0.2,40.8-1.3,68.1-4.7
			C874.7,3559.3,871.3,3692.9,874,3826.3z"/>
		<path class="st0" d="M864.9,3413.1c-7.6,6.8-3.2,23.1-2.3,26.6c13.3,56.3-54.7,426.5-9.5,438.9c4.3,1.2,16.3,1,22,9.5
			c3.2,4.8,3.2,10.8,2.5,15.7c-1.4-117.6,5.5-212.7,12.5-279.4c7.2-69.2,24.1-202.3-5.6-212.9C882,3410.6,871,3407.6,864.9,3413.1z"
			/>
	</g>
	<g id="Page-2">
		<path class="st0" d="M908.3,2746.3c0.6,27.7,1.5,55.3,2.8,82.9c-46.2,28.2-87.3,41.6-118.2,48.5c-93,20.9-150.2-3.9-200.5,35.3
			c-26.5,20.7-39.2,49.8-45.8,72.8c-2.2,9.9-2.7,18.5-2.8,24.3L545,2694c0.4-105.4,0.8-210.8,1.2-316.1c4.4-5,11.5-12.4,21.5-19.5
			c63.1-44.7,138.7-6.6,276.8-8.1c19.5-0.2,45-1.3,75.1-4.7C909,2479.3,905.2,2612.9,908.3,2746.3z"/>
	</g>
	<g id="Page-1">
		<path class="st0" d="M945.5,1725.9c0.8,18.8,1.7,37.6,2.8,56.3c-55.9,19.3-103,26.6-136.6,29.6c-107.3,9.5-164.8-17.4-214.6,21.2
			c-40.2,31.2-50.2,72.8-50.2,72.8c-2.4,9.9-3,18.5-3.1,24.3l1.3-316.2c0.5-105.4,0.9-210.8,1.3-316.1c9.9-10.4,18.9-16.5,23.6-19.5
			c85.3-53.6,186.3,33.6,357.4,16.9c11.6-1.1,20.8-2.5,25-3.1C941.8,1437.1,939.5,1581.7,945.5,1725.9z"/>
	</g>
	<g id="Page-0">
	</g>
</g>
</svg>
