<?xml version="1.0" encoding="utf-8"?>
<!-- Generator: Adobe Illustrator 26.4.1, SVG Export Plug-In . SVG Version: 6.00 Build 0)  -->
<svg version="1.1" id="FQT-Location" xmlns="http://www.w3.org/2000/svg" xmlns:xlink="http://www.w3.org/1999/xlink" x="0px"
	 y="0px" viewBox="0 0 1080 135" style="enable-background:new 0 0 1080 135;" xml:space="preserve">
<style type="text/css">
	.st0{fill:url(#SVGID_1_);}
	.st1{fill:#F4AD29;}
	.st2{fill:#FFFDAB;}
</style>
<g id="Mantle">
	<linearGradient id="SVGID_1_" gradientUnits="userSpaceOnUse" x1="540" y1="135.1" x2="540" y2="65.1066">
		<stop  offset="2.237672e-07" style="stop-color:#F16530"/>
		<stop  offset="0.3507" style="stop-color:#D95624"/>
		<stop  offset="0.7399" style="stop-color:#C44A1B"/>
		<stop  offset="1" style="stop-color:#BD4517"/>
	</linearGradient>
	<path class="st0" d="M1080,111.8c-38.1,4.7-64.9-0.8-82.5-7C992.8,103.1,959,91,957.7,94c-0.3,0.6,1,1.7,0.5,2.9
		c-0.7,1.6-4.2,1.6-8.3,1.5c-2.6,0-3.9-0.2-5.8-0.4c-8.5-0.9-11-2.9-21.2-5.4c-13.3-3.4-25.3-4.2-25.7-2.6s10.6,5,10.1,8.3
		c-0.1,0.9-1.1,1.5-2.2,2c-19.6,5.9-32.6,3.4-40.8,0.1c-13.8-5.5-27.6-14.1-27.6-14.1c-5-3.1-13.1-8.6-14.2-7.3
		c-0.9,1,3.5,5.4,2.3,6.9c-1.1,1.5-6.2-1.4-14.2-3c-1-0.2-2.5-0.5-4.5-1c-2.7-0.7-3.9-1.2-7.8-2c-18.7-3.6-37.1-3-37.6,0
		c-0.3,2,7.4,3.6,7.2,6.1c-0.3,3.6-16.3,7.2-32.6,5.4c-22.3-2.4-22.6-12.4-42.4-13.1c-13.4-0.4-21,3.7-32.2,0.2
		c-2.9-0.9-7.7-2.7-15.8-4.7c-6.5-1.6-7.1-1.3-10.6-2.6c-8.1-3-12.5-7.2-14-5.9c-1.4,1.2,2.2,5.5,0.6,7.7c-1.9,2.7-8-1.2-17.4-1
		c-11.3,0.2-18.9,6.3-20.7,3.8c-1.3-1.8,2-5.5,0.8-6.6c-1.2-1.2-5.8,2.5-10.7,5.2c-11.8,6.3-25.5,6.6-26.7,3.7c-0.7-1.7,3-4,2.2-5.3
		c-1.1-2-10.6,1.7-14.7,3.1c-26,8.6-39.1-10.3-67.3-2.4c-5.1,1.4-10,3.5-19,4.6c-9.5,1.1-21.7,0.7-22.9-3.3
		c-0.7-2.5,2.9-4.9,2.1-6.3c-1.3-2.2-10.6,1.1-14.8,2.6c-6.5,2.3-39.6,13.7-41.1,10.6c-0.4-0.7,1.2-1.7,0.8-2.6
		c-0.9-1.9-8.4,0.5-17.8,2.1c-11.3,1.9-21.3,3.4-27.5-2.1c-2.2-1.9-1.8-2.7-3.5-4.3c-6.9-6.1-21.3,0.7-38.2,7.3
		c-15.7,6.2-37.4,13.7-60.5,15.4c-2,0.1-18.5,1.2-19.9-3.4c-0.6-2,2-3.8,1.4-5c-1.6-3.2-21.8,4.1-29.1,6.4
		c-26.1,8.3-30.8-1.3-67.9,2c-33.4,2.9-38.4,11.5-75.9,13.6C19,111.8,7.6,111.4,0,110.8c0,8.1,0,16.2,0,24.3c360,0,719.9,0,1079.9,0
		C1079.9,127.3,1080,119.5,1080,111.8z"/>
	<path class="st1" d="M1080,126.5c-19.1,1.5-33.9,0.2-44-1.2c-18.3-2.7-24.7-6.5-35.5-5.4c-2.3,0.2-8.9,1.1-15.9-1.9
		c-3.1-1.3-3.4-2.3-6.1-3.4c-7.1-2.7-12.1-0.9-19-0.6c-14.6,0.7-25-5.6-26-3.4c-0.5,1,1.9,2.1,1.7,3.4c-0.7,5.7-48.2,14.2-88.9-2.8
		c-5.5-2.3-15.7-7.1-31.5-11.9c-14-4.3-29.2-7.6-30.1-5.3c-0.3,0.9,1.7,1.5,1.7,2.9c0.2,6.6-45,25.3-76,9.1
		c-9.6-5-14.6-11.7-26.3-12.2c-8.9-0.4-13.6,3.2-23.5,0.3c-2.4-0.7-6.4-2.2-13.3-3.8c-1.1-0.3-10.1-2.4-10.7-0.9
		c-0.3,0.7,1.6,1.5,2.2,4c0.3,1.3,0.2,2.6-0.1,3.2c-1.6,3.5-18.7-0.9-22-1.7c-5.3-1.3-9.7-1.8-13.6-1.8c-13,0-17.1,1.3-36.8,3.3
		c-15,1.5-34,2.1-34.8-1.4c-0.2-0.8,0.8-1.1,0.6-1.8c-1.1-3.8-31,8.2-52.9-3.4c-3.1-1.6-4.4-2.8-7.8-3.7c-9.9-2.6-16.1,3.2-28.6,7.1
		c-16.2,5.1-33.3,4.2-34.5,0.3c-0.6-2,3.1-4.3,2.5-5.2c-1.6-2.3-30.5,16.5-33.2,13.1c-1.2-1.5,3.4-5.8,2.3-7.3
		c-2.7-3.6-27.8,20.2-50.3,14.3c-9.1-2.4-18.8-10.5-17.7-15.3c0.5-1.9,2.4-2.6,2.1-3.4c-0.9-2.3-18.1,1.2-35.5,8.1
		c-7.2,2.8-10.8,4.8-15.4,6.9c-32.9,15.1-69.7,15.9-72.7,8c-0.6-1.6,0.3-3.3-1-4.5c-2.8-2.7-10.9,1.5-14.1,2.9
		c-12.8,5.8-24.7,1.7-38.1,0.2c-25-2.9-34.4,5.4-78.4,10.3c-13.8,1.5-33.9,3-58.9,2.3c0,3.7-0.1,7.5-0.1,11.2
		c360,0,719.9,0,1079.9,0C1079.9,132.2,1079.9,129.4,1080,126.5z"/>
	<path class="st2" d="M1079.9,135c0-0.4-27,1-52.4-4.8c-7.4-1.7-12.7-3.6-21.1-2.8c-9.9,0.9-14.5,4.7-22.3,2.1
		c-4.2-1.4-4.8-2.9-10.4-4.3c-6-1.5-6.8-0.1-13.1-1.2c-8.6-1.5-14.6-5.4-15.6-4c-0.5,0.8,1.1,2.1,0.6,4.3c0,0-0.4,1.8-2.8,3.4
		c-6.8,4.5-87.7,4.6-114.5-9.2c-5.7-2.9-11.8-4.8-17.6-7.6c-4.2-2-8.5-4.3-9.7-3c-0.9,1,0.9,3.1,0.8,4.8
		c-0.4,9.2-54.6,29.3-88.1,9.5c-7.3-4.4-15.7-11.8-28.4-11.6c-7.4,0.1-10.8,2.7-18.6,0.9c-9-2.1-15-7.9-17.4-5.8
		c-1.9,1.6,0.6,5.9-1.8,8.3c-1.8,1.8-4.9,1.1-6.1,0.9c-15.4-2.7-47.2,4.6-48.7-1.5c-0.4-1.7,1.8-2.8,1.2-4c-1.4-3-16.6,2-28.1,4.9
		c-30.2,7.5-59.4,5.9-60.5,0.9c-0.3-1.4,1.8-2.5,1.2-3.7c-1.4-2.8-13.8,3.7-28.1,2.3c-9.6-1-9.4-4.5-17.8-6
		c-17.1-3.1-23.2,10.5-50.1,15.6c-14.6,2.7-28.1,1.6-28.7-0.9c-0.3-1.3,2.6-2.6,2.2-3.7c-0.9-2.3-14.5,2.1-16-0.9
		c-0.9-1.8,3.4-5,2.8-6c-1-1.5-10.7,3.8-20.2,7.9c-20.8,8.9-42.1,1.5-45.9-3.9c-2.4-3.6-2.5-6.8-2.5-6.8c0-2.5,0.9-3.6,0.5-4.3
		c-1.8-2.8-21.6,7-21.6,7s-43.5,21.7-89.4,18.3c-7.1-0.5-13.6-2.4-14-5.3c-0.2-1.2,0.8-2.4,0.2-3c-1.1-1.2-6.5,1.9-7.4,2.4
		c-14,7.8-40.8,0-65.3,1.3c-7.9,0.4-9.5,1-24.3,2.8c-31.6,3.7-59,5.5-80.9,6.5v0.1C613.8,136.2,1079.9,136.5,1079.9,135z"/>
</g>
</svg>
