<?xml version="1.0" encoding="utf-8"?>
<!-- Generator: Adobe Illustrator 27.0.1, SVG Export Plug-In . SVG Version: 6.00 Build 0)  -->
<svg version="1.1" id="FQT-Location" xmlns="http://www.w3.org/2000/svg" xmlns:xlink="http://www.w3.org/1999/xlink" x="0px"
	 y="0px" viewBox="0 0 1080 135" style="enable-background:new 0 0 1080 135;" xml:space="preserve">
<style type="text/css">
	.st0{opacity:0.5;fill:#FFFFFF;enable-background:new    ;}
	.st1{fill:url(#SVGID_1_);}
	.st2{fill:url(#SVGID_00000113339690705124301950000017025061724952565170_);}
	.st3{fill:#F0FEFF;}
</style>
<g id="Mountains">
	<g>
		<path class="st0" d="M1029.7,44.3c0.4,3.1,3.9,5.4,7.4,4.5c0.4,0.7,1.3,2.2,3.2,3.1c2.5,1.1,5.7,0.5,8.1-1.6
			c0.4,0.4,2.4,2,5.2,1.8c2.7-0.2,5.1-2.2,6.1-4.9c0.5-0.3,2.6-1.5,3.1-3.7c0.7-2.8-1.2-6.2-4.9-7.7c-0.3-0.9-1.3-3.1-3.6-4.3
			c-3-1.7-7.1-1.1-10.3,1.6c-3.6-0.9-7,0-8.7,2.3c-0.4,0.5-0.9,1.4-1.1,2.8C1031.2,38.8,1029.3,41.6,1029.7,44.3z"/>
		<path class="st0" d="M673.8,37.9c-0.2-0.6-1.4-4.4-5.2-6.1c-3.5-1.6-7.7-0.8-10.8,1.9c-3.5-3.4-8.7-4.2-12.4-2
			c-3.9,2.3-4.5,6.8-4.6,7.4c-2.6,0.7-4.5,2.8-4.6,5.1c-0.1,3,2.6,5.9,6.3,5.9c0.8,0.8,2.6,2.5,5.5,3.1c5,1.1,8.8-1.9,9.4-2.4
			c0.4,0.4,3.2,3,7.3,2.5c4.9-0.6,7-5,7.1-5.2c2.5-0.2,4.6-2.1,5-4.5C677.2,41.3,676,38.9,673.8,37.9z"/>
		<path class="st0" d="M84.5,36.9c-0.2-1.8-0.9-2.9-1.4-3.6c-2.2-3-6.6-4.1-11.3-3c-3.1-4.3-8.5-5.8-12.6-3.9
			c-4.4,2-5.3,7.1-5.4,7.5c-6.1,0.1-10.4,5.3-9.9,10c0.4,3.7,3.7,7,8,7.7c0.2,0.2,3,3.8,7.5,3.4c3.5-0.3,5.5-2.8,5.8-3.2
			c3.3,3.3,7.8,4.5,11.4,3c2.4-1,3.7-3,4.2-4c4.6,1.3,9.1-1.8,9.6-5.8C90.9,41.6,88.5,37.9,84.5,36.9z"/>
	</g>
	
		<linearGradient id="SVGID_1_" gradientUnits="userSpaceOnUse" x1="537.55" y1="1015.1754" x2="537.55" y2="1055.2485" gradientTransform="matrix(1 0 0 1 0 -944)">
		<stop  offset="0" style="stop-color:#FFFCEB"/>
		<stop  offset="1" style="stop-color:#FFF4BD"/>
	</linearGradient>
	<path class="st1" d="M621.9,111.2c-56.2-0.1-112.4-0.2-168.7-0.3c3.8-4.6,34.8-40.8,86.4-39.7C588.9,72.2,617.8,106.2,621.9,111.2z
		"/>
	
		<linearGradient id="SVGID_00000175308670769789672470000017484232992281507259_" gradientUnits="userSpaceOnUse" x1="540" y1="1631.6716" x2="540" y2="1735" gradientTransform="matrix(1 0 0 1 0 -1600)">
		<stop  offset="0" style="stop-color:#0F2533"/>
		<stop  offset="1" style="stop-color:#0B1B26"/>
	</linearGradient>
	<path style="fill:url(#SVGID_00000175308670769789672470000017484232992281507259_);" d="M0,135c0-23.2,0-46.3,0-69.5
		c3.2-3.1,7.8-7.3,13.4-12.3c11.4-10,15.1-12.2,17.4-13c0.2-0.1,0.6-0.2,1-0.3c3.5-0.9,12.4-1.8,27.9,11.3
		c21.1,19.2,41.7,30.1,55.7,36.2c27.8,12.1,52.5,15.1,62.1,15.3c31.3,0.7,56-9.1,70.3-16.3c0.4-0.2,2.6-1.6,5.6-1.8
		c1.2-0.1,2.1,0.1,2.3,0.1c48.3,7.7,88.6-9.4,88.6-9.4c7.3-3.1,17.5-8.4,28.6-17.5c4.7-2.1,13.1-5.5,16.2-5.2
		c1.6,0.2,5.1,1.9,5.6,2.1c0.5,0.3,0.8,0.5,1.1,0.7c11.1,7.9,27.2,17.9,48,26.4c22.2,9,71.9,23.1,126.2,14.1
		c41.5-6.9,72.4-23.7,90.6-35.7c1.2-1,10.9-8.5,22.3-5.4c4.7,1.3,7.9,3.8,9.8,5.6c0.8,0.9,6.4,7.4,9.9,9.5c0.6,0.3,1.3,0.7,2.3,0.8
		c1.9,0.1,3.4-1.2,4-1.8c2.8-0.1,4.9,0.5,6.2,1.1c3.8,1.6,6,4.7,8,7.3c0.4,0.5,3.5,4.7,4,5.4c0.2,0.2,0.5,0.7,1,1.3
		c0,0,10.7,14.3,29.2,21.3c0,0,34.2,12.3,82.9-5.2c1-0.4,2.7-0.8,4.8-0.6c0.7,0.1,1.4,0.3,2,0.4c0.8,0.3,2,0.6,3.5,0.8
		c12.4,1.7,23.2-8.1,34.1-18.3c4.7-4.4,8.5-8.6,10.8-11.2c4.2-4.7,7.4-8.8,9.7-11.8c2.6-0.4,6.2-0.7,10.4,0c7.1,1.1,12,4.4,14.6,6.3
		c7.6,7.2,20.8,17.2,39,20c32.9,5,68.5-15.8,88.9-52.6c0.7-0.7,1.9-1.6,3.3-1.4c1.3,0.1,2.2,1.1,2.5,1.4c2.1,2.2,8.1,7.7,16.2,15.3
		c0,28.9,0,57.7,0,86.6C720,135,360,135,0,135z"/>
	<g>
		<path class="st3" d="M37.6,31.7c0,0-1.5,0-3.1,1.1C32,34.5,18.4,47.4,0,65.5c13.7-12.3,19.2-13.9,21.5-12.7
			c0.4,0.2,1.2,0.7,2.3,0.8c3.7,0.2,5.5-5,7.8-4.6s2,6.2,4.4,6.8c2.1,0.5,3.8-5.7,6.7-5.5c1.6,0.1,2.5,2.3,3.4,1.9
			c1.1-0.4,0.4-3.3,1.7-3.8c0.7-0.3,1.5,0.3,1.8,0.5c2.1,1.4,8.8,4.8,18.6,9.6c-14-13.8-24.5-23.7-27-25.5
			C40.6,32.6,39.3,31.7,37.6,31.7z"/>
		<path class="st3" d="M367.2,62.3c3-1.8,7-3.7,9.6-2.1c2.1,1.3,2.1,4.1,3.5,4.2c2.2,0.2,3.4-7.3,6.4-7.4c2.1-0.1,3.1,3.8,5.6,3.6
			c1.2-0.1,1.6-1,2.8-1.7c1.5-0.8,4.2-0.9,9.3,2.3c-9.5-8-16.5-13.7-17.6-14.4c-0.7-0.4-1.4-0.4-1.4-0.4c-0.8,0-1.4,0.5-1.7,0.6
			C382.7,47.9,376.1,53.9,367.2,62.3z"/>
		<path class="st3" d="M660.8,60.2c2.4-1.6,5.6-3.1,8.3-2c3.1,1.2,4.1,5.1,5.9,4.7c1.8-0.3,1.7-4.6,3.3-4.9c2.5-0.5,5.8,8.9,7.4,8.4
			c1.3-0.4-0.2-6.3,2.1-7.6c1.2-0.7,3,0.2,4.6,1.2c-3.1-3.6-5.9-6.7-8.1-9.2c-3-3.3-3.5-3.8-4.5-4.1c-3-0.6-5.4,2.4-14.5,9.8
			C663.4,58.2,661.9,59.4,660.8,60.2z"/>
		<path class="st3" d="M899,66.8c3.7-2.4,5.6-2.3,6.7-1.7c2.1,1,2.2,4.2,3.8,4.3c1.3,0.1,1.6-2,3.1-2.2c2.5-0.3,4,4.7,6.2,4.5
			c2.1-0.2,2.1-4.8,5.5-6.5c1.7-0.8,3.5-0.6,4.8-0.2c-1.6-1.5-4.3-3.9-7.4-6.9c-5.9-5.7-6.8-6.9-8.5-6.8c-2.3,0.1-3.3,2.3-10.4,11.1
			C901.2,64.3,899.8,65.8,899,66.8z"/>
		<path class="st3" d="M1041.4,56.3c6.1-7.1,8.7-8.1,9.8-7.5c1.8,0.9,0.8,5.8,2.5,6.4c1.9,0.6,4-4.9,6.9-4.6
			c2.9,0.3,3.8,6.4,5.7,6.3c1.7-0.2,1.2-5.5,4.5-8c2.5-1.9,6.2-1.4,9.2-0.5c-8.6-8.5-15.1-14.7-17.2-16.6c-0.4-0.3-1.2-1-2.2-1
			c-1.5,0-2.6,1.5-3.1,2.2c-2.6,4.1-5.4,8.3-8.4,12.5C1046.5,49.3,1043.9,52.8,1041.4,56.3z"/>
		<path class="st3" d="M705.5,70.7c3-0.2,4.6,0.3,5.5,0.9c0.3,0.2,0.8,0.5,1.5,0.6c1.2,0.1,1.9-0.8,2.6-1c1.4-0.5,3.8,0.5,8.1,6
			c-0.8-1.1-2.2-3-3.9-5.3c-3-4-4-4.9-5.4-5c-0.8-0.1-1.8,0.4-3.6,1.2C708.2,69.1,706.6,70,705.5,70.7z"/>
	</g>
	<g>
		<path class="st0" d="M1059.1,47.5c0.7,1.7,2.6,2.8,4.8,2.8c0.2,0.4,1.6,3.9,5.5,5c2.8,0.8,5.9-0.1,8.1-2.2
			c0.2,0.3,0.6,0.7,1.1,1.1c0.5,0.4,1,0.6,1.4,0.8c0-7.5,0-15,0-22.5c-0.6,0.2-1.2,0.4-1.9,0.8c-1.2,0.7-2.1,1.6-2.6,2.2
			c-4.3-1.8-8.7-1.1-10.9,1.5c-1.1,1.3-1.5,2.9-1.6,4C1059.7,41.9,1058.2,45.2,1059.1,47.5z"/>
		<path class="st0" d="M712.5,39.2c-0.1-1.1-0.5-2.7-1.6-4c-2.2-2.6-6.6-3.3-10.9-1.5c-2.1-3.1-6.1-4.5-9.5-3.3
			c-3.2,1.1-5.4,4.2-5.5,7.6c-4.2-0.3-7.3,3.2-7,6.2c0.3,2.6,3,5.1,6.6,5c0.3,0.5,2.1,3.3,5.8,4.1c4.2,0.9,7.3-1.7,7.6-2
			c2.2,2.1,5.3,3,8.1,2.2c3.9-1.1,5.3-4.6,5.5-5c2.2,0,4.1-1.1,4.8-2.8C717.3,43.4,715.8,40.1,712.5,39.2z"/>
		<path class="st0" d="M27.4,32.9c-0.2-1.7-0.8-2.7-1.3-3.4c-2-2.8-6.2-3.9-10.7-2.8c-3.5-3.5-8.1-5-11.9-3.7
			c-0.9,0.3-2.2,1-3.5,2.4c0,7.8,0,15.7,0,23.5c0.9,0.4,2.2,0.9,3.7,1.1c4,0.5,7-1.1,8.2-1.9c0.9,0.5,3.9,2.1,7.9,1.6
			s6.4-2.9,7.1-3.6c2.6-0.8,4.5-2.8,5-5.3C32.6,37.7,30.7,34.3,27.4,32.9z"/>
	</g>
</g>
</svg>
