<?xml version="1.0" encoding="utf-8"?>
<!-- Generator: Adobe Illustrator 26.4.1, SVG Export Plug-In . SVG Version: 6.00 Build 0)  -->
<svg version="1.1" id="FQT-Flag" xmlns="http://www.w3.org/2000/svg" xmlns:xlink="http://www.w3.org/1999/xlink" x="0px" y="0px"
	 viewBox="0 0 1080 360" style="enable-background:new 0 0 1080 360;" xml:space="preserve">
<style type="text/css">
	.st0{fill:url(#SVGID_1_);stroke:#000000;stroke-width:2;stroke-linecap:round;stroke-linejoin:round;stroke-miterlimit:10;}
	.st1{fill:#1F2024;}
	.st2{fill:#5B0000;}
</style>
<g id="Flag">
	
		<linearGradient id="SVGID_1_" gradientUnits="userSpaceOnUse" x1="0" y1="182.1" x2="1080.1001" y2="182.1" gradientTransform="matrix(1 0 0 -1 0 362)">
		<stop  offset="0" style="stop-color:#FFDE99"/>
		<stop  offset="0.2689" style="stop-color:#FFE6A8"/>
		<stop  offset="0.5" style="stop-color:#FFEAB0"/>
		<stop  offset="0.7068" style="stop-color:#FFE8AB"/>
		<stop  offset="0.9435" style="stop-color:#FFE09D"/>
		<stop  offset="1" style="stop-color:#FFDE99"/>
	</linearGradient>
	<path class="st0" d="M1080,51.2c-147.1,0.7-294.2,1.4-441.4,2.1c-2.6,12.6-5.2,25.2-7.8,37.8c-2-11.7-4-23.3-6-35
		c-165.4,0.1-330.8,0.2-496.2,0.3c-1.9,7.3-3.7,14.6-5.6,21.8c-1.6-7-3.2-13.9-4.8-20.9C78.9,56.7,39.4,56,0,55.3
		c0,75.6,0,151.2,0,226.9c9.3,8.7,18.5,17.4,27.8,26.3c108.5-1,217.1-1.9,325.6-2.9c1.7-15.1,3.5-30.2,5.2-45.3
		c2.2,14.8,4.5,29.6,6.7,44.5c171.8,0.3,343.6,0.6,515.5,0.9c1.8-6.2,3.7-12.3,5.5-18.5c2.8,6.8,5.5,13.5,8.3,20.3
		c61.8,0.4,123.6,0.7,185.5,1.1c-1.6-41.2-2.5-84.7-2.5-130.4C1077.5,133.8,1078.4,91.4,1080,51.2z M90.4,120c0,1.5-1,2.8-2.4,3.3
		c-19,6.3-38.1,12.6-57.1,18.9c-1.5,0.5-3.2-0.1-4.1-1.4C13.2,119.6,11.7,112.1,14,110c3.2-3,12.4,5.7,20,1.9
		c10-5.1,5.9-26.2,12.4-27.9c6.1-1.5,11.4,16.3,21.9,16.2c8.5-0.1,12.5-11.8,17.1-10.6C88.5,90.4,91.2,96.9,90.4,120z M978.9,293.1
		c-9.9,0-18-8.1-18-18s8.1-18,18-18s18,8.1,18,18C996.9,285.1,988.9,293.1,978.9,293.1z M1041.4,276.7c-9.9,0-18-8.1-18-18
		s8.1-18,18-18s18,8.1,18,18S1051.3,276.7,1041.4,276.7z"/>
	<g id="Content_00000017474677996287791180000016301108216048408961_">
		<path class="st1" d="M105.5,131.9c0-0.7,0.1-1.1,0.2-1.2c0.9-0.1,1.6-0.2,2.2-0.2c0.1,0,0.3,0,0.5,0s0.4,0,0.6,0
			c-0.2-2.9-0.3-5.4-0.3-7.5c0-2.9,0.2-7.2,0.6-12.9c-1,0.3-1.8,0.4-2.1,0.4c-0.3,0-0.5,0-0.6-0.1c-0.5-0.4-0.8-1.3-0.8-2.7
			c0-1.5,0.2-2.6,0.6-3.3c2-1,5.3-1.5,10-1.5c3.2,0,6.5,0.2,10,0.5c3.4,0.4,5.8,0.8,7.2,1.2c0.3,1.6,0.5,2.9,0.5,3.8
			c0,1.5-0.2,2.7-0.6,3.6c-0.7,0.2-1.4,0.2-2.2,0.2c-2,0-3.3-0.5-3.8-1.5l0.1-1.6c-0.7-0.4-2.4-0.6-5.2-0.6c-1,0-2.2,0-3.6,0.1
			s-2.2,0.2-2.2,0.3c-0.3,1.5-0.5,3.9-0.8,7.1c2.6,0,3.8,0,3.9-0.1c0-0.7,0.2-1.2,0.5-1.5c1.1-0.2,1.7-0.3,1.8-0.3
			c1,0,1.9,0.1,2.7,0.4c0.6,0.7,0.9,1.8,0.9,3.6c0,1-0.1,2-0.3,2.9c-0.2,0.9-0.4,1.5-0.7,1.8c-0.3,0.2-1.3,0.3-2.9,0.3
			c-0.9,0-1.5-0.1-1.7-0.3c-0.1-0.1-0.1-0.2-0.2-0.3c-0.1-0.1-0.1-0.2-0.2-0.2c0,0-0.1-0.1-0.1-0.2s-0.1-0.2-0.1-0.3
			c0-0.1,0-0.2,0-0.4h-3.9c0,2.8,0.1,5.9,0.2,9.1c0.2-0.1,0.5-0.1,0.9-0.1c1.1,0,1.7,0.1,1.8,0.2c0.4,0.4,0.6,1.6,0.6,3.5
			c0,1.5-0.2,2.3-0.5,2.3c-0.9,0.8-2.8,1.2-5.5,1.2c-3.3,0-5.5-0.3-6.8-1C105.7,136.3,105.5,134.7,105.5,131.9z"/>
		<path class="st1" d="M131.8,127.2c0-2.3,0.3-4.6,1-6.8c0.7-2.2,1.8-4.1,3.3-5.6c1.5-1.6,3.3-2.4,5.4-2.4c0.9,0,1.8,0.2,2.5,0.5
			s1.3,0.7,1.7,1.2s0.7,0.9,1,1.4s0.4,0.9,0.5,1.2s0.2,0.5,0.2,0.5c0-1.8,0-2.9,0-3.5c0.7-0.6,1.3-0.9,2-1.1s1.7-0.3,2.9-0.3
			c1.1,0,2,0,2.8,0.1s1.5,0.1,1.9,0.2s0.8,0.2,1,0.3c0.3,0.1,0.4,0.2,0.5,0.2h0.1c0.1,0.3,0.2,1.2,0.2,2.7c0,1.6-0.1,2.5-0.2,2.8
			c-0.1,0.2-0.7,0.4-1.7,0.6s-1.9,0.3-2.7,0.3c-0.4,0-0.7,0-1.2-0.1c0.1,0.2,0.1,1,0.1,2.4c0,4.2-0.1,6.5-0.4,7
			c0.2-0.1,0.5-0.1,0.9-0.1c1.6,0,3.1,0.1,4.6,0.4c0.3,0.2,0.4,1.6,0.4,4.2c0,1.4-0.1,2.3-0.2,2.6c-0.2,0.3-1,0.7-2.3,1
			s-2.8,0.5-4.4,0.5c-2.8,0-4.5-0.1-5.1-0.2c-0.2-0.6-0.3-1.1-0.3-1.5c0-0.3,0-0.4,0.1-0.6c-0.4,0.1-1.5,0.6-3.3,1.4
			c-1.8,0.8-3.1,1.2-3.9,1.2c-2.5,0-4.3-1-5.6-3.1C132.4,132.7,131.8,130.2,131.8,127.2z M137.8,126c0,1.8,0.6,3.4,1.7,4.6
			c1.1,1.3,2.3,1.9,3.5,1.9c0.7,0,1.4-0.2,2.3-0.5c0.9-0.4,1.3-0.7,1.4-1c0.1-1.5,0.2-2.9,0.3-4.1c0.1-1.2,0.1-2.2,0.2-2.9
			c0-0.7,0.1-1.1,0.1-1.3v-0.6c0-0.7-0.4-1.3-1.3-2c-0.9-0.7-1.9-1-3-1c-1.6,0-2.8,0.7-3.7,2.2C138.3,122.8,137.8,124.3,137.8,126z"
			/>
		<path class="st1" d="M161.5,133.8c0-2,0.4-3.2,1.3-3.7c0.8-0.3,1.9-0.4,3.3-0.4c0.2,0,0.5,0,0.8,0.1c0-0.9,0-2.4-0.1-4.4
			s-0.1-3.6-0.1-4.6c-0.1,0-0.7,0-1.6,0.1c-0.9,0.1-1.5,0.1-1.7,0.1c-0.1,0-0.3,0-0.6-0.1s-0.5-0.1-0.6-0.1
			c-0.1-0.1-0.2-0.5-0.2-1.1c0-0.9,0.1-2,0.4-3.3c0.3-1.3,0.5-2.1,0.7-2.4c0.9-0.6,2.6-0.9,5.1-0.9c1.9,0,3.2,0.1,3.8,0.3
			c0.6,0.2,0.9,0.7,0.9,1.5c0,1-0.1,1.9-0.2,2.9c3-3.5,6.3-5.2,9.8-5.2c5.5,0,8.3,3.9,8.3,11.7c0,1.5-0.1,3.1-0.3,4.5
			c0-0.1,0.1-0.1,0.4-0.1c0.5,0,1.2,0.1,2.3,0.2c0.3,0.3,0.4,1.4,0.4,3.1c0,2.2-0.2,3.6-0.5,4.1c-2.4,0.6-4.5,1-6.3,1
			c-1.2,0-2.7-0.3-4.3-0.9c-0.2-0.2-0.5-0.7-0.7-1.7c-0.3-1-0.4-1.8-0.4-2.5c0-1.1,0.3-2,0.9-2.7c0.3-0.2,0.8-0.3,1.4-0.3
			c0.4,0,0.9,0.1,1.3,0.2c0-0.1,0-0.5,0-1.2s0-1.2,0-1.4c0-2-0.6-3.8-1.7-5.3c-1.1-1.5-2.5-2.3-4.2-2.3c-1.4,0-2.8,0.6-4,1.8
			c-1.2,1.2-1.8,3-1.8,5.5c0,0.9,0,2,0.1,3.5c0.4-0.2,0.9-0.3,1.5-0.3s0.9,0.1,1.1,0.2c0.3,0,0.5,0.6,0.5,1.9c0,0.3-0.2,1.6-0.5,3.9
			c-2.3,1.1-5.2,1.7-8.7,1.7c-3,0-4.8-0.4-5.5-1.3C161.7,135.5,161.5,134.8,161.5,133.8z"/>
		<path class="st1" d="M195.2,114.3c0-0.7,0.1-1.2,0.3-1.4c0.6-0.1,1.4-0.1,2.3-0.1h1.1v-9c1.6-0.1,2.7-0.2,3.1-0.2s1.4,0.1,2.9,0.2
			l0.5,9.1c3.6,0.2,5.6,0.4,6.1,0.7c0.5,0.8,0.7,2.1,0.7,3.9c0,0.7-0.1,1.2-0.3,1.4c-1,0.1-2.2,0.2-3.5,0.2c-0.4,0-1.1,0-1.9,0
			c-0.8,0-1.5,0-1.9,0c0,1.1,0,2.4,0,4s0,2.7,0,3.4c0,2.5,0.2,4,0.5,4.6s1.3,0.8,2.8,0.8c0.6,0,1.1,0,1.4-0.1l-0.3-1l4.4-1
			c0.3,0.9,0.5,2,0.5,3.3c0,2.1-0.2,3.4-0.6,3.9c-3.1,0.4-5.7,0.7-7.8,0.7c-2.7,0-4.4-0.4-5.3-1.1c-0.4-0.4-0.7-0.8-0.9-1.4
			c-0.2-0.6-0.4-1.4-0.4-2.5s-0.1-2.1-0.2-3.2c0-1.1-0.1-2.6-0.1-4.7c-0.1-2.1-0.1-4-0.2-5.8c-1.1-0.1-1.9-0.3-2.5-0.6
			C195.5,117.4,195.2,116.1,195.2,114.3z"/>
		<path class="st1" d="M216.6,127.2c0-2.3,0.3-4.6,1-6.8c0.7-2.2,1.8-4.1,3.3-5.6c1.5-1.6,3.3-2.4,5.4-2.4c0.9,0,1.8,0.2,2.5,0.5
			s1.3,0.7,1.7,1.2s0.7,0.9,1,1.4s0.4,0.9,0.5,1.2s0.2,0.5,0.2,0.5c0-1.8,0-2.9,0-3.5c0.7-0.6,1.3-0.9,2-1.1s1.7-0.3,2.9-0.3
			c1.1,0,2,0,2.8,0.1s1.5,0.1,1.9,0.2s0.8,0.2,1,0.3c0.3,0.1,0.4,0.2,0.5,0.2h0.1c0.1,0.3,0.2,1.2,0.2,2.7c0,1.6-0.1,2.5-0.2,2.8
			c-0.1,0.2-0.7,0.4-1.7,0.6s-1.9,0.3-2.7,0.3c-0.4,0-0.7,0-1.2-0.1c0.1,0.2,0.1,1,0.1,2.4c0,4.2-0.1,6.5-0.4,7
			c0.2-0.1,0.5-0.1,0.9-0.1c1.6,0,3.1,0.1,4.6,0.4c0.3,0.2,0.4,1.6,0.4,4.2c0,1.4-0.1,2.3-0.2,2.6c-0.2,0.3-1,0.7-2.3,1
			s-2.8,0.5-4.4,0.5c-2.8,0-4.5-0.1-5.1-0.2c-0.2-0.6-0.3-1.1-0.3-1.5c0-0.3,0-0.4,0.1-0.6c-0.4,0.1-1.5,0.6-3.3,1.4
			c-1.8,0.8-3.1,1.2-3.9,1.2c-2.5,0-4.3-1-5.6-3.1C217.3,132.7,216.6,130.2,216.6,127.2z M222.6,126c0,1.8,0.6,3.4,1.7,4.6
			c1.1,1.3,2.3,1.9,3.5,1.9c0.7,0,1.4-0.2,2.3-0.5c0.9-0.4,1.3-0.7,1.4-1c0.1-1.5,0.2-2.9,0.3-4.1c0.1-1.2,0.1-2.2,0.2-2.9
			c0-0.7,0.1-1.1,0.1-1.3v-0.6c0-0.7-0.4-1.3-1.3-2c-0.9-0.7-1.9-1-3-1c-1.6,0-2.8,0.7-3.7,2.2C223.1,122.8,222.6,124.3,222.6,126z"
			/>
		<path class="st1" d="M246.8,120.6c0-4.9,1.3-9,3.8-12.4s5.8-5,10-5c3,0,5.3,0.7,6.7,2.1c0.1-1,0.4-1.5,1-1.8
			c0.8-0.3,1.8-0.5,2.9-0.5c1.5,0,2.7,0.3,3.6,1c0,0.3,0.1,0.9,0.2,1.6s0.2,1.4,0.3,2c0.1,0.6,0.1,1.2,0.1,1.7c0,2-0.6,3.5-1.7,4.5
			c-0.7,0.7-1.8,1.1-3.3,1.1c-1.6,0-2.8-0.4-3.6-1.1c0-0.1,0-0.2,0-0.4c0-0.4,0-0.6,0.1-0.8c-0.5-1.2-1.4-2.1-2.6-2.8
			c-1.2-0.6-2.3-1-3.3-1c-1.9,0-3.6,1.2-5.2,3.6s-2.4,5.1-2.4,8.2c0,2.9,0.7,5.3,2.2,7.1s3.2,2.7,5.2,2.7c1,0,2.1-0.2,3.3-0.7
			c1.2-0.4,2.1-1.1,2.7-1.9c-0.1-0.6-0.1-0.9-0.1-1s0-0.1,0-0.2s0-0.1,0-0.1c1.2-0.5,2.2-0.8,3.1-0.8s2.2,0.3,3.9,1
			c1.2,1,1.7,2.5,1.7,4.5c0,0.5,0,1.1-0.1,1.7c-0.1,0.6-0.2,1.3-0.3,2c-0.1,0.7-0.2,1.3-0.2,1.7c-1,0.8-2.3,1.2-3.8,1.2
			c-1.2,0-2-0.3-2.6-0.8c-0.7-0.3-1-0.9-1-1.9c-2.1,1.4-4.3,2.2-6.4,2.2c-1.7,0-3.4-0.4-5-1.1c-1.6-0.7-3.1-1.7-4.5-3.1
			c-1.4-1.3-2.5-3.1-3.3-5.3C247.2,125.8,246.8,123.4,246.8,120.6z"/>
		<path class="st1" d="M278.6,118.2c0-2.2,0.2-3.6,0.5-4.1c2.4-0.6,4.4-0.9,6.2-0.9c1.3,0,2.7,0.3,4.4,0.8c0.2,0.2,0.3,0.7,0.5,1.7
			s0.3,1.8,0.3,2.6c0,1.1-0.3,2-0.8,2.8c-0.3,0.2-0.8,0.3-1.3,0.3c-0.4,0-0.8-0.1-1.2-0.2c0,0.1,0,0.5,0,1.2s0,1.2,0,1.4
			c0,2,0.5,3.8,1.6,5.3s2.5,2.3,4.1,2.3c1.4,0,2.8-0.6,3.9-1.8c1.2-1.2,1.8-3,1.8-5.5c0-0.9,0-2-0.1-3.5c-0.4,0.2-0.9,0.3-1.5,0.3
			s-0.9-0.1-1.1-0.2c-0.3,0-0.5-0.6-0.5-1.9c0-0.3,0.2-1.6,0.5-4c2.3-1.1,5.2-1.6,8.8-1.6c2.8,0,4.6,0.5,5.4,1.4
			c0.3,0.4,0.4,1,0.4,2c0,2-0.4,3.3-1.3,3.8c-1.2,0.3-2.2,0.4-2.9,0.4c-0.5,0-0.8,0-1.2-0.1c0,0.9,0,2.4,0.1,4.4s0.1,3.6,0.1,4.6
			c0.1,0,0.7,0,1.6-0.1s1.5-0.1,1.7-0.1c0.1,0,0.3,0,0.6,0.1c0.3,0.1,0.5,0.1,0.6,0.1c0.1,0.1,0.2,0.5,0.2,1.1c0,0.9-0.1,2-0.4,3.3
			s-0.5,2.1-0.7,2.4c-1,0.6-2.8,0.9-5.5,0.9c-1.7,0-2.8-0.1-3.4-0.3s-0.9-0.7-0.9-1.5c0-1,0.1-1.9,0.2-2.9c-3,3.5-6.2,5.2-9.7,5.2
			c-5.7,0-8.5-3.9-8.5-11.7c0-1.5,0.1-3,0.3-4.5c0,0-0.2,0-0.4,0c-0.4,0-1.1-0.1-2-0.2C278.8,121,278.6,119.9,278.6,118.2z"/>
		<path class="st1" d="M312.5,114.3c0-0.7,0.1-1.2,0.3-1.4c0.6-0.1,1.4-0.1,2.3-0.1h1.1v-9c1.6-0.1,2.7-0.2,3.1-0.2s1.4,0.1,2.9,0.2
			l0.5,9.1c3.6,0.2,5.6,0.4,6.1,0.7c0.5,0.8,0.7,2.1,0.7,3.9c0,0.7-0.1,1.2-0.3,1.4c-1,0.1-2.2,0.2-3.5,0.2c-0.4,0-1.1,0-1.9,0
			s-1.5,0-1.9,0c0,1.1,0,2.4,0,4s0,2.7,0,3.4c0,2.5,0.2,4,0.5,4.6s1.3,0.8,2.8,0.8c0.6,0,1.1,0,1.4-0.1l-0.3-1l4.4-1
			c0.3,0.9,0.5,2,0.5,3.3c0,2.1-0.2,3.4-0.6,3.9c-3.1,0.4-5.7,0.7-7.8,0.7c-2.7,0-4.4-0.4-5.3-1.1c-0.4-0.4-0.7-0.8-0.9-1.4
			c-0.2-0.6-0.4-1.4-0.4-2.5s-0.1-2.1-0.2-3.2c0-1.1-0.1-2.6-0.1-4.7c-0.1-2.1-0.1-4-0.2-5.8c-1.1-0.1-1.9-0.3-2.5-0.6
			C312.7,117.4,312.5,116.1,312.5,114.3z"/>
		<path class="st1" d="M333.7,133.1c0-1.7,0.1-2.6,0.3-2.8c0.4-0.2,0.8-0.4,1.4-0.4c0.4-0.1,1.2-0.1,2.5-0.1c-0.2-2-0.3-4.2-0.3-6.5
			c0-2.6,0.2-4.2,0.5-4.9c-1.6,0-2.6-0.1-3.1-0.2c0-0.9,0.1-1.8,0.3-2.7c0.1-0.4,0.3-1.2,0.6-2.4c1.2-0.2,3.2-0.3,6-0.3
			c0.9,0,1.8,0.1,2.6,0.2c0.8,0.1,1.4,0.3,1.8,0.5s0.6,0.3,0.6,0.5c0.1,0,0.1,0.6,0.1,1.7c0,1.8-0.1,3-0.2,3.4
			c-0.1,0.2-0.2,0.3-0.5,0.3c-1.2,0-1.9-0.1-2.2-0.2c-0.3,2.2-0.5,5.1-0.5,8.7c0,1.5,0,2.2,0.1,2.3c0.2,0,0.5,0,0.8,0
			c1.2,0,2.1,0.2,2.8,0.5c0.1,0.1,0.2,0.4,0.2,0.9c0,0.8-0.1,1.8-0.3,2.9c-0.2,1.1-0.5,1.9-1,2.4c-0.4,0.4-1.6,0.6-3.8,0.6
			c-5,0-7.8-0.5-8.3-1.4C333.8,135.3,333.7,134.4,333.7,133.1z M337.4,103.3c0-0.9,0.5-1.3,1.5-1.3c0.8,0,1.7,0.2,2.6,0.7
			c0.7-0.7,1.6-1,2.7-1c0.7,0,1.3,0.2,1.8,0.7s0.8,1.1,0.8,2c0,0.4-0.1,0.8-0.3,1.2c-0.2,0.4-0.4,0.7-0.5,1
			c-0.2,0.3-0.5,0.6-0.9,0.9s-0.8,0.6-1,0.7s-0.7,0.4-1.3,0.7c-0.6,0.3-1,0.6-1.1,0.6c-1.3-0.9-2.3-2-3.1-3.1
			C337.8,105.1,337.4,104.1,337.4,103.3z"/>
		<path class="st1" d="M350.9,127.1c0-3.6,1.3-6.9,3.9-9.9s5.5-4.5,8.8-4.5c2,0,3.7,0.6,5.1,1.8c1.4,1.2,2.1,2.8,2.1,4.7
			c0,2.3-0.9,4.2-2.8,5.8c-1.9,1.6-4.3,2.4-7.4,2.4c-1.8,0-3-0.3-3.7-0.8c0,1.5,0.6,2.8,1.6,3.7c1,0.9,2.3,1.4,3.6,1.4
			c1.8,0,3.2-0.7,4.3-2.1c0-0.3,0-0.5,0.1-0.8c1.4-1.2,2.9-1.7,4.6-1.7c0.3,0,0.6,0,0.7,0c2.1,1.2,3.4,3,3.9,5.7
			c0,0.3-0.2,0.5-0.4,0.8c-0.2,0.3-0.4,0.5-0.6,0.7s-0.5,0.4-1,0.7c-0.4,0.3-0.7,0.5-1,0.6c-0.2,0.1-0.6,0.3-1.1,0.6
			s-0.7,0.4-0.8,0.4c-0.2,0-0.4,0-0.5-0.1c-0.1,0-0.2-0.1-0.4-0.2c-0.1-0.1-0.2-0.2-0.2-0.2s-0.1-0.2-0.2-0.4s-0.2-0.3-0.2-0.4
			c-2.4,1.6-4.9,2.4-7.6,2.4c-3,0-5.7-1-7.8-2.9C352,132.9,350.9,130.3,350.9,127.1z M358.5,121.5c0,1,0.8,1.6,2.3,1.6
			c1.1,0,2.2-0.3,3.3-0.8c1-0.5,1.6-1.2,1.6-2c0-0.5-0.2-1.1-0.5-1.7c-0.4-0.6-0.9-0.9-1.7-0.9c-1,0-2,0.4-3.2,1.2
			C359,119.7,358.5,120.5,358.5,121.5z"/>
		<path class="st1" d="M377.7,135.7c0.2-3.3,1.3-5.6,3.4-6.9c0.2,0,0.6,0,1,0c1.7,0,3,0.6,3.9,1.7c0,0,0,0.1,0,0.2
			c0,0.1,0,0.1,0,0.2c0,0.1,0,0.3-0.1,0.5c0.3,0.5,0.8,0.9,1.6,1.2c0.7,0.3,1.6,0.5,2.4,0.5c1.2,0,2.2-0.3,2.9-0.9s1.1-1.3,1.1-2.1
			c0-1.6-1.3-2.4-3.9-2.5c-1,0-1.8-0.1-2.4-0.2s-1.4-0.2-2.5-0.3c-1-0.1-1.9-0.4-2.6-0.7s-1.4-0.7-2-1.2c-0.7-0.5-1.2-1.1-1.6-1.9
			s-0.5-1.7-0.5-2.8c0-2.5,1-4.3,3-5.6c2-1.3,4.4-1.9,7.4-1.9c2.5,0,4.7,0.3,6.5,0.8c0.2-0.3,0.5-0.6,0.8-1c0.3-0.3,0.6-0.5,0.8-0.6
			c2.4,0.2,3.9,1,4.7,2.4c-0.2,3.3-1.3,5.6-3.4,6.8c-0.2,0-0.6,0-1,0c-1.7,0-3-0.6-3.9-1.7c0,0,0-0.1,0-0.2s0-0.1,0-0.2
			s0-0.3,0.1-0.5c-0.4-0.4-1-0.8-1.9-1.1c-0.9-0.3-1.8-0.4-2.8-0.4c-2.5,0-3.7,0.8-3.7,2.5c0,2,1.9,3,5.8,3.1c1.1,0,1.9,0.1,2.4,0.1
			c0.5,0.1,1.1,0.1,1.9,0.2s1.5,0.3,2.1,0.6c0.6,0.3,1.2,0.7,1.8,1.2c0.6,0.5,1.1,1.1,1.4,1.9s0.5,1.7,0.5,2.8
			c0,5.1-3.7,7.6-11.1,7.6c-2.5,0-4.6-0.3-6.2-0.9c-0.5,1-0.9,1.5-1.1,1.5C380,137.9,378.4,137.1,377.7,135.7z"/>
		<path class="st1" d="M414.1,133.1c0-1.7,0.1-2.6,0.3-2.8c0.4-0.2,0.8-0.4,1.4-0.4c0.4-0.1,1.2-0.1,2.5-0.1c-0.2-2-0.3-4.2-0.3-6.5
			c0-2.6,0.2-4.2,0.5-4.9c-1.6,0-2.6-0.1-3.1-0.2c0-0.9,0.1-1.8,0.3-2.7c0.1-0.4,0.3-1.2,0.6-2.4c1.2-0.2,3.2-0.3,6-0.3
			c0.9,0,1.8,0.1,2.6,0.2c0.8,0.1,1.4,0.3,1.8,0.5s0.6,0.3,0.6,0.5c0.1,0,0.1,0.6,0.1,1.7c0,1.8-0.1,3-0.2,3.4
			c-0.1,0.2-0.2,0.3-0.5,0.3c-1.2,0-1.9-0.1-2.2-0.2c-0.3,2.2-0.5,5.1-0.5,8.7c0,1.5,0,2.2,0.1,2.3c0.2,0,0.5,0,0.8,0
			c1.2,0,2.1,0.2,2.8,0.5c0.1,0.1,0.2,0.4,0.2,0.9c0,0.8-0.1,1.8-0.3,2.9c-0.2,1.1-0.5,1.9-1,2.4c-0.4,0.4-1.6,0.6-3.8,0.6
			c-5,0-7.8-0.5-8.3-1.4C414.2,135.3,414.1,134.4,414.1,133.1z M417.8,103.3c0-0.9,0.5-1.3,1.5-1.3c0.8,0,1.7,0.2,2.6,0.7
			c0.7-0.7,1.6-1,2.7-1c0.7,0,1.3,0.2,1.8,0.7s0.8,1.1,0.8,2c0,0.4-0.1,0.8-0.3,1.2c-0.2,0.4-0.4,0.7-0.5,1
			c-0.2,0.3-0.5,0.6-0.9,0.9s-0.8,0.6-1,0.7s-0.7,0.4-1.3,0.7c-0.6,0.3-1,0.6-1.1,0.6c-1.3-0.9-2.3-2-3.1-3.1
			C418.2,105.1,417.8,104.1,417.8,103.3z"/>
		<path class="st1" d="M431.3,135.7c0.2-3.3,1.3-5.6,3.4-6.9c0.2,0,0.6,0,1,0c1.7,0,3,0.6,3.9,1.7c0,0,0,0.1,0,0.2
			c0,0.1,0,0.1,0,0.2c0,0.1,0,0.3-0.1,0.5c0.3,0.5,0.8,0.9,1.6,1.2c0.7,0.3,1.6,0.5,2.4,0.5c1.2,0,2.2-0.3,2.9-0.9s1.1-1.3,1.1-2.1
			c0-1.6-1.3-2.4-3.9-2.5c-1,0-1.8-0.1-2.4-0.2s-1.4-0.2-2.5-0.3c-1-0.1-1.9-0.4-2.6-0.7s-1.4-0.7-2-1.2c-0.7-0.5-1.2-1.1-1.6-1.9
			s-0.5-1.7-0.5-2.8c0-2.5,1-4.3,3-5.6c2-1.3,4.4-1.9,7.4-1.9c2.5,0,4.7,0.3,6.5,0.8c0.2-0.3,0.5-0.6,0.8-1c0.3-0.3,0.6-0.5,0.8-0.6
			c2.4,0.2,3.9,1,4.7,2.4c-0.2,3.3-1.3,5.6-3.4,6.8c-0.2,0-0.6,0-1,0c-1.7,0-3-0.6-3.9-1.7c0,0,0-0.1,0-0.2s0-0.1,0-0.2
			s0-0.3,0.1-0.5c-0.4-0.4-1-0.8-1.9-1.1c-0.9-0.3-1.8-0.4-2.8-0.4c-2.5,0-3.7,0.8-3.7,2.5c0,2,1.9,3,5.8,3.1c1.1,0,1.9,0.1,2.4,0.1
			c0.5,0.1,1.1,0.1,1.9,0.2s1.5,0.3,2.1,0.6c0.6,0.3,1.2,0.7,1.8,1.2c0.6,0.5,1.1,1.1,1.4,1.9s0.5,1.7,0.5,2.8
			c0,5.1-3.7,7.6-11.1,7.6c-2.5,0-4.6-0.3-6.2-0.9c-0.5,1-0.9,1.5-1.1,1.5C433.6,137.9,432,137.1,431.3,135.7z"/>
		<path class="st1" d="M468,127.2c0-2.3,0.3-4.6,1-6.8c0.7-2.2,1.8-4.1,3.3-5.6c1.5-1.6,3.3-2.4,5.4-2.4c0.9,0,1.8,0.2,2.5,0.5
			s1.3,0.7,1.7,1.2c0.4,0.5,0.7,0.9,1,1.4s0.4,0.9,0.5,1.2s0.2,0.5,0.2,0.5c0-1.8,0-2.9,0-3.5c0.7-0.6,1.3-0.9,2-1.1
			s1.7-0.3,2.9-0.3c1.1,0,2,0,2.8,0.1s1.5,0.1,1.9,0.2s0.8,0.2,1,0.3c0.3,0.1,0.4,0.2,0.5,0.2h0.1c0.1,0.3,0.2,1.2,0.2,2.7
			c0,1.6-0.1,2.5-0.2,2.8c-0.1,0.2-0.7,0.4-1.7,0.6s-1.9,0.3-2.7,0.3c-0.4,0-0.7,0-1.2-0.1c0.1,0.2,0.1,1,0.1,2.4
			c0,4.2-0.1,6.5-0.4,7c0.2-0.1,0.5-0.1,0.9-0.1c1.6,0,3.1,0.1,4.6,0.4c0.3,0.2,0.4,1.6,0.4,4.2c0,1.4-0.1,2.3-0.2,2.6
			c-0.2,0.3-1,0.7-2.3,1s-2.8,0.5-4.4,0.5c-2.8,0-4.5-0.1-5.1-0.2c-0.2-0.6-0.3-1.1-0.3-1.5c0-0.3,0-0.4,0.1-0.6
			c-0.4,0.1-1.5,0.6-3.3,1.4c-1.8,0.8-3.1,1.2-3.9,1.2c-2.5,0-4.3-1-5.6-3.1C468.6,132.7,468,130.2,468,127.2z M474,126
			c0,1.8,0.6,3.4,1.7,4.6c1.1,1.3,2.3,1.9,3.5,1.9c0.7,0,1.4-0.2,2.3-0.5c0.9-0.4,1.3-0.7,1.4-1c0.1-1.5,0.2-2.9,0.3-4.1
			c0.1-1.2,0.1-2.2,0.2-2.9c0-0.7,0.1-1.1,0.1-1.3v-0.6c0-0.7-0.4-1.3-1.3-2s-1.9-1-3-1c-1.6,0-2.8,0.7-3.7,2.2
			C474.4,122.8,474,124.3,474,126z"/>
		<path class="st1" d="M507.5,125.8c0-1.6,0.3-3.1,1-4.6s1.7-2.9,2.9-4.2c1.3-1.3,2.9-2.3,5-3.1c2-0.8,4.3-1.2,6.7-1.2
			c0.8,0,1.4,0,1.8,0l0.4-1.2c1-0.2,1.9-0.3,2.8-0.3c1.8,0,3.5,0.5,5.1,1.6c0.2,1.5,0.3,2.7,0.3,3.5c0,2.4-0.5,3.7-1.4,4.1
			c-0.9,0.3-1.8,0.5-2.6,0.5c-1.5,0-3.4-0.3-5.7-0.9l0.3-1.8c-0.6-0.1-1.2-0.1-1.5-0.1c-2.3,0-4.4,0.6-6.1,1.9
			c-1.7,1.3-2.6,3.2-2.6,5.6c0,2.1,0.6,3.6,1.8,4.6s2.6,1.5,4.3,1.5c1,0,2.3-0.2,3.9-0.6l-0.1-1.8c1.6-1.1,3.6-1.6,5.9-1.6
			c0.6,0,1.4,0.1,2.3,0.2c1.2,1.5,1.8,3.2,1.8,5.2c0,0.8-0.1,2-0.3,3.7c-1.3,1.1-3.2,1.6-5.6,1.6c-0.6,0-1.4,0-2.2-0.1l-0.5-0.8
			c-0.9,0.1-1.8,0.1-2.7,0.1c-4.4,0-7.9-1.2-10.7-3.5C508.9,131.8,507.5,129,507.5,125.8z"/>
		<path class="st1" d="M536.9,126.8c0-3.9,1.2-7.3,3.6-10c2.4-2.8,5.4-4.1,9.2-4.1c1.7,0,3.2,0.3,4.5,0.9s2.2,1.5,2.9,2.6
			s1.2,2.3,1.5,3.6s0.5,2.7,0.5,4.3c0,4.4-1.1,7.8-3.4,10.1c-2.2,2.3-5.2,3.5-8.8,3.5c-1.9,0-3.6-0.3-5-1s-2.4-1.6-3.1-2.7
			c-0.7-1.1-1.2-2.3-1.5-3.4S536.9,128.1,536.9,126.8z M543.8,126.4c0,1.6,0.5,2.9,1.5,4.1c1,1.1,2.2,1.7,3.5,1.7
			c1.2,0,2.2-0.5,3.1-1.4c0.9-1,1.4-2,1.8-3.1c0.3-1.1,0.5-2.1,0.5-3c0-1.4-0.4-2.6-1.3-3.7c-0.9-1.1-1.9-1.6-3.2-1.6
			c-1.6,0-3,0.7-4.1,2.2C544.4,123.1,543.8,124.7,543.8,126.4z"/>
		<path class="st1" d="M562.2,132.8c0-1.4,0.1-2.2,0.3-2.4c0.8-0.4,1.8-0.6,2.8-0.6c-0.4-2.1-0.6-5.3-0.6-9.7
			c0-5.1,0.2-9.5,0.6-13.3c-0.9,0-1.6-0.1-2.2-0.2c-0.1-0.6-0.1-1.1-0.1-1.5c0-1.4,0.3-2.6,1-3.6c1.4-0.3,2.7-0.5,3.9-0.5
			c1.5,0,2.7,0.2,3.6,0.5c0.3,3,0.5,6.2,0.5,9.5c0,2.4-0.1,5.7-0.3,10.1s-0.3,7.3-0.4,8.9c0.2,0,0.4,0,0.8,0c0.8,0,1.5,0.2,2,0.5
			c0.1,0.3,0.2,0.6,0.2,1.2c0,0.8-0.1,1.7-0.3,2.8s-0.4,1.9-0.7,2.3c-0.4,0.3-1.9,0.5-4.5,0.5c-1.5,0-2.9-0.1-4.1-0.4
			c-1.2-0.3-1.9-0.6-2.2-1C562.3,135.5,562.2,134.4,562.2,132.8z"/>
		<path class="st1" d="M577.5,132.8c0-1.4,0.1-2.2,0.3-2.4c0.8-0.4,1.8-0.6,2.8-0.6c-0.4-2.1-0.6-5.3-0.6-9.7
			c0-5.1,0.2-9.5,0.6-13.3c-0.9,0-1.6-0.1-2.2-0.2c-0.1-0.6-0.1-1.1-0.1-1.5c0-1.4,0.3-2.6,1-3.6c1.4-0.3,2.7-0.5,3.9-0.5
			c1.5,0,2.7,0.2,3.6,0.5c0.3,3,0.5,6.2,0.5,9.5c0,2.4-0.1,5.7-0.3,10.1s-0.3,7.3-0.4,8.9c0.2,0,0.4,0,0.8,0c0.8,0,1.5,0.2,2,0.5
			c0.1,0.3,0.2,0.6,0.2,1.2c0,0.8-0.1,1.7-0.3,2.8s-0.4,1.9-0.7,2.3c-0.4,0.3-1.9,0.5-4.5,0.5c-1.5,0-2.9-0.1-4.1-0.4
			c-1.2-0.3-1.9-0.6-2.2-1C577.6,135.5,577.5,134.4,577.5,132.8z"/>
		<path class="st1" d="M592.8,127.1c0-3.6,1.3-6.9,3.9-9.9c2.6-3,5.5-4.5,8.8-4.5c2,0,3.7,0.6,5.1,1.8c1.4,1.2,2.1,2.8,2.1,4.7
			c0,2.3-0.9,4.2-2.8,5.8s-4.3,2.4-7.4,2.4c-1.8,0-3-0.3-3.7-0.8c0,1.5,0.6,2.8,1.6,3.7c1,0.9,2.3,1.4,3.6,1.4
			c1.8,0,3.2-0.7,4.3-2.1c0-0.3,0-0.5,0.1-0.8c1.4-1.2,2.9-1.7,4.6-1.7c0.3,0,0.6,0,0.7,0c2.1,1.2,3.4,3,3.9,5.7
			c0,0.3-0.2,0.5-0.4,0.8s-0.4,0.5-0.6,0.7c-0.2,0.2-0.5,0.4-1,0.7c-0.4,0.3-0.7,0.5-1,0.6s-0.6,0.3-1.1,0.6s-0.7,0.4-0.8,0.4
			c-0.2,0-0.4,0-0.5-0.1c-0.1,0-0.2-0.1-0.4-0.2c-0.1-0.1-0.2-0.2-0.2-0.2s-0.1-0.2-0.2-0.4c-0.1-0.2-0.2-0.3-0.2-0.4
			c-2.4,1.6-4.9,2.4-7.6,2.4c-3,0-5.7-1-7.8-2.9C593.9,132.9,592.8,130.3,592.8,127.1z M600.3,121.5c0,1,0.8,1.6,2.3,1.6
			c1.1,0,2.2-0.3,3.3-0.8c1-0.5,1.6-1.2,1.6-2c0-0.5-0.2-1.1-0.5-1.7s-0.9-0.9-1.7-0.9c-1,0-2,0.4-3.2,1.2
			C600.9,119.7,600.3,120.5,600.3,121.5z"/>
		<path class="st1" d="M619.6,125.8c0-1.6,0.3-3.1,1-4.6s1.7-2.9,2.9-4.2c1.3-1.3,2.9-2.3,5-3.1c2-0.8,4.3-1.2,6.7-1.2
			c0.8,0,1.4,0,1.8,0l0.4-1.2c1-0.2,1.9-0.3,2.8-0.3c1.8,0,3.5,0.5,5.1,1.6c0.2,1.5,0.3,2.7,0.3,3.5c0,2.4-0.5,3.7-1.4,4.1
			c-0.9,0.3-1.8,0.5-2.6,0.5c-1.5,0-3.4-0.3-5.7-0.9l0.3-1.8c-0.6-0.1-1.2-0.1-1.5-0.1c-2.3,0-4.4,0.6-6.1,1.9
			c-1.7,1.3-2.6,3.2-2.6,5.6c0,2.1,0.6,3.6,1.8,4.6s2.6,1.5,4.3,1.5c1,0,2.3-0.2,3.9-0.6l-0.1-1.8c1.6-1.1,3.6-1.6,5.9-1.6
			c0.6,0,1.4,0.1,2.3,0.2c1.2,1.5,1.8,3.2,1.8,5.2c0,0.8-0.1,2-0.3,3.7c-1.3,1.1-3.2,1.6-5.6,1.6c-0.6,0-1.4,0-2.2-0.1l-0.5-0.8
			c-0.9,0.1-1.8,0.1-2.7,0.1c-4.4,0-7.9-1.2-10.7-3.5C621,131.8,619.6,129,619.6,125.8z"/>
		<path class="st1" d="M647.8,114.3c0-0.7,0.1-1.2,0.3-1.4c0.6-0.1,1.4-0.1,2.3-0.1h1.1v-9c1.6-0.1,2.7-0.2,3.1-0.2s1.4,0.1,2.9,0.2
			l0.5,9.1c3.6,0.2,5.6,0.4,6.1,0.7c0.5,0.8,0.7,2.1,0.7,3.9c0,0.7-0.1,1.2-0.3,1.4c-1,0.1-2.2,0.2-3.5,0.2c-0.4,0-1.1,0-1.9,0
			c-0.8,0-1.5,0-1.9,0c0,1.1,0,2.4,0,4s0,2.7,0,3.4c0,2.5,0.2,4,0.5,4.6s1.3,0.8,2.8,0.8c0.6,0,1.1,0,1.4-0.1l-0.3-1l4.4-1
			c0.3,0.9,0.5,2,0.5,3.3c0,2.1-0.2,3.4-0.6,3.9c-3.1,0.4-5.7,0.7-7.8,0.7c-2.7,0-4.4-0.4-5.3-1.1c-0.4-0.4-0.7-0.8-0.9-1.4
			c-0.2-0.6-0.4-1.4-0.4-2.5c-0.1-1.1-0.1-2.1-0.2-3.2c0-1.1-0.1-2.6-0.1-4.7c-0.1-2.1-0.1-4-0.2-5.8c-1.1-0.1-1.9-0.3-2.5-0.6
			C648.1,117.4,647.8,116.1,647.8,114.3z"/>
		<path class="st1" d="M669,133.1c0-1.7,0.1-2.6,0.3-2.8c0.4-0.2,0.8-0.4,1.4-0.4c0.4-0.1,1.2-0.1,2.5-0.1c-0.2-2-0.3-4.2-0.3-6.5
			c0-2.6,0.2-4.2,0.5-4.9c-1.6,0-2.6-0.1-3.1-0.2c0-0.9,0.1-1.8,0.3-2.7c0.1-0.4,0.3-1.2,0.6-2.4c1.2-0.2,3.2-0.3,6-0.3
			c0.9,0,1.8,0.1,2.6,0.2s1.4,0.3,1.8,0.5c0.4,0.2,0.6,0.3,0.6,0.5c0.1,0,0.1,0.6,0.1,1.7c0,1.8-0.1,3-0.2,3.4
			c-0.1,0.2-0.2,0.3-0.5,0.3c-1.2,0-1.9-0.1-2.2-0.2c-0.3,2.2-0.5,5.1-0.5,8.7c0,1.5,0,2.2,0.1,2.3c0.2,0,0.5,0,0.8,0
			c1.2,0,2.1,0.2,2.8,0.5c0.1,0.1,0.2,0.4,0.2,0.9c0,0.8-0.1,1.8-0.3,2.9c-0.2,1.1-0.5,1.9-1,2.4c-0.4,0.4-1.6,0.6-3.8,0.6
			c-5,0-7.8-0.5-8.3-1.4C669.1,135.3,669,134.4,669,133.1z M672.7,103.3c0-0.9,0.5-1.3,1.5-1.3c0.8,0,1.7,0.2,2.6,0.7
			c0.7-0.7,1.6-1,2.7-1c0.7,0,1.3,0.2,1.8,0.7s0.8,1.1,0.8,2c0,0.4-0.1,0.8-0.3,1.2c-0.2,0.4-0.4,0.7-0.5,1
			c-0.2,0.3-0.5,0.6-0.9,0.9s-0.8,0.6-1,0.7s-0.7,0.4-1.3,0.7c-0.6,0.3-1,0.6-1.1,0.6c-1.3-0.9-2.3-2-3.1-3.1
			C673.1,105.1,672.7,104.1,672.7,103.3z"/>
		<path class="st1" d="M686.4,126.8c0-3.9,1.2-7.3,3.6-10c2.4-2.8,5.4-4.1,9.2-4.1c1.7,0,3.2,0.3,4.5,0.9s2.2,1.5,2.9,2.6
			s1.2,2.3,1.5,3.6s0.5,2.7,0.5,4.3c0,4.4-1.1,7.8-3.4,10.1c-2.2,2.3-5.2,3.5-8.8,3.5c-1.9,0-3.6-0.3-5-1s-2.4-1.6-3.1-2.7
			c-0.7-1.1-1.2-2.3-1.5-3.4S686.4,128.1,686.4,126.8z M693.3,126.4c0,1.6,0.5,2.9,1.5,4.1c1,1.1,2.2,1.7,3.5,1.7
			c1.2,0,2.2-0.5,3.1-1.4c0.9-1,1.4-2,1.8-3.1c0.3-1.1,0.5-2.1,0.5-3c0-1.4-0.4-2.6-1.3-3.7c-0.9-1.1-1.9-1.6-3.2-1.6
			c-1.6,0-3,0.7-4.1,2.2C693.9,123.1,693.3,124.7,693.3,126.4z"/>
		<path class="st1" d="M711.7,133.8c0-2,0.4-3.2,1.3-3.7c0.8-0.3,1.9-0.4,3.3-0.4c0.2,0,0.5,0,0.8,0.1c0-0.9,0-2.4-0.1-4.4
			s-0.1-3.6-0.1-4.6c-0.1,0-0.7,0-1.6,0.1c-0.9,0.1-1.5,0.1-1.7,0.1c-0.1,0-0.3,0-0.6-0.1s-0.5-0.1-0.6-0.1
			c-0.1-0.1-0.2-0.5-0.2-1.1c0-0.9,0.1-2,0.4-3.3c0.3-1.3,0.5-2.1,0.7-2.4c0.9-0.6,2.6-0.9,5.1-0.9c1.9,0,3.2,0.1,3.8,0.3
			c0.6,0.2,0.9,0.7,0.9,1.5c0,1-0.1,1.9-0.2,2.9c3-3.5,6.3-5.2,9.8-5.2c5.5,0,8.3,3.9,8.3,11.7c0,1.5-0.1,3.1-0.3,4.5
			c0-0.1,0.1-0.1,0.4-0.1c0.5,0,1.2,0.1,2.3,0.2c0.3,0.3,0.4,1.4,0.4,3.1c0,2.2-0.2,3.6-0.5,4.1c-2.4,0.6-4.5,1-6.3,1
			c-1.2,0-2.7-0.3-4.3-0.9c-0.2-0.2-0.5-0.7-0.7-1.7c-0.3-1-0.4-1.8-0.4-2.5c0-1.1,0.3-2,0.9-2.7c0.3-0.2,0.8-0.3,1.4-0.3
			c0.4,0,0.9,0.1,1.3,0.2c0-0.1,0-0.5,0-1.2s0-1.2,0-1.4c0-2-0.6-3.8-1.7-5.3c-1.1-1.5-2.5-2.3-4.2-2.3c-1.4,0-2.8,0.6-4,1.8
			c-1.2,1.2-1.8,3-1.8,5.5c0,0.9,0,2,0.1,3.5c0.4-0.2,0.9-0.3,1.5-0.3s0.9,0.1,1.1,0.2c0.3,0,0.5,0.6,0.5,1.9c0,0.3-0.2,1.6-0.5,3.9
			c-2.3,1.1-5.2,1.7-8.7,1.7c-3,0-4.8-0.4-5.5-1.3C711.9,135.5,711.7,134.8,711.7,133.8z"/>
		<path class="st1" d="M756.4,126.8c0-3.9,1.2-7.3,3.6-10c2.4-2.8,5.4-4.1,9.2-4.1c1.7,0,3.2,0.3,4.5,0.9s2.2,1.5,2.9,2.6
			s1.2,2.3,1.5,3.6s0.5,2.7,0.5,4.3c0,4.4-1.1,7.8-3.4,10.1c-2.2,2.3-5.2,3.5-8.8,3.5c-1.9,0-3.6-0.3-5-1s-2.4-1.6-3.1-2.7
			c-0.7-1.1-1.2-2.3-1.5-3.4S756.4,128.1,756.4,126.8z M763.3,126.4c0,1.6,0.5,2.9,1.5,4.1c1,1.1,2.2,1.7,3.5,1.7
			c1.2,0,2.2-0.5,3.1-1.4c0.9-1,1.4-2,1.8-3.1c0.3-1.1,0.5-2.1,0.5-3c0-1.4-0.4-2.6-1.3-3.7c-0.9-1.1-1.9-1.6-3.2-1.6
			c-1.6,0-3,0.7-4.1,2.2C763.9,123.1,763.3,124.7,763.3,126.4z"/>
		<path class="st1" d="M782.2,118.5c0-2.4,0.2-3.8,0.6-4.4c0.5-0.3,1.4-0.5,2.8-0.6c0-1.2,0-2.7-0.1-4.4c0-1.7-0.1-2.7-0.1-3.2
			c0-2.2,0.4-3.7,1.2-4.3c0.8-0.6,2.6-0.9,5.5-0.9c2.2,0,3.9,0.1,4.9,0.3c1,0.2,2,0.5,3.1,1c0.4,0.5,0.6,1.6,0.6,3
			c0,1.3-0.2,2.4-0.5,3.3l-4.4-1l0.3-1c-0.2,0-0.5,0-0.9,0c-2.5,0-3.8,1.3-3.8,3.9c0,0.2,0,0.8,0,1.7c0,0.9,0,1.4,0,1.6
			c0.4,0,1,0,1.7,0s1.2,0,1.5,0c0.9,0,1.8,0.1,2.5,0.2c0.1,0.1,0.2,0.5,0.2,1.2c0,2.4-0.2,3.8-0.6,4.4c-0.6,0.3-2.1,0.6-4.8,0.7v9.1
			c0.5-0.3,1.1-0.4,1.8-0.4s1.2,0.1,1.3,0.3c0.4,0.5,0.6,1.7,0.6,3.6c0,1.2-0.1,2.6-0.3,4.2c-1.2,0.6-3.6,0.9-7.5,0.9
			c-2.8,0-4.6-0.3-5.2-0.8c-0.3-0.4-0.5-1.5-0.5-3.1c0-2.3,0.5-3.7,1.4-4.3c0.5-0.3,0.9-0.4,1.4-0.4c0.1,0,0.3,0,0.6,0.1
			c0-0.3,0-1.6-0.1-3.7c0-2.2-0.1-3.9-0.1-5.2c0,0-0.1,0-0.2,0c-0.1,0-0.3,0-0.5,0H784c-0.4,0-1.1-0.1-2-0.2
			C782.3,119.6,782.2,119.2,782.2,118.5z"/>
		<path class="st1" d="M808.9,116.7c2.6-2.1,5.8-3.3,9.6-3.6c0.3,0.4,0.7,1.1,1.2,2s0.7,1.5,0.7,1.8c-0.1,0.3-0.4,0.5-1.2,0.8
			c-0.7,0.3-1.2,0.4-1.5,0.4c0.3,1.2,1,3.2,2.2,6s2.2,4.8,3,6.1c2-2.9,3.7-7,5.2-12.1c-0.4,0-1-0.2-1.6-0.4c-0.6-0.2-1-0.5-1.1-0.8
			c0-0.2,0.3-0.9,0.9-2c0.6-1.2,0.9-1.8,1-1.8c4.1,0,7.3,1.2,9.6,3.6c-0.3,2-0.8,3.7-1.3,5.1c-0.6-0.1-1.3-0.4-2-0.7
			c-0.1,0.9-0.4,1.9-0.8,2.9c-0.4,1-0.8,1.9-1.1,2.5s-0.9,1.5-1.6,2.7c-0.7,1.2-1.2,2-1.4,2.4c0.9,0.3,1.7,0.8,2.3,1.7
			c0,0.6-0.3,1.4-0.7,2.2c-0.5,0.8-1,1.3-1.5,1.4c-1.2,0.3-3.4,0.4-6.7,0.4c-2.6,0-4.3-0.1-4.9-0.4c-0.6-0.3-1.1-0.8-1.6-1.5
			c-0.4-0.7-0.7-1.4-0.7-2.1c0.2-0.2,0.6-0.6,1.2-1c0.6-0.4,1-0.7,1.1-0.7c-3.1-4.6-4.8-8.1-4.9-10.5c-0.7,0.4-1.4,0.6-2,0.7
			C809.7,120.2,809.2,118.6,808.9,116.7z"/>
		<path class="st1" d="M838.7,127.1c0-3.6,1.3-6.9,3.9-9.9c2.6-3,5.5-4.5,8.8-4.5c2,0,3.7,0.6,5.1,1.8c1.4,1.2,2.1,2.8,2.1,4.7
			c0,2.3-0.9,4.2-2.8,5.8s-4.3,2.4-7.4,2.4c-1.8,0-3-0.3-3.7-0.8c0,1.5,0.6,2.8,1.6,3.7c1,0.9,2.3,1.4,3.6,1.4
			c1.8,0,3.2-0.7,4.3-2.1c0-0.3,0-0.5,0.1-0.8c1.4-1.2,2.9-1.7,4.6-1.7c0.3,0,0.6,0,0.7,0c2.1,1.2,3.4,3,3.9,5.7
			c0,0.3-0.2,0.5-0.4,0.8s-0.4,0.5-0.6,0.7c-0.2,0.2-0.5,0.4-1,0.7c-0.4,0.3-0.7,0.5-1,0.6s-0.6,0.3-1.1,0.6s-0.7,0.4-0.8,0.4
			c-0.2,0-0.4,0-0.5-0.1c-0.1,0-0.2-0.1-0.4-0.2c-0.1-0.1-0.2-0.2-0.2-0.2s-0.1-0.2-0.2-0.4c-0.1-0.2-0.2-0.3-0.2-0.4
			c-2.4,1.6-4.9,2.4-7.6,2.4c-3,0-5.7-1-7.8-2.9C839.7,132.9,838.7,130.3,838.7,127.1z M846.2,121.5c0,1,0.8,1.6,2.3,1.6
			c1.1,0,2.2-0.3,3.3-0.8c1-0.5,1.6-1.2,1.6-2c0-0.5-0.2-1.1-0.5-1.7s-0.9-0.9-1.7-0.9c-1,0-2,0.4-3.2,1.2
			C846.7,119.7,846.2,120.5,846.2,121.5z"/>
		<path class="st1" d="M865.5,127.1c0-3.6,1.3-6.9,3.9-9.9c2.6-3,5.5-4.5,8.8-4.5c2,0,3.7,0.6,5.1,1.8c1.4,1.2,2.1,2.8,2.1,4.7
			c0,2.3-0.9,4.2-2.8,5.8s-4.3,2.4-7.4,2.4c-1.8,0-3-0.3-3.7-0.8c0,1.5,0.6,2.8,1.6,3.7c1,0.9,2.3,1.4,3.6,1.4
			c1.8,0,3.2-0.7,4.3-2.1c0-0.3,0-0.5,0.1-0.8c1.4-1.2,2.9-1.7,4.6-1.7c0.3,0,0.6,0,0.7,0c2.1,1.2,3.4,3,3.9,5.7
			c0,0.3-0.2,0.5-0.4,0.8s-0.4,0.5-0.6,0.7c-0.2,0.2-0.5,0.4-1,0.7c-0.4,0.3-0.7,0.5-1,0.6s-0.6,0.3-1.1,0.6s-0.7,0.4-0.8,0.4
			c-0.2,0-0.4,0-0.5-0.1c-0.1,0-0.2-0.1-0.4-0.2c-0.1-0.1-0.2-0.2-0.2-0.2s-0.1-0.2-0.2-0.4c-0.1-0.2-0.2-0.3-0.2-0.4
			c-2.4,1.6-4.9,2.4-7.6,2.4c-3,0-5.7-1-7.8-2.9C866.6,132.9,865.5,130.3,865.5,127.1z M873,121.5c0,1,0.8,1.6,2.3,1.6
			c1.1,0,2.2-0.3,3.3-0.8c1-0.5,1.6-1.2,1.6-2c0-0.5-0.2-1.1-0.5-1.7s-0.9-0.9-1.7-0.9c-1,0-2,0.4-3.2,1.2
			C873.6,119.7,873,120.5,873,121.5z"/>
		<path class="st1" d="M892.3,127.1c0-3.6,1.3-6.9,3.9-9.9c2.6-3,5.5-4.5,8.8-4.5c2,0,3.7,0.6,5.1,1.8c1.4,1.2,2.1,2.8,2.1,4.7
			c0,2.3-0.9,4.2-2.8,5.8s-4.3,2.4-7.4,2.4c-1.8,0-3-0.3-3.7-0.8c0,1.5,0.6,2.8,1.6,3.7c1,0.9,2.3,1.4,3.6,1.4
			c1.8,0,3.2-0.7,4.3-2.1c0-0.3,0-0.5,0.1-0.8c1.4-1.2,2.9-1.7,4.6-1.7c0.3,0,0.6,0,0.7,0c2.1,1.2,3.4,3,3.9,5.7
			c0,0.3-0.2,0.5-0.4,0.8s-0.4,0.5-0.6,0.7c-0.2,0.2-0.5,0.4-1,0.7c-0.4,0.3-0.7,0.5-1,0.6s-0.6,0.3-1.1,0.6s-0.7,0.4-0.8,0.4
			c-0.2,0-0.4,0-0.5-0.1c-0.1,0-0.2-0.1-0.4-0.2c-0.1-0.1-0.2-0.2-0.2-0.2s-0.1-0.2-0.2-0.4c-0.1-0.2-0.2-0.3-0.2-0.4
			c-2.4,1.6-4.9,2.4-7.6,2.4c-3,0-5.7-1-7.8-2.9C893.4,132.9,892.3,130.3,892.3,127.1z M899.8,121.5c0,1,0.8,1.6,2.3,1.6
			c1.1,0,2.2-0.3,3.3-0.8c1-0.5,1.6-1.2,1.6-2c0-0.5-0.2-1.1-0.5-1.7s-0.9-0.9-1.7-0.9c-1,0-2,0.4-3.2,1.2
			C900.4,119.7,899.8,120.5,899.8,121.5z"/>
		<path class="st1" d="M919.5,116.2c0-1.3,0.1-2.3,0.3-2.8c1.8-0.5,3.6-0.8,5.4-0.8c2.1,0,3.7,0.4,4.8,1.3c0,0.5,0,1.4,0,2.5
			l0.2-0.4c0.1-0.3,0.3-0.6,0.6-0.9c0.3-0.4,0.6-0.7,1-1.1s0.9-0.7,1.6-0.9c0.7-0.3,1.5-0.4,2.4-0.4c2.4,0,4.5,1,6.2,3.1
			c-0.2,1.3-0.8,2.4-1.7,3.1s-1.8,1.1-2.7,1.2c-1.2-0.7-2.3-1-3.4-1c-3.1,0-4.7,2-4.7,6c0,1.4,0.1,3,0.4,4.7
			c0.1-0.2,0.5-0.2,1.3-0.2c1,0,1.6,0.1,1.8,0.3c0.4,0.6,0.6,1.6,0.6,2.9c0,2-0.4,3.4-1.1,4c-1.6,0.3-3.6,0.5-5.9,0.5
			c-3.8,0-6-0.3-6.6-1c-0.1-0.4-0.1-1.3-0.1-2.9c0-2.2,0.1-3.4,0.3-3.5c0.2-0.3,0.8-0.4,1.9-0.4c0.7,0,1.3,0.1,1.6,0.3
			c-0.3-0.8-0.4-3.3-0.4-7.7c0-1.5,0-2.3,0.1-2.5c-0.4,0.1-0.7,0.1-1.1,0.1c-1.2,0-2-0.2-2.4-0.6
			C919.6,118.3,919.5,117.5,919.5,116.2z"/>
		<path class="st1" d="M942.5,146.8c0-1.4,0.2-2.9,0.6-4.6c0.4-1.7,0.8-2.8,1.3-3.3c0.4-0.2,0.9-0.3,1.4-0.3c1.2,0,2.4,0.4,3.6,1.2
			c0.1,0.1,0.2,0.3,0.2,0.6c0,0.2,0,0.5-0.1,0.9c1,0.9,2,1.5,3,1.8c0.9,0.3,2.1,0.4,3.6,0.4c1.4,0,2.6-0.1,3.6-0.2
			c1-0.1,2-0.4,3-0.8c1-0.4,1.8-1.1,2.3-2s0.8-2.1,0.8-3.6c0-1.2-0.1-2.2-0.3-3c-3.1,2.3-6.3,3.4-9.6,3.4c-2.8,0-5.1-1.3-6.8-3.8
			s-2.6-5.7-2.6-9.6c0-1.1,0.1-2,0.3-2.8c-0.2,0.1-0.4,0.1-0.7,0.1s-0.6-0.1-1.2-0.2c-0.5-0.1-0.8-0.2-0.9-0.2
			c-0.4-0.9-0.6-2-0.6-3.4c0-1.5,0.2-2.6,0.7-3.4c2.5-0.6,4.5-0.9,6.1-0.9c1.7,0,3.2,0.3,4.5,0.8c0.5,1,0.8,2.1,0.8,3.5
			c0,1.2-0.2,2.2-0.6,3c-0.2,0.2-0.5,0.3-0.7,0.3s-0.5-0.1-0.8-0.2c-0.3,1.1-0.4,2.3-0.4,3.6c0,4.2,1.4,6.4,4.2,6.4
			c2.2,0,4.1-0.7,5.7-2.1c1.6-1.4,2.4-3.2,2.4-5.3c0-0.8-0.1-1.6-0.4-2.5c-0.4,0.3-1,0.4-1.7,0.4c-0.4,0-0.7-0.1-0.8-0.3
			c-0.5-0.4-0.8-1.3-0.8-2.9s0.1-2.6,0.4-3c0.8-1.1,2.8-1.7,6-1.7c1.5,0,3,0.1,4.5,0.4s2.6,0.5,3.1,0.8c0.1,0.8,0.2,1.6,0.2,2.4
			c0,1.4-0.2,2.4-0.6,2.9c-0.3,0.3-0.6,0.4-1.1,0.4c-0.2,0-0.4,0-0.6-0.1c-0.2,0-0.4-0.1-0.7-0.2s-0.4-0.2-0.5-0.2
			c0.2,5.4,0.3,8.4,0.3,9.2c0,3.3-0.2,6.2-0.6,8.6c-0.4,2.4-1,4.4-1.8,5.9s-1.8,2.7-3.1,3.6c-1.3,0.9-2.6,1.5-4.1,1.9
			c-1.5,0.3-3.2,0.5-5.2,0.5c-3.4,0-6.4-0.7-9.1-2.2c-0.3,1-0.5,1.6-0.5,1.6c-0.5,0.4-1.3,0.7-2.4,0.7c-0.6,0-1.3-0.1-1.8-0.3
			c-0.6-0.2-0.9-0.4-1-0.5C942.5,147.9,942.5,147.4,942.5,146.8z"/>
		<path class="st1" d="M69,177.8c0-1.6,0.3-3.1,1-4.6s1.7-2.9,2.9-4.2c1.3-1.3,2.9-2.3,5-3.1c2-0.8,4.3-1.2,6.7-1.2
			c0.8,0,1.4,0,1.8,0l0.4-1.2c1-0.2,1.9-0.3,2.8-0.3c1.8,0,3.5,0.5,5.1,1.6c0.2,1.5,0.3,2.7,0.3,3.5c0,2.4-0.5,3.7-1.4,4.1
			c-0.9,0.3-1.8,0.5-2.6,0.5c-1.5,0-3.4-0.3-5.7-0.9l0.3-1.8c-0.6-0.1-1.2-0.1-1.5-0.1c-2.3,0-4.4,0.6-6.1,1.9
			c-1.7,1.3-2.6,3.2-2.6,5.6c0,2.1,0.6,3.6,1.8,4.6c1.2,1,2.6,1.5,4.3,1.5c1,0,2.3-0.2,3.9-0.6l-0.1-1.8c1.6-1.1,3.6-1.6,5.9-1.6
			c0.6,0,1.4,0.1,2.3,0.2c1.2,1.5,1.8,3.2,1.8,5.2c0,0.8-0.1,2-0.3,3.7c-1.3,1.1-3.2,1.6-5.6,1.6c-0.6,0-1.4,0-2.2-0.1l-0.5-0.8
			c-0.9,0.1-1.8,0.1-2.7,0.1c-4.4,0-7.9-1.2-10.7-3.5C70.4,183.8,69,181,69,177.8z"/>
		<path class="st1" d="M98.2,170.2c0-2.2,0.2-3.6,0.5-4.1c2.4-0.6,4.4-0.9,6.2-0.9c1.3,0,2.7,0.3,4.4,0.8c0.2,0.2,0.3,0.7,0.5,1.7
			s0.3,1.8,0.3,2.6c0,1.1-0.3,2-0.8,2.8c-0.3,0.2-0.8,0.3-1.3,0.3c-0.4,0-0.8-0.1-1.2-0.2c0,0.1,0,0.5,0,1.2s0,1.2,0,1.4
			c0,2,0.5,3.8,1.6,5.3s2.5,2.3,4.1,2.3c1.4,0,2.8-0.6,3.9-1.8c1.2-1.2,1.8-3,1.8-5.5c0-0.9,0-2-0.1-3.5c-0.4,0.2-0.9,0.3-1.5,0.3
			s-0.9-0.1-1.1-0.2c-0.3,0-0.5-0.6-0.5-1.9c0-0.3,0.2-1.6,0.5-4c2.3-1.1,5.2-1.6,8.8-1.6c2.8,0,4.6,0.5,5.4,1.4
			c0.3,0.4,0.4,1,0.4,2c0,2-0.4,3.3-1.3,3.8c-1.2,0.3-2.2,0.4-2.9,0.4c-0.5,0-0.8,0-1.2-0.1c0,0.9,0,2.4,0.1,4.4s0.1,3.6,0.1,4.6
			c0.1,0,0.7,0,1.6-0.1s1.5-0.1,1.7-0.1c0.1,0,0.3,0,0.6,0.1s0.5,0.1,0.6,0.1c0.1,0.1,0.2,0.5,0.2,1.1c0,0.9-0.1,2-0.4,3.3
			c-0.3,1.3-0.5,2.1-0.7,2.4c-1,0.6-2.8,0.9-5.5,0.9c-1.7,0-2.8-0.1-3.4-0.3s-0.9-0.7-0.9-1.5c0-1,0.1-1.9,0.2-2.9
			c-3,3.5-6.2,5.2-9.7,5.2c-5.7,0-8.5-3.9-8.5-11.7c0-1.5,0.1-3,0.3-4.5c0,0-0.2,0-0.4,0c-0.4,0-1.1-0.1-2-0.2
			C98.3,173,98.2,171.9,98.2,170.2z"/>
		<path class="st1" d="M132,166.3c0-0.7,0.1-1.2,0.3-1.4c0.6-0.1,1.4-0.1,2.3-0.1h1.1v-9c1.6-0.1,2.7-0.2,3.1-0.2s1.4,0.1,2.9,0.2
			l0.5,9.1c3.6,0.2,5.6,0.4,6.1,0.7c0.5,0.8,0.7,2.1,0.7,3.9c0,0.7-0.1,1.2-0.3,1.4c-1,0.1-2.2,0.2-3.5,0.2c-0.4,0-1.1,0-1.9,0
			c-0.8,0-1.5,0-1.9,0c0,1.1,0,2.4,0,4s0,2.7,0,3.4c0,2.5,0.2,4,0.5,4.6s1.3,0.8,2.8,0.8c0.6,0,1.1,0,1.4-0.1l-0.3-1l4.4-1
			c0.3,0.9,0.5,2,0.5,3.3c0,2.1-0.2,3.4-0.6,3.9c-3.1,0.4-5.7,0.7-7.8,0.7c-2.7,0-4.4-0.4-5.3-1.1c-0.4-0.3-0.7-0.8-0.9-1.4
			c-0.2-0.6-0.4-1.4-0.4-2.5c-0.1-1.1-0.1-2.1-0.2-3.2c0-1.1-0.1-2.6-0.1-4.7c-0.1-2.1-0.1-4-0.2-5.8c-1.1-0.1-1.9-0.3-2.5-0.6
			C132.3,169.4,132,168.1,132,166.3z"/>
		<path class="st1" d="M153.3,179.1c0-3.6,1.3-6.9,3.9-9.9c2.6-3,5.5-4.5,8.8-4.5c2,0,3.7,0.6,5.1,1.8c1.4,1.2,2.1,2.8,2.1,4.7
			c0,2.3-0.9,4.2-2.8,5.8c-1.9,1.6-4.3,2.4-7.4,2.4c-1.8,0-3-0.3-3.7-0.8c0,1.5,0.6,2.8,1.6,3.7s2.3,1.4,3.6,1.4
			c1.8,0,3.2-0.7,4.3-2.1c0-0.3,0-0.5,0.1-0.8c1.4-1.2,2.9-1.7,4.6-1.7c0.3,0,0.6,0,0.7,0c2.1,1.2,3.4,3,3.9,5.7
			c0,0.3-0.2,0.5-0.4,0.8s-0.4,0.5-0.6,0.7c-0.2,0.2-0.5,0.4-1,0.7c-0.4,0.3-0.7,0.5-1,0.6c-0.2,0.1-0.6,0.3-1.1,0.6
			s-0.7,0.4-0.8,0.4c-0.2,0-0.4,0-0.5-0.1c-0.1,0-0.2-0.1-0.4-0.2c-0.1-0.1-0.2-0.2-0.2-0.2s-0.1-0.2-0.2-0.4
			c-0.1-0.2-0.2-0.3-0.2-0.4c-2.4,1.6-4.9,2.4-7.6,2.4c-3,0-5.7-1-7.8-2.9C154.4,184.9,153.3,182.3,153.3,179.1z M160.8,173.5
			c0,1,0.8,1.6,2.3,1.6c1.1,0,2.2-0.3,3.3-0.8c1-0.5,1.6-1.2,1.6-2c0-0.5-0.2-1.1-0.5-1.7c-0.4-0.6-0.9-0.9-1.7-0.9
			c-1,0-2,0.4-3.2,1.2C161.4,171.7,160.8,172.5,160.8,173.5z"/>
		<path class="st1" d="M189.8,184.8c0-1.4,0.1-2.2,0.3-2.4c0.8-0.4,1.8-0.6,2.8-0.6c-0.4-2.1-0.6-5.3-0.6-9.7
			c0-5.1,0.2-9.5,0.6-13.3c-0.9,0-1.6-0.1-2.2-0.2c-0.1-0.6-0.1-1.1-0.1-1.5c0-1.4,0.3-2.6,1-3.6c1.4-0.3,2.7-0.5,3.9-0.5
			c1.5,0,2.7,0.2,3.6,0.5c0.3,3,0.5,6.2,0.5,9.5c0,2.4-0.1,5.7-0.3,10.1c-0.2,4.4-0.3,7.3-0.4,8.9c0.2,0,0.4,0,0.8,0
			c0.8,0,1.5,0.2,2,0.5c0.1,0.3,0.2,0.6,0.2,1.2c0,0.8-0.1,1.7-0.3,2.8s-0.4,1.9-0.7,2.3c-0.4,0.3-1.9,0.5-4.5,0.5
			c-1.5,0-2.9-0.1-4.1-0.4c-1.2-0.3-1.9-0.6-2.2-1C189.9,187.5,189.8,186.4,189.8,184.8z"/>
		<path class="st1" d="M205,185.1c0-1.7,0.1-2.6,0.3-2.8c0.4-0.2,0.8-0.4,1.4-0.4c0.4-0.1,1.2-0.1,2.5-0.1c-0.2-2-0.3-4.2-0.3-6.5
			c0-2.6,0.2-4.2,0.5-4.9c-1.6,0-2.6-0.1-3.1-0.2c0-0.9,0.1-1.8,0.3-2.7c0.1-0.4,0.3-1.2,0.6-2.4c1.2-0.2,3.2-0.3,6-0.3
			c0.9,0,1.8,0.1,2.6,0.2c0.8,0.1,1.4,0.3,1.8,0.5c0.4,0.2,0.6,0.3,0.6,0.5c0.1,0,0.1,0.6,0.1,1.7c0,1.8-0.1,3-0.2,3.4
			c-0.1,0.2-0.2,0.3-0.5,0.3c-1.2,0-1.9-0.1-2.2-0.2c-0.3,2.2-0.5,5.1-0.5,8.7c0,1.5,0,2.2,0.1,2.3c0.2,0,0.5,0,0.8,0
			c1.2,0,2.1,0.2,2.8,0.5c0.1,0.1,0.2,0.4,0.2,0.9c0,0.8-0.1,1.8-0.3,2.9s-0.5,1.9-1,2.4c-0.4,0.4-1.6,0.6-3.8,0.6
			c-5,0-7.8-0.5-8.3-1.4C205.1,187.3,205,186.4,205,185.1z M208.8,155.3c0-0.9,0.5-1.3,1.5-1.3c0.8,0,1.7,0.2,2.6,0.7
			c0.7-0.7,1.6-1,2.7-1c0.7,0,1.3,0.2,1.8,0.7s0.8,1.1,0.8,2c0,0.4-0.1,0.8-0.3,1.2s-0.4,0.7-0.5,1c-0.2,0.3-0.5,0.6-0.9,0.9
			s-0.8,0.6-1,0.7c-0.2,0.1-0.7,0.4-1.3,0.7s-1,0.6-1.1,0.6c-1.3-0.9-2.3-2-3.1-3.1C209.1,157.1,208.8,156.1,208.8,155.3z"/>
		<path class="st1" d="M221.2,166.3c0-0.7,0.1-1.2,0.3-1.4c0.6-0.1,1.4-0.1,2.3-0.1h1.1v-9c1.6-0.1,2.7-0.2,3.1-0.2s1.4,0.1,2.9,0.2
			l0.5,9.1c3.6,0.2,5.6,0.4,6.1,0.7c0.5,0.8,0.7,2.1,0.7,3.9c0,0.7-0.1,1.2-0.3,1.4c-1,0.1-2.2,0.2-3.5,0.2c-0.4,0-1.1,0-1.9,0
			c-0.8,0-1.5,0-1.9,0c0,1.1,0,2.4,0,4s0,2.7,0,3.4c0,2.5,0.2,4,0.5,4.6s1.3,0.8,2.8,0.8c0.6,0,1.1,0,1.4-0.1l-0.3-1l4.4-1
			c0.3,0.9,0.5,2,0.5,3.3c0,2.1-0.2,3.4-0.6,3.9c-3.1,0.4-5.7,0.7-7.8,0.7c-2.7,0-4.4-0.4-5.3-1.1c-0.4-0.3-0.7-0.8-0.9-1.4
			c-0.2-0.6-0.4-1.4-0.4-2.5c-0.1-1.1-0.1-2.1-0.2-3.2c0-1.1-0.1-2.6-0.1-4.7c-0.1-2.1-0.1-4-0.2-5.8c-1.1-0.1-1.9-0.3-2.5-0.6
			C221.4,169.4,221.2,168.1,221.2,166.3z"/>
		<path class="st1" d="M241.3,166.3c0-0.7,0.1-1.2,0.3-1.4c0.6-0.1,1.4-0.1,2.3-0.1h1.1v-9c1.6-0.1,2.7-0.2,3.1-0.2s1.4,0.1,2.9,0.2
			l0.5,9.1c3.6,0.2,5.6,0.4,6.1,0.7c0.5,0.8,0.7,2.1,0.7,3.9c0,0.7-0.1,1.2-0.3,1.4c-1,0.1-2.2,0.2-3.5,0.2c-0.4,0-1.1,0-1.9,0
			c-0.8,0-1.5,0-1.9,0c0,1.1,0,2.4,0,4s0,2.7,0,3.4c0,2.5,0.2,4,0.5,4.6s1.3,0.8,2.8,0.8c0.6,0,1.1,0,1.4-0.1l-0.3-1l4.4-1
			c0.3,0.9,0.5,2,0.5,3.3c0,2.1-0.2,3.4-0.6,3.9c-3.1,0.4-5.7,0.7-7.8,0.7c-2.7,0-4.4-0.4-5.3-1.1c-0.4-0.3-0.7-0.8-0.9-1.4
			c-0.2-0.6-0.4-1.4-0.4-2.5c-0.1-1.1-0.1-2.1-0.2-3.2c0-1.1-0.1-2.6-0.1-4.7c-0.1-2.1-0.1-4-0.2-5.8c-1.1-0.1-1.9-0.3-2.5-0.6
			C241.6,169.4,241.3,168.1,241.3,166.3z"/>
		<path class="st1" d="M262.6,184.8c0-1.4,0.1-2.2,0.3-2.4c0.8-0.4,1.8-0.6,2.8-0.6c-0.4-2.1-0.6-5.3-0.6-9.7
			c0-5.1,0.2-9.5,0.6-13.3c-0.9,0-1.6-0.1-2.2-0.2c-0.1-0.6-0.1-1.1-0.1-1.5c0-1.4,0.3-2.6,1-3.6c1.4-0.3,2.7-0.5,3.9-0.5
			c1.5,0,2.7,0.2,3.6,0.5c0.3,3,0.5,6.2,0.5,9.5c0,2.4-0.1,5.7-0.3,10.1c-0.2,4.4-0.3,7.3-0.4,8.9c0.2,0,0.4,0,0.8,0
			c0.8,0,1.5,0.2,2,0.5c0.1,0.3,0.2,0.6,0.2,1.2c0,0.8-0.1,1.7-0.3,2.8c-0.2,1.1-0.4,1.9-0.7,2.3c-0.4,0.3-1.9,0.5-4.5,0.5
			c-1.5,0-2.9-0.1-4.1-0.4c-1.2-0.3-1.9-0.6-2.2-1C262.7,187.5,262.6,186.4,262.6,184.8z"/>
		<path class="st1" d="M277.9,179.1c0-3.6,1.3-6.9,3.9-9.9s5.5-4.5,8.8-4.5c2,0,3.7,0.6,5.1,1.8s2.1,2.8,2.1,4.7
			c0,2.3-0.9,4.2-2.8,5.8s-4.3,2.4-7.4,2.4c-1.8,0-3-0.3-3.7-0.8c0,1.5,0.6,2.8,1.6,3.7s2.3,1.4,3.6,1.4c1.8,0,3.2-0.7,4.3-2.1
			c0-0.3,0-0.5,0.1-0.8c1.4-1.2,2.9-1.7,4.6-1.7c0.3,0,0.6,0,0.7,0c2.1,1.2,3.4,3,3.9,5.7c0,0.3-0.2,0.5-0.4,0.8
			c-0.2,0.3-0.4,0.5-0.6,0.7s-0.5,0.4-1,0.7c-0.4,0.3-0.7,0.5-1,0.6c-0.2,0.1-0.6,0.3-1.1,0.6s-0.7,0.4-0.8,0.4
			c-0.2,0-0.4,0-0.5-0.1c-0.1,0-0.2-0.1-0.4-0.2c-0.1-0.1-0.2-0.2-0.2-0.2s-0.1-0.2-0.2-0.4s-0.2-0.3-0.2-0.4
			c-2.4,1.6-4.9,2.4-7.6,2.4c-3,0-5.7-1-7.8-2.9C279,184.9,277.9,182.3,277.9,179.1z M285.4,173.5c0,1,0.8,1.6,2.3,1.6
			c1.1,0,2.2-0.3,3.3-0.8c1-0.5,1.6-1.2,1.6-2c0-0.5-0.2-1.1-0.5-1.7c-0.4-0.6-0.9-0.9-1.7-0.9c-1,0-2,0.4-3.2,1.2
			C286,171.7,285.4,172.5,285.4,173.5z"/>
		<path class="st1" d="M313.4,169.8c1.2-1.3,2.5-2.3,4-3s3.5-1.3,6.2-1.7c0.6,0.4,1.1,1.1,1.4,2c0.3,1,0.5,1.9,0.5,2.9
			c-0.1,0.3-0.4,0.5-1.2,0.8c-0.7,0.3-1.2,0.4-1.5,0.4c0.1,0.4,0.2,1,0.6,1.7c0.3,0.7,0.6,1.2,0.8,1.7c0.2,0.5,0.6,1.2,1.2,2.2
			s1,1.7,1.2,2.1c0.6-0.5,1.3-1.3,2.1-2.5c0.8-1.2,1.4-2.3,1.8-3.3c0.5-1,1-2.2,1.6-3.6c0.6-1.4,1-2.2,1.1-2.4
			c0.7-0.5,1.5-0.8,2.3-0.8s1.6,0.3,2.4,0.8c0.1,0.4,0.4,1.2,0.7,2.4c0.4,1.2,0.7,2.1,0.9,2.9c0.3,0.7,0.6,1.6,0.9,2.6
			c0.4,1,0.8,1.8,1.2,2.6c0.4,0.7,0.9,1.3,1.4,1.8c0.7-1.1,1.5-2.5,2.3-4.2s1.3-3,1.5-3.9c-0.4,0-0.9-0.2-1.6-0.5s-1.1-0.5-1.1-0.8
			v-0.5c0-0.4,0-0.7,0-0.9s0.1-0.5,0.1-0.9c0.1-0.4,0.2-0.7,0.3-1c0.1-0.3,0.3-0.6,0.5-0.9c0.2-0.3,0.5-0.5,0.8-0.7
			c2.6,0.4,4.6,1,6,1.6c1.4,0.7,2.8,1.7,4.1,3c-0.3,2-0.8,3.7-1.3,5.1c-0.6-0.1-1.3-0.4-2-0.7c0,0.5-0.4,1.3-1,2.5s-1.4,2.6-2.4,4.3
			l-1.5,2.5c0.9,0.3,1.7,0.8,2.3,1.7c0,1.2-0.8,2.4-2.4,3.6c-1,0.3-2.6,0.4-4.6,0.4c-0.5,0-1.1-0.4-1.8-1.1
			c-0.7-0.7-1.5-1.8-2.4-3.2s-1.6-2.6-2.1-3.4c-0.5-0.8-1.2-2-2-3.6c-4.1,7.6-6.9,11.4-8.4,11.4c-2.5,0-4-0.1-4.7-0.4
			c-0.6-0.3-1.1-0.9-1.6-1.7s-0.7-1.4-0.7-1.9c0.2-0.2,0.6-0.6,1.2-1s1-0.7,1.1-0.7c-3.2-5.2-4.8-8.3-4.9-9.4
			c-0.7,0.4-1.4,0.6-2,0.7C314.2,173.4,313.7,171.7,313.4,169.8z"/>
		<path class="st1" d="M358.1,179.2c0-2.3,0.3-4.6,1-6.8s1.8-4.1,3.3-5.6c1.5-1.6,3.3-2.4,5.4-2.4c0.9,0,1.8,0.2,2.5,0.5
			s1.3,0.7,1.7,1.2c0.4,0.5,0.7,0.9,1,1.4s0.4,0.9,0.5,1.2s0.2,0.5,0.2,0.5c0-1.8,0-2.9,0-3.5c0.7-0.6,1.3-0.9,2-1.1
			c0.7-0.2,1.7-0.3,2.9-0.3c1.1,0,2,0,2.8,0.1s1.5,0.1,1.9,0.2c0.4,0.1,0.8,0.2,1,0.3c0.3,0.1,0.4,0.2,0.5,0.2h0.1
			c0.1,0.3,0.2,1.2,0.2,2.7c0,1.6-0.1,2.5-0.2,2.8c-0.1,0.2-0.7,0.4-1.7,0.6c-1,0.2-1.9,0.3-2.7,0.3c-0.4,0-0.7,0-1.2-0.1
			c0.1,0.2,0.1,1,0.1,2.4c0,4.2-0.1,6.5-0.4,7c0.2-0.1,0.5-0.1,0.9-0.1c1.6,0,3.1,0.1,4.6,0.4c0.3,0.2,0.4,1.6,0.4,4.2
			c0,1.4-0.1,2.3-0.2,2.6c-0.2,0.3-1,0.7-2.3,1s-2.8,0.5-4.4,0.5c-2.8,0-4.5-0.1-5.1-0.2c-0.2-0.6-0.3-1.1-0.3-1.5
			c0-0.3,0-0.4,0.1-0.6c-0.4,0.1-1.5,0.6-3.3,1.4c-1.8,0.8-3.1,1.2-3.9,1.2c-2.5,0-4.3-1-5.6-3.1
			C358.8,184.7,358.1,182.2,358.1,179.2z M364.1,178c0,1.8,0.6,3.4,1.7,4.6c1.1,1.3,2.3,1.9,3.5,1.9c0.7,0,1.4-0.2,2.3-0.5
			c0.9-0.4,1.3-0.7,1.4-1c0.1-1.5,0.2-2.9,0.3-4.1c0.1-1.2,0.1-2.2,0.2-2.9c0-0.7,0.1-1.1,0.1-1.3v-0.6c0-0.7-0.4-1.3-1.3-2
			s-1.9-1-3-1c-1.6,0-2.8,0.7-3.7,2.2C364.6,174.8,364.1,176.3,364.1,178z"/>
		<path class="st1" d="M388.3,168.2c0-1.3,0.1-2.3,0.3-2.8c1.8-0.5,3.6-0.8,5.4-0.8c2.1,0,3.7,0.4,4.8,1.3c0,0.5,0,1.4,0,2.5
			l0.2-0.4c0.1-0.3,0.3-0.6,0.6-0.9c0.3-0.4,0.6-0.7,1-1.1c0.4-0.4,0.9-0.7,1.6-0.9c0.7-0.3,1.5-0.4,2.4-0.4c2.4,0,4.5,1,6.2,3.1
			c-0.2,1.3-0.8,2.4-1.7,3.1c-0.9,0.7-1.8,1.1-2.7,1.2c-1.2-0.7-2.3-1-3.4-1c-3.1,0-4.7,2-4.7,6c0,1.4,0.1,3,0.4,4.7
			c0.1-0.2,0.5-0.2,1.3-0.2c1,0,1.6,0.1,1.8,0.3c0.4,0.6,0.6,1.6,0.6,2.9c0,2-0.4,3.4-1.1,4c-1.6,0.3-3.6,0.5-5.9,0.5
			c-3.8,0-6-0.3-6.6-1c-0.1-0.4-0.1-1.3-0.1-2.9c0-2.2,0.1-3.4,0.3-3.5c0.2-0.3,0.8-0.4,1.9-0.4c0.7,0,1.3,0.1,1.6,0.3
			c-0.3-0.8-0.4-3.3-0.4-7.7c0-1.5,0-2.3,0.1-2.5c-0.4,0.1-0.7,0.1-1.1,0.1c-1.2,0-2-0.2-2.4-0.6
			C388.4,170.3,388.3,169.5,388.3,168.2z"/>
		<path class="st1" d="M413,168.2c0-1.3,0.1-2.3,0.3-2.8c1.8-0.5,3.6-0.8,5.4-0.8c2.1,0,3.7,0.4,4.8,1.3c0,0.5,0,1.4,0,2.5l0.2-0.4
			c0.1-0.3,0.3-0.6,0.6-0.9c0.3-0.4,0.6-0.7,1-1.1c0.4-0.4,0.9-0.7,1.6-0.9c0.7-0.3,1.5-0.4,2.4-0.4c2.4,0,4.5,1,6.2,3.1
			c-0.2,1.3-0.8,2.4-1.7,3.1c-0.9,0.7-1.8,1.1-2.7,1.2c-1.2-0.7-2.3-1-3.4-1c-3.1,0-4.7,2-4.7,6c0,1.4,0.1,3,0.4,4.7
			c0.1-0.2,0.5-0.2,1.3-0.2c1,0,1.6,0.1,1.8,0.3c0.4,0.6,0.6,1.6,0.6,2.9c0,2-0.4,3.4-1.1,4c-1.6,0.3-3.6,0.5-5.9,0.5
			c-3.8,0-6-0.3-6.6-1c-0.1-0.4-0.1-1.3-0.1-2.9c0-2.2,0.1-3.4,0.3-3.5c0.2-0.3,0.8-0.4,1.9-0.4c0.7,0,1.3,0.1,1.6,0.3
			c-0.3-0.8-0.4-3.3-0.4-7.7c0-1.5,0-2.3,0.1-2.5c-0.4,0.1-0.7,0.1-1.1,0.1c-1.2,0-2-0.2-2.4-0.6C413.1,170.3,413,169.5,413,168.2z"
			/>
		<path class="st1" d="M437.3,185.1c0-1.7,0.1-2.6,0.3-2.8c0.4-0.2,0.8-0.4,1.4-0.4c0.4-0.1,1.2-0.1,2.5-0.1c-0.2-2-0.3-4.2-0.3-6.5
			c0-2.6,0.2-4.2,0.5-4.9c-1.6,0-2.6-0.1-3.1-0.2c0-0.9,0.1-1.8,0.3-2.7c0.1-0.4,0.3-1.2,0.6-2.4c1.2-0.2,3.2-0.3,6-0.3
			c0.9,0,1.8,0.1,2.6,0.2c0.8,0.1,1.4,0.3,1.8,0.5s0.6,0.3,0.6,0.5c0.1,0,0.1,0.6,0.1,1.7c0,1.8-0.1,3-0.2,3.4
			c-0.1,0.2-0.2,0.3-0.5,0.3c-1.2,0-1.9-0.1-2.2-0.2c-0.3,2.2-0.5,5.1-0.5,8.7c0,1.5,0,2.2,0.1,2.3c0.2,0,0.5,0,0.8,0
			c1.2,0,2.1,0.2,2.8,0.5c0.1,0.1,0.2,0.4,0.2,0.9c0,0.8-0.1,1.8-0.3,2.9s-0.5,1.9-1,2.4c-0.4,0.4-1.6,0.6-3.8,0.6
			c-5,0-7.8-0.5-8.3-1.4C437.4,187.3,437.3,186.4,437.3,185.1z M441.1,155.3c0-0.9,0.5-1.3,1.5-1.3c0.8,0,1.7,0.2,2.6,0.7
			c0.7-0.7,1.6-1,2.7-1c0.7,0,1.3,0.2,1.8,0.7s0.8,1.1,0.8,2c0,0.4-0.1,0.8-0.3,1.2c-0.2,0.4-0.4,0.7-0.5,1
			c-0.2,0.3-0.5,0.6-0.9,0.9s-0.8,0.6-1,0.7c-0.2,0.1-0.7,0.4-1.3,0.7c-0.6,0.3-1,0.6-1.1,0.6c-1.3-0.9-2.3-2-3.1-3.1
			C441.5,157.1,441.1,156.1,441.1,155.3z"/>
		<path class="st1" d="M454.8,178.8c0-3.9,1.2-7.3,3.6-10c2.4-2.8,5.4-4.1,9.2-4.1c1.7,0,3.2,0.3,4.5,0.9c1.3,0.6,2.2,1.5,2.9,2.6
			c0.7,1.1,1.2,2.3,1.5,3.6s0.5,2.7,0.5,4.3c0,4.4-1.1,7.8-3.4,10.1c-2.2,2.3-5.2,3.5-8.8,3.5c-1.9,0-3.6-0.3-5-1s-2.4-1.6-3.1-2.7
			c-0.7-1.1-1.2-2.3-1.5-3.4C454.9,181.4,454.8,180.1,454.8,178.8z M461.7,178.4c0,1.6,0.5,2.9,1.5,4.1c1,1.1,2.2,1.7,3.5,1.7
			c1.2,0,2.2-0.5,3.1-1.4c0.9-1,1.4-2,1.8-3.1s0.5-2.1,0.5-3c0-1.4-0.4-2.6-1.3-3.7c-0.9-1.1-1.9-1.6-3.2-1.6c-1.6,0-3,0.7-4.1,2.2
			C462.2,175.1,461.7,176.7,461.7,178.4z"/>
		<path class="st1" d="M480.5,168.2c0-1.3,0.1-2.3,0.3-2.8c1.8-0.5,3.6-0.8,5.4-0.8c2.1,0,3.7,0.4,4.8,1.3c0,0.5,0,1.4,0,2.5
			l0.2-0.4c0.1-0.3,0.3-0.6,0.6-0.9c0.3-0.4,0.6-0.7,1-1.1c0.4-0.4,0.9-0.7,1.6-0.9c0.7-0.3,1.5-0.4,2.4-0.4c2.4,0,4.5,1,6.2,3.1
			c-0.2,1.3-0.8,2.4-1.7,3.1c-0.9,0.7-1.8,1.1-2.7,1.2c-1.2-0.7-2.3-1-3.4-1c-3.1,0-4.7,2-4.7,6c0,1.4,0.1,3,0.4,4.7
			c0.1-0.2,0.5-0.2,1.3-0.2c1,0,1.6,0.1,1.8,0.3c0.4,0.6,0.6,1.6,0.6,2.9c0,2-0.4,3.4-1.1,4c-1.6,0.3-3.6,0.5-5.9,0.5
			c-3.8,0-6-0.3-6.6-1c-0.1-0.4-0.1-1.3-0.1-2.9c0-2.2,0.1-3.4,0.3-3.5c0.2-0.3,0.8-0.4,1.9-0.4c0.7,0,1.3,0.1,1.6,0.3
			c-0.3-0.8-0.4-3.3-0.4-7.7c0-1.5,0-2.3,0.1-2.5c-0.4,0.1-0.7,0.1-1.1,0.1c-1.2,0-2-0.2-2.4-0.6
			C480.6,170.3,480.5,169.5,480.5,168.2z"/>
		<path class="st1" d="M504.5,187.7c0.2-3.3,1.3-5.6,3.4-6.9c0.2,0,0.6,0,1,0c1.7,0,3,0.6,3.9,1.7c0,0,0,0.1,0,0.2
			c0,0.1,0,0.1,0,0.2c0,0.1,0,0.3-0.1,0.5c0.3,0.5,0.8,0.9,1.6,1.2c0.7,0.3,1.6,0.5,2.4,0.5c1.2,0,2.2-0.3,2.9-0.9
			c0.7-0.6,1.1-1.3,1.1-2.1c0-1.6-1.3-2.4-3.9-2.5c-1,0-1.8-0.1-2.4-0.2c-0.6-0.1-1.4-0.2-2.5-0.3c-1-0.1-1.9-0.4-2.6-0.7
			s-1.4-0.7-2-1.2c-0.7-0.5-1.2-1.1-1.6-1.9s-0.5-1.7-0.5-2.8c0-2.5,1-4.3,3-5.6s4.4-1.9,7.4-1.9c2.5,0,4.7,0.3,6.5,0.8
			c0.2-0.3,0.5-0.6,0.8-1c0.3-0.3,0.6-0.5,0.8-0.6c2.4,0.2,3.9,1,4.7,2.4c-0.2,3.3-1.3,5.6-3.4,6.8c-0.2,0-0.6,0-1,0
			c-1.7,0-3-0.6-3.9-1.7c0,0,0-0.1,0-0.2c0-0.1,0-0.1,0-0.2c0-0.1,0-0.3,0.1-0.5c-0.3-0.4-1-0.8-1.9-1.1s-1.8-0.4-2.8-0.4
			c-2.5,0-3.7,0.8-3.7,2.5c0,2,1.9,3,5.8,3.1c1.1,0,1.9,0.1,2.4,0.1c0.5,0.1,1.1,0.1,1.9,0.2c0.8,0.1,1.5,0.3,2.1,0.6
			s1.2,0.7,1.8,1.2s1.1,1.1,1.4,1.9c0.3,0.8,0.5,1.7,0.5,2.8c0,5.1-3.7,7.6-11.1,7.6c-2.5,0-4.6-0.3-6.2-0.9c-0.5,1-0.9,1.5-1.1,1.5
			C506.8,189.9,505.2,189.1,504.5,187.7z"/>
		<path class="st1" d="M530.8,193.1c0-2,0.2-3.8,0.4-5.3s0.7-3.1,1.4-4.8c1.4-0.8,2.5-1.2,3.4-1.2c0.5,0,1.2,0.1,2.1,0.3
			c-0.3,1.9-0.9,3.6-1.8,5.1c-0.8,1.5-2,3.2-3.4,4.9C532.4,192.8,531.6,193.1,530.8,193.1z"/>
		<path class="st1" d="M550.2,166.3c0-0.7,0.1-1.2,0.3-1.4c0.6-0.1,1.4-0.1,2.3-0.1h1.1v-9c1.6-0.1,2.7-0.2,3.1-0.2s1.4,0.1,2.9,0.2
			l0.5,9.1c3.6,0.2,5.6,0.4,6.1,0.7c0.5,0.8,0.7,2.1,0.7,3.9c0,0.7-0.1,1.2-0.3,1.4c-1,0.1-2.2,0.2-3.5,0.2c-0.4,0-1.1,0-1.9,0
			c-0.8,0-1.5,0-1.9,0c0,1.1,0,2.4,0,4s0,2.7,0,3.4c0,2.5,0.2,4,0.5,4.6s1.3,0.8,2.8,0.8c0.6,0,1.1,0,1.4-0.1l-0.3-1l4.4-1
			c0.3,0.9,0.5,2,0.5,3.3c0,2.1-0.2,3.4-0.6,3.9c-3.1,0.4-5.7,0.7-7.8,0.7c-2.7,0-4.4-0.4-5.3-1.1c-0.4-0.3-0.7-0.8-0.9-1.4
			c-0.2-0.6-0.4-1.4-0.4-2.5c-0.1-1.1-0.1-2.1-0.2-3.2c0-1.1-0.1-2.6-0.1-4.7c-0.1-2.1-0.1-4-0.2-5.8c-1.1-0.1-1.9-0.3-2.5-0.6
			C550.4,169.4,550.2,168.1,550.2,166.3z"/>
		<path class="st1" d="M569.9,158.5c0-2.4,0.2-3.9,0.6-4.5c0.9-0.6,3-0.9,6.2-0.9c1,0,2,0,3.3,0.1s1.9,0.2,1.9,0.2
			c0.3,0.5,0.5,4.2,0.5,10.9c0,2.1,0,3.3-0.1,3.6c2.9-2.2,5.9-3.4,9-3.4c2.7,0,4.8,0.9,6.5,2.7s2.5,4.6,2.5,8.4
			c0,3.1-0.1,5.1-0.3,5.8c0.1,0,0.2,0.1,0.5,0.1c0.9,0,1.6,0,2.3,0.1c0.3,0.3,0.4,1.2,0.4,2.7c0,2.3-0.2,3.7-0.5,4.2
			c-2.4,0.4-4.6,0.6-6.6,0.6c-1.9,0-3.6-0.2-5.3-0.5c-0.2-0.2-0.5-0.7-0.8-1.7s-0.4-1.8-0.4-2.5c0-0.6,0.3-1.3,0.9-2.1
			c0.4-0.2,0.8-0.3,1.4-0.3c0.5,0,0.9,0.1,1.3,0.2c0-0.1,0-1,0-2.6s0-2.6,0-2.8c0-2-0.5-3.7-1.6-5.1c-1.1-1.4-2.5-2.1-4.3-2.1
			c-3.2,0-4.8,2.7-4.8,8.1c0,0.6,0,2.2,0.1,4.7c0.4-0.2,0.9-0.3,1.5-0.3s0.9,0.1,1.1,0.2c0.3,0,0.5,0.7,0.5,2c0,0.3,0,0.6,0,0.8
			l-0.2,1c-0.1,0.5-0.1,1.1-0.2,1.7c-2.4,0.9-5.6,1.3-9.5,1.3c-2.8,0-4.5-0.4-5.2-1.2c-0.3-0.3-0.4-0.9-0.4-1.5c0-2.8,1.3-4.2,4-4.2
			c0.7,0,1.3,0.1,1.9,0.2C576,175,576,168.5,576,163c0-1.9,0-3,0.1-3.2c-0.1,0-0.3,0-0.6,0s-0.5,0-0.7,0c-2.2,0-3.7-0.1-4.6-0.2
			C570,159.6,569.9,159.2,569.9,158.5z"/>
		<path class="st1" d="M606,179.2c0-2.3,0.3-4.6,1-6.8s1.8-4.1,3.3-5.6c1.5-1.6,3.3-2.4,5.4-2.4c0.9,0,1.8,0.2,2.5,0.5
			s1.3,0.7,1.7,1.2s0.7,0.9,1,1.4s0.4,0.9,0.5,1.2s0.2,0.5,0.2,0.5c0-1.8,0-2.9,0-3.5c0.7-0.6,1.3-0.9,2-1.1
			c0.7-0.2,1.7-0.3,2.9-0.3c1.1,0,2,0,2.8,0.1s1.5,0.1,1.9,0.2c0.4,0.1,0.8,0.2,1,0.3c0.3,0.1,0.4,0.2,0.5,0.2h0.1
			c0.1,0.3,0.2,1.2,0.2,2.7c0,1.6-0.1,2.5-0.2,2.8c-0.1,0.2-0.7,0.4-1.7,0.6c-1,0.2-1.9,0.3-2.7,0.3c-0.4,0-0.7,0-1.2-0.1
			c0.1,0.2,0.1,1,0.1,2.4c0,4.2-0.1,6.5-0.4,7c0.2-0.1,0.5-0.1,0.9-0.1c1.6,0,3.1,0.1,4.6,0.4c0.3,0.2,0.4,1.6,0.4,4.2
			c0,1.4-0.1,2.3-0.2,2.6c-0.2,0.3-1,0.7-2.3,1s-2.8,0.5-4.4,0.5c-2.8,0-4.5-0.1-5.1-0.2c-0.2-0.6-0.3-1.1-0.3-1.5
			c0-0.3,0-0.4,0.1-0.6c-0.4,0.1-1.5,0.6-3.3,1.4s-3.1,1.2-3.9,1.2c-2.5,0-4.3-1-5.6-3.1C606.6,184.7,606,182.2,606,179.2z M612,178
			c0,1.8,0.6,3.4,1.7,4.6c1.1,1.3,2.3,1.9,3.5,1.9c0.7,0,1.4-0.2,2.3-0.5s1.3-0.7,1.4-1c0.1-1.5,0.2-2.9,0.3-4.1
			c0.1-1.2,0.1-2.2,0.2-2.9c0-0.7,0.1-1.1,0.1-1.3v-0.6c0-0.7-0.4-1.3-1.3-2s-1.9-1-3-1c-1.6,0-2.8,0.7-3.7,2.2
			C612.5,174.8,612,176.3,612,178z"/>
		<path class="st1" d="M634.7,166.3c0-0.7,0.1-1.2,0.3-1.4c0.6-0.1,1.4-0.1,2.3-0.1h1.1v-9c1.6-0.1,2.7-0.2,3.1-0.2s1.4,0.1,2.9,0.2
			l0.5,9.1c3.6,0.2,5.6,0.4,6.1,0.7c0.5,0.8,0.7,2.1,0.7,3.9c0,0.7-0.1,1.2-0.3,1.4c-1,0.1-2.2,0.2-3.5,0.2c-0.4,0-1.1,0-1.9,0
			c-0.8,0-1.5,0-1.9,0c0,1.1,0,2.4,0,4s0,2.7,0,3.4c0,2.5,0.2,4,0.5,4.6s1.3,0.8,2.8,0.8c0.6,0,1.1,0,1.4-0.1l-0.3-1l4.4-1
			c0.3,0.9,0.5,2,0.5,3.3c0,2.1-0.2,3.4-0.6,3.9c-3.1,0.4-5.7,0.7-7.8,0.7c-2.7,0-4.4-0.4-5.3-1.1c-0.4-0.3-0.7-0.8-0.9-1.4
			c-0.2-0.6-0.4-1.4-0.4-2.5c-0.1-1.1-0.1-2.1-0.2-3.2c0-1.1-0.1-2.6-0.1-4.7c-0.1-2.1-0.1-4-0.2-5.8c-1.1-0.1-1.9-0.3-2.5-0.6
			C634.9,169.4,634.7,168.1,634.7,166.3z"/>
		<path class="st1" d="M665.7,177.8c0-1.6,0.3-3.1,1-4.6s1.7-2.9,2.9-4.2c1.3-1.3,2.9-2.3,5-3.1c2-0.8,4.3-1.2,6.7-1.2
			c0.8,0,1.4,0,1.8,0l0.4-1.2c1-0.2,1.9-0.3,2.8-0.3c1.8,0,3.5,0.5,5.1,1.6c0.2,1.5,0.3,2.7,0.3,3.5c0,2.4-0.5,3.7-1.4,4.1
			c-0.9,0.3-1.8,0.5-2.6,0.5c-1.5,0-3.4-0.3-5.7-0.9l0.3-1.8c-0.6-0.1-1.2-0.1-1.5-0.1c-2.3,0-4.4,0.6-6.1,1.9
			c-1.7,1.3-2.6,3.2-2.6,5.6c0,2.1,0.6,3.6,1.8,4.6s2.6,1.5,4.3,1.5c1,0,2.3-0.2,3.9-0.6l-0.1-1.8c1.6-1.1,3.6-1.6,5.9-1.6
			c0.6,0,1.4,0.1,2.3,0.2c1.2,1.5,1.8,3.2,1.8,5.2c0,0.8-0.1,2-0.3,3.7c-1.3,1.1-3.2,1.6-5.6,1.6c-0.6,0-1.4,0-2.2-0.1l-0.5-0.8
			c-0.9,0.1-1.8,0.1-2.7,0.1c-4.4,0-7.9-1.2-10.7-3.5C667.1,183.8,665.7,181,665.7,177.8z"/>
		<path class="st1" d="M695.1,179.2c0-2.3,0.3-4.6,1-6.8s1.8-4.1,3.3-5.6c1.5-1.6,3.3-2.4,5.4-2.4c0.9,0,1.8,0.2,2.5,0.5
			s1.3,0.7,1.7,1.2s0.7,0.9,1,1.4s0.4,0.9,0.5,1.2s0.2,0.5,0.2,0.5c0-1.8,0-2.9,0-3.5c0.7-0.6,1.3-0.9,2-1.1
			c0.7-0.2,1.7-0.3,2.9-0.3c1.1,0,2,0,2.8,0.1s1.5,0.1,1.9,0.2c0.4,0.1,0.8,0.2,1,0.3c0.3,0.1,0.4,0.2,0.5,0.2h0.1
			c0.1,0.3,0.2,1.2,0.2,2.7c0,1.6-0.1,2.5-0.2,2.8c-0.1,0.2-0.7,0.4-1.7,0.6c-1,0.2-1.9,0.3-2.7,0.3c-0.4,0-0.7,0-1.2-0.1
			c0.1,0.2,0.1,1,0.1,2.4c0,4.2-0.1,6.5-0.4,7c0.2-0.1,0.5-0.1,0.9-0.1c1.6,0,3.1,0.1,4.6,0.4c0.3,0.2,0.4,1.6,0.4,4.2
			c0,1.4-0.1,2.3-0.2,2.6c-0.2,0.3-1,0.7-2.3,1s-2.8,0.5-4.4,0.5c-2.8,0-4.5-0.1-5.1-0.2c-0.2-0.6-0.3-1.1-0.3-1.5
			c0-0.3,0-0.4,0.1-0.6c-0.4,0.1-1.5,0.6-3.3,1.4s-3.1,1.2-3.9,1.2c-2.5,0-4.3-1-5.6-3.1C695.7,184.7,695.1,182.2,695.1,179.2z
			 M701.1,178c0,1.8,0.6,3.4,1.7,4.6c1.1,1.3,2.3,1.9,3.5,1.9c0.7,0,1.4-0.2,2.3-0.5s1.3-0.7,1.4-1c0.1-1.5,0.2-2.9,0.3-4.1
			c0.1-1.2,0.1-2.2,0.2-2.9c0-0.7,0.1-1.1,0.1-1.3v-0.6c0-0.7-0.4-1.3-1.3-2s-1.9-1-3-1c-1.6,0-2.8,0.7-3.7,2.2
			C701.5,174.8,701.1,176.3,701.1,178z"/>
		<path class="st1" d="M724.8,185.8c0-2,0.4-3.2,1.3-3.7c0.8-0.3,1.9-0.4,3.3-0.4c0.2,0,0.5,0,0.8,0.1c0-0.9,0-2.4-0.1-4.4
			s-0.1-3.6-0.1-4.6c-0.1,0-0.7,0-1.6,0.1c-0.9,0.1-1.5,0.1-1.7,0.1c-0.1,0-0.3,0-0.6-0.1s-0.5-0.1-0.6-0.1
			c-0.1-0.1-0.2-0.5-0.2-1.1c0-0.9,0.1-2,0.4-3.3c0.3-1.3,0.5-2.1,0.7-2.4c0.9-0.6,2.6-0.9,5.1-0.9c1.9,0,3.2,0.1,3.8,0.3
			s0.9,0.7,0.9,1.5c0,1-0.1,1.9-0.2,2.9c3-3.5,6.3-5.2,9.8-5.2c5.5,0,8.3,3.9,8.3,11.7c0,1.5-0.1,3.1-0.3,4.5c0-0.1,0.1-0.1,0.4-0.1
			c0.5,0,1.2,0.1,2.3,0.2c0.3,0.3,0.4,1.4,0.4,3.1c0,2.2-0.2,3.6-0.5,4.1c-2.4,0.6-4.5,1-6.3,1c-1.2,0-2.7-0.3-4.3-0.9
			c-0.2-0.2-0.5-0.7-0.7-1.7c-0.3-1-0.4-1.8-0.4-2.5c0-1.1,0.3-2,0.9-2.7c0.3-0.2,0.8-0.3,1.4-0.3c0.4,0,0.9,0.1,1.3,0.2
			c0-0.1,0-0.5,0-1.2s0-1.2,0-1.4c0-2-0.6-3.8-1.7-5.3c-1.1-1.5-2.5-2.3-4.2-2.3c-1.4,0-2.8,0.6-4,1.8s-1.8,3-1.8,5.5
			c0,0.9,0,2,0.1,3.5c0.4-0.2,0.9-0.3,1.5-0.3s0.9,0.1,1.1,0.2c0.3,0,0.5,0.6,0.5,1.9c0,0.3-0.2,1.6-0.5,3.9
			c-2.3,1.1-5.2,1.7-8.7,1.7c-3,0-4.8-0.4-5.5-1.3C724.9,187.5,724.8,186.8,724.8,185.8z"/>
		<path class="st1" d="M768.5,156.3c0-1.5,0.1-2.4,0.2-2.7l0,0c0.1-0.1,0.2-0.1,0.4-0.2c0.2-0.1,0.4-0.2,0.7-0.3s0.7-0.2,1.3-0.2
			s1.2-0.1,2-0.1c3.8,0,6.2,0.5,7.3,1.5c0.2,0.3,0.2,2.1,0.2,5.3c0,1.3,0,2.6-0.1,3.8c0,1.2-0.1,1.8-0.1,1.9
			c1.4-0.4,2.6-0.6,3.8-0.6c3.2,0,5.8,1.3,7.7,3.8s2.9,5.4,2.9,8.6c0,1.9-0.3,3.7-0.9,5.6c-0.6,1.9-1.6,3.5-3,4.9
			c-1.3,1.4-2.9,2.1-4.6,2.1c-1.1,0-2.4-0.4-3.9-1.2s-2.6-1.3-3.1-1.4c0,0,0,0.2,0,0.4c0,0.5-0.1,1-0.2,1.6
			c-0.6,0.1-2.5,0.2-5.6,0.2c-2.8,0-4.6-0.5-5.2-1.5c-0.1-0.4-0.1-1.2-0.1-2.6c0-2.6,0.1-4,0.4-4.2c0.5-0.3,1.7-0.5,3.6-0.5
			c0.9,0,1.4,0.1,1.6,0.2c0-1.2,0-3,0-5.4c0-1.5,0-3,0-4.7s0.1-3.5,0.1-5.6c0.1-2,0.1-3.7,0.1-5c-0.1,0-0.4,0-0.9,0
			c-2.1,0-3.6-0.3-4.5-0.9C768.6,158.7,768.5,157.8,768.5,156.3z M780,181.4c0,0.3,0.5,0.7,1.4,1.1c0.9,0.5,1.8,0.7,2.6,0.7
			c1.3,0,2.4-0.6,3.4-1.9c1-1.2,1.5-2.9,1.5-4.9c0-1.6-0.3-3.1-1-4.6s-1.8-2.3-3.3-2.4c-1.2,0-2.1,0.3-3,0.8
			c-0.8,0.6-1.2,1.1-1.3,1.8c0,0.4-0.1,1-0.1,1.8s0,1.9-0.1,3.3C780.1,178.6,780,180,780,181.4z"/>
		<path class="st1" d="M798.4,179.1c0-3.6,1.3-6.9,3.9-9.9c2.6-3,5.5-4.5,8.8-4.5c2,0,3.7,0.6,5.1,1.8c1.4,1.2,2.1,2.8,2.1,4.7
			c0,2.3-0.9,4.2-2.8,5.8s-4.3,2.4-7.4,2.4c-1.8,0-3-0.3-3.7-0.8c0,1.5,0.6,2.8,1.6,3.7s2.3,1.4,3.6,1.4c1.8,0,3.2-0.7,4.3-2.1
			c0-0.3,0-0.5,0.1-0.8c1.4-1.2,2.9-1.7,4.6-1.7c0.3,0,0.6,0,0.7,0c2.1,1.2,3.4,3,3.9,5.7c0,0.3-0.2,0.5-0.4,0.8s-0.4,0.5-0.6,0.7
			c-0.2,0.2-0.5,0.4-1,0.7c-0.4,0.3-0.7,0.5-1,0.6c-0.2,0.1-0.6,0.3-1.1,0.6s-0.7,0.4-0.8,0.4c-0.2,0-0.4,0-0.5-0.1
			s-0.2-0.1-0.4-0.2c-0.1-0.1-0.2-0.2-0.2-0.2s-0.1-0.2-0.2-0.4c-0.1-0.2-0.2-0.3-0.2-0.4c-2.4,1.6-4.9,2.4-7.6,2.4
			c-3,0-5.7-1-7.8-2.9C799.5,184.9,798.4,182.3,798.4,179.1z M805.9,173.5c0,1,0.8,1.6,2.3,1.6c1.1,0,2.2-0.3,3.3-0.8
			c1-0.5,1.6-1.2,1.6-2c0-0.5-0.2-1.1-0.5-1.7s-0.9-0.9-1.7-0.9c-1,0-2,0.4-3.2,1.2C806.5,171.7,805.9,172.5,805.9,173.5z"/>
		<path class="st1" d="M834.9,186.4c0-2,0.4-3.2,1.3-3.7c0.8-0.3,1.9-0.4,3.3-0.4c0.2,0,0.5,0,0.8,0.1c0-1,0-2.6-0.1-4.7
			c-0.1-2.2-0.1-3.8-0.1-4.9c-0.1,0-0.7,0-1.6,0.1c-0.9,0.1-1.5,0.1-1.7,0.1c-0.1,0-0.3,0-0.6-0.1s-0.5-0.1-0.6-0.1
			c-0.1-0.1-0.2-0.5-0.2-1.1c0-0.9,0.1-2,0.4-3.3c0.3-1.3,0.5-2.1,0.7-2.4c1-0.6,2.8-0.9,5.5-0.9c1.7,0,2.8,0.1,3.4,0.3
			c0.6,0.2,0.9,0.7,0.9,1.5c0,1-0.1,1.9-0.2,2.9c3-3.5,6.2-5.2,9.5-5.2c1.7,0,3.3,0.4,4.7,1.2s2.5,2,3.3,3.5v-0.2
			c2.9-3,5.9-4.5,9.1-4.5c5.5,0,8.3,4,8.3,11.9c0,1.6-0.1,3.2-0.3,4.9c0-0.1,0.1-0.1,0.4-0.1c0.5,0,1.2,0.1,2.3,0.2
			c0.3,0.3,0.4,1.4,0.4,3.1c0,2.2-0.2,3.6-0.5,4.1c-2.4,0.2-4.5,0.3-6.2,0.3c-1.3,0-2.7-0.1-4.3-0.2c-0.2-0.2-0.5-0.7-0.7-1.7
			c-0.3-1-0.4-1.8-0.4-2.5c0-1.1,0.3-2,0.9-2.7c0.4-0.2,0.8-0.3,1.4-0.3c0.5,0,0.9,0.1,1.3,0.2c0-0.1,0-0.5,0-1.3s0-1.3,0-1.5
			c0-2.2-0.6-4.1-1.7-5.7c-1.1-1.6-2.5-2.3-3.9-2.3c-0.9,0-1.8,0.3-2.7,0.8c-1,0.6-1.7,1.3-2.2,2.2c0,0.2,0,0.6,0,1.2
			c0,2.5-0.1,4.5-0.3,6.2h0.1h0.1c0.9,0,1.7,0.1,2.5,0.2c0.2,0.3,0.4,1.4,0.4,3.1c0,2.2,0,3.6,0.1,4.1c-2.5,0.2-4.9,0.3-7.1,0.3
			c-1.6,0-3.3-0.1-5-0.2c-0.1-0.2-0.2-0.7-0.3-1.7s-0.2-1.8-0.2-2.5c0-1.1,0.2-2,0.7-2.7c0.3-0.2,0.7-0.3,1.2-0.3
			c0.7,0,1.2,0.1,1.5,0.2c0-0.1,0-0.5,0-1.3s0-1.3,0-1.5c0-2.1-0.6-4-1.7-5.6c-1.1-1.6-2.5-2.4-4.2-2.4c-1.4,0-2.8,0.6-4,1.9
			c-1.2,1.2-1.8,3.2-1.8,5.8c0,0.9,0,2.2,0.1,3.7c0.4-0.2,0.9-0.3,1.5-0.3s0.9,0.1,1.1,0.2c0.3,0,0.5,0.6,0.5,1.9
			c0,0.3-0.2,1.6-0.5,3.9c-2.3,0.7-5.2,1.1-8.8,1.1c-2.8,0-4.6-0.4-5.4-1.1C835.1,187.8,834.9,187.2,834.9,186.4z"/>
		<path class="st1" d="M885.9,185.1c0-1.7,0.1-2.6,0.3-2.8c0.4-0.2,0.8-0.4,1.4-0.4c0.4-0.1,1.2-0.1,2.5-0.1c-0.2-2-0.3-4.2-0.3-6.5
			c0-2.6,0.2-4.2,0.5-4.9c-1.6,0-2.6-0.1-3.1-0.2c0-0.9,0.1-1.8,0.3-2.7c0.1-0.4,0.3-1.2,0.6-2.4c1.2-0.2,3.2-0.3,6-0.3
			c0.9,0,1.8,0.1,2.6,0.2c0.8,0.1,1.4,0.3,1.8,0.5c0.4,0.2,0.6,0.3,0.6,0.5c0.1,0,0.1,0.6,0.1,1.7c0,1.8-0.1,3-0.2,3.4
			c-0.1,0.2-0.2,0.3-0.5,0.3c-1.2,0-1.9-0.1-2.2-0.2c-0.3,2.2-0.5,5.1-0.5,8.7c0,1.5,0,2.2,0.1,2.3c0.2,0,0.5,0,0.8,0
			c1.2,0,2.1,0.2,2.8,0.5c0.1,0.1,0.2,0.4,0.2,0.9c0,0.8-0.1,1.8-0.3,2.9c-0.2,1.1-0.5,1.9-1,2.4c-0.4,0.4-1.6,0.6-3.8,0.6
			c-5,0-7.8-0.5-8.3-1.4C886,187.3,885.9,186.4,885.9,185.1z M889.7,155.3c0-0.9,0.5-1.3,1.5-1.3c0.8,0,1.7,0.2,2.6,0.7
			c0.7-0.7,1.6-1,2.7-1c0.7,0,1.3,0.2,1.8,0.7s0.8,1.1,0.8,2c0,0.4-0.1,0.8-0.3,1.2s-0.4,0.7-0.5,1c-0.2,0.3-0.5,0.6-0.9,0.9
			s-0.8,0.6-1,0.7c-0.2,0.1-0.7,0.4-1.3,0.7s-1,0.6-1.1,0.6c-1.3-0.9-2.3-2-3.1-3.1C890.1,157.1,889.7,156.1,889.7,155.3z"/>
		<path class="st1" d="M903.2,185.8c0-2,0.4-3.2,1.3-3.7c0.8-0.3,1.9-0.4,3.3-0.4c0.2,0,0.5,0,0.8,0.1c0-0.9,0-2.4-0.1-4.4
			s-0.1-3.6-0.1-4.6c-0.1,0-0.7,0-1.6,0.1c-0.9,0.1-1.5,0.1-1.7,0.1c-0.1,0-0.3,0-0.6-0.1s-0.5-0.1-0.6-0.1
			c-0.1-0.1-0.2-0.5-0.2-1.1c0-0.9,0.1-2,0.4-3.3c0.3-1.3,0.5-2.1,0.7-2.4c0.9-0.6,2.6-0.9,5.1-0.9c1.9,0,3.2,0.1,3.8,0.3
			s0.9,0.7,0.9,1.5c0,1-0.1,1.9-0.2,2.9c3-3.5,6.3-5.2,9.8-5.2c5.5,0,8.3,3.9,8.3,11.7c0,1.5-0.1,3.1-0.3,4.5c0-0.1,0.1-0.1,0.4-0.1
			c0.5,0,1.2,0.1,2.3,0.2c0.3,0.3,0.4,1.4,0.4,3.1c0,2.2-0.2,3.6-0.5,4.1c-2.4,0.6-4.5,1-6.3,1c-1.2,0-2.7-0.3-4.3-0.9
			c-0.2-0.2-0.5-0.7-0.7-1.7c-0.3-1-0.4-1.8-0.4-2.5c0-1.1,0.3-2,0.9-2.7c0.3-0.2,0.8-0.3,1.4-0.3c0.4,0,0.9,0.1,1.3,0.2
			c0-0.1,0-0.5,0-1.2s0-1.2,0-1.4c0-2-0.6-3.8-1.7-5.3c-1.1-1.5-2.5-2.3-4.2-2.3c-1.4,0-2.8,0.6-4,1.8s-1.8,3-1.8,5.5
			c0,0.9,0,2,0.1,3.5c0.4-0.2,0.9-0.3,1.5-0.3s0.9,0.1,1.1,0.2c0.3,0,0.5,0.6,0.5,1.9c0,0.3-0.2,1.6-0.5,3.9
			c-2.3,1.1-5.2,1.7-8.7,1.7c-3,0-4.8-0.4-5.5-1.3C903.3,187.5,903.2,186.8,903.2,185.8z"/>
		<path class="st1" d="M936.9,166.3c0-0.7,0.1-1.2,0.3-1.4c0.6-0.1,1.4-0.1,2.3-0.1h1.1v-9c1.6-0.1,2.7-0.2,3.1-0.2s1.4,0.1,2.9,0.2
			l0.5,9.1c3.6,0.2,5.6,0.4,6.1,0.7c0.5,0.8,0.7,2.1,0.7,3.9c0,0.7-0.1,1.2-0.3,1.4c-1,0.1-2.2,0.2-3.5,0.2c-0.4,0-1.1,0-1.9,0
			c-0.8,0-1.5,0-1.9,0c0,1.1,0,2.4,0,4s0,2.7,0,3.4c0,2.5,0.2,4,0.5,4.6s1.3,0.8,2.8,0.8c0.6,0,1.1,0,1.4-0.1l-0.3-1l4.4-1
			c0.3,0.9,0.5,2,0.5,3.3c0,2.1-0.2,3.4-0.6,3.9c-3.1,0.4-5.7,0.7-7.8,0.7c-2.7,0-4.4-0.4-5.3-1.1c-0.4-0.3-0.7-0.8-0.9-1.4
			c-0.2-0.6-0.4-1.4-0.4-2.5c-0.1-1.1-0.1-2.1-0.2-3.2c0-1.1-0.1-2.6-0.1-4.7c-0.1-2.1-0.1-4-0.2-5.8c-1.1-0.1-1.9-0.3-2.5-0.6
			C937.1,169.4,936.9,168.1,936.9,166.3z"/>
		<path class="st1" d="M958.1,179.1c0-3.6,1.3-6.9,3.9-9.9c2.6-3,5.5-4.5,8.8-4.5c2,0,3.7,0.6,5.1,1.8c1.4,1.2,2.1,2.8,2.1,4.7
			c0,2.3-0.9,4.2-2.8,5.8s-4.3,2.4-7.4,2.4c-1.8,0-3-0.3-3.7-0.8c0,1.5,0.6,2.8,1.6,3.7s2.3,1.4,3.6,1.4c1.8,0,3.2-0.7,4.3-2.1
			c0-0.3,0-0.5,0.1-0.8c1.4-1.2,2.9-1.7,4.6-1.7c0.3,0,0.6,0,0.7,0c2.1,1.2,3.4,3,3.9,5.7c0,0.3-0.2,0.5-0.4,0.8s-0.4,0.5-0.6,0.7
			c-0.2,0.2-0.5,0.4-1,0.7c-0.4,0.3-0.7,0.5-1,0.6c-0.2,0.1-0.6,0.3-1.1,0.6s-0.7,0.4-0.8,0.4c-0.2,0-0.4,0-0.5-0.1
			s-0.2-0.1-0.4-0.2c-0.1-0.1-0.2-0.2-0.2-0.2s-0.1-0.2-0.2-0.4c-0.1-0.2-0.2-0.3-0.2-0.4c-2.4,1.6-4.9,2.4-7.6,2.4
			c-3,0-5.7-1-7.8-2.9C959.2,184.9,958.1,182.3,958.1,179.1z M965.7,173.5c0,1,0.8,1.6,2.3,1.6c1.1,0,2.2-0.3,3.3-0.8
			c1-0.5,1.6-1.2,1.6-2c0-0.5-0.2-1.1-0.5-1.7s-0.9-0.9-1.7-0.9c-1,0-2,0.4-3.2,1.2C966.2,171.7,965.7,172.5,965.7,173.5z"/>
		<path class="st1" d="M985.1,177c0-3.2,0.9-6.1,2.8-8.6c1.9-2.5,4.5-3.8,7.7-3.8c1.1,0,2.4,0.2,3.7,0.6c0-0.1,0-0.7-0.1-1.9
			c0-1.2-0.1-2.5-0.1-3.8c0-3.2,0.1-5,0.2-5.3c1.1-1,3.6-1.5,7.4-1.5c0.8,0,1.5,0,2.2,0.1s1.1,0.1,1.4,0.2c0.3,0.1,0.6,0.2,0.7,0.3
			c0.2,0.1,0.3,0.2,0.3,0.2h0.1c0.1,0.3,0.2,1.2,0.2,2.7c0,1.6-0.1,2.5-0.2,2.8c-1.1,0.6-2.7,0.9-5,0.9c-0.4,0-0.7,0-0.8,0
			c0,1.6,0,4.1,0.1,7.4c0.1,3.3,0.1,5.7,0.1,7.3c0,2,0,4-0.1,6c0.2-0.1,0.8-0.2,1.7-0.2c1.8,0,3,0.2,3.5,0.5
			c0.3,0.2,0.4,1.6,0.4,4.2c0,1.4,0,2.2-0.1,2.6c-0.8,1-2.7,1.5-5.7,1.5c-1.8,0-3.4-0.1-5-0.2c-0.2-0.6-0.2-1.1-0.2-1.6
			c0-0.2,0-0.4,0-0.4c-0.5,0.2-1.5,0.6-3.1,1.4s-2.9,1.2-3.9,1.2c-1.7,0-3.2-0.7-4.6-2.1s-2.3-3-2.9-4.9
			C985.4,180.7,985.1,178.8,985.1,177z M991.1,176.4c0,2,0.5,3.7,1.5,4.9s2.1,1.9,3.3,1.9c0.8,0,1.6-0.2,2.6-0.7
			c0.9-0.5,1.4-0.8,1.4-1.1c0-1.4-0.1-2.8-0.1-4.2s-0.1-2.5-0.1-3.3s0-1.4-0.1-1.8c0-0.6-0.4-1.2-1.3-1.8c-0.9-0.6-1.8-0.8-2.8-0.8
			c-1.1,0-2,0.4-2.7,1.3c-0.7,0.8-1.2,1.8-1.4,2.7C991.2,174.5,991.1,175.4,991.1,176.4z"/>
		<path class="st1" d="M187.8,230.8c0-3.9,1.2-7.3,3.6-10c2.4-2.8,5.4-4.1,9.2-4.1c1.7,0,3.2,0.3,4.5,0.9c1.3,0.6,2.2,1.5,2.9,2.6
			s1.2,2.3,1.5,3.6s0.5,2.7,0.5,4.3c0,4.4-1.1,7.8-3.4,10.1c-2.2,2.3-5.2,3.5-8.8,3.5c-1.9,0-3.6-0.3-5-1s-2.4-1.6-3.1-2.7
			c-0.7-1.1-1.2-2.3-1.5-3.4S187.8,232.1,187.8,230.8z M194.7,230.4c0,1.6,0.5,2.9,1.5,4.1c1,1.1,2.2,1.7,3.5,1.7
			c1.2,0,2.2-0.5,3.1-1.4c0.9-1,1.4-2,1.8-3.1s0.5-2.1,0.5-3c0-1.4-0.4-2.6-1.3-3.7c-0.9-1.1-1.9-1.6-3.2-1.6c-1.6,0-3,0.7-4.1,2.2
			C195.2,227.1,194.7,228.7,194.7,230.4z"/>
		<path class="st1" d="M213.1,237.8c0-2,0.4-3.2,1.3-3.7c0.8-0.3,1.9-0.4,3.3-0.4c0.2,0,0.5,0,0.8,0.1c0-0.9,0-2.4-0.1-4.4
			s-0.1-3.6-0.1-4.6c-0.1,0-0.7,0-1.6,0.1s-1.5,0.1-1.7,0.1c-0.1,0-0.3,0-0.6-0.1s-0.5-0.1-0.6-0.1c-0.1-0.1-0.2-0.5-0.2-1.1
			c0-0.9,0.1-2,0.4-3.3c0.3-1.3,0.5-2.1,0.7-2.4c0.9-0.6,2.6-0.9,5.1-0.9c1.9,0,3.2,0.1,3.8,0.3s0.9,0.7,0.9,1.5
			c0,1-0.1,1.9-0.2,2.9c3-3.5,6.3-5.2,9.8-5.2c5.5,0,8.3,3.9,8.3,11.7c0,1.5-0.1,3.1-0.3,4.5c0-0.1,0.1-0.1,0.4-0.1
			c0.5,0,1.2,0.1,2.3,0.2c0.3,0.3,0.4,1.4,0.4,3.1c0,2.2-0.2,3.6-0.5,4.1c-2.4,0.6-4.5,1-6.3,1c-1.2,0-2.7-0.3-4.3-0.9
			c-0.2-0.2-0.5-0.7-0.7-1.7c-0.3-1-0.4-1.8-0.4-2.5c0-1.1,0.3-2,0.9-2.7c0.3-0.2,0.8-0.3,1.4-0.3c0.4,0,0.9,0.1,1.3,0.2
			c0-0.1,0-0.5,0-1.2s0-1.2,0-1.4c0-2-0.6-3.8-1.7-5.3c-1.1-1.5-2.5-2.3-4.2-2.3c-1.4,0-2.8,0.6-4,1.8s-1.8,3-1.8,5.5
			c0,0.9,0,2,0.1,3.5c0.4-0.2,0.9-0.3,1.5-0.3s0.9,0.1,1.1,0.2c0.3,0,0.5,0.6,0.5,1.9c0,0.3-0.2,1.6-0.5,3.9
			c-2.3,1.1-5.2,1.7-8.7,1.7c-3,0-4.8-0.4-5.5-1.3C213.2,239.5,213.1,238.8,213.1,237.8z"/>
		<path class="st1" d="M256.5,218.3c0-0.7,0.1-1.2,0.3-1.4c0.6-0.1,1.4-0.1,2.3-0.1h1.1v-9c1.6-0.1,2.7-0.2,3.1-0.2s1.4,0.1,2.9,0.2
			l0.5,9.1c3.6,0.2,5.6,0.4,6.1,0.7c0.5,0.8,0.7,2.1,0.7,3.9c0,0.7-0.1,1.2-0.3,1.4c-1,0.1-2.2,0.2-3.5,0.2c-0.4,0-1.1,0-1.9,0
			s-1.5,0-1.9,0c0,1.1,0,2.4,0,4s0,2.7,0,3.4c0,2.5,0.2,4,0.5,4.6s1.3,0.8,2.8,0.8c0.6,0,1.1,0,1.4-0.1l-0.3-1l4.4-1
			c0.3,0.9,0.5,2,0.5,3.3c0,2.1-0.2,3.4-0.6,3.9c-3.1,0.4-5.7,0.7-7.8,0.7c-2.7,0-4.4-0.4-5.3-1.1c-0.4-0.3-0.7-0.8-0.9-1.4
			c-0.2-0.6-0.4-1.4-0.4-2.5c-0.1-1.1-0.1-2.1-0.2-3.2c0-1.1-0.1-2.6-0.1-4.7c-0.1-2.1-0.1-4-0.2-5.8c-1.1-0.1-1.9-0.3-2.5-0.6
			C256.8,221.4,256.5,220.1,256.5,218.3z"/>
		<path class="st1" d="M276.3,210.5c0-2.4,0.2-3.9,0.6-4.5c0.9-0.6,3-0.9,6.2-0.9c1,0,2,0,3.3,0.1c1.2,0.1,1.9,0.2,1.9,0.2
			c0.3,0.5,0.5,4.2,0.5,10.9c0,2.1,0,3.3-0.1,3.6c2.9-2.2,5.9-3.4,9-3.4c2.7,0,4.8,0.9,6.5,2.7s2.5,4.6,2.5,8.4
			c0,3.1-0.1,5.1-0.3,5.8c0.1,0,0.2,0.1,0.5,0.1c0.9,0,1.6,0,2.3,0.1c0.3,0.3,0.4,1.2,0.4,2.7c0,2.3-0.2,3.7-0.5,4.2
			c-2.4,0.4-4.6,0.6-6.6,0.6c-1.9,0-3.6-0.2-5.3-0.5c-0.2-0.2-0.5-0.7-0.8-1.7s-0.4-1.8-0.4-2.5c0-0.6,0.3-1.3,0.9-2.1
			c0.4-0.2,0.8-0.3,1.4-0.3c0.5,0,0.9,0.1,1.3,0.2c0-0.1,0-1,0-2.6s0-2.6,0-2.8c0-2-0.5-3.7-1.6-5.1c-1.1-1.4-2.5-2.1-4.3-2.1
			c-3.2,0-4.8,2.7-4.8,8.1c0,0.6,0,2.2,0.1,4.7c0.4-0.2,0.9-0.3,1.5-0.3s0.9,0.1,1.1,0.2c0.3,0,0.5,0.7,0.5,2c0,0.3,0,0.6,0,0.8
			l-0.2,1c-0.1,0.5-0.1,1.1-0.2,1.7c-2.4,0.9-5.6,1.3-9.5,1.3c-2.8,0-4.5-0.4-5.2-1.2c-0.3-0.3-0.4-0.9-0.4-1.5c0-2.8,1.3-4.2,4-4.2
			c0.7,0,1.3,0.1,1.9,0.2c-0.2-7.4-0.2-13.9-0.2-19.4c0-1.9,0-3,0.1-3.2c-0.1,0-0.3,0-0.6,0c-0.3,0-0.5,0-0.7,0
			c-2.2,0-3.7-0.1-4.6-0.2C276.3,211.6,276.3,211.2,276.3,210.5z"/>
		<path class="st1" d="M312.2,231.1c0-3.6,1.3-6.9,3.9-9.9s5.5-4.5,8.8-4.5c2,0,3.7,0.6,5.1,1.8s2.1,2.8,2.1,4.7
			c0,2.3-0.9,4.2-2.8,5.8s-4.3,2.4-7.4,2.4c-1.8,0-3-0.3-3.7-0.8c0,1.5,0.6,2.8,1.6,3.7s2.3,1.4,3.6,1.4c1.8,0,3.2-0.7,4.3-2.1
			c0-0.3,0-0.5,0.1-0.8c1.4-1.2,2.9-1.7,4.6-1.7c0.3,0,0.6,0,0.7,0c2.1,1.2,3.4,3,3.9,5.7c0,0.3-0.2,0.5-0.4,0.8
			c-0.2,0.3-0.4,0.5-0.6,0.7s-0.5,0.4-1,0.7c-0.4,0.3-0.7,0.5-1,0.6c-0.2,0.1-0.6,0.3-1.1,0.6s-0.7,0.4-0.8,0.4
			c-0.2,0-0.4,0-0.5-0.1c-0.1,0-0.2-0.1-0.4-0.2c-0.1-0.1-0.2-0.2-0.2-0.2s-0.1-0.2-0.2-0.4s-0.2-0.3-0.2-0.4
			c-2.4,1.6-4.9,2.4-7.6,2.4c-3,0-5.7-1-7.8-2.9C313.3,236.9,312.2,234.3,312.2,231.1z M319.7,225.5c0,1,0.8,1.6,2.3,1.6
			c1.1,0,2.2-0.3,3.3-0.8c1-0.5,1.6-1.2,1.6-2c0-0.5-0.2-1.1-0.5-1.7c-0.4-0.6-0.9-0.9-1.7-0.9c-1,0-2,0.4-3.2,1.2
			C320.3,223.7,319.7,224.5,319.7,225.5z"/>
		<path class="st1" d="M349.2,236.2c0-0.5,0.3-1.3,0.8-2.5c0.6-0.3,1.3-0.4,2.1-0.4c0.3,0,0.6,0,0.8,0.1c-0.3-2.9-0.5-5.8-0.5-8.8
			c0-4.3,0.3-7.8,0.9-10.6c-0.7,0.2-1.3,0.2-1.8,0.2c-0.6,0-1-0.1-1.3-0.3c-0.4-0.6-0.7-1.6-0.7-3c0-0.8,0.3-1.7,0.9-2.5
			c1-0.5,2.9-0.9,5.5-1.1s5.2-0.4,7.7-0.4c5.9,0,10.6,0.6,14.2,1.8c0.3,1.6,0.5,2.8,0.5,3.7c0,1.5-0.4,2.7-1.1,3.7
			c-0.8,0.2-1.5,0.3-2.1,0.3c-1,0-2.3-0.5-3.9-1.6l0.1-1.6c-0.6-0.4-2.3-0.6-5-0.6c-1,0-2.2,0-3.7,0.1s-2.3,0.2-2.3,0.3
			c0.1,1.2,0.2,2,0.2,2.5c0,2.8-0.2,4.6-0.6,5.7c3.1,0,4.7,0,4.8-0.1c0-0.1,0-0.2,0-0.4c0-0.3,0.2-0.7,0.5-1.2
			c0.2-0.1,0.8-0.2,1.7-0.2c1.4,0,2.4,0.1,3,0.3c0.7,1,1,2.5,1,4.5c0,1.8-0.4,3.1-1.1,3.8c-0.3,0.2-1.1,0.3-2.4,0.3
			s-2.1-0.1-2.3-0.3c-0.3-0.4-0.5-0.9-0.5-1.4l-4.9,0.2c0,1.9-0.2,4.5-0.5,7.9c0.5,0.4,1.6,0.8,3.1,1c1.6,0.2,2.9,0.4,3.9,0.4
			c0.8,0,1.7-0.1,2.9-0.3c1.1-0.2,1.9-0.4,2.3-0.6l-0.1-1.6c1.6-1.1,2.9-1.6,4-1.6c0.6,0,1.2,0.1,2,0.3c0.7,1,1.1,2.2,1.1,3.7
			c0,0.9-0.2,2.1-0.5,3.7c-2.4,1.4-6.8,2.1-13.1,2.1c-3.1,0-6-0.2-8.8-0.5s-4.7-0.8-5.9-1.3c-0.4-0.5-0.6-1-0.8-1.4
			C349.3,238.1,349.2,237.3,349.2,236.2z"/>
		<path class="st1" d="M380.8,218.3c0-0.7,0.1-1.2,0.3-1.4c0.6-0.1,1.4-0.1,2.3-0.1h1.1v-9c1.6-0.1,2.7-0.2,3.1-0.2s1.4,0.1,2.9,0.2
			l0.5,9.1c3.6,0.2,5.6,0.4,6.1,0.7c0.5,0.8,0.7,2.1,0.7,3.9c0,0.7-0.1,1.2-0.3,1.4c-1,0.1-2.2,0.2-3.5,0.2c-0.4,0-1.1,0-1.9,0
			s-1.5,0-1.9,0c0,1.1,0,2.4,0,4s0,2.7,0,3.4c0,2.5,0.2,4,0.5,4.6s1.3,0.8,2.8,0.8c0.6,0,1.1,0,1.4-0.1l-0.3-1l4.4-1
			c0.3,0.9,0.5,2,0.5,3.3c0,2.1-0.2,3.4-0.6,3.9c-3.1,0.4-5.7,0.7-7.8,0.7c-2.7,0-4.4-0.4-5.3-1.1c-0.4-0.3-0.7-0.8-0.9-1.4
			c-0.2-0.6-0.4-1.4-0.4-2.5c-0.1-1.1-0.1-2.1-0.2-3.2c0-1.1-0.1-2.6-0.1-4.7c-0.1-2.1-0.1-4-0.2-5.8c-1.1-0.1-1.9-0.3-2.5-0.6
			C381.1,221.4,380.8,220.1,380.8,218.3z"/>
		<path class="st1" d="M400.5,210.5c0-2.4,0.2-3.9,0.6-4.5c0.9-0.6,3-0.9,6.2-0.9c1,0,2,0,3.3,0.1c1.2,0.1,1.9,0.2,1.9,0.2
			c0.3,0.5,0.5,4.2,0.5,10.9c0,2.1,0,3.3-0.1,3.6c2.9-2.2,5.9-3.4,9-3.4c2.7,0,4.8,0.9,6.5,2.7s2.5,4.6,2.5,8.4
			c0,3.1-0.1,5.1-0.3,5.8c0.1,0,0.2,0.1,0.5,0.1c0.9,0,1.6,0,2.3,0.1c0.3,0.3,0.4,1.2,0.4,2.7c0,2.3-0.2,3.7-0.5,4.2
			c-2.4,0.4-4.6,0.6-6.6,0.6c-1.9,0-3.6-0.2-5.3-0.5c-0.2-0.2-0.5-0.7-0.8-1.7s-0.4-1.8-0.4-2.5c0-0.6,0.3-1.3,0.9-2.1
			c0.4-0.2,0.8-0.3,1.4-0.3c0.5,0,0.9,0.1,1.3,0.2c0-0.1,0-1,0-2.6s0-2.6,0-2.8c0-2-0.5-3.7-1.6-5.1c-1.1-1.4-2.5-2.1-4.3-2.1
			c-3.2,0-4.8,2.7-4.8,8.1c0,0.6,0,2.2,0.1,4.7c0.4-0.2,0.9-0.3,1.5-0.3s0.9,0.1,1.1,0.2c0.3,0,0.5,0.7,0.5,2c0,0.3,0,0.6,0,0.8
			l-0.2,1c-0.1,0.5-0.1,1.1-0.2,1.7c-2.4,0.9-5.6,1.3-9.5,1.3c-2.8,0-4.5-0.4-5.2-1.2c-0.3-0.3-0.4-0.9-0.4-1.5c0-2.8,1.3-4.2,4-4.2
			c0.7,0,1.3,0.1,1.9,0.2c-0.2-7.4-0.2-13.9-0.2-19.4c0-1.9,0-3,0.1-3.2c-0.1,0-0.3,0-0.6,0c-0.3,0-0.5,0-0.7,0
			c-2.2,0-3.7-0.1-4.6-0.2C400.6,211.6,400.5,211.2,400.5,210.5z"/>
		<path class="st1" d="M436.5,231.1c0-3.6,1.3-6.9,3.9-9.9s5.5-4.5,8.8-4.5c2,0,3.7,0.6,5.1,1.8s2.1,2.8,2.1,4.7
			c0,2.3-0.9,4.2-2.8,5.8s-4.3,2.4-7.4,2.4c-1.8,0-3-0.3-3.7-0.8c0,1.5,0.6,2.8,1.6,3.7s2.3,1.4,3.6,1.4c1.8,0,3.2-0.7,4.3-2.1
			c0-0.3,0-0.5,0.1-0.8c1.4-1.2,2.9-1.7,4.6-1.7c0.3,0,0.6,0,0.7,0c2.1,1.2,3.4,3,3.9,5.7c0,0.3-0.2,0.5-0.4,0.8
			c-0.2,0.3-0.4,0.5-0.6,0.7s-0.5,0.4-1,0.7c-0.4,0.3-0.7,0.5-1,0.6c-0.2,0.1-0.6,0.3-1.1,0.6s-0.7,0.4-0.8,0.4
			c-0.2,0-0.4,0-0.5-0.1c-0.1,0-0.2-0.1-0.4-0.2c-0.1-0.1-0.2-0.2-0.2-0.2s-0.1-0.2-0.2-0.4s-0.2-0.3-0.2-0.4
			c-2.4,1.6-4.9,2.4-7.6,2.4c-3,0-5.7-1-7.8-2.9C437.6,236.9,436.5,234.3,436.5,231.1z M444,225.5c0,1,0.8,1.6,2.3,1.6
			c1.1,0,2.2-0.3,3.3-0.8c1-0.5,1.6-1.2,1.6-2c0-0.5-0.2-1.1-0.5-1.7c-0.4-0.6-0.9-0.9-1.7-0.9c-1,0-2,0.4-3.2,1.2
			C444.6,223.7,444,224.5,444,225.5z"/>
		<path class="st1" d="M463.7,220.2c0-1.3,0.1-2.3,0.3-2.8c1.8-0.5,3.6-0.8,5.4-0.8c2.1,0,3.7,0.4,4.8,1.3c0,0.5,0,1.4,0,2.5
			l0.2-0.4c0.1-0.3,0.3-0.6,0.6-0.9c0.3-0.4,0.6-0.7,1-1.1c0.4-0.4,0.9-0.7,1.6-0.9c0.7-0.3,1.5-0.4,2.4-0.4c2.4,0,4.5,1,6.2,3.1
			c-0.2,1.3-0.8,2.4-1.7,3.1c-0.9,0.7-1.8,1.1-2.7,1.2c-1.2-0.7-2.3-1-3.4-1c-3.1,0-4.7,2-4.7,6c0,1.4,0.1,3,0.4,4.7
			c0.1-0.2,0.5-0.2,1.3-0.2c1,0,1.6,0.1,1.8,0.3c0.4,0.6,0.6,1.6,0.6,2.9c0,2-0.4,3.4-1.1,4c-1.6,0.3-3.6,0.5-5.9,0.5
			c-3.8,0-6-0.3-6.6-1c-0.1-0.4-0.1-1.3-0.1-2.9c0-2.2,0.1-3.4,0.3-3.5c0.2-0.3,0.8-0.4,1.9-0.4c0.7,0,1.3,0.1,1.6,0.3
			c-0.3-0.8-0.4-3.3-0.4-7.7c0-1.5,0-2.3,0.1-2.5c-0.4,0.1-0.7,0.1-1.1,0.1c-1.2,0-2-0.2-2.4-0.6
			C463.8,222.3,463.7,221.5,463.7,220.2z"/>
		<path class="st1" d="M486.8,231.1c0-3.6,1.3-6.9,3.9-9.9s5.5-4.5,8.8-4.5c2,0,3.7,0.6,5.1,1.8s2.1,2.8,2.1,4.7
			c0,2.3-0.9,4.2-2.8,5.8s-4.3,2.4-7.4,2.4c-1.8,0-3-0.3-3.7-0.8c0,1.5,0.6,2.8,1.6,3.7s2.3,1.4,3.6,1.4c1.8,0,3.2-0.7,4.3-2.1
			c0-0.3,0-0.5,0.1-0.8c1.4-1.2,2.9-1.7,4.6-1.7c0.3,0,0.6,0,0.7,0c2.1,1.2,3.4,3,3.9,5.7c0,0.3-0.2,0.5-0.4,0.8
			c-0.2,0.3-0.4,0.5-0.6,0.7s-0.5,0.4-1,0.7c-0.4,0.3-0.7,0.5-1,0.6c-0.2,0.1-0.6,0.3-1.1,0.6s-0.7,0.4-0.8,0.4
			c-0.2,0-0.4,0-0.5-0.1c-0.1,0-0.2-0.1-0.4-0.2c-0.1-0.1-0.2-0.2-0.2-0.2s-0.1-0.2-0.2-0.4s-0.2-0.3-0.2-0.4
			c-2.4,1.6-4.9,2.4-7.6,2.4c-3,0-5.7-1-7.8-2.9C487.9,236.9,486.8,234.3,486.8,231.1z M494.3,225.5c0,1,0.8,1.6,2.3,1.6
			c1.1,0,2.2-0.3,3.3-0.8c1-0.5,1.6-1.2,1.6-2c0-0.5-0.2-1.1-0.5-1.7c-0.4-0.6-0.9-0.9-1.7-0.9c-1,0-2,0.4-3.2,1.2
			C494.9,223.7,494.3,224.5,494.3,225.5z"/>
		<path class="st1" d="M513.1,222.2c0-2.2,0.2-3.6,0.5-4.1c2.4-0.6,4.4-0.9,6.2-0.9c1.3,0,2.7,0.3,4.4,0.8c0.2,0.2,0.3,0.7,0.5,1.7
			s0.3,1.8,0.3,2.6c0,1.1-0.3,2-0.8,2.8c-0.3,0.2-0.8,0.3-1.3,0.3c-0.4,0-0.8-0.1-1.2-0.2c0,0.1,0,0.5,0,1.2s0,1.2,0,1.4
			c0,2,0.5,3.8,1.6,5.3s2.5,2.3,4.1,2.3c1.4,0,2.8-0.6,3.9-1.8c1.2-1.2,1.8-3,1.8-5.5c0-0.9,0-2-0.1-3.5c-0.4,0.2-0.9,0.3-1.5,0.3
			s-0.9-0.1-1.1-0.2c-0.3,0-0.5-0.6-0.5-1.9c0-0.3,0.2-1.6,0.5-4c2.3-1.1,5.2-1.6,8.8-1.6c2.8,0,4.6,0.5,5.4,1.4
			c0.3,0.4,0.4,1,0.4,2c0,2-0.4,3.3-1.3,3.8c-1.2,0.3-2.2,0.4-2.9,0.4c-0.5,0-0.8,0-1.2-0.1c0,0.9,0,2.4,0.1,4.4s0.1,3.6,0.1,4.6
			c0.1,0,0.7,0,1.6-0.1c0.9-0.1,1.5-0.1,1.7-0.1c0.1,0,0.3,0,0.6,0.1s0.5,0.1,0.6,0.1c0.1,0.1,0.2,0.5,0.2,1.1c0,0.9-0.1,2-0.4,3.3
			c-0.3,1.3-0.5,2.1-0.7,2.4c-1,0.6-2.8,0.9-5.5,0.9c-1.7,0-2.8-0.1-3.4-0.3c-0.6-0.2-0.9-0.7-0.9-1.5c0-1,0.1-1.9,0.2-2.9
			c-3,3.5-6.2,5.2-9.7,5.2c-5.7,0-8.5-3.9-8.5-11.7c0-1.5,0.1-3,0.3-4.5c0,0-0.2,0-0.4,0c-0.4,0-1.1-0.1-2-0.2
			C513.3,225,513.1,223.9,513.1,222.2z"/>
		<path class="st1" d="M548,238.4c0-2,0.4-3.2,1.3-3.7c0.8-0.3,1.9-0.4,3.3-0.4c0.2,0,0.5,0,0.8,0.1c0-1,0-2.6-0.1-4.7
			c-0.1-2.2-0.1-3.8-0.1-5c-0.1,0-0.7,0-1.6,0.1c-0.9,0.1-1.5,0.1-1.7,0.1c-0.1,0-0.3,0-0.6-0.1s-0.5-0.1-0.6-0.1
			c-0.1-0.1-0.2-0.5-0.2-1.1c0-0.9,0.1-2,0.4-3.3c0.3-1.3,0.5-2.1,0.7-2.4c1-0.6,2.8-0.9,5.5-0.9c1.7,0,2.8,0.1,3.4,0.3
			c0.6,0.2,0.9,0.7,0.9,1.5c0,1-0.1,1.9-0.2,2.9c3-3.5,6.2-5.2,9.5-5.2c1.7,0,3.3,0.4,4.7,1.2s2.5,2,3.3,3.5V221
			c2.9-3,5.9-4.5,9.1-4.5c5.5,0,8.3,4,8.3,11.9c0,1.6-0.1,3.2-0.3,4.9c0-0.1,0.1-0.1,0.4-0.1c0.5,0,1.2,0.1,2.3,0.2
			c0.3,0.3,0.4,1.4,0.4,3.1c0,2.2-0.2,3.6-0.5,4.1c-2.4,0.2-4.5,0.3-6.2,0.3c-1.3,0-2.7-0.1-4.3-0.2c-0.2-0.2-0.5-0.7-0.7-1.7
			c-0.3-1-0.4-1.8-0.4-2.5c0-1.1,0.3-2,0.9-2.7c0.4-0.2,0.8-0.3,1.4-0.3c0.5,0,0.9,0.1,1.3,0.2c0-0.1,0-0.5,0-1.3s0-1.3,0-1.5
			c0-2.2-0.6-4.1-1.7-5.7c-1.1-1.6-2.5-2.3-3.9-2.3c-0.9,0-1.8,0.3-2.7,0.8c-1,0.6-1.7,1.3-2.2,2.2c0,0.2,0,0.6,0,1.2
			c0,2.5-0.1,4.5-0.3,6.2h0.1h0.1c0.9,0,1.7,0.1,2.5,0.2c0.2,0.3,0.4,1.4,0.4,3.1c0,2.2,0,3.6,0.1,4.1c-2.5,0.2-4.9,0.3-7.1,0.3
			c-1.6,0-3.3-0.1-5-0.2c-0.1-0.2-0.2-0.7-0.3-1.7s-0.2-1.8-0.2-2.5c0-1.1,0.2-2,0.7-2.7c0.3-0.2,0.7-0.3,1.2-0.3
			c0.7,0,1.2,0.1,1.5,0.2c0-0.1,0-0.5,0-1.3s0-1.3,0-1.5c0-2.1-0.6-4-1.7-5.6c-1.1-1.6-2.5-2.4-4.2-2.4c-1.4,0-2.8,0.6-4,1.9
			s-1.8,3.2-1.8,5.8c0,0.9,0,2.2,0.1,3.7c0.4-0.2,0.9-0.3,1.5-0.3s0.9,0.1,1.1,0.2c0.3,0,0.5,0.6,0.5,1.9c0,0.3-0.2,1.6-0.5,3.9
			c-2.3,0.7-5.2,1.1-8.8,1.1c-2.8,0-4.6-0.4-5.4-1.1C548.2,239.8,548,239.2,548,238.4z"/>
		<path class="st1" d="M608.1,208.3c0-1.5,0.1-2.4,0.2-2.7l0,0c0.1-0.1,0.2-0.1,0.4-0.2s0.4-0.2,0.7-0.3s0.7-0.2,1.3-0.2
			s1.2-0.1,2-0.1c3.8,0,6.2,0.5,7.3,1.5c0.2,0.3,0.2,2.1,0.2,5.3c0,1.3,0,2.6-0.1,3.8c0,1.2-0.1,1.8-0.1,1.9
			c1.4-0.4,2.6-0.6,3.8-0.6c3.2,0,5.8,1.3,7.7,3.8s2.9,5.4,2.9,8.6c0,1.9-0.3,3.7-0.9,5.6c-0.6,1.9-1.6,3.5-3,4.9
			c-1.3,1.4-2.9,2.1-4.6,2.1c-1.1,0-2.4-0.4-3.9-1.2s-2.6-1.3-3.1-1.4c0,0,0,0.2,0,0.4c0,0.5-0.1,1-0.2,1.6
			c-0.6,0.1-2.5,0.2-5.6,0.2c-2.8,0-4.6-0.5-5.2-1.5c-0.1-0.4-0.1-1.2-0.1-2.6c0-2.6,0.1-4,0.4-4.2c0.5-0.3,1.7-0.5,3.6-0.5
			c0.9,0,1.4,0.1,1.6,0.2c0-1.2,0-3,0-5.4c0-1.5,0-3,0-4.7s0.1-3.5,0.1-5.6c0.1-2,0.1-3.7,0.1-5c-0.1,0-0.4,0-0.9,0
			c-2.1,0-3.6-0.3-4.5-0.9C608.1,210.7,608.1,209.8,608.1,208.3z M619.6,233.4c0,0.3,0.5,0.7,1.4,1.1c0.9,0.5,1.8,0.7,2.6,0.7
			c1.3,0,2.4-0.6,3.4-1.9c1-1.2,1.5-2.9,1.5-4.9c0-1.6-0.3-3.1-1-4.6s-1.8-2.3-3.3-2.4c-1.2,0-2.1,0.3-3,0.8
			c-0.8,0.6-1.2,1.1-1.3,1.8c0,0.4-0.1,1-0.1,1.8s0,1.9-0.1,3.3C619.6,230.6,619.6,232,619.6,233.4z"/>
		<path class="st1" d="M637.9,236.8c0-1.4,0.1-2.2,0.3-2.4c0.8-0.4,1.8-0.6,2.8-0.6c-0.4-2.1-0.6-5.3-0.6-9.7
			c0-5.1,0.2-9.5,0.6-13.3c-0.9,0-1.6-0.1-2.2-0.2c-0.1-0.6-0.1-1.1-0.1-1.5c0-1.4,0.3-2.6,1-3.6c1.4-0.3,2.7-0.5,3.9-0.5
			c1.5,0,2.7,0.2,3.6,0.5c0.3,3,0.5,6.2,0.5,9.5c0,2.4-0.1,5.7-0.3,10.1s-0.3,7.3-0.4,8.9c0.2,0,0.4,0,0.8,0c0.8,0,1.5,0.2,2,0.5
			c0.1,0.3,0.2,0.6,0.2,1.2c0,0.8-0.1,1.7-0.3,2.8s-0.4,1.9-0.7,2.3c-0.4,0.3-1.9,0.5-4.5,0.5c-1.5,0-2.9-0.1-4.1-0.4
			c-1.2-0.3-1.9-0.6-2.2-1C638,239.5,637.9,238.4,637.9,236.8z"/>
		<path class="st1" d="M653.4,230.8c0-3.9,1.2-7.3,3.6-10c2.4-2.8,5.4-4.1,9.2-4.1c1.7,0,3.2,0.3,4.5,0.9c1.3,0.6,2.2,1.5,2.9,2.6
			s1.2,2.3,1.5,3.6s0.5,2.7,0.5,4.3c0,4.4-1.1,7.8-3.4,10.1c-2.2,2.3-5.2,3.5-8.8,3.5c-1.9,0-3.6-0.3-5-1s-2.4-1.6-3.1-2.7
			c-0.7-1.1-1.2-2.3-1.5-3.4S653.4,232.1,653.4,230.8z M660.3,230.4c0,1.6,0.5,2.9,1.5,4.1s2.2,1.7,3.5,1.7c1.2,0,2.2-0.5,3.1-1.4
			c0.9-1,1.4-2,1.8-3.1c0.3-1.1,0.5-2.1,0.5-3c0-1.4-0.4-2.6-1.3-3.7c-0.9-1.1-1.9-1.6-3.2-1.6c-1.6,0-3,0.7-4.1,2.2
			C660.8,227.1,660.3,228.7,660.3,230.4z"/>
		<path class="st1" d="M678.7,229.8c0-1.6,0.3-3.1,1-4.6s1.7-2.9,2.9-4.2c1.3-1.3,2.9-2.3,5-3.1c2-0.8,4.3-1.2,6.7-1.2
			c0.8,0,1.4,0,1.8,0l0.4-1.2c1-0.2,1.9-0.3,2.8-0.3c1.8,0,3.5,0.5,5.1,1.6c0.2,1.5,0.3,2.7,0.3,3.5c0,2.4-0.5,3.7-1.4,4.1
			c-0.9,0.3-1.8,0.5-2.6,0.5c-1.5,0-3.4-0.3-5.7-0.9l0.3-1.8c-0.6-0.1-1.2-0.1-1.5-0.1c-2.3,0-4.4,0.6-6.1,1.9
			c-1.7,1.3-2.6,3.2-2.6,5.6c0,2.1,0.6,3.6,1.8,4.6s2.6,1.5,4.3,1.5c1,0,2.3-0.2,3.9-0.6l-0.1-1.8c1.6-1.1,3.6-1.6,5.9-1.6
			c0.6,0,1.4,0.1,2.3,0.2c1.2,1.5,1.8,3.2,1.8,5.2c0,0.8-0.1,2-0.3,3.7c-1.3,1.1-3.2,1.6-5.6,1.6c-0.6,0-1.4,0-2.2-0.1l-0.5-0.8
			c-0.9,0.1-1.8,0.1-2.7,0.1c-4.4,0-7.9-1.2-10.7-3.5C680.1,235.8,678.7,233,678.7,229.8z"/>
		<path class="st1" d="M707.3,209.1c0-1.6,0.3-2.6,0.8-3.1c1.6-0.4,3.6-0.7,5.8-0.7c2,0,3.7,0.2,4.9,0.7c0.4,0.4,0.7,1.3,0.7,2.6
			c0,1.5-0.2,2.5-0.7,2.9c-0.8,0.1-1.4,0.2-1.8,0.2c0,1.5,0.2,4.9,0.4,9.9c0.3-0.3,0.8-0.6,1.3-1.1s1.1-0.9,1.6-1.2s1-0.7,1.5-1.1
			c0.5-0.4,0.9-0.8,1.2-1.1c0.3-0.4,0.4-0.7,0.4-1s-0.2-0.6-0.7-0.9c-0.3,0.2-0.9,0.3-1.7,0.3c-0.3-0.2-0.5-0.5-0.8-1
			c-0.2-0.5-0.4-0.9-0.4-1.3c0-0.4,0.1-0.6,0.3-0.7c2.3-0.7,4.5-1.1,6.5-1.1c1.8,0,3.6,0.4,5.3,1.2c0.2,0.4,0.2,0.8,0.2,1.3
			c0,1.3-0.4,2.1-1.2,2.4c-0.1,0-0.3,0-0.6,0c-0.8,0-1.3-0.1-1.6-0.4c0,0.2-0.4,0.6-1,1.3s-1.6,1.6-2.8,2.7c-1.3,1.1-2.6,2.1-4,3.1
			c3.3,1.3,6.2,3.2,8.5,5.7s3.5,4.3,3.5,5.4c0.3-0.1,0.6-0.2,0.9-0.2c0.3,0,0.7,0.1,1.2,0.3c0.5,0.3,0.8,1.2,0.8,2.7
			c0,1.4-0.2,2.4-0.7,3.2c-1.3,0.7-2.7,1.1-4.5,1.1c-1.4,0-3.4-0.3-5.8-1c-0.4-0.6-0.6-1.5-0.6-2.7c0-1.5,0.2-2.6,0.7-3.2
			c0.3-0.2,0.6-0.2,0.9-0.2c0.3,0,0.5,0,0.8,0.1c-0.6-3-3.7-5.6-9.3-7.6c0,0.4-0.1,1.2-0.1,2.2s-0.1,1.9-0.1,2.7s-0.1,1.6-0.2,2.2
			c0.5-0.3,1.2-0.4,2.3-0.4c0.2,0,0.3,0.1,0.4,0.2c0.1,0.1,0.1,0.6,0.1,1.4c0,0.8,0.1,1.7,0.1,2.7c0,1.4,0,2.3-0.1,2.6
			c-1.5,0.6-3.6,0.9-6.3,0.9c-2.4,0-4-0.3-4.9-0.8c-0.5-0.8-0.8-2.1-0.8-4c0-1.3,0.2-2.1,0.7-2.3c0.4-0.3,1.2-0.5,2.1-0.5
			c0.3,0,0.5,0,0.7,0.1c0-2.5-0.1-5-0.1-7.4s-0.1-4.4-0.1-5.7s0-2.5,0-3.4s0-2.7,0.1-5.4c-0.6,0.3-1.1,0.4-1.7,0.4
			c-0.6,0-1.2-0.2-1.6-0.6C707.4,210.9,707.3,210.1,707.3,209.1z"/>
		<path class="st1" d="M737.6,229.8c0-1.6,0.3-3.1,1-4.6s1.7-2.9,2.9-4.2c1.3-1.3,2.9-2.3,5-3.1c2-0.8,4.3-1.2,6.7-1.2
			c0.8,0,1.4,0,1.8,0l0.4-1.2c1-0.2,1.9-0.3,2.8-0.3c1.8,0,3.5,0.5,5.1,1.6c0.2,1.5,0.3,2.7,0.3,3.5c0,2.4-0.5,3.7-1.4,4.1
			c-0.9,0.3-1.8,0.5-2.6,0.5c-1.5,0-3.4-0.3-5.7-0.9l0.3-1.8c-0.6-0.1-1.2-0.1-1.5-0.1c-2.3,0-4.4,0.6-6.1,1.9
			c-1.7,1.3-2.6,3.2-2.6,5.6c0,2.1,0.6,3.6,1.8,4.6s2.6,1.5,4.3,1.5c1,0,2.3-0.2,3.9-0.6l-0.1-1.8c1.6-1.1,3.6-1.6,5.9-1.6
			c0.6,0,1.4,0.1,2.3,0.2c1.2,1.5,1.8,3.2,1.8,5.2c0,0.8-0.1,2-0.3,3.7c-1.3,1.1-3.2,1.6-5.6,1.6c-0.6,0-1.4,0-2.2-0.1l-0.5-0.8
			c-0.9,0.1-1.8,0.1-2.7,0.1c-4.4,0-7.9-1.2-10.7-3.5C739,235.8,737.6,233,737.6,229.8z"/>
		<path class="st1" d="M765.4,210.5c0-2.4,0.2-3.9,0.6-4.5c0.9-0.6,3-0.9,6.2-0.9c1,0,2,0,3.3,0.1c1.2,0.1,1.9,0.2,1.9,0.2
			c0.3,0.5,0.5,4.2,0.5,10.9c0,2.1,0,3.3-0.1,3.6c2.9-2.2,5.9-3.4,9-3.4c2.7,0,4.8,0.9,6.5,2.7s2.5,4.6,2.5,8.4
			c0,3.1-0.1,5.1-0.3,5.8c0.1,0,0.2,0.1,0.5,0.1c0.9,0,1.6,0,2.3,0.1c0.3,0.3,0.4,1.2,0.4,2.7c0,2.3-0.2,3.7-0.5,4.2
			c-2.4,0.4-4.6,0.6-6.6,0.6c-1.9,0-3.6-0.2-5.3-0.5c-0.2-0.2-0.5-0.7-0.8-1.7s-0.4-1.8-0.4-2.5c0-0.6,0.3-1.3,0.9-2.1
			c0.4-0.2,0.8-0.3,1.4-0.3c0.5,0,0.9,0.1,1.3,0.2c0-0.1,0-1,0-2.6s0-2.6,0-2.8c0-2-0.5-3.7-1.6-5.1c-1.1-1.4-2.5-2.1-4.3-2.1
			c-3.2,0-4.8,2.7-4.8,8.1c0,0.6,0,2.2,0.1,4.7c0.4-0.2,0.9-0.3,1.5-0.3s0.9,0.1,1.1,0.2c0.3,0,0.5,0.7,0.5,2c0,0.3,0,0.6,0,0.8
			l-0.2,1c-0.1,0.5-0.1,1.1-0.2,1.7c-2.4,0.9-5.6,1.3-9.5,1.3c-2.8,0-4.5-0.4-5.2-1.2c-0.3-0.3-0.4-0.9-0.4-1.5c0-2.8,1.3-4.2,4-4.2
			c0.7,0,1.3,0.1,1.9,0.2c-0.2-7.4-0.2-13.9-0.2-19.4c0-1.9,0-3,0.1-3.2c-0.1,0-0.3,0-0.6,0s-0.5,0-0.7,0c-2.2,0-3.7-0.1-4.6-0.2
			C765.4,211.6,765.4,211.2,765.4,210.5z"/>
		<path class="st1" d="M801.5,231.2c0-2.3,0.3-4.6,1-6.8s1.8-4.1,3.3-5.6c1.5-1.6,3.3-2.4,5.4-2.4c0.9,0,1.8,0.2,2.5,0.5
			s1.3,0.7,1.7,1.2s0.7,0.9,1,1.4s0.4,0.9,0.5,1.2s0.2,0.5,0.2,0.5c0-1.8,0-2.9,0-3.5c0.7-0.6,1.3-0.9,2-1.1
			c0.7-0.2,1.7-0.3,2.9-0.3c1.1,0,2,0,2.8,0.1s1.5,0.1,1.9,0.2c0.4,0.1,0.8,0.2,1,0.3c0.3,0.1,0.4,0.2,0.5,0.2h0.1
			c0.1,0.3,0.2,1.2,0.2,2.7c0,1.6-0.1,2.5-0.2,2.8c-0.1,0.2-0.7,0.4-1.7,0.6c-1,0.2-1.9,0.3-2.7,0.3c-0.4,0-0.7,0-1.2-0.1
			c0.1,0.2,0.1,1,0.1,2.4c0,4.2-0.1,6.5-0.4,7c0.2-0.1,0.5-0.1,0.9-0.1c1.6,0,3.1,0.1,4.6,0.4c0.3,0.2,0.4,1.6,0.4,4.2
			c0,1.4-0.1,2.3-0.2,2.6c-0.2,0.3-1,0.7-2.3,1s-2.8,0.5-4.4,0.5c-2.8,0-4.5-0.1-5.1-0.2c-0.2-0.6-0.3-1.1-0.3-1.5
			c0-0.3,0-0.4,0.1-0.6c-0.4,0.1-1.5,0.6-3.3,1.4s-3.1,1.2-3.9,1.2c-2.5,0-4.3-1-5.6-3.1C802.1,236.7,801.5,234.2,801.5,231.2z
			 M807.5,230c0,1.8,0.6,3.4,1.7,4.6c1.1,1.3,2.3,1.9,3.5,1.9c0.7,0,1.4-0.2,2.3-0.5s1.3-0.7,1.4-1c0.1-1.5,0.2-2.9,0.3-4.1
			c0.1-1.2,0.1-2.2,0.2-2.9c0-0.7,0.1-1.1,0.1-1.3v-0.6c0-0.7-0.4-1.3-1.3-2s-1.9-1-3-1c-1.6,0-2.8,0.7-3.7,2.2
			C807.9,226.8,807.5,228.3,807.5,230z"/>
		<path class="st1" d="M831.1,237.1c0-1.7,0.1-2.6,0.3-2.8c0.4-0.2,0.8-0.4,1.4-0.4c0.4-0.1,1.2-0.1,2.5-0.1c-0.2-2-0.3-4.2-0.3-6.5
			c0-2.6,0.2-4.2,0.5-4.9c-1.6,0-2.6-0.1-3.1-0.2c0-0.9,0.1-1.8,0.3-2.7c0.1-0.4,0.3-1.2,0.6-2.4c1.2-0.2,3.2-0.3,6-0.3
			c0.9,0,1.8,0.1,2.6,0.2c0.8,0.1,1.4,0.3,1.8,0.5c0.4,0.2,0.6,0.3,0.6,0.5c0.1,0,0.1,0.6,0.1,1.7c0,1.8-0.1,3-0.2,3.4
			c-0.1,0.2-0.2,0.3-0.5,0.3c-1.2,0-1.9-0.1-2.2-0.2c-0.3,2.2-0.5,5.1-0.5,8.7c0,1.5,0,2.2,0.1,2.3c0.2,0,0.5,0,0.8,0
			c1.2,0,2.1,0.2,2.8,0.5c0.1,0.1,0.2,0.4,0.2,0.9c0,0.8-0.1,1.8-0.3,2.9c-0.2,1.1-0.5,1.9-1,2.4c-0.4,0.4-1.6,0.6-3.8,0.6
			c-5,0-7.8-0.5-8.3-1.4C831.3,239.3,831.1,238.4,831.1,237.1z M834.9,207.3c0-0.9,0.5-1.3,1.5-1.3c0.8,0,1.7,0.2,2.6,0.7
			c0.7-0.7,1.6-1,2.7-1c0.7,0,1.3,0.2,1.8,0.7s0.8,1.1,0.8,2c0,0.4-0.1,0.8-0.3,1.2s-0.4,0.7-0.5,1c-0.2,0.3-0.5,0.6-0.9,0.9
			s-0.8,0.6-1,0.7c-0.2,0.1-0.7,0.4-1.3,0.7s-1,0.6-1.1,0.6c-1.3-0.9-2.3-2-3.1-3.1C835.3,209.2,834.9,208.1,834.9,207.3z"/>
		<path class="st1" d="M848.4,237.8c0-2,0.4-3.2,1.3-3.7c0.8-0.3,1.9-0.4,3.3-0.4c0.2,0,0.5,0,0.8,0.1c0-0.9,0-2.4-0.1-4.4
			s-0.1-3.6-0.1-4.6c-0.1,0-0.7,0-1.6,0.1c-0.9,0.1-1.5,0.1-1.7,0.1c-0.1,0-0.3,0-0.6-0.1s-0.5-0.1-0.6-0.1
			c-0.1-0.1-0.2-0.5-0.2-1.1c0-0.9,0.1-2,0.4-3.3c0.3-1.3,0.5-2.1,0.7-2.4c0.9-0.6,2.6-0.9,5.1-0.9c1.9,0,3.2,0.1,3.8,0.3
			s0.9,0.7,0.9,1.5c0,1-0.1,1.9-0.2,2.9c3-3.5,6.3-5.2,9.8-5.2c5.5,0,8.3,3.9,8.3,11.7c0,1.5-0.1,3.1-0.3,4.5c0-0.1,0.1-0.1,0.4-0.1
			c0.5,0,1.2,0.1,2.3,0.2c0.3,0.3,0.4,1.4,0.4,3.1c0,2.2-0.2,3.6-0.5,4.1c-2.4,0.6-4.5,1-6.3,1c-1.2,0-2.7-0.3-4.3-0.9
			c-0.2-0.2-0.5-0.7-0.7-1.7c-0.3-1-0.4-1.8-0.4-2.5c0-1.1,0.3-2,0.9-2.7c0.3-0.2,0.8-0.3,1.4-0.3c0.4,0,0.9,0.1,1.3,0.2
			c0-0.1,0-0.5,0-1.2s0-1.2,0-1.4c0-2-0.6-3.8-1.7-5.3c-1.1-1.5-2.5-2.3-4.2-2.3c-1.4,0-2.8,0.6-4,1.8s-1.8,3-1.8,5.5
			c0,0.9,0,2,0.1,3.5c0.4-0.2,0.9-0.3,1.5-0.3s0.9,0.1,1.1,0.2c0.3,0,0.5,0.6,0.5,1.9c0,0.3-0.2,1.6-0.5,3.9
			c-2.3,1.1-5.2,1.7-8.7,1.7c-3,0-4.8-0.4-5.5-1.3C848.5,239.5,848.4,238.8,848.4,237.8z"/>
		<path class="st1" d="M884.1,217.7c0-4,0.6-7.2,1.8-9.7c0.8-0.3,1.4-0.4,1.8-0.4c0.6,0,1.3,0.1,1.9,0.4c1.2,3.7,1.8,7.4,1.8,11
			c0,4.5-0.8,8.8-2.5,12.7c-0.3,0.1-0.6,0.2-1,0.2c-0.3,0-0.6,0-0.8,0c-0.9-1.7-1.6-3.9-2.2-6.4
			C884.4,222.9,884.1,220.3,884.1,217.7z M886.2,238.3c0-0.9,0.1-1.8,0.3-2.7c0.7-0.1,1.2-0.2,1.6-0.2c0.4,0,0.8,0.1,1.3,0.2
			c0.3,0.9,0.4,1.9,0.4,2.8c0,0.9-0.1,1.9-0.4,2.8c-0.5,0.2-1,0.2-1.4,0.2c-0.5,0-1-0.1-1.4-0.2
			C886.3,240.2,886.2,239.2,886.2,238.3z"/>
	</g>
	<g id="Signature">
		<path class="st2" d="M921,249.3c-0.2-0.6-0.1-1.1,0.1-1.5c0.3-0.3,0.7-0.5,1.1-0.6c-0.6-1.5-1.1-3.1-1.6-4.7
			c-0.4-1.5-0.7-3.1-0.9-4.7c-0.1,0-0.3,0-0.6,0s-0.5,0-0.6,0c-0.2-0.2-0.4-0.6-0.6-1.3c-0.2-0.7-0.2-1.2-0.2-1.4
			c0.2-0.5,1.1-1,2.6-1.4c1.3-0.4,2.2-0.4,2.7,0c0.4,0.6,0.7,1.2,0.9,1.9c0.1,0.3,0.1,0.5,0.1,0.7c-0.3,0.2-0.5,0.4-0.7,0.5
			c0.3,0.2,1,0.6,2.1,1.2c1.1,0.6,1.9,1,2.3,1.3c0.2-0.4,0.6-1.2,1.3-2.3s1.1-1.8,1.3-2.1c-0.3,0-0.6,0-0.7,0
			c-0.2-0.2-0.4-0.6-0.6-1.3c-0.2-0.7-0.2-1.2-0.2-1.4c0.2-0.6,0.9-1,2.1-1.3c0.6-0.2,1.3-0.3,2-0.3s1.2,0,1.5,0.1
			c0.3,0.2,0.5,0.6,0.7,1.1c0.2,0.6,0.2,1.1,0,1.5c-0.3,0.3-0.6,0.5-0.9,0.5c-0.1,0-0.2,0-0.4,0c0.5,1.2,1,2.6,1.4,4.1
			c0.3,1.2,0.7,3.1,1.2,5.5c0.1,0,0.2-0.1,0.3-0.1c0.3-0.1,0.7-0.1,1.1,0c0.1,0.2,0.3,0.5,0.4,1c0.3,1.2,0.3,2,0,2.3
			c-0.1,0.2-0.8,0.5-2.1,0.8c-1.4,0.4-2.3,0.4-2.8,0.1c-0.3-0.2-0.6-0.6-0.8-1.3c-0.2-0.6-0.2-1.1,0-1.5c0.3-0.3,0.7-0.5,1-0.6
			c-0.6-1.5-1.3-3.6-1.9-6.1c-0.3,0.8-0.8,1.7-1.5,2.7c-0.7,0.9-1.2,1.5-1.6,1.6c-0.4,0.1-1.2-0.1-2.2-0.5c-1-0.5-1.9-1-2.6-1.6
			c0.6,2.8,1.1,4.9,1.4,6.4c0.1,0,0.2-0.1,0.3-0.1c0.3-0.1,0.6-0.1,1,0c0.3,0.3,0.6,0.8,0.8,1.4c0.1,0.6,0.1,1,0,1.3
			c-0.3,0.5-0.9,1-2.1,1.3c-0.7,0.2-1.4,0.3-2.1,0.3c-0.7,0-1.1,0-1.2-0.2C921.4,250.4,921.2,250,921,249.3z"/>
		<path class="st2" d="M938.3,235.6c-0.2-0.7-0.3-1.1-0.2-1.4c0.8-0.5,1.7-0.9,2.6-1.1c1-0.3,1.9-0.3,2.6,0c0.1,0.3,0.2,0.7,0.3,1.2
			v-0.2c0-0.1,0.1-0.3,0.2-0.5c0.1-0.2,0.2-0.5,0.3-0.7s0.4-0.5,0.7-0.7s0.7-0.4,1.1-0.5c1.2-0.3,2.4-0.1,3.5,0.7
			c0.1,0.7-0.1,1.3-0.4,1.8c-0.4,0.5-0.8,0.8-1.2,0.9c-0.7-0.2-1.3-0.2-1.8-0.1c-1.6,0.4-2.1,1.6-1.5,3.6c0.2,0.7,0.5,1.5,0.9,2.3
			c0-0.1,0.2-0.2,0.6-0.3c0.5-0.1,0.8-0.2,0.9-0.1c0.3,0.2,0.5,0.7,0.7,1.4c0.3,1,0.3,1.7,0,2.2c-0.8,0.4-1.7,0.7-2.9,1
			c-1.9,0.5-3.1,0.6-3.5,0.4c-0.1-0.2-0.3-0.6-0.5-1.4c-0.3-1.1-0.4-1.7-0.3-1.8c0.1-0.2,0.4-0.3,0.9-0.5c0.4-0.1,0.7-0.1,0.9-0.1
			c-0.2-0.3-0.7-1.6-1.3-3.8c-0.2-0.7-0.3-1.2-0.3-1.3c-0.2,0.1-0.4,0.1-0.5,0.2c-0.6,0.2-1,0.2-1.3,0
			C938.6,236.7,938.4,236.3,938.3,235.6z"/>
		<path class="st2" d="M951.8,241.2c-0.2-0.6-0.1-1.2,0.1-1.8c0.4-0.3,0.7-0.4,0.9-0.5c0.3-0.1,0.7-0.1,1-0.1c0.5,0.4,0.8,1,1,1.6
			s0.1,1.2,0,1.9c-0.2,0.2-0.5,0.3-0.8,0.4c-0.3,0.1-0.7,0.1-1.1,0.1C952.3,242.4,951.9,241.8,951.8,241.2z"/>
		<path class="st2" d="M958.2,225.8c-0.1-0.4-0.1-0.6,0-0.9c1.3-1.3,2.8-2.1,4.5-2.6s3.2-0.6,4.6-0.5c1.4,0.1,2.6,0.5,3.6,1.1
			s1.8,1.4,2.5,2.4s1.2,2.2,1.5,3.5c0.7,2.7,0.5,4.8-0.6,6.6c-1.1,1.7-3.3,3-6.5,3.9c-1.9,0.5-3.8,0.6-5.7,0.4
			c-0.2-0.1-0.4-0.6-0.7-1.6c-0.1-0.5-0.2-0.9-0.2-1.1c0-0.3,0.3-0.5,1.1-0.7c0.2-0.1,0.4-0.1,0.7-0.1c-0.5-1.1-0.9-2.6-1.4-4.4
			c-0.4-1.7-0.8-3.2-1-4.6c-0.2,0.1-0.4,0.2-0.6,0.2c-0.6,0.2-1,0.1-1.1-0.1C958.5,226.8,958.3,226.3,958.2,225.8z M966.3,236
			c0.5,0,1,0,1.6-0.2c1.3-0.4,2.4-1.1,3.1-2.3c0.7-1.2,0.9-2.5,0.5-4s-1.2-2.7-2.5-3.6c-1.3-0.9-2.6-1.2-4-0.9
			c-0.6,0.1-1,0.4-1.4,0.7c0.5,1.4,1,3,1.5,4.9C965.7,232.9,966.1,234.7,966.3,236z"/>
		<path class="st2" d="M976.3,225.5c-0.2-0.7-0.3-1.1-0.2-1.4c0.8-0.5,1.7-0.9,2.6-1.1c1-0.3,1.9-0.3,2.6,0c0.1,0.3,0.2,0.7,0.3,1.2
			V224c0-0.1,0.1-0.3,0.2-0.5c0.1-0.2,0.2-0.5,0.3-0.7s0.4-0.5,0.7-0.7s0.7-0.4,1.1-0.5c1.2-0.3,2.4-0.1,3.5,0.7
			c0.1,0.7-0.1,1.3-0.4,1.8c-0.4,0.5-0.8,0.8-1.2,0.9c-0.7-0.2-1.3-0.2-1.8-0.1c-1.6,0.4-2.1,1.6-1.5,3.6c0.2,0.7,0.5,1.5,0.9,2.3
			c0-0.1,0.2-0.2,0.6-0.3c0.5-0.1,0.8-0.2,0.9-0.1c0.3,0.2,0.5,0.7,0.7,1.4c0.3,1,0.3,1.7,0,2.2c-0.8,0.4-1.7,0.7-2.9,1
			c-1.9,0.5-3.1,0.6-3.5,0.4c-0.1-0.2-0.3-0.6-0.5-1.4c-0.3-1.1-0.4-1.7-0.3-1.8c0.1-0.2,0.4-0.3,0.9-0.5c0.4-0.1,0.7-0.1,0.9-0.1
			c-0.2-0.3-0.7-1.6-1.3-3.8c-0.2-0.7-0.3-1.2-0.3-1.3c-0.2,0.1-0.4,0.1-0.5,0.2c-0.6,0.2-1,0.2-1.3,0
			C976.6,226.6,976.4,226.1,976.3,225.5z"/>
		<path class="st2" d="M989.6,227.8c-0.3-1.2-0.4-2.3-0.4-3.5c0.1-1.2,0.4-2.3,0.9-3.3s1.3-1.6,2.4-1.9c0.5-0.1,0.9-0.2,1.3-0.1
			c0.4,0.1,0.7,0.2,1,0.4s0.5,0.4,0.7,0.6c0.2,0.2,0.3,0.4,0.4,0.5c0.1,0.1,0.1,0.2,0.2,0.2c-0.2-0.9-0.4-1.5-0.5-1.7
			c0.3-0.4,0.5-0.6,0.9-0.8c0.3-0.2,0.8-0.4,1.4-0.5c0.5-0.1,1-0.3,1.4-0.3c0.4-0.1,0.7-0.1,1-0.1c0.2,0,0.4,0,0.6,0
			c0.1,0,0.2,0,0.3,0h0.1c0.1,0.1,0.3,0.6,0.5,1.3c0.2,0.8,0.3,1.3,0.3,1.4c0,0.1-0.3,0.3-0.8,0.5s-0.9,0.4-1.3,0.5
			c-0.2,0-0.4,0.1-0.6,0.1c0.1,0.1,0.2,0.5,0.4,1.2c0.6,2.1,0.8,3.3,0.7,3.5c0.1-0.1,0.2-0.1,0.4-0.2c0.8-0.2,1.6-0.3,2.4-0.4
			c0.2,0.1,0.4,0.7,0.8,2c0.2,0.7,0.3,1.1,0.3,1.3c-0.1,0.2-0.4,0.5-1,0.8s-1.3,0.6-2.1,0.8c-1.4,0.4-2.2,0.6-2.6,0.6
			c-0.2-0.3-0.3-0.5-0.4-0.7c0-0.1,0-0.2,0-0.3c-0.2,0.1-0.7,0.5-1.4,1.1c-0.8,0.7-1.4,1-1.8,1.1c-1.2,0.3-2.3,0.1-3.2-0.8
			C990.7,230.5,990,229.3,989.6,227.8z M992.5,226.4c0.2,0.9,0.7,1.6,1.4,2.1s1.4,0.6,2,0.5c0.3-0.1,0.7-0.3,1.1-0.6
			c0.4-0.3,0.6-0.5,0.6-0.7c-0.2-0.8-0.3-1.5-0.4-2.1c-0.1-0.6-0.2-1.1-0.3-1.5c-0.1-0.3-0.1-0.6-0.1-0.7l-0.1-0.3
			c-0.1-0.3-0.4-0.6-0.9-0.8s-1.1-0.2-1.6-0.1c-0.8,0.2-1.3,0.7-1.6,1.6C992.3,224.8,992.2,225.6,992.5,226.4z"/>
		<path class="st2" d="M1004.6,224.2c-0.3-1.2-0.3-2.4-0.1-3.8c0.3-1.3,0.9-2.5,1.8-3.6c0.9-1.1,2.1-1.8,3.5-2.2
			c0.5-0.1,0.9-0.2,1.4-0.2c0.2-0.6,0.4-1,0.5-1.3s0.3-0.5,0.5-0.5c0.4-0.1,1,0,1.9,0.4c0.9,0.3,1.4,0.7,1.6,1.2
			c0,0.2-0.4,0.8-1.4,2c1,0.8,1.6,1.9,2,3.1c0.4,1.6,0.3,3.2-0.4,4.7s-1.7,2.5-3.2,2.9c-0.2,0.1-0.4,0.1-0.5,0.1v0.1
			c0.1,0.2,0.3,0.4,0.8,0.4c0.5,0.1,1,0.1,1.5,0c0.6,0,1.1,0,1.6,0.2s0.9,0.5,1,0.9c0.1,0.5,0,1.1-0.4,1.7c-0.4,0.6-1,1.1-1.7,1.6
			s-1.4,0.8-2.2,1.2c-0.7,0.3-1.3,0.6-1.9,0.7c-0.8,0.2-1.4-0.4-1.9-1.9c3.2-1,4.7-1.8,4.6-2.3c0-0.2-0.3-0.2-0.9-0.2
			c-0.5,0-1.1,0.1-1.7,0.2c-0.6,0.1-1.2,0-1.8-0.1c-0.6-0.2-0.9-0.5-1.1-1.1c-0.1-0.2-0.1-0.4-0.1-0.7c-0.9-0.2-1.7-0.6-2.3-1.3
			C1005.3,225.9,1004.8,225.1,1004.6,224.2z M1007.6,223.2c0.2,0.7,0.6,1.3,1.1,1.7c0.6,0.4,1.2,0.5,1.9,0.3
			c0.9-0.2,1.7-0.9,2.3-1.9s0.7-2.1,0.4-3.2c-0.2-0.8-0.6-1.4-1.2-1.8c-0.6-0.4-1.3-0.5-2-0.3c-1,0.3-1.8,1-2.2,2.1
			C1007.4,221.1,1007.3,222.2,1007.6,223.2z"/>
		<path class="st2" d="M1018.6,219.9c-0.5-2-0.4-3.8,0.4-5.5c0.8-1.7,2.2-2.8,4.1-3.3c0.9-0.2,1.7-0.3,2.4-0.1
			c0.7,0.1,1.3,0.4,1.8,0.9s0.9,1,1.2,1.6c0.3,0.6,0.6,1.3,0.8,2.1c0.6,2.2,0.5,4.1-0.3,5.5c-0.8,1.5-2.1,2.4-3.9,2.9
			c-1,0.3-1.8,0.3-2.6,0.2s-1.4-0.5-1.9-0.9c-0.5-0.5-0.9-1-1.2-1.5C1019,221.2,1018.7,220.5,1018.6,219.9z M1022,218.8
			c0.2,0.8,0.6,1.4,1.3,1.8c0.6,0.4,1.3,0.6,2,0.4c0.6-0.2,1-0.5,1.3-1.1s0.5-1.2,0.5-1.8s0-1.1-0.2-1.6c-0.2-0.7-0.6-1.3-1.1-1.7
			c-0.6-0.4-1.2-0.5-1.8-0.4c-0.8,0.2-1.4,0.8-1.7,1.7C1021.8,217,1021.7,217.9,1022,218.8z"/>
		<path class="st2" d="M1032.2,220c-0.3-1-0.2-1.7,0.2-2c0.4-0.3,0.9-0.5,1.6-0.7c0.1,0,0.2,0,0.4-0.1c-0.1-0.5-0.3-1.2-0.6-2.2
			c-0.3-1-0.5-1.8-0.7-2.3c-0.1,0-0.3,0.1-0.8,0.3s-0.7,0.3-0.8,0.3c-0.1,0-0.2,0-0.3,0c-0.1,0-0.2,0-0.3,0
			c-0.1-0.1-0.2-0.2-0.2-0.5c-0.1-0.4-0.2-1-0.2-1.7s0-1.1,0-1.3c0.4-0.4,1.2-0.8,2.5-1.1c1-0.3,1.6-0.4,1.9-0.3
			c0.3,0,0.5,0.2,0.6,0.6c0.1,0.5,0.2,1,0.3,1.5c1-2.1,2.4-3.4,4.2-3.9c2.8-0.7,4.7,0.8,5.7,4.7c0.2,0.8,0.4,1.5,0.5,2.3
			c0,0,0.1-0.1,0.2-0.1c0.2-0.1,0.6-0.1,1.2-0.2c0.2,0.1,0.4,0.6,0.6,1.5c0.3,1.1,0.4,1.8,0.3,2.1c-1.1,0.6-2.1,1.1-3,1.3
			c-0.6,0.2-1.4,0.2-2.3,0.1c-0.1-0.1-0.3-0.3-0.6-0.8c-0.3-0.5-0.4-0.9-0.5-1.2c-0.1-0.5-0.1-1,0.1-1.5c0.1-0.2,0.4-0.3,0.6-0.4
			c0.2-0.1,0.4-0.1,0.7-0.1c0,0-0.1-0.3-0.2-0.6c-0.1-0.4-0.1-0.6-0.2-0.7c-0.3-1-0.8-1.8-1.5-2.4c-0.8-0.6-1.6-0.8-2.4-0.6
			c-0.7,0.2-1.3,0.7-1.8,1.4c-0.4,0.7-0.5,1.8-0.2,3c0.1,0.4,0.3,1,0.5,1.7c0.2-0.2,0.4-0.3,0.7-0.4c0.3-0.1,0.5-0.1,0.6,0
			c0.2,0,0.3,0.3,0.5,0.9c0,0.1,0.1,0.8,0.3,2c-1,0.9-2.4,1.5-4.1,2c-1.5,0.4-2.5,0.4-2.9,0.1C1032.5,220.8,1032.3,220.5,1032.2,220
			z"/>
	</g>
</g>
</svg>
