<?xml version="1.0" encoding="utf-8"?>
<!-- Generator: Adobe Illustrator 27.0.1, SVG Export Plug-In . SVG Version: 6.00 Build 0)  -->
<svg version="1.1" id="FQT-Animation" xmlns="http://www.w3.org/2000/svg" xmlns:xlink="http://www.w3.org/1999/xlink" x="0px"
	 y="0px" viewBox="0 0 8640 135" style="enable-background:new 0 0 8640 135;" xml:space="preserve">
<style type="text/css">
	.st0{fill:url(#SVGID_1_);}
	.st1{fill:url(#SVGID_00000142857210022028360160000005778646938788676997_);}
	.st2{fill:url(#SVGID_00000097501998615719559200000000968232094307495609_);}
	.st3{fill:url(#SVGID_00000121963971490268660880000003432975897025083018_);}
	.st4{fill:url(#SVGID_00000054254155537794380380000013548318603513840280_);}
	.st5{fill:url(#SVGID_00000171691988191982278810000007933508916999971725_);}
	.st6{fill:url(#SVGID_00000140002926310189990940000000425083293993849504_);}
	.st7{fill:url(#SVGID_00000115489704810189104010000006304998077617584787_);}
	.st8{fill:url(#SVGID_00000146469702334969182030000013559413838605994929_);}
	.st9{fill:url(#SVGID_00000181776420726871072650000004397782597659616388_);}
	.st10{fill:url(#SVGID_00000065774279145349873750000009297599113715297934_);}
	.st11{fill:url(#SVGID_00000170262894279241697340000000135803709823381406_);}
	.st12{fill:url(#SVGID_00000013913083525021981740000016942573715141682828_);}
	.st13{fill:url(#SVGID_00000160900100565303468850000007140707622717045133_);}
	.st14{fill:url(#SVGID_00000098913175540254255830000006852520497731430053_);}
	.st15{fill:url(#SVGID_00000119084088630979526950000017447598062435505329_);}
	.st16{fill:url(#SVGID_00000155113560666623090920000015684657513757008315_);}
</style>
<g id="Blazing-Mantle">
	<g id="Mantle-7">
		
			<linearGradient id="SVGID_1_" gradientUnits="userSpaceOnUse" x1="8359.2188" y1="1109.5039" x2="8359.2188" y2="1057.0538" gradientTransform="matrix(0.9481 0 0 0.9481 174.2223 -916.9741)">
			<stop  offset="0" style="stop-color:#DA6624"/>
			<stop  offset="0.2346" style="stop-color:#F1A230"/>
			<stop  offset="0.4833" style="stop-color:#ED9B2E;stop-opacity:0.5"/>
			<stop  offset="0.7998" style="stop-color:#BF4818;stop-opacity:0.4"/>
			<stop  offset="1" style="stop-color:#BD4517;stop-opacity:0.3"/>
		</linearGradient>
		<path class="st0" d="M8640,135v-9c-18,5.4-30.4,3.7-38.5,1.7c-12.3-3.8-22-12.1-35.5-9.5c-4,0.7-5.8,2-10,1.7
			c-8.5-0.7-12.4-6.6-19.8-5.1c-2.6,0.5-1.9,1.2-4.2,1.6c-8,1.3-14.7-7.2-18.9-4.8c-0.9,0.5-1.1,1.1-1.7,1.3c0,0-0.2,0-0.4,0
			c-1.5,0-5.1-6.2-7.7-6.7c-2.9-0.6-4.1,5.9-8.9,9.4c-10.7,7.8-28.7-8-39,1.4c-0.4,0.3-0.3,0.3-0.6,0.5c-8.8,6.7-27.5-9.1-35.3-2.4
			c-0.7,0.6-0.5,0.7-0.9,1c-6,3.7-22.8-18.3-35.3-14.5c-1.1,0.3-1.1,0.6-2,0.7c-6.9,1.2-11.2-9-18.5-9.6c-0.9-0.1-2.2-0.5-3.7-1.4
			c-2.7-1.6-3-3.5-4.4-3.9c-2.7-0.8-6.4,5.1-8,7.3c-8.6,11.9-28.7,20.9-39.6,17.1c0,0-8.6-2.9-13.9-1.3c-2,0.6-2,1.1-3.4,1.7
			c-10.2,4.1-24-14.4-33.5-9.8c-0.8,0.4-0.5,0.5-1.3,0.8c-8,3.5-18.1-14.5-29.4-12.3c-4.6,0.9-6.1,4.9-9.3,3.8
			c-4.1-1.3-3.7-8.1-7-8.7c-2.7-0.5-3.6,3.9-8.9,7.1c-4.2,2.5-11.7,4.8-17.9,2.2c-3.5-1.5-9-5.4-11.2-4c-0.3,0.2-0.9,0.7-1.6,0.6
			c-1-0.2-1.1-1.6-2.1-1.7c-0.9-0.1-1.3,1-1.9,0.8c-0.9-0.3-0.7-2.8-1.2-2.8s-0.6,2.5-1.8,2.8c-0.5,0.1-1-0.2-1.4-0.5
			c-2.7-1.8-13.6,4.5-24,7.5c-2.5,0.7-6.6,1.8-11.5,0.8c-1.6-0.3-2.7-0.7-3.1-0.9c-10.6-3.8-27.4,3.7-32.2-2
			c-2.7-3.2-0.2-8.7-2.3-9.4c-1.4-0.5-2.4,1.8-7,4.1c-1.9,1-4.3,2.1-7.1,2c-2.7-0.1-4.7-1.4-5.3-1.8c-9-5.3-29.1,6.5-56.8,0.5
			c-0.5-0.1-0.4-0.1-0.7-0.2c-20.6-4.3-32.2,11.2-40.3,6.1c-4.6-2.9-5.4-11-8-10.5c-1.1,0.2-1.5,1.7-4.1,3c-1.4,0.7-2.5,1-3.1,1
			c-5.2,0.3-7.3,11.3-13.7,12.4c-2.1,0.4-3.8-0.5-4.4-0.8c-5.1-2.5-5.9-9.9-8-9.7c-1.1,0.2-1.3,2.2-3.3,2.6c-0.8,0.2-1.5,0-1.8-0.1
			c-2.9-0.8-6.3,12.3-14,15.1c-4.1,1.5-9.4-0.1-12.6-2.3c-1-0.8-1.6-1.4-2-1.8c-7.6-7.6-22.8-4.1-26.7-11c-2.3-4,0.4-9.3-1.2-9.8
			c-1.7-0.5-6.3,5.3-8.3,5.3c-0.8,0.1-1.4-0.2-1.4-0.2c-0.5-0.3-0.9-0.6-1.1-0.8c-4.6-2.8-17.3,10.4-33.4,18.1
			c-8.7,4.1-13.8,4.6-17.8,4c-4.8-0.6-6.4-2.5-10.1-3.8c-16.6-5.8-30.1,12.2-42.1,5.8c-6.5-3.5-7.7-11.7-12.1-11
			c-4.1,0.7-6.5,8.4-8.2,7.8c-1.1-0.4-0.8-3.5-1.7-3.7c-0.6-0.1-0.8,1.1-1.9,1.6c-1.5,0.7-3.3-0.2-3.8-0.5
			c-4.9-2.2-19.9,2.2-19.9,2.2c-36.4,10.7-66.9,10-66.9,10c-17.7-0.4-18.1-4.1-32.3-2.6c-14.1,1.5-20.7,3.7-32.4,4.9
			c-3.3,0.3-8.4,0.7-14.7,0.6v12h540L8640,135L8640,135z"/>
		
			<linearGradient id="SVGID_00000129177769491746239450000016327523096663427246_" gradientUnits="userSpaceOnUse" x1="8100" y1="135" x2="8100" y2="100.1895">
			<stop  offset="0" style="stop-color:#DA6624"/>
			<stop  offset="1" style="stop-color:#DA6624;stop-opacity:0.4"/>
		</linearGradient>
		<path style="fill:url(#SVGID_00000129177769491746239450000016327523096663427246_);" d="M8555.5,124.4c-6.5,1-8.3,2.8-13.8,3.4
			c-6.2,0.7-15.3-0.3-27.4-8.6c-0.2,0-0.7,0.1-1.4,0c-2.5-0.5-3-3.5-4.3-3.5s-2.2,3.3-2.5,4.1c-2.9,8.2-33.5,14.7-59.5,5
			c0,0-18.5-5.9-27.4-2.5c-1.3,0.5-1.4,0.7-2.4,0.9c-8.7,2.2-12.6-7.6-25-9.7c-2.7-0.4-5.2-0.3-11.9-1.5c-4.7-0.8-7.7-3.4-8.3-3.8
			c-2.6-1.8-2.4-2.6-3.5-3c-4.6-1.7-8.2,12.6-18.7,18.3c-13.6,7.4-27.7-5.9-49.2,3.9c-0.1,0-0.2,0.1-0.3,0.1
			c-10.5,3.6-21.2,0.2-30.5-3.6c-18.2-7.5-41.7-20.5-47.1-17.1c-0.3,0.2-1.7,1.6-3,1.2c-1.4-0.4-1.4-2.6-2.5-3.1
			c-2-0.9-5.5,4.1-8.1,6.4c-11.3,10.3-32.8-4.3-49.1,1.8c-1.2,0.4-4.5,1.8-6.5,0.3c-2.8-2.2-0.4-8.5-2.4-9.4
			c-1.3-0.6-3.1,1.9-7.3,4.6c-3,1.9-5.4,2.7-8.6,3.8c-10.9,3.7-13.8-1.4-22.6,2c-5.7,2.2-8.2,5.9-13.7,5.3c-2.1-0.2-3.4-0.9-5-1.6
			c-12.4-5.4-22.7,2.5-28-2.9c-3.3-3.3-2.1-8.9-4.2-9.1c-2.3-0.3-4.2,6.4-7.2,6c-0.9-0.1-1-0.7-2-1.3c-3.6-2.2-8.2,2.1-13,2.4
			c-5.7,0.3-6.5-5.6-12.1-7.4c-13.2-4.3-27.4,22.1-45.9,18.2c-0.8-0.2-0.5-0.2-1.6-0.4c-18-4-26.5,6.1-33.5,1.6
			c-5.4-3.4-3.9-11.4-8.3-12c-3.8-0.5-6.4,5.4-9.5,4.5c-3.6-1.1-3.2-9.9-5.4-10c-2-0.1-3.3,7.2-6.3,7.2c-0.7,0-1.2-0.4-1.5-0.6
			c-4.6-2.4-15,11.2-20.9,8.9c-1.2-0.4-0.9-1-2.5-1.7c-3.3-1.3-5.5,0.8-9.2,0.1c-2-0.4-2.3-1.3-5.3-3.1c-1.4-0.8-2.6-1.4-3.6-1.8
			c-3.6-1.5-4.9-1.5-6.4-2.2c-5.7-2.7-3.9-12.8-8.3-14.2c-1.8-0.5-3.7,0.8-5.2,1.8c-11.8,7.6-15.5,3.7-26.3,9.6
			c-8.2,4.5-10.2,11.3-17.3,10.9c-1.8-0.1-1.7-0.5-3.9-1c-9.6-1.7-17.7,5.2-28.2,7.6c-1.4,0.3-4.3,0.8-6.6-0.6
			c-1-0.5-1.4-1.2-1.8-1.6c-3.7-4.1-14.2,2-26-0.8c-0.9-0.2-1.9-0.5-3.2-0.9c-0.9-0.3-1.9-0.7-2.3-0.9c-3.2-1.7-2.2-7.2-4.4-8.2
			c-1.6-0.8-3.2,1.9-7.2,4.3c-6.3,3.8-13.2,3.8-17.7,3.5c-4-0.2-6.8-0.6-9.1-1c-6-1.1-10-1.7-11.2-1.9c-15.4-2.6-26.1,12.8-46.7,9.4
			c-2.3-0.4-1.8-0.5-5.1-1.1c-13.9-2.6-24.8-0.6-30.8,0.4c-11.3,1.8-25.8,3.5-45.8,5.2h540h540c-31.4-0.9-48.6-4.3-58.5-7.6
			C8576.9,126,8567.4,122.5,8555.5,124.4z"/>
	</g>
	<g id="Mantle-6">
		
			<linearGradient id="SVGID_00000156566550691939717220000004627090655517256608_" gradientUnits="userSpaceOnUse" x1="7220.1567" y1="1109.5039" x2="7220.1567" y2="1056.7534" gradientTransform="matrix(0.9481 0 0 0.9481 174.2223 -916.9741)">
			<stop  offset="0" style="stop-color:#DA6624"/>
			<stop  offset="0.2346" style="stop-color:#F1A230"/>
			<stop  offset="0.4833" style="stop-color:#ED9B2E;stop-opacity:0.5"/>
			<stop  offset="0.7998" style="stop-color:#BF4818;stop-opacity:0.4"/>
			<stop  offset="1" style="stop-color:#BD4517;stop-opacity:0.3"/>
		</linearGradient>
		<path style="fill:url(#SVGID_00000156566550691939717220000004627090655517256608_);" d="M7534.2,128c-20.4-2-30.7-13.4-47.6-10.3
			c-3.4,0.6-6.3,1.7-10.9,1.1c-7.2-0.8-10.1-4.7-17.8-4.5c-3.9,0.1-3,1.1-6.3,1c-8.4-0.2-13.4-6.4-18.6-4.3
			c-1.3,0.5-1.4,0.8-2.4,0.8c-4.2,0.2-5.9-6.1-9.1-6.2c-3.2-0.2-3.2,5.7-7.5,9c-8.7,6.6-22.3-6.8-38.8,1.5c-0.6,0.3-0.4,0.2-0.8,0.4
			c-11.4,4.8-21.3-7-34.4-2.2c-1.4,0.5-1,0.6-1.8,0.8c-10.2,2.9-18.9-15.4-32.1-14.3c-2.4,0.2-2.9,0.9-5.2,0.6
			c-6.2-0.7-6.7-5.8-13.6-7.9c-3.6-1.1-5.5-0.6-7.6-1.4c-0.8-0.3-1.4-0.9-2-1.3c-3.6-2.5-4.1-3.8-5.2-3.9c-2.2-0.2-3.8,5-5.3,7.9
			c-5.4,10.5-23.2,18.2-35.9,15.5c0,0-11.9-2.6-17.7-0.3c-2.3,0.9-1.8,1.2-3.4,1.7c-9.9,3.3-18.3-11.8-32-9.5
			c-1.5,0.3-1.1,0.4-2.3,0.6c-11.4,1.6-16.5-12.8-27.3-12.5c-6.1,0.2-7.7,5-12.6,3.4c-5.4-1.7-6.1-8.4-9.7-8.1
			c-3.4,0.3-7.5,6.8-8.2,8.5c-0.1,0.3-0.6,1.4-1.6,2.2c-0.3,0.3-0.6,0.4-1.1,0.6c-7.2,2.7-20.9-7.5-24-5.8c-0.2,0.1-0.9,0.6-1.8,0.5
			c-1.2-0.2-1.7-1.4-2.3-1.3c-1,0.2-1,3-1.5,3c-0.6,0-0.8-4.2-1.9-4.4c-0.8-0.1-1.2,1.7-2.7,1.9c-0.9,0.1-1.7-0.4-1.9-0.5
			c-3.1-1.8-14.2,3.9-24.8,6.9c-2.3,0.7-6.1,1.7-10.7,0.9c-1.5-0.3-2.6-0.7-3.1-0.9c-9.9-4-25.8,3.5-30.2-1.9c-2.4-3,0-7.9-2-8.7
			c-1.3-0.5-2.3,1.5-6.2,3.3c-0.3,0.1-4,2.1-8.4,1.8c-4.5-0.3-7.8-1.6-8-1.7c-13-5.3-37.8,5.4-49.3,1.9c-0.9-0.3-4.6-1.4-9.9-1.9
			c0,0-2-0.2-4-0.2c-6.2,0-28.5,11.5-34.7,6.4c-3.2-2.7-1.9-9.6-4-9.8c-1.2-0.1-1.9,1.9-5.1,3.1c-1.1,0.4-1.8,0.6-2.3,0.6
			c-4.3,0-8.1,11.2-14.8,12.2c-2.3,0.3-4.1-0.7-4.4-0.8c-4.4-2.4-4.5-8.9-6.9-8.9c-1,0-1.2,1.1-3.6,1.9c-1,0.4-2,0.5-2.6,0.5
			c-3.8-0.4-7.5,11.1-15.1,14.4c-1,0.4-10,2.4-14.1-2.2c-0.7-0.8-0.8-1.2-1.3-2.1c-4.6-7.4-18.5-2.3-23.7-9
			c-3.3-4.2-1.1-10.7-3.3-11.1c-1.8-0.3-3.1,3.9-7.5,4.9c-2.2,0.5-3.9,0-4.7-0.3c-8.8-3.1-25.5,19.8-42.9,21.8c-3.8,0.5-7.6,0-7.6,0
			c-6-0.7-10-3-11.8-3.9c-17.2-8.6-31.8,11.2-40.6,5.1c-4.7-3.3-4.4-9.7-8.3-9.9c-4.5-0.2-8.9,8.1-10.3,7.2
			c-0.7-0.4-0.1-2.5-0.8-2.8c-0.5-0.2-1.1,0.6-1.5,0.9c-2.2,1.9-6.6,0.7-7.6,0.5c-5.8-1.4-23.8,3.2-31.8,5c-9.2,2.2-22.8,4.6-42,6.2
			c-4.2,0.6-7.9,0.9-11.2,0.9c-10.6,0-17.7-2.5-28-3c-1.6-0.1-3.7-0.1-6.7,0.1c-8.1,0.4-9.9,1.8-19.1,3.1c-6.2,0.9-11.5,1.2-19,1.7
			c-2.1,0.2-4,0.3-5.4,0.3V135c360,0,720,0,1080-0.1v-9C7549,129.1,7540.3,129.1,7534.2,128z"/>
		<g>
			
				<linearGradient id="SVGID_00000016772813988665240630000006483599261679521420_" gradientUnits="userSpaceOnUse" x1="6481.75" y1="135" x2="6481.75" y2="135">
				<stop  offset="0" style="stop-color:#DA6624"/>
				<stop  offset="1" style="stop-color:#DA6624;stop-opacity:0.4"/>
			</linearGradient>
			<path style="fill:url(#SVGID_00000016772813988665240630000006483599261679521420_);" d="M6483.5,135L6483.5,135
				c-1.1,0-2.3,0-3.5,0H6483.5z"/>
			
				<linearGradient id="SVGID_00000139282845784334357670000004879588734496932506_" gradientUnits="userSpaceOnUse" x1="7021.7476" y1="135" x2="7021.7476" y2="100.7946">
				<stop  offset="0" style="stop-color:#DA6624"/>
				<stop  offset="1" style="stop-color:#DA6624;stop-opacity:0.4"/>
			</linearGradient>
			<path style="fill:url(#SVGID_00000139282845784334357670000004879588734496932506_);" d="M7470.7,127.1c-0.6,0.2-0.8,0.4-0.8,0.4
				c-0.2,0.1-0.3,0.2-0.7,0.4c-11.5,5-30.6-9.4-35.6-8.3c-0.4,0-1.1,0-1.8-0.2c-2.5-0.7-3.3-2.9-4.6-2.8c-1.3,0.1-2,2-2.2,2.4
				c-2.4,5.4-30.5,14.3-59,5.1c-3.8-1.2-17.3-5.3-26-1.6c-0.7,0.3-1.5,0.8-2.7,1.1c-5.9,1.2-9.4-4.2-17.4-7.6
				c-4-1.7-7.4-2.1-14.2-2.9c-8.2-0.9-13-0.2-16.9-3.8c-2.1-2-1.9-3.5-3.4-3.9c-4.4-1.3-6.7,10.8-16.1,16.5
				c-12.3,7.5-29.2-0.8-45.8,4.9c-0.5,0.1-1.1,0.4-2,0.6c-9.5,2.5-17.9,0-21.9-1.3c-20.1-6.4-50.8-21-57.9-18
				c-0.4,0.2-2.1,1.1-3.7,0.4c-2.1-0.9-2-3.7-3.3-4.1c-1.8-0.6-4.2,4.2-6.7,6.7c-9.1,9.3-25.6-4.5-45.9,1.8
				c-2.5,0.8-6.9,2.4-9.7,0.3c-3.7-2.7-1.7-9.2-4.2-10.1c-2.4-0.8-4.5,4.7-12.6,8.3c-1.8,0.8-4.2,1.9-7.5,2c-1.9,0-2.6-0.2-5.2-0.3
				c-11.8-0.4-13.9,5.8-25,6.4c-8.2,0.5-7.4-3-19.2-3.1c-11.4-0.1-12.2-0.1-13.7-1.3c-3.5-2.8-2.4-8.3-4.4-8.5c-2-0.3-3.7,5.6-7,5.4
				c-0.7,0-1.1-0.3-1.6-0.6c-3.4-2.2-9.3,1.2-13.3,1.8c-6.2,0.9-7.8-5-14.5-6.8c-15.7-4.2-29.6,22.7-48.1,17c-0.5-0.1-0.4-0.1-1-0.3
				c-15.6-5-25.5,5.8-31.5,1.3c-3.8-2.9-1.9-8.8-5.5-9.9c-3.8-1.2-7.5,4.6-10.4,3.2c-3.1-1.5-1.8-9.2-3.7-9.5
				c-1.8-0.3-6.4,6.1-8,6.7c-0.5,0.2-1,0.3-1,0.3c-0.5,0-1,0-1.4-0.1c-8.2-0.4-15.5,10.5-21.1,8.3c-0.9-0.4-0.4-0.5-1.7-1.3
				c-4.6-2.5-8.4,0.6-13.1-1.4c-1.1-0.5-0.5-0.5-3.6-2.7c-1.6-1.2-2.9-1.9-3.9-2.5c-2.8-1.5-4.3-2.3-5-2.7
				c-5.2-2.9-3.1-10.8-6.3-11.9c-1.9-0.6-4.2,1.5-5.7,2.8c-12.4,10.4-22,2.9-33.6,12.8c-2.6,2.2-6.7,6.7-12.2,6.2
				c-1-0.1-1.4-0.3-2.3-0.4c-9.9-2.2-22.5,6.2-30.4,6.7c-1.9,0.1-3.5-0.2-3.7-0.3c-2.5-0.6-4.1-1.6-4.7-2c-5.4-3.3-13.1,2.2-24-0.6
				c-2.4-0.6-3.6-0.9-4.6-1.6c-3.3-2.3-3.3-5.9-5.3-6.1c-0.9-0.1-1.9,0.8-4,2.5c-1.5,1.2-2.4,2.2-2.5,2.3
				c-7.1,3.7-19.5,1.9-19.5,1.9c-3.9-0.6-6.8-1.1-9.1-1.5c-6-1.1-9.5-1.7-10.2-1.8c-14.4-2.4-31.1,11-53.8,8.3
				c-5-0.6-3.4-1.1-9.1-1.9c-18-2.5-27.1,4.1-50.2,6.2c-2.5,0.2-6.1,0.5-10.5,0.6c358.8,0,717.7-0.1,1076.5-0.1
				c-28.4-0.1-45.3-3.3-56-7C7504,127.9,7484.3,121.3,7470.7,127.1z"/>
		</g>
	</g>
	<g id="Mantle-5">
		
			<linearGradient id="SVGID_00000148622025837469217990000006746440063609356440_" gradientUnits="userSpaceOnUse" x1="6081.0938" y1="1109.5039" x2="6081.0938" y2="1057.2882" gradientTransform="matrix(0.9481 0 0 0.9481 174.2223 -916.9741)">
			<stop  offset="0" style="stop-color:#DA6624"/>
			<stop  offset="0.2346" style="stop-color:#F1A230"/>
			<stop  offset="0.4833" style="stop-color:#ED9B2E;stop-opacity:0.5"/>
			<stop  offset="0.7998" style="stop-color:#BF4818;stop-opacity:0.4"/>
			<stop  offset="1" style="stop-color:#BD4517;stop-opacity:0.3"/>
		</linearGradient>
		<path style="fill:url(#SVGID_00000148622025837469217990000006746440063609356440_);" d="M6480,135c0-3,0-6,0-9
			c-10.9,3.2-19.6,3.2-25.4,2c-18.9-1.9-23.2-10.8-40.7-9.8c-8,0.5-12,2.6-18.8,0.2c-4.3-1.5-8.1-4.3-14.2-3.8
			c-3.5,0.2-2.9,1.1-6.1,1.4c-8.8,0.7-13.3-6.4-20.1-4.3c-1.1,0.4-1.7,0.7-2.4,0.9c0,0-0.4,0.1-0.8,0.1c-2.4,0.1-9.6-6.5-12.9-5.7
			c-2.2,0.6-1,4.2-3.4,6.8c-5.8,6.2-20.6-5.4-35.9,2c-1.4,0.7-1.5,0.9-2,1.2c0,0-0.4,0.3-0.9,0.5c-1.3,0.6-20.6-7.1-35.1-1.5
			c-0.5,0.1-0.4,0.1-0.6,0.2c-9.6,3-17.5-14-32-14c-2.6,0-4.4,0.5-7.4-0.4c-5.7-1.6-5.4-5.3-10.5-6.7c-4.1-1.1-7.3,0.2-11.9-1.5
			c-0.6-0.2-1.6-0.9-2.9-1.7c-4-2.6-4.8-4.1-5.9-4c-2,0.3-1.5,5.6-3.6,9.7c-5.5,10.9-29,13.8-38,12.1c-1.6-0.3-6.5-1.3-11.6,0.8
			c-2.6,1.1-2.5,1.8-4.3,2.5c-9,3.5-19.7-12.9-32.3-9.2c-0.9,0.3-0.6,0.3-1.4,0.5c-9.8,2.7-15.5-12.5-27.6-12.8
			c-7.2-0.2-8.6,4.5-14.9,2.7c-7.2-2.1-9.6-9.7-12.8-8.6c-2.1,0.8-3.5,4.6-6.1,11.6c-0.2,0.4-0.2,0.6-0.3,0.7
			c-3,3.4-24-6.9-27.1-5.8c-0.2,0.1-1.3,0.6-2.3,0.2c-0.5-0.2-0.8-0.6-1-0.5c-0.5,0.2-0.3,1.9-0.5,2c-0.3,0.1-0.7-3-2.1-3.3
			c-0.8-0.1-1.2,0.6-2.5,1c-1.7,0.5-3.1-0.1-3.7-0.3c-3.8-1.1-12.2,3.3-23.7,6.1c-4.2,1-7.4,1.5-11.1,1.3c-2.8-0.1-4.7-0.6-6.2-0.9
			c-13.4-2.7-23.3,2.4-26-1.8c-1.7-2.6,1-6.4-0.7-7.5c-1.1-0.7-2.5,0.6-5.6,2.1c-1,0.5-7.8,3.7-14,2.9c-3.5-0.4-5.4-1.8-7.5-3
			c-11.7-6.6-24.3,3.4-50.1,2c-9.7-0.5-9.3-2-15.9-1.5c-8.2,0.6-23,9.3-28.6,5.1c-3.3-2.4-2.8-8.8-4.6-8.7c-1,0-1.3,1.9-3.7,3.2
			c-1.1,0.6-2,0.8-2.4,0.8c-4.7,0.4-8.7,10.7-15.6,11.5c-0.7,0.1-2.8,0.3-4.7-0.9c-3.5-2.3-2.8-7.8-5-8.2c-1.1-0.2-1.5,1-4,2.1
			c-2.3,1-4.2,1-5.1,1.1c-5.8,0.6-7.1,9.4-14.4,12.4c-6,2.5-14.4,0.3-18.1-4.5c-0.2-0.3-0.2-0.3-0.4-0.6c-5.4-7-15.9-2.4-19.8-7.5
			c-2.8-3.6,0-9.2-2-9.9c-1.6-0.6-3.3,3.5-8,4.8c-2.8,0.8-5.1,0.3-6.3-0.1c-9.3-2.9-23.5,15.5-41.6,19.8c-15.4,3.6-17-6.7-36-2.8
			c-16.1,3.3-21.6,7.4-26.2,4.2c-4-2.8-2.8-8.9-5.9-9.4c-3.9-0.6-8,8.3-11,7.1c-0.5-0.2-0.7-0.6-0.9-0.8c-3.4-4.4-22.1,0.4-33.6,2.7
			c-11,2.2-9.4,1-20.8,3.1c-14.1,2.7-19.1,4.8-33.9,5.4c-26.2,1-34.7-4.9-51.4-1.6c-2.6,0.5-13,2.7-27.1,3.5
			c-2.6,0.1-4.7,0.2-6.1,0.2V135h540H6480z"/>
		
			<linearGradient id="SVGID_00000161603159662020553240000001778872678417344932_" gradientUnits="userSpaceOnUse" x1="5940" y1="135" x2="5940" y2="102.0108">
			<stop  offset="0" style="stop-color:#DA6624"/>
			<stop  offset="1" style="stop-color:#DA6624;stop-opacity:0.4"/>
		</linearGradient>
		<path style="fill:url(#SVGID_00000161603159662020553240000001778872678417344932_);" d="M6443.6,131.1
			c-8.5-1.3-16.6-2.7-24.4-4.3c0,0-12.7-2.4-22.2-0.3c-2.3,0.5-3.4,1-3.4,1c-1.2,0.5-1.6,0.8-3.7,1.2c-14.4,2.1-28.2-9.3-34.7-8.1
			c-0.6,0.1-2,0.1-3.6-0.5c-2.7-1.1-3.1-3.3-4.4-3.2c0,0-1,0.1-3.8,6.2c0,0-4.5,2.4-4.7,2.5c-4.3,2-20.3,5.7-52.2-1
			c-9.7-2-16.3-4-22.3-1.9c-1,0.4-4,1.6-7.8,1.1c-3.6-0.5-6-2.3-6.9-2.9c-12-8.2-32.6-1.7-40.1-12.1c-0.9-1.2-2.2-3.5-3.7-3.3
			c-1.9,0.2-2.4,4.2-3.8,7.3c-3,6.7-10.4,9.6-14.8,11.4c-13.9,5.5-26-1.9-37.8,3.2c-0.7,0.3-2.7,0.9-5.4,1.4
			c-0.4,0.1-6.1,1.1-12.5,0.1c-17-2.7-56.6-22.6-68.3-19.5c-0.8,0.2-3.5,1-5.8-0.3c-2.3-1.4-2.4-4.1-3.8-4.3c-1.8-0.3-2.9,4.1-5,6.8
			c-7.4,9.1-26.2-4.7-45.9,1.8c-2.2,0.7-6.9,2.5-9.7,0.3c-3-2.4-1.1-7.7-3.4-8.7c-2.7-1.2-6,5.9-13.9,8.2c-3,0.8-7.8,1.3-9.5,1.4
			c-0.8,0-1.5,0-1.5,0c-1-0.1-1.6-0.3-3.4-0.4c-10.2-0.6-13,3.8-22.6,5.1c-11,1.5-13.2-3.4-26.5-2.7c-3.4,0.2-5.1,0.2-6.6-1.1
			c-2.9-2.5-1.5-7.4-3.3-8c-2.1-0.7-5.1,5.8-8.5,4.9c-0.2-0.1-0.3-0.1-0.6-0.3c-3.4-1.9-11.6,0.9-16,1.1c-6.1,0.2-6.7-4.4-12.8-6
			c-15.4-4.1-29.2,20.2-49.6,16.8c-1.8-0.3-1.5-0.5-3.8-0.9c-14.9-2.5-22.7,4.6-27.7,0.8c-3.7-2.9-1.6-8.5-4.9-9.6
			c-3.5-1.2-7.4,4.9-10.1,3.6c-2.7-1.4-1-8.6-2.9-9.1c-1.8-0.5-3.6,6-9.2,7c-0.8,0.2-1.3,0.1-2.1,0.1c-9-0.5-18.3,10.2-22.6,7.6
			c-0.6-0.3-0.2-0.4-1.1-1.1c-4-3.4-10.1,0.8-14.6-2.3c-0.9-0.7-0.4-0.7-1.9-2.1c-1-1-7.7-3.2-10.3-5.4c-3.8-3.3-1.3-9.1-4.2-10.4
			c-2.2-0.9-4.9,1.6-7.5,3.5c-10.6,7.7-15.7,1.3-27.5,8c-2.1,1.2-16.7,9.8-19.4,9.9c-3.4,0.1-3.2-0.8-6.9-0.5
			c-8,0.4-10.2,4.7-19.1,5.8c-1.3,0.2-2.5,0.2-3.6,0.2c-0.7,0-2.1-0.1-3.8-0.4c-3-0.5-5.1-1.5-5.6-1.7c-7.3-3.1-23,3.4-27.7-2.5
			c-1.9-2.3-1.2-5.4-3-5.8c-1.3-0.3-2.2,1.3-6.4,3.4c0,0-0.7,0.6-2.5,1.1c-13.7,4.2-26,2.5-26,2.5c-7.4-1.1-7.7-2.1-13.2-3
			c-22.7-3.5-34.7,11.7-58.3,6.6c-1.5-0.3-1.8-0.4-2.6-0.6c-0.3-0.1-0.7-0.2-1.2-0.3c-14.5-3.5-25.9,1-36.3,3.5
			c-4.7,1.1-8.2,1.7-11.2,2.1c-3.3,0.4-6.2,0.6-8.2,0.7c-3.7,0.2-6.9,0.3-9.3,0.3h540h540c-2.9-0.2-6.7-0.5-11.2-0.9
			C6463,133.6,6454.2,132.7,6443.6,131.1z"/>
	</g>
	<g id="Mantle-4">
		
			<linearGradient id="SVGID_00000129924585681474591430000006358246494199582388_" gradientUnits="userSpaceOnUse" x1="4942.0317" y1="1109.5039" x2="4942.0317" y2="1057.2837" gradientTransform="matrix(0.9481 0 0 0.9481 174.2223 -916.9741)">
			<stop  offset="0" style="stop-color:#DA6624"/>
			<stop  offset="0.2346" style="stop-color:#F1A230"/>
			<stop  offset="0.4833" style="stop-color:#ED9B2E;stop-opacity:0.5"/>
			<stop  offset="0.7998" style="stop-color:#BF4818;stop-opacity:0.4"/>
			<stop  offset="1" style="stop-color:#BD4517;stop-opacity:0.3"/>
		</linearGradient>
		<path style="fill:url(#SVGID_00000129924585681474591430000006358246494199582388_);" d="M5376.7,128.1
			c-18.2-1.2-21.4-8.2-40.2-8.6c-9.1-0.2-12.6,1.4-19.9-0.9c-3.5-1-7.7-2.9-14.1-2.9c-4.2,0-3.5,0.9-7,0.8c-7.6-0.3-10-4.2-17.4-3.7
			c-2.1,0.1-2.6,0.5-3.4,0.6c0,0-0.5,0.1-1.2,0.1c-2.1-0.1-14.5-8.8-17.6-7.1c-1.8,1,1,4.9-1,7.7c-3.8,5.4-17.9-3.5-36.9,3.7
			c-0.4,0.1-0.3,0.1-0.5,0.2c-12.1,3.9-19.8-5.7-32.6-2.9c-2.8,0.5-2,0.9-3.9,1.2c-11.3,1.5-17.4-12.9-30.8-13.1
			c-1.9,0-3,0.2-5.5-0.2c-5.8-1-6.5-3.7-12.2-6.2c-6.6-2.9-8-0.6-17-4.6c-4-1.8-5.7-3.5-7.4-2.6c-2.2,1.2-0.7,4.8-2.1,8.3
			c-3.9,10.1-28.7,12.9-37.4,11.7c-1.5-0.2-6.1-0.8-11,1.3c-2.7,1.2-2.5,1.8-4.2,2.5c-8.2,3.3-16.6-10.6-31.6-9.2
			c-1.6,0.2-1.2,0.3-2.6,0.4c-11.7,0.8-14.9-10.5-26.1-11.9c-6.6-0.8-9.4,2.7-13.8,2.6c-0.4,0-1.7-0.2-3.3-0.7
			c-9.1-2.7-12.4-10.2-14.9-9.1c-1.7,0.7-2.6,5.3-4,12c0,0.1-0.1,0.4-0.3,0.7c-0.1,0.1-0.1,0.1-0.1,0.1c-3.5,4-25.9-8.7-29.6-4.3
			c-0.4,0.3-0.9,1.4-1.6,1.3c-1-0.1-1-2.3-2-3.6c-1.8-2.3-6.5-1.3-10.4-0.3c-9.7,2.4-11.8,3.8-18.2,5.3c-3.1,0.8-7.9,1.9-14.1,1.9
			c-6.3,0.1-6.4-1-13.8-1.4c-9.7-0.5-14.7,1.1-16-1.4c-1.2-2.2,1.9-5.5,0.7-6.6c-0.9-0.8-2.8,0.9-6.7,2.4c0,0-9.3,3.6-18.3,1.1
			c-0.3-0.1-0.5-0.2-0.7-0.2c-2.4-0.7-3.9-1.4-4.8-1.7c-14.8-6.2-30.2,4.1-56.3,1.6c-0.2-0.1-1-0.2-2.1-0.3c0,0-4.3-0.5-8.6-0.4
			c-9.2,0.3-23.3,7-27.3,2.5c-1.9-2.1-0.8-6.2-2.2-6.4c-1.1-0.2-1.8,2-4.7,3.4c-1.2,0.6-2.2,0.8-2.8,0.9c-5.8,0.8-9.2,10-16.6,10.4
			c-1.1,0.1-2.3,0.2-3.4-0.5c-2.7-1.7-1.4-6.5-3.5-7.3c-1.1-0.5-2,0.8-4.9,1.9c-3.1,1.2-5.1,1-6.9,1.3c-6.4,1-6.4,7.2-13.4,10.5
			c-6.6,3.2-16,2.1-18.6-2.2c-0.3-0.4-0.2-0.4-0.5-1c-3.3-6.4-15.3-2.5-19.2-8.2c-2.4-3.6,0.2-8.5-1.8-9.3c-1.7-0.7-3.5,2.6-8.2,4.1
			c-3.4,1.1-6.3,0.6-7.5,0.4c-9.5-1.9-22.5,13.3-39.2,18.3c-19.9,6-27.1-7.8-46.8-0.1c-10.2,4-13.8,4.3-16.6,2.5
			c-3.6-2.4-2.2-7.8-4.9-8.5c-3.5-0.9-7.1,7.5-13.2,6.7c-0.9-0.1-1.5-0.4-1.8-0.5c-7.3-3.4-58.8,5.9-58.8,5.9
			c-12.4,2.3-34.1,6-57.3,3.3c-3-0.4-4.4-0.6-7.6-0.9c-13.4-0.9-20.8,1.7-42,3.8c-1.9,0.1-3.5,0.3-4.5,0.4V135c360,0,720,0,1080,0
			v-9.1C5390.2,128.3,5382.3,128.4,5376.7,128.1z"/>
		
			<linearGradient id="SVGID_00000136383327570801641100000008336861236420754875_" gradientUnits="userSpaceOnUse" x1="4860" y1="135" x2="4860" y2="101.18">
			<stop  offset="0" style="stop-color:#DA6624"/>
			<stop  offset="1" style="stop-color:#DA6624;stop-opacity:0.4"/>
		</linearGradient>
		<path style="fill:url(#SVGID_00000136383327570801641100000008336861236420754875_);" d="M5352.2,131c-4.9-1-9.6-2-14-3.1
			c-3.1-0.8-5.7-1.2-7.6-1.5c0,0-11.5-1.6-18.7,1.4c-1.6,0.6-1.2,0.6-2.3,1c-12.4,4.4-27.8-9.4-34.7-8.1c-0.6,0.1-2,0.2-3.6-0.5
			c-2.4-1-2.7-2.9-3.9-2.8c-1.6,0.1-1.6,3.2-4.3,5.7c-1.5,1.5-3.2,1.9-4.7,2.5c-4.3,1.9-20.3,5.7-52.2-1c-9.7-2-16.3-4-22.3-1.9
			c-1,0.4-4,1.5-7.8,1c-3.6-0.5-6-2.3-6.9-2.9c-12-8.2-32.2-1.7-40.1-12.1c-0.9-1.2-2.3-3.4-3.9-3.2c-1.9,0.3-3,4-3.6,7.2
			c0,0-4.9,7-14.8,11.3c-13.2,5.7-25.4-1.1-37.8,3.1c-0.7,0.3-2.7,0.9-5.4,1.4c-0.4,0.1-6.1,1.1-12.5,0.1
			c-17-2.7-56.6-22.4-68.3-19.4c-0.8,0.2-3.7,1.1-5.8-0.3c-2.3-1.6-1.8-4.9-3.1-5.2c-1.6-0.4-2.9,4.7-5.7,7.7
			c-8.4,9.2-25.8-4.7-45.9,1.8c-2.2,0.7-7.2,2.6-9.7,0.3c-2.8-2.5-0.6-8.2-2.9-9.3c-1.2-0.6-2.4,0.6-6.1,3c0,0-10.7,6.9-17.9,7.2
			c-2.1,0.1-2.4-0.2-4.9-0.4c-10.2-0.7-13,3.7-22.6,5c-11,1.5-13.2-3.4-26.5-2.7c-3.3,0.2-5,0.2-6.6-1.1c-2.9-2.3-2-6.6-3.9-7.1
			c-2.2-0.6-4.8,5-7.9,4.1c-0.2-0.1-0.3-0.1-0.6-0.3c-3.4-1.8-11.6,0.9-16,1.1c-6.1,0.2-6.7-4.4-12.8-6
			c-15.4-4.1-29.2,20.1-49.6,16.7c-1.8-0.3-1.5-0.5-3.8-0.9c-14.9-2.5-22.7,4.6-27.7,0.8c-3.7-2.8-1.6-8.5-4.9-9.5
			c-3.6-1.1-7.5,4.9-10.1,3.6c-2.7-1.4-0.8-8.9-2.6-9.4c-1.7-0.5-3.7,6.3-9.5,7.3c-0.8,0.2-1.2,0.1-2.1,0.1
			c-9-0.5-18.3,10.2-22.6,7.6c-0.6-0.3-0.2-0.4-1.1-1.1c-4-3.3-10.1,0.7-14.6-2.3c-0.9-0.7-0.4-0.7-1.9-2.1c-1.1-1-7.9-3-10.3-5.4
			c-3.4-3.4-0.2-9.6-2.8-11c-1.7-0.9-4.5,1.2-5.6,2c-11.3,8.2-17.7,2.1-30.8,10.2c0,0-15.8,9.8-19.4,9.9c-3.4,0.1-3.2-0.8-6.9-0.5
			c-8,0.5-10.2,4.8-19.1,5.8c-3.2,0.4-5.6,0.1-7.4-0.2c-2.9-0.5-4.9-1.4-5.6-1.7c-4.2-1.8-21.6,3-27.7-2.5c-3.1-2.7-2.8-7.7-4.5-7.6
			c-1.2,0.1-1.4,2.5-4.1,4.6c0,0-1.1,1.1-3.2,1.7c-13.7,4.2-26,2.5-26,2.5c-7.4-1-7.7-2-13.2-2.9c-22.7-3.5-34.7,11.6-58.3,6.6
			c-1.5-0.3-1.8-0.4-2.6-0.6c0,0-0.5-0.1-1.2-0.3c-8.7-1.7-31.1,2.7-31.1,2.7c-14.6,2.8-20.1,3.5-25.6,3.8c-3.4,0.1-6.1,0.1-8,0.1
			h540h540c-1.7,0-27.7-0.5-40.7-2.7C5355.4,131.6,5352.2,131,5352.2,131z"/>
	</g>
	<g id="Mantle-3">
		
			<linearGradient id="SVGID_00000089540844506879213460000004420502136179317663_" gradientUnits="userSpaceOnUse" x1="3802.9688" y1="1109.5039" x2="3802.9688" y2="1058.8118" gradientTransform="matrix(0.9481 0 0 0.9481 174.2223 -916.9741)">
			<stop  offset="0" style="stop-color:#DA6624"/>
			<stop  offset="0.2346" style="stop-color:#F1A230"/>
			<stop  offset="0.4833" style="stop-color:#ED9B2E;stop-opacity:0.5"/>
			<stop  offset="0.7998" style="stop-color:#BF4818;stop-opacity:0.4"/>
			<stop  offset="1" style="stop-color:#BD4517;stop-opacity:0.3"/>
		</linearGradient>
		<path style="fill:url(#SVGID_00000089540844506879213460000004420502136179317663_);" d="M4320,126.2c-9.4,2.6-16.9,2.5-22,1.9
			c-4.9-0.7-7-1.5-23.9-5.2c-2.9-0.6-6.3-1.2-10.6-1.6c-13.4-1.3-13.9,0.9-21.5-1.4c-3.5-1.1-9.6-3.5-17.8-2.6
			c-2.3,0.2-1.8,0.4-3.5,0.5c-9,0.5-12.9-5.3-21.3-4.5c-1.7,0.1-1.9,0.4-2.5,0.6c0,0-0.6,0.2-1.3,0.2c-1.7,0.1-17.6-8.4-20.2-6.3
			c-1,0.9,1,2.9,0,5.1c-2.8,5.9-24.5,4-29.1,4.5c-2.1,0.3-3.2,0.6-3.2,0.6c-1.1,0.2-1.3,0.4-3.3,0.6c-12.2,1.4-17.6-3.4-30.8-3
			c-5.7,0.2-4.4,1.1-7.9,0.9c-12.9-0.9-16.7-12.4-28-12.3c-1.7,0-4.6,0.2-8.3-1c-0.8-0.3-1.5-0.6-2.1-0.9c-2.4-1.2-3.9-2.5-4.3-2.8
			c-3.7-3.2-12.3-2.9-23-7.1c-4.8-1.9-7.2-3.6-8.7-2.4c-1.8,1.4,0.5,4.6-0.6,8.2c-2.9,9.3-24.6,12.1-33,11.3c-2-0.2-5-0.6-9,0.1
			c-6.8,1.3-7.1,3.9-11.4,4.6c-8.8,1.3-12.8-9.3-25.6-9.4c-3.4,0-2.7,0.8-6,0.7c-11.5-0.3-13.6-9.5-24.2-11.8
			c-7.4-1.6-10.5,2.1-15.9,2.2c-0.9,0-2.7-0.3-4.9-0.8c-10.3-2.5-14.2-9.3-16.9-8c-2.8,1.4,1,8.9-2.4,11.7
			c-5.1,4.2-22.2-5.9-27.7-3.5c-0.4,0.2-1.8,0.9-3.5,0.6c-1.9-0.3-3.2-1.4-3.5-1.7c-3.8-3.2-21.1,1-34.6,4.2c-3.4,0.7-11,2.4-19.2,1
			c-0.6-0.1-0.5-0.1-1.4-0.3c-0.8-0.2-13.6,0.8-15.7-2.6c-1.2-1.9,1.4-4.8,0.3-5.7c-1-0.8-3.3,1.2-6.4,2.6c0,0-10.2,5.2-24.2-1.2
			c-1.1-0.5-1.4-0.6-2.1-1c-18-7.9-42.2,5.9-63.7,2c-1.3-0.2-2.3-0.5-4.1-0.7c-11.9-1.3-19,6.2-22.3,3.4c-2.4-2-0.5-7.4-2-7.8
			c-1.2-0.3-2.2,3.1-5.9,4.7c-1.7,0.7-2.4,0.5-4.4,0.7c-6.1,0.5-7.4,6.7-15.2,8.8c-2.3,0.6-3.2,0.6-3.8,0.2
			c-2.6-1.5-1.1-7.2-2.8-7.8c-1.1-0.4-1.8,2.1-4.7,3.6c-4.1,2.2-7.7,0.2-12.7,2.2c-4.2,1.7-3.1,4.2-7.7,7.2
			c-6.1,4-15.7,4.6-20.2,0.5c-2-1.9-1-2.8-3.1-5s-13-1.8-15.8-5.7c-2.2-3.1,1.5-7.9-0.4-9.2c-1.6-1.1-4.4,2-9.6,3.9
			c-5.3,1.9-9.5,1.6-11.9,1.5c-12.2-0.7-18.5,12.2-34.9,17.1c-21.6,6.6-35.2-8.4-51.8,0.2c-1.9,1-8.5,4.6-11.6,2.2
			c-2.6-2-0.7-6.8-2.9-7.9c-2.9-1.5-7.4,6.3-15.3,6.1c-2,0-3.4-0.6-4.1-0.8c-12.7-4.6-77,13-117.7,10c-3.1-0.2-9.1-0.9-17.6-0.7
			c-13.4,0.1-24.6,1.9-32.6,3.6V135c360,0,720,0,1080,0L4320,126.2L4320,126.2z"/>
		
			<linearGradient id="SVGID_00000045612405549030425090000011528712415099940252_" gradientUnits="userSpaceOnUse" x1="3781.3489" y1="135" x2="3781.3489" y2="101.8735">
			<stop  offset="0" style="stop-color:#DA6624"/>
			<stop  offset="1" style="stop-color:#DA6624;stop-opacity:0.4"/>
		</linearGradient>
		<path style="fill:url(#SVGID_00000045612405549030425090000011528712415099940252_);" d="M4259.1,128.1c0,0-13.6-4.7-24.3-1.3
			c-4.2,1.4-3.3,2.1-6.4,2.8c-12.5,2.6-22.2-10.2-31.6-8.2c-1.3,0.3-3.9,0.8-6.4-0.6c-2-1.1-2.4-2.6-3.7-2.6c-1.6,0-2.1,2.3-4.6,5
			c0,0-1.4,1.5-4.8,3.7c-4.1,2.6-18.8,3.8-37.6-0.9c0,0-25.9-4.5-34.8-2.2c-0.3,0.1-1.1,0.3-2.3,0.5c-5.7,0.6-10.3-1.9-11.7-2.7
			c-13.6-7.8-32.4-1.2-42.3-12.6c-1.1-1.2-3.4-4.1-5-3.6s-1,4.2-2,7.3c-2.3,7.2-12.5,10-16.8,11.3c-11.6,3.6-19.7-0.6-32.8,2.9
			c-0.8,0.2-1.9,0.6-3.7,0.9c0,0-7.8,1.5-16.2,0.4c-19.5-2.6-52.5-22-66.7-18.7c-1.3,0.3-5.4,1.4-8.5-0.7c-2.1-1.4-2.5-3.5-4-3.6
			c-2-0.1-3,3.7-4.8,6c-8.1,10.1-36.8-4.4-50.3,1.5c-0.8,0.3-3.8,1.8-5.4,0.5c-2-1.6,0.4-6.5-1.3-7.6c-1.3-0.8-3.3,1.4-7.6,3.7
			c-5.3,2.7-10.2,3.5-17.9,4.7c-1.2,0.1-2.4,0.3-4.1,0.4c-2.5,0.1-3.6-0.2-8.2,0.5c-8.4,1.2-8.5,2.8-15.1,3.9
			c-10,1.7-25.8-1.8-31.1-3.3c-0.8-0.2-2-0.5-2.7-1.6c-1.6-2.2,0.5-5.3-0.5-6c-1.3-1-6.7,3.9-10.1,4c-1.9,0.1-2.1-0.4-4.7-0.9
			c-5.3-1.1-8.5,1.1-12.3,1.7c-6.6,0.8-8.8-4.3-15.3-6c-15.9-4-29.5,19.9-49.3,16.5c-1.6-0.2-2.3-0.5-3.6-0.8c0,0-0.9-0.2-1.8-0.3
			c-4.3-0.7-19.6,4.4-23.7,0.2c-2-2,0-4.9-2.1-6.4c-3.4-2.5-10.5,4-13.1,1.7c-2.1-1.8,0.9-7.1-0.8-8.1c-1.8-1-5.3,4.9-14.2,6.8
			c-0.6,0.1-0.5,0.1-1.2,0.2c-10.6,2.1-14.3,8-20.6,6.8c-1.7-0.3-0.9-0.6-3.7-1.5c-6.9-2.1-11,0.1-14.6-2.8c-1-0.8-0.4-0.8-2-2.4
			c-1-1-1.9-1.7-2.7-2.2c-4-2.7-4.7-2.4-5.6-3.5c-2.5-3,0.3-7.6-1.5-8.8c-1.5-1-4.8,1.6-5.6,2.2c-11.5,8.7-20.4,2.9-37.4,12.2
			c-5.5,3-7.4,5.5-13.4,6.8c-4.2,0.9-6,0.3-11.5,0.9c-7.3,0.8-8.4,2.5-14.3,3.7c-14.1,2.7-17.4-5-31.6-2.8c-3,0.5-7.4,1.3-9.4-1
			c-1.7-2.1-0.5-5.5-1.7-5.9c-1.3-0.4-3.5,3-6.2,5.1c-0.4,0.4-1.1,0.9-2,1.3c-0.6,0.2-1.1,0.4-1.5,0.5c-8.9,3-34.6-0.7-36.5-1
			c-6.8-1-6.9-1-7.8-1.1c-8.9-0.6-12.6,1.4-24.5,3.9c-1.1,0.2-21.3,4.3-34.4,2.6c-0.5-0.1-1.4-0.2-2.7-0.3
			c-7.5-0.6-13.4,0.2-16.1,0.7c-4.2,0.7-7.5,1.2-10.2,1.7c-7.9,1.5-7.8,1.6-11.6,2.1c-2.5,0.3-7.5,1.1-12.6,1.2
			c-0.9,0-4.2,0-7.3,0.1H3780h540c-13.3-0.3-27.9-1.3-43.6-3.7C4270.4,130.4,4264.6,129.3,4259.1,128.1z"/>
	</g>
	<g id="Mantle-2_00000145026470328279353600000008651793978592818068_">
		
			<linearGradient id="SVGID_00000104694196812893648470000009377496088332572599_" gradientUnits="userSpaceOnUse" x1="2663.906" y1="1109.5039" x2="2663.906" y2="1058.4993" gradientTransform="matrix(0.9481 0 0 0.9481 174.2223 -916.9741)">
			<stop  offset="0" style="stop-color:#DA6624"/>
			<stop  offset="0.2346" style="stop-color:#F1A230"/>
			<stop  offset="0.4833" style="stop-color:#ED9B2E;stop-opacity:0.5"/>
			<stop  offset="0.7998" style="stop-color:#BF4818;stop-opacity:0.4"/>
			<stop  offset="1" style="stop-color:#BD4517;stop-opacity:0.3"/>
		</linearGradient>
		<path style="fill:url(#SVGID_00000104694196812893648470000009377496088332572599_);" d="M3240,135v-9c-7.3,1.5-13.1,1.4-17.1,0.9
			c-1.8-0.2-6.1-0.9-14.8-2.6c-2.3-0.5-5.2-1-8.9-1.6c-6.3-1-8.7-1.2-9.5-1.2c-7.6-0.4-11.1,0.2-20.2-1.2c-5.6-0.9-5.9-1.3-11.6-2.1
			c-12-1.5-12.2,0.6-19-1.3c-5.5-1.5-8-3.6-13.9-3.5c-0.8,0.1-1.5,0.1-2,0.2c-2.1,0.3-3.6,0.6-3.8,0.7c-4.3,1.1-21.7-8-24.4-5
			c-1.1,1.1,1.2,3.1,0.1,5c-2.5,4.4-18.5,2.1-22.1,2.7c-2.4,0.4-2,0.4-4,0.9c-13.8,2.6-19.8-2.9-34-2c-6.4,0.4-4.9,1.5-8.8,1.3
			c-12.3-0.5-15.5-10.8-28.9-12.2c-2.3-0.2-5.3,0.4-9.7-0.6c-3.4-0.8-5.6-2.1-7.6-3.1c-3.2-1.6-6.6-2.8-9.9-4.2
			c-7.8-3.3-24.1-8.9-25.9-5.7c-0.9,1.6,2.6,3.3,2.1,6.6c-1,6-14,8.8-16.9,9.4c-10,2.2-11.6-0.2-21.6,2c-10.1,2.3-9.5,5.1-14.9,4.6
			c-7.9-0.6-10.2-6.6-21.2-8.1c-4-0.6-3.5,0.3-7.3-0.2c-11.7-1.5-13.5-8.8-23.3-11.6c-8.2-2.4-11.7,1.4-18.2,1.6
			c-2.4,0.1-4.2-0.3-6.6-0.9c-11.1-2.5-17.3-9.4-18.9-7.9c-1.3,1.1,2.4,5.4,0,10.8c-0.2,0.4-0.3,0.7-0.4,0.8
			c-2.6,3.1-13.9-4.9-24.4-3.1c-0.7,0.1-1.5,0.3-2.9,0.4c-5.3,0.3-9.3-1.8-10.3-2.3c-6.1-2.8-16.9,1.2-33.3,4
			c-18,3.1-33.8,2.4-34.8-1.3c-0.4-1.5,1.7-3.4,0.9-4.5c-0.9-1.1-4,0.1-5.7,0.7c-14.9,5-30-0.2-30.9-0.5c-1.7-0.6-2.6-1-2.6-1
			c-1.4-0.6-1.7-0.9-3.7-1.5c-18-5.9-28.2,5.4-51.7,4c-4-0.2-5.9-0.7-10.2-0.5c-10.6,0.5-17.2,4.4-19.2,1.8c-1.5-1.9,1-5.5-0.2-6.2
			c-1.6-0.9-5.9,4.9-10.3,5.2c-0.4,0.1-1.6,0.1-3.3,0.5c-0.2,0-1.4,0.3-2.6,0.8c-3.8,1.6-4.4,3.4-10.7,6.4c-2,0.9-3,1.3-3.7,0.9
			c-2-1.1,1-7.9-0.8-9c-1.5-1-3.7,4-9.7,5.9c-4.2,1.4-12.2,1.8-14.3,3.2c-0.9,0.6-1.5,1.2-1.5,1.2c-0.8,1-0.9,1.7-2.9,3.1
			c-4.9,3.5-12.9,5.1-18.8,2.2c-3.8-1.9-3.9-4.3-6.3-6.7c-0.6-0.6-1.5-1.1-3.1-2.1c-5.8-3.6-7.3-3.3-8.2-5c-1.6-2.8,1.3-5.8,0-7
			c-1.4-1.3-5,1.6-11.4,3.9c-6,2.2-6.7,2-17.9,3.8c-16,2.6-17.2,10.8-33,14.9c-21.9,5.6-41.1-4.9-52.5,1.1c-0.9,0.5-5.1,2.7-6.7,1.2
			c-1.6-1.5,1-5.6-0.5-6.9c-1.7-1.5-6.5,3.2-13.4,5c-6.4,1.7-11.6,0.2-14.6-0.5c-20-4.9-62.4,12.7-109,9.9
			c-6.4-0.4-24.4-1.8-47.8,1.9c-2,0.4-3.6,0.6-4.8,0.8V135h540H3240z"/>
		
			<linearGradient id="SVGID_00000049201511028381955530000004543402724190346639_" gradientUnits="userSpaceOnUse" x1="2700" y1="135" x2="2700" y2="101.5708">
			<stop  offset="0" style="stop-color:#DA6624"/>
			<stop  offset="1" style="stop-color:#DA6624;stop-opacity:0.4"/>
		</linearGradient>
		<path style="fill:url(#SVGID_00000049201511028381955530000004543402724190346639_);" d="M3183.9,128.5
			c-13.1-2.4-22.9-2.7-25.5-2.1c-2.3,0.5-3.6,1-3.6,1c-2.2,0.8-2.9,1.5-6.2,1.9c-12.4,1.2-16.3-8-27.9-7.1
			c-3.7,0.3-6.8,0.4-10.2-1.6c-2.1-1.2-3.3-2.8-4.9-2.4c-1.4,0.4-1.6,2.1-3.4,4.4c0,0-1.3,1.8-4.8,4.1c-6.6,4.4-31.9-0.2-37.6-0.9
			c-13.6-1.6-23.1-2.7-30.4-1.9c-0.8,0.1-3.3,0.4-6.6,0.2c-5.9-0.4-10.1-2-11.7-2.7c-20.2-8.8-32.8-6-43.8-13.3
			c-0.9-0.7-4-2.8-5.6-1.8c-1.4,1-0.5,3.7-0.9,6c-1.1,6.4-11.8,9.5-15.8,10.7c-12.6,3.7-33.4,4.4-33.9,4.5c-0.4,0.1-0.5,0.1-0.8,0.2
			c-9.7,2.7-18.3,0.6-22.4-0.5c-25.8-6.9-44.6-20.5-57.9-17.4c-2.1,0.5-6.3,1.9-10.7,0.1c-4.7-1.9-6.3-6.1-8.8-5.6
			c-2.2,0.4-1.8,3.8-3.7,6.4c-6.9,9.7-34.4-3.9-48.9,1.9c-0.8,0.3-4.2,1.8-5.4,0.5c-1.4-1.5,2.2-5.6,0.9-7.2s-6.2,1.4-17,4.8
			c-2.7,0.9-10.5,3.3-16.9,4c-0.6,0-2.6,0.3-5.4,0.7c-9,1.4-9.5,2.4-15.9,3.3c-6.7,0.9-11.2,0.6-19.9-0.1
			c-8.1-0.7-12.1-1.4-13.2-3.8c-1-2.3,1.1-4.4,0-5.5c-2.2-2.2-13.4,3.8-16.5,2.5c-0.2-0.1-1.4-0.6-3-1c-0.4-0.1-0.8-0.1-1.4-0.2
			c-3.6-0.3-6.1,1.3-7.6,2c-5.8,2.4-11.2-4.7-18.5-6.5c-15-3.7-25.2,18.4-46.1,17c-3.7-0.2-5.9-1.1-11.8-1
			c-10,0.2-16.7,2.6-18.1,0.3c-1.1-1.8,2.1-4.5,1-6c-1.8-2.6-12.6,4-15.3,1c-2-2.2,2-7.9,0.6-8.8c-2-1.3-14.3,8.1-16,8.6
			c-0.3,0.1-0.6,0.2-0.6,0.2c-0.3,0-0.7,0.1-1.8,0.3c-10.8,2.4-13.3,5.8-19.1,5.2c-3-0.3-2-1.2-7-2.2c-6.2-1.3-8.2-0.1-11.3-2
			c-2.3-1.4-1.8-2.2-5.3-4.8c-2.5-1.8-3.5-1.8-4.4-2.5c0,0-0.4-0.3-0.7-0.7c-1.5-1.8,0.8-7.8-0.5-8.9c-1.2-1.1-5.5,2.1-5.9,2.4
			c-14.3,10.5-40.2,9.1-45,14.3c-0.3,0.3-1.9,2.3-4.8,3.7c-0.2,0.1-0.9,0.5-1.8,0.8c-6.5,2.5-10.4,0.7-18.6,2.3
			c-3.9,0.9-3.5,1.4-7.2,2.3c-15.5,3.7-23.6-5-35.2-3c-1.2,0.2-4.4,0.9-5.8-0.7c-1.4-1.7,0.1-4.5-0.9-5.2c-0.7-0.5-2.5,0.1-7.1,4.4
			c0,0-1.3,0.9-3.5,1.8c-6.7,3-40.4-1.3-40.4-1.3c-25.4-3.2-32.7,8.7-61.3,6.2c-2.8-0.3-8-0.9-15.4-0.6c-9.8,0.4-15,1.9-24.5,3.4
			c-2.8,0.4-5.1,0.8-7,1c-1.8,0.2-4,0.5-6,0.7c-2.7,0.3-6.6,0.6-11.3,0.7h540h540c-11.2-0.3-23.5-1.2-36.6-3.1
			C3196.6,130.9,3190.1,129.8,3183.9,128.5z"/>
	</g>
	<g id="Mantle-1_00000067929473142489975550000016609178263290453649_">
		
			<linearGradient id="SVGID_00000083082626919290461430000017390965435367685284_" gradientUnits="userSpaceOnUse" x1="1524.8434" y1="1109.5039" x2="1524.8434" y2="1058.2914" gradientTransform="matrix(0.9481 0 0 0.9481 174.2223 -916.9741)">
			<stop  offset="0" style="stop-color:#DA6624"/>
			<stop  offset="0.2346" style="stop-color:#F1A230"/>
			<stop  offset="0.4833" style="stop-color:#ED9B2E;stop-opacity:0.5"/>
			<stop  offset="0.7998" style="stop-color:#BF4818;stop-opacity:0.4"/>
			<stop  offset="1" style="stop-color:#BD4517;stop-opacity:0.3"/>
		</linearGradient>
		<path style="fill:url(#SVGID_00000083082626919290461430000017390965435367685284_);" d="M2132.9,125.5c-7-1.2-9.6-2.4-18.6-3.3
			c-8.4-0.9-9.6,0-17.4-1.1c-8.8-1.2-8.9-2.4-16.5-3.2c-9.6-1-9.5,0.9-16-0.4c-7-1.5-8.7-4.1-15.6-4.6c-4.4-0.3-4.9,0.6-9.5,0.8
			c-13.7,0.5-23.8-7.3-25.4-5.2c-0.8,1.2,2.1,3.4,1.1,5.2c-1.1,2-5.5,1.1-12.1,1.6c-5.3,0.4-6.3,1.2-11,2c-12.4,1.9-16.2-2.4-31.4-2
			c-9.1,0.2-7.3,1.8-12.6,1.3c-11.7-1.1-13.9-7.8-28.7-10.8c-4-0.9-5.9-0.8-11.8-2.2c-5.8-1.4-9.7-2.9-12.9-4.1
			c-11.4-4.2-28.4-10.6-30.2-7.8c-0.7,1.2,2.1,2.6,1.8,5.5c-0.7,6-14.9,9.1-16.9,9.5c-6.4,1.4-6.8,0.2-14,1.2
			c-14.2,2-14.1,6.8-21.1,5.7c-7.6-1.2-10.4-7.1-21.6-7.6c-1.4-0.1-1.1,0-2.4,0c-12.2-0.4-16.5-8.4-26.3-11.7
			c-9.6-3.3-10.3,2.8-23.5,0.3c-12.4-2.4-21.8-9.6-23.2-7.9c-0.6,0.8,1,2.3,1.4,7.2c0.1,1.8,0.2,2.6-0.1,3.1c-2,3-11.4-2.3-22-1.6
			c-1,0.1-3.5,0.3-6.8-0.3c-3.1-0.4-5.2-1.3-5.7-1.5c-7-2.6-27.7,1.7-37.9,3.3c-17.3,2.7-33.8,2.5-34.8-1.3
			c-0.4-1.5,1.8-3.4,1.1-4.3c-0.9-1-4.7,1.1-7,2.2c-10.3,4.5-22.9,0.7-37.5-3.7c-6.3-1.9-4.8-1.9-7.6-2.6
			c-15.9-3.3-25.5,6.5-45.4,5.6c-2.3-0.1-2.8-0.3-5.3-0.3c-12.7-0.1-19.9,3.9-21.6,1.5c-1.3-1.8,2-5.4,0.9-6.4
			c-0.9-0.8-3.5,1.7-8.3,4.2c-6.7,3.5-8.2,1.9-14.7,5.3c-5.2,2.7-7.3,5.4-8.7,4.5c-2.1-1.3,0.9-7.8-0.9-8.7c-1.2-0.7-3,2-6.6,4.4
			c-7.5,4.8-12.2,1.6-20.7,7c-2.5,1.6-2.2,1.9-4.3,3c-0.6,0.3-8.1,3.9-15.4,1.1c-7.8-2.9-7.9-10.2-15.4-11.5c-1.2-0.2-3-0.2-3.6-1.5
			c-1.1-2.2,3.3-5.5,2.5-6.8c-1-1.6-9,1.5-14.9,3.5c-15.8,5.4-17.1,3.6-28.6,8c-13.9,5.3-11.2,7.6-19.9,10.1
			c-21.1,6-50.1-3.6-56.4,1.3c-0.3,0.2-1.9,1.6-2.8,1.1c-1.5-0.7,0.3-4.6-1.3-5.9c-2-1.8-7.3,2.5-13.8,4.3
			c-7.6,2.1-13.9,0.2-17.8-0.6c-26-5.3-80.6,14.6-116.6,11.1c-3.8-0.4-17.7-2-35.6,0.7c-2.2,0.3-3.9,0.6-5,0.8v12
			c360,0,720,0,1080,0v-9.1C2148.5,127.4,2139.4,126.6,2132.9,125.5z"/>
		
			<linearGradient id="SVGID_00000083795080306238599610000001638906548963795114_" gradientUnits="userSpaceOnUse" x1="1620.0002" y1="135" x2="1620.0002" y2="102.2602">
			<stop  offset="0" style="stop-color:#DA6624"/>
			<stop  offset="1" style="stop-color:#DA6624;stop-opacity:0.4"/>
		</linearGradient>
		<path style="fill:url(#SVGID_00000083795080306238599610000001638906548963795114_);" d="M2108.4,128.7c-13.1-2.8-19-3.7-24.6-2.9
			c-8,1.2-8.6,3.5-15.3,3.5c-10.5,0-11.2-5.4-24.1-6.6c-6.1-0.6-9.8,0.4-14-2.2c-1.1-0.6-3.1-2.1-4.7-1.4c-1.3,0.5-1.1,1.9-2.6,3.8
			c-1.8,2.4-4.3,3.2-5.9,3.8c-3.1,1.1-5.9,1-7,1c-28-1.5-50.9-3.4-60.5-3.3c-0.9,0-3.6,0.1-7.2-0.3c-5.7-0.7-9.9-2-11.7-2.7
			c-23-7.6-36.2-7.2-43.8-13.5c-0.6-0.4-2.8-2.4-4.1-1.7c-1.5,0.7-0.8,3.9-1.4,6.3c-1.4,5.5-9.5,8-15.4,9.8
			c-10.5,3.3-15.2,1.5-31.5,5.3c-1.3,0.3-1.3,0.3-2,0.5c-10.4,2.2-18.9,0.2-23.2-0.9c-29.3-7.5-38.8-19.8-55-17.1
			c-3.9,0.7-12.2,2.8-17.7-1.3c-2.6-2-4-5-5.7-4.6c-2,0.5-1,4.4-3,7.1c-7.1,9.4-47.3-2.5-53.6,1.5c-0.2,0.1-1.4,1-2.1,0.6
			c-1.2-0.8,1.3-4.7,0-6.1c-1.5-1.7-6.9,1.2-15.4,3.9c0,0-0.5,0.2-11.5,3c-16,4.1-56.9,10.1-60.5,0.9c-0.8-2,0.6-3.9-0.9-5.2
			c-2.5-2.2-6.8,2.6-15.6,2.2c-4.1-0.2-6.4-1.5-11-0.5c-1.9,0.4-2.4,0.8-4.1,0.8c-3.4,0-5.3-1.8-8.8-3.4c0,0-2-1-8.7-2.7
			c-12.1-3.1-24.7,15.4-45.8,16.5c-6.5,0.3-9-1.3-18.7-0.3c-4,0.4-9,1.2-10-0.6c-0.9-1.6,2.1-3.8,1.3-5.1
			c-1.5-2.3-12.8,3.6-15.1,0.7c-1.6-2,2.2-6.7,0.7-8c-1-0.7-3.6,0.7-4.2,1c0,0-2.5,1.4-18.5,9.4c-15.5,7.8-35.2-2.1-37.6-4.2
			c-0.2-0.2-1.7-1.7-4-3.5c-1.6-1.3-1.6-1.2-1.9-1.5c-2.4-2.9,0.4-7.3-1-8.3c-1.1-0.7-3.2,1.3-9.6,4.4c0,0-0.6,0.2-3.2,1.4
			c-10.7,4.6-25.8,6.3-42.3,14c-1.2,0.6-1.2,0.6-1.9,0.9c-7.6,3.2-12.3,1.7-23.3,4c-1.7,0.4-1.3,0.3-2.5,0.6
			c-18,3.5-32.8-4.9-38.8-3.6c-0.3,0.1-1.5,0.4-2.2-0.2c-1.4-0.9-0.2-3.6-1.2-4.2c-0.8-0.5-2.3,1-5,2.7c0,0-0.6,0.4-5.2,2.6
			c-6.6,3.2-45.6-0.9-52.8-1.5c-20.7-1.8-16.1,5.2-52.7,6.6c-15.5,0.5-21.6,0.5-28.9,1c-3.3,0.2-6,0.4-7.6,0.6c0,0-0.8,0.1-1.7,0.2
			c-3.4,0.3-11.4,1.5-22.1,3.1h540h540c-1.1,0-2.9,0-5-0.1C2149.3,134.8,2133,134,2108.4,128.7z"/>
	</g>
	<g id="Mantle-0">
		
			<linearGradient id="SVGID_00000098928825726952916380000013682838671368004769_" gradientUnits="userSpaceOnUse" x1="385.7812" y1="1109.5039" x2="385.7812" y2="1056.6044" gradientTransform="matrix(0.9481 0 0 0.9481 174.2223 -916.9741)">
			<stop  offset="0" style="stop-color:#DA6624"/>
			<stop  offset="0.2346" style="stop-color:#F1A230"/>
			<stop  offset="0.4833" style="stop-color:#ED9B2E;stop-opacity:0.5"/>
			<stop  offset="0.7998" style="stop-color:#BF4818;stop-opacity:0.4"/>
			<stop  offset="1" style="stop-color:#BD4517;stop-opacity:0.3"/>
		</linearGradient>
		<path style="fill:url(#SVGID_00000098928825726952916380000013682838671368004769_);" d="M1036,124.4c-18.3-2.6-24.7-6.4-35.5-5.3
			c-2.3,0.2-8.9,1.1-15.9-1.9c-3.1-1.3-3.4-2.3-6.1-3.4c-7.1-2.7-12.1-0.9-19-0.6c-14.6,0.7-25-5.6-26-3.4c-0.5,1,1.9,2.1,1.7,3.4
			c-0.7,5.6-48.2,14-88.9-2.8c-5.5-2.3-15.7-7.1-31.5-11.8c-14-4.2-29.2-7.5-30.1-5.2c-0.3,0.9,1.7,1.5,1.7,2.9c0.2,6.5-45,25-76,9
			c-9.6-5-14.6-11.6-26.3-12.1c-8.9-0.4-13.6,3.2-23.5,0.3c-2.4-0.7-6.4-2.2-13.3-3.8c-1.1-0.3-10.1-2.4-10.7-0.9
			c-0.3,0.7,1.6,1.5,2.2,4c0.3,1.3,0.2,2.6-0.1,3.2c-1.6,3.4-18.7-0.9-22-1.7c-5.3-1.3-9.7-1.8-13.6-1.8c-13,0-17.1,1.3-36.8,3.3
			c-15,1.5-34,2.1-34.8-1.4c-0.2-0.8,0.8-1.1,0.6-1.8c-1.1-3.8-31,8.1-52.9-3.4c-3.1-1.6-4.4-2.8-7.8-3.7c-9.9-2.6-16.1,3.1-28.6,7
			c-16.2,5-33.3,4.2-34.5,0.3c-0.6-1.9,3.1-4.2,2.5-5.1c-1.6-2.2-30.5,16.4-33.2,13c-1.2-1.5,3.4-5.7,2.3-7.2
			c-2.7-3.6-27.8,19.9-50.3,14.1c-9.1-2.3-18.8-10.4-17.7-15.1c0.5-1.9,2.4-2.6,2.1-3.4c-0.9-2.3-18.1,1.2-35.5,8
			c-7.2,2.7-10.8,4.7-15.4,6.8c-32.9,14.9-69.7,15.7-72.7,7.9c-0.6-1.6,0.3-3.3-1-4.5c-2.8-2.6-10.9,1.5-14.1,2.9
			c-12.8,5.7-24.7,1.7-38.1,0.2c-25.2-2.8-34.7,5.5-78.4,10.2c-13.8,1.5-33.9,2.9-58.8,2V135h540h540c0-3.1,0-6.1,0-9.2
			C1060.9,127.3,1046.1,126,1036,124.4z"/>
		
			<linearGradient id="SVGID_00000104685671105329952210000007942196758802320806_" gradientUnits="userSpaceOnUse" x1="539.9999" y1="135" x2="539.9999" y2="103.4925">
			<stop  offset="0" style="stop-color:#DA6624"/>
			<stop  offset="1" style="stop-color:#DA6624;stop-opacity:0.4"/>
		</linearGradient>
		<path style="fill:url(#SVGID_00000104685671105329952210000007942196758802320806_);" d="M1031.9,129.7c-1-0.2-2-0.5-3.3-0.8
			c0,0-10.4-2.1-16.8-2.4c-1.3-0.1-2.5,0-2.5,0c-1.1,0-2.1,0.1-2.9,0.1c-9.9,0.9-14.5,4.7-22.3,2.1c-4.2-1.4-4.8-2.9-10.4-4.3
			c-6-1.5-6.8-0.1-13.1-1.2c-8.6-1.5-14.6-5.4-15.6-4c-0.5,0.8,1.1,2.1,0.6,4.3c0,0-0.4,1.8-2.8,3.4c-6.8,4.5-87.7,4.6-114.5-9.1
			c-5.7-2.8-11.8-4.7-17.6-7.5c-4.2-2-8.5-4.3-9.7-3c-0.9,0.9,0.9,3,0.8,4.7c-0.4,9.1-54.6,29-88.1,9.4
			c-7.3-4.4-15.7-11.7-28.4-11.5c-7.4,0.1-10.8,2.7-18.6,0.9c-9-2-15-7.8-17.4-5.7c-1.9,1.6,0.6,5.8-1.8,8.2
			c-1.8,1.8-4.9,1.1-6.1,0.9c-15.4-2.7-47.2,4.5-48.7-1.5c-0.4-1.7,1.8-2.8,1.2-4c-1.4-3-16.6,1.9-28.1,4.8
			c-30.2,7.4-59.4,5.8-60.5,0.9c-0.3-1.4,1.8-2.5,1.2-3.7c-1.4-2.7-13.8,3.7-28.1,2.3c-9.6-1-9.4-4.4-17.8-5.9
			c-17.1-3.1-23.2,10.4-50.1,15.4c-14.6,2.7-28.1,1.6-28.7-0.9c-0.3-1.3,2.6-2.6,2.2-3.7c-0.9-2.3-14.5,2.1-16-0.9
			c-0.9-1.7,3.4-4.9,2.8-5.9c-1-1.5-10.7,3.7-20.2,7.8c-20.8,8.8-42.1,1.4-45.9-3.9c-2.4-3.5-2.5-6.7-2.5-6.7c0-2.5,0.9-3.6,0.5-4.3
			c-1.8-2.8-21.6,6.9-21.6,6.9s-43.5,21.5-89.4,18.1c-7.1-0.5-13.6-2.3-14-5.2c-0.2-1.2,0.8-2.4,0.2-3c-1.1-1.2-6.5,1.9-7.4,2.4
			c-14,7.7-40.8,0-65.3,1.3c-2.4,0.1-4.6,0.3-5,0.3c-11.3,0.8-20.4,2.2-25.2,3c-1.8,0.3-3,0.5-3.3,0.6c-7.1,0.9-14.3,1.8-21.7,2.6
			c-17.2,1.9-33.9,3.2-50,4h540h540c-23.4-2-40.5-3.9-43.4-4.4C1034.2,130.2,1031.9,129.7,1031.9,129.7z"/>
	</g>
</g>
</svg>
