<?xml version="1.0" encoding="utf-8"?>
<svg version="1.1" id="FQT-Map" xmlns="http://www.w3.org/2000/svg" xmlns:xlink="http://www.w3.org/1999/xlink" x="0px"
	 y="0px" viewBox="0 0 1080 1080" style="enable-background:new 0 0 1080 1080;" xml:space="preserve">
<style type="text/css">
	.st0{stroke:#000000;stroke-width:0.3176;stroke-miterlimit:10;}
</style>
<g id="Footstep">
	<path class="st0" d="M209.7,1051.5c51.5,22.1,123,23.6,176.4-10.8c64-41.1,90.8-126.6,59.9-210c-7.6-20.5-29.2-33.9-53-33
		l-244.2,9.5c-27.1,1-49.1,20.3-51.1,44.8C90.3,940.9,136.1,1020,209.7,1051.5z"/>
	<path class="st0" d="M374.8,744.7c28-0.7,49.8-22.2,48.1-47.5c-6-91.3,4.4-163.3,16.1-214.4c5.6-24.6,36.1-138.6,34.4-264.7
		c-0.3-21.4-3.1-43.1-13.1-68.7C440.2,97.1,388.9,32,313.7,16.2C233-0.8,161,46.4,140.6,59.9C-45,181.6,51.5,592.2,85.9,716.6
		c5.6,20.4,26.2,34.5,49.4,34C215.1,748.6,295,746.6,374.8,744.7z"/>
</g>
</svg>
