<?xml version="1.0" encoding="utf-8"?>
<svg version="1.1" id="FQT-Map" xmlns="http://www.w3.org/2000/svg" xmlns:xlink="http://www.w3.org/1999/xlink" x="0px"
	 y="0px" viewBox="0 0 1080 1080" style="enable-background:new 0 0 1080 1080;" xml:space="preserve">
<style type="text/css">
	.st0{stroke:#000000;stroke-width:0.3176;stroke-miterlimit:10;}
</style>
<g id="Footstep">
	<path class="st0" d="M982.4,852c-2-24.5-24-43.8-51.1-44.8l-244.1-9.4c-23.8-0.9-45.4,12.5-53,33c-31,83.4-4.1,168.8,59.9,210
		c53.4,34.3,124.8,32.8,176.4,10.8C943.9,1020,989.7,940.9,982.4,852z"/>
	<path class="st0" d="M944.7,750.5c23.2,0.6,43.8-13.5,49.4-34c34.4-124.4,130.9-535-54.7-656.7c-20.5-13.4-92.5-60.7-173.1-43.7
		c-75.2,15.9-126.5,81-146.7,133.2c-9.9,25.6-12.8,47.3-13.1,68.7c-1.8,126.2,28.8,240.2,34.4,264.7
		c11.7,51.1,22.1,123.1,16.1,214.4c-1.6,25.3,20.2,46.8,48.1,47.5C785,746.6,864.9,748.6,944.7,750.5z"/>
</g>
</svg>
