<?xml version="1.0" encoding="utf-8"?>
<!-- Generator: Adobe Illustrator 27.0.1, SVG Export Plug-In . SVG Version: 6.00 Build 0)  -->
<svg version="1.1" id="FQT-Message" xmlns="http://www.w3.org/2000/svg" xmlns:xlink="http://www.w3.org/1999/xlink" x="0px"
	 y="0px" viewBox="0 0 1080 135" style="enable-background:new 0 0 1080 135;" xml:space="preserve">
<style type="text/css">
	
		.st0{fill:#FFFFFF;stroke:#000000;stroke-width:0.5958;stroke-linecap:round;stroke-linejoin:round;stroke-miterlimit:10;stroke-opacity:0.4;}
</style>
<g id="Map-Message_00000052063634859666249050000015701894008112728251_">
	<path class="st0" d="M1036.8,4.2H676.5c-8.4,0-15.2,6.8-15.2,15.2V65c-12.7-0.1-25.4-0.2-38.1-0.3c12.7,4.6,25.4,9.3,38.1,13.9
		v14.9c0,8.4,6.8,15.2,15.2,15.2h360.3c8.4,0,15.2-6.8,15.2-15.2V19.4C1052,11,1045.2,4.2,1036.8,4.2z"/>
	<g>
		<path d="M720.5,41.5c0-3.1,0.8-5.6,2.3-7.7s3.6-3.1,6.2-3.1c1.9,0,3.3,0.4,4.2,1.3c0-0.6,0.2-1,0.6-1.1c0.5-0.2,1.1-0.3,1.8-0.3
			c0.9,0,1.7,0.2,2.2,0.6c0.2,1.4,0.4,2.6,0.4,3.5c0,1.7-0.4,3.1-1.1,4.1c-1.1,0.4-2,0.6-2.8,0.6c-0.8,0-1.6-0.2-2.4-0.6
			c0,0,0-0.1,0-0.3c0-0.2,0-0.4,0.1-0.5c0-0.8-0.3-1.4-1-1.8c-0.6-0.5-1.2-0.7-1.8-0.7c-0.8,0-1.5,0.6-2.1,1.9s-0.9,2.7-0.9,4.2
			c0,1.5,0.3,2.6,0.8,3.4s1.3,1.2,2.1,1.2c1,0,1.9-0.5,2.7-1.6c-0.1-0.4-0.1-0.6-0.1-0.6c0,0,0-0.1,0-0.1c0,0,0-0.1,0-0.1
			c0.7-0.3,1.5-0.5,2.4-0.5c0.9,0,1.9,0.2,2.9,0.6c0.7,1.1,1,2.4,1,4.1c0,0.9-0.1,2.1-0.4,3.5c-0.6,0.5-1.4,0.7-2.4,0.7
			c-0.7,0-1.3-0.2-1.7-0.5c-0.4-0.2-0.6-0.5-0.6-1.2c-1.3,0.9-2.7,1.3-4,1.3c-1.1,0-2.1-0.2-3.1-0.7c-1-0.4-1.9-1.1-2.8-1.9
			s-1.5-1.9-2-3.3C720.7,44.7,720.5,43.2,720.5,41.5z"/>
		<path d="M740.1,49.2c0-1,0.1-1.5,0.2-1.6c0.2-0.1,0.5-0.2,1.1-0.3c0.4-0.1,0.6-0.1,0.7-0.1c-0.2-1.2-0.3-3.1-0.3-5.9
			c0-3.2,0.1-6.1,0.3-8.5c-0.6,0-1,0-1.4-0.1c0-0.4-0.1-0.7-0.1-1c0-0.9,0.2-1.6,0.6-2.3c0.9-0.2,2-0.3,3.5-0.3
			c1.1,0,1.9,0.1,2.5,0.3c0.2,1.8,0.3,3.8,0.3,5.9c0,1.5-0.1,3.6-0.2,6.3c-0.1,2.7-0.2,4.6-0.2,5.6c0.1,0,0.3,0,0.5,0
			c0.5,0,1,0.1,1.5,0.3c0.1,0.1,0.1,0.3,0.1,0.5c0,0.4-0.1,1-0.3,1.8c-0.2,0.8-0.3,1.3-0.4,1.5c-0.3,0.2-1.4,0.3-3.3,0.3
			c-2.8,0-4.4-0.3-4.9-0.8C740.2,50.9,740.1,50.3,740.1,49.2z"/>
		<path d="M750.2,49.3c0-1,0.2-1.5,0.6-1.7c0.2-0.1,0.5-0.2,1-0.3c0.4-0.1,0.6-0.1,0.7-0.1c-0.2-2.3-0.3-3.8-0.3-4.4
			c0-1.4,0.1-2.3,0.3-2.8c-0.6,0-1,0-1.4-0.1c-0.2-0.4-0.2-0.8-0.2-1.1c0-0.6,0.3-1.3,0.8-2.1c0.7-0.1,2.1-0.2,4.2-0.2
			c0.7,0,1.4,0,2,0.1c0.7,0.1,1.2,0.2,1.5,0.3s0.6,0.2,0.6,0.3c0.2,0.2,0.2,0.6,0.2,1.1c0,1.1-0.2,1.8-0.5,2.2
			c-0.1,0.1-0.3,0.1-0.8,0.1s-0.8,0-1-0.1c-0.2,1.4-0.3,3.2-0.3,5.4c0,0.9,0,1.4,0.1,1.5c0.1,0,0.3,0,0.5,0c0.5,0,1,0.1,1.4,0.3
			c0.1,0.1,0.1,0.4,0.1,0.7c0,0.5-0.1,1.1-0.2,1.8c-0.2,0.7-0.3,1.1-0.5,1.4c-0.3,0.2-1.4,0.3-3.2,0.3c-2.9,0-4.6-0.3-5.1-0.8
			C750.4,50.7,750.2,50.2,750.2,49.3z M753.2,30.6c0-0.6,0.3-0.8,0.9-0.8c0.5,0,1,0.1,1.6,0.5c0.4-0.4,1-0.6,1.7-0.6
			c0.4,0,0.8,0.2,1.1,0.5s0.5,0.7,0.5,1.2c0,0.3-0.1,0.5-0.2,0.8c-0.1,0.2-0.2,0.4-0.3,0.6c-0.1,0.2-0.3,0.3-0.6,0.6
			c-0.3,0.2-0.5,0.4-0.6,0.5c-0.1,0.1-0.4,0.2-0.8,0.5c-0.4,0.2-0.6,0.3-0.7,0.4c-0.8-0.6-1.4-1.2-1.9-2
			C753.5,31.8,753.2,31.2,753.2,30.6z"/>
		<path d="M761.6,45c0-2.8,0.9-4.9,2.6-6.3c1.7-1.4,4.3-2.1,7.8-2.1l0.2-0.8c0.5-0.1,1.1-0.2,1.6-0.2c1.2,0,2.3,0.3,3.2,1
			c0.1,0.3,0.1,0.7,0.1,1.2c0,1-0.2,1.9-0.5,2.7c-0.3,0.7-0.8,1.2-1.3,1.4c-0.9,0.3-1.7,0.5-2.4,0.5c-0.7,0-1.4-0.2-2-0.5l0.2-1.1
			c-0.5-0.1-0.9-0.2-1.4-0.2c-0.9,0-1.7,0.4-2.3,1.3c-0.6,0.8-0.9,1.8-0.9,2.8c0,0.9,0.2,1.6,0.6,2.3c0.4,0.7,0.9,1,1.5,1
			c0.6,0,1.2-0.2,2-0.7l-0.2-0.8c0.9-0.7,2-1,3.2-1c0.4,0,1,0.1,1.6,0.2c1.2,1.3,1.8,2.9,1.8,4.8c0,0.4,0,0.8-0.1,1.2
			c-1.1,0.7-2.4,1.1-3.8,1.1c-0.2,0-0.5,0-1-0.1l-0.3-0.8c-1.4,0.3-2.5,0.4-3.5,0.4c-2.2,0-3.9-0.6-5.1-1.8S761.6,47.4,761.6,45z"/>
		<path d="M777.9,31.8c0-1,0.2-1.7,0.7-2c0.8-0.4,2-0.6,3.6-0.6c2.1,0,3.4,0.2,4.1,0.6c0.4,0.2,0.6,0.8,0.6,1.8
			c0,0.9-0.1,1.5-0.3,1.7c-0.5,0.1-0.9,0.1-1.2,0.1c0,1,0.1,3,0.3,6.2c1.1-0.7,2-1.4,2.9-2.2c0.8-0.8,1.3-1.4,1.3-1.8
			c0-0.1,0-0.2-0.1-0.3c-0.1,0.1-0.4,0.2-0.8,0.2c-0.1,0-0.2,0-0.3-0.1c-0.2-0.2-0.3-0.6-0.3-1.3c0-0.3,0.1-0.4,0.2-0.5
			c0.7-0.2,1.7-0.3,2.8-0.3c2.3,0,4,0.2,5.1,0.7c0.1,0.2,0.1,0.4,0.1,0.7c0,0.9-0.2,1.5-0.7,1.6c-0.1,0-0.2,0-0.3,0
			c-0.6,0-0.9-0.1-1.1-0.2c0,0.1-0.2,0.4-0.6,0.8c-0.4,0.4-0.9,1-1.6,1.7c-0.7,0.7-1.4,1.3-2.2,1.9c1.9,0.8,3.6,2,4.9,3.6
			c1.3,1.6,2,2.7,2,3.3c0.2-0.1,0.4-0.1,0.6-0.1c0.2,0,0.4,0.1,0.8,0.2c0.3,0.2,0.5,0.8,0.5,1.8c0,0.9-0.2,1.6-0.5,2
			c-0.7,0.3-2.1,0.5-4.2,0.5c-1.3,0-2.4-0.1-3.3-0.5c-0.5-0.6-0.7-1.4-0.7-2.4c0-0.6,0.1-1.1,0.3-1.4c0.2-0.1,0.4-0.2,0.6-0.2
			c0.2,0,0.3,0,0.5,0.1c-0.2-0.7-0.6-1.3-1-1.8s-1-1-1.6-1.3c-0.6-0.3-1.2-0.6-1.6-0.7c-0.4-0.1-0.9-0.3-1.5-0.5c0,0.5,0,1.2,0,2.2
			c0,0.8,0,1.4,0,1.7c0.2-0.1,0.5-0.2,0.9-0.2c0.4,0,0.6,0.1,0.7,0.2c0.3,0.1,0.5,0.7,0.5,1.9c0,1.1,0,1.9-0.1,2.4
			c-1.1,0.3-3.1,0.4-6,0.4c-1.4,0-2.4-0.1-3-0.4c-0.5-0.5-0.7-1.4-0.7-2.6c0-0.9,0.2-1.4,0.5-1.5c0.3-0.2,0.8-0.3,1.4-0.3
			c0.2,0,0.3,0,0.4,0.1c-0.1-5.5-0.2-9.3-0.2-11.6c0-1.3,0-2,0.1-2.1c-0.4,0.2-0.7,0.2-1,0.2c-0.4,0-0.7-0.1-1-0.3
			C778.1,32.9,777.9,32.4,777.9,31.8z"/>
		<path d="M804.6,32.5c0-1.5,0.3-2.4,0.8-2.7c0.7-0.4,1.9-0.6,3.7-0.6c0.9,0,2,0.1,3.1,0.4c0.4,0.7,0.7,2.4,0.7,5.2
			c0,2.1-0.1,3.4-0.3,4.1c2.1-1.6,4.1-2.4,5.9-2.4c1.6,0,2.9,0.6,3.8,1.7s1.4,2.8,1.4,5.1c0,0.4-0.1,1.5-0.2,3.3
			c0,0,0.1-0.1,0.3-0.1c0.3,0,0.8,0.1,1.4,0.2c0.2,0.2,0.3,0.9,0.3,2c0,1.4-0.1,2.3-0.3,2.6c-1.5,0.3-2.9,0.5-4.1,0.5
			c-1.4,0-2.6-0.1-3.6-0.4c-0.1-0.1-0.3-0.5-0.5-1.1s-0.2-1.2-0.2-1.6c0-0.7,0.2-1.2,0.5-1.7c0.2-0.1,0.5-0.2,0.8-0.2
			c0.1,0,0.2,0,0.2,0s0.1,0,0.1,0.1c0,0,0.1,0.1,0.2,0.1c0.1-0.6,0.2-1.2,0.2-1.7c0-1.2-0.3-2.1-0.8-2.7c-0.6-0.6-1.2-0.9-2-0.9
			c-0.8,0-1.5,0.4-2.1,1.1c-0.6,0.7-0.9,1.7-0.9,2.9c0,0.5,0.1,1,0.2,1.6c0.2-0.2,0.5-0.3,0.8-0.3c0.3,0,0.5,0.1,0.6,0.2
			c0.2,0,0.3,0.4,0.3,1.2c0,0.2-0.1,1-0.3,2.5c-1.4,0.6-3.1,0.9-5.1,0.9c-2.2,0-3.5-0.3-3.9-0.8c-0.2-0.2-0.3-0.6-0.3-1
			c0-1.4,0.3-2.3,0.8-2.6c0.2-0.2,0.6-0.3,1.1-0.3c0.1,0,0.2,0,0.5,0.1c-0.2-1.4-0.3-4.1-0.3-8.1c0-2.7,0.1-4.4,0.2-5.1
			c-0.3,0.1-0.8,0.2-1.4,0.2c-0.4,0-0.9,0-1.2-0.1C804.7,33.8,804.6,33.3,804.6,32.5z"/>
		<path d="M826.7,45.1c0-0.9,0.2-1.9,0.6-2.9c0.4-1,0.9-1.9,1.6-2.8c0.7-0.9,1.7-1.6,2.9-2.1c1.2-0.6,2.6-0.8,4.1-0.8
			c1.7,0,3,0.3,3.9,1c0.9,0.7,1.4,1.6,1.4,2.9c0,1.7-0.8,3-2.3,4.1s-3.3,1.6-5.2,1.6c-0.5,0-1,0-1.6-0.2c0,1.4,1.3,2.1,3.7,2.1
			c0.4,0,0.8,0,1.1-0.1c0-0.2,0-0.3,0.1-0.5c0.9-0.7,1.8-1,2.9-1c0.2,0,0.3,0,0.4,0c1.3,0.7,2.1,1.9,2.4,3.5c0,0.2-0.1,0.3-0.2,0.5
			s-0.3,0.3-0.4,0.5c-0.1,0.1-0.3,0.3-0.6,0.4s-0.5,0.3-0.6,0.4c-0.1,0.1-0.4,0.2-0.7,0.4c-0.3,0.2-0.5,0.2-0.5,0.3
			c-0.1,0-0.2,0-0.3,0c-0.1,0-0.2-0.1-0.2-0.1c-0.1-0.1-0.1-0.1-0.1-0.1c0,0-0.1-0.1-0.1-0.2c-0.1-0.1-0.1-0.2-0.1-0.2
			c-1.1,0.4-2.3,0.6-3.5,0.6c-2.7,0-4.8-0.7-6.3-2.1S826.7,47.1,826.7,45.1z M832.5,42c0,0.7,0.5,1,1.4,1c0.7,0,1.4-0.2,2.1-0.5
			c0.7-0.3,1-0.8,1-1.3c0-0.3-0.1-0.7-0.3-1.1c-0.2-0.4-0.6-0.6-1.1-0.6c-0.6,0-1.3,0.3-2,0.8C832.9,40.9,832.5,41.4,832.5,42z"/>
		<path d="M843.7,38.6c0-0.9,0-1.5,0.1-1.7c0.8-0.4,2.3-0.5,4.5-0.5c0.8,0,1.4,0.1,1.9,0.2c0.4,0.1,0.8,0.3,1.2,0.7
			c0,0.3,0,0.9,0,1.5l0.1-0.2c0.1-0.2,0.2-0.4,0.4-0.6c0.2-0.2,0.4-0.5,0.6-0.7s0.6-0.4,1-0.6c0.4-0.2,0.9-0.2,1.5-0.2
			c1.5,0,2.8,0.7,3.9,2c-0.4,1.9-1.5,3.2-3.3,3.9c-0.7-0.5-1.4-0.8-2-0.8c-0.8,0-1.4,0.4-1.8,1.2s-0.6,1.8-0.6,2.9
			c0,0.4,0,0.8,0.1,1.3c0.1,0,0.5,0.1,1.1,0.2l0.3,0.1c0.3,0.2,0.4,0.8,0.4,1.6c0,0.6-0.1,1.2-0.2,1.8c-0.2,0.6-0.4,1-0.6,1.3
			c-0.4,0.1-1.4,0.1-3.2,0.1c-1,0-2.1-0.1-3.1-0.3c-1.1-0.2-1.7-0.4-1.8-0.6c-0.1-0.2-0.1-0.8-0.1-1.7c0-1.6,0.1-2.4,0.2-2.5
			c0.8-0.2,1.4-0.3,1.6-0.3c0.3,0,0.5,0,0.8,0.1c-0.3-0.3-0.5-1.7-0.5-4.3c0-0.9,0-1.4,0.1-1.5c-0.2,0-0.5,0.1-0.7,0.1
			c-0.7,0-1.2-0.2-1.5-0.5C843.7,40.2,843.7,39.6,843.7,38.6z"/>
		<path d="M858.8,45.1c0-0.9,0.2-1.9,0.6-2.9c0.4-1,0.9-1.9,1.6-2.8c0.7-0.9,1.7-1.6,2.9-2.1c1.2-0.6,2.6-0.8,4.1-0.8
			c1.7,0,3,0.3,3.9,1c0.9,0.7,1.4,1.6,1.4,2.9c0,1.7-0.8,3-2.3,4.1s-3.3,1.6-5.2,1.6c-0.5,0-1,0-1.6-0.2c0,1.4,1.3,2.1,3.7,2.1
			c0.4,0,0.8,0,1.1-0.1c0-0.2,0-0.3,0.1-0.5c0.9-0.7,1.8-1,2.9-1c0.2,0,0.3,0,0.4,0c1.3,0.7,2.1,1.9,2.4,3.5c0,0.2-0.1,0.3-0.2,0.5
			s-0.3,0.3-0.4,0.5c-0.1,0.1-0.3,0.3-0.6,0.4s-0.5,0.3-0.6,0.4c-0.1,0.1-0.4,0.2-0.7,0.4c-0.3,0.2-0.5,0.2-0.5,0.3
			c-0.1,0-0.2,0-0.3,0c-0.1,0-0.2-0.1-0.2-0.1c-0.1-0.1-0.1-0.1-0.1-0.1c0,0-0.1-0.1-0.1-0.2c-0.1-0.1-0.1-0.2-0.1-0.2
			c-1.1,0.4-2.3,0.6-3.5,0.6c-2.7,0-4.8-0.7-6.3-2.1S858.8,47.1,858.8,45.1z M864.6,42c0,0.7,0.5,1,1.4,1c0.7,0,1.4-0.2,2.1-0.5
			c0.7-0.3,1-0.8,1-1.3c0-0.3-0.1-0.7-0.3-1.1c-0.2-0.4-0.6-0.6-1.1-0.6c-0.6,0-1.3,0.3-2,0.8C865,40.9,864.6,41.4,864.6,42z"/>
		<path d="M880.7,37.4c0-0.4,0-0.7,0.1-0.8c0.6-0.1,1-0.1,1.3-0.1c0.1,0,0.2,0,0.3,0c0.1,0,0.2,0,0.3,0h0.1V31
			c1.5-0.1,2.5-0.2,2.8-0.2c0.7,0,1.7,0.1,2.7,0.2l0,5.7c1.7,0.1,2.8,0.2,3.2,0.4c0.3,0.3,0.4,1.3,0.4,2.8c0,0.4,0,0.7-0.1,0.8
			c-0.6,0.1-1,0.1-1.4,0.1h-0.2c-0.1,0-0.4,0-0.8,0c-0.4,0-0.8,0-1.3,0c0,0.1,0,0.8,0,2.2c0,1.4,0,2.1,0,2.2c0,0.9,0.2,1.5,0.5,1.8
			c0.3,0.4,0.8,0.5,1.5,0.5c0.2,0,0.4,0,0.4-0.1c0.1,0,0.1-0.2,0.1-0.4c0-0.1,0.3-0.3,0.8-0.4l2-0.5c0.2,0.6,0.3,1.3,0.3,2
			c0,1.5-0.1,2.5-0.4,2.8c-0.1,0-0.2,0.1-0.5,0.3c-0.2,0.1-0.4,0.2-0.5,0.3c-0.1,0-0.2,0.1-0.4,0.2c-0.2,0.1-0.4,0.1-0.6,0.2
			s-0.4,0.1-0.7,0.1c-0.3,0-0.6,0.1-0.9,0.1c-0.3,0-0.7,0-1.2,0c-0.9,0-1.6,0-2.1-0.1s-1.1-0.3-1.6-0.6c-0.5-0.3-0.9-0.7-1.2-1.2
			c-0.3-0.5-0.5-1.2-0.7-2.1c-0.2-0.9-0.3-1.9-0.3-3.1s0-2.7,0-4.4c-0.9-0.1-1.5-0.2-1.8-0.4C880.8,39.9,880.7,39,880.7,37.4z"/>
		<path d="M894.8,45.8c0-1.5,0.4-2.9,1.1-4.3s1.8-2.6,3.2-3.6c1.4-1,3-1.4,4.6-1.4c2,0,3.5,0.7,4.5,2.1c1,1.4,1.4,3.1,1.4,5.2
			c0,2.7-0.7,4.8-2.2,6.2c-1.5,1.4-3.4,2.1-5.8,2.1c-2.2,0-4-0.6-5.1-1.8C895.4,49.1,894.8,47.6,894.8,45.8z M900.6,45
			c0,0.6,0.2,1.1,0.6,1.6c0.4,0.5,0.9,0.7,1.5,0.7c0.8,0,1.5-0.4,2.2-1.1s1-1.5,1-2.4c0-0.7-0.2-1.2-0.6-1.7s-0.9-0.7-1.6-0.7
			c-0.9,0-1.6,0.4-2.3,1.2C900.9,43.3,900.6,44.1,900.6,45z"/>
		<path d="M916.3,39.1c1.7-1.4,4.3-2.3,7.8-2.9c0.8,1.2,1.2,2.2,1.2,3.1c0,0.2-0.3,0.3-0.7,0.5c-0.4,0.2-0.8,0.3-1,0.3
			c0.2,1.2,1,3,2.3,5.5c0.5-0.4,1-1.1,1.5-2.2s0.9-2.3,1.3-3.6c0.4-1.3,0.6-2,0.8-2.2c0.5-0.4,1.4-0.5,2.6-0.5
			c0.8,0,1.6,0.2,2.5,0.5c0,0.1,0.2,0.6,0.5,1.5s0.5,1.6,0.7,2.1c0.1,0.4,0.4,1,0.6,1.7s0.6,1.4,0.9,1.8c0.3,0.5,0.6,0.9,0.9,1.2
			c0.4-0.6,0.8-1.6,1.4-2.9s0.9-2.3,1-2.9c-0.2,0-0.6-0.1-1-0.3c-0.5-0.2-0.7-0.3-0.7-0.5c0-0.2,0.1-0.7,0.4-1.6
			c0.3-0.8,0.5-1.3,0.7-1.5c3.5,0.6,6.1,1.5,7.8,2.9c-0.2,1.3-0.5,2.3-0.8,3.2c-0.4-0.1-0.8-0.2-1.3-0.5c0,0.5-0.3,1.4-0.9,2.7
			c-0.3,0.7-1.1,2-2.2,3.9c0.6,0.2,1,0.5,1.4,1.1c0,0.7-0.5,1.5-1.4,2.2c-0.1,0-0.3,0.1-0.9,0.1c-0.5,0-1.2,0.1-2.1,0.1
			c-0.9,0-1.7,0-2.4,0c-0.6,0-1.4-0.6-2.4-1.9c-1-1.3-1.9-2.7-2.8-4.3c-0.8,1.5-1.7,3-2.8,4.3c-1,1.3-1.8,1.9-2.5,1.9
			c-0.8,0-1.6,0-2.4,0c-0.9,0-1.5-0.1-2.1-0.1c-0.5,0-0.8-0.1-0.9-0.1c-0.9-0.8-1.4-1.5-1.4-2.2c0.1-0.1,0.4-0.3,0.7-0.6
			s0.6-0.4,0.7-0.4c-1.1-1.9-1.8-3.1-2.2-3.9c-0.6-1.2-0.9-2.1-0.9-2.7c-0.5,0.2-0.9,0.4-1.3,0.5C916.8,41.3,916.5,40.3,916.3,39.1z
			"/>
		<path d="M948.4,45.4c0-1.4,0.2-2.8,0.6-4.1c0.4-1.3,1.1-2.4,2.1-3.4c1-0.9,2.1-1.4,3.4-1.4c0.5,0,1,0.1,1.5,0.2
			c0.4,0.2,0.8,0.4,1,0.6c0.3,0.2,0.5,0.5,0.6,0.7c0.2,0.2,0.3,0.4,0.3,0.6l0.1,0.2c0-0.7,0-1.2,0-1.5c0.7-0.6,1.9-0.8,3.6-0.8
			c0.6,0,1.1,0,1.6,0.1c0.5,0,0.8,0.1,1.1,0.2s0.4,0.1,0.6,0.2c0.2,0.1,0.2,0.1,0.3,0.1l0.1,0c0.1,0.2,0.1,0.7,0.1,1.7
			c0,1,0,1.5-0.1,1.7c-0.3,0.4-0.8,0.5-1.5,0.5c-0.2,0-0.4,0-0.7-0.1c0.1,0.1,0.1,0.6,0.1,1.4c0,2.5-0.1,3.9-0.3,4.2
			c0.1-0.1,0.3-0.1,0.5-0.1c0.2,0,0.8,0.1,1.6,0.4c0.2,0.1,0.2,1,0.2,2.7c0,0.9,0,1.4-0.1,1.7c-0.1,0.2-0.6,0.4-1.3,0.6
			s-1.6,0.3-2.4,0.3c-2.4,0-3.8,0-4-0.1c-0.1-0.4-0.2-0.7-0.2-0.9c0-0.2,0-0.3,0.1-0.4c-0.3,0.1-0.9,0.4-1.9,0.9
			c-1,0.5-1.7,0.8-2.2,0.8c-1.5,0-2.7-0.7-3.5-2C948.8,49,948.4,47.3,948.4,45.4z M952.4,44.9c0,0.7,0.2,1.3,0.6,1.8
			s0.9,0.7,1.5,0.7c0.8,0,1.6-0.4,2.3-1.1c0.7-0.7,1-1.6,1-2.6c0-0.7-0.2-1.2-0.6-1.7c-0.4-0.4-0.9-0.7-1.5-0.7
			c-0.6,0-1.2,0.2-1.7,0.6c-0.5,0.4-0.9,0.9-1.2,1.5C952.6,44,952.4,44.4,952.4,44.9z"/>
		<path d="M967,49.2c0-1,0.1-1.5,0.2-1.6c0.2-0.1,0.5-0.2,1.1-0.3c0.4-0.1,0.6-0.1,0.7-0.1c-0.2-1.2-0.3-3.1-0.3-5.9
			c0-3.2,0.1-6.1,0.3-8.5c-0.6,0-1,0-1.4-0.1c0-0.4-0.1-0.7-0.1-1c0-0.9,0.2-1.6,0.6-2.3c0.9-0.2,2-0.3,3.5-0.3
			c1.1,0,1.9,0.1,2.5,0.3c0.2,1.8,0.3,3.8,0.3,5.9c0,1.5-0.1,3.6-0.2,6.3c-0.1,2.7-0.2,4.6-0.2,5.6c0.1,0,0.3,0,0.5,0
			c0.5,0,1,0.1,1.5,0.3c0.1,0.1,0.1,0.3,0.1,0.5c0,0.4-0.1,1-0.3,1.8c-0.2,0.8-0.3,1.3-0.4,1.5c-0.3,0.2-1.4,0.3-3.3,0.3
			c-2.8,0-4.4-0.3-4.9-0.8C967.1,50.9,967,50.3,967,49.2z"/>
		<path d="M976.5,31.8c0-1,0.2-1.7,0.7-2c0.8-0.4,2-0.6,3.6-0.6c2.1,0,3.4,0.2,4.1,0.6c0.4,0.2,0.6,0.8,0.6,1.8
			c0,0.9-0.1,1.5-0.3,1.7c-0.5,0.1-0.9,0.1-1.2,0.1c0,1,0.1,3,0.3,6.2c1.1-0.7,2-1.4,2.9-2.2c0.8-0.8,1.3-1.4,1.3-1.8
			c0-0.1,0-0.2-0.1-0.3c-0.1,0.1-0.4,0.2-0.8,0.2c-0.1,0-0.2,0-0.3-0.1c-0.2-0.2-0.3-0.6-0.3-1.3c0-0.3,0.1-0.4,0.2-0.5
			c0.7-0.2,1.7-0.3,2.8-0.3c2.3,0,4,0.2,5.1,0.7c0.1,0.2,0.1,0.4,0.1,0.7c0,0.9-0.2,1.5-0.7,1.6c-0.1,0-0.2,0-0.3,0
			c-0.6,0-0.9-0.1-1.1-0.2c0,0.1-0.2,0.4-0.6,0.8c-0.4,0.4-0.9,1-1.6,1.7c-0.7,0.7-1.4,1.3-2.2,1.9c1.9,0.8,3.6,2,4.9,3.6
			c1.3,1.6,2,2.7,2,3.3c0.2-0.1,0.4-0.1,0.6-0.1c0.2,0,0.4,0.1,0.8,0.2c0.3,0.2,0.5,0.8,0.5,1.8c0,0.9-0.2,1.6-0.5,2
			c-0.7,0.3-2.1,0.5-4.2,0.5c-1.3,0-2.4-0.1-3.3-0.5c-0.5-0.6-0.7-1.4-0.7-2.4c0-0.6,0.1-1.1,0.3-1.4c0.2-0.1,0.4-0.2,0.6-0.2
			c0.2,0,0.3,0,0.5,0.1c-0.2-0.7-0.6-1.3-1-1.8s-1-1-1.6-1.3c-0.6-0.3-1.2-0.6-1.6-0.7c-0.4-0.1-0.9-0.3-1.5-0.5c0,0.5,0,1.2,0,2.2
			c0,0.8,0,1.4,0,1.7c0.2-0.1,0.5-0.2,0.9-0.2c0.4,0,0.6,0.1,0.7,0.2c0.3,0.1,0.5,0.7,0.5,1.9c0,1.1,0,1.9-0.1,2.4
			c-1.1,0.3-3.1,0.4-6,0.4c-1.4,0-2.4-0.1-3-0.4c-0.5-0.5-0.7-1.4-0.7-2.6c0-0.9,0.2-1.4,0.5-1.5c0.3-0.2,0.8-0.3,1.4-0.3
			c0.2,0,0.3,0,0.4,0.1c-0.1-5.5-0.2-9.3-0.2-11.6c0-1.3,0-2,0.1-2.1c-0.4,0.2-0.7,0.2-1,0.2c-0.4,0-0.7-0.1-1-0.3
			C976.7,32.9,976.5,32.4,976.5,31.8z"/>
		<path d="M723.6,69.4c0-0.4,0-0.7,0.1-0.8c0.6-0.1,1-0.1,1.3-0.1c0.1,0,0.2,0,0.3,0c0.1,0,0.2,0,0.3,0h0.1V63
			c1.5-0.1,2.5-0.2,2.8-0.2c0.7,0,1.7,0.1,2.7,0.2l0,5.7c1.7,0.1,2.8,0.2,3.2,0.4c0.3,0.3,0.4,1.3,0.4,2.8c0,0.4,0,0.7-0.1,0.8
			c-0.6,0.1-1,0.1-1.4,0.1h-0.2c-0.1,0-0.4,0-0.8,0c-0.4,0-0.8,0-1.3,0c0,0.1,0,0.8,0,2.2c0,1.4,0,2.1,0,2.2c0,0.9,0.2,1.5,0.5,1.8
			c0.3,0.4,0.8,0.5,1.5,0.5c0.2,0,0.4,0,0.4-0.1c0.1,0,0.1-0.2,0.1-0.4c0-0.1,0.3-0.3,0.8-0.4l2-0.5c0.2,0.6,0.3,1.3,0.3,2
			c0,1.5-0.1,2.5-0.4,2.8c-0.1,0-0.2,0.1-0.5,0.3c-0.2,0.1-0.4,0.2-0.5,0.3c-0.1,0-0.2,0.1-0.4,0.2s-0.4,0.1-0.6,0.2
			c-0.2,0-0.4,0.1-0.7,0.1c-0.3,0-0.6,0.1-0.9,0.1c-0.3,0-0.7,0-1.2,0c-0.9,0-1.6,0-2.1-0.1s-1.1-0.3-1.6-0.6
			c-0.5-0.3-0.9-0.7-1.2-1.2c-0.3-0.5-0.5-1.2-0.7-2.1s-0.3-1.9-0.3-3.1s0-2.7,0-4.4c-0.9-0.1-1.5-0.2-1.8-0.4
			C723.7,71.9,723.6,71,723.6,69.4z"/>
		<path d="M736.7,64.5c0-1.5,0.3-2.4,0.8-2.7c0.7-0.4,1.9-0.6,3.7-0.6c0.9,0,2,0.1,3.1,0.4c0.4,0.7,0.7,2.4,0.7,5.2
			c0,2.1-0.1,3.4-0.3,4.1c2.1-1.6,4.1-2.4,5.9-2.4c1.6,0,2.9,0.6,3.8,1.7s1.4,2.8,1.4,5.1c0,0.4-0.1,1.5-0.2,3.3
			c0,0,0.1-0.1,0.3-0.1c0.3,0,0.8,0.1,1.4,0.2c0.2,0.2,0.3,0.9,0.3,2c0,1.4-0.1,2.3-0.3,2.6c-1.5,0.3-2.9,0.5-4.1,0.5
			c-1.4,0-2.6-0.1-3.6-0.4c-0.1-0.1-0.3-0.5-0.5-1.1c-0.2-0.6-0.2-1.2-0.2-1.6c0-0.7,0.2-1.2,0.5-1.7c0.2-0.1,0.5-0.2,0.8-0.2
			c0.1,0,0.2,0,0.2,0c0,0,0.1,0,0.1,0.1c0,0,0.1,0.1,0.2,0.1c0.1-0.6,0.2-1.2,0.2-1.7c0-1.2-0.3-2.1-0.8-2.7c-0.6-0.6-1.2-0.9-2-0.9
			c-0.8,0-1.5,0.4-2.1,1.1c-0.6,0.7-0.9,1.7-0.9,2.9c0,0.5,0.1,1,0.2,1.6c0.2-0.2,0.5-0.3,0.8-0.3c0.3,0,0.5,0.1,0.6,0.2
			c0.2,0,0.3,0.4,0.3,1.2c0,0.2-0.1,1-0.3,2.5c-1.4,0.6-3.1,0.9-5.1,0.9c-2.2,0-3.5-0.3-3.9-0.8c-0.2-0.2-0.3-0.6-0.3-1
			c0-1.4,0.3-2.3,0.8-2.6c0.2-0.2,0.6-0.3,1.1-0.3c0.1,0,0.2,0,0.5,0.1c-0.2-1.4-0.3-4.1-0.3-8.1c0-2.7,0.1-4.4,0.2-5.1
			c-0.3,0.1-0.8,0.2-1.4,0.2c-0.4,0-0.9,0-1.2-0.1C736.8,65.8,736.7,65.3,736.7,64.5z"/>
		<path d="M759.1,70.7c0-0.9,0-1.5,0.1-1.7c0.8-0.4,2.3-0.5,4.5-0.5c0.8,0,1.4,0.1,1.9,0.2c0.4,0.1,0.8,0.3,1.2,0.7
			c0,0.3,0,0.9,0,1.5l0.1-0.2c0.1-0.2,0.2-0.4,0.4-0.6s0.4-0.5,0.6-0.7s0.6-0.4,1-0.6c0.4-0.2,0.9-0.2,1.5-0.2c1.5,0,2.8,0.7,3.9,2
			c-0.4,1.9-1.5,3.2-3.3,3.9c-0.7-0.5-1.4-0.8-2-0.8c-0.8,0-1.4,0.4-1.8,1.2s-0.6,1.8-0.6,2.9c0,0.4,0,0.8,0.1,1.3
			c0.1,0,0.5,0.1,1.1,0.2l0.3,0.1c0.3,0.2,0.4,0.8,0.4,1.6c0,0.6-0.1,1.2-0.2,1.8c-0.2,0.6-0.4,1-0.6,1.3c-0.4,0.1-1.4,0.1-3.2,0.1
			c-1,0-2.1-0.1-3.1-0.3c-1.1-0.2-1.7-0.4-1.8-0.6c-0.1-0.2-0.1-0.8-0.1-1.7c0-1.6,0.1-2.4,0.2-2.5c0.8-0.2,1.4-0.3,1.6-0.3
			c0.3,0,0.5,0,0.8,0.1c-0.3-0.3-0.5-1.7-0.5-4.3c0-0.9,0-1.4,0.1-1.5c-0.2,0-0.5,0.1-0.7,0.1c-0.7,0-1.2-0.2-1.5-0.5
			C759.1,72.2,759.1,71.6,759.1,70.7z"/>
		<path d="M774,77.8c0-1.5,0.4-2.9,1.1-4.3s1.8-2.6,3.2-3.6c1.4-1,3-1.4,4.6-1.4c2,0,3.5,0.7,4.5,2.1c1,1.4,1.4,3.1,1.4,5.2
			c0,2.7-0.7,4.8-2.2,6.2c-1.5,1.4-3.4,2.1-5.8,2.1c-2.2,0-4-0.6-5.1-1.8S774,79.6,774,77.8z M779.8,77c0,0.6,0.2,1.1,0.6,1.6
			c0.4,0.5,0.9,0.7,1.5,0.7c0.8,0,1.5-0.4,2.2-1.1c0.7-0.7,1-1.5,1-2.4c0-0.7-0.2-1.2-0.6-1.7c-0.4-0.4-0.9-0.7-1.6-0.7
			c-0.9,0-1.6,0.4-2.3,1.2S779.8,76.1,779.8,77z"/>
		<path d="M790.1,72c0-1.4,0.1-2.2,0.3-2.5c1.5-0.4,2.9-0.6,4.1-0.6c1.4,0,2.6,0.2,3.6,0.6c0.1,0.1,0.3,0.5,0.5,1.1s0.2,1.1,0.2,1.6
			c0,0.7-0.2,1.2-0.5,1.7c-0.2,0.1-0.5,0.2-0.8,0.2c-0.1,0-0.2,0-0.2,0c0,0-0.1,0-0.1-0.1c0,0-0.1-0.1-0.2-0.1
			c-0.1,0.6-0.2,1.1-0.2,1.6c0,1.2,0.3,2.1,0.9,2.7s1.3,0.9,2.1,0.9c0.8,0,1.5-0.4,2.1-1.1c0.6-0.7,0.9-1.7,0.9-2.9
			c0-0.5-0.1-1-0.2-1.6c-0.2,0.2-0.5,0.2-0.9,0.2c-0.2,0-0.4-0.1-0.4-0.2c-0.3-0.1-0.4-0.7-0.4-1.8c0-1,0.2-1.6,0.5-1.8
			c1.4-0.7,3-1,4.9-1c2.2,0,3.5,0.3,3.8,0.8c0.2,0.3,0.3,0.8,0.3,1.3c0,1.1-0.3,1.9-0.9,2.2c-0.2,0.2-0.5,0.3-0.8,0.3
			c-0.1,0-0.3,0-0.5-0.1c0,0.6,0,1.5,0.1,2.8s0.1,2.3,0.1,2.9c0.6,0,1-0.1,1.1-0.1c0.2,0,0.4,0,0.5,0c0.1,0.1,0.1,0.3,0.1,0.6
			c0,0.5-0.1,1.2-0.3,2c-0.2,0.8-0.4,1.3-0.5,1.5c-0.2,0.1-0.7,0.3-1.5,0.4c-0.8,0.1-1.6,0.2-2.4,0.2c-0.9,0-1.6-0.1-2.1-0.4
			c-0.2-0.1-0.3-0.4-0.3-0.8c0-0.1,0-0.4,0.1-1c-2.1,1.6-4.1,2.4-5.9,2.4c-1.6,0-2.9-0.6-3.8-1.7s-1.4-2.8-1.4-5.1
			c0-0.4,0.1-1.5,0.2-3.3c0,0-0.1,0.1-0.3,0.1c-0.3,0-0.8,0-1.4-0.2C790.2,73.7,790.1,73.1,790.1,72z"/>
		<path d="M811.8,77.9c0-1.5,0.4-2.9,1.1-4.4c0.7-1.4,1.8-2.6,3.2-3.6c1.4-1,3-1.5,4.7-1.5c0.6,0,1.1,0.1,1.7,0.2
			c0.3-0.4,0.5-0.7,0.6-0.9s0.3-0.4,0.5-0.7c0.2-0.2,0.3-0.4,0.5-0.5c0.1-0.1,0.3-0.2,0.4-0.2c0.4,0,1.2,0.5,2.4,1.4
			c1.2,1,1.8,1.7,1.8,2.3c0,0.2-0.4,0.6-1,1.2c-0.7,0.6-1.2,1-1.6,1.3c0.3,1,0.5,2.1,0.5,3.3c0,2.4-0.7,4.3-2,5.8
			c-1.3,1.5-2.9,2.3-4.9,2.4c0.4,0.2,1.3,0.3,2.6,0.4c1.4,0.1,2.6,0.2,3.6,0.5c1,0.2,1.5,0.7,1.5,1.5c0,0.7-0.5,1.4-1.5,2
			s-2.1,1.2-3.5,1.6s-2.6,0.7-3.7,1s-2,0.4-2.5,0.4c-0.5,0-0.8-0.1-1.1-0.4s-0.5-0.6-0.5-0.9c-0.1-0.3-0.2-0.7-0.2-1.3
			c3.4-0.8,5.2-1.3,5.2-1.5c0,0-0.3-0.1-0.8-0.2s-1.2-0.2-1.8-0.3c-0.7-0.1-1.3-0.4-1.8-0.9c-0.6-0.4-0.8-1-0.8-1.7
			c0-0.3,0.1-0.6,0.4-0.9c-1-0.5-1.8-1.3-2.3-2.2S811.8,79.1,811.8,77.9z M817.6,77c0,0.6,0.2,1.2,0.6,1.6s0.9,0.7,1.5,0.7
			c0.8,0,1.5-0.4,2.2-1.1c0.7-0.7,1-1.5,1-2.5c0-0.7-0.2-1.2-0.6-1.7c-0.4-0.5-0.9-0.7-1.6-0.7c-0.9,0-1.6,0.4-2.3,1.2
			C817.9,75.4,817.6,76.2,817.6,77z"/>
		<path d="M828.1,64.5c0-1.5,0.3-2.4,0.8-2.7c0.7-0.4,1.9-0.6,3.7-0.6c0.9,0,2,0.1,3.1,0.4c0.4,0.7,0.7,2.4,0.7,5.2
			c0,2.1-0.1,3.4-0.3,4.1c2.1-1.6,4.1-2.4,5.9-2.4c1.6,0,2.9,0.6,3.8,1.7s1.4,2.8,1.4,5.1c0,0.4-0.1,1.5-0.2,3.3
			c0,0,0.1-0.1,0.3-0.1c0.3,0,0.8,0.1,1.4,0.2c0.2,0.2,0.3,0.9,0.3,2c0,1.4-0.1,2.3-0.3,2.6c-1.5,0.3-2.9,0.5-4.1,0.5
			c-1.4,0-2.6-0.1-3.6-0.4c-0.1-0.1-0.3-0.5-0.5-1.1c-0.2-0.6-0.2-1.2-0.2-1.6c0-0.7,0.2-1.2,0.5-1.7c0.2-0.1,0.5-0.2,0.8-0.2
			c0.1,0,0.2,0,0.2,0c0,0,0.1,0,0.1,0.1c0,0,0.1,0.1,0.2,0.1c0.1-0.6,0.2-1.2,0.2-1.7c0-1.2-0.3-2.1-0.8-2.7c-0.6-0.6-1.2-0.9-2-0.9
			c-0.8,0-1.5,0.4-2.1,1.1c-0.6,0.7-0.9,1.7-0.9,2.9c0,0.5,0.1,1,0.2,1.6c0.2-0.2,0.5-0.3,0.8-0.3c0.3,0,0.5,0.1,0.6,0.2
			c0.2,0,0.3,0.4,0.3,1.2c0,0.2-0.1,1-0.3,2.5c-1.4,0.6-3.1,0.9-5.1,0.9c-2.2,0-3.5-0.3-3.9-0.8c-0.2-0.2-0.3-0.6-0.3-1
			c0-1.4,0.3-2.3,0.8-2.6c0.2-0.2,0.6-0.3,1.1-0.3c0.1,0,0.2,0,0.5,0.1c-0.2-1.4-0.3-4.1-0.3-8.1c0-2.7,0.1-4.4,0.2-5.1
			c-0.3,0.1-0.8,0.2-1.4,0.2c-0.4,0-0.9,0-1.2-0.1C828.2,65.8,828.1,65.3,828.1,64.5z"/>
		<path d="M855.4,69.4c0-0.4,0-0.7,0.1-0.8c0.6-0.1,1-0.1,1.3-0.1c0.1,0,0.2,0,0.3,0c0.1,0,0.2,0,0.3,0h0.1V63
			c1.5-0.1,2.5-0.2,2.8-0.2c0.7,0,1.7,0.1,2.7,0.2l0,5.7c1.7,0.1,2.8,0.2,3.2,0.4c0.3,0.3,0.4,1.3,0.4,2.8c0,0.4,0,0.7-0.1,0.8
			c-0.6,0.1-1,0.1-1.4,0.1h-0.2c-0.1,0-0.4,0-0.8,0c-0.4,0-0.8,0-1.3,0c0,0.1,0,0.8,0,2.2c0,1.4,0,2.1,0,2.2c0,0.9,0.2,1.5,0.5,1.8
			c0.3,0.4,0.8,0.5,1.5,0.5c0.2,0,0.4,0,0.4-0.1c0.1,0,0.1-0.2,0.1-0.4c0-0.1,0.3-0.3,0.8-0.4l2-0.5c0.2,0.6,0.3,1.3,0.3,2
			c0,1.5-0.1,2.5-0.4,2.8c-0.1,0-0.2,0.1-0.5,0.3c-0.2,0.1-0.4,0.2-0.5,0.3c-0.1,0-0.2,0.1-0.4,0.2s-0.4,0.1-0.6,0.2
			c-0.2,0-0.4,0.1-0.7,0.1c-0.3,0-0.6,0.1-0.9,0.1c-0.3,0-0.7,0-1.2,0c-0.9,0-1.6,0-2.1-0.1s-1.1-0.3-1.6-0.6
			c-0.5-0.3-0.9-0.7-1.2-1.2c-0.3-0.5-0.5-1.2-0.7-2.1s-0.3-1.9-0.3-3.1s0-2.7,0-4.4c-0.9-0.1-1.5-0.2-1.8-0.4
			C855.5,71.9,855.4,71,855.4,69.4z"/>
		<path d="M868.5,64.5c0-1.5,0.3-2.4,0.8-2.7c0.7-0.4,1.9-0.6,3.7-0.6c0.9,0,2,0.1,3.1,0.4c0.4,0.7,0.7,2.4,0.7,5.2
			c0,2.1-0.1,3.4-0.3,4.1c2.1-1.6,4.1-2.4,5.9-2.4c1.6,0,2.9,0.6,3.8,1.7s1.4,2.8,1.4,5.1c0,0.4-0.1,1.5-0.2,3.3
			c0,0,0.1-0.1,0.3-0.1c0.3,0,0.8,0.1,1.4,0.2c0.2,0.2,0.3,0.9,0.3,2c0,1.4-0.1,2.3-0.3,2.6c-1.5,0.3-2.9,0.5-4.1,0.5
			c-1.4,0-2.6-0.1-3.6-0.4c-0.1-0.1-0.3-0.5-0.5-1.1c-0.2-0.6-0.2-1.2-0.2-1.6c0-0.7,0.2-1.2,0.5-1.7c0.2-0.1,0.5-0.2,0.8-0.2
			c0.1,0,0.2,0,0.2,0c0,0,0.1,0,0.1,0.1c0,0,0.1,0.1,0.2,0.1c0.1-0.6,0.2-1.2,0.2-1.7c0-1.2-0.3-2.1-0.8-2.7c-0.6-0.6-1.2-0.9-2-0.9
			c-0.8,0-1.5,0.4-2.1,1.1c-0.6,0.7-0.9,1.7-0.9,2.9c0,0.5,0.1,1,0.2,1.6c0.2-0.2,0.5-0.3,0.8-0.3c0.3,0,0.5,0.1,0.6,0.2
			c0.2,0,0.3,0.4,0.3,1.2c0,0.2-0.1,1-0.3,2.5c-1.4,0.6-3.1,0.9-5.1,0.9c-2.2,0-3.5-0.3-3.9-0.8c-0.2-0.2-0.3-0.6-0.3-1
			c0-1.4,0.3-2.3,0.8-2.6c0.2-0.2,0.6-0.3,1.1-0.3c0.1,0,0.2,0,0.5,0.1c-0.2-1.4-0.3-4.1-0.3-8.1c0-2.7,0.1-4.4,0.2-5.1
			c-0.3,0.1-0.8,0.2-1.4,0.2c-0.4,0-0.9,0-1.2-0.1C868.6,65.8,868.5,65.3,868.5,64.5z"/>
		<path d="M890.6,77.1c0-0.9,0.2-1.9,0.6-2.9s0.9-1.9,1.6-2.8c0.7-0.9,1.7-1.6,2.9-2.1s2.6-0.8,4.1-0.8c1.7,0,3,0.3,3.9,1
			c0.9,0.7,1.4,1.6,1.4,2.9c0,1.7-0.8,3-2.3,4.1s-3.3,1.6-5.2,1.6c-0.5,0-1,0-1.6-0.2c0,1.4,1.3,2.1,3.7,2.1c0.4,0,0.8,0,1.1-0.1
			c0-0.2,0-0.3,0.1-0.5c0.9-0.7,1.8-1,2.9-1c0.2,0,0.3,0,0.4,0c1.3,0.7,2.1,1.9,2.4,3.5c0,0.2-0.1,0.3-0.2,0.5
			c-0.1,0.2-0.3,0.3-0.4,0.5c-0.1,0.1-0.3,0.3-0.6,0.4s-0.5,0.3-0.6,0.4c-0.1,0.1-0.4,0.2-0.7,0.4c-0.3,0.2-0.5,0.2-0.5,0.3
			c-0.1,0-0.2,0-0.3,0c-0.1,0-0.2-0.1-0.2-0.1s-0.1-0.1-0.1-0.1c0,0-0.1-0.1-0.1-0.2s-0.1-0.2-0.1-0.2c-1.1,0.4-2.3,0.6-3.5,0.6
			c-2.7,0-4.8-0.7-6.3-2.1S890.6,79.1,890.6,77.1z M896.4,74c0,0.7,0.5,1,1.4,1c0.7,0,1.4-0.2,2.1-0.5s1-0.8,1-1.3
			c0-0.3-0.1-0.7-0.3-1.1c-0.2-0.4-0.6-0.6-1.1-0.6c-0.6,0-1.3,0.3-2,0.8C896.8,72.9,896.4,73.4,896.4,74z"/>
		<path d="M913.3,81.7c0-1.2,0.3-2,0.8-2.3c0.2-0.2,0.5-0.3,0.8-0.3c0.1,0,0.2,0,0.5,0.1c0-0.6,0-1.5-0.1-2.8c0-1.3-0.1-2.2-0.1-2.9
			c-0.1,0-0.2,0-0.4,0.1c-0.2,0.1-0.3,0.1-0.4,0.1c-0.1,0-0.2,0-0.4-0.1s-0.3-0.1-0.4-0.1c-0.1-0.1-0.1-0.3-0.1-0.6
			c0-0.5,0.1-1.2,0.2-2c0.2-0.8,0.3-1.3,0.5-1.5c0.2-0.1,0.7-0.2,1.4-0.4c0.7-0.1,1.5-0.2,2.2-0.2c1,0,1.7,0.1,2.4,0.4
			c0.1,0.1,0.2,0.4,0.2,0.8c0,0.1-0.1,0.4-0.2,1c2.1-1.6,4.1-2.4,5.9-2.4c1.9,0,3.4,0.8,4.3,2.4c2.3-1.6,4.4-2.4,6.3-2.4
			c1.5,0,2.8,0.6,3.7,1.7c1,1.1,1.4,2.8,1.4,5.1c0,0.3-0.1,1.4-0.2,3.3c0,0,0.1-0.1,0.3-0.1c0.3,0,0.8,0,1.4,0.1
			c0.2,0.2,0.3,0.9,0.3,2c0,1.4-0.1,2.3-0.3,2.6c-1.5,0.4-2.9,0.6-4.1,0.6c-1.4,0-2.6-0.2-3.6-0.5c-0.1-0.1-0.3-0.5-0.5-1.1
			s-0.2-1.2-0.2-1.6c0-0.7,0.2-1.2,0.5-1.7c0.2-0.1,0.5-0.2,0.8-0.2c0.1,0,0.2,0,0.2,0s0.1,0,0.1,0.1c0,0,0.1,0.1,0.2,0.1
			c0.1-0.6,0.2-1.1,0.2-1.6c0-1.1-0.3-2-0.8-2.6c-0.5-0.6-1.2-0.9-2-0.9c-0.6,0-1.1,0.2-1.6,0.5s-0.9,0.8-1.2,1.5
			c0,1.5-0.1,2.4-0.2,2.9c0,0,0.1-0.1,0.3-0.1c0.3,0,0.8,0,1.4,0.1c0.2,0.2,0.3,0.9,0.3,2c0,1.4-0.1,2.3-0.3,2.6
			c-1.5,0.4-2.9,0.6-4.1,0.6c-1.4,0-2.6-0.2-3.6-0.5c-0.1-0.1-0.3-0.5-0.5-1.1c-0.2-0.6-0.2-1.2-0.2-1.6c0-0.7,0.2-1.2,0.5-1.7
			c0.2-0.1,0.5-0.2,0.8-0.2c0.1,0,0.2,0,0.2,0s0.1,0,0.1,0.1s0.1,0.1,0.2,0.1c0.1-0.5,0.1-0.8,0.1-1.2c0-1.3-0.3-2.4-0.8-3
			s-1.2-1-2-1c-0.8,0-1.5,0.3-2.1,1c-0.6,0.7-0.9,1.6-0.9,2.8c0,0.5,0.1,1.1,0.2,1.6c0.2-0.1,0.5-0.2,0.9-0.2c0.4,0,0.6,0.1,0.7,0.2
			c0.2,0,0.3,0.4,0.3,1.2c0,0.2-0.1,1-0.3,2.5c-1.5,0.7-3.3,1-5.4,1c-1.9,0-3.1-0.3-3.6-0.9C913.4,82.7,913.3,82.3,913.3,81.7z"/>
		<path d="M944.9,77.4c0-1.4,0.2-2.8,0.6-4.1c0.4-1.3,1.1-2.4,2.1-3.4c1-0.9,2.1-1.4,3.4-1.4c0.5,0,1,0.1,1.5,0.2
			c0.4,0.2,0.8,0.4,1,0.6c0.3,0.2,0.5,0.5,0.6,0.7c0.2,0.2,0.3,0.4,0.3,0.6l0.1,0.2c0-0.7,0-1.2,0-1.5c0.7-0.6,1.9-0.8,3.6-0.8
			c0.6,0,1.1,0,1.6,0.1c0.5,0,0.8,0.1,1.1,0.2s0.4,0.1,0.6,0.2s0.2,0.1,0.3,0.1l0.1,0c0.1,0.2,0.1,0.7,0.1,1.7c0,1,0,1.5-0.1,1.7
			c-0.3,0.4-0.8,0.5-1.5,0.5c-0.2,0-0.4,0-0.7-0.1c0.1,0.1,0.1,0.6,0.1,1.4c0,2.5-0.1,3.9-0.3,4.2c0.1-0.1,0.3-0.1,0.5-0.1
			c0.2,0,0.8,0.1,1.6,0.4c0.2,0.1,0.2,1,0.2,2.7c0,0.9,0,1.4-0.1,1.7c-0.1,0.2-0.6,0.4-1.3,0.6s-1.6,0.3-2.4,0.3c-2.4,0-3.8,0-4-0.1
			c-0.1-0.4-0.2-0.7-0.2-0.9c0-0.2,0-0.3,0.1-0.4c-0.3,0.1-0.9,0.4-1.9,0.9c-1,0.5-1.7,0.8-2.2,0.8c-1.5,0-2.7-0.7-3.5-2
			S944.9,79.3,944.9,77.4z M948.9,76.9c0,0.7,0.2,1.3,0.6,1.8s0.9,0.7,1.5,0.7c0.8,0,1.6-0.4,2.3-1.1c0.7-0.7,1-1.6,1-2.6
			c0-0.7-0.2-1.2-0.6-1.7c-0.4-0.4-0.9-0.7-1.5-0.7c-0.6,0-1.2,0.2-1.7,0.6c-0.5,0.4-0.9,0.9-1.2,1.5C949,76,948.9,76.4,948.9,76.9z
			"/>
		<path d="M963.1,89.1c0-1,0.1-1.5,0.2-1.7c0.1-0.2,0.5-0.3,1-0.4s1.1-0.1,1.5-0.1c0.2,0,0.3,0,0.4,0c0-0.3,0-1.2,0.1-2.5
			s0.1-2.5,0.1-3.5c0-3.5,0.1-5.9,0.3-7c-0.1,0-0.2,0-0.6,0c-0.7,0-1.4-0.1-2.1-0.2c-0.2-0.1-0.3-0.9-0.3-2.5c0-0.9,0-1.5,0.1-1.7
			c0.1-0.2,0.6-0.4,1.4-0.7s1.6-0.3,2.6-0.3c1.8,0,2.9,0,3.3,0.1c0.1,0.4,0.2,0.8,0.2,1.1c0,0.2,0,0.3,0,0.3c0.3-0.1,1-0.4,1.9-0.9
			c1-0.5,1.8-0.7,2.5-0.7c1.1,0,2,0.4,2.8,1.3c0.8,0.8,1.5,1.8,1.8,3s0.6,2.3,0.6,3.4c0,2-0.6,3.8-1.8,5.4c-1.2,1.6-2.8,2.4-4.8,2.4
			c-0.9,0-1.8-0.1-2.6-0.4c0,0,0,0.4,0,1.2c0,0.8,0,1.6,0,2.4c0,2,0,3-0.1,3.2c-0.7,0.6-2.1,0.9-4.3,0.9c-1,0-1.9-0.1-2.6-0.2
			s-1.1-0.2-1.3-0.3l-0.2-0.1C963.1,90.6,963.1,90,963.1,89.1z M970.9,77.2c0,0.7,0.2,1.2,0.6,1.7s0.9,0.7,1.6,0.7
			c0.8,0,1.6-0.4,2.2-1.2c0.7-0.8,1-1.6,1-2.4c0-0.6-0.2-1.2-0.6-1.7c-0.4-0.5-0.9-0.7-1.5-0.7c-0.8,0-1.6,0.4-2.3,1.1
			C971.3,75.4,970.9,76.3,970.9,77.2z"/>
		<path d="M982.2,69.5c0-2.3,0.4-4.4,1.3-6.4c0.1,0,0.3-0.1,0.5-0.2c0.2-0.1,0.4-0.2,0.6-0.2c0.2,0,0.4-0.1,0.6-0.1
			c0.5,0,1,0.1,1.5,0.4c1,2.2,1.5,4.6,1.5,6.9c0,2.7-0.7,5.3-2,7.8c-0.3,0.3-0.7,0.4-1,0.4c-0.3,0-0.7-0.1-1-0.3
			C982.9,75.1,982.2,72.3,982.2,69.5z M983.5,81.9c0-0.6,0.1-1.1,0.2-1.7c0.4-0.2,0.9-0.2,1.4-0.2c0.5,0,1,0.1,1.6,0.2
			c0.2,0.6,0.3,1.2,0.3,1.8c0,0.6-0.1,1.2-0.3,1.8c-0.4,0.2-0.9,0.2-1.4,0.2c-0.7,0-1.2-0.1-1.6-0.2
			C983.5,83.2,983.5,82.5,983.5,81.9z"/>
	</g>
</g>
</svg>
