<svg version="1.1" id="Walk-Map-4" xmlns="http://www.w3.org/2000/svg" xmlns:xlink="http://www.w3.org/1999/xlink" x="0px"
	 y="0px" viewBox="0 0 1080 14580" style="enable-background:new 0 0 1080 14580;" xml:space="preserve">
<style type="text/css">
	.footstep{stroke:#000000;stroke-width:0.35;}
</style>
<g id="Step-40">
	<g>
		<path class="footstep" d="M189.8,14387.8c0,0.4,0.4,0.7,0.9,0.8c2.6,0.2,10.9,0.5,12.8-3.2c0.2-0.4,0.9-1.8,0.3-3.2
			c-0.5-1.3-2-2-3.1-2.2c-0.6-0.1-0.9,0-1.4,0c-2.5,0.4-4.6,1.3-5.1,1.5c-0.9,0.4-2.4,0.8-4.2,1c-0.5,0-0.9,0.5-0.7,1.1
			C189.3,14384.9,189.5,14386.3,189.8,14387.8z"/>
		<path class="footstep" d="M187.9,14388.8c0.5-0.1,0.8-0.5,0.7-1.1l-0.6-4.4c0-0.4-0.4-0.7-0.8-0.8c-1.7-0.2-3.3,0.5-3.9,1.8
			c-0.5,1.1-0.2,2.4,0.3,3.2C184.4,14388.7,186.1,14389.2,187.9,14388.8z"/>
	</g>
	<g>
		<path class="footstep" d="M188.6,14379c0.1,0.5,0.7,0.8,1.1,0.6c1.7-0.5,3.2-0.6,4.3-0.6c0.4,0,2.8,0,5.3-0.5
			c0.4-0.1,0.8-0.2,1.3-0.5c0.9-0.6,2-1.8,2.1-3.2c0-1.5-1.1-2.6-1.5-2.9c-3.1-2.7-10.7,0.7-13.1,1.8c-0.3,0.2-0.6,0.7-0.4,1
			C187.9,14376.3,188.1,14377.7,188.6,14379z"/>
		<path class="footstep" d="M181.9,14377.4c-0.2,1.1-0.1,2.3,0.9,3.1c1,1,2.8,1,4.4,0.2c0.3-0.2,0.6-0.7,0.4-1l-1.1-4.3
			c-0.1-0.5-0.7-0.8-1.1-0.8C183.7,14374.9,182.3,14376,181.9,14377.4z"/>
	</g>
</g>
<g id="Step-39">
	<g>
		<path class="footstep" d="M189.8,13577.8c0,0.4,0.4,0.7,0.9,0.8c2.6,0.2,10.9,0.5,12.8-3.2c0.2-0.4,0.9-1.8,0.3-3.2
			c-0.5-1.3-2-2-3.1-2.2c-0.6-0.1-0.9,0-1.4,0c-2.5,0.4-4.6,1.3-5.1,1.5c-0.9,0.4-2.4,0.8-4.2,1c-0.5,0-0.9,0.5-0.7,1.1
			C189.3,13574.9,189.5,13576.3,189.8,13577.8z"/>
		<path class="footstep" d="M187.9,13578.8c0.5-0.1,0.8-0.5,0.7-1.1l-0.6-4.4c0-0.4-0.4-0.7-0.8-0.8c-1.7-0.2-3.3,0.5-3.9,1.8
			c-0.5,1.1-0.2,2.4,0.3,3.2C184.4,13578.7,186.1,13579.2,187.9,13578.8z"/>
	</g>
	<g>
		<path class="footstep" d="M144.4,13575.6c0,0.5,0.5,0.9,1,0.8c1.8-0.1,3.3,0,4.3,0.2c0.4,0.1,2.8,0.6,5.3,0.5c0.4,0,0.8-0.1,1.4-0.3
			c1-0.4,2.3-1.4,2.6-2.7c0.3-1.5-0.6-2.7-0.9-3.1c-2.6-3.3-10.7-1.4-13.2-0.7c-0.4,0.2-0.7,0.5-0.6,0.9
			C144.3,13572.7,144.3,13574.2,144.4,13575.6z"/>
		<path class="footstep" d="M138.2,13572.7c-0.4,1-0.5,2.2,0.3,3.2c0.8,1.2,2.5,1.5,4.3,1c0.4-0.2,0.7-0.5,0.6-0.9l-0.2-4.4
			c0-0.5-0.5-0.9-0.9-0.9C140.4,13570.5,138.8,13571.4,138.2,13572.7z"/>
	</g>
</g>
<g id="Step-38">
	<g>
		<path class="footstep" d="M112.8,12776.7c-0.1,0.4,0.2,0.8,0.5,1c2.3,1,10.1,4.2,13.1,1.3c0.3-0.3,1.5-1.4,1.4-2.9
			c0-1.4-1.2-2.6-2.1-3.1c-0.5-0.3-0.9-0.3-1.3-0.5c-2.5-0.4-4.8-0.4-5.3-0.3c-1,0-2.5,0-4.3-0.4c-0.5-0.1-1,0.1-1,0.7
			C113.3,12773.8,113.1,12775.2,112.8,12776.7z"/>
		<path class="footstep" d="M110.7,12776.9c0.5,0,0.9-0.3,1-0.7l0.9-4.4c0.1-0.4-0.2-0.8-0.4-1c-1.6-0.8-3.3-0.7-4.3,0.4
			c-0.8,0.9-1,2.1-0.8,3.2C107.4,12775.7,108.9,12776.8,110.7,12776.9z"/>
	</g>
	<g>
		<path class="footstep" d="M144.4,12765.6c0,0.5,0.5,0.9,1,0.8c1.8-0.1,3.3,0,4.3,0.2c0.4,0.1,2.8,0.6,5.3,0.5c0.4,0,0.8-0.1,1.4-0.3
			c1-0.4,2.3-1.4,2.6-2.7c0.3-1.5-0.6-2.7-0.9-3.1c-2.6-3.3-10.7-1.4-13.2-0.7c-0.4,0.2-0.7,0.5-0.6,0.9
			C144.3,12762.7,144.3,12764.2,144.4,12765.6z"/>
		<path class="footstep" d="M138.2,12762.7c-0.4,1-0.5,2.2,0.3,3.2c0.8,1.2,2.5,1.5,4.3,1c0.4-0.2,0.7-0.5,0.6-0.9l-0.2-4.4
			c0-0.5-0.5-0.9-0.9-0.9C140.4,12760.5,138.8,12761.4,138.2,12762.7z"/>
	</g>
</g>
<g id="Step-37">
	<g>
		<path class="footstep" d="M112.8,11966.7c-0.1,0.4,0.2,0.8,0.5,1c2.3,1,10.1,4.2,13.1,1.3c0.3-0.3,1.5-1.4,1.4-2.9
			c0-1.4-1.2-2.6-2.1-3.1c-0.5-0.3-0.9-0.3-1.3-0.5c-2.5-0.4-4.8-0.4-5.3-0.3c-1,0-2.5,0-4.3-0.4c-0.5-0.1-1,0.1-1,0.7
			C113.3,11963.8,113.1,11965.2,112.8,11966.7z"/>
		<path class="footstep" d="M110.7,11966.9c0.5,0,0.9-0.3,1-0.7l0.9-4.4c0.1-0.4-0.2-0.8-0.4-1c-1.6-0.8-3.3-0.7-4.3,0.4
			c-0.8,0.9-1,2.1-0.8,3.2C107.4,11965.7,108.9,11966.8,110.7,11966.9z"/>
	</g>
	<g>
		<path class="footstep" d="M90.1,11946.9c-0.5,0.1-0.8,0.7-0.5,1.2c0.6,1.7,0.9,3.1,1,4.2c0,0.4,0.2,2.8,1,5.2c0.1,0.4,0.3,0.8,0.6,1.2
			c0.7,0.9,1.9,1.8,3.4,1.8c1.5-0.1,2.4-1.4,2.7-1.7c2.4-3.4-1.6-10.6-3-12.9c-0.3-0.3-0.7-0.5-1.1-0.3
			C92.8,11946,91.4,11946.4,90.1,11946.9z"/>
		<path class="footstep" d="M91.1,11940.1c-1.1-0.1-2.3,0.2-3,1.2c-0.9,1.1-0.8,2.9,0.2,4.4c0.3,0.3,0.7,0.5,1.1,0.3l4.2-1.5
			c0.5-0.1,0.8-0.7,0.7-1.1C93.8,11941.7,92.6,11940.4,91.1,11940.1z"/>
	</g>
</g>
<g id="Step-36">
	<g>
		<path class="footstep" d="M90.1,11136.9c-0.5,0.1-0.8,0.7-0.5,1.2c0.6,1.7,0.9,3.1,1,4.2c0,0.4,0.2,2.8,1,5.2c0.1,0.4,0.3,0.8,0.6,1.2
			c0.7,0.9,1.9,1.8,3.4,1.8c1.5-0.1,2.4-1.4,2.7-1.7c2.4-3.4-1.6-10.6-3-12.9c-0.3-0.3-0.7-0.5-1.1-0.3
			C92.8,11136,91.4,11136.4,90.1,11136.9z"/>
		<path class="footstep" d="M91.1,11130.1c-1.1-0.1-2.3,0.2-3,1.2c-0.9,1.1-0.8,2.9,0.2,4.4c0.3,0.3,0.7,0.5,1.1,0.3l4.2-1.5
			c0.5-0.1,0.8-0.7,0.7-1.1C93.8,11131.7,92.6,11130.4,91.1,11130.1z"/>
	</g>
	<g>
		<path class="footstep" d="M84.4,11106.5c-0.3-0.2-0.8-0.1-1.1,0.2c-1.7,1.9-7,8.4-5.2,12.1c0.2,0.4,0.9,1.8,2.4,2.2
			c1.3,0.4,2.8-0.3,3.6-1.1c0.5-0.4,0.6-0.7,0.8-1.1c1.2-2.2,1.8-4.5,1.9-5c0.3-1,0.8-2.4,1.7-3.9c0.3-0.4,0.2-1-0.4-1.2
			C86.9,11107.9,85.7,11107.2,84.4,11106.5z"/>
		<path class="footstep" d="M84.7,11104.4c-0.2,0.5,0,0.9,0.4,1.2l3.9,2.2c0.3,0.2,0.8,0.1,1.1-0.1c1.2-1.2,1.6-2.9,1-4.2
			c-0.6-1.1-1.7-1.6-2.8-1.7C86.9,11101.7,85.5,11102.7,84.7,11104.4z"/>
	</g>
</g>
<g id="Step-35">
	<g>
		<path class="footstep" d="M84.4,10296.5c-0.3-0.2-0.8-0.1-1.1,0.2c-1.7,1.9-7,8.4-5.2,12.1c0.2,0.4,0.9,1.8,2.4,2.2
			c1.3,0.4,2.8-0.3,3.6-1.1c0.5-0.4,0.6-0.7,0.8-1.1c1.2-2.2,1.8-4.5,1.9-5c0.3-1,0.8-2.4,1.7-3.9c0.3-0.4,0.2-1-0.4-1.2
			C86.9,10297.9,85.7,10297.2,84.4,10296.5z"/>
		<path class="footstep" d="M84.7,10294.4c-0.2,0.5,0,0.9,0.4,1.2l3.9,2.2c0.3,0.2,0.8,0.1,1.1-0.1c1.2-1.2,1.6-2.9,1-4.2
			c-0.6-1.1-1.7-1.6-2.8-1.7C86.9,10291.7,85.5,10292.7,84.7,10294.4z"/>
	</g>
</g>
<g id="Step-34">
	<g>
		<path class="footstep" d="M206.9,6144.6c-0.5,0.1-0.8,0.7-0.5,1.2c0.6,1.7,0.9,3.1,1,4.2c0,0.4,0.2,2.8,1,5.2c0.1,0.4,0.3,0.8,0.6,1.2
			c0.7,0.9,1.9,1.8,3.4,1.8c1.5-0.1,2.4-1.4,2.7-1.7c2.4-3.4-1.6-10.6-3-12.9c-0.3-0.3-0.7-0.5-1.1-0.3
			C209.6,6143.7,208.2,6144.1,206.9,6144.6z"/>
		<path class="footstep" d="M207.9,6137.8c-1.1-0.1-2.3,0.2-3,1.2c-0.9,1.1-0.8,2.9,0.2,4.4c0.3,0.3,0.7,0.5,1.1,0.3l4.2-1.5
			c0.5-0.1,0.8-0.7,0.7-1.1C210.6,6139.3,209.4,6138.1,207.9,6137.8z"/>
	</g>
</g>
<g id="Step-33">
	<g>
		<path class="footstep" d="M206.9,5334.6c-0.5,0.1-0.8,0.7-0.5,1.2c0.6,1.7,0.9,3.1,1,4.2c0,0.4,0.2,2.8,1,5.2c0.1,0.4,0.3,0.8,0.6,1.2
			c0.7,0.9,1.9,1.8,3.4,1.8c1.5-0.1,2.4-1.4,2.7-1.7c2.4-3.4-1.6-10.6-3-12.9c-0.3-0.3-0.7-0.5-1.1-0.3
			C209.6,5333.7,208.2,5334.1,206.9,5334.6z"/>
		<path class="footstep" d="M207.9,5327.8c-1.1-0.1-2.3,0.2-3,1.2c-0.9,1.1-0.8,2.9,0.2,4.4c0.3,0.3,0.7,0.5,1.1,0.3l4.2-1.5
			c0.5-0.1,0.8-0.7,0.7-1.1C210.6,5329.3,209.4,5328.1,207.9,5327.8z"/>
	</g>
	<g>
		<path class="footstep" d="M181.6,5304.5c-0.4,0-0.7,0.4-0.8,0.9c-0.2,2.6-0.6,10.9,3.1,12.8c0.4,0.2,1.8,0.9,3.2,0.3
			c1.3-0.5,2-1.9,2.2-3c0.1-0.6,0-0.9,0-1.4c-0.4-2.5-1.2-4.6-1.5-5.1c-0.4-0.9-0.8-2.4-1-4.2c0-0.5-0.5-0.9-1-0.7
			C184.5,5304,183.1,5304.2,181.6,5304.5z"/>
		<path class="footstep" d="M180.7,5302.6c0.1,0.5,0.5,0.8,1,0.7l4.4-0.6c0.4,0,0.7-0.4,0.8-0.8c0.2-1.7-0.4-3.3-1.8-4
			c-1.1-0.5-2.4-0.3-3.2,0.3C180.8,5299.1,180.3,5300.8,180.7,5302.6z"/>
	</g>
</g>
<g id="Step-32">
	<g>
		<path class="footstep" d="M194.2,4454.4c-0.5,0-0.9,0.5-0.8,1c0.2,1.8,0.1,3.3-0.1,4.3c-0.1,0.4-0.5,2.8-0.4,5.3
			c0,0.4,0.1,0.8,0.3,1.4c0.4,1,1.4,2.3,2.8,2.6c1.5,0.3,2.7-0.7,3.1-1c3.2-2.6,1.2-10.7,0.4-13.2c-0.2-0.4-0.6-0.7-1-0.6
			C197,4454.2,195.5,4454.2,194.2,4454.4z"/>
		<path class="footstep" d="M196.9,4448c-1-0.4-2.2-0.4-3.2,0.4c-1.1,0.9-1.5,2.6-0.9,4.3c0.2,0.4,0.6,0.7,1,0.6l4.4-0.3
			c0.5,0,0.9-0.5,0.9-0.9C199.1,4450.2,198.2,4448.7,196.9,4448z"/>
	</g>
	<g>
		<path class="footstep" d="M181.6,4494.5c-0.4,0-0.7,0.4-0.8,0.9c-0.2,2.6-0.6,10.9,3.1,12.8c0.4,0.2,1.8,0.9,3.2,0.3
			c1.3-0.5,2-1.9,2.2-3c0.1-0.6,0-0.9,0-1.4c-0.4-2.5-1.2-4.6-1.5-5.1c-0.4-0.9-0.8-2.4-1-4.2c0-0.5-0.5-0.9-1-0.7
			C184.5,4494,183.1,4494.2,181.6,4494.5z"/>
		<path class="footstep" d="M180.7,4492.6c0.1,0.5,0.5,0.8,1,0.7l4.4-0.6c0.4,0,0.7-0.4,0.8-0.8c0.2-1.7-0.4-3.3-1.8-4
			c-1.1-0.5-2.4-0.3-3.2,0.3C180.8,4489.1,180.3,4490.8,180.7,4492.6z"/>
	</g>
</g>
<g id="Step-31">
	<g>
		<path class="footstep" d="M194.2,3644.4c-0.5,0-0.9,0.5-0.8,1c0.2,1.8,0.1,3.3-0.1,4.3c-0.1,0.4-0.5,2.8-0.4,5.3
			c0,0.4,0.1,0.8,0.3,1.4c0.4,1,1.4,2.3,2.8,2.6c1.5,0.3,2.7-0.7,3.1-1c3.2-2.6,1.2-10.7,0.4-13.2c-0.2-0.4-0.6-0.7-1-0.6
			C197,3644.2,195.5,3644.2,194.2,3644.4z"/>
		<path class="footstep" d="M196.9,3638c-1-0.4-2.2-0.4-3.2,0.4c-1.1,0.9-1.5,2.6-0.9,4.3c0.2,0.4,0.6,0.7,1,0.6l4.4-0.3
			c0.5,0,0.9-0.5,0.9-0.9C199.1,3640.2,198.2,3638.7,196.9,3638z"/>
	</g>
	<g>
		<path class="footstep" d="M178.1,3615.6c-0.4-0.1-0.8,0.1-1.1,0.5c-1.2,2.3-4.7,9.9-2,13.1c0.3,0.3,1.3,1.6,2.9,1.5
			c1.4,0.1,2.6-1,3.2-2c0.4-0.5,0.4-0.9,0.5-1.2c0.6-2.5,0.6-4.8,0.6-5.3c0-1,0.2-2.5,0.7-4.3c0.2-0.5-0.1-1-0.7-1.1
			C180.9,3616.3,179.5,3615.9,178.1,3615.6z"/>
		<path class="footstep" d="M177.9,3613.5c-0.1,0.5,0.2,0.9,0.7,1.1l4.3,1.2c0.4,0.1,0.8-0.1,1-0.4c0.9-1.5,0.8-3.2-0.1-4.3
			c-0.8-0.9-2.1-1.1-3.1-0.9C179.3,3610.3,178.2,3611.7,177.9,3613.5z"/>
	</g>
</g>
<g id="Step-30">
	<g>
		<path class="footstep" d="M203,2776.3c-0.4-0.2-1,0-1.2,0.5c-0.7,1.7-1.5,2.9-2.2,3.7c-0.3,0.3-1.8,2.1-3,4.4
			c-0.2,0.4-0.3,0.7-0.4,1.3c-0.1,1.1,0.1,2.7,1.2,3.6c1.2,1,2.7,0.7,3.1,0.7c4.1-0.7,6.3-8.7,6.9-11.2c0-0.4-0.1-0.9-0.5-1
			C205.6,2777.5,204.3,2776.8,203,2776.3z"/>
		<path class="footstep" d="M208.5,2772.2c-0.7-0.8-1.7-1.5-3-1.2c-1.4,0.2-2.6,1.5-2.9,3.3c0,0.4,0.1,0.9,0.5,1l4,1.9
			c0.4,0.2,1,0,1.3-0.3C209.4,2775.1,209.4,2773.4,208.5,2772.2z"/>
	</g>
	<g>
		<path class="footstep" d="M178.1,2805.6c-0.4-0.1-0.8,0.1-1.1,0.5c-1.2,2.3-4.7,9.9-2,13.1c0.3,0.3,1.3,1.6,2.9,1.5
			c1.4,0.1,2.6-1,3.2-2c0.4-0.5,0.4-0.9,0.5-1.2c0.6-2.5,0.6-4.8,0.6-5.3c0-1,0.2-2.5,0.7-4.3c0.2-0.5-0.1-1-0.7-1.1
			C180.9,2806.3,179.5,2805.9,178.1,2805.6z"/>
		<path class="footstep" d="M177.9,2803.5c-0.1,0.5,0.2,0.9,0.7,1.1l4.3,1.2c0.4,0.1,0.8-0.1,1-0.4c0.9-1.5,0.8-3.2-0.1-4.3
			c-0.8-0.9-2.1-1.1-3.1-0.9C179.3,2800.3,178.2,2801.7,177.9,2803.5z"/>
	</g>
</g>
<g id="Step-29">
	<g>
		<path class="footstep" d="M203,1966.3c-0.4-0.2-1,0-1.2,0.5c-0.7,1.7-1.5,2.9-2.2,3.7c-0.3,0.3-1.8,2.1-3,4.4
			c-0.2,0.4-0.3,0.7-0.4,1.3c-0.1,1.1,0.1,2.7,1.2,3.6c1.2,1,2.7,0.7,3.1,0.7c4.1-0.7,6.3-8.7,6.9-11.2c0-0.4-0.1-0.9-0.5-1
			C205.6,1967.5,204.3,1966.8,203,1966.3z"/>
		<path class="footstep" d="M208.5,1962.2c-0.7-0.8-1.7-1.5-3-1.2c-1.4,0.2-2.6,1.5-2.9,3.3c0,0.4,0.1,0.9,0.5,1l4,1.9
			c0.4,0.2,1,0,1.3-0.3C209.4,1965.1,209.4,1963.4,208.5,1962.2z"/>
	</g>
	<g>
		<path class="footstep" d="M208,1932.2c-0.3-0.3-0.8-0.3-1.2-0.1c-2.2,1.4-9.1,6-8.5,10.1c0.1,0.4,0.3,2,1.7,2.8c1.2,0.8,2.8,0.5,3.8,0
			c0.5-0.2,0.8-0.5,1.1-0.8c1.8-1.8,3-3.7,3.2-4.2c0.5-0.9,1.4-2,2.8-3.3c0.4-0.3,0.4-0.9,0-1.3
			C210,1934.3,209.1,1933.3,208,1932.2z"/>
		<path class="footstep" d="M208.9,1930.3c-0.3,0.4-0.3,0.9,0,1.3l3.1,3.2c0.3,0.3,0.8,0.3,1.1,0.2c1.5-0.8,2.4-2.3,2.1-3.8
			c-0.2-1.2-1.2-2.1-2.2-2.4C211.8,1928.3,210.1,1928.9,208.9,1930.3z"/>
	</g>
</g>
<g id="Step-28">
	<g>
		<path class="footstep" d="M242.4,1108.3c-0.3-0.4-0.9-0.5-1.3-0.1c-1.4,1.1-2.7,1.8-3.7,2.3c-0.4,0.1-2.6,1.1-4.7,2.6
			c-0.4,0.2-0.6,0.5-1,1c-0.6,0.9-1.1,2.4-0.6,3.7c0.6,1.4,2.1,1.9,2.5,2c4,1.3,9.6-4.8,11.3-6.8c0.2-0.4,0.3-0.8,0-1.1
			C244.1,1110.6,243.4,1109.4,242.4,1108.3z"/>
		<path class="footstep" d="M249.2,1107.2c-0.2-1.1-0.9-2.1-2.1-2.5c-1.3-0.5-3,0.1-4.1,1.6c-0.2,0.4-0.3,0.8,0,1.1l2.7,3.5
			c0.3,0.4,0.9,0.5,1.3,0.3C248.6,1110.2,249.4,1108.7,249.2,1107.2z"/>
	</g>
	<g>
		<path class="footstep" d="M208,1122.2c-0.3-0.3-0.8-0.3-1.2-0.1c-2.2,1.4-9.1,6-8.5,10.1c0.1,0.4,0.3,2,1.7,2.8c1.2,0.8,2.8,0.5,3.8,0
			c0.5-0.2,0.8-0.5,1.1-0.8c1.8-1.8,3-3.7,3.2-4.2c0.5-0.9,1.4-2,2.8-3.3c0.4-0.3,0.4-0.9,0-1.3
			C210,1124.3,209.1,1123.3,208,1122.2z"/>
		<path class="footstep" d="M208.9,1120.3c-0.3,0.4-0.3,0.9,0,1.3l3.1,3.2c0.3,0.3,0.8,0.3,1.1,0.2c1.5-0.8,2.4-2.3,2.1-3.8
			c-0.2-1.2-1.2-2.1-2.2-2.4C211.8,1118.3,210.1,1118.9,208.9,1120.3z"/>
	</g>
</g>
<g id="Step-27">
	<g>
		<path class="footstep" d="M242.4,298.3c-0.3-0.4-0.9-0.5-1.3-0.1c-1.4,1.1-2.7,1.8-3.7,2.3c-0.4,0.1-2.6,1.1-4.7,2.6
			c-0.4,0.2-0.6,0.5-1,1c-0.6,0.9-1.1,2.4-0.6,3.7c0.6,1.4,2.1,1.9,2.5,2c4,1.3,9.6-4.8,11.3-6.8c0.2-0.4,0.3-0.8,0-1.1
			C244.1,300.6,243.4,299.4,242.4,298.3z"/>
		<path class="footstep" d="M249.2,297.2c-0.2-1.1-0.9-2.1-2.1-2.5c-1.3-0.5-3,0.1-4.1,1.6c-0.2,0.4-0.3,0.8,0,1.1l2.7,3.5
			c0.3,0.4,0.9,0.5,1.3,0.3C248.6,300.2,249.4,298.7,249.2,297.2z"/>
	</g>
	<g>
		<path class="footstep" d="M254.1,278.4c0.1-0.4-0.2-0.8-0.6-1c-2.4-0.9-10.3-3.6-13.2-0.6c-0.3,0.3-1.4,1.5-1.2,3
			c0.1,1.4,1.3,2.5,2.3,3c0.5,0.3,0.9,0.3,1.3,0.4c2.5,0.3,4.8,0.1,5.3,0c1-0.1,2.5-0.1,4.3,0.2c0.5,0.1,1-0.2,1-0.8
			C253.7,281.3,253.9,279.9,254.1,278.4z"/>
		<path class="footstep" d="M256.2,278c-0.5,0-0.9,0.3-1,0.8l-0.7,4.4c-0.1,0.4,0.2,0.8,0.5,1c1.6,0.7,3.3,0.5,4.3-0.6
			c0.8-0.9,0.9-2.2,0.6-3.2C259.5,279.1,258,278.1,256.2,278z"/>
	</g>
</g>
</svg>