<svg version="1.1" id="Walk-Map-6" xmlns="http://www.w3.org/2000/svg" xmlns:xlink="http://www.w3.org/1999/xlink" x="0px"
	 y="0px" viewBox="0 0 1080 10530" style="enable-background:new 0 0 1080 10530;" xml:space="preserve">
<style type="text/css">
	.st0{stroke:#000000;stroke-width:0.35;}
</style>
<g id="Step-61">
	<g>
		<path class="st0" d="M1017.8,10152.9c0,0.4,0.4,0.7,0.8,0.8c2.5,0.3,10.9,1.1,13-2.5c0.2-0.4,1-1.8,0.5-3.2
			c-0.4-1.3-1.8-2.1-2.9-2.4c-0.6-0.2-0.9-0.1-1.4-0.1c-2.5,0.3-4.7,1-5.2,1.2c-0.9,0.3-2.4,0.7-4.2,0.8c-0.5,0-0.9,0.4-0.8,1
			C1017.5,10150,1017.6,10151.4,1017.8,10152.9z"/>
		<path class="st0" d="M1015.8,10153.8c0.5-0.1,0.8-0.5,0.8-1l-0.3-4.4c0-0.4-0.4-0.7-0.7-0.9c-1.7-0.3-3.3,0.3-4,1.6
			c-0.6,1.1-0.4,2.3,0.2,3.3C1012.4,10153.5,1014,10154.1,1015.8,10153.8z"/>
	</g>
	<g>
		<path class="st0" d="M1017.1,10144.5c0.1,0.5,0.6,0.9,1.1,0.7c1.8-0.4,3.2-0.5,4.3-0.4c0.4,0.1,2.8,0.2,5.3-0.2
			c0.4,0,0.8-0.2,1.3-0.5c1-0.5,2.1-1.7,2.2-3.1c0.1-1.5-1-2.6-1.3-2.9c-3-2.9-10.8,0.1-13.1,1.1c-0.3,0.2-0.6,0.6-0.5,1
			C1016.6,10141.7,1016.8,10143.1,1017.1,10144.5z"/>
		<path class="st0" d="M1010.5,10142.5c-0.3,1-0.2,2.3,0.7,3.1c1,1,2.7,1.2,4.4,0.4c0.3-0.2,0.6-0.6,0.5-1l-0.8-4.4
			c-0.1-0.5-0.6-0.9-1-0.8C1012.5,10140,1011,10141,1010.5,10142.5z"/>
	</g>
</g>
<g id="Step-60">
	<g>
		<path class="st0" d="M977.4,9355.6c0.1,0.4,0.6,0.6,1,0.6c2.5-0.3,10.8-1.7,11.9-5.8c0.1-0.4,0.5-2-0.4-3.2
			c-0.8-1.2-2.3-1.6-3.5-1.5c-0.6,0-0.9,0.2-1.3,0.3c-2.3,0.9-4.3,2.2-4.7,2.5c-0.8,0.6-2.2,1.3-3.9,1.9c-0.5,0.1-0.8,0.7-0.5,1.2
			C976.4,9352.9,976.9,9354.2,977.4,9355.6z"/>
		<path class="st0" d="M975.8,9357c0.4-0.2,0.6-0.7,0.5-1.2l-1.5-4.2c-0.1-0.4-0.6-0.6-0.9-0.6c-1.7,0.1-3.1,1.1-3.5,2.6
			c-0.3,1.2,0.3,2.4,1,3.1C972.3,9357.6,974.1,9357.8,975.8,9357z"/>
	</g>
	<g>
		<path class="st0" d="M1017.1,9334.5c0.1,0.5,0.6,0.9,1.1,0.7c1.8-0.4,3.2-0.5,4.3-0.4c0.4,0.1,2.8,0.2,5.3-0.2
			c0.4,0,0.8-0.2,1.3-0.5c1-0.5,2.1-1.7,2.2-3.1c0.1-1.5-1-2.6-1.3-2.9c-3-2.9-10.8,0.1-13.1,1.1c-0.3,0.2-0.6,0.6-0.5,1
			C1016.6,9331.7,1016.8,9333.1,1017.1,9334.5z"/>
		<path class="st0" d="M1010.5,9332.5c-0.3,1-0.2,2.3,0.7,3.1c1,1,2.7,1.2,4.4,0.4c0.3-0.2,0.6-0.6,0.5-1l-0.8-4.4
			c-0.1-0.5-0.6-0.9-1-0.8C1012.5,9330,1011,9331,1010.5,9332.5z"/>
	</g>
</g>
<g id="Step-59">
	<g>
		<path class="st0" d="M977.4,8545.6c0.1,0.4,0.6,0.6,1,0.6c2.5-0.3,10.8-1.7,11.9-5.8c0.1-0.4,0.5-2-0.4-3.2
			c-0.8-1.2-2.3-1.6-3.5-1.5c-0.6,0-0.9,0.2-1.3,0.3c-2.3,0.9-4.3,2.2-4.7,2.5c-0.8,0.6-2.2,1.3-3.9,1.9c-0.5,0.1-0.8,0.7-0.5,1.2
			C976.4,8542.9,976.9,8544.2,977.4,8545.6z"/>
		<path class="st0" d="M975.8,8547c0.4-0.2,0.6-0.7,0.5-1.2l-1.5-4.2c-0.1-0.4-0.6-0.6-0.9-0.6c-1.7,0.1-3.1,1.1-3.5,2.6
			c-0.3,1.2,0.3,2.4,1,3.1C972.3,8547.6,974.1,8547.8,975.8,8547z"/>
	</g>
	<g>
		<path class="st0" d="M937,8558.4c0.3,0.4,0.9,0.5,1.3,0.1c1.4-1.2,2.6-1.9,3.6-2.4c0.4-0.2,2.6-1.1,4.6-2.7c0.3-0.2,0.6-0.5,1-1
			c0.6-0.9,1.1-2.4,0.5-3.8c-0.6-1.4-2.1-1.8-2.5-2c-4-1.1-9.5,5.1-11.1,7.1c-0.2,0.4-0.3,0.9,0,1.1
			C935.2,8556.2,936,8557.4,937,8558.4z"/>
		<path class="st0" d="M930.2,8559.8c0.2,1.1,0.9,2.1,2.1,2.4c1.4,0.5,3-0.2,4-1.7c0.2-0.4,0.3-0.9,0-1.1l-2.8-3.4
			c-0.3-0.4-0.9-0.5-1.3-0.2C930.8,8556.7,930,8558.3,930.2,8559.8z"/>
	</g>
</g>
<g id="Step-58">
	<g>
		<path class="st0" d="M915.9,7783.5c0.2,0.3,0.7,0.4,1.2,0.2c2.2-1.3,9.3-5.7,8.8-9.8c0-0.4-0.3-2-1.6-2.8
			c-1.1-0.8-2.8-0.6-3.8-0.1c-0.5,0.2-0.8,0.5-1.1,0.8c-1.8,1.7-3.1,3.6-3.4,4.1c-0.6,0.8-1.5,2-2.9,3.2c-0.4,0.3-0.5,0.9,0,1.3
			C913.9,7781.4,914.8,7782.4,915.9,7783.5z"/>
		<path class="st0" d="M914.8,7785.4c0.3-0.4,0.3-0.9,0-1.3l-3-3.3c-0.2-0.3-0.7-0.4-1.1-0.2c-1.6,0.8-2.5,2.2-2.3,3.7
			c0.2,1.2,1.1,2.1,2.1,2.5C911.9,7787.3,913.6,7786.7,914.8,7785.4z"/>
	</g>
	<g>
		<path class="st0" d="M937,7748.4c0.3,0.4,0.9,0.5,1.3,0.1c1.4-1.2,2.6-1.9,3.6-2.4c0.4-0.2,2.6-1.1,4.6-2.7c0.3-0.2,0.6-0.5,1-1
			c0.6-0.9,1.1-2.4,0.5-3.8s-2.1-1.8-2.5-2c-4-1.1-9.5,5.1-11.1,7.1c-0.2,0.4-0.3,0.9,0,1.1C935.2,7746.2,936,7747.4,937,7748.4z"
			/>
		<path class="st0" d="M930.2,7749.8c0.2,1.1,0.9,2.1,2.1,2.4c1.4,0.5,3-0.2,4-1.7c0.2-0.4,0.3-0.9,0-1.1l-2.8-3.4
			c-0.3-0.4-0.9-0.5-1.3-0.2C930.8,7746.7,930,7748.3,930.2,7749.8z"/>
	</g>
</g>
<g id="Step-57">
	<g>
		<path class="st0" d="M915.9,6973.5c0.2,0.3,0.7,0.4,1.2,0.2c2.2-1.3,9.3-5.7,8.8-9.8c0-0.4-0.3-2-1.6-2.8
			c-1.1-0.8-2.8-0.6-3.8-0.1c-0.5,0.2-0.8,0.5-1.1,0.8c-1.8,1.7-3.1,3.6-3.4,4.1c-0.6,0.8-1.5,2-2.9,3.2c-0.4,0.3-0.5,0.9,0,1.3
			C913.9,6971.4,914.8,6972.4,915.9,6973.5z"/>
		<path class="st0" d="M914.8,6975.4c0.3-0.4,0.3-0.9,0-1.3l-3-3.3c-0.2-0.3-0.7-0.4-1.1-0.2c-1.6,0.8-2.5,2.2-2.3,3.7
			c0.2,1.2,1.1,2.1,2.1,2.5C911.9,6977.3,913.6,6976.7,914.8,6975.4z"/>
	</g>
	<g>
		<path class="st0" d="M874.3,6999c0.3,0.4,0.9,0.5,1.3,0.1c1.4-1.2,2.6-1.9,3.6-2.4c0.4-0.2,2.6-1.1,4.6-2.7c0.3-0.2,0.6-0.5,1-1
			c0.6-0.9,1.1-2.4,0.5-3.8c-0.6-1.4-2.1-1.8-2.5-2c-4-1.1-9.5,5.1-11.1,7.1c-0.2,0.4-0.3,0.9,0,1.1
			C872.5,6996.8,873.3,6998,874.3,6999z"/>
		<path class="st0" d="M867.5,7000.4c0.2,1.1,0.9,2.1,2.1,2.4c1.4,0.5,3-0.2,4-1.7c0.2-0.4,0.3-0.9,0-1.1l-2.8-3.4
			c-0.3-0.4-0.9-0.5-1.3-0.2C868.1,6997.3,867.3,6998.9,867.5,7000.4z"/>
	</g>
</g>
<g id="Step-56">
	<g>
		<path class="st0" d="M836.5,6212.3c0.1,0.4,0.5,0.7,0.9,0.7c2.6-0.1,10.9-0.7,12.4-4.6c0.2-0.4,0.7-1.9-0.1-3.2
			c-0.6-1.3-2.2-1.8-3.3-1.9c-0.6-0.1-0.9,0.1-1.4,0.1c-2.4,0.7-4.5,1.8-4.9,2.1c-0.9,0.5-2.3,1.1-4,1.5c-0.5,0.1-0.8,0.6-0.6,1.1
			C835.7,6209.5,836.1,6210.9,836.5,6212.3z"/>
		<path class="st0" d="M834.7,6213.5c0.5-0.2,0.7-0.6,0.6-1.1l-1.1-4.3c-0.1-0.4-0.5-0.7-0.8-0.7c-1.7,0-3.2,0.8-3.7,2.2
			c-0.4,1.1,0,2.4,0.7,3.2C831.2,6213.8,833,6214.1,834.7,6213.5z"/>
	</g>
	<g>
		<path class="st0" d="M874.3,6189c0.3,0.4,0.9,0.5,1.3,0.1c1.4-1.2,2.6-1.9,3.6-2.4c0.4-0.2,2.6-1.1,4.6-2.7c0.3-0.2,0.6-0.5,1-1
			c0.6-0.9,1.1-2.4,0.5-3.8c-0.6-1.4-2.1-1.8-2.5-2c-4-1.1-9.5,5.1-11.1,7.1c-0.2,0.4-0.3,0.9,0,1.1
			C872.5,6186.8,873.3,6188,874.3,6189z"/>
		<path class="st0" d="M867.5,6190.4c0.2,1.1,0.9,2.1,2.1,2.4c1.4,0.5,3-0.2,4-1.7c0.2-0.4,0.3-0.9,0-1.1l-2.8-3.4
			c-0.3-0.4-0.9-0.5-1.3-0.2C868.1,6187.3,867.3,6188.9,867.5,6190.4z"/>
	</g>
</g>
<g id="Step-55">
	<g>
		<path class="st0" d="M836.5,5402.3c0.1,0.4,0.5,0.7,0.9,0.7c2.6-0.1,10.9-0.7,12.4-4.6c0.2-0.4,0.7-1.9-0.1-3.2
			c-0.6-1.3-2.2-1.8-3.3-1.9c-0.6-0.1-0.9,0.1-1.4,0.1c-2.4,0.7-4.5,1.8-4.9,2.1c-0.9,0.5-2.3,1.1-4,1.5c-0.5,0.1-0.8,0.6-0.6,1.1
			C835.7,5399.5,836.1,5400.9,836.5,5402.3z"/>
		<path class="st0" d="M834.7,5403.5c0.5-0.2,0.7-0.6,0.6-1.1l-1.1-4.3c-0.1-0.4-0.5-0.7-0.8-0.7c-1.7,0-3.2,0.8-3.7,2.2
			c-0.4,1.1,0,2.4,0.7,3.2C831.2,5403.8,833,5404.1,834.7,5403.5z"/>
	</g>
	<g>
		<path class="st0" d="M783.2,5403.3c0.1,0.5,0.6,0.9,1.1,0.7c1.8-0.4,3.2-0.4,4.3-0.3c0.4,0.1,2.8,0.3,5.3-0.1
			c0.4,0,0.8-0.1,1.3-0.4c1-0.5,2.1-1.6,2.3-3c0.1-1.5-0.9-2.6-1.3-3c-2.9-2.9-10.8-0.1-13.2,0.9c-0.4,0.2-0.6,0.6-0.5,1
			C782.7,5400.5,782.9,5402,783.2,5403.3z"/>
		<path class="st0" d="M776.6,5401.2c-0.3,1-0.2,2.3,0.7,3.1c1,1.1,2.7,1.2,4.4,0.5c0.4-0.2,0.6-0.6,0.5-1l-0.8-4.4
			c-0.1-0.5-0.6-0.9-1-0.8C778.6,5398.8,777.1,5399.8,776.6,5401.2z"/>
	</g>
</g>
<g id="Step-54">
	<g>
		<path class="st0" d="M741.7,4607.2c0,0.4,0.4,0.7,0.8,0.8c2.5,0.3,10.8,1.2,13-2.4c0.2-0.4,1-1.8,0.5-3.2
			c-0.4-1.3-1.8-2.1-2.9-2.4c-0.6-0.2-0.9-0.1-1.4-0.1c-2.5,0.3-4.7,1-5.2,1.2c-1,0.3-2.4,0.7-4.2,0.8c-0.5,0-0.9,0.4-0.8,1
			C741.5,4604.3,741.6,4605.7,741.7,4607.2z"/>
		<path class="st0" d="M739.8,4608.1c0.5-0.1,0.8-0.5,0.8-1l-0.3-4.4c0-0.4-0.4-0.7-0.7-0.9c-1.7-0.3-3.3,0.3-4.1,1.5
			c-0.6,1.1-0.4,2.3,0.1,3.3C736.3,4607.7,738,4608.4,739.8,4608.1z"/>
	</g>
	<g>
		<path class="st0" d="M783.2,4593.3c0.1,0.5,0.6,0.9,1.1,0.7c1.8-0.4,3.2-0.4,4.3-0.3c0.4,0.1,2.8,0.3,5.3-0.1
			c0.4,0,0.8-0.1,1.3-0.4c1-0.5,2.1-1.6,2.3-3c0.1-1.5-0.9-2.6-1.3-3c-2.9-2.9-10.8-0.1-13.2,0.9c-0.4,0.2-0.6,0.6-0.5,1
			C782.7,4590.5,782.9,4592,783.2,4593.3z"/>
		<path class="st0" d="M776.6,4591.2c-0.3,1-0.2,2.3,0.7,3.1c1,1.1,2.7,1.2,4.4,0.5c0.4-0.2,0.6-0.6,0.5-1l-0.8-4.4
			c-0.1-0.5-0.6-0.9-1-0.8C778.6,4588.8,777.1,4589.8,776.6,4591.2z"/>
	</g>
</g>
<g id="Step-53">
	<g>
		<path class="st0" d="M741.7,3797.2c0,0.4,0.4,0.7,0.8,0.8c2.5,0.3,10.8,1.2,13-2.4c0.2-0.4,1-1.8,0.5-3.2
			c-0.4-1.3-1.8-2.1-2.9-2.4c-0.6-0.2-0.9-0.1-1.4-0.1c-2.5,0.3-4.7,1-5.2,1.2c-1,0.3-2.4,0.7-4.2,0.8c-0.5,0-0.9,0.4-0.8,1
			C741.5,3794.3,741.6,3795.7,741.7,3797.2z"/>
		<path class="st0" d="M739.8,3798.1c0.5-0.1,0.8-0.5,0.8-1l-0.3-4.4c0-0.4-0.4-0.7-0.7-0.9c-1.7-0.3-3.3,0.3-4.1,1.5
			c-0.6,1.1-0.4,2.3,0.1,3.3C736.3,3797.7,738,3798.4,739.8,3798.1z"/>
	</g>
	<g>
		<path class="st0" d="M689,3794.8c0,0.5,0.5,0.9,1,0.8c1.8-0.3,3.2-0.2,4.3-0.1c0.4,0.1,2.8,0.4,5.3,0.2c0.4,0,0.8-0.1,1.4-0.3
			c1-0.5,2.2-1.5,2.5-2.9c0.2-1.5-0.8-2.7-1.1-3c-2.8-3.1-10.7-0.8-13.2,0.1c-0.4,0.2-0.7,0.6-0.6,1
			C688.6,3792,688.7,3793.4,689,3794.8z"/>
		<path class="st0" d="M682.5,3792.3c-0.4,1-0.3,2.3,0.5,3.2c0.9,1.1,2.6,1.4,4.3,0.7c0.4-0.2,0.7-0.6,0.6-1l-0.5-4.4
			c0-0.5-0.5-0.9-1-0.9C684.6,3790,683.1,3790.9,682.5,3792.3z"/>
	</g>
</g>
<g id="Step-52">
	<g>
		<path class="st0" d="M640,2999.9c0,0.4,0.3,0.8,0.8,0.9c2.5,0.5,10.8,1.8,13.1-1.6c0.2-0.3,1.1-1.7,0.7-3.2
			c-0.3-1.4-1.7-2.2-2.8-2.6c-0.5-0.2-0.9-0.1-1.3-0.2c-2.5,0.1-4.7,0.7-5.2,0.9c-1,0.3-2.4,0.5-4.3,0.5c-0.5,0-1,0.4-0.9,1
			C640,2996.9,640,2998.4,640,2999.9z"/>
		<path class="st0" d="M638,3000.6c0.5-0.1,0.8-0.4,0.9-1v-4.5c0-0.4-0.3-0.8-0.7-0.9c-1.7-0.4-3.3,0.1-4.1,1.3
			c-0.6,1-0.5,2.3-0.1,3.3C634.6,3000.1,636.3,3000.8,638,3000.6z"/>
	</g>
	<g>
		<path class="st0" d="M689,2984.8c0,0.5,0.5,0.9,1,0.8c1.8-0.3,3.2-0.2,4.3-0.1c0.4,0.1,2.8,0.4,5.3,0.2c0.4,0,0.8-0.1,1.4-0.3
			c1-0.5,2.2-1.5,2.5-2.9c0.2-1.5-0.8-2.7-1.1-3c-2.8-3.1-10.7-0.8-13.2,0.1c-0.4,0.2-0.7,0.6-0.6,1
			C688.6,2982,688.7,2983.4,689,2984.8z"/>
		<path class="st0" d="M682.5,2982.3c-0.4,1-0.3,2.3,0.5,3.2c0.9,1.1,2.6,1.4,4.3,0.7c0.4-0.2,0.7-0.6,0.6-1l-0.5-4.4
			c0-0.5-0.5-0.9-1-0.9C684.6,2980,683.1,2980.9,682.5,2982.3z"/>
	</g>
</g>
<g id="Step-51">
	<g>
		<path class="st0" d="M640,2189.9c0,0.4,0.3,0.8,0.8,0.9c2.5,0.5,10.8,1.8,13.1-1.6c0.2-0.3,1.1-1.7,0.7-3.2
			c-0.3-1.4-1.7-2.2-2.8-2.6c-0.5-0.2-0.9-0.1-1.3-0.2c-2.5,0.1-4.7,0.7-5.2,0.9c-1,0.3-2.4,0.5-4.3,0.5c-0.5,0-1,0.4-0.9,1
			C640,2186.9,640,2188.4,640,2189.9z"/>
		<path class="st0" d="M638,2190.6c0.5-0.1,0.8-0.4,0.9-1v-4.5c0-0.4-0.3-0.8-0.7-0.9c-1.7-0.4-3.3,0.1-4.1,1.3
			c-0.6,1-0.5,2.3-0.1,3.3C634.6,2190.1,636.3,2190.8,638,2190.6z"/>
	</g>
	<g>
		<path class="st0" d="M592.5,2174.2c-0.1,0.5,0.3,1,0.8,1c1.8,0.1,3.2,0.5,4.2,0.8c0.4,0.2,2.6,1,5.2,1.3c0.4,0.1,0.8,0.1,1.4-0.1
			c1.1-0.2,2.5-1,3-2.3c0.5-1.4-0.2-2.8-0.4-3.2c-2-3.6-10.3-3-12.9-2.7c-0.4,0.1-0.8,0.4-0.8,0.8
			C592.8,2171.4,592.6,2172.8,592.5,2174.2z"/>
		<path class="st0" d="M586.8,2170.5c-0.6,0.9-0.8,2.1-0.2,3.2c0.7,1.3,2.3,1.9,4.1,1.6c0.4-0.1,0.8-0.4,0.8-0.8l0.4-4.4
			c0.1-0.5-0.3-1-0.7-1.1C589.3,2168.7,587.6,2169.2,586.8,2170.5z"/>
	</g>
</g>
<g id="Step-50">
	<g>
		<path class="st0" d="M544.6,1371.4c-0.1,0.4,0.2,0.8,0.6,1c2.4,0.8,10.4,3.2,13.2,0.1c0.3-0.3,1.3-1.6,1.1-3s-1.4-2.5-2.4-2.9
			c-0.5-0.3-0.9-0.3-1.3-0.4c-2.5-0.2-4.8,0.1-5.3,0.2c-1,0.1-2.5,0.2-4.3,0c-0.5-0.1-1,0.2-1,0.8
			C544.9,1368.5,544.8,1369.9,544.6,1371.4z"/>
		<path class="st0" d="M542.6,1371.9c0.5,0,0.9-0.3,1-0.8l0.5-4.4c0.1-0.4-0.2-0.8-0.5-1c-1.6-0.6-3.3-0.4-4.3,0.8
			c-0.8,0.9-0.8,2.2-0.5,3.2C539.2,1370.9,540.8,1371.9,542.6,1371.9z"/>
	</g>
	<g>
		<path class="st0" d="M592.5,1364.2c-0.1,0.5,0.3,1,0.8,1c1.8,0.1,3.2,0.5,4.2,0.8c0.4,0.2,2.6,1,5.2,1.3c0.4,0.1,0.8,0.1,1.4-0.1
			c1.1-0.2,2.5-1,3-2.3c0.5-1.4-0.2-2.8-0.4-3.2c-2-3.6-10.3-3-12.9-2.7c-0.4,0.1-0.8,0.4-0.8,0.8
			C592.8,1361.4,592.6,1362.8,592.5,1364.2z"/>
		<path class="st0" d="M586.8,1360.5c-0.6,0.9-0.8,2.1-0.2,3.2c0.7,1.3,2.3,1.9,4.1,1.6c0.4-0.1,0.8-0.4,0.8-0.8l0.4-4.4
			c0.1-0.5-0.3-1-0.7-1.1C589.3,1358.7,587.6,1359.2,586.8,1360.5z"/>
	</g>
</g>
<g id="Step-49">
	<g>
		<path class="st0" d="M544.6,561.4c-0.1,0.4,0.2,0.8,0.6,1c2.4,0.8,10.4,3.2,13.2,0.1c0.3-0.3,1.3-1.6,1.1-3s-1.4-2.5-2.4-2.9
			c-0.5-0.3-0.9-0.3-1.3-0.4c-2.5-0.2-4.8,0.1-5.3,0.2c-1,0.1-2.5,0.2-4.3,0c-0.5-0.1-1,0.2-1,0.8
			C544.9,558.5,544.8,559.9,544.6,561.4z"/>
		<path class="st0" d="M542.6,561.9c0.5,0,0.9-0.3,1-0.8l0.5-4.4c0.1-0.4-0.2-0.8-0.5-1c-1.6-0.6-3.3-0.4-4.3,0.8
			c-0.8,0.9-0.8,2.2-0.5,3.2C539.2,560.9,540.8,561.9,542.6,561.9z"/>
	</g>
	<g>
		<path class="st0" d="M500.4,552.1c0.2,0.5,0.8,0.7,1.2,0.4c1.6-0.8,3-1.2,4.1-1.3c0.4,0,2.8-0.4,5.1-1.4c0.4-0.1,0.7-0.3,1.2-0.7
			c0.8-0.7,1.7-2.1,1.5-3.5c-0.2-1.5-1.5-2.3-1.9-2.6c-3.6-2.2-10.5,2.4-12.6,3.9c-0.3,0.3-0.5,0.8-0.3,1.1
			C499.3,549.5,499.8,550.9,500.4,552.1z"/>
		<path class="st0" d="M493.5,551.7c0,1.1,0.3,2.3,1.4,2.9c1.2,0.8,2.9,0.6,4.4-0.5c0.3-0.3,0.5-0.8,0.3-1.1l-1.8-4.1
			c-0.2-0.5-0.8-0.7-1.2-0.6C494.9,548.8,493.7,550.2,493.5,551.7z"/>
	</g>
</g>
</svg>