<svg version="1.1" id="Walk-Map-5" xmlns="http://www.w3.org/2000/svg" xmlns:xlink="http://www.w3.org/1999/xlink" x="0px"
	 y="0px" viewBox="0 0 1080 6480" style="enable-background:new 0 0 1080 6480;" xml:space="preserve">
<style type="text/css">
	.footstep{stroke:#000000;stroke-width:0.35;}
</style>
<g id="Step-48">
	<g>
		<path class="footstep" d="M503.3,6230.4c0.1,0.4,0.5,0.6,1,0.7c2.6-0.2,10.9-1,12.3-5c0.1-0.4,0.6-1.9-0.2-3.2
			c-0.7-1.2-2.2-1.7-3.3-1.8c-0.6-0.1-0.9,0.1-1.3,0.2c-2.4,0.8-4.4,1.9-4.8,2.2c-0.9,0.5-2.2,1.1-4,1.6c-0.5,0.1-0.8,0.6-0.6,1.1
			C502.5,6227.6,502.9,6228.9,503.3,6230.4z"/>
		<path class="footstep" d="M501.6,6231.6c0.5-0.2,0.7-0.6,0.6-1.1l-1.2-4.3c-0.1-0.4-0.5-0.6-0.9-0.7c-1.7,0-3.2,0.9-3.7,2.3
			c-0.4,1.2,0.1,2.4,0.8,3.2C498.1,6232,499.9,6232.3,501.6,6231.6z"/>
	</g>
	<g>
		<path class="footstep" d="M500.4,6222.1c0.2,0.5,0.8,0.7,1.2,0.4c1.6-0.8,3-1.2,4.1-1.3c0.4,0,2.8-0.4,5.1-1.4
			c0.4-0.1,0.7-0.3,1.2-0.7c0.8-0.7,1.7-2.1,1.5-3.5c-0.2-1.5-1.5-2.3-1.9-2.6c-3.6-2.2-10.5,2.4-12.6,3.9
			c-0.3,0.3-0.5,0.8-0.3,1.1C499.3,6219.5,499.8,6220.9,500.4,6222.1z"/>
		<path class="footstep" d="M493.5,6221.7c0,1.1,0.3,2.3,1.4,2.9c1.2,0.8,2.9,0.6,4.4-0.5c0.3-0.3,0.5-0.8,0.3-1.1l-1.8-4.1
			c-0.2-0.5-0.8-0.7-1.2-0.6C494.9,6218.8,493.7,6220.2,493.5,6221.7z"/>
	</g>
</g>
<g id="Step-47">
	<g>
		<path class="footstep" d="M503.3,5420.4c0.1,0.4,0.5,0.6,1,0.7c2.6-0.2,10.9-1,12.3-5c0.1-0.4,0.6-1.9-0.2-3.2
			c-0.7-1.2-2.2-1.7-3.3-1.8c-0.6-0.1-0.9,0.1-1.3,0.2c-2.4,0.8-4.4,1.9-4.8,2.2c-0.9,0.5-2.2,1.1-4,1.6c-0.5,0.1-0.8,0.6-0.6,1.1
			C502.5,5417.6,502.9,5418.9,503.3,5420.4z"/>
		<path class="footstep" d="M501.6,5421.6c0.5-0.2,0.7-0.6,0.6-1.1l-1.2-4.3c-0.1-0.4-0.5-0.6-0.9-0.7c-1.7,0-3.2,0.9-3.7,2.3
			c-0.4,1.2,0.1,2.4,0.8,3.2C498.1,5422,499.9,5422.3,501.6,5421.6z"/>
	</g>
	<g>
		<path class="footstep" d="M454,5428.8c0.2,0.5,0.8,0.7,1.2,0.4c1.6-0.8,3-1.2,4.1-1.3c0.4,0,2.8-0.4,5.1-1.4c0.4-0.1,0.7-0.3,1.2-0.7
			c0.8-0.7,1.7-2.1,1.5-3.5c-0.2-1.5-1.5-2.3-1.9-2.6c-3.6-2.2-10.5,2.4-12.6,3.9c-0.3,0.3-0.5,0.8-0.3,1.1
			C452.9,5426.2,453.3,5427.5,454,5428.8z"/>
		<path class="footstep" d="M447.1,5428.3c0,1.1,0.3,2.3,1.4,2.9c1.2,0.8,2.9,0.6,4.4-0.5c0.3-0.3,0.5-0.8,0.3-1.1l-1.8-4.1
			c-0.2-0.5-0.8-0.7-1.2-0.6C448.4,5425.5,447.3,5426.8,447.1,5428.3z"/>
	</g>
</g>
<g id="Step-46">
	<g>
		<path class="footstep" d="M416.7,4646.2c0.1,0.4,0.5,0.6,1,0.7c2.6-0.2,10.9-1,12.3-5c0.1-0.4,0.6-1.9-0.2-3.2
			c-0.7-1.2-2.2-1.7-3.3-1.8c-0.6-0.1-0.9,0.1-1.3,0.2c-2.4,0.8-4.4,1.9-4.8,2.2c-0.9,0.5-2.2,1.1-4,1.6c-0.5,0.1-0.8,0.6-0.6,1.1
			C415.8,4643.4,416.2,4644.7,416.7,4646.2z"/>
		<path class="footstep" d="M414.9,4647.4c0.5-0.2,0.7-0.6,0.6-1.1l-1.2-4.3c-0.1-0.4-0.5-0.6-0.9-0.7c-1.7,0-3.2,0.9-3.7,2.3
			c-0.4,1.2,0.1,2.4,0.8,3.2C411.5,4647.8,413.3,4648.1,414.9,4647.4z"/>
	</g>
	<g>
		<path class="footstep" d="M454,4618.8c0.2,0.5,0.8,0.7,1.2,0.4c1.6-0.8,3-1.2,4.1-1.3c0.4,0,2.8-0.4,5.1-1.4c0.4-0.1,0.7-0.3,1.2-0.7
			c0.8-0.7,1.7-2.1,1.5-3.5c-0.2-1.5-1.5-2.3-1.9-2.6c-3.6-2.2-10.5,2.4-12.6,3.9c-0.3,0.3-0.5,0.8-0.3,1.1
			C452.9,4616.2,453.3,4617.5,454,4618.8z"/>
		<path class="footstep" d="M447.1,4618.3c0,1.1,0.3,2.3,1.4,2.9c1.2,0.8,2.9,0.6,4.4-0.5c0.3-0.3,0.5-0.8,0.3-1.1l-1.8-4.1
			c-0.2-0.5-0.8-0.7-1.2-0.6C448.4,4615.5,447.3,4616.8,447.1,4618.3z"/>
	</g>
</g>
<g id="Step-45">
	<g>
		<path class="footstep" d="M416.7,3836.2c0.1,0.4,0.5,0.6,1,0.7c2.6-0.2,10.9-1,12.3-5c0.1-0.4,0.6-1.9-0.2-3.2
			c-0.7-1.2-2.2-1.7-3.3-1.8c-0.6-0.1-0.9,0.1-1.3,0.2c-2.4,0.8-4.4,1.9-4.8,2.2c-0.9,0.5-2.2,1.1-4,1.6c-0.5,0.1-0.8,0.6-0.6,1.1
			C415.8,3833.4,416.2,3834.7,416.7,3836.2z"/>
		<path class="footstep" d="M414.9,3837.4c0.5-0.2,0.7-0.6,0.6-1.1l-1.2-4.3c-0.1-0.4-0.5-0.6-0.9-0.7c-1.7,0-3.2,0.9-3.7,2.3
			c-0.4,1.2,0.1,2.4,0.8,3.2C411.5,3837.8,413.3,3838.1,414.9,3837.4z"/>
	</g>
	<g>
		<path class="footstep" d="M360.2,3836.5c0.1,0.5,0.6,0.8,1.1,0.7c1.8-0.4,3.2-0.6,4.3-0.5c0.4,0,2.8,0.1,5.3-0.4
			c0.4,0,0.8-0.2,1.3-0.5c1-0.6,2-1.7,2.1-3.1c0.1-1.5-1.1-2.6-1.4-2.9c-3.1-2.8-10.7,0.4-13.1,1.5c-0.3,0.2-0.6,0.7-0.5,1
			C359.6,3833.8,359.8,3835.2,360.2,3836.5z"/>
		<path class="footstep" d="M353.6,3834.8c-0.2,1.1-0.1,2.3,0.8,3.1c1,1,2.8,1.1,4.4,0.3c0.3-0.2,0.6-0.7,0.5-1l-1-4.3
			c-0.1-0.5-0.6-0.8-1-0.8C355.4,3832.3,354,3833.3,353.6,3834.8z"/>
	</g>
</g>
<g id="Step-44">
	<g>
		<path class="footstep" d="M316.1,3042.1c0,0.4,0.4,0.7,0.8,0.9c2.5,0.4,10.8,1.4,13-2.1c0.2-0.4,1.1-1.8,0.6-3.2
			c-0.4-1.3-1.8-2.2-2.9-2.5c-0.6-0.2-0.9-0.1-1.4-0.1c-2.5,0.2-4.7,0.9-5.2,1.1c-1,0.3-2.4,0.6-4.2,0.7c-0.5,0-0.9,0.4-0.8,1
			C315.9,3039.2,316,3040.6,316.1,3042.1z"/>
		<path class="footstep" d="M314.1,3042.9c0.5-0.1,0.8-0.5,0.8-1l-0.2-4.5c0-0.4-0.4-0.7-0.7-0.9c-1.7-0.4-3.3,0.2-4.1,1.5
			c-0.6,1-0.4,2.3,0.1,3.3C310.7,3042.5,312.4,3043.2,314.1,3042.9z"/>
	</g>
	<g>
		<path class="footstep" d="M360.2,3026.5c0.1,0.5,0.6,0.8,1.1,0.7c1.8-0.4,3.2-0.6,4.3-0.5c0.4,0,2.8,0.1,5.3-0.4
			c0.4,0,0.8-0.2,1.3-0.5c1-0.6,2-1.7,2.1-3.1c0.1-1.5-1.1-2.6-1.4-2.9c-3.1-2.8-10.7,0.4-13.1,1.5c-0.3,0.2-0.6,0.7-0.5,1
			C359.6,3023.8,359.8,3025.2,360.2,3026.5z"/>
		<path class="footstep" d="M353.6,3024.8c-0.2,1.1-0.1,2.3,0.8,3.1c1,1,2.8,1.1,4.4,0.3c0.3-0.2,0.6-0.7,0.5-1l-1-4.3
			c-0.1-0.5-0.6-0.8-1-0.8C355.4,3022.3,354,3023.3,353.6,3024.8z"/>
	</g>
</g>
<g id="Step-43">
	<g>
		<path class="footstep" d="M316.1,2232.1c0,0.4,0.4,0.7,0.8,0.9c2.5,0.4,10.8,1.4,13-2.1c0.2-0.4,1.1-1.8,0.6-3.2
			c-0.4-1.3-1.8-2.2-2.9-2.5c-0.6-0.2-0.9-0.1-1.4-0.1c-2.5,0.2-4.7,0.9-5.2,1.1c-1,0.3-2.4,0.6-4.2,0.7c-0.5,0-0.9,0.4-0.8,1
			C315.9,2229.2,316,2230.6,316.1,2232.1z"/>
		<path class="footstep" d="M314.1,2232.9c0.5-0.1,0.8-0.5,0.8-1l-0.2-4.5c0-0.4-0.4-0.7-0.7-0.9c-1.7-0.4-3.3,0.2-4.1,1.5
			c-0.6,1-0.4,2.3,0.1,3.3C310.7,2232.5,312.4,2233.2,314.1,2232.9z"/>
	</g>
	<g>
		<path class="footstep" d="M268.2,2226.9c0,0.5,0.5,0.9,1,0.8c1.8-0.2,3.3-0.1,4.3,0.1c0.4,0.1,2.8,0.5,5.3,0.3c0.4,0,0.8-0.1,1.4-0.3
			c1-0.4,2.2-1.4,2.5-2.8c0.3-1.5-0.7-2.7-1-3.1c-2.7-3.2-10.7-1.1-13.2-0.3c-0.4,0.2-0.7,0.6-0.6,1
			C268,2224.1,268,2225.5,268.2,2226.9z"/>
		<path class="footstep" d="M261.9,2224.2c-0.4,1-0.4,2.2,0.4,3.2c0.9,1.1,2.6,1.5,4.3,0.9c0.4-0.2,0.7-0.6,0.6-1l-0.4-4.4
			c0-0.5-0.5-0.9-0.9-0.9C264.1,2222,262.5,2222.9,261.9,2224.2z"/>
	</g>
</g>
<g id="Step-42">
	<g>
		<path class="footstep" d="M226.3,1428.5c0,0.4,0.3,0.8,0.7,0.9c2.5,0.5,10.7,1.9,13.1-1.5c0.2-0.3,1.1-1.7,0.7-3.2
			c-0.3-1.4-1.7-2.3-2.7-2.6c-0.5-0.2-0.9-0.2-1.3-0.2c-2.5,0.1-4.8,0.7-5.2,0.8c-1,0.3-2.5,0.5-4.3,0.5c-0.5,0-1,0.4-0.9,0.9
			C226.2,1425.6,226.2,1427,226.3,1428.5z"/>
		<path class="footstep" d="M224.3,1429.3c0.5-0.1,0.8-0.4,0.9-0.9v-4.5c0-0.4-0.3-0.8-0.7-0.9c-1.7-0.4-3.3,0-4.2,1.3
			c-0.6,1-0.5,2.3-0.1,3.3C220.8,1428.7,222.5,1429.4,224.3,1429.3z"/>
	</g>
	<g>
		<path class="footstep" d="M268.2,1416.9c0,0.5,0.5,0.9,1,0.8c1.8-0.2,3.3-0.1,4.3,0.1c0.4,0.1,2.8,0.5,5.3,0.3c0.4,0,0.8-0.1,1.4-0.3
			c1-0.4,2.2-1.4,2.5-2.8c0.3-1.5-0.7-2.7-1-3.1c-2.7-3.2-10.7-1.1-13.2-0.3c-0.4,0.2-0.7,0.6-0.6,1
			C268,1414.1,268,1415.5,268.2,1416.9z"/>
		<path class="footstep" d="M261.9,1414.2c-0.4,1-0.4,2.2,0.4,3.2c0.9,1.1,2.6,1.5,4.3,0.9c0.4-0.2,0.7-0.6,0.6-1l-0.4-4.4
			c0-0.5-0.5-0.9-0.9-0.9C264.1,1412,262.5,1412.9,261.9,1414.2z"/>
	</g>
</g>
<g id="Step-41">
	<g>
		<path class="footstep" d="M226.3,618.5c0,0.4,0.3,0.8,0.7,0.9c2.5,0.5,10.7,1.9,13.1-1.5c0.2-0.3,1.1-1.7,0.7-3.2
			c-0.3-1.4-1.7-2.3-2.7-2.6c-0.5-0.2-0.9-0.2-1.3-0.2c-2.5,0.1-4.8,0.7-5.2,0.8c-1,0.3-2.5,0.5-4.3,0.5c-0.5,0-1,0.4-0.9,0.9
			C226.2,615.6,226.2,617,226.3,618.5z"/>
		<path class="footstep" d="M224.3,619.3c0.5-0.1,0.8-0.4,0.9-0.9v-4.5c0-0.4-0.3-0.8-0.7-0.9c-1.7-0.4-3.3,0-4.2,1.3
			c-0.6,1-0.5,2.3-0.1,3.3C220.8,618.7,222.5,619.4,224.3,619.3z"/>
	</g>
	<g>
		<path class="footstep" d="M188.6,609c0.1,0.5,0.7,0.8,1.1,0.6c1.7-0.5,3.2-0.6,4.3-0.6c0.4,0,2.8,0,5.3-0.5c0.4-0.1,0.8-0.2,1.3-0.5
			c0.9-0.6,2-1.8,2.1-3.2c0-1.5-1.1-2.6-1.5-2.9c-3.1-2.7-10.7,0.7-13.1,1.8c-0.3,0.2-0.6,0.7-0.4,1
			C187.9,606.3,188.1,607.7,188.6,609z"/>
		<path class="footstep" d="M181.9,607.4c-0.2,1.1-0.1,2.3,0.9,3.1c1,1,2.8,1,4.4,0.2c0.3-0.2,0.6-0.7,0.4-1l-1.1-4.3
			c-0.1-0.5-0.7-0.8-1.1-0.8C183.7,604.9,182.3,606,181.9,607.4z"/>
	</g>
</g>
</svg>