<svg version="1.1" id="Walk-Map-2" xmlns="http://www.w3.org/2000/svg" xmlns:xlink="http://www.w3.org/1999/xlink" x="0px"
	 y="0px" viewBox="0 0 1080 9720" style="enable-background:new 0 0 1080 9720;" xml:space="preserve">
<style type="text/css">
	.footstep{stroke:#000000;stroke-width:0.35;}
</style>
<g id="Step-18">
	<g>
		<path class="footstep" d="M532.1,9243.6c0.2-0.5-0.1-1-0.6-1.2c-1.7-0.6-3-1.3-3.9-1.9c-0.3-0.3-2.3-1.7-4.6-2.6
			c-0.4-0.2-0.8-0.3-1.4-0.3c-1.1-0.1-2.6,0.3-3.5,1.4c-0.9,1.2-0.5,2.8-0.4,3.2c1,4,9.2,5.6,11.8,6c0.4,0,0.9-0.2,1-0.6
			C531.1,9246.2,531.7,9244.9,532.1,9243.6z"/>
		<path class="footstep" d="M536.6,9248.7c0.8-0.7,1.3-1.8,1-3.1c-0.3-1.4-1.7-2.4-3.5-2.7c-0.4,0-0.9,0.2-1,0.6l-1.6,4.2
			c-0.2,0.5,0.1,1,0.4,1.2C533.7,9249.8,535.5,9249.7,536.6,9248.7z"/>
	</g>
	<g>
		<path class="footstep" d="M535.6,9235c0.2-0.4,0-0.8-0.4-1.1c-2.1-1.4-9.2-5.8-12.7-3.5c-0.4,0.2-1.7,1.1-1.8,2.7
			c-0.2,1.4,0.7,2.7,1.6,3.4c0.4,0.4,0.8,0.5,1.2,0.7c2.4,0.9,4.7,1.2,5.2,1.2c1,0.1,2.5,0.5,4.1,1.2c0.5,0.2,1,0,1.2-0.6
			C534.6,9237.7,535.1,9236.4,535.6,9235z"/>
		<path class="footstep" d="M537.7,9235c-0.5-0.1-0.9,0.1-1.2,0.6l-1.7,4.1c-0.2,0.4,0,0.8,0.3,1.1c1.4,1,3.1,1.2,4.3,0.4
			c1-0.7,1.4-1.9,1.3-3C540.7,9236.9,539.5,9235.5,537.7,9235z"/>
	</g>
</g>
<g id="Step-17">
	<g>
		<path class="footstep" d="M586.4,8415.6c-0.1-0.5-0.7-0.8-1.1-0.6c-1.7,0.5-3.2,0.7-4.3,0.8c-0.4,0-2.8,0-5.3,0.7
			c-0.4,0.1-0.8,0.2-1.3,0.6c-0.9,0.6-1.9,1.8-2,3.3c0,1.5,1.2,2.5,1.6,2.8c3.2,2.6,10.7-1,13-2.2c0.3-0.3,0.6-0.7,0.4-1.1
			C587.1,8418.3,586.8,8416.9,586.4,8415.6z"/>
		<path class="footstep" d="M593.1,8417c0.2-1.1,0-2.3-1-3.1c-1.1-1-2.8-1-4.4-0.1c-0.3,0.3-0.6,0.7-0.4,1.1l1.2,4.3
			c0.1,0.5,0.7,0.8,1.1,0.7C591.4,8419.6,592.7,8418.5,593.1,8417z"/>
	</g>
	<g>
		<path class="footstep" d="M535.6,8425c0.2-0.4,0-0.8-0.4-1.1c-2.1-1.4-9.2-5.8-12.7-3.5c-0.4,0.2-1.7,1.1-1.8,2.7
			c-0.2,1.4,0.7,2.7,1.6,3.4c0.4,0.4,0.8,0.5,1.2,0.7c2.4,0.9,4.7,1.2,5.2,1.2c1,0.1,2.5,0.5,4.1,1.2c0.5,0.2,1,0,1.2-0.6
			C534.6,8427.7,535.1,8426.4,535.6,8425z"/>
		<path class="footstep" d="M537.7,8425c-0.5-0.1-0.9,0.1-1.2,0.6l-1.7,4.1c-0.2,0.4,0,0.8,0.3,1.1c1.4,1,3.1,1.2,4.3,0.4
			c1-0.7,1.4-1.9,1.3-3C540.7,8426.9,539.5,8425.5,537.7,8425z"/>
	</g>
</g>
<g id="Step-16">
	<g>
		<path class="footstep" d="M586.4,7605.6c-0.1-0.5-0.7-0.8-1.1-0.6c-1.7,0.5-3.2,0.7-4.3,0.8c-0.4,0-2.8,0-5.3,0.7
			c-0.4,0.1-0.8,0.2-1.3,0.6c-0.9,0.6-1.9,1.8-2,3.3c0,1.5,1.2,2.5,1.6,2.8c3.2,2.6,10.7-1,13-2.2c0.3-0.3,0.6-0.7,0.4-1.1
			C587.1,7608.3,586.8,7606.9,586.4,7605.6z"/>
		<path class="footstep" d="M593.1,7607c0.2-1.1,0-2.3-1-3.1c-1.1-1-2.8-1-4.4-0.1c-0.3,0.3-0.6,0.7-0.4,1.1l1.2,4.3
			c0.1,0.5,0.7,0.8,1.1,0.7C591.4,7609.6,592.7,7608.5,593.1,7607z"/>
	</g>
	<g>
		<path class="footstep" d="M628.2,7592.6c0-0.4-0.3-0.8-0.8-0.9c-2.5-0.5-10.8-1.7-13.1,1.7c-0.2,0.3-1.1,1.7-0.7,3.2
			c0.3,1.4,1.7,2.2,2.8,2.6c0.5,0.2,0.9,0.1,1.3,0.2c2.5-0.1,4.7-0.7,5.2-0.9c1-0.3,2.4-0.5,4.3-0.6c0.5,0,0.9-0.4,0.8-1
			C628.4,7595.5,628.3,7594.1,628.2,7592.6z"/>
		<path class="footstep" d="M630.2,7591.8c-0.5,0.1-0.8,0.5-0.8,1l0.1,4.5c0,0.4,0.3,0.8,0.7,0.9c1.7,0.4,3.3-0.1,4.1-1.3
			c0.6-1,0.5-2.3,0-3.3C633.7,7592.3,632,7591.6,630.2,7591.8z"/>
	</g>
</g>
<g id="Step-15">
	<g>
		<path class="footstep" d="M671.9,6790.8c0-0.5-0.5-0.9-1-0.8c-1.8,0.2-3.3,0.1-4.3-0.1c-0.4-0.1-2.8-0.5-5.3-0.4
			c-0.4,0-0.8,0.1-1.4,0.3c-1,0.4-2.3,1.4-2.6,2.8c-0.3,1.5,0.7,2.7,1,3.1c2.6,3.2,10.7,1.2,13.2,0.4c0.4-0.2,0.7-0.6,0.6-0.9
			C672.1,6793.6,672.1,6792.2,671.9,6790.8z"/>
		<path class="footstep" d="M678.2,6793.5c0.4-1,0.4-2.2-0.4-3.2c-0.9-1.1-2.6-1.5-4.3-0.9c-0.4,0.2-0.7,0.6-0.6,0.9l0.3,4.4
			c0,0.5,0.5,0.9,0.9,0.9C676.1,6795.7,677.6,6794.9,678.2,6793.5z"/>
	</g>
	<g>
		<path class="footstep" d="M628.2,6782.6c0-0.4-0.3-0.8-0.8-0.9c-2.5-0.5-10.8-1.7-13.1,1.7c-0.2,0.3-1.1,1.7-0.7,3.2
			c0.3,1.4,1.7,2.2,2.8,2.6c0.5,0.2,0.9,0.1,1.3,0.2c2.5-0.1,4.7-0.7,5.2-0.9c1-0.3,2.4-0.5,4.3-0.6c0.5,0,0.9-0.4,0.8-1
			C628.4,6785.5,628.3,6784.1,628.2,6782.6z"/>
		<path class="footstep" d="M630.2,6781.8c-0.5,0.1-0.8,0.5-0.8,1l0.1,4.5c0,0.4,0.3,0.8,0.7,0.9c1.7,0.4,3.3-0.1,4.1-1.3
			c0.6-1,0.5-2.3,0-3.3C633.7,6782.3,632,6781.6,630.2,6781.8z"/>
	</g>
</g>
<g id="Step-14">
	<g>
		<path class="footstep" d="M671.9,5980.8c0-0.5-0.5-0.9-1-0.8c-1.8,0.2-3.3,0.1-4.3-0.1c-0.4-0.1-2.8-0.5-5.3-0.4
			c-0.4,0-0.8,0.1-1.4,0.3c-1,0.4-2.3,1.4-2.6,2.8c-0.3,1.5,0.7,2.7,1,3.1c2.6,3.2,10.7,1.2,13.2,0.4c0.4-0.2,0.7-0.6,0.6-0.9
			C672.1,5983.6,672.1,5982.2,671.9,5980.8z"/>
		<path class="footstep" d="M678.2,5983.5c0.4-1,0.4-2.2-0.4-3.2c-0.9-1.1-2.6-1.5-4.3-0.9c-0.4,0.2-0.7,0.6-0.6,0.9l0.3,4.4
			c0,0.5,0.5,0.9,0.9,0.9C676.1,5985.7,677.6,5984.9,678.2,5983.5z"/>
	</g>
	<g>
		<path class="footstep" d="M713.5,5972.6c0-0.4-0.3-0.8-0.8-0.9c-2.5-0.5-10.8-1.7-13.1,1.7c-0.2,0.3-1.1,1.7-0.7,3.2
			c0.3,1.4,1.7,2.2,2.8,2.6c0.5,0.2,0.9,0.1,1.3,0.2c2.5-0.1,4.7-0.7,5.2-0.9c1-0.3,2.4-0.5,4.3-0.6c0.5,0,0.9-0.4,0.8-1
			C713.6,5975.5,713.5,5974.1,713.5,5972.6z"/>
		<path class="footstep" d="M715.5,5971.8c-0.5,0.1-0.8,0.5-0.8,1l0.1,4.5c0,0.4,0.3,0.8,0.7,0.9c1.7,0.4,3.3-0.1,4.1-1.3
			c0.6-1,0.5-2.3,0-3.3C718.9,5972.3,717.3,5971.6,715.5,5971.8z"/>
	</g>
</g>
<g id="Step-13">
	<g>
		<path class="footstep" d="M753.8,5165.6c0-0.5-0.6-0.9-1-0.7c-1.8,0.3-3.2,0.3-4.3,0.2c-0.4-0.1-2.8-0.4-5.3-0.1
			c-0.4,0-0.8,0.1-1.3,0.4c-1,0.5-2.2,1.5-2.4,3s0.9,2.7,1.2,3c2.8,3,10.7,0.5,13.2-0.4c0.4-0.2,0.7-0.6,0.6-1
			C754.2,5168.4,754.1,5167,753.8,5165.6z"/>
		<path class="footstep" d="M760.3,5167.9c0.3-1,0.3-2.3-0.6-3.2c-0.9-1.1-2.7-1.3-4.3-0.6c-0.4,0.2-0.7,0.6-0.6,1l0.6,4.4
			c0,0.5,0.6,0.9,1,0.9C758.2,5170.2,759.7,5169.3,760.3,5167.9z"/>
	</g>
	<g>
		<path class="footstep" d="M713.5,5162.6c0-0.4-0.3-0.8-0.8-0.9c-2.5-0.5-10.8-1.7-13.1,1.7c-0.2,0.3-1.1,1.7-0.7,3.2
			c0.3,1.4,1.7,2.2,2.8,2.6c0.5,0.2,0.9,0.1,1.3,0.2c2.5-0.1,4.7-0.7,5.2-0.9c1-0.3,2.4-0.5,4.3-0.6c0.5,0,0.9-0.4,0.8-1
			C713.6,5165.5,713.5,5164.1,713.5,5162.6z"/>
		<path class="footstep" d="M715.5,5161.8c-0.5,0.1-0.8,0.5-0.8,1l0.1,4.5c0,0.4,0.3,0.8,0.7,0.9c1.7,0.4,3.3-0.1,4.1-1.3
			c0.6-1,0.5-2.3,0-3.3C718.9,5162.3,717.3,5161.6,715.5,5161.8z"/>
	</g>
</g>
<g id="Step-12">
	<g>
		<path class="footstep" d="M753.8,4355.6c0-0.5-0.6-0.9-1-0.7c-1.8,0.3-3.2,0.3-4.3,0.2c-0.4-0.1-2.8-0.4-5.3-0.1
			c-0.4,0-0.8,0.1-1.3,0.4c-1,0.5-2.2,1.5-2.4,3s0.9,2.7,1.2,3c2.8,3,10.7,0.5,13.2-0.4c0.4-0.2,0.7-0.6,0.6-1
			C754.2,4358.4,754.1,4357,753.8,4355.6z"/>
		<path class="footstep" d="M760.3,4357.9c0.3-1,0.3-2.3-0.6-3.2c-0.9-1.1-2.7-1.3-4.3-0.6c-0.4,0.2-0.7,0.6-0.6,1l0.6,4.4
			c0,0.5,0.6,0.9,1,0.9C758.2,4360.2,759.7,4359.3,760.3,4357.9z"/>
	</g>
	<g>
		<path class="footstep" d="M789.2,4343.1c0-0.4-0.3-0.8-0.7-0.9c-2.5-0.6-10.7-2.1-13.2,1.2c-0.3,0.3-1.2,1.7-0.8,3.1
			c0.3,1.4,1.6,2.3,2.7,2.7c0.5,0.2,0.9,0.2,1.3,0.2c2.5,0,4.8-0.6,5.2-0.7c1-0.2,2.5-0.4,4.3-0.4c0.5,0,1-0.3,0.9-0.9
			C789.2,4346,789.2,4344.6,789.2,4343.1z"/>
		<path class="footstep" d="M791.2,4342.4c-0.5,0.1-0.9,0.4-0.9,0.9l-0.1,4.5c0,0.4,0.3,0.8,0.6,0.9c1.7,0.5,3.3,0,4.2-1.2
			c0.7-1,0.6-2.3,0.2-3.3C794.7,4343,793,4342.2,791.2,4342.4z"/>
	</g>
</g>
<g id="Step-11">
	<g>
		<path class="footstep" d="M821.8,3554.2c0.2-0.5-0.1-1-0.6-1.1c-1.7-0.5-3-1.2-3.9-1.8c-0.4-0.3-2.3-1.6-4.7-2.4
			c-0.4-0.2-0.8-0.2-1.4-0.3c-1.1,0-2.6,0.4-3.5,1.6c-0.9,1.3-0.4,2.8-0.3,3.2c1.2,4,9.4,5.3,12,5.6c0.4,0,0.9-0.2,0.9-0.6
			C820.8,3556.9,821.4,3555.6,821.8,3554.2z"/>
		<path class="footstep" d="M826.5,3559.2c0.8-0.8,1.3-1.9,0.9-3.1c-0.3-1.4-1.8-2.4-3.6-2.5c-0.4,0-0.9,0.2-0.9,0.6l-1.4,4.2
			c-0.2,0.5,0.1,1,0.5,1.2C823.6,3560.4,825.4,3560.2,826.5,3559.2z"/>
	</g>
	<g>
		<path class="footstep" d="M789.2,3533.1c0-0.4-0.3-0.8-0.7-0.9c-2.5-0.6-10.7-2.1-13.2,1.2c-0.3,0.3-1.2,1.7-0.8,3.1
			c0.3,1.4,1.6,2.3,2.7,2.7c0.5,0.2,0.9,0.2,1.3,0.2c2.5,0,4.8-0.6,5.2-0.7c1-0.2,2.5-0.4,4.3-0.4c0.5,0,1-0.3,0.9-0.9
			C789.2,3536,789.2,3534.6,789.2,3533.1z"/>
		<path class="footstep" d="M791.2,3532.4c-0.5,0.1-0.9,0.4-0.9,0.9l-0.1,4.5c0,0.4,0.3,0.8,0.6,0.9c1.7,0.5,3.3,0,4.2-1.2
			c0.7-1,0.6-2.3,0.2-3.3C794.7,3533,793,3532.2,791.2,3532.4z"/>
	</g>
</g>
<g id="Step-10">
	<g>
		<path class="footstep" d="M821.8,2744.2c0.2-0.5-0.1-1-0.6-1.1c-1.7-0.5-3-1.2-3.9-1.8c-0.4-0.3-2.3-1.6-4.7-2.4
			c-0.4-0.2-0.8-0.2-1.4-0.3c-1.1,0-2.6,0.4-3.5,1.6c-0.9,1.3-0.4,2.8-0.3,3.2c1.2,4,9.4,5.3,12,5.6c0.4,0,0.9-0.2,0.9-0.6
			C820.8,2746.9,821.4,2745.6,821.8,2744.2z"/>
		<path class="footstep" d="M826.5,2749.2c0.8-0.8,1.3-1.9,0.9-3.1c-0.3-1.4-1.8-2.4-3.6-2.5c-0.4,0-0.9,0.2-0.9,0.6l-1.4,4.2
			c-0.2,0.5,0.1,1,0.5,1.2C823.6,2750.4,825.4,2750.2,826.5,2749.2z"/>
	</g>
	<g>
		<path class="footstep" d="M858.5,2749.8c0.2-0.4,0-0.8-0.3-1.1c-2.1-1.4-9.2-5.9-12.7-3.7c-0.4,0.2-1.7,1.1-1.9,2.6
			c-0.2,1.4,0.7,2.7,1.5,3.5c0.4,0.4,0.8,0.5,1.2,0.7c2.4,0.9,4.6,1.2,5.2,1.3c1,0.1,2.5,0.5,4.1,1.2c0.5,0.2,1,0,1.2-0.5
			C857.4,2752.5,857.9,2751.2,858.5,2749.8z"/>
		<path class="footstep" d="M860.6,2749.9c-0.5-0.1-0.9,0.1-1.2,0.5l-1.7,4.1c-0.2,0.4,0,0.8,0.2,1.1c1.4,1.1,3.1,1.3,4.3,0.4
			c1-0.7,1.4-1.9,1.3-3C863.6,2751.8,862.3,2750.4,860.6,2749.9z"/>
	</g>
</g>
<g id="Step-9">
	<g>
		<path class="footstep" d="M885.7,1954.8c0-0.5-0.4-1-0.9-0.9c-1.8,0-3.2-0.3-4.3-0.6c-0.4-0.2-2.7-0.8-5.2-1c-0.4-0.1-0.8,0-1.4,0.1
			c-1.1,0.3-2.4,1.1-2.9,2.5c-0.5,1.5,0.4,2.8,0.6,3.2c2.3,3.5,10.5,2.4,13.1,1.9c0.4-0.1,0.8-0.5,0.7-0.9
			C885.6,1957.6,885.7,1956.2,885.7,1954.8z"/>
		<path class="footstep" d="M891.7,1958.2c0.5-1,0.7-2.2,0-3.2c-0.7-1.2-2.4-1.8-4.2-1.4c-0.4,0.1-0.8,0.5-0.7,0.9l-0.2,4.4
			c0,0.5,0.4,1,0.8,1C889.2,1960.1,890.9,1959.5,891.7,1958.2z"/>
	</g>
	<g>
		<path class="footstep" d="M858.5,1939.8c0.2-0.4,0-0.8-0.3-1.1c-2.1-1.4-9.2-5.9-12.7-3.7c-0.4,0.2-1.7,1.1-1.9,2.6
			c-0.2,1.4,0.7,2.7,1.5,3.5c0.4,0.4,0.8,0.5,1.2,0.7c2.4,0.9,4.6,1.2,5.2,1.3c1,0.1,2.5,0.5,4.1,1.2c0.5,0.2,1,0,1.2-0.5
			C857.4,1942.5,857.9,1941.2,858.5,1939.8z"/>
		<path class="footstep" d="M860.6,1939.9c-0.5-0.1-0.9,0.1-1.2,0.5l-1.7,4.1c-0.2,0.4,0,0.8,0.2,1.1c1.4,1.1,3.1,1.3,4.3,0.4
			c1-0.7,1.4-1.9,1.3-3C863.6,1941.8,862.3,1940.4,860.6,1939.9z"/>
	</g>
</g>
<g id="Step-8">
	<g>
		<path class="footstep" d="M885.7,1144.8c0-0.5-0.4-1-0.9-0.9c-1.8,0-3.2-0.3-4.3-0.6c-0.4-0.2-2.7-0.8-5.2-1c-0.4-0.1-0.8,0-1.4,0.1
			c-1.1,0.3-2.4,1.1-2.9,2.5c-0.5,1.5,0.4,2.8,0.6,3.2c2.3,3.5,10.5,2.4,13.1,1.9c0.4-0.1,0.8-0.5,0.7-0.9
			C885.6,1147.6,885.7,1146.2,885.7,1144.8z"/>
		<path class="footstep" d="M891.7,1148.2c0.5-1,0.7-2.2,0-3.2c-0.7-1.2-2.4-1.8-4.2-1.4c-0.4,0.1-0.8,0.5-0.7,0.9l-0.2,4.4
			c0,0.5,0.4,1,0.8,1C889.2,1150.1,890.9,1149.5,891.7,1148.2z"/>
	</g>
	<g>
		<path class="footstep" d="M921.1,1138.3c0.1-0.4-0.2-0.8-0.6-1c-2.4-0.8-10.4-3.2-13.2,0c-0.3,0.3-1.3,1.6-1.1,3
			c0.2,1.4,1.4,2.4,2.4,2.9c0.5,0.3,0.9,0.3,1.3,0.3c2.5,0.2,4.8-0.1,5.3-0.2c1-0.1,2.5-0.2,4.3,0c0.5,0.1,1-0.2,1-0.8
			C920.8,1141.2,920.9,1139.8,921.1,1138.3z"/>
		<path class="footstep" d="M923.1,1137.8c-0.5,0-0.9,0.3-1,0.8l-0.5,4.4c-0.1,0.4,0.2,0.8,0.5,1c1.6,0.6,3.3,0.4,4.3-0.8
			c0.8-0.9,0.8-2.2,0.5-3.2C926.5,1138.8,925,1137.8,923.1,1137.8z"/>
	</g>
</g>
<g id="Step-7">
	<g>
		<path class="footstep" d="M953.6,339.7c0.1-0.5-0.3-1-0.8-1c-1.8-0.2-3.2-0.6-4.2-1c-0.4-0.2-2.6-1.1-5.1-1.5c-0.4-0.1-0.8-0.1-1.4,0
			c-1.1,0.2-2.5,0.9-3.1,2.2c-0.6,1.4,0.1,2.8,0.3,3.2c1.9,3.7,10.2,3.4,12.8,3.2c0.4-0.1,0.8-0.4,0.8-0.8
			C953.2,342.5,953.5,341.1,953.6,339.7z"/>
		<path class="footstep" d="M959.2,343.7c0.6-0.9,0.9-2.1,0.3-3.2c-0.6-1.3-2.2-2-4-1.8c-0.4,0.1-0.8,0.4-0.8,0.8l-0.6,4.4
			c-0.1,0.5,0.3,1,0.7,1.1C956.6,345.4,958.3,344.9,959.2,343.7z"/>
	</g>
	<g>
		<path class="footstep" d="M921.1,328.3c0.1-0.4-0.2-0.8-0.6-1c-2.4-0.8-10.4-3.2-13.2,0c-0.3,0.3-1.3,1.6-1.1,3s1.4,2.4,2.4,2.9
			c0.5,0.3,0.9,0.3,1.3,0.3c2.5,0.2,4.8-0.1,5.3-0.2c1-0.1,2.5-0.2,4.3,0c0.5,0.1,1-0.2,1-0.8C920.8,331.2,920.9,329.8,921.1,328.3
			z"/>
		<path class="footstep" d="M923.1,327.8c-0.5,0-0.9,0.3-1,0.8l-0.5,4.4c-0.1,0.4,0.2,0.8,0.5,1c1.6,0.6,3.3,0.4,4.3-0.8
			c0.8-0.9,0.8-2.2,0.5-3.2C926.5,328.8,925,327.8,923.1,327.8z"/>
	</g>
</g>
</svg>