<svg version="1.1" id="Walk-Map-3" xmlns="http://www.w3.org/2000/svg" xmlns:xlink="http://www.w3.org/1999/xlink" x="0px"
	 y="0px" viewBox="0 0 1080 7290" style="enable-background:new 0 0 1080 7290;" xml:space="preserve">
<style type="text/css">
	.footstep{stroke:#000000;stroke-width:0.35;}
</style>
<g id="Step-27">
	<g>
		<path class="footstep" d="M252.6,6767.6c0.1-0.5-0.3-1-0.8-1c-1.8-0.2-3.2-0.6-4.2-1c-0.4-0.2-2.6-1.1-5.1-1.5
			c-0.4-0.1-0.8-0.1-1.4,0c-1.1,0.2-2.5,0.9-3.1,2.2c-0.6,1.4,0.1,2.8,0.3,3.2c1.9,3.7,10.2,3.4,12.8,3.2c0.4-0.1,0.8-0.4,0.8-0.8
			C252.2,6770.4,252.5,6769,252.6,6767.6z"/>
		<path class="footstep" d="M258.2,6771.6c0.6-0.9,0.9-2.1,0.3-3.2c-0.6-1.3-2.2-2-4-1.8c-0.4,0.1-0.8,0.4-0.8,0.8l-0.6,4.4
			c-0.1,0.5,0.3,1,0.7,1.1C255.6,6773.3,257.3,6772.8,258.2,6771.6z"/>
	</g>
	<g>
		<path class="footstep" d="M254.1,6758.4c0.1-0.4-0.2-0.8-0.6-1c-2.4-0.9-10.3-3.6-13.2-0.6c-0.3,0.3-1.4,1.5-1.2,3
			c0.1,1.4,1.3,2.5,2.3,3c0.5,0.3,0.9,0.3,1.3,0.4c2.5,0.3,4.8,0.1,5.3,0c1-0.1,2.5-0.1,4.3,0.2c0.5,0.1,1-0.2,1-0.8
			C253.7,6761.3,253.9,6759.9,254.1,6758.4z"/>
		<path class="footstep" d="M256.2,6758c-0.5,0-0.9,0.3-1,0.8l-0.7,4.4c-0.1,0.4,0.2,0.8,0.5,1c1.6,0.7,3.3,0.5,4.3-0.6
			c0.8-0.9,0.9-2.2,0.6-3.2C259.5,6759.1,258,6758.1,256.2,6758z"/>
	</g>
</g>
<g id="Step-26">
	<g>
		<path class="footstep" d="M252.6,5957.6c0.1-0.5-0.3-1-0.8-1c-1.8-0.2-3.2-0.6-4.2-1c-0.4-0.2-2.6-1.1-5.1-1.5c-0.4-0.1-0.8-0.1-1.4,0
			c-1.1,0.2-2.5,0.9-3.1,2.2c-0.6,1.4,0.1,2.8,0.3,3.2c1.9,3.7,10.2,3.4,12.8,3.2c0.4-0.1,0.8-0.4,0.8-0.8
			C252.2,5960.4,252.5,5959,252.6,5957.6z"/>
		<path class="footstep" d="M258.2,5961.6c0.6-0.9,0.9-2.1,0.3-3.2c-0.6-1.3-2.2-2-4-1.8c-0.4,0.1-0.8,0.4-0.8,0.8l-0.6,4.4
			c-0.1,0.5,0.3,1,0.7,1.1C255.6,5963.3,257.3,5962.8,258.2,5961.6z"/>
	</g>
	<g>
		<path class="footstep" d="M285.9,5945.9c0-0.4-0.4-0.7-0.8-0.8c-2.5-0.3-10.9-1-12.9,2.7c-0.2,0.4-1,1.8-0.4,3.2
			c0.4,1.3,1.9,2.1,3,2.3c0.6,0.2,0.9,0.1,1.4,0.1c2.5-0.3,4.7-1.1,5.1-1.3c0.9-0.3,2.4-0.7,4.2-0.9c0.5,0,0.9-0.4,0.8-1
			C286.2,5948.8,286.1,5947.4,285.9,5945.9z"/>
		<path class="footstep" d="M287.8,5945c-0.5,0.1-0.8,0.5-0.8,1l0.4,4.4c0,0.4,0.4,0.7,0.7,0.8c1.7,0.3,3.3-0.3,4-1.6
			c0.6-1.1,0.3-2.4-0.2-3.2C291.3,5945.3,289.6,5944.7,287.8,5945z"/>
	</g>
</g>
<g id="Step-25">
	<g>
		<path class="footstep" d="M326,5142.9c0-0.5-0.5-0.9-1-0.8c-1.8,0.2-3.3,0.1-4.3-0.1c-0.4-0.1-2.8-0.5-5.3-0.4c-0.4,0-0.8,0.1-1.4,0.3
			c-1,0.4-2.3,1.4-2.6,2.8c-0.3,1.5,0.7,2.7,0.9,3.1c2.6,3.2,10.7,1.3,13.2,0.5c0.4-0.2,0.7-0.6,0.6-0.9
			C326.1,5145.7,326.2,5144.3,326,5142.9z"/>
		<path class="footstep" d="M332.3,5145.7c0.4-1,0.5-2.2-0.4-3.2c-0.9-1.2-2.6-1.5-4.3-1c-0.4,0.2-0.7,0.6-0.6,0.9l0.3,4.4
			c0,0.5,0.5,0.9,0.9,0.9C330.1,5147.9,331.6,5147,332.3,5145.7z"/>
	</g>
	<g>
		<path class="footstep" d="M285.9,5135.9c0-0.4-0.4-0.7-0.8-0.8c-2.5-0.3-10.9-1-12.9,2.7c-0.2,0.4-1,1.8-0.4,3.2
			c0.4,1.3,1.9,2.1,3,2.3c0.6,0.2,0.9,0.1,1.4,0.1c2.5-0.3,4.7-1.1,5.1-1.3c0.9-0.3,2.4-0.7,4.2-0.9c0.5,0,0.9-0.4,0.8-1
			C286.2,5138.8,286.1,5137.4,285.9,5135.9z"/>
		<path class="footstep" d="M287.8,5135c-0.5,0.1-0.8,0.5-0.8,1l0.4,4.4c0,0.4,0.4,0.7,0.7,0.8c1.7,0.3,3.3-0.3,4-1.6
			c0.6-1.1,0.3-2.4-0.2-3.2C291.3,5135.3,289.6,5134.7,287.8,5135z"/>
	</g>
</g>
<g id="Step-24">
	<g>
		<path class="footstep" d="M326,4332.9c0-0.5-0.5-0.9-1-0.8c-1.8,0.2-3.3,0.1-4.3-0.1c-0.4-0.1-2.8-0.5-5.3-0.4c-0.4,0-0.8,0.1-1.4,0.3
			c-1,0.4-2.3,1.4-2.6,2.8c-0.3,1.5,0.7,2.7,0.9,3.1c2.6,3.2,10.7,1.3,13.2,0.5c0.4-0.2,0.7-0.6,0.6-0.9
			C326.1,4335.7,326.2,4334.3,326,4332.9z"/>
		<path class="footstep" d="M332.3,4335.7c0.4-1,0.5-2.2-0.4-3.2c-0.9-1.2-2.6-1.5-4.3-1c-0.4,0.2-0.7,0.6-0.6,0.9l0.3,4.4
			c0,0.5,0.5,0.9,0.9,0.9C330.1,4337.9,331.6,4337,332.3,4335.7z"/>
	</g>
	<g>
		<path class="footstep" d="M361.3,4321.6c0.1-0.4-0.1-0.8-0.5-1.1c-2.3-1.1-9.9-4.6-13.1-1.9c-0.3,0.3-1.5,1.4-1.5,2.9
			c0,1.4,1.1,2.6,2,3.2c0.5,0.3,0.9,0.4,1.3,0.5c2.5,0.5,4.8,0.6,5.3,0.5c1,0,2.5,0.1,4.3,0.6c0.5,0.1,1-0.1,1.1-0.7
			C360.7,4324.4,361,4323,361.3,4321.6z"/>
		<path class="footstep" d="M363.5,4321.4c-0.5,0-0.9,0.2-1.1,0.7l-1.1,4.3c-0.1,0.4,0.1,0.8,0.4,1c1.5,0.8,3.2,0.8,4.3-0.2
			c0.9-0.8,1.1-2.1,0.9-3.1C366.6,4322.8,365.2,4321.6,363.5,4321.4z"/>
	</g>
</g>
<g id="Step-23">
	<g>
		<path class="footstep" d="M390.7,3535.4c0.2-0.5-0.2-1-0.7-1.1c-1.8-0.4-3.1-1-4-1.6c-0.4-0.3-2.4-1.4-4.8-2.2
			c-0.4-0.2-0.8-0.2-1.4-0.2c-1.1,0-2.6,0.6-3.4,1.8c-0.8,1.3-0.3,2.8-0.1,3.2c1.4,3.9,9.6,4.8,12.2,4.9c0.4,0,0.8-0.3,0.9-0.7
			C389.9,3538.2,390.4,3536.8,390.7,3535.4z"/>
		<path class="footstep" d="M395.7,3540.2c0.7-0.8,1.2-2,0.7-3.1c-0.4-1.4-1.9-2.3-3.7-2.3c-0.4,0-0.8,0.3-0.9,0.7l-1.2,4.3
			c-0.2,0.5,0.2,1,0.5,1.2C392.9,3541.5,394.7,3541.2,395.7,3540.2z"/>
	</g>
	<g>
		<path class="footstep" d="M361.3,3511.6c0.1-0.4-0.1-0.8-0.5-1.1c-2.3-1.1-9.9-4.6-13.1-1.9c-0.3,0.3-1.5,1.4-1.5,2.9
			c0,1.4,1.1,2.6,2,3.2c0.5,0.3,0.9,0.4,1.3,0.5c2.5,0.5,4.8,0.6,5.3,0.5c1,0,2.5,0.1,4.3,0.6c0.5,0.1,1-0.1,1.1-0.7
			C360.7,3514.4,361,3513,361.3,3511.6z"/>
		<path class="footstep" d="M363.5,3511.4c-0.5,0-0.9,0.2-1.1,0.7l-1.1,4.3c-0.1,0.4,0.1,0.8,0.4,1c1.5,0.8,3.2,0.8,4.3-0.2
			c0.9-0.8,1.1-2.1,0.9-3.1C366.6,3512.8,365.2,3511.6,363.5,3511.4z"/>
	</g>
</g>
<g id="Step-22">
	<g>
		<path class="footstep" d="M390.7,2725.4c0.2-0.5-0.2-1-0.7-1.1c-1.8-0.4-3.1-1-4-1.6c-0.4-0.3-2.4-1.4-4.8-2.2
			c-0.4-0.2-0.8-0.2-1.4-0.2c-1.1,0-2.6,0.6-3.4,1.8c-0.8,1.3-0.3,2.8-0.1,3.2c1.4,3.9,9.6,4.8,12.2,4.9c0.4,0,0.8-0.3,0.9-0.7
			C389.9,2728.2,390.4,2726.8,390.7,2725.4z"/>
		<path class="footstep" d="M395.7,2730.2c0.7-0.8,1.2-2,0.7-3.1c-0.4-1.4-1.9-2.3-3.7-2.3c-0.4,0-0.8,0.3-0.9,0.7l-1.2,4.3
			c-0.2,0.5,0.2,1,0.5,1.2C392.9,2731.5,394.7,2731.2,395.7,2730.2z"/>
	</g>
	<g>
		<path class="footstep" d="M432.6,2727.6c0.2-0.4,0-0.8-0.4-1.1c-2.2-1.3-9.4-5.5-12.8-3.1c-0.4,0.2-1.7,1.2-1.8,2.7
			c-0.2,1.4,0.8,2.7,1.7,3.4c0.4,0.4,0.8,0.5,1.2,0.6c2.4,0.8,4.7,1,5.2,1c1,0.1,2.5,0.4,4.2,1c0.5,0.2,1,0,1.1-0.6
			C431.7,2730.4,432.2,2729,432.6,2727.6z"/>
		<path class="footstep" d="M434.8,2727.6c-0.5-0.1-0.9,0.1-1.1,0.6l-1.5,4.2c-0.2,0.4,0,0.8,0.3,1.1c1.4,1,3.1,1.1,4.3,0.2
			c1-0.7,1.3-2,1.2-3C437.8,2729.3,436.5,2728,434.8,2727.6z"/>
	</g>
</g>
<g id="Step-21">
	<g>
		<path class="footstep" d="M464.7,1932.4c0.1-0.5-0.3-1-0.8-1c-1.8-0.1-3.2-0.5-4.2-0.8c-0.4-0.2-2.6-1-5.2-1.3
			c-0.4-0.1-0.8-0.1-1.4,0.1c-1.1,0.2-2.5,1-3,2.3c-0.5,1.4,0.2,2.8,0.4,3.2c2.1,3.6,10.3,2.9,12.9,2.6c0.4-0.1,0.8-0.4,0.8-0.8
			C464.4,1935.3,464.6,1933.8,464.7,1932.4z"/>
		<path class="footstep" d="M470.4,1936.2c0.6-0.9,0.8-2.1,0.2-3.2c-0.7-1.3-2.3-1.9-4.1-1.6c-0.4,0.1-0.8,0.4-0.8,0.8l-0.4,4.4
			c-0.1,0.5,0.3,1,0.7,1.1C467.9,1938,469.6,1937.4,470.4,1936.2z"/>
	</g>
	<g>
		<path class="footstep" d="M432.6,1917.6c0.2-0.4,0-0.8-0.4-1.1c-2.2-1.3-9.4-5.5-12.8-3.1c-0.4,0.2-1.7,1.2-1.8,2.7
			c-0.2,1.4,0.8,2.7,1.7,3.4c0.4,0.4,0.8,0.5,1.2,0.6c2.4,0.8,4.7,1,5.2,1c1,0.1,2.5,0.4,4.2,1c0.5,0.2,1,0,1.1-0.6
			C431.7,1920.4,432.2,1919,432.6,1917.6z"/>
		<path class="footstep" d="M434.8,1917.6c-0.5-0.1-0.9,0.1-1.1,0.6l-1.5,4.2c-0.2,0.4,0,0.8,0.3,1.1c1.4,1,3.1,1.1,4.3,0.2
			c1-0.7,1.3-2,1.2-3C437.8,1919.3,436.5,1918,434.8,1917.6z"/>
	</g>
</g>
<g id="Step-20">
	<g>
		<path class="footstep" d="M464.7,1122.4c0.1-0.5-0.3-1-0.8-1c-1.8-0.1-3.2-0.5-4.2-0.8c-0.4-0.2-2.6-1-5.2-1.3
			c-0.4-0.1-0.8-0.1-1.4,0.1c-1.1,0.2-2.5,1-3,2.3c-0.5,1.4,0.2,2.8,0.4,3.2c2.1,3.6,10.3,2.9,12.9,2.6c0.4-0.1,0.8-0.4,0.8-0.8
			C464.4,1125.3,464.6,1123.8,464.7,1122.4z"/>
		<path class="footstep" d="M470.4,1126.2c0.6-0.9,0.8-2.1,0.2-3.2c-0.7-1.3-2.3-1.9-4.1-1.6c-0.4,0.1-0.8,0.4-0.8,0.8l-0.4,4.4
			c-0.1,0.5,0.3,1,0.7,1.1C467.9,1128,469.6,1127.4,470.4,1126.2z"/>
	</g>
	<g>
		<path class="footstep" d="M501.6,1117.3c0.2-0.4,0-0.8-0.4-1.1c-2.1-1.4-9.2-5.8-12.7-3.5c-0.4,0.2-1.7,1.1-1.8,2.7
			c-0.2,1.4,0.7,2.7,1.6,3.4c0.4,0.4,0.8,0.5,1.2,0.7c2.4,0.9,4.7,1.2,5.2,1.2c1,0.1,2.5,0.5,4.1,1.2c0.5,0.2,1,0,1.2-0.6
			C500.5,1120.1,501,1118.8,501.6,1117.3z"/>
		<path class="footstep" d="M503.7,1117.4c-0.5-0.1-0.9,0.1-1.2,0.6l-1.7,4.1c-0.2,0.4,0,0.8,0.3,1.1c1.4,1,3.1,1.2,4.3,0.4
			c1-0.7,1.4-1.9,1.3-3C506.7,1119.2,505.4,1117.9,503.7,1117.4z"/>
	</g>
</g>
<g id="Step-19">
	<g>
		<path class="footstep" d="M532.1,333.6c0.2-0.5-0.1-1-0.6-1.2c-1.7-0.6-3-1.3-3.9-1.9c-0.3-0.3-2.3-1.7-4.6-2.6
			c-0.4-0.2-0.8-0.3-1.4-0.3c-1.1-0.1-2.6,0.3-3.5,1.4c-0.9,1.2-0.5,2.8-0.4,3.2c1,4,9.2,5.6,11.8,6c0.4,0,0.9-0.2,1-0.6
			C531.1,336.2,531.7,334.9,532.1,333.6z"/>
		<path class="footstep" d="M536.6,338.7c0.8-0.7,1.3-1.8,1-3.1c-0.3-1.4-1.7-2.4-3.5-2.7c-0.4,0-0.9,0.2-1,0.6l-1.6,4.2
			c-0.2,0.5,0.1,1,0.4,1.2C533.7,339.8,535.5,339.7,536.6,338.7z"/>
	</g>
	<g>
		<path class="footstep" d="M501.6,307.3c0.2-0.4,0-0.8-0.4-1.1c-2.1-1.4-9.2-5.8-12.7-3.5c-0.4,0.2-1.7,1.1-1.8,2.7
			c-0.2,1.4,0.7,2.7,1.6,3.4c0.4,0.4,0.8,0.5,1.2,0.7c2.4,0.9,4.7,1.2,5.2,1.2c1,0.1,2.5,0.5,4.1,1.2c0.5,0.2,1,0,1.2-0.6
			C500.5,310.1,501,308.8,501.6,307.3z"/>
		<path class="footstep" d="M503.7,307.4c-0.5-0.1-0.9,0.1-1.2,0.6l-1.7,4.1c-0.2,0.4,0,0.8,0.3,1.1c1.4,1,3.1,1.2,4.3,0.4
			c1-0.7,1.4-1.9,1.3-3C506.7,309.2,505.4,307.9,503.7,307.4z"/>
	</g>
</g>
</svg>