<svg version="1.1" id="Walk-Map-1" xmlns="http://www.w3.org/2000/svg" xmlns:xlink="http://www.w3.org/1999/xlink" x="0px"
	 y="0px" viewBox="0 0 1080 4050" style="enable-background:new 0 0 1080 4050;" xml:space="preserve">
<style type="text/css">
	.footstep{stroke:#000000;stroke-width:0.35;}
</style>
<g id="Step-5">
	<g>
		<path class="footstep" d="M953.6,3579.7c0.1-0.5-0.3-1-0.8-1c-1.8-0.2-3.2-0.6-4.2-1c-0.4-0.2-2.6-1.1-5.1-1.5
			c-0.4-0.1-0.8-0.1-1.4,0c-1.1,0.2-2.5,0.9-3.1,2.2c-0.6,1.4,0.1,2.8,0.3,3.2c1.9,3.7,10.2,3.4,12.8,3.2c0.4-0.1,0.8-0.4,0.8-0.8
			C953.2,3582.5,953.5,3581.1,953.6,3579.7z"/>
		<path class="footstep" d="M959.2,3583.7c0.6-0.9,0.9-2.1,0.3-3.2c-0.6-1.3-2.2-2-4-1.8c-0.4,0.1-0.8,0.4-0.8,0.8l-0.6,4.4
			c-0.1,0.5,0.3,1,0.7,1.1C956.6,3585.4,958.3,3584.9,959.2,3583.7z"/>
	</g>
	<g>
		<path class="footstep" d="M955.1,3570.5c0.1-0.4-0.2-0.8-0.6-1c-2.4-0.9-10.3-3.6-13.2-0.6c-0.3,0.3-1.4,1.5-1.2,3
			c0.1,1.4,1.3,2.5,2.3,3c0.5,0.3,0.9,0.3,1.3,0.4c2.5,0.3,4.8,0.1,5.3,0c1-0.1,2.5-0.1,4.3,0.2c0.5,0.1,1-0.2,1-0.8
			C954.7,3573.4,954.9,3572,955.1,3570.5z"/>
		<path class="footstep" d="M957.2,3570.1c-0.5,0-0.9,0.3-1,0.8l-0.7,4.4c-0.1,0.4,0.2,0.8,0.5,1c1.6,0.7,3.3,0.5,4.3-0.6
			c0.8-0.9,0.9-2.2,0.6-3.2C960.5,3571.2,959,3570.2,957.2,3570.1z"/>
	</g>
</g>
<g id="Step-4">
	<g>
		<path class="footstep" d="M953.6,2769.7c0.1-0.5-0.3-1-0.8-1c-1.8-0.2-3.2-0.6-4.2-1c-0.4-0.2-2.6-1.1-5.1-1.5c-0.4-0.1-0.8-0.1-1.4,0
			c-1.1,0.2-2.5,0.9-3.1,2.2c-0.6,1.4,0.1,2.8,0.3,3.2c1.9,3.7,10.2,3.4,12.8,3.2c0.4-0.1,0.8-0.4,0.8-0.8
			C953.2,2772.5,953.5,2771.1,953.6,2769.7z"/>
		<path class="footstep" d="M959.2,2773.7c0.6-0.9,0.9-2.1,0.3-3.2c-0.6-1.3-2.2-2-4-1.8c-0.4,0.1-0.8,0.4-0.8,0.8l-0.6,4.4
			c-0.1,0.5,0.3,1,0.7,1.1C956.6,2775.4,958.3,2774.9,959.2,2773.7z"/>
	</g>
	<g>
		<path class="footstep" d="M986.4,2767.7c0.1-0.4-0.2-0.8-0.6-1c-2.4-0.9-10.3-3.6-13.2-0.6c-0.3,0.3-1.4,1.5-1.2,3
			c0.1,1.4,1.3,2.5,2.3,3c0.5,0.3,0.9,0.3,1.3,0.4c2.5,0.3,4.8,0.1,5.3,0c1-0.1,2.5-0.1,4.3,0.2c0.5,0.1,1-0.2,1-0.8
			C986,2770.6,986.1,2769.2,986.4,2767.7z"/>
		<path class="footstep" d="M988.5,2767.3c-0.5,0-0.9,0.3-1,0.8l-0.7,4.4c-0.1,0.4,0.2,0.8,0.5,1c1.6,0.7,3.3,0.5,4.3-0.6
			c0.8-0.9,0.9-2.2,0.6-3.2C991.7,2768.4,990.2,2767.4,988.5,2767.3z"/>
	</g>
</g>
<g id="Step-3">
	<g>
		<path class="footstep" d="M1015.7,1966.9c0-0.5-0.4-0.9-0.9-0.9c-1.8,0.1-3.3-0.1-4.3-0.3c-0.5-0.1-2.8-0.6-5.3-0.6
			c-0.4,0-0.9,0-1.4,0.2c-1,0.4-2.3,1.3-2.6,2.7c-0.4,1.5,0.6,2.7,0.9,3.1c2.5,3.4,10.7,1.6,13.2,1c0.4-0.1,0.7-0.5,0.7-0.9
			C1015.8,1969.7,1015.8,1968.3,1015.7,1966.9z"/>
		<path class="footstep" d="M1021.9,1969.9c0.5-0.9,0.5-2.2-0.2-3.2c-0.8-1.1-2.5-1.6-4.2-1.1c-0.4,0.1-0.7,0.5-0.7,0.9l0.2,4.4
			c0,0.5,0.4,0.9,0.9,0.9C1019.7,1972,1021.2,1971.1,1021.9,1969.9z"/>
	</g>
	<g>
		<path class="footstep" d="M986.4,1957.7c0.1-0.4-0.2-0.8-0.6-1c-2.4-0.9-10.3-3.6-13.2-0.6c-0.3,0.3-1.4,1.5-1.2,3
			c0.1,1.4,1.3,2.5,2.3,3c0.5,0.3,0.9,0.3,1.3,0.4c2.5,0.3,4.8,0.1,5.3,0c1-0.1,2.5-0.1,4.3,0.2c0.5,0.1,1-0.2,1-0.8
			C986,1960.6,986.1,1959.2,986.4,1957.7z"/>
		<path class="footstep" d="M988.5,1957.3c-0.5,0-0.9,0.3-1,0.8l-0.7,4.4c-0.1,0.4,0.2,0.8,0.5,1c1.6,0.7,3.3,0.5,4.3-0.6
			c0.8-0.9,0.9-2.2,0.6-3.2C991.7,1958.4,990.2,1957.4,988.5,1957.3z"/>
	</g>
</g>
<g id="Step-2">
	<g>
		<path class="footstep" d="M1015.7,1156.9c0-0.5-0.4-0.9-0.9-0.9c-1.8,0.1-3.3-0.1-4.3-0.3c-0.5-0.1-2.8-0.6-5.3-0.6
			c-0.4,0-0.9,0-1.4,0.2c-1,0.4-2.3,1.3-2.6,2.7c-0.4,1.5,0.6,2.7,0.9,3.1c2.5,3.4,10.7,1.6,13.2,1c0.4-0.1,0.7-0.5,0.7-0.9
			C1015.8,1159.7,1015.8,1158.3,1015.7,1156.9z"/>
		<path class="footstep" d="M1021.9,1159.9c0.5-0.9,0.5-2.2-0.2-3.2c-0.8-1.1-2.5-1.6-4.2-1.1c-0.4,0.1-0.7,0.5-0.7,0.9l0.2,4.4
			c0,0.5,0.4,0.9,0.9,0.9C1019.7,1162,1021.2,1161.1,1021.9,1159.9z"/>
	</g>
	<g>
		<path class="footstep" d="M1044.8,1146.5c0-0.4-0.4-0.7-0.8-0.8c-2.5-0.3-10.9-0.7-12.9,3c-0.2,0.4-1,1.8-0.4,3.2c0.5,1.3,1.9,2,3,2.3
			c0.5,0.1,0.9,0.1,1.4,0c2.5-0.4,4.7-1.2,5.1-1.4c1-0.4,2.4-0.8,4.2-0.9c0.5-0.1,0.9-0.5,0.8-1
			C1045.2,1149.3,1045,1147.9,1044.8,1146.5z"/>
		<path class="footstep" d="M1046.7,1145.5c-0.5,0.1-0.8,0.6-0.8,1.1l0.5,4.4c0,0.4,0.4,0.8,0.8,0.8c1.7,0.3,3.4-0.4,4-1.7
			c0.5-1.1,0.3-2.3-0.3-3.2C1050.2,1145.7,1048.5,1145.1,1046.7,1145.5z"/>
	</g>
</g>
<g id="Step-1">
	<g>
		<path class="footstep" d="M1044.8,336.5c0-0.4-0.4-0.7-0.8-0.8c-2.5-0.3-10.9-0.7-12.9,3c-0.2,0.4-1,1.8-0.4,3.2c0.5,1.3,1.9,2,3,2.3
			c0.5,0.1,0.9,0.1,1.4,0c2.5-0.4,4.7-1.2,5.1-1.4c1-0.4,2.4-0.8,4.2-0.9c0.5-0.1,0.9-0.5,0.8-1
			C1045.2,339.3,1045,337.9,1044.8,336.5z"/>
		<path class="footstep" d="M1046.7,335.5c-0.5,0.1-0.8,0.6-0.8,1.1l0.5,4.4c0,0.4,0.4,0.8,0.8,0.8c1.7,0.3,3.4-0.4,4-1.7
			c0.5-1.1,0.3-2.3-0.3-3.2C1050.2,335.7,1048.5,335.1,1046.7,335.5z"/>
	</g>
</g>
</svg>