<?xml version="1.0" encoding="utf-8"?>
<!-- Generator: Adobe Illustrator 26.4.1, SVG Export Plug-In . SVG Version: 6.00 Build 0)  -->
<svg version="1.1" id="FQT-Icon" xmlns="http://www.w3.org/2000/svg" xmlns:xlink="http://www.w3.org/1999/xlink" x="0px" y="0px"
	 viewBox="0 0 1080 1080" style="enable-background:new 0 0 1080 1080;" xml:space="preserve">
<style type="text/css">
	.st0{fill:#D0FFBD;}
</style>
<g id="Icon">
	<path class="st0" d="M615.2,964.2c13.8,1.1,189.6,14,205.7-34.6c4.5-13.6,6.8-62.9,7.3-75.9c0.3-6.5,0.5-11.8,0.5-15.2
		c28.9,31.1,46.8,45.3,59.3,74.3c3.6,8.5,5.8,15.8,6.8,20.2c-13.6,10.6-18.5,27.3-12.3,40.5c7.7,17.1,30.8,22,32,20.4
		c2.2,2.3,5,4.5,8,6.4c17.8,10.9,49.8,9.8,67.7-9.9c19.2-21.2,17.9-58.5-7.2-82.4c-0.2-2.8-0.5-9.4-1.5-17.6
		C970.3,795.5,908,688.7,813,651.5c-2.2-0.8-4.1-1.5-6-2.2c-0.7-2.7-1.4-5.3-2.2-7.9c33.2-11,64-26.2,90.5-46.1
		c10.3,6.6,25,12.9,42.8,10.9c33.8-3.9,56.9-35.6,58.4-65.2c0.3-4.2,1.4-39.3-22-52c33.7-94.1,9.2-211-51-293
		C821.2,56.7,619.4,22.4,482,103.3C350.6,180.6,326.2,335,321.8,371.9c-5.5,44.7-12.3,101.3,14.9,151.8
		c16.6,30.7,44.8,57.2,80.6,78.6c-28.2-12.2-75.2-9.7-120.9,0.2c3.7-21.4-7.2-49-20.4-51.4c-9.1-1.6-12.5,9.8-33.2,16.5
		c-0.9,0.3-1.8,0.5-2.6,0.7c-25.3-122.3-50.7-244.6-76.1-366.9c-12.6-18.9-24.3-33.8-33.3-44.4c-11.7-13.9-17.7-19.4-23.6-18.2
		c-6.1,1.2-9.3,9-14.8,24.8C87.7,177,81.9,195.4,76.7,218c24.9,122.4,49.9,244.8,74.8,367.2c-2.9,0.5-5.5,0.9-8.8,0.9
		c-19.9-0.1-26.8-9.8-33.3-5.8c-12.4,7.9-5.1,55.8,22,66c6.3,2.3,11.8,2,17.8,0.2c0.2,0.7,0.3,1.4,0.5,2.2c3.3,15,14,26.2,25,34.1
		c2.1,10.5,3.8,19.3,5,25.5c4,20,4.5,22.3,7,24.5c6.1,5.1,15.4,2.2,43.7-5.7c16-4.4,28.6-7.7,35.1-9.5c13.3,3.1,27,6,41.1,8.9
		c17.5,3.5,34.6,6.5,51,9.2c-5.6,16.2-13,39.4-20.5,67.7c-9.6,36.3-14.4,54.5-13.4,62.1C332.9,938.4,567.6,960.4,615.2,964.2z"/>
</g>
</svg>
