<?xml version="1.0" encoding="utf-8"?>
<!-- Generator: Adobe Illustrator 27.0.1, SVG Export Plug-In . SVG Version: 6.00 Build 0)  -->
<svg version="1.1" id="FQT-Logo" xmlns="http://www.w3.org/2000/svg" xmlns:xlink="http://www.w3.org/1999/xlink" x="0px" y="0px"
	 viewBox="0 0 1080 1080" style="enable-background:new 0 0 1080 1080;" xml:space="preserve">
<style type="text/css">
	.st0{fill:#A28C56;}
	.st1{opacity:0.5;}
	.st2{fill:#FFFFFF;}
</style>
<g id="Crown">
	<g>
		<g>
			<path class="st0" d="M93.2,502.7c31.1-20,89.6,13.4,104.4,21.8c1.9,1.1,6.9,4.2,10.2,10.1c11,20.2-9.4,55.2-26.2,55.9
				c-8.2,0.4-10.8-7.5-20.8-6.4c-8.3,0.8-15.4,7.1-19.1,14.2c-2,4-5.9,13.6-2.5,16.3c6.5,5.2,28.3-22.6,45.9-16.1
				c4.6,1.8,6.9,5.2,11.6,12.1c4.1,6.1,21,31.5,13.4,50.3c-8.9,21.9-42.2,13.4-51.5,34.5c-4.2,9.7,1.4,14.3,12.9,56.3
				c11.9,43.2,9.9,53.1,5.6,60.4c-7.8,12.9-23.6,18.3-25.5,18.8c-4.8,1.5-10.1,3.1-16.1,1.1c-9.3-3.4-12.4-13.5-12.9-15.3
				c-3.7-11-8.3-25.3-13.2-42.5C89.6,705.9,41,536.3,93.2,502.7z"/>
			<path class="st0" d="M297.8,571.2c-1-0.4-1.9-0.7-1.9-0.7c-16.5-5.7-25.6-1.6-39.6-2.3C234,567.1,216,557,212,562.3
				c-0.1,0.1-0.4,0.7-1.2,1.8c-2,3.1-3.5,5.9-4.8,7.8c0,0-2.3,3.8-10.9,17l0,0c0,0-0.7,1.4-1,2.9c-2.5,11.4,7.6,17.7,14.9,35.1
				c3.7,8.6,11.6,27.7,4.9,41.1c-9.4,19.1-39.4,9.8-48.9,27.7c-6,11.2,3.1,19.5,12,55.7c8,33.2,12.5,51.5,3.4,65.7
				c-12.3,19.1-36.8,12.1-44.4,30c-6.1,14.4,3.1,35.3,16.1,46.2c8,6.8,19.8,11.7,77.1,7.5c43.9-3.3,65.8-4.8,71.1-10.8
				c33.2-36.4-49.5-149.7-21.7-171.5c4.6-3.7,11.7-4.2,16.9-2.5c34.9,12-3.8,133.9,42.4,162c16.9,10.2,43.3,6.8,56.7-6.3
				c17.8-17.6,3.8-44.4-32.4-172.9C336.3,607.6,322.6,582.2,297.8,571.2z M265.2,648.4c-5.2-6.3-0.7-21.1,7.6-23.3
				c8.9-2.3,20.4,10.5,18.1,18.1C288.5,651.3,270.9,655.3,265.2,648.4z"/>
			<path class="st0" d="M665.6,470.7c-50.8-73.2-38-133.1-86.9-163.8c-5.9-3.7-13.2-7.2-22.2-7.4c-28.7-0.4-49.2,34.3-51,37.3
				c-3.7,6.4-5.7,10.1-6.7,15.8c-1.9,12.3,2.7,25.3,27,54c30.1,35.7,37.6,32.8,41.7,47.3c7.6,27.7-16.9,48.2-6.3,61
				c7.6,9.1,28.6,8.2,35-0.3c7.5-9.8-8.9-30.9-0.1-39.5c2.6-2.5,7.1-3.7,10.8-2.6c13.5,4,6.3,34.9,21.8,45.9
				c14.4,10.4,44.6,1.9,50.3-13.1C683.2,494.2,673.3,481.7,665.6,470.7z M582.1,422.8c-9.8-7.4-6.4-24.4-1.5-26.2
				c6.5-2.5,24.3,19.2,20.2,26.4C598.3,427.2,588.2,427.3,582.1,422.8z"/>
			<path class="st0" d="M426.9,489c-6.7-1.9-13.2,16.2-39.9,45.1c-9,9.8-10.1,10.4-11.7,14.2c-5.9,12.9,11,31.6,34.9,61.2
				c27.4,33.9,38,50.5,38.4,50.3c0.7-0.5-58.4-62.1-73.6-91.6c-1.1-2.2-3.8-7.6-9.3-9.7c-7.6-2.9-12.4,4.1-28.7,8.2
				c-12.1,3-18.8,1.5-20.4,5.4c-1.9,4.5,5,11.3,6.7,12.9c22.1,22.6,42.9,114.8,74.3,213.9c1.6,5.3,5.3,16.1,14.4,20
				c14.9,6.4,34.2-9.5,40.3-14.6c3.1-2.6,24.3-20,19.9-33.1c-1.5-4.6-5.6-6.9-7.6-8.2c-25.5-15.7-45.4-55.9-43.6-57.4s29,26,50.4,50
				c24.3,27.1,25.9,32.7,33.9,33.8c33,4.4,87.9-79.2,66.6-122.2c-9.5-19.5-25.9-12.9-47.1-38.8c-28.6-35-25.6-79.6-37.7-79.7
				c-7.6-0.1-9.1,17.7-18.9,18.4c-12.5,1-27.5-26.3-33.8-49.7C429.7,499.8,431.6,490.4,426.9,489z"/>
			<path class="st0" d="M438.5,464.4c12.3-20.3,18-38.1,39.2-72.6c8.3-13.5,11.7-17.6,16.3-17.7c8.2-0.4,13.6,11,22.6,24.5
				c27.4,41.1,49.6,43.6,47.5,60.1c-2,16.8-24.9,16.3-31.7,39.8c-5,16.9,2.5,33.4,5,39.1c11.2,24.8,29.4,25.6,32.2,41.8
				c3.3,19.9-19.5,46.9-35.1,44.6c-26.2-3.8-31.1-88.3-47.1-87.5c-8.4,0.4-9.1,24-19.8,25.2c-15,1.6-29.3-43.6-33.1-58.6
				c-2-8.4-4.1-20.3,0.7-32.3C436.5,467.7,437.8,465.5,438.5,464.4z"/>
			<path class="st0" d="M705.1,672.8c27.1-13.2,30-28.6,42.2-26.8c8.7,1.2,11.2,10.2,25.9,35.7c25.1,43.5,33.5,44.8,31.9,56.4
				c-4,26-48.8,28.5-50.3,53.1c-0.4,6,1.8,10.1,21.7,35.7c34.9,45,46.6,56.3,42.9,63.4c-2.6,4.9-9.9,2.6-42.6,3
				c-38.3,0.5-52.9,4.1-58.6-4.8c-2.9-4.5-0.3-7.2-0.1-19.8c0.3-21.3-6.9-47-16.5-48.4c-9-1.4-13.8,19.9-25.5,19.2
				c-7.9-0.5-13.6-10.8-20.4-23.3c-6.7-12.3-10.1-18.3-10.5-25.9c-1-21.4,20.7-24.5,25.7-53.3c1.4-8,3.4-19.6-1-32.6
				c-2.2-6.5-4.2-8.2-3.5-11.9C668.2,683,684.8,682.8,705.1,672.8z"/>
			<path class="st0" d="M774.6,782.8c3.3-8.6,10.6-13.9,25.1-24.4c21.8-15.7,36-26,46.9-21.8c18.9,7.2,0.7,48.2,27.1,77.4
				c21.1,23.3,56.5,23.6,57.1,40.7c0.1,6.1-4.1,13.9-4.9,15.1c-4.9,8.7-11.6,13.2-14.9,15.3c-16.6,10.8-36.9,7.9-43.3,6.9
				c-38-5.3-61.4-35.3-69.9-46.2C786.6,831.5,766,805.3,774.6,782.8z"/>
			<path class="st0" d="M839.9,561.1c-0.8-4,1-15.1,76.7-48.5c37.5-16.5,46-17.7,55.3-14.2c16.6,6.3,27.5,25.1,29.6,40.1
				c0.7,5.7,0,9.4-1.4,12.3c-4.8,10.4-19.5,16.3-27.9,12.1c-6.4-3.1-4.5-9.7-11-13.8c-8.2-4.9-23.4-2.5-29.7,7.9
				c-5.6,9.3-3,23.2,4.4,27.9c16.1,10.6,46.6-27.9,62-18.9c10.9,6.4,5.7,34.5-5.2,90.6c-11,56.7-17.8,65-23.8,65.7
				c-3.3,0.4-5.7-1.5-22.5-20.3c-28.7-32.2-30-36.1-29.6-40.6c1.6-16.8,26.6-31.7,38.7-26.6c6.8,3,8.9,11.9,9.5,11.6
				c1.2-0.5-2.7-24-13.4-26.4c-14.9-3.5-31.2,37.2-45,33.1c-3.1-1-3.1-3.1-11.3-19.1c-16.1-31.1-22.2-34.3-26.4-35.6
				c-5.6-1.6-9.4,0-12.7-3.5c-3.8-4.1-1.2-9-3.4-16.5C849.5,567.7,841,567.1,839.9,561.1z"/>
			<path class="st0" d="M803,637.7c31.5-9.7,35.3-34.2,53.5-33.5c18.8,0.8,38.4,27.9,33.7,44.4c-4.5,15.7-29.6,16.1-31.1,31.3
				c-1,9,6.8,18.8,11.9,18.4c8.4-0.8,6.1-29.4,19.3-33.7c9.7-3.1,21.4,8.9,25.3,12.8c4,4.1,15.9,16.2,13.2,28.6
				c-2.9,12.9-19.3,15.3-18.7,24.7c0.4,6.1,8,12.4,13.1,11.3c9.8-2.2,5.6-30.9,15.7-34.1c7.9-2.5,22.6,11.3,27.4,27.5
				c3.3,11.2,0,17.3-13.8,59.7c-9.7,30-10.4,34.1-15.7,36.9c-15.8,8.9-47.4-5.4-62.8-28.6c-20.3-30.5-6.9-68.3-22.9-74.1
				c-7.5-2.7-11.9,5-24.1,3.1c-5.3-0.8-14.7-3.7-30.4-24.7c-10.2-13.6-36.1-48.2-25.3-62.9C776.5,637.8,784.7,643.3,803,637.7z"/>
			<path class="st0" d="M502,792.2c-8.3-2.5-8.3-8.4-15.8-9.4c-17.3-2.3-22.3,29.3-51.5,38.3c-12,3.7-22.3,1.8-26.3,9.4
				c-2.6,4.9,0,8.7,0.7,16.2c2.3,24.1-20.2,38-14.9,48.2c4,7.8,20.4,6.7,24.4,6.4c49-3,263.8-3.4,275.2-3.3c2.9,0,11.2,0.1,16.1-5.3
				c2.2-2.3,4.8-7.1,2.2-26.6c-2.6-19.5-4.2-31.7-10.5-33.2c-7.8-1.9-14,15-26.4,13.8c-5.7-0.5-9.3-4.6-11.6-6.7
				c-24.4-21.4-99.7,30.4-118.1,11.9c-4.8-4.8-4.5-13.1-3.4-17.7c5.6-22.1,46-15.9,81.9-40.9c3-2,53.1-37.7,43.9-80.1
				c-7.5-34.1-50.4-59.4-72.2-49.7c-23.7,10.5-6,55.6-44.7,101.1C546,770.5,521.8,797.9,502,792.2z"/>
			<path class="st0" d="M760.4,584.4c-1.8-4.4-3.8-4.4-14.7-13.1c-37.6-30.2-43.3-54.5-62.8-54.1c-7.2,0.1-15,3.7-16.6,4.5
				c-3.1,1.4-14.3,6.5-17.8,13.5C638,555.7,691.9,595,682,611.7c-2.2,3.5-7.1,5.6-10.8,5c-10.4-1.5-12.9-22.6-30.1-65
				c-6.7-16.6-10.1-22.8-17-26.2c-7.1-3.5-15.8-2-33.1,0.8c-16.6,2.9-24.9,4.4-27.4,8.4c-7.1,11.9,18.5,26.7,16.5,50
				c-2.3,26.6-38.3,38.4-33.1,53.1c1,2.7,1.6,1,22.1,15.9c5.3,4,10.4,7.8,16.1,6.7c2.9-0.5,4-2,6.4-3.3c7.6-4,17-0.4,22.8,1.9
				c21.5,8.4,35.4,16.6,42.6,19.1C696.4,691.4,773.4,616.3,760.4,584.4z"/>
			<path class="st0" d="M794.9,568.7c25.6-0.5,31.3-8.7,39.9-3.4c8.6,5.3,11.6,19.3,9.7,29.6c-6.8,35.6-78.6,51.4-87.2,38.7
				c-5.7-8.6,17-30,10.8-52.3c-0.5-1.9-1.8-5.7,0.1-8.9C771.3,567,781.2,569,794.9,568.7z"/>
		</g>
		<g class="st1">
			<path class="st2" d="M160.5,520c-7.1-3.1-15.3-8.3-14.6-9.9c0.7-1.8,10.8,0.4,18.8,3.8c7.8,3.3,16.5,8.9,15.7,10.6
				C179.8,526.1,169.2,523.8,160.5,520z"/>
			<path class="st2" d="M192.9,626.2c-5.9-7.6-9.3-17.7-7.5-18.8c1.9-1.1,9.9,7.9,14.3,17.6c0.4,1,3.5,7.9,2.2,8.9
				C200.5,634.8,195.9,630.2,192.9,626.2z"/>
			<path class="st2" d="M307.7,596c-13.2-11-19.9-16.6-19.2-17.7c1-1.6,11.4,1.4,19.6,8.2c8.6,7.1,13.2,17.6,11.9,18.7
				C319.7,605.4,318.6,605.1,307.7,596z"/>
			<path class="st2" d="M294.1,843.7c-9.4-22.8-14.7-47.4-12.7-48.1c1.8-0.5,8.4,15.5,12.1,26.3c5.7,16.9,9.1,35,7.5,35.4
				C299.8,857.7,296.1,848.9,294.1,843.7z"/>
			<path class="st2" d="M544.5,657.6c1.2-1.6,12.8,1.9,19.2,11c8.2,11.6,5.2,27.5,3.1,27.8c-1.4,0.1-1.6-6.4-7.1-16.9
				C552.1,665.1,543.1,659.2,544.5,657.6z"/>
			<path class="st2" d="M520.4,635.8c-1.6,1-0.5,8.3,3.7,13.4c5.9,7.1,16.9,8.6,17.8,6.7c0.4-0.8-3.3-4.5-10.9-11.6
				C522.2,635.8,520.9,635.4,520.4,635.8z"/>
			<path class="st2" d="M493.7,382.1c-7.9,0.8-11.9,16.2-9.9,17.4c1.2,0.8,4.2-5.6,10.5-6.4c9.1-1.1,16.8,11,18.3,9.8
				c1-0.8-2-6.7-6-11.4C502.4,386.5,498.5,381.6,493.7,382.1z"/>
			<path class="st2" d="M515.2,406.6c-1,0.8,1.1,5.6,4.1,8.9c1.8,1.9,4.6,4,5.4,3.3c0.7-0.5-0.3-2.9-0.7-3.5
				C521.8,409.8,516.4,405.7,515.2,406.6z"/>
			<path class="st2" d="M598.5,337.3c-1.2,0.7,2.2,10.1,4.4,15.3c4.8,11.7,12.5,25.2,14.3,24.4c1.6-0.7-2.5-15.3-9.7-27.9
				C604.3,343.8,599.6,336.7,598.5,337.3z"/>
			<path class="st2" d="M743.7,577.5c-1.4,1.1,5.2,7.8,6.9,19.3c1,6.7-0.3,10.5,0.8,10.6c1.5,0.4,7.1-8.2,5-16.3
				c-1-4-3.5-6.8-5.3-8.6C748.9,580.2,744.8,576.6,743.7,577.5z"/>
			<path class="st2" d="M729.2,564.4c-0.8,0.8,2.7,5.6,6.7,8.6c0.5,0.4,3.7,2.9,4.4,2.2c0.7-0.5-1-3.5-2.9-5.7
				C734.4,565.9,729.9,563.6,729.2,564.4z"/>
			<path class="st2" d="M735.2,658.5c0.4,1.1,3.5-0.1,7.9,0.4c9.7,1.2,14.6,9.8,15.4,9c1.2-1-4.8-16.2-13.8-16.2
				C739.6,651.9,734.6,657,735.2,658.5z"/>
			<path class="st2" d="M762.9,679.6c5.2,12.8,14.9,23.3,16.3,22.3c1.4-0.8-3.7-10.9-6.7-16.1c-4.4-7.5-10.6-15.7-11.9-15
				C759.6,671.6,762.2,678.1,762.9,679.6z"/>
			<path class="st2" d="M902.8,846.4c7.9,3.7,16.9,5.3,17.4,4c0.7-1.6-10.4-7.4-15.4-10.1c-4.5-2.5-19.1-10.1-20.2-8.4
				C883.7,833.2,892.1,841.5,902.8,846.4z"/>
			<path class="st2" d="M921.1,703.8c0,4-0.5,6.7,0.3,6.9c1,0.4,3.5-2.6,4.5-5.7c2-7.5-5.6-16.1-6.8-15.5
				C918.2,689.9,921.1,694.6,921.1,703.8z"/>
			<path class="st2" d="M912.1,684c0.3,0.3,4.8,4.6,5.6,4c0.7-0.5-0.7-3.5-2.3-5.7c-3-4.2-8-6.8-8.9-6
				C906,676.9,909.5,681.4,912.1,684z"/>
			<path class="st2" d="M960.9,746.3c0.7,3.5,1.1,4.2,1.4,4.2c0.8,0,2-3.3,2.3-6.3c0.4-5.9-3.1-11.4-4.4-11
				C958.7,733.6,960.4,743.8,960.9,746.3z"/>
			<path class="st2" d="M834.4,578.8c3.7,7.1,4.2,10.6,5,10.4c1.2-0.3,2.3-7.6-1-13.5c-3.1-5.6-9.3-8.6-10.1-7.6
				C827.8,568.6,830.6,571.3,834.4,578.8z"/>
			<path class="st2" d="M959.1,505.4c15.5,2,24.1,9.5,25.1,8.2c0.8-1.2-5.6-9.9-15.7-12.4c-9.7-2.5-19.2,1.9-19.1,3.1
				C949.4,505.1,953.1,504.6,959.1,505.4z"/>
			<path class="st2" d="M993.6,616c1.1,0.1,3-6.7,3.8-12c2-11.6,1-23.7-0.5-23.7c-1.5-0.1-3.7,12.5-4.2,22.8
				C992.5,607.3,992.3,615.9,993.6,616z"/>
			<path class="st2" d="M989.2,624.6c-1.1,4.2,0.1,9,1.4,9.1c1.2,0.1,2.7-4.2,3.1-7.4c0.4-2.7,0.3-6.9-1-7.2
				C991.8,618.9,989.9,621.9,989.2,624.6z"/>
			<path class="st2" d="M986.6,520.7c1.5,2.5,4.5,4,5.3,3.3c0.8-0.7-1-4-1-4.1c-1.5-2.7-4.2-5.2-5.2-4.5
				C984.8,515.7,985.4,518.6,986.6,520.7z"/>
			<path class="st2" d="M883.1,829.4c0.4-0.8-1.9-3-3.8-4.2c-1-0.7-3.7-2.2-4.4-1.5c-0.7,0.7,1.4,4.4,4.5,5.6
				C880.7,829.8,882.7,829.9,883.1,829.4z"/>
			<path class="st2" d="M649.4,701.4c8.6,13.4,11.7,22.1,12.9,21.7c1.4-0.5,0.4-11.3-4.6-21.3c-8.2-16.1-24.4-24.7-25.5-23.4
				C631.3,679.5,639.2,685.6,649.4,701.4z"/>
			<path class="st2" d="M623,673.8c4.6,2.5,6.9,3.5,7.4,3c0.8-0.8-1.6-5.3-5.7-7.4c-4.1-2.2-9.1-1.6-9.4-0.5
				C615.1,669.6,617.7,671.1,623,673.8z"/>
			<path class="st2" d="M618.6,381.7c-0.8,0.1-1.5,3.7-0.1,6.5c1.1,2.3,3.5,4.2,4.4,3.7C624.2,390.8,620.3,381.3,618.6,381.7z"/>
			<path class="st2" d="M274.6,781c-0.4-2.5,0-6.1,0.8-6.3c1.9-0.3,6.7,14,5,14.9C279.5,790.1,275.4,786.2,274.6,781z"/>
			<path class="st2" d="M186.7,532.8c-2.7-2.2-4.1-6.3-3-7.2c2-1.9,13.4,5.3,12.7,7.8C195.7,534.8,190.4,535.8,186.7,532.8z"/>
			<path class="st2" d="M279,578.3c-4.4,0-10.1-1.1-10.1-2.5c0-1.2,5-2.9,9.5-1.9c3,0.5,6,2.2,5.9,3.1
				C284.2,578.1,280.1,578.3,279,578.3z"/>
		</g>
	</g>
	<g>
		<g>
			<path class="st0" d="M96.6,485.1c-0.1,6.3-20.3,15.4-39.9,12.1c-21-3.5-43.2-21.5-45.6-45.9c-3.5-35.1,36.1-64.2,51.2-58.9
				c6.1,2.2,11.2,11.2,9.5,17.4c-2,8-14.6,9.3-14.7,16.1c0,3,2.3,6.3,5.2,7.1c5.3,1.5,8.6-6.7,15-6.4c7.5,0.3,15.7,12.3,13.2,18.8
				c-2.6,6.7-15.3,5.6-16.3,11.7c-0.4,2.3,1,4.2,3.1,7.1C88.2,478.7,96.6,481,96.6,485.1z"/>
			<path class="st0" d="M103,480.7c-2.3,0-5-2.2-10.4-6.8c-6.5-5.6-13.8-11.7-12.4-16.8c1.2-4.8,8.7-3.1,11.7-8.9
				c4.2-8-4.1-24.3-13.1-25.9c-2.3-0.4-5.4,0-6.1-1.5c-0.5-1.2,1.2-2.5,2.3-4.8c2.2-4.6,0.1-9.9-1.9-15.5c-2.9-7.4-5.3-9-4.6-9.9
				c2.3-3.4,40.9,3.5,51.9,32.3C130.3,449.1,113.3,480.5,103,480.7z"/>
			<path class="st0" d="M1008.3,497.1c-7.6,6-33.7-9-32.4-19.1c0.3-1.6,1.1-2.9,1.8-3.7c3.5-4.2,8.7-10.6,14.3-18.8
				c9.5-13.8,9.4-16.3,8.9-18.1c-2.9-7.6-20.3-3.1-24.5-12.1c-3.3-6.9,3.5-17.2,5.4-19.9c1.8-2.6,4.4-6.5,8.3-8.7
				c5.4-3,12.9-2.3,43.7,14.7c28.1,15.5,32.3,20.8,32.8,27s-2.9,13.1-3.5,14.3c-2.3,4.4-4.9,9.5-9.1,10.4
				c-7.4,1.2-11.4-12-19.1-11.2c-2.2,0.3-5,1.6-12.5,15.3c-3.4,6.1-7.8,14.7-11.9,25.5C1010.4,494,1009.8,495.9,1008.3,497.1z"/>
			<path class="st0" d="M1014.1,497.9c-0.8-1.1-1-2.7,5.9-17.3c10.8-23,13.8-24.1,15.5-24.4c7.2-0.8,10.5,12.1,18,11.6
				c9.5-0.7,14-22.2,15.3-21.8c1.2,0.4,1.4,26.3-17,42C1038.2,499.4,1017.8,503.4,1014.1,497.9z"/>
			<path class="st0" d="M973,473c-5.9-0.5-10.5-17.4-9.1-32c1.2-14.3,7.9-25.1,9.5-24.7c1.4,0.4-2,9.4,2.6,14c2,2,5.6,3,10.1,4.4
				c7.5,2.3,9.4,2.2,10.4,3c0.1,0.1,0.1,0.1,0.1,0.1s0.1,0.1,0.1,0.3c1.9,3.5-12,21.5-12,21.5C975.2,471.9,974.6,473.2,973,473z"/>
			<path class="st0" d="M1066.2,427.5c-2,1.9-11-8.4-31.6-19.6c-20.4-11-32.4-12.3-32-14.4c0.5-3.1,27.7-6.1,47,8.6
				C1061.7,411.3,1068.2,425.6,1066.2,427.5z"/>
			<path class="st0" d="M599.8,244c-4-4.8-9.3-1.8-12.9-5.3c-7.1-6.8,7.8-23,2.5-38.7c-4.4-13.2-20.8-20.4-32.7-21.9
				c-19.2-2.5-33.1,9-35.8,11.3c-22.6,18.5-30.1,58.7-11.7,80.4c9,10.6,26.7,19.6,39.1,14.6c11-4.5,13.9-18.8,22.3-18.1
				c6.3,0.5,7.2,8.4,14,8.9c7.2,0.5,14.3-7.6,16.8-15.3C601.7,258.1,604.5,249.3,599.8,244z M556.4,230.1c-1.8,5.3-10.4,8.4-14.4,5
				c-3.4-2.9-3.8-10.5,1-13.9c4-2.9,9.8-1.5,12.4,2.2C556.5,225.2,557,227.7,556.4,230.1z"/>
			<path class="st0" d="M600.4,237.8c-1.5,1-4.2,0.5-5.7,0.4c-1.9-0.3-4.6-0.7-6-2.3c-1.8-2.2-0.5-5.3,1.6-13.6
				c2.9-11,2.6-12.7,3.5-12.8C597.6,208.9,605.8,234.4,600.4,237.8z"/>
			<path class="st0" d="M578.7,276.9c-0.1,5.4-19.9,10.9-21.8,7.5c-0.7-1.2,1-3.4,4.2-7.8c3.5-4.8,5.4-7.2,8.3-7.4
				c3.5-0.1,6.4,3.1,7.1,4C577.8,274.6,578.7,275.7,578.7,276.9z"/>
		</g>
		<g class="st1">
			<path class="st2" d="M80.9,436.6c-5.7-2.9-8.7-3.3-8.7-4.2c0-1,3-2,5.7-1.6c5.7,0.8,9.1,7.9,8.3,8.7
				C85.9,439.7,84.8,438.6,80.9,436.6z"/>
			<path class="st2" d="M113.5,421.5c1-0.4,4.5,4.4,6,9.8c1.4,4.8,1.2,10.1,0.1,10.2c-1.2,0.3-3.7-7.2-4.6-10.5
				C114.4,429.2,112.2,421.9,113.5,421.5z"/>
			<path class="st2" d="M569.7,188c0.7-1,6.3,1.2,10.2,5.4c6.7,7.2,6.5,18.3,5.3,18.7c-1,0.3-1.9-4.6-7.8-13.2
				C572.6,191.8,569,188.8,569.7,188z"/>
			<path class="st2" d="M554.3,183.3c0.3-1,3.7-1.1,6.4-0.4c3.1,0.8,6.1,3,5.9,4c-0.3,1-3.7,0.5-5.9,0.1
				C557.6,186.2,554,184.3,554.3,183.3z"/>
			<path class="st2" d="M1059.2,432.4c0.7-0.4,3.7,2,4.8,5.4c0.3,0.8,0.7,2.5,0,5.7c-1,5.3-3.7,10.6-4.5,10.4
				c-1.1-0.3,2.9-8.4,0.4-17.8C1059.4,434.4,1058.7,432.6,1059.2,432.4z"/>
			<path class="st2" d="M1051.2,426.2c0.4-0.5,2.6,0.1,4.2,1.4c1.5,1.1,2.6,3,2.2,3.4c-0.4,0.5-2.5-0.5-4-1.6
				C1052.3,428.4,1050.8,426.8,1051.2,426.2z"/>
			<path class="st2" d="M105.1,409.8c0.8-0.5,3.4,1.5,4.9,3.7c1.5,2,2.3,5.2,1.5,5.7c-0.8,0.5-3-1.1-4.2-2.6
				C105.1,414.1,104.2,410.3,105.1,409.8z"/>
		</g>
	</g>
</g>
</svg>
