<?xml version="1.0" encoding="utf-8"?>
<!-- Generator: Adobe Illustrator 26.4.1, SVG Export Plug-In . SVG Version: 6.00 Build 0)  -->
<svg version="1.1" id="FQT-Status" xmlns="http://www.w3.org/2000/svg" xmlns:xlink="http://www.w3.org/1999/xlink" x="0px" y="0px"
	 viewBox="0 0 1080 135" style="enable-background:new 0 0 1080 135;" xml:space="preserve">
<style type="text/css">
	
		.st0{fill:#FFFFFF;stroke:#000000;stroke-width:0.5;stroke-linecap:round;stroke-linejoin:round;stroke-miterlimit:10;stroke-opacity:0.4;}
</style>
<g id="Status">
	<path class="st0" d="M1056.7,52.3c-19.2,2.4-38.4,4.8-57.6,7.2V33.3c0-15.8-12.8-28.7-28.7-28.7H33.5C17.7,4.6,4.8,17.5,4.8,33.3
		v68.4c0,15.8,12.8,28.7,28.7,28.7h936.9c15.8,0,28.7-12.8,28.7-28.7V89.2C1018.3,76.9,1037.5,64.6,1056.7,52.3z"/>
	<g>
		<path d="M128.3,69.3c0-5.6,1.3-10.3,3.9-14.2s6-5.7,10.4-5.7c3.2,0,5.5,0.8,7,2.4c0.1-1.1,0.4-1.8,1.1-2c0.8-0.4,1.9-0.5,3-0.5
			c1.6,0,2.8,0.3,3.7,1.1c0.4,2.5,0.6,4.7,0.6,6.5c0,3.2-0.6,5.7-1.8,7.6c-1.8,0.8-3.3,1.1-4.6,1.1s-2.6-0.3-4-1.1
			c0-0.1-0.1-0.2-0.1-0.6c0-0.4,0.1-0.8,0.1-0.9c0-1.4-0.5-2.5-1.6-3.3c-1.1-0.9-2.1-1.2-3-1.2c-1.4,0-2.5,1.2-3.5,3.5
			c-1,2.3-1.5,4.8-1.5,7.7c0,2.6,0.5,4.7,1.4,6.3c0.9,1.5,2.1,2.3,3.5,2.3c1.6,0,3.1-1,4.6-3c-0.1-0.7-0.2-1.1-0.2-1.1
			c0-0.1,0-0.1,0-0.2c0-0.1,0-0.1,0-0.2c1.2-0.7,2.6-1,4-1c1.5,0,3.1,0.3,4.9,1.1c1.2,2,1.8,4.5,1.8,7.6c0,1.8-0.2,3.9-0.6,6.5
			c-1,0.9-2.4,1.3-4,1.3c-1.2,0-2.1-0.3-2.8-0.9c-0.7-0.3-1.1-1-1.1-2.1c-2.2,1.7-4.4,2.4-6.7,2.4c-1.8,0-3.5-0.4-5.2-1.2
			s-3.2-2-4.7-3.5c-1.4-1.5-2.6-3.5-3.4-6.1C128.8,75.2,128.3,72.4,128.3,69.3z"/>
		<path d="M161,83.5c0-1.8,0.1-2.8,0.3-3c0.3-0.2,0.9-0.3,1.8-0.6c0.6-0.1,1-0.2,1.2-0.2c-0.4-2.1-0.6-5.7-0.6-10.8
			c0-5.9,0.2-11.1,0.5-15.6c-1,0-1.7-0.1-2.3-0.2c-0.1-0.8-0.1-1.3-0.1-1.8c0-1.6,0.4-3,1.1-4.2c1.5-0.3,3.4-0.6,5.8-0.6
			c1.8,0,3.2,0.2,4.2,0.6c0.4,3.4,0.6,7,0.6,10.9c0,2.8-0.1,6.6-0.4,11.6c-0.2,4.9-0.4,8.5-0.4,10.3c0.2,0,0.5,0,0.9,0
			c0.9,0,1.7,0.2,2.4,0.6c0.1,0.1,0.2,0.4,0.2,1c0,0.8-0.1,1.9-0.4,3.4c-0.3,1.5-0.5,2.4-0.7,2.8c-0.5,0.3-2.4,0.5-5.5,0.5
			c-4.6,0-7.4-0.5-8.1-1.5C161.1,86.5,161,85.5,161,83.5z"/>
		<path d="M177.9,83.7c0-1.8,0.3-2.9,1-3.1c0.3-0.2,0.9-0.3,1.8-0.6c0.6-0.1,1-0.2,1.2-0.2c-0.4-4.3-0.6-6.9-0.6-8.1
			c0-2.5,0.2-4.3,0.5-5.1c-1,0-1.7-0.1-2.2-0.2c-0.3-0.8-0.4-1.4-0.4-2.1c0-1.1,0.5-2.4,1.4-4c1.2-0.2,3.5-0.3,6.9-0.3
			c1.2,0,2.3,0.1,3.4,0.2c1.1,0.1,2,0.3,2.6,0.5s0.9,0.4,0.9,0.6c0.3,0.4,0.4,1.1,0.4,2.1c0,2-0.3,3.3-0.9,4
			c-0.1,0.1-0.6,0.2-1.3,0.2s-1.3-0.1-1.7-0.2c-0.4,2.5-0.5,5.9-0.5,9.9c0,1.8,0,2.6,0.1,2.8c0.2,0,0.5,0,0.8,0
			c0.8,0,1.6,0.2,2.3,0.6c0.1,0.2,0.2,0.7,0.2,1.3c0,0.9-0.1,2-0.4,3.2c-0.3,1.2-0.5,2.1-0.8,2.5c-0.5,0.3-2.3,0.5-5.2,0.5
			c-4.9,0-7.7-0.5-8.5-1.5C178.2,86.2,177.9,85.3,177.9,83.7z M182.9,49.4c0-1,0.5-1.5,1.5-1.5c0.8,0,1.7,0.2,2.7,0.9
			c0.7-0.8,1.6-1.1,2.8-1.1c0.7,0,1.3,0.2,1.9,0.9c0.5,0.5,0.8,1.3,0.8,2.2c0,0.4-0.1,1-0.3,1.3c-0.2,0.4-0.4,0.8-0.6,1.1
			c-0.2,0.3-0.5,0.7-1,1c-0.5,0.4-0.8,0.7-1.1,0.9c-0.2,0.1-0.7,0.4-1.3,0.9c-0.6,0.4-1,0.7-1.2,0.8c-1.3-1.1-2.4-2.3-3.1-3.6
			C183.3,51.6,182.9,50.4,182.9,49.4z"/>
		<path d="M196.8,75.8c0-5.1,1.4-8.9,4.3-11.6c2.9-2.6,7.2-4,13-4l0.4-1.4c0.9-0.2,1.8-0.3,2.7-0.3c2,0,3.8,0.7,5.4,1.9
			c0.1,0.6,0.1,1.3,0.1,2.3c0,1.9-0.3,3.5-0.9,4.8c-0.6,1.3-1.3,2.2-2.1,2.5c-1.4,0.5-2.8,0.9-3.9,0.9c-1.2,0-2.4-0.3-3.4-0.9l0.4-2
			c-0.8-0.2-1.6-0.4-2.3-0.4c-1.5,0-2.8,0.8-3.8,2.3s-1.5,3.2-1.5,5.1c0,1.5,0.3,3,1,4.2c0.7,1.2,1.5,1.9,2.5,1.9
			c0.9,0,2.1-0.4,3.4-1.3l-0.4-1.5c1.6-1.3,3.4-1.9,5.4-1.9c0.7,0,1.6,0.1,2.6,0.4c2,2.4,3,5.4,3,8.7c0,0.8,0,1.4-0.1,2.2
			c-1.8,1.3-3.9,2-6.3,2c-0.3,0-0.9,0-1.6-0.1l-0.5-1.4c-2.3,0.4-4.2,0.7-5.9,0.7c-3.6,0-6.4-1.1-8.5-3.2
			C197.9,83.6,196.8,80.2,196.8,75.8z"/>
		<path d="M224,51.6c0-1.9,0.4-3.1,1.2-3.6c1.4-0.8,3.4-1.1,6.1-1.1c3.4,0,5.7,0.3,6.8,1.1c0.7,0.3,1,1.4,1,3.4
			c0,1.7-0.2,2.8-0.6,3.1c-0.8,0.1-1.4,0.2-1.9,0.2c0,1.8,0.2,5.5,0.5,11.3c1.8-1.2,3.4-2.5,4.8-4c1.4-1.4,2.1-2.5,2.1-3.3
			c0-0.2-0.1-0.4-0.2-0.5c-0.2,0.2-0.7,0.4-1.3,0.4c-0.2,0-0.4,0-0.5-0.1c-0.3-0.3-0.5-1.1-0.5-2.3c0-0.5,0.1-0.9,0.3-1
			c1.2-0.4,2.8-0.5,4.6-0.5c3.8,0,6.6,0.4,8.6,1.2c0.1,0.3,0.2,0.8,0.2,1.3c0,1.6-0.4,2.6-1.2,3c-0.1,0-0.3,0-0.5,0
			c-0.9,0-1.5-0.1-1.8-0.4c0,0.2-0.3,0.8-0.9,1.5c-0.6,0.8-1.5,1.8-2.6,3.1c-1.2,1.2-2.4,2.4-3.7,3.5c3.2,1.4,5.9,3.6,8.2,6.5
			c2.2,2.9,3.3,4.9,3.3,6.2c0.3-0.1,0.6-0.2,1-0.2c0.3,0,0.7,0.1,1.3,0.3c0.6,0.3,0.9,1.4,0.9,3.2c0,1.6-0.3,2.9-0.8,3.7
			c-1.1,0.7-3.4,1-7,1c-2.2,0-4.1-0.2-5.5-0.9c-0.8-1.1-1.2-2.5-1.2-4.4c0-1.1,0.2-2,0.6-2.5c0.3-0.2,0.6-0.3,1-0.3
			c0.3,0,0.6,0.1,0.9,0.2c-0.4-1.3-0.9-2.4-1.7-3.4c-0.8-1-1.7-1.8-2.7-2.3c-1.1-0.5-1.9-1-2.6-1.3c-0.7-0.2-1.5-0.6-2.6-0.9
			c0,0.9,0.1,2.2,0.1,4c0,1.4,0,2.5-0.1,3.2c0.4-0.2,0.9-0.4,1.6-0.4c0.6,0,1,0.1,1.1,0.3c0.5,0.1,0.8,1.3,0.8,3.5
			c0,2.1-0.1,3.5-0.2,4.4c-1.8,0.5-5.1,0.8-10.1,0.8c-2.3,0-3.9-0.2-4.9-0.7c-0.8-1-1.1-2.5-1.1-4.7c0-1.5,0.3-2.5,0.8-2.8
			c0.5-0.3,1.3-0.5,2.4-0.5c0.3,0,0.5,0,0.7,0.1c-0.2-10.1-0.3-17.2-0.3-21.2c0-2.3,0-3.6,0.1-3.8c-0.6,0.3-1.2,0.4-1.7,0.4
			c-0.7,0-1.2-0.2-1.7-0.7C224.3,53.7,224,52.7,224,51.6z"/>
		<path d="M270.4,84.4c0-2.3,0.4-3.7,1.3-4.3c0.4-0.3,0.9-0.6,1.4-0.6c0.2,0,0.4,0,0.8,0.1c0-1.1,0-2.8-0.1-5.1s-0.1-4.1-0.1-5.3
			c-0.1,0-0.3,0-0.6,0.1c-0.3,0.1-0.5,0.1-0.6,0.1s-0.3,0-0.6-0.1c-0.3-0.1-0.5-0.1-0.6-0.1c-0.1-0.1-0.2-0.5-0.2-1.1
			c0-1,0.1-2.2,0.4-3.7c0.3-1.5,0.5-2.4,0.8-2.8c0.4-0.2,1.2-0.4,2.4-0.7c1.2-0.2,2.4-0.3,3.7-0.3c1.6,0,2.9,0.2,4,0.7
			c0.2,0.2,0.4,0.8,0.4,1.3c0,0.1-0.1,0.8-0.3,1.9c3.5-3,6.8-4.4,9.8-4.4c3.2,0,5.6,1.4,7.2,4.4c3.9-2.9,7.4-4.4,10.5-4.4
			c2.5,0,4.6,1,6.2,3.1c1.6,2.1,2.4,5.2,2.4,9.4c0,0.6-0.1,2.5-0.4,5.9c0-0.1,0.2-0.1,0.5-0.1c0.5,0,1.2,0.1,2.4,0.2
			c0.3,0.3,0.4,1.5,0.4,3.6c0,2.5-0.2,4.2-0.5,4.7c-2.5,0.8-4.8,1.1-6.8,1.1c-2.3,0-4.3-0.3-6-1c-0.2-0.2-0.5-0.9-0.8-2
			s-0.4-2.1-0.4-3c0-1.2,0.3-2.3,0.9-3.2c0.4-0.2,0.8-0.4,1.4-0.4c0.2,0,0.3,0,0.4,0.1c0.1,0,0.1,0.1,0.2,0.1
			c0.1,0.1,0.2,0.1,0.3,0.1c0.2-1.1,0.3-2.1,0.3-3c0-2.1-0.4-3.7-1.3-4.8s-2-1.7-3.3-1.7c-1,0-1.9,0.3-2.7,1c-0.9,0.7-1.5,1.5-2,2.6
			c-0.1,2.6-0.2,4.5-0.3,5.4c0-0.1,0.1-0.1,0.4-0.1c0.5,0,1.2,0.1,2.4,0.2c0.3,0.3,0.5,1.5,0.5,3.6c0,2.5-0.2,4.2-0.5,4.7
			c-2.5,0.8-4.8,1.1-6.9,1.1c-2.3,0-4.3-0.3-6-1c-0.2-0.2-0.5-0.9-0.8-2c-0.3-1.1-0.4-2.1-0.4-3c0-1.2,0.3-2.3,0.9-3.2
			c0.4-0.2,0.8-0.4,1.4-0.4c0.2,0,0.3,0,0.4,0.1c0.1,0,0.1,0.1,0.2,0.1c0.1,0.1,0.2,0.1,0.3,0.1c0.1-0.9,0.2-1.5,0.2-2.1
			c0-2.4-0.4-4.3-1.3-5.5s-2-1.9-3.3-1.9c-1.4,0-2.5,0.7-3.6,1.9s-1.5,3-1.5,5.2c0,1,0.1,2,0.3,3c0.4-0.2,0.9-0.4,1.5-0.4
			s1,0.1,1.1,0.3c0.3,0,0.5,0.8,0.5,2.2c0,0.3-0.2,1.9-0.5,4.6c-2.4,1.2-5.4,1.9-9,1.9c-3.1,0-5.1-0.6-5.9-1.5
			C270.6,86.2,270.4,85.5,270.4,84.4z"/>
		<path d="M322.9,76c0-1.8,0.3-3.5,0.9-5.3s1.5-3.5,2.7-5.1c1.2-1.7,2.8-2.9,4.8-4c2-1,4.3-1.5,6.8-1.5c2.8,0,4.9,0.7,6.5,1.9
			c1.5,1.2,2.3,3,2.3,5.3c0,3.1-1.3,5.6-3.9,7.5c-2.6,2-5.5,2.9-8.7,2.9c-0.9,0-1.8-0.1-2.6-0.2c0.1,2.6,2.1,4,6.1,4
			c0.7,0,1.3,0,1.8-0.1c0-0.3,0-0.6,0.1-0.9c1.5-1.3,3-1.9,4.8-1.9c0.3,0,0.6,0,0.8,0c2.2,1.3,3.5,3.4,4,6.5c0,0.3-0.2,0.5-0.4,0.9
			c-0.2,0.3-0.4,0.7-0.7,0.9c-0.2,0.2-0.6,0.6-1,0.8c-0.4,0.3-0.8,0.6-1,0.7c-0.2,0.1-0.6,0.3-1.1,0.7c-0.5,0.3-0.8,0.4-0.8,0.4
			c-0.2,0-0.4,0-0.5-0.1c-0.1,0-0.3-0.1-0.4-0.2c-0.1-0.1-0.2-0.2-0.2-0.2s-0.1-0.2-0.2-0.4c-0.1-0.2-0.2-0.3-0.2-0.4
			c-1.9,0.8-3.8,1.2-5.8,1.2c-4.5,0-7.9-1.3-10.4-3.8C324.2,82.7,322.9,79.6,322.9,76z M332.7,70.3c0,1.2,0.8,1.8,2.4,1.8
			c1.2,0,2.4-0.3,3.5-0.9c1.1-0.7,1.6-1.4,1.6-2.3c0-0.7-0.2-1.3-0.6-2s-1-1-1.8-1c-1,0-2.1,0.4-3.3,1.3
			C333.3,68.2,332.7,69.2,332.7,70.3z"/>
		<path d="M359.5,61.9c0-0.8,0.1-1.2,0.2-1.4c0.9-0.1,1.6-0.2,2.1-0.2c0.1,0,0.3,0,0.5,0s0.4,0,0.5,0h0.2V49.9
			c2.6-0.2,4.1-0.3,4.7-0.3c1.2,0,2.8,0.1,4.6,0.3v10.4c2.9,0.1,4.7,0.3,5.4,0.8c0.5,0.7,0.7,2.3,0.7,5.2c0,0.8-0.1,1.2-0.2,1.4
			c-1,0.1-1.7,0.2-2.3,0.2h-0.4c-0.2,0-0.7,0-1.3,0c-0.6,0-1.3,0-2.2,0c0,0.2,0,1.5,0,4s0,3.8,0,4.1c0,1.7,0.3,2.8,0.8,3.4
			c0.5,0.7,1.4,1,2.5,1c0.4,0,0.6,0,0.7-0.1c0.1-0.1,0.2-0.3,0.2-0.7c0-0.2,0.4-0.4,1.3-0.7l3.3-0.9c0.3,1.1,0.5,2.3,0.5,3.7
			c0,2.8-0.2,4.5-0.7,5.2c-0.1,0.1-0.4,0.2-0.8,0.4s-0.7,0.4-0.8,0.4c-0.1,0-0.4,0.1-0.7,0.3c-0.4,0.1-0.7,0.2-0.9,0.3
			c-0.3,0-0.6,0.1-1.1,0.2s-1,0.1-1.6,0.1s-1.2,0-2,0c-1.4,0-2.6-0.1-3.5-0.2c-0.9-0.1-1.8-0.5-2.6-1c-0.8-0.6-1.5-1.2-1.9-2.2
			c-0.5-0.9-0.9-2.2-1.2-3.7S363,78.2,363,76c0-2.2,0-4.9,0-8.1c-1.5-0.2-2.5-0.4-3-0.8C359.8,66.4,359.5,64.7,359.5,61.9z"/>
		<path d="M383,77.2c0-2.6,0.6-5.3,1.9-7.9c1.3-2.5,3.1-4.7,5.4-6.5c2.4-1.8,4.9-2.6,7.7-2.6c3.4,0,5.9,1.2,7.5,3.7
			c1.6,2.5,2.4,5.7,2.4,9.5c0,5.1-1.2,8.8-3.7,11.4s-5.7,3.8-9.7,3.8c-3.7,0-6.6-1.1-8.6-3.3C384,83.3,383,80.5,383,77.2z
			 M392.7,75.7c0,1.1,0.3,2.1,0.9,2.9c0.6,0.9,1.5,1.2,2.5,1.2c1.3,0,2.6-0.7,3.7-2s1.7-2.8,1.7-4.5c0-1.2-0.3-2.2-1-3.1
			c-0.7-0.8-1.5-1.2-2.6-1.2c-1.5,0-2.7,0.7-3.8,2.1C393.2,72.7,392.7,74.1,392.7,75.7z"/>
		<path d="M420,83.7c0-1.8,0.3-2.9,1-3.1c0.3-0.2,0.9-0.3,1.8-0.6c0.6-0.1,1-0.2,1.2-0.2c-0.4-4.3-0.6-6.9-0.6-8.1
			c0-2.5,0.2-4.3,0.5-5.1c-1,0-1.7-0.1-2.2-0.2c-0.3-0.8-0.4-1.4-0.4-2.1c0-1.1,0.5-2.4,1.4-4c1.2-0.2,3.5-0.3,6.9-0.3
			c1.2,0,2.3,0.1,3.4,0.2s2,0.3,2.6,0.5s0.9,0.4,0.9,0.6c0.3,0.4,0.4,1.1,0.4,2.1c0,2-0.3,3.3-0.9,4c-0.1,0.1-0.6,0.2-1.3,0.2
			s-1.3-0.1-1.7-0.2c-0.4,2.5-0.5,5.9-0.5,9.9c0,1.8,0,2.6,0.1,2.8c0.2,0,0.5,0,0.8,0c0.8,0,1.6,0.2,2.3,0.6
			c0.1,0.2,0.2,0.7,0.2,1.3c0,0.9-0.1,2-0.4,3.2s-0.5,2.1-0.8,2.5c-0.5,0.3-2.3,0.5-5.2,0.5c-4.9,0-7.7-0.5-8.5-1.5
			C420.3,86.2,420,85.3,420,83.7z M425,49.4c0-1,0.5-1.5,1.5-1.5c0.8,0,1.7,0.2,2.7,0.9c0.7-0.8,1.6-1.1,2.8-1.1
			c0.7,0,1.3,0.2,1.9,0.9c0.5,0.5,0.8,1.3,0.8,2.2c0,0.4-0.1,1-0.3,1.3c-0.2,0.4-0.4,0.8-0.6,1.1c-0.2,0.3-0.5,0.7-1,1
			c-0.5,0.4-0.8,0.7-1.1,0.9c-0.2,0.1-0.7,0.4-1.3,0.9c-0.6,0.4-1,0.7-1.2,0.8c-1.3-1.1-2.4-2.3-3.1-3.6
			C425.4,51.6,425,50.4,425,49.4z"/>
		<path d="M439.2,84c0-2.2,0.5-3.5,1.4-4.1c0.4-0.3,0.9-0.5,1.4-0.5c0.2,0,0.4,0,0.8,0.1c0-1.1,0-2.8-0.1-5.1s-0.1-4.1-0.1-5.3
			c-0.1,0-0.3,0-0.6,0.1c-0.3,0.1-0.5,0.1-0.6,0.1s-0.3,0-0.6-0.1c-0.3-0.1-0.5-0.1-0.6-0.1c-0.1-0.1-0.2-0.6-0.2-1.1
			c0-1,0.1-2.2,0.4-3.7s0.5-2.4,0.8-2.8c0.3-0.2,1.1-0.4,2.4-0.7c1.3-0.2,2.5-0.3,3.8-0.3c1.7,0,3,0.2,4.1,0.7
			c0.2,0.2,0.3,0.7,0.3,1.3c0,0.2-0.1,0.9-0.2,2c3.6-3,6.9-4.4,9.9-4.4c2.6,0,4.8,1,6.4,3.1c1.6,2.1,2.4,5.2,2.4,9.3
			c0,0.7-0.1,2.6-0.4,5.9c0-0.1,0.1-0.1,0.5-0.1c0.5,0,1.3,0.1,2.4,0.2c0.3,0.3,0.4,1.5,0.4,3.6c0,2.5-0.2,4.2-0.5,4.7
			c-2.5,0.8-4.8,1.1-6.9,1.1c-2.3,0-4.3-0.3-6-1c-0.2-0.2-0.5-0.9-0.8-2s-0.4-2.1-0.4-3c0-1.2,0.3-2.3,0.9-3.2
			c0.4-0.2,0.8-0.4,1.4-0.4c0.2,0,0.3,0,0.3,0.1c0.1,0,0.1,0.1,0.2,0.1s0.2,0.1,0.3,0.1c0.2-1.1,0.3-2.1,0.3-3
			c0-2.1-0.5-3.7-1.4-4.8s-2.1-1.7-3.4-1.7c-1.4,0-2.6,0.7-3.6,2c-1,1.3-1.5,3.1-1.5,5.3c0,0.9,0.1,1.9,0.3,2.9
			c0.4-0.2,0.8-0.4,1.4-0.4c0.5,0,0.9,0.1,1,0.3c0.3,0,0.5,0.8,0.5,2.2c0,0.3-0.2,1.9-0.5,4.6c-2.4,1.2-5.3,1.9-8.5,1.9
			c-3.7,0-5.8-0.6-6.5-1.5C439.4,86.2,439.2,85.4,439.2,84z"/>
		<path d="M474.5,86.4c0-1.1,0.2-2.1,0.5-3.1c0.3-1,0.8-2,1.5-2.9c0.7-0.9,1.6-1.3,2.6-1.3c0.8,0,1.7,0.2,2.7,0.5s1.5,0.9,1.5,1.4
			c0,0.1,0,0.3-0.1,0.5c1.2,0.4,2,0.6,2.5,0.6c0.8,0,1.4-0.3,2-0.9s0.9-1.2,0.9-2.1s-0.3-1.5-0.9-2s-1.4-0.7-2.4-0.7s-2-0.1-3.1-0.3
			s-2.1-0.4-3-0.8c-1-0.3-1.7-1-2.4-2c-0.6-1-0.9-2.4-0.9-4.1c0-2.3,0.6-4.2,1.7-5.7c1.1-1.5,2.5-2.5,4-3c1.5-0.6,3.3-0.8,5.2-0.8
			c1.5,0,3.1,0.2,4.9,0.5c0.3-0.7,0.7-1.1,1.1-1.2c2.5,0.2,4.1,1.2,4.9,2.9c-0.1,1.1-0.2,2.1-0.5,3.1c-0.2,1-0.7,2-1.4,2.9
			c-0.7,0.9-1.6,1.4-2.6,1.4c-0.8,0-1.7-0.2-2.7-0.6c-1-0.3-1.5-0.9-1.5-1.5c0-0.1,0-0.3,0.1-0.7c-0.8-0.2-1.4-0.4-1.9-0.4
			c-0.8,0-1.5,0.3-2,0.9c-0.6,0.5-0.9,1.2-0.9,1.9c0,0.9,0.5,1.5,1.4,1.9c1,0.4,2.1,0.7,3.5,0.8c1.4,0.1,2.7,0.3,4.1,0.7
			s2.5,1,3.5,2c1,1.1,1.4,2.5,1.4,4.4c0,3.2-1.2,5.6-3.7,7.3s-5.4,2.4-8.8,2.4c-1.6,0-3.3-0.1-5.1-0.6c-0.3,0.7-0.7,1.1-1.1,1.2
			C476.9,89.1,475.3,88.1,474.5,86.4z"/>
		<path d="M499.4,61.9c0-0.8,0.1-1.2,0.2-1.4c0.9-0.1,1.6-0.2,2.1-0.2c0.1,0,0.3,0,0.5,0s0.4,0,0.5,0h0.2V49.9
			c2.6-0.2,4.1-0.3,4.7-0.3c1.2,0,2.8,0.1,4.6,0.3v10.4c2.9,0.1,4.7,0.3,5.4,0.8c0.5,0.7,0.7,2.3,0.7,5.2c0,0.8-0.1,1.2-0.2,1.4
			c-1,0.1-1.7,0.2-2.3,0.2h-0.4c-0.2,0-0.7,0-1.3,0s-1.3,0-2.2,0c0,0.2,0,1.5,0,4s0,3.8,0,4.1c0,1.7,0.3,2.8,0.8,3.4
			c0.5,0.7,1.4,1,2.5,1c0.4,0,0.6,0,0.7-0.1c0.1-0.1,0.2-0.3,0.2-0.7c0-0.2,0.4-0.4,1.3-0.7l3.3-0.9c0.3,1.1,0.5,2.3,0.5,3.7
			c0,2.8-0.2,4.5-0.7,5.2c-0.1,0.1-0.4,0.2-0.8,0.4c-0.4,0.2-0.7,0.4-0.8,0.4s-0.4,0.1-0.7,0.3c-0.4,0.1-0.7,0.2-0.9,0.3
			c-0.3,0-0.6,0.1-1.1,0.2s-1,0.1-1.6,0.1s-1.2,0-2,0c-1.4,0-2.6-0.1-3.5-0.2c-0.9-0.1-1.8-0.5-2.6-1c-0.8-0.6-1.5-1.2-1.9-2.2
			c-0.5-0.9-0.9-2.2-1.2-3.7s-0.5-3.5-0.5-5.7c0-2.2,0-4.9,0-8.1c-1.5-0.2-2.5-0.4-3-0.8C499.7,66.4,499.4,64.7,499.4,61.9z"/>
		<path d="M523,76.6c0-2.6,0.4-5.2,1.1-7.6c0.7-2.4,1.9-4.5,3.5-6.2c1.6-1.8,3.5-2.5,5.7-2.5c0.9,0,1.7,0.1,2.4,0.4
			c0.7,0.3,1.3,0.7,1.7,1.1s0.8,0.9,1,1.3c0.3,0.4,0.5,0.8,0.6,1.1l0.2,0.4c0-1.2,0-2.2,0-2.9c1.1-1,3.1-1.5,5.9-1.5
			c1,0,1.9,0,2.7,0.1c0.8,0.1,1.4,0.2,1.8,0.3c0.4,0.1,0.7,0.2,1,0.3c0.2,0.1,0.4,0.2,0.5,0.2h0.1c0.1,0.3,0.2,1.3,0.2,3.1
			c0,1.8-0.1,2.9-0.2,3.2c-0.5,0.7-1.3,1-2.5,1c-0.3,0-0.7,0-1.1-0.1c0.1,0.2,0.2,1.1,0.2,2.5c0,4.6-0.2,7.3-0.5,7.7
			c0.2-0.1,0.5-0.2,0.8-0.2c0.4,0,1.3,0.2,2.7,0.7c0.3,0.2,0.4,1.9,0.4,4.9c0,1.5,0,2.6-0.1,3.1c-0.2,0.4-0.9,0.8-2.2,1.1
			c-1.3,0.3-2.6,0.5-4.1,0.5c-4,0-6.3-0.1-6.7-0.2c-0.2-0.7-0.4-1.3-0.4-1.8c0-0.3,0.1-0.5,0.1-0.7c-0.5,0.2-1.6,0.8-3.2,1.7
			c-1.7,0.9-2.9,1.4-3.7,1.4c-2.6,0-4.5-1.2-5.8-3.6C523.7,83.1,523,80.1,523,76.6z M529.7,75.6c0,1.3,0.3,2.3,0.9,3.3
			c0.6,0.9,1.5,1.3,2.5,1.3c1.4,0,2.6-0.7,3.8-2.1c1.2-1.3,1.7-3,1.7-4.7c0-1.2-0.3-2.2-1-3.1c-0.6-0.8-1.5-1.2-2.6-1.2
			c-1,0-1.9,0.3-2.8,1.1c-0.9,0.7-1.5,1.7-2,2.9C529.9,73.8,529.7,74.7,529.7,75.6z"/>
		<path d="M554,83.5c0-1.8,0.1-2.8,0.3-3c0.3-0.2,0.9-0.3,1.8-0.6c0.6-0.1,1-0.2,1.2-0.2c-0.4-2.1-0.6-5.7-0.6-10.8
			c0-5.9,0.2-11.1,0.5-15.6c-1,0-1.7-0.1-2.3-0.2c-0.1-0.8-0.1-1.3-0.1-1.8c0-1.6,0.4-3,1.1-4.2c1.5-0.3,3.4-0.6,5.8-0.6
			c1.8,0,3.2,0.2,4.2,0.6c0.4,3.4,0.6,7,0.6,10.9c0,2.8-0.1,6.6-0.4,11.6c-0.3,4.9-0.4,8.5-0.4,10.3c0.2,0,0.5,0,0.9,0
			c0.9,0,1.7,0.2,2.4,0.6c0.1,0.1,0.2,0.4,0.2,1c0,0.8-0.1,1.9-0.4,3.4c-0.3,1.5-0.5,2.4-0.7,2.8c-0.5,0.3-2.4,0.5-5.5,0.5
			c-4.6,0-7.4-0.5-8.1-1.5C554.1,86.5,554,85.5,554,83.5z"/>
		<path d="M570.9,83.5c0-1.8,0.1-2.8,0.3-3c0.3-0.2,0.9-0.3,1.8-0.6c0.6-0.1,1-0.2,1.2-0.2c-0.4-2.1-0.6-5.7-0.6-10.8
			c0-5.9,0.2-11.1,0.5-15.6c-1,0-1.7-0.1-2.3-0.2c-0.1-0.8-0.1-1.3-0.1-1.8c0-1.6,0.4-3,1.1-4.2c1.5-0.3,3.4-0.6,5.8-0.6
			c1.8,0,3.2,0.2,4.2,0.6c0.4,3.4,0.6,7,0.6,10.9c0,2.8-0.1,6.6-0.4,11.6c-0.2,4.9-0.4,8.5-0.4,10.3c0.2,0,0.5,0,0.9,0
			c0.9,0,1.7,0.2,2.4,0.6c0.1,0.1,0.2,0.4,0.2,1c0,0.8-0.1,1.9-0.4,3.4c-0.3,1.5-0.5,2.4-0.7,2.8c-0.5,0.3-2.4,0.5-5.5,0.5
			c-4.6,0-7.4-0.5-8.1-1.5C571,86.5,570.9,85.5,570.9,83.5z"/>
		<path d="M598.4,83.6c0-1.4,0.2-2.5,0.7-3.1c0.9-0.4,1.8-0.7,2.9-0.7c-0.4-3.6-0.6-7.4-0.6-11c0-3.5,0.2-7,0.6-10.6
			c-0.2,0-0.5-0.1-1.1-0.2c-0.9-0.1-1.5-0.3-1.8-0.4c-0.2-0.3-0.4-1.3-0.4-3.1s0.1-2.8,0.4-3.1c0.2-0.4,1-0.8,2.4-1.1
			c1.4-0.2,2.8-0.4,4.1-0.4c1.4,0,2.9,0.1,4.5,0.4s2.5,0.7,2.8,0.9c0.5,1.3,0.7,2.9,0.7,4.8c0,0.7-0.1,1.1-0.2,1.4
			c-0.6,0.3-1.1,0.5-1.5,0.5c1.3,1.7,2.8,3.7,4.6,6.2c1.8-2.3,3.4-4.4,4.8-6.2c-0.8-0.1-1.4-0.3-1.7-0.4c-0.3-0.3-0.4-1.3-0.4-3.1
			s0.1-2.8,0.4-3.1c0.3-0.4,1.2-0.8,2.6-1.1c1.4-0.3,3.1-0.4,5-0.4c3.9,0,6.5,0.4,7.7,1.5c0.4,0.4,0.5,1.3,0.5,2.6
			c0,1.7-0.2,2.9-0.5,3.4c-0.7,0.4-1.5,0.5-2.4,0.5c-0.4,0-0.7,0-0.9,0c0.4,3,0.6,6.2,0.6,9.7c0,2.9-0.2,7-0.6,12.4
			c0.2,0,0.5,0,0.9,0c0.9,0,1.7,0.2,2.4,0.5c0.2,0.4,0.2,1.1,0.2,2c0,1.2-0.1,2.3-0.4,3.4s-0.5,1.7-0.9,1.8
			c-0.7,0.3-2.5,0.6-5.3,0.6c-4.4,0-7.3-0.6-8.6-1.5c-0.5-0.6-0.7-1.5-0.7-3.1c0-1.5,0.1-2.5,0.4-3.1c0.4-0.2,1.1-0.3,2.1-0.5
			c0.7-0.1,1.2-0.2,1.4-0.2c-0.4-3.6-0.6-7.5-0.6-11.4c-2.1,3-4.1,4.5-5.9,4.5c-1.7,0-3.4-1.4-5.4-4.4c-0.1,3.4-0.3,7.3-0.6,11.7
			c0.2,0,0.5,0,0.8,0c0.7,0,1.4,0.2,2,0.6c0.7,0.8,1,1.9,1,3.5c0,1.2-0.2,2.2-0.7,2.8c-1.2,1-3.7,1.4-7.3,1.4
			c-4.2,0-6.6-0.5-7.2-1.5C598.7,86.4,598.4,85.4,598.4,83.6z"/>
		<path d="M637.6,76c0-1.8,0.3-3.5,0.9-5.3c0.6-1.8,1.5-3.5,2.7-5.1c1.2-1.7,2.8-2.9,4.8-4c2-1,4.3-1.5,6.8-1.5
			c2.8,0,4.9,0.7,6.5,1.9c1.5,1.2,2.3,3,2.3,5.3c0,3.1-1.3,5.6-3.9,7.5c-2.6,1.9-5.5,2.9-8.7,2.9c-0.9,0-1.8-0.1-2.6-0.2
			c0.1,2.6,2.1,4,6.1,4c0.7,0,1.3,0,1.8-0.1c0-0.3,0-0.6,0.2-0.9c1.5-1.3,3-1.9,4.8-1.9c0.3,0,0.6,0,0.8,0c2.2,1.3,3.5,3.4,4,6.5
			c0,0.3-0.2,0.5-0.4,0.9c-0.2,0.3-0.4,0.7-0.7,0.9c-0.2,0.2-0.6,0.6-1,0.8c-0.4,0.3-0.8,0.6-1,0.7c-0.2,0.1-0.6,0.3-1.1,0.7
			c-0.5,0.3-0.8,0.4-0.8,0.4c-0.2,0-0.4,0-0.5-0.1c-0.1,0-0.3-0.1-0.4-0.2c-0.1-0.1-0.2-0.2-0.2-0.2s-0.1-0.2-0.2-0.4
			c-0.1-0.2-0.2-0.3-0.2-0.4c-1.9,0.8-3.8,1.2-5.8,1.2c-4.5,0-7.9-1.3-10.4-3.8C638.8,82.7,637.6,79.6,637.6,76z M647.3,70.3
			c0,1.2,0.8,1.8,2.4,1.8c1.2,0,2.3-0.3,3.5-0.9c1.1-0.7,1.6-1.4,1.6-2.3c0-0.7-0.2-1.3-0.6-2c-0.4-0.7-1-1-1.8-1
			c-1,0-2.1,0.4-3.3,1.3C647.9,68.2,647.3,69.2,647.3,70.3z"/>
		<path d="M664.4,61.9c0-0.8,0.1-1.2,0.2-1.4c0.9-0.1,1.6-0.2,2.1-0.2c0.1,0,0.3,0,0.5,0s0.4,0,0.5,0h0.2V49.9
			c2.6-0.2,4.1-0.3,4.7-0.3c1.2,0,2.8,0.1,4.6,0.3v10.4c2.9,0.1,4.7,0.3,5.4,0.8c0.5,0.7,0.7,2.3,0.7,5.2c0,0.8-0.1,1.2-0.2,1.4
			c-1,0.1-1.7,0.2-2.3,0.2h-0.4c-0.2,0-0.7,0-1.3,0s-1.3,0-2.2,0c0,0.2,0,1.5,0,4s0,3.8,0,4.1c0,1.7,0.3,2.8,0.8,3.4
			c0.5,0.7,1.4,1,2.5,1c0.4,0,0.6,0,0.7-0.1c0.1-0.1,0.2-0.3,0.2-0.7c0-0.2,0.4-0.4,1.3-0.7l3.3-0.9c0.3,1.1,0.5,2.3,0.5,3.7
			c0,2.8-0.2,4.5-0.7,5.2c-0.1,0.1-0.4,0.2-0.8,0.4c-0.4,0.2-0.7,0.4-0.8,0.4s-0.4,0.1-0.7,0.3c-0.3,0.1-0.7,0.2-0.9,0.3
			c-0.2,0.1-0.6,0.1-1.1,0.2s-1,0.1-1.6,0.1s-1.2,0-2,0c-1.4,0-2.6-0.1-3.5-0.2c-0.9-0.1-1.8-0.5-2.6-1c-0.8-0.6-1.5-1.2-1.9-2.2
			c-0.5-0.9-0.9-2.2-1.2-3.7s-0.5-3.5-0.5-5.7c0-2.2,0-4.9,0-8.1c-1.5-0.2-2.5-0.4-3-0.8C664.7,66.4,664.4,64.7,664.4,61.9z"/>
		<path d="M688,76.6c0-2.6,0.4-5.2,1.1-7.6c0.7-2.4,1.9-4.5,3.5-6.2c1.6-1.8,3.5-2.5,5.7-2.5c0.9,0,1.7,0.1,2.4,0.4
			c0.7,0.3,1.3,0.7,1.7,1.1s0.8,0.9,1,1.3c0.3,0.4,0.5,0.8,0.6,1.1l0.2,0.4c0-1.2,0-2.2,0-2.9c1.1-1,3.1-1.5,5.9-1.5
			c1,0,1.9,0,2.7,0.1c0.8,0.1,1.4,0.2,1.8,0.3c0.4,0.1,0.7,0.2,1,0.3c0.2,0.1,0.4,0.2,0.5,0.2h0.1c0.1,0.3,0.2,1.3,0.2,3.1
			c0,1.8-0.1,2.9-0.2,3.2c-0.5,0.7-1.3,1-2.5,1c-0.3,0-0.7,0-1.1-0.1c0.1,0.2,0.2,1.1,0.2,2.5c0,4.6-0.2,7.3-0.5,7.7
			c0.2-0.1,0.5-0.2,0.8-0.2c0.4,0,1.3,0.2,2.7,0.7c0.3,0.2,0.4,1.9,0.4,4.9c0,1.5-0.1,2.6-0.1,3.1c-0.2,0.4-0.9,0.8-2.2,1.1
			c-1.3,0.3-2.6,0.5-4.1,0.5c-4,0-6.3-0.1-6.7-0.2c-0.2-0.7-0.3-1.3-0.3-1.8c0-0.3,0-0.5,0.1-0.7c-0.5,0.2-1.6,0.8-3.2,1.7
			c-1.7,0.9-2.9,1.4-3.7,1.4c-2.6,0-4.5-1.2-5.8-3.6C688.7,83.1,688,80.1,688,76.6z M694.7,75.6c0,1.3,0.3,2.3,1,3.3
			c0.6,0.9,1.5,1.3,2.5,1.3c1.4,0,2.6-0.7,3.8-2.1c1.2-1.3,1.7-3,1.7-4.7c0-1.2-0.3-2.2-1-3.1c-0.6-0.8-1.5-1.2-2.6-1.2
			c-1,0-1.9,0.3-2.8,1.1c-0.9,0.7-1.5,1.7-2,2.9C694.9,73.8,694.7,74.7,694.7,75.6z"/>
		<path d="M719.4,84.4c0-2.3,0.5-3.7,1.3-4.3c0.4-0.3,0.9-0.6,1.4-0.6c0.2,0,0.4,0,0.8,0.1c0-1.1,0-2.8-0.1-5.1s-0.1-4.1-0.1-5.3
			c-0.1,0-0.3,0-0.6,0.1s-0.5,0.1-0.6,0.1s-0.3,0-0.6-0.1s-0.5-0.1-0.6-0.1c-0.1-0.1-0.2-0.5-0.2-1.1c0-1,0.1-2.2,0.4-3.7
			c0.3-1.5,0.5-2.4,0.8-2.8c0.4-0.2,1.2-0.4,2.4-0.7c1.2-0.2,2.4-0.3,3.7-0.3c1.6,0,2.9,0.2,4,0.7c0.2,0.2,0.4,0.8,0.4,1.3
			c0,0.1-0.1,0.8-0.3,1.9c3.5-3,6.8-4.4,9.8-4.4c3.2,0,5.6,1.4,7.2,4.4c3.9-2.9,7.4-4.4,10.5-4.4c2.5,0,4.6,1,6.2,3.1
			c1.6,2.1,2.4,5.2,2.4,9.4c0,0.6-0.1,2.5-0.4,5.9c0-0.1,0.2-0.1,0.5-0.1c0.5,0,1.2,0.1,2.3,0.2c0.3,0.3,0.5,1.5,0.5,3.6
			c0,2.5-0.2,4.2-0.5,4.7c-2.5,0.8-4.8,1.1-6.8,1.1c-2.3,0-4.3-0.3-6-1c-0.2-0.2-0.5-0.9-0.8-2s-0.4-2.1-0.4-3
			c0-1.2,0.3-2.3,0.9-3.2c0.4-0.2,0.8-0.4,1.4-0.4c0.2,0,0.3,0,0.4,0.1c0.1,0,0.1,0.1,0.2,0.1c0.1,0.1,0.2,0.1,0.3,0.1
			c0.2-1.1,0.3-2.1,0.3-3c0-2.1-0.4-3.7-1.3-4.8c-0.9-1.1-2-1.7-3.3-1.7c-1,0-1.9,0.3-2.7,1c-0.9,0.7-1.5,1.5-2,2.6
			c-0.1,2.6-0.2,4.5-0.3,5.4c0-0.1,0.2-0.1,0.5-0.1c0.5,0,1.2,0.1,2.4,0.2c0.3,0.3,0.4,1.5,0.4,3.6c0,2.5-0.2,4.2-0.5,4.7
			c-2.5,0.8-4.8,1.1-6.8,1.1c-2.3,0-4.3-0.3-6-1c-0.2-0.2-0.5-0.9-0.8-2c-0.3-1.1-0.4-2.1-0.4-3c0-1.2,0.3-2.3,0.9-3.2
			c0.4-0.2,0.8-0.4,1.4-0.4c0.2,0,0.3,0,0.3,0.1c0.1,0,0.1,0.1,0.2,0.1c0.1,0.1,0.2,0.1,0.3,0.1c0.1-0.9,0.2-1.5,0.2-2.1
			c0-2.4-0.4-4.3-1.3-5.5c-0.9-1.2-2-1.9-3.3-1.9c-1.4,0-2.5,0.7-3.6,1.9s-1.5,3-1.5,5.2c0,1,0.1,2,0.3,3c0.4-0.2,0.9-0.4,1.5-0.4
			s1,0.1,1.1,0.3c0.3,0,0.5,0.8,0.5,2.2c0,0.3-0.2,1.9-0.5,4.6c-2.4,1.2-5.4,1.9-9,1.9c-3.1,0-5.1-0.6-5.9-1.5
			C719.5,86.2,719.4,85.5,719.4,84.4z"/>
		<path d="M772,76.6c0-2.6,0.4-5.2,1.1-7.6c0.7-2.4,1.9-4.5,3.5-6.2c1.6-1.8,3.5-2.5,5.7-2.5c0.9,0,1.7,0.1,2.4,0.4
			c0.7,0.3,1.3,0.7,1.7,1.1s0.8,0.9,1,1.3c0.3,0.4,0.5,0.8,0.6,1.1l0.2,0.4c0-1.2,0-2.2,0-2.9c1.1-1,3.1-1.5,5.9-1.5
			c1,0,1.9,0,2.7,0.1c0.8,0.1,1.4,0.2,1.8,0.3c0.4,0.1,0.7,0.2,1,0.3c0.2,0.1,0.4,0.2,0.5,0.2h0.1c0.1,0.3,0.2,1.3,0.2,3.1
			c0,1.8-0.1,2.9-0.2,3.2c-0.5,0.7-1.3,1-2.5,1c-0.3,0-0.7,0-1.1-0.1c0.1,0.2,0.2,1.1,0.2,2.5c0,4.6-0.2,7.3-0.5,7.7
			c0.2-0.1,0.5-0.2,0.8-0.2c0.4,0,1.3,0.2,2.7,0.7c0.3,0.2,0.4,1.9,0.4,4.9c0,1.5-0.1,2.6-0.1,3.1c-0.2,0.4-0.9,0.8-2.2,1.1
			c-1.3,0.3-2.6,0.5-4.1,0.5c-4,0-6.3-0.1-6.7-0.2c-0.2-0.7-0.3-1.3-0.3-1.8c0-0.3,0-0.5,0.1-0.7c-0.5,0.2-1.6,0.8-3.2,1.7
			c-1.7,0.9-2.9,1.4-3.7,1.4c-2.6,0-4.5-1.2-5.8-3.6C772.7,83.1,772,80.1,772,76.6z M778.7,75.6c0,1.3,0.3,2.3,1,3.3
			c0.6,0.9,1.5,1.3,2.5,1.3c1.4,0,2.6-0.7,3.8-2.1c1.2-1.3,1.7-3,1.7-4.7c0-1.2-0.3-2.2-1-3.1c-0.6-0.8-1.5-1.2-2.6-1.2
			c-1,0-1.9,0.3-2.8,1.1c-0.9,0.7-1.5,1.7-2,2.9C778.9,73.8,778.7,74.7,778.7,75.6z"/>
		<path d="M802.7,86.4c0-1.1,0.2-2.1,0.5-3.1c0.3-1,0.8-2,1.5-2.9s1.6-1.3,2.6-1.3c0.8,0,1.7,0.2,2.7,0.5s1.5,0.9,1.5,1.4
			c0,0.1,0,0.3-0.1,0.5c1.2,0.4,2,0.6,2.4,0.6c0.8,0,1.4-0.3,2-0.9s0.9-1.2,0.9-2.1s-0.3-1.5-0.9-2c-0.6-0.4-1.4-0.7-2.4-0.7
			c-0.9,0-2-0.1-3-0.3c-1-0.2-2.1-0.4-3-0.8c-1-0.3-1.7-1-2.3-2c-0.6-1-0.9-2.4-0.9-4.1c0-2.3,0.6-4.2,1.7-5.7c1.1-1.5,2.5-2.5,4-3
			c1.5-0.4,3.3-0.8,5.2-0.8c1.5,0,3.1,0.2,4.9,0.5c0.3-0.7,0.7-1.1,1.1-1.2c2.5,0.2,4.1,1.2,4.9,2.9c-0.1,1.1-0.2,2.1-0.5,3.1
			c-0.2,1-0.7,2-1.5,2.9c-0.7,0.9-1.6,1.4-2.6,1.4c-0.8,0-1.7-0.2-2.7-0.6c-1-0.3-1.5-0.9-1.5-1.5c0-0.1,0-0.3,0.1-0.7
			c-0.8-0.2-1.4-0.4-1.9-0.4c-0.8,0-1.5,0.3-2,0.9c-0.6,0.5-0.9,1.2-0.9,1.9c0,0.9,0.5,1.5,1.4,1.9c0.9,0.4,2.1,0.7,3.4,0.8
			c1.4,0.1,2.7,0.3,4.1,0.7c1.4,0.3,2.5,1,3.5,2c0.9,1.1,1.4,2.5,1.4,4.4c0,3.2-1.2,5.6-3.7,7.3s-5.4,2.4-8.8,2.4
			c-1.6,0-3.3-0.1-5.1-0.6c-0.3,0.7-0.7,1.1-1.1,1.2C805.2,89.1,803.5,88.1,802.7,86.4z"/>
		<path d="M827.5,51.6c0-1.9,0.4-3.1,1.2-3.6c1.4-0.8,3.4-1.1,6.1-1.1c3.4,0,5.7,0.3,6.8,1.1c0.7,0.3,1,1.4,1,3.4
			c0,1.7-0.2,2.8-0.5,3.1c-0.8,0.1-1.5,0.2-2,0.2c0,1.8,0.2,5.5,0.5,11.3c1.8-1.2,3.4-2.5,4.8-4c1.4-1.4,2.1-2.5,2.1-3.3
			c0-0.2-0.1-0.4-0.2-0.5c-0.2,0.2-0.7,0.4-1.3,0.4c-0.2,0-0.4,0-0.5-0.1c-0.3-0.3-0.5-1.1-0.5-2.3c0-0.5,0.1-0.9,0.3-1
			c1.2-0.4,2.8-0.5,4.6-0.5c3.8,0,6.6,0.4,8.6,1.2c0.1,0.3,0.2,0.8,0.2,1.3c0,1.6-0.4,2.6-1.2,3c-0.1,0-0.3,0-0.5,0
			c-0.9,0-1.5-0.1-1.8-0.4c0,0.2-0.3,0.8-0.9,1.5c-0.6,0.8-1.5,1.8-2.6,3.1c-1.2,1.2-2.4,2.4-3.7,3.5c3.2,1.4,5.9,3.6,8.2,6.5
			c2.2,2.9,3.3,4.9,3.3,6.2c0.3-0.1,0.6-0.2,1-0.2c0.3,0,0.7,0.1,1.3,0.3c0.6,0.3,0.9,1.4,0.9,3.2c0,1.6-0.3,2.9-0.8,3.7
			c-1.1,0.7-3.4,1-7,1c-2.2,0-4.1-0.2-5.5-0.9c-0.8-1.1-1.2-2.5-1.2-4.4c0-1.1,0.2-2,0.6-2.5c0.3-0.2,0.6-0.3,1-0.3
			c0.3,0,0.6,0.1,0.9,0.2c-0.4-1.3-0.9-2.4-1.7-3.4c-0.8-1-1.7-1.8-2.7-2.3c-1.1-0.5-1.9-1-2.6-1.3c-0.7-0.2-1.5-0.6-2.6-0.9
			c0,0.9,0,2.2,0,4c0,1.4,0,2.5,0,3.2c0.4-0.2,0.9-0.4,1.5-0.4s1,0.1,1.1,0.3c0.5,0.1,0.8,1.3,0.8,3.5c0,2.1-0.1,3.5-0.2,4.4
			c-1.8,0.5-5.1,0.8-10.1,0.8c-2.3,0-3.9-0.2-4.9-0.7c-0.8-1-1.1-2.5-1.1-4.7c0-1.5,0.3-2.5,0.8-2.8c0.5-0.3,1.3-0.5,2.4-0.5
			c0.3,0,0.5,0,0.7,0.1c-0.2-10.1-0.3-17.2-0.3-21.2c0-2.3,0-3.6,0.1-3.8c-0.6,0.3-1.2,0.4-1.7,0.4c-0.7,0-1.2-0.2-1.7-0.7
			C827.8,53.7,827.5,52.7,827.5,51.6z"/>
		<path d="M864.5,62c0-4.2,0.7-8,2.2-11.8c0.2,0,0.4-0.1,0.8-0.3c0.4-0.1,0.7-0.3,1-0.3c0.3-0.1,0.6-0.1,1-0.1
			c0.8,0,1.6,0.2,2.5,0.8c1.7,4.1,2.5,8.4,2.5,12.7c0,4.9-1.1,9.8-3.2,14.3c-0.5,0.6-1.1,0.8-1.8,0.8c-0.6,0-1.1-0.2-1.6-0.5
			C865.7,72.3,864.5,67.1,864.5,62z M866.6,84.8c0-1,0.1-2.1,0.3-3.1c0.7-0.3,1.5-0.4,2.3-0.4c0.9,0,1.8,0.1,2.7,0.4
			c0.3,1.1,0.4,2.2,0.4,3.3c0,1.1-0.1,2.2-0.4,3.3c-0.6,0.3-1.4,0.4-2.4,0.4c-1.1,0-2-0.1-2.6-0.4C866.7,87.1,866.6,85.9,866.6,84.8
			z"/>
	</g>
</g>
</svg>
