<?xml version="1.0" encoding="utf-8"?>
<!-- Generator: Adobe Illustrator 26.4.1, SVG Export Plug-In . SVG Version: 6.00 Build 0)  -->
<svg version="1.1" id="FQT-Status" xmlns="http://www.w3.org/2000/svg" xmlns:xlink="http://www.w3.org/1999/xlink" x="0px" y="0px"
	 viewBox="0 0 1080 135" style="enable-background:new 0 0 1080 135;" xml:space="preserve">
<style type="text/css">
	
		.st0{fill:#FFFFFF;stroke:#000000;stroke-width:0.5;stroke-linecap:round;stroke-linejoin:round;stroke-miterlimit:10;stroke-opacity:0.4;}
</style>
<g id="Status">
	<path class="st0" d="M999.1,59.5V33.3c0-15.8-12.8-28.7-28.7-28.7H837.7h-219c-15.8,0-28.7,12.8-28.7,28.7v68.4
		c0,15.8,12.8,28.7,28.7,28.7h219h132.7c15.8,0,28.7-12.8,28.7-28.7V89.2c19.2-12.3,38.4-24.6,57.6-36.9
		C1037.5,54.7,1018.3,57.1,999.1,59.5z"/>
	<g>
		<path d="M653.7,69.3c0-5.6,1.3-10.3,3.9-14.2s6-5.7,10.4-5.7c3.2,0,5.5,0.8,7,2.4c0.1-1.1,0.4-1.8,1.1-2c0.8-0.4,1.8-0.5,3.1-0.5
			c1.6,0,2.8,0.3,3.7,1.1c0.4,2.5,0.6,4.7,0.6,6.5c0,3.2-0.6,5.7-1.8,7.6c-1.8,0.8-3.3,1.1-4.7,1.1c-1.3,0-2.6-0.3-4.1-1.1
			c0-0.1,0-0.2,0-0.6c0-0.4,0-0.8,0.1-0.9c0-1.4-0.5-2.5-1.6-3.3c-1.1-0.9-2.1-1.2-3-1.2c-1.4,0-2.5,1.2-3.5,3.5
			c-1,2.3-1.5,4.8-1.5,7.7c0,2.6,0.5,4.7,1.4,6.3c0.9,1.5,2.1,2.3,3.5,2.3c1.6,0,3.1-1,4.5-3c-0.1-0.7-0.2-1.1-0.2-1.1
			c0-0.1,0-0.1,0-0.2c0-0.1,0-0.1,0-0.2c1.2-0.7,2.6-1,4-1c1.5,0,3.1,0.3,4.8,1.1c1.2,2,1.8,4.5,1.8,7.6c0,1.8-0.2,3.9-0.6,6.5
			c-1,0.9-2.4,1.3-4,1.3c-1.2,0-2.1-0.3-2.8-0.9c-0.7-0.3-1.1-1-1.1-2.1c-2.2,1.7-4.4,2.4-6.7,2.4c-1.8,0-3.5-0.4-5.2-1.2
			s-3.2-2-4.7-3.5c-1.4-1.5-2.6-3.5-3.4-6.1C654.2,75.2,653.7,72.4,653.7,69.3z"/>
		<path d="M686.5,77.2c0-2.6,0.6-5.3,1.9-7.9c1.3-2.5,3.1-4.7,5.4-6.5c2.4-1.8,4.9-2.6,7.7-2.6c3.4,0,5.9,1.2,7.5,3.7
			c1.6,2.5,2.4,5.7,2.4,9.5c0,5.1-1.2,8.8-3.7,11.4s-5.7,3.8-9.7,3.8c-3.7,0-6.6-1.1-8.6-3.3C687.5,83.3,686.5,80.5,686.5,77.2z
			 M696.2,75.7c0,1.1,0.3,2.1,0.9,2.9c0.6,0.9,1.5,1.2,2.5,1.2c1.3,0,2.6-0.7,3.7-2s1.7-2.8,1.7-4.5c0-1.2-0.3-2.2-1-3.1
			c-0.7-0.8-1.5-1.2-2.6-1.2c-1.5,0-2.7,0.7-3.8,2.1C696.7,72.7,696.2,74.1,696.2,75.7z"/>
		<path d="M714.1,84c0-2.2,0.4-3.5,1.3-4.1c0.4-0.3,0.8-0.5,1.3-0.5c0.2,0,0.4,0,0.8,0.1c0-1.1,0-2.8-0.1-5.1
			c-0.1-2.3-0.1-4.1-0.1-5.3c-0.1,0-0.3,0-0.6,0.1c-0.3,0.1-0.5,0.1-0.6,0.1s-0.3,0-0.6-0.1c-0.3-0.1-0.5-0.1-0.6-0.1
			c-0.1-0.1-0.2-0.6-0.2-1.1c0-1,0.1-2.2,0.4-3.7c0.3-1.5,0.5-2.4,0.8-2.8c0.3-0.2,1.1-0.4,2.4-0.7c1.3-0.2,2.5-0.3,3.8-0.3
			c1.7,0,3,0.2,4.1,0.7c0.2,0.2,0.3,0.7,0.3,1.3c0,0.2-0.1,0.9-0.2,2c3.6-3,6.9-4.4,9.9-4.4c2.6,0,4.8,1,6.3,3.1
			c1.6,2.1,2.4,5.2,2.4,9.3c0,0.7-0.1,2.6-0.3,5.9c0-0.1,0.1-0.1,0.4-0.1c0.5,0,1.3,0.1,2.4,0.2c0.3,0.3,0.5,1.5,0.5,3.6
			c0,2.5-0.2,4.2-0.5,4.7c-2.5,0.8-4.8,1.1-6.9,1.1c-2.3,0-4.3-0.3-6-1c-0.2-0.2-0.5-0.9-0.8-2s-0.4-2.1-0.4-3
			c0-1.2,0.3-2.3,0.9-3.2c0.4-0.2,0.8-0.4,1.4-0.4c0.2,0,0.3,0,0.3,0.1c0.1,0,0.1,0.1,0.2,0.1c0.1,0,0.2,0.1,0.3,0.1
			c0.2-1.1,0.3-2.1,0.3-3c0-2.1-0.5-3.7-1.4-4.8s-2.1-1.7-3.4-1.7c-1.4,0-2.6,0.7-3.6,2s-1.5,3.1-1.5,5.3c0,0.9,0.1,1.9,0.3,2.9
			c0.4-0.2,0.8-0.4,1.4-0.4c0.5,0,0.9,0.1,1,0.3c0.3,0,0.5,0.8,0.5,2.2c0,0.3-0.2,1.9-0.5,4.6c-2.4,1.2-5.3,1.9-8.5,1.9
			c-3.7,0-5.8-0.6-6.5-1.5C714.2,86.2,714.1,85.4,714.1,84z"/>
		<path d="M749.9,84c0-2.2,0.4-3.5,1.3-4.1c0.4-0.3,0.8-0.5,1.3-0.5c0.2,0,0.4,0,0.8,0.1c0-1.1,0-2.8-0.1-5.1
			c-0.1-2.3-0.1-4.1-0.1-5.3c-0.1,0-0.3,0-0.6,0.1c-0.3,0.1-0.5,0.1-0.6,0.1s-0.3,0-0.6-0.1c-0.3-0.1-0.5-0.1-0.6-0.1
			c-0.1-0.1-0.2-0.6-0.2-1.1c0-1,0.1-2.2,0.4-3.7c0.3-1.5,0.5-2.4,0.8-2.8c0.3-0.2,1.1-0.4,2.4-0.7c1.3-0.2,2.5-0.3,3.8-0.3
			c1.7,0,3,0.2,4.1,0.7c0.2,0.2,0.3,0.7,0.3,1.3c0,0.2-0.1,0.9-0.2,2c3.6-3,6.9-4.4,9.9-4.4c2.6,0,4.8,1,6.3,3.1
			c1.6,2.1,2.4,5.2,2.4,9.3c0,0.7-0.1,2.6-0.3,5.9c0-0.1,0.1-0.1,0.4-0.1c0.5,0,1.3,0.1,2.4,0.2c0.3,0.3,0.5,1.5,0.5,3.6
			c0,2.5-0.2,4.2-0.5,4.7c-2.5,0.8-4.8,1.1-6.9,1.1c-2.3,0-4.3-0.3-6-1c-0.2-0.2-0.5-0.9-0.8-2s-0.4-2.1-0.4-3
			c0-1.2,0.3-2.3,0.9-3.2c0.4-0.2,0.8-0.4,1.4-0.4c0.2,0,0.3,0,0.3,0.1c0.1,0,0.1,0.1,0.2,0.1c0.1,0,0.2,0.1,0.3,0.1
			c0.2-1.1,0.3-2.1,0.3-3c0-2.1-0.5-3.7-1.4-4.8s-2.1-1.7-3.4-1.7c-1.4,0-2.6,0.7-3.6,2s-1.5,3.1-1.5,5.3c0,0.9,0.1,1.9,0.3,2.9
			c0.4-0.2,0.8-0.4,1.4-0.4c0.5,0,0.9,0.1,1,0.3c0.3,0,0.5,0.8,0.5,2.2c0,0.3-0.2,1.9-0.5,4.6c-2.4,1.2-5.3,1.9-8.5,1.9
			c-3.7,0-5.8-0.6-6.5-1.5C750.1,86.2,749.9,85.4,749.9,84z"/>
		<path d="M785.5,76c0-1.8,0.3-3.5,0.9-5.3c0.6-1.8,1.5-3.5,2.7-5.1c1.2-1.7,2.8-2.9,4.8-4c2-1,4.3-1.5,6.8-1.5
			c2.8,0,4.9,0.7,6.5,1.9c1.5,1.2,2.3,3,2.3,5.3c0,3.1-1.3,5.6-3.9,7.5c-2.6,2-5.5,2.9-8.7,2.9c-0.9,0-1.8-0.1-2.6-0.2
			c0.1,2.6,2.1,4,6.1,4c0.7,0,1.3,0,1.8-0.1c0-0.3,0.1-0.5,0.2-0.9c1.5-1.3,3-1.9,4.8-1.9c0.3,0,0.6,0,0.8,0c2.2,1.3,3.5,3.4,4,6.5
			c0,0.3-0.2,0.5-0.4,0.9c-0.2,0.3-0.4,0.7-0.7,0.9c-0.2,0.2-0.6,0.6-1,0.8c-0.4,0.3-0.8,0.6-1,0.7c-0.2,0.1-0.6,0.3-1.1,0.7
			c-0.5,0.3-0.8,0.4-0.8,0.4c-0.2,0-0.4,0-0.5-0.1c-0.1,0-0.3-0.1-0.4-0.2c-0.1-0.1-0.2-0.2-0.2-0.2s-0.1-0.2-0.2-0.4
			c-0.1-0.2-0.2-0.3-0.2-0.4c-1.9,0.8-3.8,1.2-5.8,1.2c-4.5,0-7.9-1.3-10.4-3.8C786.8,82.7,785.5,79.6,785.5,76z M795.3,70.3
			c0,1.2,0.8,1.8,2.4,1.8c1.2,0,2.4-0.3,3.5-0.9c1.1-0.7,1.7-1.4,1.7-2.3c0-0.7-0.2-1.3-0.6-2c-0.4-0.7-1-1-1.8-1
			c-1,0-2.1,0.4-3.3,1.3C795.9,68.2,795.3,69.2,795.3,70.3z"/>
		<path d="M813.5,75.8c0-5.1,1.4-8.9,4.3-11.6c2.9-2.6,7.2-4,13-4l0.4-1.4c0.9-0.2,1.8-0.3,2.7-0.3c2,0,3.8,0.7,5.4,1.9
			c0.1,0.5,0.2,1.3,0.2,2.3c0,1.9-0.3,3.5-0.8,4.8c-0.6,1.3-1.3,2.2-2.1,2.5c-1.4,0.5-2.8,0.9-4,0.9s-2.3-0.3-3.3-0.9l0.3-2
			c-0.8-0.2-1.6-0.4-2.3-0.4c-1.5,0-2.8,0.8-3.8,2.3S822,73.2,822,75c0,1.5,0.3,3,1,4.2s1.5,1.9,2.5,1.9c0.9,0,2-0.4,3.4-1.3
			l-0.4-1.5c1.6-1.3,3.4-1.9,5.4-1.9c0.7,0,1.6,0.1,2.6,0.4c2,2.4,3.1,5.4,3.1,8.7c0,0.8-0.1,1.4-0.2,2.2c-1.8,1.3-3.9,2-6.3,2
			c-0.3,0-0.9,0-1.6-0.1l-0.4-1.4c-2.3,0.4-4.2,0.7-5.9,0.7c-3.6,0-6.4-1.1-8.5-3.2S813.5,80.2,813.5,75.8z"/>
		<path d="M840.9,61.9c0-0.8,0.1-1.2,0.2-1.4c0.9-0.1,1.6-0.2,2.1-0.2c0.1,0,0.3,0,0.5,0s0.4,0,0.5,0h0.2V49.9
			c2.6-0.2,4.1-0.3,4.7-0.3c1.2,0,2.8,0.1,4.6,0.3v10.4c2.9,0.1,4.7,0.3,5.4,0.8c0.5,0.7,0.7,2.3,0.7,5.2c0,0.8-0.1,1.2-0.2,1.4
			c-1,0.1-1.7,0.2-2.3,0.2H857c-0.2,0-0.7,0-1.3,0s-1.3,0-2.2,0c0,0.2,0,1.5,0,4s0,3.8,0,4.1c0,1.7,0.3,2.8,0.8,3.4
			c0.5,0.7,1.4,1,2.5,1c0.4,0,0.6,0,0.7-0.1c0.1-0.1,0.2-0.3,0.2-0.7c0-0.2,0.4-0.4,1.3-0.7l3.3-0.9c0.3,1.1,0.5,2.3,0.5,3.7
			c0,2.8-0.2,4.5-0.7,5.2c-0.1,0.1-0.4,0.2-0.8,0.4c-0.4,0.2-0.7,0.4-0.8,0.4s-0.4,0.1-0.7,0.3c-0.3,0.1-0.7,0.2-0.9,0.3
			c-0.2,0.1-0.6,0.1-1.1,0.2s-1,0.1-1.6,0.1s-1.2,0-2,0c-1.4,0-2.6-0.1-3.5-0.2c-0.9-0.1-1.8-0.5-2.6-1c-0.8-0.6-1.5-1.2-1.9-2.2
			c-0.5-0.9-0.9-2.2-1.2-3.7s-0.5-3.5-0.5-5.7c0-2.2,0-4.9,0-8.1c-1.5-0.2-2.5-0.4-3-0.8C841.1,66.4,840.9,64.7,840.9,61.9z"/>
		<path d="M864.3,76c0-1.8,0.3-3.5,0.9-5.3c0.6-1.8,1.5-3.5,2.7-5.1c1.2-1.7,2.8-2.9,4.8-4c2-1,4.3-1.5,6.8-1.5
			c2.8,0,4.9,0.7,6.5,1.9c1.5,1.2,2.3,3,2.3,5.3c0,3.1-1.3,5.6-3.9,7.5c-2.6,2-5.5,2.9-8.7,2.9c-0.9,0-1.8-0.1-2.6-0.2
			c0.1,2.6,2.1,4,6.1,4c0.7,0,1.3,0,1.8-0.1c0-0.3,0.1-0.5,0.2-0.9c1.5-1.3,3-1.9,4.8-1.9c0.3,0,0.6,0,0.8,0c2.2,1.3,3.5,3.4,4,6.5
			c0,0.3-0.2,0.5-0.4,0.9c-0.2,0.3-0.4,0.7-0.7,0.9c-0.2,0.2-0.6,0.6-1,0.8c-0.4,0.3-0.8,0.6-1,0.7c-0.2,0.1-0.6,0.3-1.1,0.7
			c-0.5,0.3-0.8,0.4-0.8,0.4c-0.2,0-0.4,0-0.5-0.1c-0.1,0-0.3-0.1-0.4-0.2c-0.1-0.1-0.2-0.2-0.2-0.2s-0.1-0.2-0.2-0.4
			c-0.1-0.2-0.2-0.3-0.2-0.4c-1.9,0.8-3.8,1.2-5.8,1.2c-4.5,0-7.9-1.3-10.4-3.8C865.6,82.7,864.3,79.6,864.3,76z M874.1,70.3
			c0,1.2,0.8,1.8,2.4,1.8c1.2,0,2.4-0.3,3.5-0.9c1.1-0.7,1.7-1.4,1.7-2.3c0-0.7-0.2-1.3-0.6-2c-0.4-0.7-1-1-1.8-1
			c-1,0-2.1,0.4-3.3,1.3C874.7,68.2,874.1,69.2,874.1,70.3z"/>
		<path d="M892.3,74.4c0-3.7,1-7,3-9.9s4.7-4.3,8-4.3c1.2,0,2.5,0.2,3.9,0.7c0-0.1,0-0.8-0.1-2.2c0-1.3-0.1-2.9-0.1-4.4
			c0-3.6,0.1-5.6,0.3-5.9c1.2-1.1,4.1-1.7,8.6-1.7c1.5,0,2.8,0.1,3.8,0.3s1.6,0.3,1.8,0.5l0.4,0.2c0.1,0.3,0.2,1.3,0.2,3.1
			s-0.1,2.8-0.2,3.1c-0.2,0.3-0.6,0.6-1.2,0.7s-1.2,0.2-1.7,0.2c-0.4,0-0.7,0-0.8-0.1c0,0.7,0,2.1,0.1,4.5c0,2.4,0,4.5,0,6.3
			c0,6.6-0.2,10.9-0.5,12.9c0.1,0,0.4-0.1,0.9-0.1c0.7,0,1.6,0.1,2.7,0.4c0.3,0.2,0.4,1.8,0.4,4.6c0,1.7-0.1,2.6-0.2,3.1
			c-0.9,1.1-3.4,1.7-7.3,1.7c-0.1,0-2-0.1-5.6-0.2c-0.2-0.7-0.3-1.3-0.3-1.9c0-0.3,0-0.4,0.1-0.4c-0.5,0.2-1.6,0.8-3.2,1.7
			c-1.6,0.9-3,1.4-4.1,1.4c-1.8,0-3.3-0.8-4.8-2.3c-1.4-1.5-2.4-3.4-3.1-5.6C892.6,78.5,892.3,76.5,892.3,74.4z M899.9,74.7
			c0,1.2,0.3,2.2,0.9,3.1s1.5,1.3,2.5,1.3c1.4,0,2.6-0.7,3.8-2s1.7-2.9,1.7-4.5c0-1.2-0.3-2.3-1-3.2s-1.5-1.3-2.6-1.3
			c-1.4,0-2.6,0.7-3.8,2.1C900.5,71.6,899.9,73.2,899.9,74.7z"/>
		<path d="M924.3,62c0-4.2,0.7-8,2.2-11.8c0.2,0,0.4-0.1,0.8-0.3c0.4-0.1,0.7-0.3,1-0.3c0.3-0.1,0.6-0.1,1-0.1
			c0.8,0,1.6,0.2,2.5,0.8c1.7,4.1,2.5,8.4,2.5,12.7c0,4.9-1.1,9.8-3.2,14.3c-0.5,0.6-1.1,0.8-1.8,0.8c-0.6,0-1.1-0.2-1.6-0.5
			C925.5,72.3,924.3,67.1,924.3,62z M926.4,84.8c0-1,0.1-2.1,0.3-3.1c0.7-0.3,1.5-0.4,2.3-0.4c0.9,0,1.8,0.1,2.7,0.4
			c0.3,1.1,0.4,2.2,0.4,3.3c0,1.1-0.1,2.2-0.4,3.3c-0.6,0.3-1.4,0.4-2.4,0.4c-1.1,0-2-0.1-2.6-0.4C926.5,87.1,926.4,85.9,926.4,84.8
			z"/>
	</g>
</g>
</svg>
