<?xml version="1.0" encoding="utf-8"?>
<!-- Generator: Adobe Illustrator 26.4.1, SVG Export Plug-In . SVG Version: 6.00 Build 0)  -->
<svg version="1.1" id="FQT-Status" xmlns="http://www.w3.org/2000/svg" xmlns:xlink="http://www.w3.org/1999/xlink" x="0px" y="0px"
	 viewBox="0 0 1080 135" style="enable-background:new 0 0 1080 135;" xml:space="preserve">
<style type="text/css">
	
		.st0{fill:#FFFFFF;stroke:#000000;stroke-width:0.5;stroke-linecap:round;stroke-linejoin:round;stroke-miterlimit:10;stroke-opacity:0.4;}
</style>
<g id="Status">
	<path class="st0" d="M1056.7,52.3c-19.2,2.4-38.4,4.8-57.6,7.2V33.3c0-15.8-12.8-28.7-28.7-28.7H33.5C17.7,4.6,4.8,17.5,4.8,33.3
		v68.4c0,15.8,12.8,28.7,28.7,28.7h936.9c15.8,0,28.7-12.8,28.7-28.7V89.2C1018.3,76.9,1037.5,64.6,1056.7,52.3z"/>
	<g>
		<path d="M91.1,68.7c0-5.6,1.3-10.3,3.9-14.2s6-5.7,10.4-5.7c3.2,0,5.5,0.8,7,2.4c0.1-1.1,0.4-1.8,1.1-2c0.8-0.4,1.9-0.6,3-0.6
			c1.6,0,2.8,0.3,3.7,1.1c0.4,2.5,0.6,4.7,0.6,6.5c0,3.2-0.6,5.7-1.8,7.6c-1.8,0.8-3.3,1.1-4.6,1.1c-1.3,0-2.6-0.3-4-1.1
			c0-0.1-0.1-0.2-0.1-0.5c0-0.4,0.1-0.8,0.1-0.9c0-1.4-0.5-2.5-1.6-3.3c-1.1-0.9-2.1-1.2-3-1.2c-1.4,0-2.5,1.2-3.5,3.5
			s-1.5,4.8-1.5,7.7c0,2.6,0.5,4.7,1.4,6.3c0.9,1.5,2.1,2.3,3.5,2.3c1.6,0,3.1-1,4.6-3c-0.1-0.7-0.2-1.1-0.2-1.1c0-0.1,0-0.1,0-0.2
			c0-0.1,0-0.1,0-0.2c1.2-0.7,2.6-1,4-1c1.5,0,3.1,0.3,4.9,1.1c1.2,2,1.8,4.5,1.8,7.6c0,1.8-0.2,3.8-0.6,6.5c-1,0.9-2.4,1.3-4,1.3
			c-1.2,0-2.1-0.3-2.8-0.9c-0.7-0.3-1.1-1-1.1-2.1c-2.2,1.7-4.4,2.4-6.7,2.4c-1.8,0-3.5-0.4-5.2-1.2s-3.2-2-4.7-3.5
			c-1.4-1.5-2.6-3.5-3.4-6C91.5,74.7,91.1,71.8,91.1,68.7z"/>
		<path d="M123.8,82.9c0-1.8,0.1-2.8,0.3-3c0.3-0.2,0.9-0.3,1.8-0.5c0.6-0.1,1-0.2,1.2-0.2c-0.4-2.1-0.6-5.7-0.6-10.8
			c0-5.9,0.2-11.1,0.5-15.6c-1,0-1.7-0.1-2.3-0.2c-0.1-0.8-0.1-1.3-0.1-1.8c0-1.7,0.4-3,1.1-4.2c1.5-0.3,3.4-0.5,5.8-0.5
			c1.8,0,3.2,0.2,4.2,0.5c0.4,3.4,0.6,7,0.6,10.9c0,2.8-0.1,6.6-0.4,11.5c-0.2,4.9-0.4,8.5-0.4,10.3c0.2,0,0.5,0,0.9,0
			c0.9,0,1.7,0.2,2.4,0.5c0.1,0.1,0.2,0.4,0.2,1c0,0.8-0.1,1.9-0.4,3.4c-0.3,1.5-0.5,2.4-0.7,2.8c-0.5,0.3-2.4,0.6-5.5,0.6
			c-4.6,0-7.4-0.6-8.1-1.5C123.9,85.9,123.8,84.9,123.8,82.9z"/>
		<path d="M140.6,83.1c0-1.8,0.3-2.9,1-3.1c0.3-0.2,0.9-0.3,1.8-0.6c0.6-0.1,1-0.2,1.2-0.2c-0.4-4.3-0.6-6.9-0.6-8.1
			c0-2.5,0.2-4.3,0.5-5.1c-1,0-1.7-0.1-2.2-0.2c-0.3-0.8-0.4-1.4-0.4-2.1c0-1.1,0.5-2.4,1.4-4c1.2-0.2,3.5-0.3,6.9-0.3
			c1.2,0,2.3,0.1,3.4,0.2c1.1,0.1,2,0.3,2.6,0.5s0.9,0.4,0.9,0.5c0.3,0.4,0.4,1.1,0.4,2.1c0,2-0.3,3.3-0.9,4
			c-0.1,0.1-0.6,0.2-1.3,0.2s-1.3-0.1-1.7-0.2c-0.4,2.5-0.5,5.9-0.5,9.9c0,1.8,0,2.6,0.1,2.8c0.2,0,0.5,0,0.8,0
			c0.8,0,1.6,0.2,2.3,0.6c0.1,0.2,0.2,0.7,0.2,1.3c0,0.9-0.1,2-0.4,3.2c-0.3,1.2-0.5,2.1-0.8,2.5c-0.5,0.3-2.3,0.6-5.2,0.6
			c-4.9,0-7.7-0.6-8.5-1.5C141,85.7,140.6,84.7,140.6,83.1z M145.6,48.8c0-1,0.5-1.5,1.5-1.5c0.8,0,1.7,0.2,2.7,0.9
			c0.7-0.8,1.6-1.1,2.8-1.1c0.7,0,1.3,0.2,1.9,0.9c0.5,0.5,0.8,1.3,0.8,2.2c0,0.4-0.1,1-0.3,1.3c-0.2,0.4-0.4,0.8-0.6,1.1
			c-0.2,0.3-0.5,0.7-1,1c-0.5,0.4-0.8,0.7-1.1,0.9c-0.2,0.1-0.7,0.4-1.3,0.9c-0.6,0.4-1,0.7-1.2,0.8c-1.3-1.1-2.4-2.3-3.1-3.6
			C146,51,145.6,49.8,145.6,48.8z"/>
		<path d="M159.6,75.2c0-5.1,1.4-8.9,4.3-11.5c2.9-2.6,7.2-4,13-4l0.4-1.4c0.9-0.2,1.8-0.3,2.7-0.3c2,0,3.8,0.7,5.4,1.9
			c0.1,0.5,0.1,1.3,0.1,2.3c0,1.9-0.3,3.5-0.9,4.8c-0.6,1.3-1.3,2.2-2.1,2.5c-1.4,0.5-2.8,0.9-3.9,0.9c-1.2,0-2.4-0.3-3.4-0.9l0.4-2
			c-0.8-0.2-1.6-0.4-2.3-0.4c-1.5,0-2.8,0.8-3.8,2.3s-1.5,3.2-1.5,5.1c0,1.5,0.3,3,1,4.2c0.7,1.2,1.5,1.9,2.5,1.9
			c0.9,0,2.1-0.4,3.4-1.3l-0.4-1.5c1.6-1.3,3.4-1.9,5.4-1.9c0.7,0,1.6,0.1,2.6,0.4c2,2.4,3,5.4,3,8.7c0,0.8,0,1.4-0.1,2.2
			c-1.8,1.3-3.9,2-6.3,2c-0.3,0-0.9,0-1.6-0.1l-0.5-1.4c-2.3,0.4-4.2,0.7-5.9,0.7c-3.6,0-6.4-1.1-8.5-3.2
			C160.6,83,159.6,79.6,159.6,75.2z"/>
		<path d="M186.8,51c0-1.9,0.4-3.1,1.2-3.6c1.4-0.8,3.4-1.1,6.1-1.1c3.4,0,5.7,0.3,6.8,1.1c0.7,0.3,1,1.4,1,3.4
			c0,1.6-0.2,2.8-0.6,3.1c-0.8,0.1-1.4,0.2-1.9,0.2c0,1.8,0.2,5.5,0.5,11.3c1.8-1.2,3.4-2.5,4.8-4c1.4-1.4,2.1-2.5,2.1-3.3
			c0-0.2-0.1-0.4-0.2-0.5c-0.2,0.2-0.7,0.4-1.3,0.4c-0.2,0-0.4,0-0.5-0.1c-0.3-0.3-0.5-1.1-0.5-2.3c0-0.5,0.1-0.9,0.3-1
			c1.2-0.4,2.8-0.5,4.6-0.5c3.8,0,6.6,0.4,8.6,1.2c0.1,0.3,0.2,0.8,0.2,1.3c0,1.7-0.4,2.6-1.2,3c-0.1,0-0.3,0-0.5,0
			c-0.9,0-1.5-0.1-1.8-0.4c0,0.2-0.3,0.8-0.9,1.5c-0.6,0.8-1.5,1.8-2.6,3.1c-1.2,1.2-2.4,2.4-3.7,3.5c3.2,1.4,5.9,3.6,8.2,6.5
			c2.2,2.9,3.3,4.9,3.3,6.2c0.3-0.1,0.6-0.2,1-0.2c0.3,0,0.7,0.1,1.3,0.3c0.6,0.3,0.9,1.4,0.9,3.2c0,1.7-0.3,2.9-0.8,3.7
			c-1.1,0.7-3.4,1-7,1c-2.2,0-4.1-0.2-5.5-0.9c-0.8-1.1-1.2-2.5-1.2-4.4c0-1.1,0.2-2,0.6-2.5c0.3-0.2,0.6-0.3,1-0.3
			c0.3,0,0.6,0.1,0.9,0.2c-0.4-1.3-0.9-2.4-1.7-3.4c-0.8-1-1.7-1.8-2.7-2.3c-1.1-0.6-1.9-1-2.6-1.3c-0.7-0.2-1.5-0.6-2.6-0.9
			c0,0.9,0.1,2.2,0.1,4c0,1.4,0,2.5-0.1,3.2c0.4-0.2,0.9-0.4,1.6-0.4c0.6,0,1,0.1,1.1,0.3c0.5,0.1,0.8,1.3,0.8,3.5
			c0,2.1-0.1,3.5-0.2,4.4c-1.8,0.6-5.1,0.8-10.1,0.8c-2.3,0-3.9-0.2-4.9-0.7c-0.8-1-1.1-2.5-1.1-4.7c0-1.5,0.3-2.5,0.8-2.8
			c0.5-0.3,1.3-0.6,2.4-0.6c0.3,0,0.5,0,0.7,0.1c-0.2-10.1-0.3-17.2-0.3-21.2c0-2.3,0-3.6,0.1-3.9c-0.6,0.3-1.2,0.4-1.7,0.4
			c-0.7,0-1.2-0.2-1.7-0.7C187.1,53.1,186.8,52.1,186.8,51z"/>
		<path d="M233.2,83.8c0-2.3,0.4-3.7,1.3-4.3c0.4-0.3,0.9-0.5,1.4-0.5c0.2,0,0.4,0,0.8,0.1c0-1.1,0-2.8-0.1-5.1s-0.1-4.1-0.1-5.3
			c-0.1,0-0.3,0-0.6,0.1c-0.3,0.1-0.5,0.1-0.6,0.1s-0.3,0-0.6-0.1c-0.3-0.1-0.5-0.1-0.6-0.1c-0.1-0.1-0.2-0.6-0.2-1.1
			c0-1,0.1-2.2,0.4-3.7c0.3-1.5,0.5-2.4,0.8-2.8c0.4-0.2,1.2-0.4,2.4-0.7s2.4-0.3,3.7-0.3c1.6,0,2.9,0.2,4,0.7
			c0.2,0.2,0.4,0.8,0.4,1.3c0,0.1-0.1,0.8-0.3,1.9c3.5-3,6.8-4.4,9.8-4.4c3.2,0,5.6,1.4,7.2,4.4c3.9-2.9,7.4-4.4,10.5-4.4
			c2.5,0,4.6,1,6.2,3.1c1.6,2.1,2.4,5.2,2.4,9.4c0,0.6-0.1,2.5-0.4,5.9c0-0.1,0.2-0.1,0.5-0.1c0.5,0,1.2,0.1,2.4,0.2
			c0.3,0.3,0.4,1.5,0.4,3.6c0,2.5-0.2,4.2-0.5,4.7c-2.5,0.8-4.8,1.1-6.8,1.1c-2.3,0-4.3-0.3-6-1c-0.2-0.2-0.5-0.9-0.8-2
			c-0.3-1.1-0.4-2.1-0.4-3c0-1.2,0.3-2.3,0.9-3.2c0.4-0.2,0.8-0.4,1.4-0.4c0.2,0,0.3,0,0.4,0.1c0.1,0,0.1,0.1,0.2,0.1
			c0.1,0.1,0.2,0.1,0.3,0.1c0.2-1.1,0.3-2.1,0.3-3c0-2.1-0.4-3.7-1.3-4.8s-2-1.7-3.3-1.7c-1,0-1.9,0.3-2.7,1c-0.9,0.7-1.5,1.5-2,2.6
			c-0.1,2.6-0.2,4.5-0.3,5.4c0-0.1,0.1-0.1,0.4-0.1c0.5,0,1.2,0.1,2.4,0.2c0.3,0.3,0.5,1.5,0.5,3.6c0,2.5-0.2,4.2-0.5,4.7
			c-2.5,0.8-4.8,1.1-6.9,1.1c-2.3,0-4.3-0.3-6-1c-0.2-0.2-0.5-0.9-0.8-2s-0.4-2.1-0.4-3c0-1.2,0.3-2.3,0.9-3.2
			c0.4-0.2,0.8-0.4,1.4-0.4c0.2,0,0.3,0,0.4,0.1c0.1,0,0.1,0.1,0.2,0.1c0.1,0.1,0.2,0.1,0.3,0.1c0.1-0.9,0.2-1.5,0.2-2.1
			c0-2.4-0.4-4.3-1.3-5.5c-0.9-1.2-2-1.9-3.3-1.9c-1.4,0-2.5,0.7-3.6,1.9s-1.5,3-1.5,5.2c0,1,0.1,2,0.3,3c0.4-0.2,0.9-0.4,1.5-0.4
			s1,0.1,1.1,0.3c0.3,0,0.5,0.8,0.5,2.2c0,0.3-0.2,1.9-0.5,4.6c-2.4,1.2-5.4,1.9-9,1.9c-3.1,0-5.1-0.5-5.9-1.5
			C233.3,85.7,233.2,84.9,233.2,83.8z"/>
		<path d="M285.7,75.4c0-1.8,0.3-3.5,0.9-5.3c0.6-1.8,1.5-3.5,2.7-5.1c1.2-1.7,2.8-2.9,4.8-4c2-1,4.3-1.5,6.8-1.5
			c2.8,0,4.9,0.7,6.5,1.9c1.5,1.2,2.3,3,2.3,5.3c0,3.1-1.3,5.6-3.9,7.5c-2.6,2-5.5,2.9-8.7,2.9c-0.9,0-1.8-0.1-2.6-0.2
			c0.1,2.6,2.1,4,6.1,4c0.7,0,1.3,0,1.8-0.1c0-0.3,0-0.5,0.1-0.9c1.5-1.3,3-1.9,4.8-1.9c0.3,0,0.6,0,0.8,0c2.2,1.3,3.5,3.4,4,6.5
			c0,0.3-0.2,0.5-0.4,0.9c-0.2,0.3-0.4,0.7-0.7,0.9c-0.2,0.2-0.6,0.6-1,0.8c-0.4,0.3-0.8,0.6-1,0.7c-0.2,0.1-0.6,0.3-1.1,0.7
			c-0.5,0.3-0.8,0.4-0.8,0.4c-0.2,0-0.4,0-0.5-0.1c-0.1,0-0.3-0.1-0.4-0.2s-0.2-0.2-0.2-0.2s-0.1-0.2-0.2-0.4s-0.2-0.3-0.2-0.4
			c-1.9,0.8-3.8,1.2-5.8,1.2c-4.5,0-7.9-1.3-10.4-3.9C286.9,82.1,285.7,79.1,285.7,75.4z M295.4,69.7c0,1.2,0.8,1.8,2.4,1.8
			c1.2,0,2.4-0.3,3.5-0.9c1.1-0.7,1.6-1.4,1.6-2.3c0-0.7-0.2-1.3-0.6-2c-0.4-0.7-1-1-1.8-1c-1,0-2.1,0.4-3.3,1.3
			C296,67.6,295.4,68.6,295.4,69.7z"/>
		<path d="M322.3,61.4c0-0.8,0.1-1.2,0.2-1.4c0.9-0.1,1.6-0.2,2.1-0.2c0.1,0,0.3,0,0.5,0s0.4,0,0.5,0h0.2V49.4
			c2.6-0.2,4.1-0.3,4.7-0.3c1.2,0,2.8,0.1,4.6,0.3v10.5c2.9,0.1,4.7,0.3,5.4,0.8c0.5,0.7,0.7,2.3,0.7,5.2c0,0.8-0.1,1.2-0.2,1.4
			c-1,0.1-1.7,0.2-2.3,0.2h-0.4c-0.2,0-0.7,0-1.3,0c-0.6,0-1.3,0-2.2,0c0,0.2,0,1.5,0,4s0,3.8,0,4.1c0,1.6,0.3,2.8,0.8,3.4
			s1.4,1,2.5,1c0.4,0,0.6,0,0.7-0.1c0.1-0.1,0.2-0.3,0.2-0.7c0-0.2,0.4-0.4,1.3-0.7l3.3-0.9c0.3,1.1,0.5,2.3,0.5,3.7
			c0,2.8-0.2,4.5-0.7,5.2c-0.1,0.1-0.4,0.2-0.8,0.4c-0.4,0.2-0.7,0.4-0.8,0.4c-0.1,0-0.4,0.1-0.7,0.3c-0.4,0.1-0.7,0.2-0.9,0.3
			c-0.3,0-0.6,0.1-1.1,0.2c-0.5,0.1-1,0.1-1.6,0.1s-1.2,0-2,0c-1.4,0-2.6-0.1-3.5-0.2c-0.9-0.1-1.8-0.6-2.6-1
			c-0.8-0.6-1.5-1.2-1.9-2.2c-0.5-0.9-0.9-2.2-1.2-3.7s-0.5-3.5-0.5-5.7c0-2.2,0-5,0-8.1c-1.5-0.2-2.5-0.4-3-0.8
			C322.5,65.9,322.3,64.1,322.3,61.4z"/>
		<path d="M345.7,76.6c0-2.6,0.6-5.3,1.9-7.9c1.3-2.5,3.1-4.7,5.4-6.5c2.4-1.8,4.9-2.6,7.7-2.6c3.4,0,5.9,1.2,7.5,3.7
			s2.4,5.7,2.4,9.5c0,5.1-1.2,8.8-3.7,11.4c-2.5,2.6-5.7,3.9-9.7,3.9c-3.7,0-6.6-1.1-8.6-3.3C346.7,82.7,345.7,79.9,345.7,76.6z
			 M355.4,75.1c0,1.1,0.3,2.1,0.9,2.9c0.6,0.9,1.5,1.2,2.5,1.2c1.3,0,2.6-0.7,3.7-2s1.7-2.8,1.7-4.5c0-1.2-0.3-2.2-1-3.1
			c-0.7-0.8-1.5-1.2-2.6-1.2c-1.5,0-2.7,0.7-3.8,2.1C356,72.1,355.4,73.6,355.4,75.1z"/>
		<path d="M383,75.2c0-5.1,1.4-8.9,4.3-11.5c2.9-2.6,7.2-4,13-4l0.4-1.4c0.9-0.2,1.8-0.3,2.7-0.3c2,0,3.8,0.7,5.4,1.9
			c0.1,0.5,0.1,1.3,0.1,2.3c0,1.9-0.3,3.5-0.9,4.8c-0.6,1.3-1.3,2.2-2.1,2.5c-1.4,0.5-2.8,0.9-3.9,0.9c-1.2,0-2.4-0.3-3.4-0.9l0.4-2
			c-0.8-0.2-1.6-0.4-2.3-0.4c-1.5,0-2.8,0.8-3.8,2.3s-1.5,3.2-1.5,5.1c0,1.5,0.3,3,1,4.2c0.7,1.2,1.5,1.9,2.5,1.9
			c0.9,0,2.1-0.4,3.4-1.3l-0.4-1.5c1.6-1.3,3.4-1.9,5.4-1.9c0.7,0,1.6,0.1,2.6,0.4c2,2.4,3,5.4,3,8.7c0,0.8,0,1.4-0.1,2.2
			c-1.8,1.3-3.9,2-6.3,2c-0.3,0-0.9,0-1.6-0.1l-0.5-1.4c-2.3,0.4-4.2,0.7-5.9,0.7c-3.6,0-6.4-1.1-8.5-3.2C384,83,383,79.6,383,75.2z
			"/>
		<path d="M411,76.6c0-2.6,0.6-5.3,1.9-7.9c1.3-2.5,3.1-4.7,5.4-6.5c2.4-1.8,4.9-2.6,7.7-2.6c3.4,0,5.9,1.2,7.5,3.7s2.4,5.7,2.4,9.5
			c0,5.1-1.2,8.8-3.7,11.4c-2.5,2.6-5.7,3.9-9.7,3.9c-3.7,0-6.6-1.1-8.6-3.3C412,82.7,411,79.9,411,76.6z M420.7,75.1
			c0,1.1,0.3,2.1,0.9,2.9c0.6,0.9,1.5,1.2,2.5,1.2c1.3,0,2.6-0.7,3.7-2s1.7-2.8,1.7-4.5c0-1.2-0.3-2.2-1-3.1
			c-0.7-0.8-1.5-1.2-2.6-1.2c-1.5,0-2.7,0.7-3.8,2.1C421.3,72.1,420.7,73.6,420.7,75.1z"/>
		<path d="M438.6,83.5c0-2.2,0.5-3.5,1.4-4.1c0.4-0.3,0.9-0.6,1.4-0.6c0.2,0,0.4,0,0.8,0.1c0-1.1,0-2.8-0.1-5.1s-0.1-4.1-0.1-5.3
			c-0.1,0-0.3,0-0.6,0.1c-0.3,0.1-0.5,0.1-0.6,0.1s-0.3,0-0.6-0.1c-0.3-0.1-0.5-0.1-0.6-0.1c-0.1-0.1-0.2-0.6-0.2-1.1
			c0-1,0.1-2.2,0.4-3.7c0.3-1.5,0.5-2.4,0.8-2.8c0.3-0.2,1.1-0.4,2.4-0.7c1.3-0.2,2.5-0.3,3.8-0.3c1.7,0,3,0.2,4.1,0.7
			c0.2,0.2,0.3,0.7,0.3,1.3c0,0.2-0.1,0.9-0.2,2c3.6-3,6.9-4.4,9.9-4.4c2.6,0,4.8,1,6.4,3.1c1.6,2.1,2.4,5.2,2.4,9.3
			c0,0.7-0.1,2.6-0.4,5.9c0-0.1,0.1-0.1,0.5-0.1c0.5,0,1.3,0.1,2.4,0.2c0.3,0.3,0.4,1.5,0.4,3.6c0,2.5-0.2,4.2-0.5,4.7
			c-2.5,0.8-4.8,1.1-6.9,1.1c-2.3,0-4.3-0.3-6-1c-0.2-0.2-0.5-0.9-0.8-2c-0.3-1.1-0.4-2.1-0.4-3c0-1.2,0.3-2.3,0.9-3.2
			c0.4-0.2,0.8-0.4,1.4-0.4c0.2,0,0.3,0,0.3,0.1c0.1,0,0.1,0.1,0.2,0.1s0.2,0.1,0.3,0.1c0.2-1.1,0.3-2.1,0.3-3
			c0-2.1-0.5-3.7-1.4-4.8s-2.1-1.7-3.4-1.7c-1.4,0-2.6,0.7-3.6,2s-1.5,3.1-1.5,5.3c0,0.9,0.1,1.9,0.3,2.9c0.4-0.2,0.8-0.4,1.4-0.4
			c0.5,0,0.9,0.1,1,0.3c0.3,0,0.5,0.8,0.5,2.2c0,0.3-0.2,1.9-0.5,4.6c-2.4,1.2-5.3,1.9-8.5,1.9c-3.7,0-5.8-0.6-6.5-1.5
			C438.8,85.7,438.6,84.8,438.6,83.5z"/>
		<path d="M474.5,83.5c0-2.2,0.5-3.5,1.4-4.1c0.4-0.3,0.9-0.6,1.4-0.6c0.2,0,0.4,0,0.8,0.1c0-1.1,0-2.8-0.1-5.1s-0.1-4.1-0.1-5.3
			c-0.1,0-0.3,0-0.6,0.1c-0.3,0.1-0.5,0.1-0.6,0.1s-0.3,0-0.6-0.1c-0.3-0.1-0.5-0.1-0.6-0.1c-0.1-0.1-0.2-0.6-0.2-1.1
			c0-1,0.1-2.2,0.4-3.7c0.3-1.5,0.5-2.4,0.8-2.8c0.3-0.2,1.1-0.4,2.4-0.7c1.3-0.2,2.5-0.3,3.8-0.3c1.7,0,3,0.2,4.1,0.7
			c0.2,0.2,0.3,0.7,0.3,1.3c0,0.2-0.1,0.9-0.2,2c3.6-3,6.9-4.4,9.9-4.4c2.6,0,4.8,1,6.4,3.1c1.6,2.1,2.4,5.2,2.4,9.3
			c0,0.7-0.1,2.6-0.4,5.9c0-0.1,0.1-0.1,0.5-0.1c0.5,0,1.3,0.1,2.4,0.2c0.3,0.3,0.4,1.5,0.4,3.6c0,2.5-0.2,4.2-0.5,4.7
			c-2.5,0.8-4.8,1.1-6.9,1.1c-2.3,0-4.3-0.3-6-1c-0.2-0.2-0.5-0.9-0.8-2c-0.3-1.1-0.4-2.1-0.4-3c0-1.2,0.3-2.3,0.9-3.2
			c0.4-0.2,0.8-0.4,1.4-0.4c0.2,0,0.3,0,0.3,0.1c0.1,0,0.1,0.1,0.2,0.1s0.2,0.1,0.3,0.1c0.2-1.1,0.3-2.1,0.3-3
			c0-2.1-0.5-3.7-1.4-4.8s-2.1-1.7-3.4-1.7c-1.4,0-2.6,0.7-3.6,2s-1.5,3.1-1.5,5.3c0,0.9,0.1,1.9,0.3,2.9c0.4-0.2,0.8-0.4,1.4-0.4
			c0.5,0,0.9,0.1,1,0.3c0.3,0,0.5,0.8,0.5,2.2c0,0.3-0.2,1.9-0.5,4.6c-2.4,1.2-5.3,1.9-8.5,1.9c-3.7,0-5.8-0.6-6.5-1.5
			C474.6,85.7,474.5,84.8,474.5,83.5z"/>
		<path d="M510.1,75.4c0-1.8,0.3-3.5,0.9-5.3c0.6-1.8,1.5-3.5,2.7-5.1c1.2-1.7,2.8-2.9,4.8-4c2-1,4.3-1.5,6.8-1.5
			c2.8,0,4.9,0.7,6.5,1.9c1.5,1.2,2.3,3,2.3,5.3c0,3.1-1.3,5.6-3.9,7.5c-2.6,2-5.5,2.9-8.7,2.9c-0.9,0-1.8-0.1-2.6-0.2
			c0.1,2.6,2.1,4,6.1,4c0.7,0,1.3,0,1.8-0.1c0-0.3,0-0.5,0.1-0.9c1.5-1.3,3-1.9,4.8-1.9c0.3,0,0.6,0,0.8,0c2.2,1.3,3.5,3.4,4,6.5
			c0,0.3-0.2,0.5-0.4,0.9c-0.2,0.3-0.4,0.7-0.7,0.9c-0.2,0.2-0.6,0.6-1,0.8c-0.4,0.3-0.8,0.6-1,0.7c-0.2,0.1-0.6,0.3-1.1,0.7
			c-0.5,0.3-0.8,0.4-0.8,0.4c-0.2,0-0.4,0-0.5-0.1c-0.1,0-0.3-0.1-0.4-0.2c-0.1-0.1-0.2-0.2-0.2-0.2s-0.1-0.2-0.2-0.4
			c-0.1-0.2-0.2-0.3-0.2-0.4c-1.9,0.8-3.8,1.2-5.8,1.2c-4.5,0-7.9-1.3-10.4-3.9C511.3,82.1,510.1,79.1,510.1,75.4z M519.8,69.7
			c0,1.2,0.8,1.8,2.4,1.8c1.2,0,2.4-0.3,3.5-0.9c1.1-0.7,1.6-1.4,1.6-2.3c0-0.7-0.2-1.3-0.6-2c-0.4-0.7-1-1-1.8-1
			c-1,0-2.1,0.4-3.3,1.3C520.4,67.6,519.8,68.6,519.8,69.7z"/>
		<path d="M538.1,75.2c0-5.1,1.4-8.9,4.3-11.5c2.9-2.6,7.2-4,13-4l0.4-1.4c0.9-0.2,1.8-0.3,2.7-0.3c2,0,3.8,0.7,5.4,1.9
			c0.1,0.5,0.1,1.3,0.1,2.3c0,1.9-0.3,3.5-0.8,4.8c-0.6,1.3-1.3,2.2-2.1,2.5c-1.4,0.5-2.8,0.9-3.9,0.9c-1.2,0-2.4-0.3-3.4-0.9l0.4-2
			c-0.8-0.2-1.6-0.4-2.3-0.4c-1.5,0-2.8,0.8-3.8,2.3s-1.5,3.2-1.5,5.1c0,1.5,0.3,3,1,4.2s1.5,1.9,2.5,1.9c0.9,0,2.1-0.4,3.4-1.3
			l-0.4-1.5c1.6-1.3,3.4-1.9,5.4-1.9c0.7,0,1.6,0.1,2.7,0.4c2,2.4,3,5.4,3,8.7c0,0.8,0,1.4-0.2,2.2c-1.8,1.3-3.9,2-6.3,2
			c-0.3,0-0.9,0-1.6-0.1l-0.5-1.4c-2.3,0.4-4.2,0.7-5.9,0.7c-3.6,0-6.4-1.1-8.5-3.2C539.1,83,538.1,79.6,538.1,75.2z"/>
		<path d="M565.4,61.4c0-0.8,0.1-1.2,0.2-1.4c0.9-0.1,1.6-0.2,2.1-0.2c0.1,0,0.3,0,0.5,0s0.4,0,0.5,0h0.2V49.4
			c2.6-0.2,4.1-0.3,4.7-0.3c1.2,0,2.8,0.1,4.6,0.3v10.5c2.9,0.1,4.7,0.3,5.4,0.8c0.5,0.7,0.7,2.3,0.7,5.2c0,0.8-0.1,1.2-0.2,1.4
			c-1,0.1-1.7,0.2-2.3,0.2h-0.4c-0.2,0-0.7,0-1.3,0s-1.3,0-2.2,0c0,0.2,0,1.5,0,4s0,3.8,0,4.1c0,1.6,0.3,2.8,0.8,3.4s1.4,1,2.5,1
			c0.4,0,0.6,0,0.7-0.1c0.1-0.1,0.2-0.3,0.2-0.7c0-0.2,0.4-0.4,1.3-0.7l3.3-0.9c0.3,1.1,0.5,2.3,0.5,3.7c0,2.8-0.2,4.5-0.7,5.2
			c-0.1,0.1-0.4,0.2-0.8,0.4c-0.4,0.2-0.7,0.4-0.8,0.4s-0.4,0.1-0.7,0.3c-0.3,0.1-0.7,0.2-0.9,0.3s-0.6,0.1-1.1,0.2
			c-0.5,0.1-1,0.1-1.6,0.1s-1.2,0-2,0c-1.4,0-2.6-0.1-3.5-0.2c-0.9-0.1-1.8-0.6-2.6-1c-0.8-0.6-1.5-1.2-1.9-2.2
			c-0.5-0.9-0.9-2.2-1.2-3.7s-0.5-3.5-0.5-5.7c0-2.2,0-5,0-8.1c-1.5-0.2-2.5-0.4-3-0.8C565.7,65.9,565.4,64.1,565.4,61.4z"/>
		<path d="M596.7,99.4c0-1.8,0.2-4,0.7-6.5c0.5-2.5,0.9-4,1.2-4.3c0.4-0.2,0.8-0.2,1.3-0.2c1.5,0,2.8,0.4,3.9,1.2
			c0.1,0,0.1,0.2,0.1,0.8c0,0.3,0,0.7-0.1,0.9c0.5,0.1,1.2,0.2,2,0.4s1.5,0.3,1.9,0.4s0.9,0.2,1.4,0.3s1,0.2,1.5,0.2
			s0.9,0.1,1.5,0.1c2.8,0,4.7-0.7,6-2.1c1.2-1.3,2-3.6,2.2-6.9c-3.5,3-6.9,4.4-10.4,4.4c-5.9,0-8.8-4.5-8.8-13.4
			c0-2.1,0.1-4,0.3-5.6c0,0-0.2,0-0.5,0c-0.5,0-1.3-0.1-2.3-0.2c-0.4-0.8-0.6-2.1-0.6-3.8c0-2.1,0.2-3.5,0.6-4.3
			c2.6-0.8,4.9-1.1,7-1.1c2.2,0,4.2,0.3,5.8,1.1c0.7,1,1,2.3,1,4.1c0,1.6-0.3,2.9-0.8,3.7c-0.3,0.2-0.7,0.4-1.2,0.4
			c-0.1,0-0.2,0-0.3-0.1c-0.1,0-0.1-0.1-0.2-0.1c-0.1-0.1-0.1-0.1-0.2-0.1c-0.2,1.1-0.3,2.3-0.3,3.6c0,2.1,0.4,3.7,1.2,4.8
			c0.8,1.1,1.8,1.8,3,1.8c1.4,0,2.6-0.7,3.7-2c1.1-1.3,1.6-3.1,1.6-5.3c0-0.9-0.1-1.9-0.3-3c-0.4,0.2-0.9,0.4-1.6,0.4
			c-0.6,0-1-0.1-1.1-0.3c-0.5-0.2-0.8-1.3-0.8-3.3s0.3-3.1,0.8-3.4c1.6-1.2,4.5-1.9,8.7-1.9c3.7,0,6.1,0.4,7.1,1.2
			c0.1,0.4,0.2,1.2,0.2,2.2c0,2-0.2,3.3-0.6,3.7c-0.2,0.3-0.7,0.4-1.5,0.4c-0.5,0-1-0.2-1.7-0.5c0,0.8,0.1,2.1,0.3,3.8
			c0.1,1.8,0.3,3.5,0.4,5.2c0.1,1.6,0.1,3.2,0.1,4.6c0,3.8-0.4,7.2-1.1,9.9c-0.7,2.8-1.7,4.9-3,6.5s-2.7,2.8-4.2,3.4
			c-1.5,0.8-3.2,1.1-5,1.1s-3.3,0-4.3-0.1c-1.1,0-2.4-0.2-4.1-0.7c-1.7-0.3-3.2-0.9-4.5-1.7c-0.3,1.2-0.5,1.9-0.6,1.9
			c-0.2,0.2-0.9,0.3-2.2,0.3c-2.1,0-3.2-0.1-3.3-0.4C596.8,100.8,596.7,100.2,596.7,99.4z"/>
		<path d="M633.8,76.6c0-2.6,0.6-5.3,1.9-7.9c1.3-2.5,3.1-4.7,5.4-6.5c2.4-1.8,4.9-2.6,7.7-2.6c3.4,0,5.9,1.2,7.5,3.7
			s2.4,5.7,2.4,9.5c0,5.1-1.2,8.8-3.7,11.4c-2.5,2.6-5.7,3.9-9.7,3.9c-3.7,0-6.6-1.1-8.6-3.3C634.8,82.7,633.8,79.9,633.8,76.6z
			 M643.5,75.1c0,1.1,0.3,2.1,0.9,2.9c0.6,0.9,1.5,1.2,2.5,1.2c1.3,0,2.6-0.7,3.7-2s1.7-2.8,1.7-4.5c0-1.2-0.3-2.2-1-3.1
			c-0.7-0.8-1.5-1.2-2.6-1.2c-1.5,0-2.7,0.7-3.8,2.1C644.1,72.1,643.5,73.6,643.5,75.1z"/>
		<path d="M660.7,66c0-2.5,0.2-4.1,0.5-4.6c2.5-0.8,4.8-1.1,6.8-1.1c2.3,0,4.3,0.3,6,1.1c0.2,0.2,0.5,0.9,0.8,2s0.4,2.1,0.4,2.9
			c0,1.2-0.3,2.2-0.9,3.1c-0.4,0.2-0.8,0.3-1.4,0.3c-0.2,0-0.3,0-0.3,0c-0.1,0-0.1-0.1-0.2-0.1c-0.1,0-0.2-0.1-0.3-0.1
			c-0.2,1.1-0.3,2.1-0.3,3c0,2.1,0.5,3.7,1.4,4.8s2.1,1.8,3.5,1.8c1.3,0,2.5-0.7,3.5-2s1.5-3.1,1.5-5.3c0-0.9-0.1-1.9-0.3-2.9
			c-0.4,0.3-0.9,0.4-1.5,0.4c-0.4,0-0.6-0.1-0.7-0.3c-0.5-0.2-0.7-1.3-0.7-3.3c0-1.9,0.3-3,0.8-3.3c2.3-1.2,5-1.9,8.2-1.9
			c3.6,0,5.8,0.6,6.4,1.5c0.4,0.5,0.5,1.4,0.5,2.4c0,2.1-0.5,3.4-1.5,4.1c-0.4,0.3-0.8,0.4-1.3,0.4c-0.2,0-0.4,0-0.8-0.1
			c0,1.1,0,2.8,0.1,5.2s0.1,4.2,0.1,5.4c1-0.1,1.6-0.1,1.8-0.1c0.4,0,0.7,0,0.9,0.1c0.1,0.1,0.2,0.5,0.2,1.1c0,1-0.2,2.2-0.5,3.7
			c-0.3,1.4-0.6,2.4-0.9,2.8c-0.4,0.2-1.2,0.4-2.5,0.8s-2.7,0.4-4,0.4c-1.6,0-2.7-0.2-3.5-0.7c-0.3-0.2-0.4-0.8-0.4-1.4
			c0-0.1,0.1-0.8,0.2-1.9c-3.6,3-6.9,4.4-9.9,4.4c-2.6,0-4.8-1-6.3-3.1c-1.6-2.1-2.4-5.2-2.4-9.5c0-0.7,0.1-2.8,0.4-6.1
			c0,0.1-0.2,0.1-0.5,0.1c-0.5,0-1.2-0.1-2.4-0.2C660.9,69.2,660.7,68,660.7,66z"/>
		<path d="M697.5,63.6c0-1.8,0.1-2.8,0.2-3.1c1.3-0.7,3.8-1,7.5-1c1.4,0,2.4,0.1,3.1,0.3c0.7,0.2,1.4,0.7,2,1.2c0,0.7,0,1.5,0,2.9
			l0.2-0.4c0.1-0.3,0.3-0.7,0.6-1.1s0.6-0.9,1-1.3c0.4-0.4,1-0.8,1.7-1.1s1.5-0.4,2.5-0.4c2.5,0,4.7,1.2,6.5,3.6
			c-0.7,3.4-2.5,5.8-5.5,7.3c-1.2-1-2.3-1.4-3.4-1.4c-1.3,0-2.4,0.8-3.1,2.2c-0.7,1.4-1.1,3.2-1.1,5.4c0,0.8,0,1.5,0.1,2.4
			c0.2,0,0.8,0.1,1.8,0.3l0.6,0.1c0.4,0.4,0.6,1.3,0.6,3c0,1.1-0.1,2.2-0.4,3.3c-0.3,1.1-0.6,1.9-1,2.4c-0.6,0.1-2.4,0.2-5.4,0.2
			c-1.7,0-3.4-0.2-5.2-0.6s-2.8-0.8-3-1.1c-0.1-0.4-0.2-1.4-0.2-3.1c0-2.9,0.1-4.4,0.4-4.6c1.4-0.3,2.3-0.4,2.7-0.4
			c0.5,0,0.9,0,1.2,0.2c-0.6-0.6-0.9-3.2-0.9-7.9c0-1.7,0-2.5,0.2-2.8c-0.4,0.1-0.8,0.1-1.1,0.1c-1.2,0-2-0.3-2.5-1
			C697.6,66.4,697.5,65.3,697.5,63.6z"/>
		<path d="M732.4,64.3c2.9-2.5,7.2-4.3,13-5.3c1.3,2.2,2,4.1,2,5.6c-0.1,0.3-0.5,0.7-1.2,1c-0.7,0.3-1.3,0.5-1.6,0.5
			c0.4,2.2,1.7,5.5,3.9,10c0.9-0.7,1.7-2.1,2.5-4.1c0.8-2,1.5-4.2,2.1-6.5c0.6-2.3,1.1-3.6,1.2-4.2c0.9-0.7,2.3-1,4.4-1
			c1.3,0,2.7,0.3,4.1,1c0,0.1,0.3,1.1,0.8,2.9s0.9,3,1.1,3.7c0.2,0.8,0.6,1.9,1.1,3.2s1,2.5,1.4,3.4c0.5,0.9,1,1.7,1.5,2.2
			c0.6-1.1,1.4-2.9,2.3-5.3c0.9-2.4,1.4-4.2,1.6-5.3c-0.4,0-0.9-0.2-1.7-0.6c-0.8-0.3-1.1-0.7-1.1-1s0.2-1.3,0.7-2.9
			s0.9-2.4,1.2-2.6c5.8,1,10.1,2.8,13,5.3c-0.3,2.3-0.8,4.3-1.4,5.8c-0.6-0.1-1.3-0.4-2.1-0.9c0,1-0.5,2.6-1.5,4.9
			c-0.6,1.3-1.8,3.7-3.6,7.2c0.9,0.3,1.7,1,2.4,2c0,1.3-0.8,2.8-2.3,4.2c-0.1,0-0.6,0.1-1.5,0.1c-0.9,0.1-2,0.1-3.4,0.2
			c-1.4,0-2.8,0.1-4,0.1c-1,0-2.4-1.2-4.1-3.5c-1.7-2.4-3.2-4.9-4.7-7.8c-1.4,2.9-2.9,5.4-4.6,7.8c-1.7,2.4-3.1,3.5-4.1,3.5
			c-1.3,0-2.6,0-4-0.1c-1.4-0.1-2.6-0.1-3.4-0.2c-0.9-0.1-1.4-0.1-1.5-0.1c-1.6-1.4-2.4-2.8-2.4-4.2c0.2-0.2,0.6-0.7,1.2-1.1
			c0.6-0.6,1-0.8,1.2-0.8c-1.8-3.4-3-5.7-3.6-7.2c-1-2.2-1.5-3.8-1.5-4.9c-0.8,0.4-1.5,0.7-2.1,0.9
			C733.2,68.5,732.7,66.5,732.4,64.3z"/>
		<path d="M786,76c0-2.6,0.4-5.2,1.1-7.6c0.7-2.4,1.9-4.5,3.5-6.2c1.6-1.8,3.5-2.5,5.7-2.5c0.9,0,1.7,0.1,2.4,0.4s1.3,0.7,1.7,1.1
			s0.8,0.9,1,1.3c0.3,0.4,0.5,0.8,0.6,1.1l0.2,0.4c0-1.2,0-2.2,0-2.9c1.1-1,3.1-1.5,5.9-1.5c1,0,1.9,0,2.7,0.1s1.4,0.2,1.8,0.3
			c0.4,0.1,0.7,0.2,1,0.3c0.2,0.1,0.4,0.2,0.5,0.2h0.1c0.1,0.3,0.2,1.3,0.2,3.1s-0.1,2.9-0.2,3.2c-0.5,0.7-1.3,1-2.5,1
			c-0.3,0-0.7,0-1.1-0.1c0.1,0.2,0.2,1.1,0.2,2.5c0,4.6-0.2,7.3-0.5,7.7c0.2-0.1,0.5-0.2,0.8-0.2c0.4,0,1.3,0.2,2.7,0.7
			c0.3,0.2,0.4,1.9,0.4,4.9c0,1.5-0.1,2.6-0.1,3.1c-0.2,0.4-0.9,0.8-2.2,1.1s-2.6,0.5-4.1,0.5c-4,0-6.3-0.1-6.7-0.2
			c-0.2-0.7-0.3-1.3-0.3-1.8c0-0.3,0-0.6,0.1-0.7c-0.5,0.2-1.6,0.8-3.2,1.7c-1.7,0.9-2.9,1.4-3.7,1.4c-2.6,0-4.5-1.2-5.8-3.6
			C786.6,82.5,786,79.5,786,76z M792.6,75c0,1.3,0.3,2.3,1,3.3c0.6,0.9,1.5,1.3,2.5,1.3c1.4,0,2.6-0.7,3.8-2.1
			c1.2-1.3,1.7-3,1.7-4.7c0-1.2-0.3-2.2-1-3.1c-0.6-0.8-1.5-1.2-2.6-1.2c-1,0-1.9,0.3-2.8,1.1c-0.9,0.7-1.5,1.7-2,2.9
			C792.8,73.2,792.6,74.1,792.6,75z"/>
		<path d="M817,82.9c0-1.8,0.1-2.8,0.3-3c0.3-0.2,0.9-0.3,1.8-0.5c0.6-0.1,1-0.2,1.2-0.2c-0.4-2.1-0.6-5.7-0.6-10.8
			c0-5.9,0.2-11.1,0.5-15.6c-1,0-1.7-0.1-2.3-0.2c-0.1-0.8-0.1-1.3-0.1-1.8c0-1.7,0.4-3,1.1-4.2c1.5-0.3,3.4-0.5,5.8-0.5
			c1.8,0,3.2,0.2,4.2,0.5c0.4,3.4,0.6,7,0.6,10.9c0,2.8-0.1,6.6-0.4,11.5s-0.4,8.5-0.4,10.3c0.2,0,0.5,0,0.9,0
			c0.9,0,1.7,0.2,2.4,0.5c0.1,0.1,0.2,0.4,0.2,1c0,0.8-0.1,1.9-0.4,3.4c-0.3,1.5-0.5,2.4-0.7,2.8c-0.5,0.3-2.4,0.6-5.5,0.6
			c-4.6,0-7.4-0.6-8.1-1.5C817.1,85.9,817,84.9,817,82.9z"/>
		<path d="M833.9,82.9c0-1.8,0.1-2.8,0.3-3c0.3-0.2,0.9-0.3,1.8-0.5c0.6-0.1,1-0.2,1.2-0.2c-0.4-2.1-0.6-5.7-0.6-10.8
			c0-5.9,0.2-11.1,0.5-15.6c-1,0-1.7-0.1-2.3-0.2c-0.1-0.8-0.1-1.3-0.1-1.8c0-1.7,0.4-3,1.1-4.2c1.5-0.3,3.4-0.5,5.8-0.5
			c1.8,0,3.2,0.2,4.2,0.5c0.4,3.4,0.6,7,0.6,10.9c0,2.8-0.1,6.6-0.4,11.5s-0.4,8.5-0.4,10.3c0.2,0,0.5,0,0.9,0
			c0.9,0,1.7,0.2,2.4,0.5c0.1,0.1,0.2,0.4,0.2,1c0,0.8-0.1,1.9-0.4,3.4c-0.3,1.5-0.5,2.4-0.7,2.8c-0.5,0.3-2.4,0.6-5.5,0.6
			c-4.6,0-7.4-0.6-8.1-1.5C834,85.9,833.9,84.9,833.9,82.9z"/>
		<path d="M850.8,75.4c0-1.8,0.3-3.5,0.9-5.3c0.6-1.8,1.5-3.5,2.7-5.1c1.2-1.7,2.8-2.9,4.8-4c2-1,4.3-1.5,6.8-1.5
			c2.8,0,4.9,0.7,6.5,1.9c1.5,1.2,2.3,3,2.3,5.3c0,3.1-1.3,5.6-3.9,7.5c-2.6,2-5.5,2.9-8.7,2.9c-0.9,0-1.8-0.1-2.6-0.2
			c0.1,2.6,2.1,4,6.1,4c0.7,0,1.3,0,1.8-0.1c0-0.3,0.1-0.5,0.2-0.9c1.5-1.3,3-1.9,4.8-1.9c0.3,0,0.6,0,0.8,0c2.2,1.3,3.5,3.4,4,6.5
			c0,0.3-0.2,0.5-0.4,0.9c-0.2,0.3-0.4,0.7-0.7,0.9c-0.2,0.2-0.6,0.6-1,0.8c-0.4,0.3-0.8,0.6-1,0.7c-0.2,0.1-0.6,0.3-1.1,0.7
			c-0.5,0.3-0.8,0.4-0.8,0.4c-0.2,0-0.4,0-0.5-0.1c-0.1,0-0.3-0.1-0.4-0.2c-0.1-0.1-0.2-0.2-0.2-0.2s-0.1-0.2-0.2-0.4
			c-0.1-0.2-0.2-0.3-0.2-0.4c-1.9,0.8-3.8,1.2-5.8,1.2c-4.5,0-7.9-1.3-10.4-3.9C852.1,82.1,850.8,79.1,850.8,75.4z M860.6,69.7
			c0,1.2,0.8,1.8,2.4,1.8c1.2,0,2.4-0.3,3.5-0.9c1.1-0.7,1.7-1.4,1.7-2.3c0-0.7-0.2-1.3-0.6-2c-0.4-0.7-1-1-1.8-1
			c-1,0-2.1,0.4-3.3,1.3C861.2,67.6,860.6,68.6,860.6,69.7z"/>
		<path d="M877.7,61.4c0-0.8,0.1-1.2,0.2-1.4c0.9-0.1,1.6-0.2,2.1-0.2c0.1,0,0.3,0,0.5,0s0.4,0,0.5,0h0.2V49.4
			c2.6-0.2,4.1-0.3,4.7-0.3c1.2,0,2.8,0.1,4.6,0.3v10.5c2.9,0.1,4.7,0.3,5.4,0.8c0.5,0.7,0.7,2.3,0.7,5.2c0,0.8-0.1,1.2-0.2,1.4
			c-1,0.1-1.7,0.2-2.3,0.2h-0.4c-0.2,0-0.7,0-1.3,0s-1.3,0-2.2,0c0,0.2,0,1.5,0,4s0,3.8,0,4.1c0,1.6,0.3,2.8,0.8,3.4s1.4,1,2.5,1
			c0.4,0,0.6,0,0.7-0.1c0.1-0.1,0.2-0.3,0.2-0.7c0-0.2,0.4-0.4,1.3-0.7l3.3-0.9c0.3,1.1,0.5,2.3,0.5,3.7c0,2.8-0.2,4.5-0.7,5.2
			c-0.1,0.1-0.4,0.2-0.8,0.4c-0.4,0.2-0.7,0.4-0.8,0.4s-0.4,0.1-0.7,0.3c-0.3,0.1-0.7,0.2-0.9,0.3s-0.6,0.1-1.1,0.2
			c-0.5,0.1-1,0.1-1.6,0.1s-1.2,0-2,0c-1.4,0-2.6-0.1-3.5-0.2c-0.9-0.1-1.8-0.6-2.6-1c-0.8-0.6-1.5-1.2-1.9-2.2
			c-0.5-0.9-0.9-2.2-1.2-3.7s-0.5-3.5-0.5-5.7c0-2.2,0-5,0-8.1c-1.5-0.2-2.5-0.4-3-0.8C877.9,65.9,877.7,64.1,877.7,61.4z"/>
		<path d="M901.8,61.5c0-4.2,0.7-8,2.2-11.8c0.2,0,0.4-0.1,0.8-0.3c0.4-0.1,0.7-0.3,1-0.3c0.3-0.1,0.6-0.1,1-0.1
			c0.8,0,1.6,0.2,2.5,0.8c1.7,4.1,2.5,8.4,2.5,12.7c0,4.9-1.1,9.8-3.2,14.3c-0.5,0.5-1.1,0.8-1.8,0.8c-0.6,0-1.1-0.2-1.6-0.6
			C902.9,71.7,901.8,66.5,901.8,61.5z M903.8,84.2c0-1,0.1-2.1,0.3-3.1c0.7-0.3,1.5-0.4,2.3-0.4c0.9,0,1.8,0.1,2.7,0.4
			c0.3,1.1,0.4,2.2,0.4,3.3s-0.1,2.2-0.4,3.3c-0.6,0.3-1.4,0.4-2.4,0.4c-1.1,0-2-0.1-2.6-0.4C903.9,86.5,903.8,85.3,903.8,84.2z"/>
	</g>
</g>
</svg>
