<?xml version="1.0" encoding="utf-8"?>
<!-- Generator: Adobe Illustrator 26.4.1, SVG Export Plug-In . SVG Version: 6.00 Build 0)  -->
<svg version="1.1" id="FQT-Status" xmlns="http://www.w3.org/2000/svg" xmlns:xlink="http://www.w3.org/1999/xlink" x="0px" y="0px"
	 viewBox="0 0 1080 135" style="enable-background:new 0 0 1080 135;" xml:space="preserve">
<style type="text/css">
	
		.st0{fill:#FFFFFF;stroke:#000000;stroke-width:0.4741;stroke-linecap:round;stroke-linejoin:round;stroke-miterlimit:10;stroke-opacity:0.4;}
</style>
<g id="Status">
	<path class="st0" d="M999.1,59.5V33.3c0-15.8-11.5-28.7-25.8-28.7H130.8c-14.2,0-25.8,12.9-25.8,28.7v68.4
		c0,15.8,11.5,28.7,25.8,28.7h842.5c14.2,0,25.8-12.8,25.8-28.7V89.2c19.2-12.3,38.4-24.6,57.6-36.9
		C1037.5,54.7,1018.3,57.1,999.1,59.5z"/>
	<g>
		<path d="M205.6,68.7c0-5.6,1.3-10.3,3.9-14.2s6-5.7,10.4-5.7c3.2,0,5.5,0.8,7,2.4c0.1-1.1,0.4-1.8,1.1-2c0.8-0.4,1.9-0.6,3-0.6
			c1.6,0,2.8,0.3,3.7,1.1c0.4,2.5,0.6,4.7,0.6,6.5c0,3.2-0.6,5.7-1.8,7.6c-1.8,0.8-3.3,1.1-4.6,1.1s-2.6-0.3-4-1.1
			c0-0.1-0.1-0.2-0.1-0.5c0-0.4,0.1-0.8,0.1-0.9c0-1.4-0.5-2.5-1.6-3.3c-1.1-0.9-2.1-1.2-3-1.2c-1.4,0-2.5,1.2-3.5,3.5
			s-1.5,4.8-1.5,7.7c0,2.6,0.5,4.7,1.4,6.3c0.9,1.5,2.1,2.3,3.5,2.3c1.6,0,3.1-1,4.6-3c-0.1-0.7-0.2-1.1-0.2-1.1c0-0.1,0-0.1,0-0.2
			c0-0.1,0-0.1,0-0.2c1.2-0.7,2.6-1,4-1c1.5,0,3.1,0.3,4.9,1.1c1.2,2,1.8,4.5,1.8,7.6c0,1.8-0.2,3.8-0.6,6.5c-1,0.9-2.4,1.3-4,1.3
			c-1.2,0-2.1-0.3-2.8-0.9c-0.7-0.3-1.1-1-1.1-2.1c-2.2,1.7-4.4,2.4-6.7,2.4c-1.8,0-3.5-0.4-5.2-1.2s-3.2-2-4.7-3.5
			c-1.4-1.5-2.6-3.5-3.4-6C206,74.7,205.6,71.8,205.6,68.7z"/>
		<path d="M238.3,82.9c0-1.8,0.1-2.8,0.3-3c0.3-0.2,0.9-0.3,1.8-0.5c0.6-0.1,1-0.2,1.2-0.2c-0.4-2.1-0.6-5.7-0.6-10.8
			c0-5.9,0.2-11.1,0.5-15.6c-1,0-1.7-0.1-2.3-0.2c-0.1-0.8-0.1-1.3-0.1-1.8c0-1.7,0.4-3,1.1-4.2c1.5-0.3,3.4-0.5,5.8-0.5
			c1.8,0,3.2,0.2,4.2,0.5c0.4,3.4,0.6,7,0.6,10.9c0,2.8-0.1,6.6-0.4,11.5c-0.2,4.9-0.4,8.5-0.4,10.3c0.2,0,0.5-0.1,0.9-0.1
			c0.9,0,1.7,0.2,2.4,0.7c0.1,0.1,0.2,0.4,0.2,0.9c0,0.8-0.1,1.9-0.4,3.4c-0.3,1.5-0.5,2.4-0.7,2.8c-0.5,0.3-2.4,0.6-5.5,0.6
			c-4.6,0-7.4-0.6-8.1-1.5C238.4,85.9,238.3,84.9,238.3,82.9z"/>
		<path d="M255.1,83.1c0-1.8,0.3-2.9,1-3.2c0.3-0.2,0.9-0.3,1.8-0.5c0.6-0.1,1-0.2,1.2-0.2c-0.4-4.3-0.6-6.9-0.6-8.1
			c0-2.5,0.2-4.3,0.5-5.1c-1,0-1.7-0.1-2.2-0.2c-0.3-0.8-0.4-1.4-0.4-2.1c0-1.1,0.5-2.4,1.4-4c1.2-0.2,3.5-0.3,6.9-0.3
			c1.2,0,2.3,0.1,3.4,0.2s2,0.3,2.6,0.5c0.6,0.2,0.9,0.4,0.9,0.6c0.3,0.4,0.4,1.1,0.4,2.1c0,2-0.3,3.3-0.9,4
			c-0.1,0.1-0.6,0.2-1.3,0.2s-1.3-0.1-1.7-0.2c-0.4,2.5-0.5,5.9-0.5,9.9c0,1.8,0,2.6,0.1,2.8c0.2,0,0.5-0.1,0.8-0.1
			c0.8,0,1.6,0.2,2.3,0.7c0.1,0.2,0.2,0.7,0.2,1.3c0,0.9-0.1,2-0.4,3.2s-0.5,2.1-0.8,2.5c-0.5,0.3-2.3,0.6-5.2,0.6
			c-4.9,0-7.7-0.6-8.5-1.5C255.4,85.7,255.1,84.7,255.1,83.1z M260.1,48.8c0-1,0.5-1.5,1.5-1.5c0.8,0,1.7,0.2,2.7,0.9
			c0.7-0.8,1.6-1.1,2.8-1.1c0.7,0,1.3,0.2,1.9,0.9c0.5,0.5,0.8,1.3,0.8,2.2c0,0.4-0.1,1-0.3,1.3c-0.2,0.4-0.4,0.8-0.6,1.1
			c-0.2,0.3-0.5,0.7-1,1c-0.5,0.4-0.8,0.7-1.1,0.9c-0.2,0.1-0.7,0.4-1.3,0.9c-0.6,0.4-1,0.7-1.2,0.8c-1.3-1.1-2.4-2.3-3.1-3.6
			C260.5,51,260.1,49.8,260.1,48.8z"/>
		<path d="M274.1,75.2c0-5.1,1.4-8.9,4.3-11.5c2.9-2.6,7.2-4,13-4l0.4-1.4c0.9-0.2,1.8-0.3,2.7-0.3c2,0,3.8,0.7,5.4,1.9
			c0.1,0.5,0.1,1.3,0.1,2.3c0,1.9-0.3,3.5-0.9,4.8c-0.6,1.3-1.3,2.2-2.1,2.5c-1.4,0.5-2.8,0.9-3.9,0.9c-1.2,0-2.4-0.3-3.4-0.9l0.4-2
			c-0.8-0.2-1.6-0.4-2.3-0.4c-1.5,0-2.8,0.8-3.8,2.3s-1.5,3.2-1.5,5.2c0,1.5,0.3,3,1,4.2c0.7,1.2,1.5,1.9,2.5,1.9
			c0.9,0,2.1-0.4,3.4-1.3l-0.4-1.5c1.6-1.3,3.4-1.9,5.4-1.9c0.7,0,1.6,0.1,2.6,0.4c2,2.4,3,5.4,3,8.7c0,0.8,0,1.4-0.1,2.2
			c-1.8,1.3-3.9,2-6.3,2c-0.3,0-0.9,0-1.6-0.1l-0.5-1.5c-2.3,0.4-4.2,0.7-5.9,0.7c-3.6,0-6.4-1.1-8.5-3.2
			C275.1,83,274.1,79.6,274.1,75.2z"/>
		<path d="M301.3,51c0-1.9,0.4-3.1,1.2-3.6c1.4-0.8,3.4-1.1,6.1-1.1c3.4,0,5.7,0.3,6.8,1.1c0.7,0.3,1,1.4,1,3.4
			c0,1.6-0.2,2.8-0.6,3.1c-0.8,0.1-1.4,0.2-1.9,0.2c0,1.8,0.2,5.5,0.5,11.3c1.8-1.2,3.4-2.5,4.8-4c1.4-1.4,2.1-2.5,2.1-3.3
			c0-0.2-0.1-0.4-0.2-0.5c-0.2,0.2-0.7,0.4-1.3,0.4c-0.2,0-0.4,0-0.5-0.1c-0.3-0.3-0.5-1.1-0.5-2.3c0-0.5,0.1-0.9,0.3-1
			c1.2-0.4,2.8-0.5,4.6-0.5c3.8,0,6.6,0.4,8.6,1.2c0.1,0.3,0.2,0.8,0.2,1.3c0,1.7-0.4,2.6-1.2,3c-0.1,0-0.3,0-0.5,0
			c-0.9,0-1.5-0.1-1.8-0.4c0,0.2-0.3,0.8-0.9,1.5c-0.6,0.8-1.5,1.8-2.6,3.1c-1.2,1.2-2.4,2.4-3.7,3.5c3.2,1.4,5.9,3.6,8.2,6.5
			s3.3,4.9,3.3,6.2c0.3-0.1,0.6-0.2,1-0.2c0.3,0,0.7,0.1,1.3,0.3c0.6,0.3,0.9,1.4,0.9,3.2c0,1.7-0.3,2.9-0.8,3.7c-1.1,0.7-3.4,1-7,1
			c-2.2,0-4.1-0.2-5.5-0.9c-0.8-1.1-1.2-2.5-1.2-4.4c0-1.1,0.2-2,0.6-2.5c0.3-0.2,0.6-0.3,1-0.3c0.3,0,0.6,0.1,0.9,0.2
			c-0.4-1.3-0.9-2.4-1.7-3.4c-0.8-1-1.7-1.8-2.7-2.3c-1.1-0.6-1.9-1-2.6-1.3c-0.7-0.2-1.5-0.6-2.6-0.9c0,0.9,0.1,2.2,0.1,4
			c0,1.4,0,2.5-0.1,3.2c0.4-0.2,0.9-0.4,1.6-0.4c0.6,0,1,0.1,1.1,0.3c0.5,0.1,0.8,1.3,0.8,3.5c0,2.1-0.1,3.5-0.2,4.4
			c-1.8,0.6-5.1,0.8-10.1,0.8c-2.3,0-3.9-0.2-4.9-0.7c-0.8-1-1.1-2.5-1.1-4.7c0-1.5,0.3-2.5,0.8-2.8c0.5-0.3,1.3-0.6,2.4-0.6
			c0.3,0,0.5,0,0.7,0.1c-0.2-10.1-0.3-17.2-0.3-21.2c0-2.3,0-3.6,0.1-3.9c-0.6,0.3-1.2,0.4-1.7,0.4c-0.7,0-1.2-0.2-1.7-0.7
			C301.5,53.1,301.3,52.1,301.3,51z"/>
		<path d="M347.7,83.8c0-2.3,0.4-3.7,1.3-4.3c0.4-0.3,0.9-0.5,1.4-0.5c0.2,0,0.4,0,0.8,0.1c0-1.1,0-2.8-0.1-5.1s-0.1-4.1-0.1-5.3
			c-0.1,0-0.3,0-0.6,0.1c-0.3,0.1-0.5,0.1-0.6,0.1s-0.3,0-0.6-0.1c-0.3-0.1-0.5-0.1-0.6-0.1c-0.1-0.1-0.2-0.6-0.2-1.1
			c0-1,0.1-2.2,0.4-3.7s0.5-2.4,0.8-2.8c0.4-0.2,1.2-0.4,2.4-0.7c1.2-0.2,2.4-0.3,3.7-0.3c1.6,0,2.9,0.2,4,0.7
			c0.2,0.2,0.4,0.8,0.4,1.3c0,0.1-0.1,0.8-0.3,1.9c3.5-3,6.8-4.4,9.8-4.4c3.2,0,5.6,1.4,7.2,4.4c3.9-2.9,7.4-4.4,10.5-4.4
			c2.5,0,4.6,1,6.2,3.1c1.6,2.1,2.4,5.2,2.4,9.4c0,0.6-0.1,2.5-0.4,5.9c0-0.1,0.2-0.1,0.5-0.1c0.5,0,1.2,0.1,2.4,0.2
			c0.3,0.3,0.4,1.5,0.4,3.6c0,2.5-0.2,4.2-0.5,4.7c-2.5,0.8-4.8,1.1-6.8,1.1c-2.3,0-4.3-0.3-6-1c-0.2-0.2-0.5-0.9-0.8-2
			c-0.3-1.1-0.4-2.1-0.4-3c0-1.2,0.3-2.3,0.9-3.2c0.4-0.2,0.8-0.4,1.4-0.4c0.2,0,0.3,0,0.4,0.1c0.1,0,0.1,0.1,0.2,0.1
			c0.1,0.1,0.2,0.1,0.3,0.1c0.2-1.1,0.3-2.1,0.3-3c0-2.1-0.4-3.7-1.3-4.8s-2-1.7-3.3-1.7c-1,0-1.9,0.3-2.7,1c-0.9,0.7-1.5,1.5-2,2.6
			c-0.1,2.6-0.2,4.5-0.3,5.4c0-0.1,0.1-0.1,0.4-0.1c0.5,0,1.2,0.1,2.4,0.2c0.3,0.3,0.5,1.5,0.5,3.6c0,2.5-0.2,4.2-0.5,4.7
			c-2.5,0.8-4.8,1.1-6.9,1.1c-2.3,0-4.3-0.3-6-1c-0.2-0.2-0.5-0.9-0.8-2s-0.4-2.1-0.4-3c0-1.2,0.3-2.3,0.9-3.2
			c0.4-0.2,0.8-0.4,1.4-0.4c0.2,0,0.3,0,0.4,0.1c0.1,0,0.1,0.1,0.2,0.1c0.1,0.1,0.2,0.1,0.3,0.1c0.1-0.9,0.2-1.5,0.2-2.1
			c0-2.4-0.4-4.3-1.3-5.5s-2-1.9-3.3-1.9c-1.4,0-2.5,0.7-3.6,1.9c-1,1.3-1.5,3-1.5,5.2c0,1,0.1,2,0.3,3c0.4-0.2,0.9-0.4,1.5-0.4
			s1,0.1,1.1,0.3c0.3,0,0.5,0.8,0.5,2.2c0,0.3-0.2,1.9-0.5,4.6c-2.4,1.2-5.4,1.9-9,1.9c-3.1,0-5.1-0.5-5.9-1.5
			C347.8,85.7,347.7,84.9,347.7,83.8z"/>
		<path d="M400.2,75.4c0-1.8,0.3-3.5,0.9-5.3c0.6-1.8,1.5-3.5,2.7-5.1c1.2-1.7,2.8-2.9,4.8-4c2-1,4.3-1.5,6.8-1.5
			c2.8,0,4.9,0.7,6.5,1.9c1.5,1.2,2.3,3,2.3,5.3c0,3.1-1.3,5.6-3.9,7.5c-2.6,2-5.5,2.9-8.7,2.9c-0.9,0-1.8-0.1-2.6-0.2
			c0.1,2.6,2.1,4,6.1,4c0.7,0,1.3,0,1.8-0.1c0-0.3,0-0.5,0.1-0.9c1.5-1.3,3-1.9,4.8-1.9c0.3,0,0.6,0,0.8,0c2.2,1.3,3.5,3.4,4,6.5
			c0,0.3-0.2,0.5-0.4,0.9c-0.2,0.3-0.4,0.7-0.7,0.9c-0.2,0.2-0.6,0.6-1,0.8c-0.4,0.3-0.8,0.6-1,0.7c-0.2,0.1-0.6,0.3-1.1,0.7
			c-0.5,0.3-0.8,0.4-0.8,0.4c-0.2,0-0.4,0-0.5-0.1c-0.1,0-0.3-0.1-0.4-0.2s-0.2-0.2-0.2-0.2s-0.1-0.2-0.2-0.4s-0.2-0.3-0.2-0.4
			c-1.9,0.8-3.8,1.2-5.8,1.2c-4.5,0-7.9-1.3-10.4-3.9C401.4,82.1,400.2,79.1,400.2,75.4z M409.9,69.7c0,1.2,0.8,1.9,2.4,1.9
			c1.2,0,2.4-0.3,3.5-1s1.6-1.4,1.6-2.3c0-0.7-0.2-1.3-0.6-2c-0.4-0.7-1-1-1.8-1c-1,0-2.1,0.4-3.3,1.3
			C410.5,67.6,409.9,68.6,409.9,69.7z"/>
		<path d="M436.8,61.4c0-0.8,0.1-1.2,0.2-1.4c0.9-0.1,1.6-0.2,2.1-0.2c0.1,0,0.3,0,0.5,0s0.4,0,0.5,0h0.2V49.4
			c2.6-0.2,4.1-0.3,4.7-0.3c1.2,0,2.8,0.1,4.6,0.3v10.5c2.9,0.1,4.7,0.3,5.4,0.8c0.5,0.7,0.7,2.3,0.7,5.2c0,0.8-0.1,1.2-0.2,1.4
			c-1,0.1-1.7,0.2-2.3,0.2h-0.4c-0.2,0-0.7,0-1.3,0c-0.6,0-1.3,0-2.2,0c0,0.2,0,1.5,0,4s0,3.8,0,4.1c0,1.6,0.3,2.8,0.8,3.4
			s1.4,1,2.5,1c0.4,0,0.6,0,0.7-0.1c0.1-0.1,0.2-0.3,0.2-0.7c0-0.2,0.4-0.4,1.3-0.7l3.3-0.9c0.3,1.1,0.5,2.3,0.5,3.7
			c0,2.8-0.2,4.5-0.7,5.2c-0.1,0.1-0.4,0.2-0.8,0.4c-0.4,0.2-0.7,0.4-0.8,0.4c-0.1,0-0.4,0.2-0.7,0.3c-0.3,0.1-0.7,0.2-0.9,0.3
			s-0.6,0.1-1.1,0.2c-0.5,0.1-1,0.1-1.6,0.2c-0.6,0-1.2,0-2,0c-1.4,0-2.6-0.1-3.5-0.2c-0.9-0.1-1.8-0.5-2.6-1
			c-0.8-0.6-1.5-1.2-1.9-2.2c-0.5-0.9-0.9-2.2-1.2-3.7c-0.4-1.7-0.5-3.5-0.5-5.7c0-2.2,0-4.9,0-8.1c-1.5-0.2-2.5-0.4-3-0.8
			C437,65.9,436.8,64.1,436.8,61.4z"/>
		<path d="M460.2,76.6c0-2.6,0.6-5.3,1.9-7.9c1.3-2.5,3.1-4.7,5.4-6.5c2.4-1.8,4.9-2.6,7.7-2.6c3.4,0,5.9,1.2,7.5,3.7
			s2.4,5.7,2.4,9.5c0,5.1-1.2,8.8-3.7,11.4c-2.5,2.6-5.7,3.9-9.7,3.9c-3.7,0-6.6-1.1-8.6-3.3C461.2,82.7,460.2,79.9,460.2,76.6z
			 M469.9,75.1c0,1.1,0.3,2.1,0.9,2.9c0.6,0.9,1.5,1.2,2.5,1.2c1.3,0,2.6-0.7,3.7-2s1.7-2.8,1.7-4.5c0-1.2-0.3-2.2-1-3.1
			c-0.7-0.8-1.5-1.2-2.6-1.2c-1.5,0-2.7,0.7-3.8,2.1C470.4,72.1,469.9,73.6,469.9,75.1z"/>
		<path d="M496.9,85.8c0-1.1,0.2-2.1,0.5-3.1c0.3-1,0.8-2,1.5-2.9c0.7-0.9,1.6-1.3,2.6-1.3c0.8,0,1.7,0.2,2.7,0.5
			c1,0.3,1.5,0.9,1.5,1.4c0,0.1,0,0.3-0.1,0.5c1.2,0.4,2,0.6,2.4,0.6c0.8,0,1.4-0.3,2-0.9c0.6-0.5,0.9-1.2,0.9-2.1
			c0-0.9-0.3-1.5-0.9-2c-0.6-0.4-1.4-0.7-2.4-0.7c-0.9,0-2-0.1-3-0.3c-1.1-0.2-2.1-0.4-3-0.8c-1-0.3-1.7-1-2.3-2
			c-0.6-1-0.9-2.4-0.9-4.1c0-2.3,0.6-4.2,1.7-5.7c1.1-1.5,2.5-2.5,4-3s3.3-0.8,5.2-0.8c1.5,0,3.1,0.2,4.9,0.5
			c0.3-0.7,0.7-1.1,1.1-1.2c2.5,0.2,4.1,1.2,4.9,2.9c-0.1,1.1-0.2,2.1-0.5,3.1c-0.2,1-0.7,2-1.5,2.9c-0.7,0.9-1.6,1.4-2.6,1.4
			c-0.8,0-1.7-0.2-2.7-0.5c-1-0.3-1.5-0.9-1.5-1.5c0-0.1,0-0.3,0.1-0.7c-0.8-0.2-1.4-0.4-1.9-0.4c-0.8,0-1.5,0.3-2,0.9
			c-0.6,0.6-0.9,1.2-0.9,1.9c0,0.9,0.5,1.5,1.4,1.9c0.9,0.4,2.1,0.7,3.4,0.8c1.4,0.1,2.7,0.3,4.1,0.7c1.4,0.3,2.5,1,3.5,2
			c0.9,1.1,1.4,2.5,1.4,4.4c0,3.2-1.2,5.6-3.7,7.3s-5.4,2.4-8.8,2.4c-1.6,0-3.3-0.2-5.1-0.6c-0.3,0.7-0.7,1.1-1.1,1.2
			C499.4,88.5,497.7,87.5,496.9,85.8z"/>
		<path d="M522.9,75.4c0-1.8,0.3-3.5,0.9-5.3c0.6-1.8,1.5-3.5,2.7-5.1c1.2-1.7,2.8-2.9,4.8-4c2-1,4.3-1.5,6.8-1.5
			c2.8,0,4.9,0.7,6.5,1.9c1.5,1.2,2.3,3,2.3,5.3c0,3.1-1.3,5.6-3.9,7.5c-2.6,2-5.5,2.9-8.7,2.9c-0.9,0-1.8-0.1-2.6-0.2
			c0.1,2.6,2.1,4,6.1,4c0.7,0,1.3,0,1.8-0.1c0-0.3,0.1-0.5,0.2-0.9c1.5-1.3,3-1.9,4.7-1.9c0.3,0,0.6,0,0.8,0c2.2,1.3,3.5,3.4,4,6.5
			c0,0.3-0.2,0.5-0.4,0.9c-0.2,0.3-0.4,0.7-0.7,0.9c-0.2,0.2-0.6,0.6-1,0.8c-0.4,0.3-0.8,0.6-1,0.7c-0.2,0.1-0.6,0.3-1.1,0.7
			c-0.5,0.3-0.8,0.4-0.8,0.4c-0.2,0-0.4,0-0.5-0.1c-0.1,0-0.3-0.1-0.4-0.2c-0.1-0.1-0.2-0.2-0.2-0.2s-0.1-0.2-0.2-0.4
			c-0.1-0.2-0.2-0.3-0.2-0.4c-1.9,0.8-3.8,1.2-5.7,1.2c-4.5,0-7.9-1.3-10.4-3.9C524.1,82.1,522.9,79.1,522.9,75.4z M532.6,69.7
			c0,1.2,0.8,1.9,2.4,1.9c1.2,0,2.4-0.3,3.5-1s1.6-1.4,1.6-2.3c0-0.7-0.2-1.3-0.6-2c-0.4-0.7-1-1-1.8-1c-1,0-2.1,0.4-3.3,1.3
			C533.2,67.6,532.6,68.6,532.6,69.7z"/>
		<path d="M550.7,75.4c0-1.8,0.3-3.5,0.9-5.3c0.6-1.8,1.5-3.5,2.7-5.1c1.2-1.7,2.8-2.9,4.8-4c2-1,4.3-1.5,6.8-1.5
			c2.8,0,4.9,0.7,6.5,1.9c1.5,1.2,2.3,3,2.3,5.3c0,3.1-1.3,5.6-3.9,7.5c-2.6,2-5.5,2.9-8.7,2.9c-0.9,0-1.8-0.1-2.6-0.2
			c0.1,2.6,2.1,4,6.1,4c0.7,0,1.3,0,1.8-0.1c0-0.3,0.1-0.5,0.2-0.9c1.5-1.3,3-1.9,4.8-1.9c0.3,0,0.6,0,0.8,0c2.2,1.3,3.5,3.4,4,6.5
			c0,0.3-0.2,0.5-0.4,0.9c-0.2,0.3-0.4,0.7-0.7,0.9c-0.2,0.2-0.6,0.6-1,0.8c-0.4,0.3-0.8,0.6-1,0.7c-0.2,0.1-0.6,0.3-1.1,0.7
			c-0.5,0.3-0.8,0.4-0.8,0.4c-0.2,0-0.4,0-0.5-0.1c-0.1,0-0.3-0.1-0.4-0.2c-0.1-0.1-0.2-0.2-0.2-0.2s-0.1-0.2-0.2-0.4
			c-0.1-0.2-0.2-0.3-0.2-0.4c-1.9,0.8-3.8,1.2-5.8,1.2c-4.5,0-7.9-1.3-10.4-3.9C552,82.1,550.7,79.1,550.7,75.4z M560.5,69.7
			c0,1.2,0.8,1.9,2.4,1.9c1.2,0,2.4-0.3,3.5-1s1.7-1.4,1.7-2.3c0-0.7-0.2-1.3-0.6-2c-0.4-0.7-1-1-1.8-1c-1,0-2.1,0.4-3.3,1.3
			C561.1,67.6,560.5,68.6,560.5,69.7z"/>
		<path d="M586.4,99.4c0-1.8,0.2-4,0.7-6.5c0.5-2.5,0.9-4,1.2-4.3c0.4-0.2,0.8-0.2,1.3-0.2c1.5,0,2.8,0.4,3.9,1.2
			c0.1,0,0.1,0.2,0.1,0.8c0,0.3,0,0.7-0.1,0.9c0.5,0.1,1.2,0.2,2,0.4s1.5,0.3,1.9,0.4s0.9,0.2,1.4,0.3s1,0.2,1.5,0.2
			s0.9,0.1,1.5,0.1c2.8,0,4.7-0.7,6-2.1c1.2-1.3,2-3.6,2.2-6.9c-3.5,3-6.9,4.4-10.4,4.4c-5.9,0-8.8-4.5-8.8-13.4
			c0-2.1,0.1-4,0.3-5.6c0,0-0.2,0-0.5,0c-0.5,0-1.3-0.1-2.3-0.2c-0.4-0.8-0.6-2.1-0.6-3.8c0-2.1,0.2-3.5,0.6-4.3
			c2.6-0.8,4.9-1.1,7-1.1c2.2,0,4.2,0.3,5.8,1.1c0.7,1,1,2.3,1,4.1c0,1.6-0.3,2.9-0.8,3.7c-0.3,0.2-0.7,0.4-1.2,0.4
			c-0.1,0-0.2,0-0.3-0.1c-0.1,0-0.1-0.1-0.2-0.1s-0.1-0.1-0.2-0.1c-0.2,1.1-0.3,2.3-0.3,3.6c0,2.1,0.4,3.7,1.2,4.8
			c0.8,1.1,1.8,1.8,3,1.8c1.4,0,2.6-0.7,3.7-2c1.1-1.3,1.6-3.1,1.6-5.3c0-0.9-0.1-1.9-0.3-3c-0.4,0.2-0.9,0.4-1.6,0.4
			c-0.6,0-1-0.1-1.1-0.3c-0.5-0.2-0.8-1.3-0.8-3.3s0.3-3.1,0.8-3.4c1.6-1.2,4.5-1.9,8.7-1.9c3.7,0,6.1,0.4,7.1,1.2
			c0.1,0.4,0.2,1.2,0.2,2.2c0,2-0.2,3.3-0.6,3.7c-0.2,0.3-0.7,0.4-1.5,0.4c-0.5,0-1-0.2-1.7-0.5c0,0.8,0.1,2.1,0.3,3.8
			c0.1,1.8,0.3,3.5,0.4,5.2c0.1,1.6,0.1,3.2,0.1,4.6c0,3.8-0.4,7.2-1.1,9.9s-1.7,4.9-3,6.5s-2.7,2.8-4.2,3.4c-1.5,0.7-3.2,1.1-5,1.1
			s-3.3,0-4.3-0.1c-1.1,0-2.4-0.2-4.1-0.7c-1.7-0.3-3.2-0.9-4.5-1.7c-0.3,1.2-0.5,1.9-0.6,1.9c-0.2,0.2-0.9,0.3-2.2,0.3
			c-2.1,0-3.2-0.1-3.3-0.4C586.5,100.8,586.4,100.2,586.4,99.4z"/>
		<path d="M623.5,76.6c0-2.6,0.6-5.3,1.9-7.9c1.3-2.5,3.1-4.7,5.4-6.5c2.4-1.8,4.9-2.6,7.7-2.6c3.4,0,5.9,1.2,7.5,3.7
			s2.4,5.7,2.4,9.5c0,5.1-1.2,8.8-3.7,11.4c-2.5,2.6-5.7,3.9-9.7,3.9c-3.7,0-6.6-1.1-8.6-3.3C624.5,82.7,623.5,79.9,623.5,76.6z
			 M633.2,75.1c0,1.1,0.3,2.1,0.9,2.9c0.6,0.9,1.5,1.2,2.5,1.2c1.3,0,2.6-0.7,3.7-2s1.7-2.8,1.7-4.5c0-1.2-0.3-2.2-1-3.1
			c-0.7-0.8-1.5-1.2-2.6-1.2c-1.5,0-2.7,0.7-3.8,2.1C633.8,72.1,633.2,73.6,633.2,75.1z"/>
		<path d="M650.4,66c0-2.5,0.2-4.1,0.5-4.6c2.5-0.8,4.8-1.1,6.8-1.1c2.3,0,4.3,0.3,6,1.1c0.2,0.2,0.5,0.9,0.8,2s0.4,2.1,0.4,2.9
			c0,1.2-0.3,2.2-0.9,3.1c-0.4,0.2-0.8,0.3-1.4,0.3c-0.2,0-0.3,0-0.4,0c-0.1,0-0.1-0.1-0.2-0.1c-0.1-0.1-0.2-0.1-0.3-0.1
			c-0.2,1.1-0.3,2.1-0.3,3c0,2.1,0.5,3.7,1.4,4.8s2.1,1.8,3.5,1.8c1.3,0,2.5-0.7,3.5-2s1.5-3.1,1.5-5.3c0-0.9-0.1-1.9-0.3-2.9
			c-0.4,0.3-0.9,0.4-1.5,0.4c-0.4,0-0.6-0.1-0.7-0.3c-0.5-0.2-0.7-1.3-0.7-3.3c0-1.9,0.3-3,0.8-3.3c2.3-1.2,5-1.9,8.2-1.9
			c3.6,0,5.8,0.6,6.4,1.5c0.4,0.5,0.5,1.4,0.5,2.4c0,2.1-0.5,3.4-1.5,4.1c-0.4,0.3-0.8,0.4-1.3,0.4c-0.2,0-0.4,0-0.8-0.1
			c0,1.1,0,2.8,0.1,5.2s0.1,4.2,0.1,5.4c1-0.1,1.6-0.1,1.8-0.1c0.4,0,0.7,0,0.9,0.1c0.1,0.1,0.2,0.5,0.2,1.1c0,1-0.2,2.2-0.5,3.7
			s-0.6,2.4-0.9,2.8c-0.4,0.2-1.2,0.4-2.5,0.8s-2.7,0.4-4,0.4c-1.6,0-2.7-0.2-3.5-0.7c-0.3-0.2-0.4-0.8-0.4-1.4
			c0-0.1,0.1-0.8,0.2-1.9c-3.6,3-6.9,4.4-9.9,4.4c-2.6,0-4.8-1-6.3-3.1s-2.4-5.2-2.4-9.5c0-0.7,0.1-2.8,0.4-6.1
			c0,0.1-0.2,0.1-0.5,0.1c-0.5,0-1.2-0.1-2.3-0.2C650.6,69.2,650.4,68,650.4,66z"/>
		<path d="M687.2,63.6c0-1.8,0.1-2.8,0.2-3.1c1.3-0.7,3.8-1,7.5-1c1.4,0,2.4,0.1,3.1,0.3c0.7,0.2,1.4,0.7,2,1.2c0,0.7,0,1.5,0,2.9
			l0.2-0.4c0.1-0.3,0.3-0.7,0.6-1.1s0.6-0.9,1-1.3c0.4-0.4,1-0.8,1.7-1.1s1.5-0.4,2.5-0.4c2.5,0,4.7,1.2,6.5,3.6
			c-0.7,3.4-2.5,5.8-5.5,7.3c-1.2-1-2.3-1.4-3.4-1.4c-1.3,0-2.4,0.8-3.1,2.2c-0.7,1.4-1.1,3.2-1.1,5.4c0,0.8,0,1.5,0.1,2.4
			c0.2,0,0.8,0.1,1.8,0.3l0.6,0.1c0.4,0.4,0.6,1.3,0.6,2.9c0,1.1-0.1,2.2-0.4,3.3c-0.3,1.1-0.6,1.9-1,2.4c-0.6,0.1-2.4,0.2-5.4,0.2
			c-1.7,0-3.4-0.2-5.2-0.6c-1.8-0.3-2.8-0.8-3-1.1c-0.1-0.4-0.2-1.4-0.2-3.1c0-2.9,0.1-4.4,0.4-4.6c1.4-0.3,2.3-0.4,2.7-0.4
			c0.5,0,0.9,0.1,1.2,0.2c-0.6-0.5-0.9-3.2-0.9-7.9c0-1.6,0-2.5,0.2-2.8c-0.4,0.1-0.8,0.1-1.1,0.1c-1.2,0-2-0.3-2.5-1
			C687.3,66.4,687.2,65.3,687.2,63.6z"/>
		<path d="M723.7,68.7c0-5.6,1.3-10.3,3.9-14.2s6-5.7,10.4-5.7c3.2,0,5.5,0.8,7,2.4c0.1-1.1,0.4-1.8,1-2c0.8-0.4,1.9-0.6,3.1-0.6
			c1.6,0,2.8,0.3,3.7,1.1c0.4,2.5,0.6,4.7,0.6,6.5c0,3.2-0.6,5.7-1.8,7.6c-1.8,0.8-3.3,1.1-4.7,1.1c-1.3,0-2.6-0.3-4-1.1
			c0-0.1,0-0.2,0-0.5c0-0.4,0-0.8,0.1-0.9c0-1.4-0.5-2.5-1.6-3.3c-1.1-0.9-2.1-1.2-3-1.2c-1.4,0-2.5,1.2-3.5,3.5s-1.5,4.8-1.5,7.7
			c0,2.6,0.5,4.7,1.4,6.3c0.9,1.5,2.1,2.3,3.5,2.3c1.6,0,3.1-1,4.5-3c-0.1-0.7-0.2-1.1-0.2-1.1c0-0.1,0-0.1,0-0.2c0-0.1,0-0.1,0-0.2
			c1.2-0.7,2.6-1,4-1c1.5,0,3.1,0.3,4.9,1.1c1.2,2,1.8,4.5,1.8,7.6c0,1.8-0.2,3.8-0.6,6.5c-1,0.9-2.4,1.3-4,1.3
			c-1.2,0-2.1-0.3-2.8-0.9c-0.7-0.3-1-1-1-2.1c-2.2,1.7-4.4,2.4-6.7,2.4c-1.8,0-3.5-0.4-5.2-1.2s-3.2-2-4.7-3.5
			c-1.4-1.5-2.6-3.5-3.4-6C724.2,74.7,723.7,71.8,723.7,68.7z"/>
		<path d="M756,66c0-2.5,0.2-4.1,0.5-4.6c2.5-0.8,4.8-1.1,6.8-1.1c2.3,0,4.3,0.3,6,1.1c0.2,0.2,0.5,0.9,0.8,2s0.4,2.1,0.4,2.9
			c0,1.2-0.3,2.2-0.9,3.1c-0.4,0.2-0.8,0.3-1.4,0.3c-0.2,0-0.3,0-0.4,0c-0.1,0-0.1-0.1-0.2-0.1c-0.1-0.1-0.2-0.1-0.3-0.1
			c-0.2,1.1-0.3,2.1-0.3,3c0,2.1,0.5,3.7,1.4,4.8s2.1,1.8,3.5,1.8c1.3,0,2.5-0.7,3.5-2s1.5-3.1,1.5-5.3c0-0.9-0.1-1.9-0.3-2.9
			c-0.4,0.3-0.9,0.4-1.5,0.4c-0.4,0-0.6-0.1-0.7-0.3c-0.5-0.2-0.7-1.3-0.7-3.3c0-1.9,0.3-3,0.8-3.3c2.3-1.2,5-1.9,8.2-1.9
			c3.6,0,5.8,0.6,6.4,1.5c0.4,0.5,0.5,1.4,0.5,2.4c0,2.1-0.5,3.4-1.5,4.1c-0.4,0.3-0.8,0.4-1.3,0.4c-0.2,0-0.4,0-0.8-0.1
			c0,1.1,0,2.8,0.1,5.2s0.1,4.2,0.1,5.4c1-0.1,1.6-0.1,1.8-0.1c0.4,0,0.7,0,0.9,0.1c0.1,0.1,0.2,0.5,0.2,1.1c0,1-0.2,2.2-0.5,3.7
			s-0.6,2.4-0.9,2.8c-0.4,0.2-1.2,0.4-2.5,0.8s-2.7,0.4-4,0.4c-1.6,0-2.7-0.2-3.5-0.7c-0.3-0.2-0.4-0.8-0.4-1.4
			c0-0.1,0.1-0.8,0.2-1.9c-3.6,3-6.9,4.4-9.9,4.4c-2.6,0-4.8-1-6.3-3.1s-2.4-5.2-2.4-9.5c0-0.7,0.1-2.8,0.4-6.1
			c0,0.1-0.2,0.1-0.5,0.1c-0.5,0-1.2-0.1-2.3-0.2C756.2,69.2,756,68,756,66z"/>
		<path d="M791.3,61.4c0-0.8,0.1-1.2,0.2-1.4c0.9-0.1,1.6-0.2,2.1-0.2c0.1,0,0.3,0,0.5,0s0.4,0,0.5,0h0.2V49.4
			c2.6-0.2,4.1-0.3,4.7-0.3c1.2,0,2.8,0.1,4.6,0.3v10.5c2.9,0.1,4.7,0.3,5.4,0.8c0.5,0.7,0.7,2.3,0.7,5.2c0,0.8-0.1,1.2-0.2,1.4
			c-1,0.1-1.7,0.2-2.3,0.2h-0.4c-0.2,0-0.7,0-1.3,0s-1.3,0-2.2,0c0,0.2,0,1.5,0,4s0,3.8,0,4.1c0,1.6,0.3,2.8,0.8,3.4s1.4,1,2.5,1
			c0.4,0,0.6,0,0.7-0.1c0.1-0.1,0.2-0.3,0.2-0.7c0-0.2,0.4-0.4,1.3-0.7l3.3-0.9c0.3,1.1,0.5,2.3,0.5,3.7c0,2.8-0.2,4.5-0.7,5.2
			c-0.1,0.1-0.4,0.2-0.8,0.4c-0.4,0.2-0.7,0.4-0.8,0.4s-0.4,0.2-0.7,0.3c-0.3,0.1-0.7,0.2-0.9,0.3s-0.6,0.1-1.1,0.2
			c-0.5,0.1-1,0.1-1.6,0.2c-0.6,0-1.2,0-2,0c-1.4,0-2.6-0.1-3.5-0.2c-0.9-0.1-1.8-0.5-2.6-1c-0.8-0.6-1.5-1.2-1.9-2.2
			c-0.5-0.9-0.9-2.2-1.2-3.7c-0.4-1.7-0.5-3.5-0.5-5.7c0-2.2,0-4.9,0-8.1c-1.5-0.2-2.5-0.4-3-0.8C791.6,65.9,791.3,64.1,791.3,61.4z
			"/>
		<path d="M814.7,83.1c0-1.8,0.3-2.9,1-3.2c0.3-0.2,0.9-0.3,1.8-0.5c0.6-0.1,1-0.2,1.2-0.2c-0.4-4.3-0.5-6.9-0.5-8.1
			c0-2.5,0.2-4.3,0.5-5.1c-1,0-1.7-0.1-2.2-0.2c-0.3-0.8-0.4-1.4-0.4-2.1c0-1.1,0.5-2.4,1.3-4c1.2-0.2,3.6-0.3,7-0.3
			c1.2,0,2.3,0.1,3.4,0.2c1.1,0.1,2,0.3,2.6,0.5c0.6,0.2,0.9,0.4,0.9,0.6c0.3,0.4,0.4,1.1,0.4,2.1c0,2-0.3,3.3-0.9,4
			c-0.1,0.1-0.6,0.2-1.3,0.2s-1.3-0.1-1.7-0.2c-0.4,2.5-0.5,5.9-0.5,9.9c0,1.8,0,2.6,0.1,2.8c0.2,0,0.5-0.1,0.8-0.1
			c0.8,0,1.6,0.2,2.3,0.7c0.1,0.2,0.2,0.7,0.2,1.3c0,0.9-0.1,2-0.4,3.2s-0.5,2.1-0.8,2.5c-0.5,0.3-2.3,0.6-5.2,0.6
			c-4.9,0-7.7-0.6-8.5-1.5C815,85.7,814.7,84.7,814.7,83.1z M819.7,48.8c0-1,0.5-1.5,1.5-1.5c0.8,0,1.7,0.2,2.7,0.9
			c0.7-0.8,1.6-1.1,2.8-1.1c0.7,0,1.3,0.2,1.9,0.9c0.5,0.5,0.8,1.3,0.8,2.2c0,0.4-0.1,1-0.3,1.3c-0.2,0.4-0.4,0.8-0.6,1.1
			c-0.2,0.3-0.5,0.7-1,1c-0.5,0.4-0.8,0.7-1.1,0.9c-0.2,0.1-0.7,0.4-1.3,0.9c-0.6,0.4-1,0.7-1.2,0.8c-1.3-1.1-2.4-2.3-3.2-3.6
			C820.1,51,819.7,49.8,819.7,48.8z"/>
		<path d="M833.4,75.4c0-1.8,0.3-3.5,0.9-5.3c0.6-1.8,1.5-3.5,2.7-5.1c1.2-1.7,2.8-2.9,4.8-4c2-1,4.3-1.5,6.8-1.5
			c2.8,0,4.9,0.7,6.5,1.9c1.5,1.2,2.3,3,2.3,5.3c0,3.1-1.3,5.6-3.9,7.5c-2.6,2-5.5,2.9-8.7,2.9c-0.9,0-1.8-0.1-2.6-0.2
			c0.1,2.6,2.1,4,6.1,4c0.7,0,1.3,0,1.8-0.1c0-0.3,0.1-0.5,0.2-0.9c1.5-1.3,3-1.9,4.8-1.9c0.3,0,0.6,0,0.8,0c2.2,1.3,3.5,3.4,4,6.5
			c0,0.3-0.2,0.5-0.4,0.9c-0.2,0.3-0.4,0.7-0.7,0.9c-0.2,0.2-0.6,0.6-1,0.8c-0.4,0.3-0.8,0.6-1,0.7c-0.2,0.1-0.6,0.3-1.1,0.7
			c-0.5,0.3-0.8,0.4-0.8,0.4c-0.2,0-0.4,0-0.5-0.1c-0.1,0-0.3-0.1-0.4-0.2c-0.1-0.1-0.2-0.2-0.2-0.2s-0.1-0.2-0.2-0.4
			c-0.1-0.2-0.2-0.3-0.2-0.4c-1.9,0.8-3.8,1.2-5.8,1.2c-4.5,0-7.9-1.3-10.4-3.9C834.6,82.1,833.4,79.1,833.4,75.4z M843.1,69.7
			c0,1.2,0.8,1.9,2.4,1.9c1.2,0,2.4-0.3,3.5-1s1.7-1.4,1.7-2.3c0-0.7-0.2-1.3-0.6-2c-0.4-0.7-1-1-1.8-1c-1,0-2.1,0.4-3.3,1.3
			C843.7,67.6,843.1,68.6,843.1,69.7z"/>
		<path d="M860.9,85.8c0-1.1,0.2-2.1,0.5-3.1c0.3-1,0.8-2,1.5-2.9c0.7-0.9,1.6-1.3,2.6-1.3c0.8,0,1.7,0.2,2.7,0.5
			c1,0.3,1.5,0.9,1.5,1.4c0,0.1,0,0.3-0.1,0.5c1.2,0.4,2,0.6,2.4,0.6c0.8,0,1.4-0.3,2-0.9c0.6-0.5,0.9-1.2,0.9-2.1
			c0-0.9-0.3-1.5-0.9-2c-0.6-0.4-1.4-0.7-2.4-0.7c-0.9,0-2-0.1-3-0.3c-1.1-0.2-2.1-0.4-3-0.8c-1-0.3-1.7-1-2.3-2
			c-0.6-1-0.9-2.4-0.9-4.1c0-2.3,0.6-4.2,1.7-5.7c1.1-1.5,2.5-2.5,4-3s3.3-0.8,5.2-0.8c1.5,0,3.1,0.2,4.9,0.5
			c0.3-0.7,0.7-1.1,1.1-1.2c2.5,0.2,4.1,1.2,4.9,2.9c-0.1,1.1-0.2,2.1-0.5,3.1c-0.2,1-0.7,2-1.5,2.9c-0.7,0.9-1.6,1.4-2.6,1.4
			c-0.8,0-1.7-0.2-2.7-0.5c-1-0.3-1.5-0.9-1.5-1.5c0-0.1,0-0.3,0.1-0.7c-0.8-0.2-1.4-0.4-1.9-0.4c-0.8,0-1.5,0.3-2,0.9
			c-0.6,0.6-0.9,1.2-0.9,1.9c0,0.9,0.5,1.5,1.4,1.9c0.9,0.4,2.1,0.7,3.4,0.8c1.4,0.1,2.7,0.3,4.1,0.7c1.4,0.3,2.5,1,3.5,2
			c0.9,1.1,1.4,2.5,1.4,4.4c0,3.2-1.2,5.6-3.7,7.3s-5.4,2.4-8.8,2.4c-1.6,0-3.3-0.2-5.1-0.6c-0.3,0.7-0.7,1.1-1.1,1.2
			C863.3,88.5,861.7,87.5,860.9,85.8z"/>
		<path d="M887.5,61.5c0-4.2,0.7-8,2.2-11.8c0.2,0,0.4-0.1,0.8-0.3c0.4-0.1,0.7-0.3,1-0.3c0.3-0.1,0.6-0.1,1-0.1
			c0.8,0,1.6,0.2,2.5,0.8c1.7,4.1,2.5,8.4,2.5,12.7c0,4.9-1.1,9.8-3.2,14.4c-0.5,0.6-1.1,0.8-1.8,0.8c-0.6,0-1.1-0.2-1.6-0.5
			C888.6,71.7,887.5,66.5,887.5,61.5z M889.5,84.2c0-1,0.1-2.1,0.3-3.1c0.7-0.3,1.5-0.4,2.3-0.4c0.9,0,1.8,0.1,2.7,0.4
			c0.3,1.1,0.4,2.2,0.4,3.3s-0.1,2.2-0.4,3.3c-0.6,0.3-1.4,0.4-2.4,0.4c-1.1,0-2-0.1-2.6-0.4C889.6,86.5,889.5,85.3,889.5,84.2z"/>
	</g>
</g>
</svg>
