<?xml version="1.0" encoding="utf-8"?>
<!-- Generator: Adobe Illustrator 26.4.1, SVG Export Plug-In . SVG Version: 6.00 Build 0)  -->
<svg version="1.1" id="FQT-Icon" xmlns="http://www.w3.org/2000/svg" xmlns:xlink="http://www.w3.org/1999/xlink" x="0px" y="0px"
	 viewBox="0 0 1080 1080" style="enable-background:new 0 0 1080 1080;" xml:space="preserve">
<style type="text/css">
	.st0{fill:#a28c56;}
	.st1{fill:#FFFDF5;}
</style>
<g id="Sword-Gold">
	<path class="st0" d="M651.6,404.4c1.9-12.5,9-17.7,9-17.7c3.4-2.5,7.1-3.4,10.7-3.7c14.6-1.4,71.2,2.2,92.3,41
		c3.4,6.2,3.6,9.3,6.6,10.1c13.8,3.8,51.5-47.8,53.8-102.7c2-48.3-23.3-102.9-49-104.2c-7.6-0.4-12.6,4.2-18.5,7.8
		c-42,25.7-113,31.3-133.3,8.7c-20.6-22.9,1-85.2,10.8-113.5c0.8-2.3,2-5.6,2-10.1c0.1-29.5-48.8-64.7-97.5-64.2
		c-50.2,0.5-98.7,38.7-98,70.3c0.1,5.2,1.5,8.2,3.5,13.7c3.5,9.8,29.1,81.4,2,107.1c-22.3,21.1-83.7,14.2-118.5-5.8
		c-3.9-2.2-7.4-4.9-13-5.1c-27.1-0.9-61.9,57.8-58.1,111.8c3.5,51.4,41.9,98.7,55.5,94.5c3.5-1.1,3.2-4.9,7.2-12.8
		c19.2-38.3,71.6-41.2,85.5-42c3.2-0.2,7.9-0.2,12.2,2.6c7.9,5.3,9,17.5,8.8,27.4c-1.3,48.8-31.6,369.3-35.9,421.9
		c-1.1,13.1-2.1,28.9,2.8,48.5c8.5,33.7,44,63.4,114.7,121.3c6.9,5.7,19.8,15.9,36,14.9c13.8-0.9,23.7-9.5,29-14.3
		c97.1-87.4,106.2-103.4,111.2-123.5c5.3-21.3,3.8-38.5,2.3-52.8l0,0C681.9,800.1,643.8,454.6,651.6,404.4z M531.9,95.5
		c17.9-2.7,36.1,3.9,40.6,14.8c4.7,10.9-6.2,22-24.1,24.8c-18,2.8-36.2-3.8-40.6-14.8C503,109.3,514,98.2,531.9,95.5z"/>
	<g>
		<path class="st1" d="M648.1,840.2c0.8,15-2.4,32.8-6.8,33c-4.1,0.2-8.8-15.6-10.5-27.5c-2.6-19.3,1.2-41,6-41.3
			C641.5,804.2,647.3,823.6,648.1,840.2z"/>
		<path class="st1" d="M637.2,676.5c2.3,43.2,3.6,113.3-2,113.7c-5.7,0.4-18.2-71.2-22-141.2c-2.9-53.8-1.4-118.1,4-118.3
			C623.1,530.3,633.6,608.7,637.2,676.5z"/>
		<path class="st1" d="M805.1,327.5c0.5,36.3-22.8,67-27,65.6c-3.1-1,5.6-19.1,9.7-60.1c3.2-30.5,1-46.8,4.2-47.2
			C795.7,285.3,804.6,305.6,805.1,327.5z"/>
	</g>
</g>
</svg>
