<?xml version="1.0" encoding="utf-8"?>
<!-- Generator: Adobe Illustrator 26.4.1, SVG Export Plug-In . SVG Version: 6.00 Build 0)  -->
<svg version="1.1" id="FQT-Message" xmlns="http://www.w3.org/2000/svg" xmlns:xlink="http://www.w3.org/1999/xlink" x="0px"
	 y="0px" viewBox="0 0 1080 2160" style="enable-background:new 0 0 1080 2160;" xml:space="preserve">
<style type="text/css">
	.st0{fill:#FFF9D9;}
	.st1{fill:none;stroke:#000000;stroke-width:2;stroke-miterlimit:10;}
	.st2{opacity:0.9;}
</style>
<g id="Story-Message">
	<g>
		<path class="st0" d="M904.3,105.1H175.7c-44.2,0-80.1,35.8-80.1,80.1v684.6c0,44.2,35.8,80.1,80.1,80.1h322.1
			c15.3,35.3,30.6,70.6,45.9,105.9c14-35.3,28-70.6,41.9-105.9h318.8c44.2,0,80.1-35.8,80.1-80.1V185.1
			C984.4,140.9,948.5,105.1,904.3,105.1z"/>
		<path class="st1" d="M904.3,105.1H175.7c-44.2,0-80.1,35.8-80.1,80.1v684.6c0,44.2,35.8,80.1,80.1,80.1h322.1
			c15.3,35.3,30.6,70.6,45.9,105.9c14-35.3,28-70.6,41.9-105.9h318.8c44.2,0,80.1-35.8,80.1-80.1V185.1
			C984.4,140.9,948.5,105.1,904.3,105.1z"/>
	</g>
	<g class="st2">
		<path d="M297.2,313.6c0-12.2,3.1-22.5,9.3-30.9s14.5-12.6,24.9-12.6c7.6,0,13.2,1.7,16.8,5.2c0.2-2.4,1-3.9,2.5-4.4
			c2-0.9,4.4-1.3,7.3-1.3c3.8,0,6.7,0.8,8.9,2.4c1,5.6,1.4,10.3,1.4,14.1c0,6.9-1.4,12.4-4.3,16.6c-4.2,1.6-8,2.5-11.2,2.5
			c-3,0-6.3-0.8-9.7-2.4c-0.1-0.2-0.1-0.5-0.1-1.1c0-1,0.1-1.6,0.4-1.9c0-3.1-1.3-5.5-3.8-7.3c-2.6-1.8-5-2.7-7.2-2.7
			c-3.3,0-6.1,2.5-8.4,7.6s-3.5,10.6-3.5,16.7c0,5.8,1.1,10.4,3.4,13.7c2.2,3.3,5,4.9,8.4,4.9c3.8,0,7.5-2.2,10.9-6.5
			c-0.2-1.5-0.4-2.3-0.4-2.4c0-0.2,0-0.3,0.1-0.5c0-0.2,0.1-0.3,0.1-0.4c3-1.4,6.2-2.1,9.6-2.1c3.6,0,7.5,0.8,11.6,2.4
			c2.8,4.3,4.2,9.8,4.2,16.6c0,3.7-0.5,8.4-1.4,14.1c-2.5,2-5.7,3-9.6,3c-2.9,0-5.1-0.6-6.6-1.9c-1.7-0.6-2.5-2.2-2.5-4.6
			c-5.3,3.6-10.6,5.3-16.1,5.3c-4.2,0-8.4-0.9-12.4-2.6c-4.1-1.8-7.8-4.3-11.2-7.7c-3.4-3.4-6.1-7.8-8.2-13.3
			C298.3,326.5,297.2,320.4,297.2,313.6z"/>
		<path d="M375.7,344.6c0-3.8,0.2-6,0.7-6.5c0.7-0.4,2.2-0.8,4.3-1.1c1.5-0.2,2.4-0.4,2.8-0.4c-0.9-4.6-1.3-12.4-1.3-23.4
			c0-12.9,0.4-24.3,1.2-34.2c-2.4,0-4.2-0.2-5.5-0.5c-0.2-1.6-0.2-2.9-0.2-3.8c0-3.5,0.9-6.6,2.6-9.1c3.5-0.8,8.1-1.2,13.9-1.2
			c4.4,0,7.7,0.4,10,1.2c0.9,7.4,1.3,15.3,1.3,23.8c0,5.9-0.3,14.3-0.9,25.2c-0.6,10.9-0.9,18.4-1,22.6c0.5-0.1,1.2-0.1,2.1-0.1
			c2.1,0,4.1,0.4,5.9,1.3c0.2,0.3,0.4,1,0.4,2c0,1.7-0.3,4.1-1,7.4c-0.7,3.2-1.3,5.3-1.8,6.1c-1.3,0.7-5.7,1.1-13.2,1.1
			c-11.1,0-17.7-1.1-19.5-3.2C376,351.1,375.7,348.7,375.7,344.6z"/>
		<path d="M416.2,344.9c0-3.9,0.8-6.2,2.4-6.8c0.7-0.4,2.1-0.8,4.2-1.1c1.4-0.2,2.4-0.4,2.8-0.4c-0.9-9.3-1.3-15.2-1.3-17.8
			c0-5.6,0.4-9.3,1.2-11c-2.3,0-4.1-0.2-5.4-0.5c-0.6-1.7-1-3.2-1-4.4c0-2.5,1.1-5.3,3.2-8.5c3-0.6,8.5-0.8,16.7-0.8
			c2.8,0,5.5,0.2,8.2,0.5c2.6,0.3,4.7,0.7,6.2,1.1s2.2,0.9,2.2,1.3c0.6,1,1,2.4,1,4.4c0,4.2-0.7,7.2-2.1,8.8
			c-0.3,0.3-1.3,0.5-3.2,0.5s-3.2-0.2-4-0.6c-0.8,5.6-1.3,12.8-1.3,21.7c0,3.8,0.1,5.7,0.3,5.9c0.5-0.1,1.1-0.1,2-0.1
			c2,0,3.9,0.4,5.6,1.3c0.3,0.6,0.5,1.5,0.5,2.9c0,2-0.3,4.3-1,7c-0.6,2.7-1.3,4.5-1.9,5.6c-1.3,0.7-5.5,1.1-12.6,1.1
			c-11.7,0-18.4-1.1-20.3-3.2C417,350.5,416.2,348.3,416.2,344.9z M428.2,270.2c0-2.2,1.2-3.4,3.6-3.4c2,0,4.2,0.6,6.5,1.8
			c1.7-1.7,3.9-2.5,6.7-2.5c1.7,0,3.2,0.6,4.5,1.8c1.3,1.2,2,2.8,2,4.9c0,1-0.2,2-0.6,3s-0.9,1.8-1.4,2.4s-1.3,1.4-2.4,2.2
			s-1.9,1.4-2.5,1.8s-1.6,1-3.1,1.8s-2.4,1.4-2.8,1.6c-3.1-2.3-5.6-4.9-7.6-7.9C429.1,274.9,428.2,272.3,428.2,270.2z"/>
		<path d="M461.6,327.7c0-11,3.5-19.4,10.4-25.1s17.3-8.6,31.3-8.6l1-3.2c2.2-0.5,4.3-0.8,6.4-0.8c4.7,0,9,1.4,13,4.2
			c0.2,1.2,0.4,2.8,0.4,5c0,4.2-0.7,7.7-2,10.6c-1.4,2.9-3,4.7-5,5.5c-3.4,1.2-6.6,1.8-9.5,1.8c-3,0-5.6-0.6-8-1.9l0.8-4.2
			c-1.9-0.6-3.8-0.9-5.5-0.9c-3.7,0-6.7,1.7-9.1,5c-2.4,3.4-3.5,7.1-3.5,11.2c0,3.4,0.8,6.5,2.4,9.2s3.6,4.1,6,4.1
			c2.2,0,4.9-0.9,8-2.8l-0.8-3.3c3.8-2.8,8.1-4.2,13-4.2c1.7,0,3.8,0.3,6.4,0.9c4.9,5.4,7.3,11.7,7.3,19c0,1.6-0.1,3.2-0.4,4.9
			c-4.4,2.9-9.4,4.3-15.1,4.3c-0.8,0-2.1-0.1-3.8-0.2l-1.1-3.2c-5.4,1-10.2,1.6-14.2,1.6c-8.6,0-15.5-2.4-20.5-7.1
			C464.2,344.7,461.6,337.4,461.6,327.7z"/>
		<path d="M526.9,275c0-4,1-6.6,2.9-7.9c3.3-1.6,8.2-2.4,14.6-2.4c8.2,0,13.7,0.8,16.4,2.4c1.6,0.7,2.4,3.2,2.4,7.3
			c0,3.7-0.4,6-1.3,6.8c-1.9,0.3-3.5,0.5-4.7,0.5c0.1,3.8,0.5,12,1.2,24.6c4.3-2.7,8.1-5.6,11.5-8.7s5.1-5.5,5.1-7.3
			c0-0.6-0.2-1-0.5-1.3c-0.6,0.6-1.6,0.8-3,0.8c-0.6,0-0.9-0.1-1.1-0.4c-0.7-0.7-1.1-2.4-1.1-5.2c0-1.1,0.2-1.8,0.6-2
			c3-0.9,6.7-1.3,11.1-1.3c9,0,15.9,0.9,20.5,2.8c0.3,0.6,0.5,1.6,0.5,2.9c0,3.7-0.9,5.8-2.8,6.4c-0.2,0.1-0.6,0.1-1.2,0.1
			c-2.3,0-3.7-0.3-4.4-1c-0.1,0.5-0.8,1.6-2.2,3.3c-1.4,1.8-3.5,4-6.3,6.6c-2.8,2.7-5.7,5.2-8.9,7.7c7.7,3.2,14.3,7.9,19.6,14.2
			c5.4,6.3,8,10.8,8,13.4c0.6-0.3,1.4-0.5,2.3-0.5c0.7,0,1.7,0.2,3,0.7c1.4,0.6,2.1,3,2.1,7.1c0,3.6-0.6,6.3-1.8,8.1
			c-2.7,1.4-8.3,2-16.8,2c-5.3,0-9.7-0.6-13.3-1.8c-1.9-2.4-2.9-5.6-2.9-9.6c0-2.4,0.4-4.3,1.3-5.6c0.6-0.4,1.4-0.6,2.3-0.6
			c0.6,0,1.3,0.1,2.1,0.4c-0.9-2.8-2.2-5.2-4-7.4c-1.8-2.1-4-3.8-6.6-5.1c-2.6-1.3-4.7-2.2-6.3-2.8c-1.6-0.6-3.7-1.2-6.2-1.9
			c0.1,1.9,0.1,4.8,0.1,8.7c0,3.1,0,5.4-0.1,6.9c1-0.6,2.2-0.9,3.7-0.9s2.3,0.2,2.7,0.6c1.3,0.3,1.9,2.9,1.9,7.7
			c0,4.5-0.2,7.7-0.5,9.6c-4.3,1.1-12.3,1.7-24.2,1.7c-5.5,0-9.4-0.5-11.9-1.4c-1.8-2.1-2.7-5.5-2.7-10.2c0-3.4,0.7-5.4,2-6.1
			c1.2-0.8,3.1-1.2,5.7-1.2c0.6,0,1.2,0.1,1.7,0.3c-0.5-22-0.7-37.4-0.7-46.2c0-5.1,0.1-7.9,0.2-8.4c-1.4,0.6-2.8,1-4.2,1
			c-1.6,0-2.9-0.4-4-1.3C527.6,279.5,526.9,277.4,526.9,275z"/>
		<path d="M637.6,330.9c0-5.9,1.5-11.6,4.5-17.2s7.3-10.4,13-14.2c5.6-3.8,11.8-5.8,18.6-5.8c8.1,0,14.1,2.7,18,8.2
			c3.8,5.5,5.7,12.4,5.7,20.7c0,10.9-3,19.3-9,24.9c-6,5.7-13.7,8.5-23.2,8.5c-9,0-15.8-2.4-20.5-7.2
			C639.9,344.1,637.6,338.1,637.6,330.9z M660.8,327.5c0,2.4,0.8,4.5,2.3,6.3s3.5,2.7,6,2.7c3.2,0,6.2-1.4,9-4.2
			c2.8-2.8,4.2-6.1,4.2-9.8c0-2.7-0.8-4.9-2.4-6.6c-1.6-1.8-3.7-2.6-6.2-2.6c-3.5,0-6.5,1.5-9,4.6
			C662.1,321,660.8,324.2,660.8,327.5z"/>
		<path d="M703.8,345.8c0-4.7,1.1-7.6,3.2-8.8c1-0.7,2-1.1,3.2-1.1c0.4,0,1,0.1,1.8,0.3c0-2.3-0.1-6-0.2-11.1
			c-0.2-5.1-0.2-9-0.2-11.6c-0.3,0-0.8,0.1-1.4,0.3c-0.6,0.2-1.2,0.3-1.6,0.3c-0.3,0-0.8-0.1-1.4-0.2c-0.6-0.2-1.1-0.2-1.4-0.2
			c-0.3-0.3-0.5-1.2-0.5-2.5c0-2.2,0.3-4.9,1-8.1c0.6-3.2,1.2-5.2,1.8-5.9c0.8-0.5,2.7-1,5.7-1.5s6.1-0.8,9.2-0.8
			c4,0,7.2,0.5,9.8,1.4c0.6,0.5,0.8,1.4,0.8,2.8c0,0.5-0.2,1.9-0.6,4.3c8.6-6.4,16.6-9.6,23.9-9.6c6.3,0,11.4,2.2,15.2,6.7
			s5.8,11.3,5.8,20.5c0,1.5-0.3,5.8-0.8,13c0-0.2,0.4-0.2,1.1-0.2c1.2,0,3.1,0.2,5.6,0.6c0.7,0.8,1.1,3.4,1.1,7.9
			c0,5.6-0.4,9-1.2,10.3c-6,1.6-11.5,2.4-16.4,2.4c-5.5,0-10.3-0.7-14.4-2.2c-0.6-0.4-1.2-1.8-1.8-4.3s-1-4.6-1-6.4
			c0-2.7,0.7-5,2.2-6.9c0.9-0.6,2-0.8,3.4-0.8c0.4,0,0.7,0,0.8,0.1c0.2,0.1,0.3,0.2,0.5,0.3c0.2,0.1,0.4,0.2,0.7,0.3
			c0.5-2.4,0.7-4.6,0.7-6.5c0-4.6-1.1-8.1-3.3-10.6s-4.9-3.7-8.2-3.7s-6.2,1.4-8.7,4.2c-2.5,2.8-3.7,6.6-3.7,11.4
			c0,2,0.2,4.1,0.7,6.3c0.9-0.6,2-0.9,3.4-0.9c1.3,0,2.1,0.2,2.4,0.6c0.7,0,1.1,1.6,1.1,4.9c0,0.7-0.4,4.1-1.1,10
			c-5.8,2.7-12.6,4.1-20.4,4.1c-8.8,0-14-1.1-15.6-3.4C704.2,350.5,703.8,348.6,703.8,345.8z"/>
		<path d="M216.7,437.4c0-1.7,0.2-2.7,0.5-3c2.2-0.3,3.9-0.5,5-0.5c0.3,0,0.8,0,1.3,0.1c0.5,0,0.9,0.1,1.3,0.1h0.6v-22.4
			c6.2-0.5,9.9-0.7,11.2-0.7c3,0,6.6,0.2,11,0.7l0.1,22.7c7,0.2,11.3,0.8,12.9,1.7c1.2,1.4,1.7,5.1,1.7,11.2c0,1.7-0.2,2.7-0.5,3
			c-2.3,0.3-4.1,0.5-5.4,0.5h-1c-0.6,0-1.6,0-3-0.1c-1.4,0-3.2-0.1-5.2-0.1c0,0.4,0,3.3-0.1,8.7c0,5.4-0.1,8.3-0.1,8.8
			c0,3.5,0.7,6,2,7.4s3.3,2.1,6,2.1c0.9,0,1.5-0.1,1.7-0.3c0.2-0.2,0.4-0.7,0.5-1.5c0-0.6,1-1,3.1-1.4l8-1.9c0.8,2.3,1.2,5,1.2,8.2
			c0,6.1-0.5,9.8-1.6,11.2c-0.3,0.2-1,0.5-1.9,1.1c-1,0.6-1.6,0.9-1.9,1s-0.9,0.4-1.7,0.7c-0.8,0.4-1.6,0.6-2.2,0.7
			s-1.5,0.2-2.7,0.4c-1.2,0.2-2.4,0.3-3.8,0.4c-1.3,0-2.9,0.1-4.7,0.1c-3.5,0-6.3-0.2-8.4-0.5c-2.2-0.4-4.2-1.1-6.2-2.2
			s-3.5-2.7-4.6-4.7s-2.1-4.7-2.9-8.2c-0.9-3.5-1.3-7.6-1.3-12.5c0-4.8,0-10.7,0-17.7c-3.5-0.4-5.9-0.9-7.1-1.6
			C217.2,447.3,216.7,443.6,216.7,437.4z"/>
		<path d="M269.2,417.6c0-6,1.1-9.6,3.4-10.6c2.7-1.6,7.6-2.4,14.6-2.4c3.7,0,7.9,0.5,12.6,1.6c1.8,2.7,2.6,9.7,2.6,21
			c0,8.2-0.4,13.6-1.2,16.2c8.6-6.4,16.5-9.6,23.8-9.6c6.3,0,11.4,2.2,15.2,6.7c3.8,4.5,5.8,11.4,5.8,20.6c0,1.5-0.3,6-0.8,13.4
			c0-0.2,0.4-0.2,1.1-0.2c1.2,0,3.1,0.2,5.6,0.6c0.7,0.8,1.1,3.4,1.1,7.9c0,5.6-0.4,9.1-1.2,10.4c-6,1.3-11.5,1.9-16.4,1.9
			c-5.5,0-10.3-0.6-14.4-1.7c-0.6-0.4-1.2-1.8-1.8-4.3c-0.6-2.5-1-4.6-1-6.4c0-2.7,0.7-5,2.2-6.9c0.9-0.6,2-0.8,3.4-0.8
			c0.4,0,0.7,0,0.8,0.1c0.2,0.1,0.3,0.2,0.5,0.3c0.2,0.1,0.4,0.2,0.7,0.3c0.5-2.4,0.7-4.6,0.7-6.7c0-4.7-1.1-8.3-3.3-10.8
			c-2.2-2.5-4.9-3.8-8.2-3.8c-3.3,0-6.1,1.4-8.6,4.3s-3.7,6.8-3.7,11.7c0,2,0.2,4.2,0.6,6.4c0.9-0.7,2-1.1,3.3-1.1s2.1,0.3,2.4,0.8
			c0.7,0,1.1,1.6,1.1,4.9c0,0.7-0.4,4.1-1.1,10c-5.8,2.4-12.6,3.6-20.4,3.6c-8.8,0-14-1.1-15.6-3.4c-0.7-1-1.1-2.3-1.1-4
			c0-5.8,1.1-9.2,3.2-10.3c1-0.7,2.4-1.1,4.4-1.1c0.4,0,1,0.1,1.8,0.2c-0.9-5.5-1.3-16.4-1.3-32.5c0-10.7,0.3-17.5,0.8-20.4
			c-1.3,0.4-3.2,0.6-5.8,0.6c-1.8,0-3.4-0.2-4.9-0.5C269.5,422.8,269.2,420.8,269.2,417.6z"/>
		<path d="M357.4,468.3c0-3.8,0.7-7.6,2.2-11.5s3.6-7.6,6.5-11.1c2.8-3.5,6.7-6.3,11.5-8.6c4.8-2.2,10.3-3.4,16.3-3.4
			c6.6,0,11.8,1.3,15.5,4s5.6,6.5,5.6,11.5c0,6.7-3.1,12.2-9.3,16.4c-6.2,4.2-13.1,6.3-20.8,6.3c-2.1,0-4.2-0.2-6.4-0.6
			c0.2,5.7,5,8.5,14.6,8.5c1.7,0,3.1-0.1,4.3-0.3c0-0.6,0.1-1.3,0.4-2c3.5-2.8,7.3-4.2,11.4-4.2c0.8,0,1.4,0,1.8,0.1
			c5.3,2.9,8.5,7.6,9.7,14.1c-0.1,0.6-0.4,1.3-0.9,2s-1.1,1.3-1.6,1.8c-0.6,0.5-1.4,1.1-2.4,1.8c-1,0.7-1.9,1.2-2.5,1.5
			s-1.5,0.8-2.6,1.4c-1.2,0.6-1.8,1-2,1.1c-0.5,0-0.9-0.1-1.2-0.2c-0.3-0.1-0.6-0.3-0.9-0.6c-0.3-0.3-0.5-0.5-0.5-0.6
			c-0.1-0.1-0.2-0.4-0.5-0.9c-0.2-0.5-0.4-0.8-0.5-0.8c-4.5,1.7-9.1,2.6-13.8,2.6c-10.7,0-19.1-2.8-25-8.3
			C360.3,482.8,357.4,476.1,357.4,468.3z M380.8,455.8c0,2.6,1.9,4,5.8,4c2.9,0,5.6-0.7,8.3-2c2.6-1.4,4-3,4-5
			c0-1.4-0.5-2.8-1.4-4.3s-2.4-2.2-4.4-2.2c-2.5,0-5.1,1-8,3C382.2,451.2,380.8,453.4,380.8,455.8z"/>
		<path d="M445.9,413c0-3.7,0.2-6,0.5-6.7l1-0.5c0.6-0.3,2.3-0.7,4.9-1.1s5.9-0.7,9.9-0.7c9.1,0,15,1.2,17.8,3.6
			c0.4,0.8,0.6,5.1,0.6,13c0,3.4-0.1,6.5-0.2,9.5s-0.2,4.6-0.2,4.7c3.3-1,6.8-1.4,10.5-1.4c8.4,0,15,3.2,19.9,9.5
			c4.9,6.4,7.4,13.6,7.4,21.8c0,4.6-0.8,9.2-2.4,13.9c-1.6,4.7-4.2,8.7-7.7,12.1s-7.5,5.1-11.9,5.1c-2.6,0-5.9-1-9.7-3
			c-3.9-2-6.5-3.2-7.8-3.5c0.1,0.1,0.1,0.4,0.1,1c0,1.2-0.2,2.6-0.6,4.1c-1.6,0.3-6.2,0.5-13.9,0.5c-3.7,0-7.1-0.4-10-1.2
			c-2.9-0.8-4.7-1.6-5.3-2.4c-0.2-0.9-0.4-3.1-0.4-6.5c0-6.1,0.3-9.4,0.9-9.9c2.5-0.6,5-0.9,7.4-0.9c1.2,0,1.9,0,2.2,0.1
			c-0.8-4.6-1.2-14.2-1.2-28.8c0-3.9,0.1-8.5,0.2-13.8c0.2-5.3,0.2-8.6,0.2-10c-0.8,0.2-1.7,0.2-2.6,0.2c-1.6,0-3.5-0.2-5.5-0.6
			s-3.3-0.9-3.8-1.5C446.1,419.1,445.9,416.8,445.9,413z M478.3,460.6c0,3.9,1.4,7.3,4.2,10.3c2.8,3,5.8,4.5,9,4.5
			c2.5,0,4.4-0.9,6-2.8c1.5-1.9,2.3-4.1,2.3-6.7c0-3.5-1.3-6.8-3.8-10.1c-2.5-3.3-5.5-4.9-9-4.9c-2.6,0-4.7,0.9-6.3,2.8
			C479.1,455.5,478.3,457.8,478.3,460.6z"/>
		<path d="M519.8,447.6c0-5.5,0.4-8.9,1.2-10.1c6-1.7,11.5-2.5,16.4-2.5c5.5,0,10.3,0.8,14.4,2.3c0.6,0.4,1.2,1.8,1.8,4.2
			c0.6,2.4,1,4.5,1,6.3c0,2.6-0.7,4.9-2.2,6.8c-0.9,0.6-2,0.8-3.4,0.8c-0.4,0-0.7,0-0.8-0.1c-0.2-0.1-0.3-0.2-0.5-0.3
			c-0.2-0.1-0.4-0.2-0.7-0.3c-0.5,2.4-0.7,4.6-0.7,6.6c0,4.6,1.1,8.2,3.4,10.7c2.3,2.5,5.1,3.7,8.3,3.7s6-1.4,8.4-4.3
			c2.4-2.8,3.6-6.7,3.6-11.6c0-2-0.2-4.1-0.6-6.3c-1,0.6-2.2,1-3.7,1c-0.9,0-1.5-0.2-1.7-0.7c-1.2-0.5-1.7-2.9-1.7-7.3
			c0-4.1,0.6-6.5,1.9-7.3c5.6-2.7,12.1-4.1,19.6-4.1c8.7,0,13.8,1.1,15.4,3.4c0.9,1.3,1.3,3.1,1.3,5.4c0,4.5-1.2,7.5-3.5,8.8
			c-1,0.7-2,1.1-3.2,1.1c-0.4,0-1-0.1-1.8-0.2c0,2.3,0.1,6.1,0.2,11.2c0.2,5.2,0.2,9.1,0.2,11.7c2.5-0.2,3.9-0.2,4.3-0.2
			c0.9,0,1.6,0,2.1,0.1c0.3,0.3,0.5,1.2,0.5,2.5c0,2.2-0.4,4.9-1.2,8.1s-1.5,5.2-2.2,5.9c-0.9,0.5-2.9,1-6.1,1.6s-6.4,0.9-9.5,0.9
			c-3.7,0-6.5-0.5-8.4-1.4c-0.7-0.5-1.1-1.6-1.1-3.2c0-0.3,0.2-1.7,0.6-4.1c-8.5,6.4-16.5,9.6-23.7,9.6c-6.3,0-11.4-2.2-15.2-6.7
			s-5.8-11.3-5.8-20.5c0-1.5,0.3-5.9,0.8-13.2c0,0.2-0.4,0.2-1.1,0.2c-1.1,0-3-0.2-5.6-0.6C520.2,454.5,519.8,451.9,519.8,447.6z"/>
		<path d="M604.6,437.4c0-1.7,0.2-2.7,0.5-3c2.2-0.3,3.9-0.5,5-0.5c0.3,0,0.8,0,1.3,0.1c0.5,0,0.9,0.1,1.3,0.1h0.6v-22.4
			c6.2-0.5,9.9-0.7,11.2-0.7c3,0,6.6,0.2,11,0.7l0.1,22.7c7,0.2,11.3,0.8,12.9,1.7c1.2,1.4,1.7,5.1,1.7,11.2c0,1.7-0.2,2.7-0.5,3
			c-2.3,0.3-4.1,0.5-5.4,0.5h-1c-0.6,0-1.6,0-3-0.1c-1.4,0-3.2-0.1-5.2-0.1c0,0.4,0,3.3-0.1,8.7c0,5.4-0.1,8.3-0.1,8.8
			c0,3.5,0.7,6,2,7.4s3.3,2.1,6,2.1c0.9,0,1.5-0.1,1.7-0.3c0.2-0.2,0.4-0.7,0.5-1.5c0-0.6,1-1,3.1-1.4l8-1.9c0.8,2.3,1.2,5,1.2,8.2
			c0,6.1-0.5,9.8-1.6,11.2c-0.3,0.2-1,0.5-1.9,1.1c-1,0.6-1.6,0.9-1.9,1c-0.3,0.1-0.9,0.4-1.7,0.7c-0.8,0.4-1.6,0.6-2.2,0.7
			c-0.6,0.1-1.5,0.2-2.7,0.4c-1.2,0.2-2.4,0.3-3.8,0.4c-1.3,0-2.9,0.1-4.7,0.1c-3.5,0-6.3-0.2-8.4-0.5c-2.2-0.4-4.2-1.1-6.2-2.2
			s-3.5-2.7-4.6-4.7s-2.1-4.7-2.9-8.2s-1.3-7.6-1.3-12.5c0-4.8,0-10.7,0-17.7c-3.5-0.4-5.9-0.9-7.1-1.6
			C605.1,447.3,604.6,443.6,604.6,437.4z"/>
		<path d="M658.4,437.4c0-1.7,0.2-2.7,0.5-3c2.2-0.3,3.9-0.5,5-0.5c0.3,0,0.8,0,1.3,0.1c0.5,0,0.9,0.1,1.3,0.1h0.6v-22.4
			c6.2-0.5,9.9-0.7,11.2-0.7c3,0,6.6,0.2,11,0.7l0.1,22.7c7,0.2,11.3,0.8,12.9,1.7c1.2,1.4,1.7,5.1,1.7,11.2c0,1.7-0.2,2.7-0.5,3
			c-2.3,0.3-4.1,0.5-5.4,0.5h-1c-0.6,0-1.6,0-3-0.1c-1.4,0-3.2-0.1-5.2-0.1c0,0.4,0,3.3-0.1,8.7c0,5.4-0.1,8.3-0.1,8.8
			c0,3.5,0.7,6,2,7.4s3.3,2.1,6,2.1c0.9,0,1.5-0.1,1.7-0.3c0.2-0.2,0.4-0.7,0.5-1.5c0-0.6,1-1,3.1-1.4l8-1.9c0.8,2.3,1.2,5,1.2,8.2
			c0,6.1-0.5,9.8-1.6,11.2c-0.3,0.2-1,0.5-1.9,1.1c-1,0.6-1.6,0.9-1.9,1c-0.3,0.1-0.9,0.4-1.7,0.7c-0.8,0.4-1.6,0.6-2.2,0.7
			c-0.6,0.1-1.5,0.2-2.7,0.4c-1.2,0.2-2.4,0.3-3.8,0.4c-1.3,0-2.9,0.1-4.7,0.1c-3.5,0-6.3-0.2-8.4-0.5c-2.2-0.4-4.2-1.1-6.2-2.2
			s-3.5-2.7-4.6-4.7s-2.1-4.7-2.9-8.2s-1.3-7.6-1.3-12.5c0-4.8,0-10.7,0-17.7c-3.5-0.4-5.9-0.9-7.1-1.6
			C659,447.3,658.4,443.6,658.4,437.4z"/>
		<path d="M714.7,470.9c0-5.9,1.5-11.6,4.5-17.2s7.3-10.4,13-14.2c5.6-3.8,11.8-5.8,18.6-5.8c8.1,0,14.1,2.7,18,8.2
			c3.8,5.5,5.7,12.4,5.7,20.7c0,10.9-3,19.3-9,24.9c-6,5.7-13.7,8.5-23.2,8.5c-9,0-15.8-2.4-20.5-7.2
			C717.1,484.1,714.7,478.1,714.7,470.9z M738,467.5c0,2.4,0.8,4.5,2.3,6.3s3.5,2.7,6,2.7c3.2,0,6.2-1.4,8.9-4.2s4.2-6.1,4.2-9.8
			c0-2.7-0.8-4.9-2.4-6.6c-1.6-1.8-3.7-2.6-6.2-2.6c-3.5,0-6.5,1.5-9,4.6C739.2,461,738,464.2,738,467.5z"/>
		<path d="M781,485.8c0-4.7,1.1-7.6,3.2-8.8c1-0.7,2-1.1,3.2-1.1c0.4,0,1,0.1,1.8,0.3c0-2.3-0.1-6-0.2-11.1c-0.2-5.1-0.2-9-0.2-11.6
			c-0.3,0-0.8,0.1-1.4,0.3c-0.6,0.2-1.2,0.3-1.6,0.3c-0.3,0-0.8-0.1-1.4-0.2c-0.6-0.2-1.1-0.2-1.4-0.2c-0.3-0.3-0.5-1.2-0.5-2.5
			c0-2.2,0.3-4.9,1-8.1c0.6-3.2,1.2-5.2,1.8-5.9c0.8-0.5,2.7-1,5.7-1.5s6.1-0.8,9.2-0.8c4,0,7.2,0.5,9.8,1.4
			c0.6,0.5,0.8,1.4,0.8,2.8c0,0.5-0.2,1.9-0.6,4.3c8.6-6.4,16.6-9.6,23.9-9.6c6.3,0,11.4,2.2,15.2,6.7s5.8,11.3,5.8,20.5
			c0,1.5-0.3,5.8-0.8,13c0-0.2,0.4-0.2,1.1-0.2c1.2,0,3.1,0.2,5.6,0.6c0.7,0.8,1.1,3.4,1.1,7.9c0,5.6-0.4,9-1.2,10.3
			c-6,1.6-11.5,2.4-16.4,2.4c-5.5,0-10.3-0.7-14.4-2.2c-0.6-0.4-1.2-1.8-1.8-4.3s-1-4.6-1-6.4c0-2.7,0.7-5,2.2-6.9
			c0.9-0.6,2-0.8,3.4-0.8c0.4,0,0.7,0,0.8,0.1c0.2,0.1,0.3,0.2,0.5,0.3c0.2,0.1,0.4,0.2,0.7,0.3c0.5-2.4,0.7-4.6,0.7-6.5
			c0-4.6-1.1-8.1-3.3-10.6s-4.9-3.7-8.2-3.7s-6.2,1.4-8.7,4.2c-2.5,2.8-3.7,6.6-3.7,11.4c0,2,0.2,4.1,0.7,6.3c0.9-0.6,2-0.9,3.4-0.9
			c1.3,0,2.1,0.2,2.4,0.6c0.7,0,1.1,1.6,1.1,4.9c0,0.7-0.4,4.1-1.1,10c-5.8,2.7-12.6,4.1-20.4,4.1c-8.8,0-14-1.1-15.6-3.4
			C781.3,490.5,781,488.6,781,485.8z"/>
		<path d="M313.4,577.4c0-1.7,0.2-2.7,0.5-3c2.2-0.3,3.9-0.5,5-0.5c0.3,0,0.8,0,1.3,0.1c0.5,0,0.9,0.1,1.3,0.1h0.6v-22.4
			c6.2-0.5,9.9-0.7,11.2-0.7c3,0,6.6,0.2,11,0.7l0.1,22.7c7,0.2,11.3,0.8,12.9,1.7c1.2,1.4,1.7,5.1,1.7,11.2c0,1.7-0.2,2.7-0.5,3
			c-2.3,0.3-4.1,0.5-5.4,0.5h-1c-0.6,0-1.6,0-3-0.1c-1.4,0-3.2-0.1-5.2-0.1c0,0.4,0,3.3-0.1,8.7c0,5.4-0.1,8.3-0.1,8.8
			c0,3.5,0.7,6,2,7.4s3.3,2.1,6,2.1c0.9,0,1.5-0.1,1.7-0.3s0.4-0.7,0.5-1.5c0-0.6,1-1,3.1-1.4l8-1.9c0.8,2.3,1.2,5,1.2,8.2
			c0,6.1-0.5,9.8-1.6,11.2c-0.3,0.2-1,0.5-1.9,1.1c-1,0.6-1.6,0.9-1.9,1s-0.9,0.4-1.7,0.7c-0.8,0.4-1.6,0.6-2.2,0.7
			c-0.6,0.1-1.5,0.2-2.7,0.4s-2.4,0.3-3.8,0.4c-1.3,0-2.9,0.1-4.7,0.1c-3.5,0-6.3-0.2-8.4-0.5c-2.2-0.4-4.2-1.1-6.2-2.2
			c-2-1.1-3.5-2.7-4.6-4.7s-2.1-4.7-2.9-8.2c-0.9-3.5-1.3-7.6-1.3-12.5c0-4.8,0-10.7,0-17.7c-3.5-0.4-5.9-0.9-7.1-1.6
			C313.9,587.3,313.4,583.6,313.4,577.4z"/>
		<path d="M369.7,610.9c0-5.9,1.5-11.6,4.5-17.2s7.3-10.4,13-14.2c5.6-3.8,11.8-5.8,18.6-5.8c8.1,0,14.1,2.7,18,8.2
			c3.8,5.5,5.7,12.4,5.7,20.7c0,10.9-3,19.3-9,24.9c-6,5.7-13.7,8.5-23.2,8.5c-9,0-15.8-2.4-20.5-7.2
			C372,624.1,369.7,618.1,369.7,610.9z M392.9,607.5c0,2.4,0.8,4.5,2.3,6.3s3.5,2.7,6,2.7c3.2,0,6.2-1.4,8.9-4.2
			c2.8-2.8,4.2-6.1,4.2-9.8c0-2.7-0.8-4.9-2.4-6.6c-1.6-1.8-3.7-2.6-6.2-2.6c-3.5,0-6.5,1.5-9,4.6
			C394.2,601,392.9,604.2,392.9,607.5z"/>
		<path d="M459.4,626.4c0-4.9,1.1-8.1,3.2-9.4c1-0.7,2-1.1,3.2-1.1c0.4,0,1,0.1,1.8,0.2c0-2.3-0.1-6-0.2-11.1
			c-0.2-5.1-0.2-9-0.2-11.6c-0.3,0-0.8,0.1-1.4,0.3s-1.2,0.3-1.6,0.3c-0.3,0-0.8-0.1-1.4-0.2c-0.6-0.2-1.1-0.2-1.4-0.2
			c-0.3-0.3-0.5-1.2-0.5-2.5c0-2.2,0.3-4.9,1-8.1c0.6-3.2,1.2-5.2,1.8-5.9c0.9-0.5,2.8-1,5.7-1.5c2.9-0.5,5.8-0.8,8.9-0.8
			c3.8,0,7,0.5,9.6,1.4c0.6,0.6,0.9,1.6,0.9,3c0,0.3-0.2,1.7-0.6,4.1c8.4-6.4,16.2-9.6,23.6-9.6c7.7,0,13.4,3.2,17.3,9.5
			c9.3-6.3,17.7-9.5,25.2-9.5c6.1,0,11,2.3,14.8,6.8s5.7,11.3,5.7,20.4c0,1.2-0.3,5.5-0.8,13c0-0.2,0.4-0.2,1.1-0.2
			c1.1,0,3,0.2,5.6,0.6c0.7,0.8,1.1,3.4,1.1,7.9c0,5.6-0.4,9-1.2,10.3c-6,1.6-11.5,2.4-16.4,2.4c-5.5,0-10.3-0.7-14.4-2.2
			c-0.6-0.4-1.2-1.8-1.8-4.3s-1-4.6-1-6.4c0-2.7,0.7-5,2.2-6.9c0.9-0.6,2-0.9,3.4-0.9c0.4,0,0.7,0,0.8,0.1c0.2,0.1,0.3,0.2,0.5,0.3
			s0.4,0.2,0.7,0.3c0.5-2.4,0.7-4.6,0.7-6.5c0-4.6-1.1-8.1-3.2-10.6c-2.2-2.5-4.8-3.7-7.9-3.7c-2.3,0-4.5,0.7-6.6,2.1
			c-2.1,1.4-3.7,3.3-4.8,5.9c-0.2,5.8-0.4,9.8-0.7,11.7c0-0.2,0.4-0.2,1.1-0.2c1.1,0,3,0.2,5.6,0.6c0.7,0.8,1.1,3.4,1.1,7.9
			c0,5.6-0.4,9-1.2,10.3c-6,1.6-11.5,2.4-16.4,2.4c-5.5,0-10.3-0.7-14.4-2.2c-0.6-0.4-1.2-1.8-1.8-4.3c-0.6-2.5-1-4.6-1-6.4
			c0-2.7,0.7-5,2.2-6.9c0.9-0.6,2-0.9,3.4-0.9c0.4,0,0.7,0,0.8,0.1c0.2,0.1,0.3,0.2,0.5,0.3s0.4,0.2,0.7,0.3
			c0.3-1.8,0.5-3.4,0.5-4.6c0-5.4-1.1-9.4-3.2-12.1c-2.1-2.7-4.8-4-8-4s-6.1,1.4-8.6,4.2s-3.7,6.6-3.7,11.4c0,2.1,0.2,4.2,0.7,6.5
			c0.9-0.6,2.2-0.8,3.7-0.8c1.4,0,2.3,0.2,2.6,0.6c0.8,0,1.2,1.6,1.2,4.9c0,0.7-0.4,4.1-1.2,10c-5.9,2.7-13.1,4-21.6,4
			c-7.5,0-12.2-1.1-14.3-3.4C459.8,630.4,459.4,628.8,459.4,626.4z"/>
		<path d="M585.2,624.9c0-3.9,0.8-6.2,2.4-6.8c0.7-0.4,2.1-0.8,4.2-1.1c1.4-0.2,2.4-0.4,2.8-0.4c-0.9-9.3-1.3-15.2-1.3-17.8
			c0-5.6,0.4-9.3,1.2-11c-2.3,0-4.1-0.2-5.4-0.5c-0.6-1.7-1-3.2-1-4.4c0-2.5,1.1-5.3,3.2-8.5c3-0.6,8.5-0.8,16.7-0.8
			c2.8,0,5.5,0.2,8.2,0.5c2.6,0.3,4.7,0.7,6.2,1.1c1.5,0.4,2.2,0.9,2.2,1.3c0.6,1,1,2.4,1,4.4c0,4.2-0.7,7.2-2.1,8.8
			c-0.3,0.3-1.3,0.5-3.2,0.5s-3.2-0.2-4-0.6c-0.8,5.6-1.3,12.8-1.3,21.7c0,3.8,0.1,5.7,0.3,5.9c0.5-0.1,1.1-0.1,2-0.1
			c2,0,3.9,0.4,5.6,1.3c0.3,0.6,0.5,1.5,0.5,2.9c0,2-0.3,4.3-1,7c-0.6,2.7-1.3,4.5-1.9,5.6c-1.3,0.7-5.5,1.1-12.6,1.1
			c-11.7,0-18.4-1.1-20.3-3.2C586,630.5,585.2,628.3,585.2,624.9z M597.2,550.2c0-2.2,1.2-3.4,3.6-3.4c2,0,4.2,0.6,6.5,1.8
			c1.7-1.7,3.9-2.5,6.7-2.5c1.7,0,3.2,0.6,4.5,1.8s2,2.8,2,4.9c0,1-0.2,2-0.6,3c-0.4,1-0.9,1.8-1.4,2.4c-0.5,0.6-1.3,1.4-2.4,2.2
			s-1.9,1.4-2.5,1.8c-0.6,0.4-1.6,1-3.1,1.8s-2.4,1.4-2.8,1.6c-3.1-2.3-5.6-4.9-7.6-7.9C598.1,554.9,597.2,552.3,597.2,550.2z"/>
		<path d="M631.4,625.8c0-4.7,1.1-7.6,3.2-8.8c1-0.7,2-1.1,3.2-1.1c0.4,0,1,0.1,1.8,0.3c0-2.3-0.1-6-0.2-11.1
			c-0.2-5.1-0.2-9-0.2-11.6c-0.3,0-0.8,0.1-1.4,0.3c-0.6,0.2-1.2,0.3-1.6,0.3c-0.3,0-0.8-0.1-1.4-0.2c-0.6-0.2-1.1-0.2-1.4-0.2
			c-0.3-0.3-0.5-1.2-0.5-2.5c0-2.2,0.3-4.9,1-8.1c0.6-3.2,1.2-5.2,1.8-5.9c0.8-0.5,2.7-1,5.7-1.5s6.1-0.8,9.2-0.8
			c4,0,7.2,0.5,9.8,1.4c0.6,0.5,0.8,1.4,0.8,2.8c0,0.5-0.2,1.9-0.6,4.3c8.6-6.4,16.6-9.6,23.9-9.6c6.3,0,11.4,2.2,15.2,6.7
			s5.8,11.3,5.8,20.5c0,1.5-0.3,5.9-0.8,13c0-0.2,0.4-0.2,1.1-0.2c1.2,0,3.1,0.2,5.6,0.6c0.7,0.8,1.1,3.4,1.1,7.9
			c0,5.6-0.4,9-1.2,10.3c-6,1.6-11.5,2.4-16.4,2.4c-5.5,0-10.3-0.7-14.4-2.2c-0.6-0.4-1.2-1.8-1.8-4.3s-1-4.6-1-6.4
			c0-2.7,0.7-5,2.2-6.9c0.9-0.6,2-0.8,3.4-0.8c0.4,0,0.7,0,0.8,0.1c0.2,0.1,0.3,0.2,0.5,0.3s0.4,0.2,0.7,0.3
			c0.5-2.4,0.7-4.6,0.7-6.5c0-4.6-1.1-8.1-3.3-10.6s-4.9-3.7-8.2-3.7s-6.2,1.4-8.7,4.2s-3.7,6.6-3.7,11.4c0,2,0.2,4.1,0.7,6.3
			c0.9-0.6,2-0.9,3.4-0.9c1.3,0,2.1,0.2,2.4,0.6c0.7,0,1.1,1.6,1.1,4.9c0,0.7-0.4,4.1-1.1,10c-5.8,2.7-12.6,4.1-20.4,4.1
			c-8.8,0-14-1.1-15.6-3.4C631.7,630.5,631.4,628.6,631.4,625.8z"/>
		<path d="M713.5,577.4c0-1.7,0.2-2.7,0.5-3c2.2-0.3,3.9-0.5,5-0.5c0.3,0,0.8,0,1.3,0.1c0.5,0,0.9,0.1,1.3,0.1h0.6v-22.4
			c6.2-0.5,9.9-0.7,11.2-0.7c3,0,6.6,0.2,11,0.7l0.1,22.7c7,0.2,11.3,0.8,12.9,1.7c1.2,1.4,1.7,5.1,1.7,11.2c0,1.7-0.2,2.7-0.5,3
			c-2.3,0.3-4.1,0.5-5.4,0.5h-1c-0.6,0-1.6,0-3-0.1c-1.4,0-3.2-0.1-5.2-0.1c0,0.4,0,3.3-0.1,8.7c0,5.4-0.1,8.3-0.1,8.8
			c0,3.5,0.7,6,2,7.4s3.3,2.1,6,2.1c0.9,0,1.5-0.1,1.7-0.3s0.4-0.7,0.5-1.5c0-0.6,1-1,3.1-1.4l8-1.9c0.8,2.3,1.2,5,1.2,8.2
			c0,6.1-0.5,9.8-1.6,11.2c-0.3,0.2-1,0.5-1.9,1.1c-1,0.6-1.6,0.9-1.9,1c-0.3,0.1-0.9,0.4-1.7,0.7c-0.8,0.4-1.6,0.6-2.2,0.7
			c-0.6,0.1-1.5,0.2-2.7,0.4s-2.4,0.3-3.8,0.4c-1.3,0-2.9,0.1-4.7,0.1c-3.5,0-6.3-0.2-8.4-0.5c-2.2-0.4-4.2-1.1-6.2-2.2
			c-2-1.1-3.5-2.7-4.6-4.7s-2.1-4.7-2.9-8.2c-0.9-3.5-1.3-7.6-1.3-12.5c0-4.8,0-10.7,0-17.7c-3.5-0.4-5.9-0.9-7.1-1.6
			C714,587.3,713.5,583.6,713.5,577.4z"/>
		<path d="M316.8,749.4c0-5.7,0.9-11.2,2.6-16.5s4.5-9.8,8.4-13.5c3.9-3.8,8.5-5.6,13.7-5.6c2.2,0,4.1,0.3,5.8,1
			c1.7,0.6,3.1,1.4,4.1,2.4c1,0.9,1.8,1.9,2.5,2.8c0.6,0.9,1.1,1.7,1.3,2.4l0.5,1c0-2.7,0-4.8-0.1-6.2c2.7-2.3,7.4-3.4,14.2-3.4
			c2.4,0,4.6,0.1,6.4,0.2c1.9,0.2,3.3,0.4,4.3,0.6c1,0.2,1.7,0.5,2.3,0.7c0.6,0.2,1,0.4,1.1,0.5l0.2,0.1c0.3,0.7,0.5,3,0.5,6.8
			c0,3.9-0.2,6.2-0.5,6.9c-1.1,1.5-3.1,2.2-6,2.2c-0.8,0-1.7-0.1-2.6-0.2c0.2,0.5,0.4,2.3,0.4,5.6c0,10.1-0.4,15.7-1.1,16.8
			c0.6-0.2,1.2-0.4,2-0.4c0.9,0,3.1,0.5,6.4,1.4c0.6,0.5,0.9,4.1,0.9,10.7c0,3.5-0.1,5.7-0.4,6.6c-0.5,0.9-2.2,1.7-5.3,2.5
			c-3.1,0.8-6.3,1.2-9.7,1.2c-9.6,0-15-0.2-16.2-0.5c-0.6-1.5-0.8-2.8-0.8-3.8c0-0.6,0.1-1.1,0.4-1.4c-1.2,0.4-3.8,1.6-7.7,3.6
			c-4,2-6.9,3-8.9,3c-6.2,0-10.8-2.7-14-8C318.4,763.5,316.8,757,316.8,749.4z M332.8,747.2c0,2.8,0.8,5.1,2.3,7.1s3.5,3,6,3
			c3.3,0,6.3-1.5,9.1-4.5c2.8-3,4.1-6.4,4.1-10.2c0-2.6-0.8-4.8-2.3-6.6c-1.6-1.8-3.6-2.7-6.2-2.7c-2.4,0-4.6,0.8-6.7,2.3
			s-3.7,3.6-4.8,6.1C333.2,743.5,332.8,745.3,332.8,747.2z"/>
		<path d="M415.1,747.7c0-11,3.5-19.4,10.4-25.1c6.9-5.7,17.3-8.6,31.3-8.6l1-3.2c2.2-0.5,4.3-0.8,6.4-0.8c4.7,0,9,1.4,13,4.2
			c0.2,1.2,0.4,2.8,0.4,5c0,4.2-0.7,7.7-2,10.6c-1.4,2.9-3,4.7-5,5.5c-3.4,1.2-6.6,1.8-9.5,1.8c-3,0-5.6-0.6-8-1.9l0.8-4.2
			c-1.9-0.6-3.8-0.9-5.5-0.9c-3.7,0-6.7,1.7-9.1,5c-2.4,3.4-3.5,7.1-3.5,11.2c0,3.4,0.8,6.5,2.4,9.2s3.6,4.1,6,4.1
			c2.2,0,4.9-0.9,8-2.8l-0.8-3.3c3.8-2.8,8.1-4.2,13-4.2c1.7,0,3.8,0.3,6.4,0.9c4.9,5.4,7.3,11.7,7.3,19c0,1.6-0.1,3.2-0.4,4.9
			c-4.4,2.9-9.4,4.3-15.1,4.3c-0.8,0-2.1-0.1-3.8-0.2l-1.1-3.2c-5.4,1-10.2,1.6-14.2,1.6c-8.6,0-15.5-2.4-20.5-7.1
			C417.6,764.7,415.1,757.4,415.1,747.7z"/>
		<path d="M482,727.6c0-5.5,0.4-8.9,1.2-10.1c6-1.7,11.5-2.5,16.4-2.5c5.5,0,10.3,0.8,14.4,2.3c0.6,0.4,1.2,1.8,1.8,4.2s1,4.5,1,6.3
			c0,2.6-0.7,4.9-2.2,6.8c-0.9,0.6-2,0.8-3.4,0.8c-0.4,0-0.7,0-0.8-0.1c-0.2-0.1-0.3-0.2-0.5-0.3s-0.4-0.2-0.7-0.3
			c-0.5,2.4-0.7,4.6-0.7,6.6c0,4.6,1.1,8.2,3.4,10.7s5.1,3.7,8.3,3.7s6-1.4,8.4-4.3c2.4-2.8,3.6-6.7,3.6-11.6c0-2-0.2-4.1-0.6-6.3
			c-1,0.6-2.2,1-3.7,1c-0.9,0-1.5-0.2-1.7-0.7c-1.2-0.5-1.7-2.9-1.7-7.3c0-4.1,0.6-6.5,1.9-7.3c5.6-2.7,12.1-4.1,19.6-4.1
			c8.7,0,13.8,1.1,15.4,3.4c0.9,1.3,1.3,3.1,1.3,5.4c0,4.5-1.2,7.5-3.5,8.8c-1,0.7-2,1.1-3.2,1.1c-0.4,0-1-0.1-1.8-0.2
			c0,2.3,0.1,6.1,0.2,11.2c0.2,5.2,0.2,9.1,0.2,11.7c2.5-0.2,3.9-0.2,4.3-0.2c0.9,0,1.6,0,2.1,0.1c0.3,0.3,0.5,1.2,0.5,2.5
			c0,2.2-0.4,4.9-1.2,8.1c-0.8,3.2-1.5,5.2-2.2,5.9c-0.9,0.5-2.9,1-6.1,1.6s-6.4,0.9-9.5,0.9c-3.7,0-6.5-0.5-8.4-1.4
			c-0.7-0.5-1.1-1.6-1.1-3.2c0-0.3,0.2-1.7,0.6-4.1c-8.5,6.4-16.5,9.6-23.7,9.6c-6.3,0-11.4-2.2-15.2-6.7
			c-3.8-4.5-5.8-11.3-5.8-20.5c0-1.5,0.3-5.9,0.8-13.2c0,0.2-0.4,0.2-1.1,0.2c-1.1,0-3-0.2-5.6-0.6C482.4,734.5,482,731.9,482,727.6
			z"/>
		<path d="M566.8,717.4c0-1.7,0.2-2.7,0.5-3c2.2-0.3,3.9-0.5,5-0.5c0.3,0,0.8,0,1.3,0.1c0.5,0,0.9,0.1,1.3,0.1h0.6v-22.4
			c6.2-0.5,9.9-0.7,11.2-0.7c3,0,6.6,0.2,11,0.7l0.1,22.7c7,0.2,11.3,0.8,12.9,1.7c1.2,1.4,1.7,5.1,1.7,11.2c0,1.7-0.2,2.7-0.5,3
			c-2.3,0.3-4.1,0.5-5.4,0.5h-1c-0.6,0-1.6,0-3-0.1c-1.4,0-3.2-0.1-5.2-0.1c0,0.4,0,3.3-0.1,8.7c0,5.4-0.1,8.3-0.1,8.8
			c0,3.5,0.7,6,2,7.4s3.3,2.1,6,2.1c0.9,0,1.5-0.1,1.7-0.3s0.4-0.7,0.5-1.5c0-0.6,1-1,3.1-1.4l8-1.9c0.8,2.3,1.2,5,1.2,8.2
			c0,6.1-0.5,9.8-1.6,11.2c-0.3,0.2-1,0.5-1.9,1.1c-1,0.6-1.6,0.9-1.9,1c-0.3,0.1-0.9,0.4-1.7,0.7c-0.8,0.4-1.6,0.6-2.2,0.7
			c-0.6,0.1-1.5,0.2-2.7,0.4s-2.4,0.3-3.8,0.4c-1.3,0-2.9,0.1-4.7,0.1c-3.5,0-6.3-0.2-8.4-0.5c-2.2-0.4-4.2-1.1-6.2-2.2
			c-2-1.1-3.5-2.7-4.6-4.7s-2.1-4.7-2.9-8.2c-0.9-3.5-1.3-7.6-1.3-12.5c0-4.8,0-10.7,0-17.7c-3.5-0.4-5.9-0.9-7.1-1.6
			C567.3,727.3,566.8,723.6,566.8,717.4z"/>
		<path d="M622.8,764.9c0-3.9,0.8-6.2,2.4-6.8c0.7-0.4,2.1-0.8,4.2-1.1c1.4-0.2,2.4-0.4,2.8-0.4c-0.9-9.3-1.3-15.2-1.3-17.8
			c0-5.6,0.4-9.3,1.2-11c-2.3,0-4.1-0.2-5.4-0.5c-0.6-1.7-1-3.2-1-4.4c0-2.5,1.1-5.3,3.2-8.5c3-0.6,8.5-0.8,16.7-0.8
			c2.8,0,5.5,0.2,8.2,0.5c2.6,0.3,4.7,0.7,6.2,1.1c1.5,0.4,2.2,0.9,2.2,1.3c0.6,1,1,2.4,1,4.4c0,4.2-0.7,7.2-2.1,8.8
			c-0.3,0.3-1.3,0.5-3.2,0.5s-3.2-0.2-4-0.6c-0.8,5.6-1.3,12.8-1.3,21.7c0,3.8,0.1,5.7,0.3,5.9c0.5-0.1,1.1-0.1,2-0.1
			c2,0,3.9,0.4,5.6,1.3c0.3,0.6,0.5,1.5,0.5,2.9c0,2-0.3,4.3-1,7c-0.6,2.7-1.3,4.5-1.9,5.6c-1.3,0.7-5.5,1.1-12.6,1.1
			c-11.7,0-18.4-1.1-20.3-3.2C623.6,770.5,622.8,768.3,622.8,764.9z M634.8,690.2c0-2.2,1.2-3.4,3.6-3.4c2,0,4.2,0.6,6.5,1.8
			c1.7-1.7,3.9-2.5,6.7-2.5c1.7,0,3.2,0.6,4.5,1.8s2,2.8,2,4.9c0,1-0.2,2-0.6,3s-0.9,1.8-1.4,2.4c-0.5,0.6-1.3,1.4-2.4,2.2
			s-1.9,1.4-2.5,1.8c-0.6,0.4-1.6,1-3.1,1.8s-2.4,1.4-2.8,1.6c-3.1-2.3-5.6-4.9-7.6-7.9C635.8,694.9,634.8,692.3,634.8,690.2z"/>
		<path d="M667.7,748.3c0-3.8,0.7-7.6,2.2-11.5s3.6-7.6,6.5-11.1c2.8-3.5,6.7-6.3,11.5-8.6c4.8-2.2,10.3-3.4,16.3-3.4
			c6.6,0,11.8,1.3,15.5,4s5.6,6.5,5.6,11.5c0,6.7-3.1,12.2-9.3,16.4s-13.1,6.3-20.8,6.3c-2.1,0-4.2-0.2-6.4-0.6
			c0.2,5.7,5,8.5,14.6,8.5c1.7,0,3.1-0.1,4.3-0.3c0-0.6,0.1-1.3,0.4-2c3.5-2.8,7.3-4.2,11.4-4.2c0.8,0,1.4,0,1.8,0.1
			c5.3,2.9,8.5,7.6,9.7,14.1c-0.1,0.6-0.4,1.3-0.9,2s-1.1,1.3-1.6,1.8c-0.6,0.5-1.4,1.1-2.4,1.8s-1.9,1.2-2.5,1.5s-1.5,0.8-2.6,1.4
			c-1.2,0.6-1.8,1-2,1.1c-0.5,0-0.9-0.1-1.2-0.2c-0.3-0.1-0.6-0.3-0.9-0.6c-0.3-0.3-0.5-0.5-0.5-0.6c-0.1-0.1-0.2-0.4-0.5-0.9
			c-0.2-0.5-0.4-0.8-0.5-0.8c-4.5,1.7-9.1,2.6-13.8,2.6c-10.7,0-19.1-2.8-25-8.3C670.7,762.8,667.7,756.1,667.7,748.3z M691.1,735.8
			c0,2.6,1.9,4,5.8,4c2.9,0,5.6-0.7,8.3-2c2.6-1.4,4-3,4-5c0-1.4-0.5-2.8-1.4-4.3s-2.4-2.2-4.4-2.2c-2.5,0-5.1,1-8,3
			C692.5,731.2,691.1,733.4,691.1,735.8z"/>
		<path d="M736.1,717.8c0-9,1.8-17.6,5.3-25.7c0.4-0.1,1-0.3,1.9-0.7s1.7-0.6,2.5-0.8s1.5-0.2,2.3-0.2c1.8,0,3.9,0.6,6.1,1.7
			c4,9,6,18.2,6,27.7c0,10.9-2.6,21.3-7.8,31.3c-1.3,1.1-2.7,1.7-4.2,1.7c-1.4,0-2.7-0.4-4-1.3C738.8,740,736.1,728.7,736.1,717.8z
			 M741,767.5c0-2.2,0.2-4.5,0.7-6.8c1.7-0.6,3.6-1,5.6-1c2.1,0,4.2,0.3,6.4,1c0.7,2.4,1.1,4.8,1.1,7.1c0,2.4-0.4,4.8-1.1,7.2
			c-1.5,0.6-3.4,1-5.6,1c-2.7,0-4.8-0.3-6.4-1C741.2,772.3,741,769.9,741,767.5z"/>
	</g>
</g>
</svg>
