<?xml version="1.0" encoding="utf-8"?>
<!-- Generator: Adobe Illustrator 26.4.1, SVG Export Plug-In . SVG Version: 6.00 Build 0)  -->
<svg version="1.1" id="FQT-Message" xmlns="http://www.w3.org/2000/svg" xmlns:xlink="http://www.w3.org/1999/xlink" x="0px"
	 y="0px" viewBox="0 0 1080 2160" style="enable-background:new 0 0 1080 2160;" xml:space="preserve">
<style type="text/css">
	.st0{fill:#FFF9D9;}
	.st1{fill:none;stroke:#000000;stroke-width:2;stroke-miterlimit:10;}
	.st2{opacity:0.9;}
</style>
<g id="Story-Message">
	<g>
		<path class="st0" d="M904.3,105.1H175.7c-44.2,0-80.1,35.8-80.1,80.1v684.6c0,44.2,35.8,80.1,80.1,80.1h322.1
			c15.3,35.3,30.6,70.6,45.9,105.9c14-35.3,28-70.6,41.9-105.9h318.8c44.2,0,80.1-35.8,80.1-80.1V185.1
			C984.4,140.9,948.5,105.1,904.3,105.1z"/>
		<path class="st1" d="M904.3,105.1H175.7c-44.2,0-80.1,35.8-80.1,80.1v684.6c0,44.2,35.8,80.1,80.1,80.1h322.1
			c15.3,35.3,30.6,70.6,45.9,105.9c14-35.3,28-70.6,41.9-105.9h318.8c44.2,0,80.1-35.8,80.1-80.1V185.1
			C984.4,140.9,948.5,105.1,904.3,105.1z"/>
	</g>
	<g class="st2">
		<path d="M297.4,314.3c0-12.2,3.1-22.5,9.3-30.9s14.5-12.6,24.9-12.6c7.6,0,13.2,1.7,16.8,5.2c0.2-2.4,1-3.9,2.5-4.4
			c2-0.9,4.4-1.3,7.3-1.3c3.8,0,6.7,0.8,8.9,2.4c1,5.6,1.4,10.3,1.4,14.1c0,6.9-1.4,12.4-4.3,16.6c-4.2,1.6-8,2.5-11.2,2.5
			c-3,0-6.3-0.8-9.7-2.4c-0.1-0.2-0.1-0.5-0.1-1.1c0-1,0.1-1.6,0.4-1.9c0-3.1-1.3-5.5-3.8-7.3c-2.6-1.8-5-2.7-7.2-2.7
			c-3.3,0-6.1,2.5-8.4,7.6s-3.5,10.6-3.5,16.7c0,5.8,1.1,10.4,3.4,13.7c2.2,3.3,5,4.9,8.4,4.9c3.8,0,7.5-2.2,10.9-6.5
			c-0.2-1.5-0.4-2.3-0.4-2.4c0-0.2,0-0.3,0.1-0.5c0-0.2,0.1-0.3,0.1-0.4c3-1.4,6.2-2.1,9.6-2.1c3.6,0,7.5,0.8,11.6,2.4
			c2.8,4.3,4.2,9.8,4.2,16.6c0,3.7-0.5,8.4-1.4,14.1c-2.5,2-5.7,3-9.6,3c-2.9,0-5.1-0.6-6.6-1.9c-1.7-0.6-2.5-2.2-2.5-4.6
			c-5.3,3.6-10.6,5.3-16.1,5.3c-4.2,0-8.4-0.9-12.4-2.6c-4.1-1.8-7.8-4.3-11.2-7.7c-3.4-3.4-6.1-7.8-8.2-13.3
			C298.5,327.2,297.4,321.1,297.4,314.3z"/>
		<path d="M375.9,345.3c0-3.8,0.2-6,0.7-6.5c0.7-0.4,2.2-0.8,4.3-1.1c1.5-0.2,2.4-0.4,2.8-0.4c-0.9-4.6-1.3-12.4-1.3-23.4
			c0-12.9,0.4-24.3,1.2-34.2c-2.4,0-4.2-0.2-5.5-0.5c-0.2-1.6-0.2-2.9-0.2-3.8c0-3.5,0.9-6.6,2.6-9.1c3.5-0.8,8.1-1.2,13.9-1.2
			c4.4,0,7.7,0.4,10,1.2c0.9,7.4,1.3,15.3,1.3,23.8c0,5.9-0.3,14.3-0.9,25.2c-0.6,10.9-0.9,18.4-1,22.6c0.5-0.1,1.2-0.1,2.1-0.1
			c2.1,0,4.1,0.4,5.9,1.3c0.2,0.3,0.4,1,0.4,2c0,1.7-0.3,4.1-1,7.4c-0.7,3.2-1.3,5.3-1.8,6.1c-1.3,0.7-5.7,1.1-13.2,1.1
			c-11.1,0-17.7-1.1-19.5-3.2C376.1,351.8,375.9,349.4,375.9,345.3z"/>
		<path d="M416.3,345.6c0-3.9,0.8-6.2,2.4-6.8c0.7-0.4,2.1-0.8,4.2-1.1c1.4-0.2,2.4-0.4,2.8-0.4c-0.9-9.3-1.3-15.2-1.3-17.8
			c0-5.6,0.4-9.3,1.2-11c-2.3,0-4.1-0.2-5.4-0.5c-0.6-1.7-1-3.2-1-4.4c0-2.5,1.1-5.3,3.2-8.5c3-0.6,8.5-0.8,16.7-0.8
			c2.8,0,5.5,0.2,8.2,0.5c2.6,0.3,4.7,0.7,6.2,1.1s2.2,0.9,2.2,1.3c0.6,1,1,2.4,1,4.4c0,4.2-0.7,7.2-2.1,8.8
			c-0.3,0.3-1.3,0.5-3.2,0.5s-3.2-0.2-4-0.6c-0.8,5.6-1.3,12.8-1.3,21.7c0,3.8,0.1,5.7,0.3,5.9c0.5-0.1,1.1-0.1,2-0.1
			c2,0,3.9,0.4,5.6,1.3c0.3,0.6,0.5,1.5,0.5,2.9c0,2-0.3,4.3-1,7c-0.6,2.7-1.3,4.5-1.9,5.6c-1.3,0.7-5.5,1.1-12.6,1.1
			c-11.7,0-18.4-1.1-20.3-3.2C417.1,351.2,416.3,349,416.3,345.6z M428.3,270.9c0-2.2,1.2-3.4,3.6-3.4c2,0,4.2,0.6,6.5,1.8
			c1.7-1.7,3.9-2.5,6.7-2.5c1.7,0,3.2,0.6,4.5,1.8c1.3,1.2,2,2.8,2,4.9c0,1-0.2,2-0.6,3s-0.9,1.8-1.4,2.4s-1.3,1.4-2.4,2.2
			s-1.9,1.4-2.5,1.8s-1.6,1-3.1,1.8s-2.4,1.4-2.8,1.6c-3.1-2.3-5.6-4.9-7.6-7.9C429.3,275.6,428.3,273,428.3,270.9z"/>
		<path d="M461.8,328.3c0-11,3.5-19.4,10.4-25.1s17.3-8.6,31.3-8.6l1-3.2c2.2-0.5,4.3-0.8,6.4-0.8c4.7,0,9,1.4,13,4.2
			c0.2,1.2,0.4,2.8,0.4,5c0,4.2-0.7,7.7-2,10.6c-1.4,2.9-3,4.7-5,5.5c-3.4,1.2-6.6,1.8-9.5,1.8c-3,0-5.6-0.6-8-1.9l0.8-4.2
			c-1.9-0.6-3.8-0.9-5.5-0.9c-3.7,0-6.7,1.7-9.1,5c-2.4,3.4-3.5,7.1-3.5,11.2c0,3.4,0.8,6.5,2.4,9.2s3.6,4.1,6,4.1
			c2.2,0,4.9-0.9,8-2.8l-0.8-3.3c3.8-2.8,8.1-4.2,13-4.2c1.7,0,3.8,0.3,6.4,0.9c4.9,5.4,7.3,11.7,7.3,19c0,1.6-0.1,3.2-0.4,4.9
			c-4.4,2.9-9.4,4.3-15.1,4.3c-0.8,0-2.1-0.1-3.8-0.2l-1.1-3.2c-5.4,1-10.2,1.6-14.2,1.6c-8.6,0-15.5-2.4-20.5-7.1
			C464.3,345.3,461.8,338.1,461.8,328.3z"/>
		<path d="M527.1,275.7c0-4,1-6.6,2.9-7.9c3.3-1.6,8.2-2.4,14.6-2.4c8.2,0,13.7,0.8,16.4,2.4c1.6,0.7,2.4,3.2,2.4,7.3
			c0,3.7-0.4,6-1.3,6.8c-1.9,0.3-3.5,0.5-4.7,0.5c0.1,3.8,0.5,12,1.2,24.6c4.3-2.7,8.1-5.6,11.5-8.7s5.1-5.5,5.1-7.3
			c0-0.6-0.2-1-0.5-1.3c-0.6,0.6-1.6,0.8-3,0.8c-0.6,0-0.9-0.1-1.1-0.4c-0.7-0.7-1.1-2.4-1.1-5.2c0-1.1,0.2-1.8,0.6-2
			c3-0.9,6.7-1.3,11.1-1.3c9,0,15.9,0.9,20.5,2.8c0.3,0.6,0.5,1.6,0.5,2.9c0,3.7-0.9,5.8-2.8,6.4c-0.2,0.1-0.6,0.1-1.2,0.1
			c-2.3,0-3.7-0.3-4.4-1c-0.1,0.5-0.8,1.6-2.2,3.3c-1.4,1.8-3.5,4-6.3,6.6c-2.8,2.7-5.7,5.2-8.9,7.7c7.7,3.2,14.3,7.9,19.6,14.2
			s8,10.8,8,13.4c0.6-0.3,1.4-0.5,2.3-0.5c0.7,0,1.7,0.2,3,0.7c1.4,0.6,2.1,3,2.1,7.1c0,3.6-0.6,6.3-1.8,8.1c-2.7,1.4-8.3,2-16.8,2
			c-5.3,0-9.7-0.6-13.3-1.8c-1.9-2.4-2.9-5.6-2.9-9.6c0-2.4,0.4-4.3,1.3-5.6c0.6-0.4,1.4-0.6,2.3-0.6c0.6,0,1.3,0.1,2.1,0.4
			c-0.9-2.8-2.2-5.2-4-7.4c-1.8-2.1-4-3.8-6.6-5.1c-2.6-1.3-4.7-2.2-6.3-2.8c-1.6-0.6-3.7-1.2-6.2-1.9c0.1,1.9,0.1,4.8,0.1,8.7
			c0,3.1,0,5.4-0.1,6.9c1-0.6,2.2-0.9,3.7-0.9s2.3,0.2,2.7,0.6c1.3,0.3,1.9,2.9,1.9,7.7c0,4.5-0.2,7.7-0.5,9.6
			c-4.3,1.1-12.3,1.7-24.2,1.7c-5.5,0-9.4-0.5-11.9-1.4c-1.8-2.1-2.7-5.5-2.7-10.2c0-3.4,0.7-5.4,2-6.1c1.2-0.8,3.1-1.2,5.7-1.2
			c0.6,0,1.2,0.1,1.7,0.3c-0.5-22-0.7-37.4-0.7-46.2c0-5.1,0.1-7.9,0.2-8.4c-1.4,0.6-2.8,1-4.2,1c-1.6,0-2.9-0.4-4-1.3
			C527.7,280.1,527.1,278.1,527.1,275.7z"/>
		<path d="M637.7,331.6c0-5.9,1.5-11.6,4.5-17.2s7.3-10.4,13-14.2c5.6-3.8,11.8-5.8,18.6-5.8c8.1,0,14.1,2.7,18,8.2
			c3.8,5.5,5.7,12.4,5.7,20.7c0,10.9-3,19.3-9,24.9c-6,5.7-13.7,8.5-23.2,8.5c-9,0-15.8-2.4-20.5-7.2
			C640.1,344.8,637.7,338.8,637.7,331.6z M661,328.2c0,2.4,0.8,4.5,2.3,6.3s3.5,2.7,6,2.7c3.2,0,6.2-1.4,8.9-4.2s4.2-6.1,4.2-9.8
			c0-2.7-0.8-4.9-2.4-6.6c-1.6-1.8-3.7-2.6-6.2-2.6c-3.5,0-6.5,1.5-9,4.6S661,324.9,661,328.2z"/>
		<path d="M704,346.5c0-4.7,1.1-7.6,3.2-8.8c1-0.7,2-1.1,3.2-1.1c0.4,0,1,0.1,1.8,0.3c0-2.3-0.1-6-0.2-11.1c-0.2-5.1-0.2-9-0.2-11.6
			c-0.3,0-0.8,0.1-1.4,0.3c-0.6,0.2-1.2,0.3-1.6,0.3c-0.3,0-0.8-0.1-1.4-0.2c-0.6-0.2-1.1-0.2-1.4-0.2c-0.3-0.3-0.5-1.2-0.5-2.5
			c0-2.2,0.3-4.9,1-8.1c0.6-3.2,1.2-5.2,1.8-5.9c0.8-0.5,2.7-1,5.7-1.5s6.1-0.8,9.2-0.8c4,0,7.2,0.5,9.8,1.4
			c0.6,0.5,0.8,1.4,0.8,2.8c0,0.5-0.2,1.9-0.6,4.3c8.6-6.4,16.6-9.6,23.9-9.6c6.3,0,11.4,2.2,15.2,6.7s5.8,11.3,5.8,20.5
			c0,1.5-0.3,5.8-0.8,13c0-0.2,0.4-0.2,1.1-0.2c1.2,0,3.1,0.2,5.6,0.6c0.7,0.8,1.1,3.4,1.1,7.9c0,5.6-0.4,9-1.2,10.3
			c-6,1.6-11.5,2.4-16.4,2.4c-5.5,0-10.3-0.7-14.4-2.2c-0.6-0.4-1.2-1.8-1.8-4.3s-1-4.6-1-6.4c0-2.7,0.7-5,2.2-6.9
			c0.9-0.6,2-0.8,3.4-0.8c0.4,0,0.7,0,0.8,0.1c0.2,0.1,0.3,0.2,0.5,0.3c0.2,0.1,0.4,0.2,0.7,0.3c0.5-2.4,0.7-4.6,0.7-6.5
			c0-4.6-1.1-8.1-3.3-10.6s-4.9-3.7-8.2-3.7s-6.2,1.4-8.7,4.2c-2.5,2.8-3.7,6.6-3.7,11.4c0,2,0.2,4.1,0.7,6.3c0.9-0.6,2-0.9,3.4-0.9
			c1.3,0,2.1,0.2,2.4,0.6c0.7,0,1.1,1.6,1.1,4.9c0,0.7-0.4,4.1-1.1,10c-5.8,2.7-12.6,4.1-20.4,4.1c-8.8,0-14-1.1-15.6-3.4
			C704.3,351.2,704,349.3,704,346.5z"/>
		<path d="M253.7,438.1c0-1.7,0.2-2.7,0.5-3c2.2-0.3,3.9-0.5,5-0.5c0.3,0,0.8,0,1.3,0.1c0.5,0,0.9,0.1,1.3,0.1h0.6v-22.4
			c6.2-0.5,9.9-0.7,11.2-0.7c3,0,6.6,0.2,11,0.7l0.1,22.7c7,0.2,11.3,0.8,12.9,1.7c1.2,1.4,1.7,5.1,1.7,11.2c0,1.7-0.2,2.7-0.5,3
			c-2.3,0.3-4.1,0.5-5.4,0.5h-1c-0.6,0-1.6,0-3-0.1c-1.4,0-3.2-0.1-5.2-0.1c0,0.4,0,3.3-0.1,8.7c0,5.4-0.1,8.3-0.1,8.8
			c0,3.5,0.7,6,2,7.4s3.3,2.1,6,2.1c0.9,0,1.5-0.1,1.7-0.3c0.2-0.2,0.4-0.7,0.5-1.5c0-0.6,1-1,3.1-1.4l8-1.9c0.8,2.3,1.2,5,1.2,8.2
			c0,6.1-0.5,9.8-1.6,11.2c-0.3,0.2-1,0.5-1.9,1.1c-1,0.6-1.6,0.9-1.9,1s-0.9,0.4-1.7,0.7c-0.8,0.4-1.6,0.6-2.2,0.7
			s-1.5,0.2-2.7,0.4c-1.2,0.2-2.4,0.3-3.8,0.4c-1.3,0-2.9,0.1-4.7,0.1c-3.5,0-6.3-0.2-8.4-0.5c-2.2-0.4-4.2-1.1-6.2-2.2
			s-3.5-2.7-4.6-4.7s-2.1-4.7-2.9-8.2c-0.9-3.5-1.3-7.6-1.3-12.5c0-4.8,0-10.7,0-17.7c-3.5-0.4-5.9-0.9-7.1-1.6
			C254.2,448,253.7,444.3,253.7,438.1z"/>
		<path d="M306.1,418.3c0-6,1.1-9.6,3.4-10.6c2.7-1.6,7.6-2.4,14.6-2.4c3.7,0,7.9,0.5,12.6,1.6c1.8,2.7,2.6,9.7,2.6,21
			c0,8.2-0.4,13.6-1.2,16.2c8.6-6.4,16.5-9.6,23.8-9.6c6.3,0,11.4,2.2,15.2,6.7c3.8,4.5,5.8,11.4,5.8,20.6c0,1.5-0.3,6-0.8,13.4
			c0-0.2,0.4-0.2,1.1-0.2c1.2,0,3.1,0.2,5.6,0.6c0.7,0.8,1.1,3.4,1.1,7.9c0,5.6-0.4,9.1-1.2,10.4c-6,1.3-11.5,1.9-16.4,1.9
			c-5.5,0-10.3-0.6-14.4-1.7c-0.6-0.4-1.2-1.8-1.8-4.3c-0.6-2.5-1-4.6-1-6.4c0-2.7,0.7-5,2.2-6.9c0.9-0.6,2-0.8,3.4-0.8
			c0.4,0,0.7,0,0.8,0.1c0.2,0.1,0.3,0.2,0.5,0.3c0.2,0.1,0.4,0.2,0.7,0.3c0.5-2.4,0.7-4.6,0.7-6.7c0-4.7-1.1-8.3-3.3-10.8
			c-2.2-2.5-4.9-3.8-8.2-3.8c-3.3,0-6.1,1.4-8.6,4.3s-3.7,6.8-3.7,11.7c0,2,0.2,4.2,0.6,6.4c0.9-0.7,2-1.1,3.3-1.1s2.1,0.3,2.4,0.8
			c0.7,0,1.1,1.6,1.1,4.9c0,0.7-0.4,4.1-1.1,10c-5.8,2.4-12.6,3.6-20.4,3.6c-8.8,0-14-1.1-15.6-3.4c-0.7-1-1.1-2.3-1.1-4
			c0-5.8,1.1-9.2,3.2-10.3c1-0.7,2.4-1.1,4.4-1.1c0.4,0,1,0.1,1.8,0.2c-0.9-5.5-1.3-16.4-1.3-32.5c0-10.7,0.3-17.5,0.8-20.4
			c-1.3,0.4-3.2,0.6-5.8,0.6c-1.8,0-3.4-0.2-4.9-0.5C306.5,423.5,306.1,421.5,306.1,418.3z"/>
		<path d="M394.3,468.9c0-3.8,0.7-7.6,2.2-11.5s3.6-7.6,6.5-11.1c2.8-3.5,6.7-6.3,11.5-8.6c4.8-2.2,10.3-3.4,16.3-3.4
			c6.6,0,11.8,1.3,15.5,4s5.6,6.5,5.6,11.5c0,6.7-3.1,12.2-9.3,16.4c-6.2,4.2-13.1,6.3-20.8,6.3c-2.1,0-4.2-0.2-6.4-0.6
			c0.2,5.7,5,8.5,14.6,8.5c1.7,0,3.1-0.1,4.3-0.3c0-0.6,0.1-1.3,0.4-2c3.5-2.8,7.3-4.2,11.4-4.2c0.8,0,1.4,0,1.8,0.1
			c5.3,2.9,8.5,7.6,9.7,14.1c-0.1,0.6-0.4,1.3-0.9,2s-1.1,1.3-1.6,1.8c-0.6,0.5-1.4,1.1-2.4,1.8c-1,0.7-1.9,1.2-2.5,1.5
			s-1.5,0.8-2.6,1.4c-1.2,0.6-1.8,1-2,1.1c-0.5,0-0.9-0.1-1.2-0.2c-0.3-0.1-0.6-0.3-0.9-0.6c-0.3-0.3-0.5-0.5-0.5-0.6
			c-0.1-0.1-0.2-0.4-0.5-0.9c-0.2-0.5-0.4-0.8-0.5-0.8c-4.5,1.7-9.1,2.6-13.8,2.6c-10.7,0-19.1-2.8-25-8.3
			C397.3,483.5,394.3,476.8,394.3,468.9z M417.7,456.5c0,2.6,1.9,4,5.8,4c2.9,0,5.6-0.7,8.3-2c2.6-1.4,4-3,4-5
			c0-1.4-0.5-2.8-1.4-4.3S432,447,430,447c-2.5,0-5.1,1-8,3C419.1,451.9,417.7,454.1,417.7,456.5z"/>
		<path d="M482.8,516.6c0-3.8,0.2-6.1,0.6-6.8c0.5-0.6,1.9-1.2,4.2-1.5c2.3-0.4,4.3-0.6,6-0.6c0.8,0,1.4,0,1.7,0.1
			c0-1.4,0.1-4.7,0.2-10c0.2-5.3,0.2-9.9,0.2-13.9c0-14.2,0.4-23.5,1.1-28c-0.3,0.1-1,0.1-2.2,0.1c-2.9,0-5.6-0.3-8.3-0.8
			c-0.7-0.5-1-3.8-1-9.9c0-3.6,0.1-5.9,0.4-6.9c0.6-0.9,2.4-1.8,5.5-2.6c3.1-0.8,6.6-1.2,10.5-1.2c7.3,0,11.7,0.2,13.2,0.5
			c0.4,1.7,0.6,3.2,0.6,4.6c0,0.7,0,1.1-0.1,1.2c1.3-0.4,3.9-1.6,7.8-3.5c3.9-2,7.2-3,9.8-3c4.2,0,8,1.7,11.4,5
			c3.4,3.4,5.8,7.3,7.4,12c1.6,4.6,2.3,9.2,2.3,13.7c0,8.1-2.4,15.3-7.1,21.5c-4.8,6.3-11.2,9.4-19.2,9.4c-3.7,0-7.2-0.5-10.5-1.4
			c0,0.2,0.1,1.8,0.2,4.8c0.1,3,0.2,6.2,0.2,9.6c0,7.9-0.2,12.2-0.6,13c-2.7,2.4-8.4,3.6-17.2,3.6c-4.2,0-7.6-0.2-10.4-0.7
			c-2.8-0.4-4.5-0.8-5.1-1.1l-1-0.5C482.9,522.6,482.8,520.4,482.8,516.6z M514.1,469.1c0,2.7,0.8,5,2.4,6.8
			c1.6,1.8,3.7,2.8,6.3,2.8c3.3,0,6.3-1.5,8.9-4.6c2.6-3.1,3.9-6.3,3.9-9.8c0-2.6-0.8-4.8-2.3-6.6c-1.5-1.8-3.5-2.8-6-2.8
			c-3.3,0-6.4,1.4-9.2,4.3C515.5,462.1,514.1,465.4,514.1,469.1z"/>
		<path d="M558.1,470c0-5.7,0.9-11.2,2.6-16.5c1.7-5.3,4.5-9.8,8.4-13.5c3.9-3.8,8.5-5.6,13.7-5.6c2.2,0,4.1,0.3,5.8,1
			c1.7,0.6,3.1,1.4,4.1,2.4c1,0.9,1.8,1.9,2.5,2.8c0.6,0.9,1.1,1.7,1.3,2.4l0.5,1c0-2.7,0-4.8-0.1-6.2c2.7-2.3,7.4-3.4,14.2-3.4
			c2.4,0,4.6,0.1,6.4,0.2c1.9,0.2,3.3,0.4,4.3,0.6s1.7,0.5,2.3,0.7s1,0.4,1.1,0.5l0.2,0.1c0.3,0.7,0.5,3,0.5,6.8
			c0,3.9-0.2,6.2-0.5,6.9c-1.1,1.5-3.1,2.2-6,2.2c-0.8,0-1.7-0.1-2.6-0.2c0.2,0.5,0.4,2.3,0.4,5.6c0,10.1-0.4,15.7-1.1,16.8
			c0.6-0.2,1.2-0.4,2-0.4c0.9,0,3.1,0.5,6.4,1.4c0.6,0.5,0.9,4.1,0.9,10.7c0,3.5-0.1,5.7-0.4,6.6c-0.5,0.9-2.2,1.7-5.3,2.5
			s-6.3,1.2-9.7,1.2c-9.6,0-15-0.2-16.2-0.5c-0.6-1.5-0.8-2.8-0.8-3.8c0-0.6,0.1-1.1,0.4-1.4c-1.2,0.4-3.8,1.6-7.7,3.6
			c-4,2-6.9,3-8.9,3c-6.2,0-10.8-2.7-14-8C559.7,484.2,558.1,477.7,558.1,470z M574.1,467.8c0,2.8,0.8,5.1,2.3,7.1s3.5,3,6,3
			c3.3,0,6.3-1.5,9.1-4.5s4.1-6.4,4.1-10.2c0-2.6-0.8-4.8-2.3-6.6c-1.6-1.8-3.6-2.7-6.2-2.7c-2.4,0-4.6,0.8-6.7,2.3
			c-2.1,1.5-3.7,3.6-4.8,6.1C574.6,464.2,574.1,466,574.1,467.8z"/>
		<path d="M632.4,472.1c0-5.9,1.5-11.7,4.4-17.5c3-5.7,7.3-10.5,13-14.4s12-5.8,19-5.8c2.3,0,4.6,0.3,6.8,0.8c1-1.7,1.9-2.9,2.5-3.8
			c0.6-0.8,1.3-1.8,2-2.8s1.4-1.7,1.9-2.2c0.6-0.4,1-0.7,1.4-0.7c1.7,0,4.9,1.9,9.8,5.7c4.8,3.8,7.3,6.8,7.3,9.1
			c-0.1,0.7-1.4,2.3-4,4.6c-2.6,2.4-4.7,4.1-6.3,5.2c1.4,3.8,2,8.2,2,13.2c0,9.6-2.6,17.3-7.8,23.2c-5.2,5.9-11.7,9.1-19.5,9.7
			c1.5,0.7,5,1.2,10.5,1.5s10.3,0.9,14.4,1.9c4.1,1,6.2,2.9,6.2,5.8c0,2.8-2,5.5-5.9,8.2c-4,2.6-8.6,4.8-13.8,6.4
			c-5.3,1.6-10.2,2.9-14.8,3.8c-4.6,1-7.9,1.4-9.9,1.4c-1.8,0-3.3-0.6-4.5-1.7c-1.1-1.2-1.8-2.3-2.2-3.5c-0.3-1.2-0.6-2.9-1-5
			c13.8-3.3,20.7-5.2,20.7-5.9c0-0.2-1.1-0.4-3.3-0.7c-2.2-0.3-4.6-0.8-7.3-1.3c-2.6-0.6-5.1-1.7-7.3-3.5s-3.3-4-3.3-6.7
			c0-1,0.5-2.2,1.4-3.6c-4.2-2.1-7.3-5-9.3-8.8C633.4,480.9,632.4,476.7,632.4,472.1z M655.7,468.5c0,2.5,0.8,4.6,2.3,6.5
			c1.5,1.8,3.5,2.8,6,2.8c3.2,0,6.2-1.4,9-4.3s4.2-6.2,4.2-10c0-2.7-0.8-5-2.4-6.8c-1.6-1.8-3.7-2.7-6.2-2.7c-3.5,0-6.5,1.6-9,4.7
			C656.9,461.8,655.7,465.1,655.7,468.5z"/>
		<path d="M701.5,468.9c0-3.8,0.7-7.6,2.2-11.5s3.6-7.6,6.5-11.1c2.8-3.5,6.7-6.3,11.5-8.6c4.8-2.2,10.3-3.4,16.3-3.4
			c6.6,0,11.8,1.3,15.5,4s5.6,6.5,5.6,11.5c0,6.7-3.1,12.2-9.3,16.4c-6.2,4.2-13.1,6.3-20.8,6.3c-2.1,0-4.2-0.2-6.4-0.6
			c0.2,5.7,5,8.5,14.6,8.5c1.7,0,3.1-0.1,4.3-0.3c0-0.6,0.1-1.3,0.4-2c3.5-2.8,7.3-4.2,11.4-4.2c0.8,0,1.4,0,1.8,0.1
			c5.3,2.9,8.5,7.6,9.7,14.1c-0.1,0.6-0.4,1.3-0.9,2s-1.1,1.3-1.6,1.8c-0.6,0.5-1.4,1.1-2.4,1.8c-1,0.7-1.9,1.2-2.5,1.5
			s-1.5,0.8-2.6,1.4c-1.2,0.6-1.8,1-2,1.1c-0.5,0-0.9-0.1-1.2-0.2s-0.6-0.3-0.9-0.6c-0.3-0.3-0.5-0.5-0.5-0.6
			c-0.1-0.1-0.2-0.4-0.5-0.9c-0.2-0.5-0.4-0.8-0.5-0.8c-4.5,1.7-9.1,2.6-13.8,2.6c-10.7,0-19.1-2.8-25-8.3
			C704.5,483.5,701.5,476.8,701.5,468.9z M724.9,456.5c0,2.6,1.9,4,5.8,4c2.9,0,5.6-0.7,8.3-2c2.6-1.4,4-3,4-5
			c0-1.4-0.5-2.8-1.4-4.3s-2.4-2.2-4.4-2.2c-2.5,0-5.1,1-8,3C726.3,451.9,724.9,454.1,724.9,456.5z"/>
		<path d="M767.5,491.5c0.1-2.3,0.4-4.6,1.1-6.8c0.6-2.2,1.8-4.3,3.5-6.3c1.7-1.9,3.8-2.9,6.2-2.9c2,0,4.2,0.4,6.5,1.1
			c2.4,0.7,3.5,1.8,3.5,3.2c0,0.3-0.1,0.7-0.2,1.3c2.9,0.8,4.8,1.3,5.9,1.3c1.8,0,3.5-0.6,4.9-1.8c1.4-1.2,2.1-2.7,2.1-4.5
			c0-1.9-0.7-3.3-2.2-4.3s-3.4-1.5-5.6-1.5s-4.7-0.3-7.3-0.7c-2.6-0.4-5-0.9-7.3-1.6s-4.2-2.2-5.6-4.4c-1.5-2.3-2.2-5.2-2.2-8.9
			c0-5,1.4-9.2,4.1-12.5c2.7-3.3,5.9-5.5,9.7-6.6c3.7-1.1,7.9-1.7,12.5-1.7c3.5,0,7.4,0.4,11.8,1.1c0.8-1.5,1.7-2.4,2.8-2.7
			c5.9,0.6,9.8,2.7,11.8,6.3c-0.2,2.3-0.5,4.6-1.1,6.8s-1.8,4.3-3.5,6.3s-3.8,3-6.3,3c-2,0-4.2-0.4-6.5-1.2
			c-2.3-0.8-3.5-1.9-3.5-3.4c0-0.3,0.1-0.7,0.2-1.3c-1.9-0.6-3.4-0.9-4.6-0.9c-1.9,0-3.6,0.6-4.9,1.9c-1.4,1.3-2,2.7-2,4.1
			c0,1.9,1.1,3.3,3.4,4.2c2.3,0.9,5,1.5,8.3,1.8c3.2,0.3,6.5,0.8,9.8,1.4s6.1,2.1,8.3,4.4c2.3,2.3,3.4,5.5,3.4,9.6
			c0,7-3,12.3-8.9,15.8s-13,5.3-21.1,5.3c-3.8,0-7.9-0.4-12.2-1.1c-0.8,1.4-1.7,2.3-2.8,2.6C773.4,497.4,769.4,495.2,767.5,491.5z"
			/>
		<path d="M242.4,578.1c0-1.7,0.2-2.7,0.5-3c2.2-0.3,3.9-0.5,5-0.5c0.3,0,0.8,0,1.3,0.1c0.5,0,0.9,0.1,1.3,0.1h0.6v-22.4
			c6.2-0.5,9.9-0.7,11.2-0.7c3,0,6.6,0.2,11,0.7l0.1,22.7c7,0.2,11.3,0.8,12.9,1.7c1.2,1.4,1.7,5.1,1.7,11.2c0,1.7-0.2,2.7-0.5,3
			c-2.3,0.3-4.1,0.5-5.4,0.5h-1c-0.6,0-1.6,0-3-0.1c-1.4,0-3.2-0.1-5.2-0.1c0,0.4,0,3.3-0.1,8.7c0,5.4-0.1,8.3-0.1,8.8
			c0,3.5,0.7,6,2,7.4s3.3,2.1,6,2.1c0.9,0,1.5-0.1,1.7-0.3s0.4-0.7,0.5-1.5c0-0.6,1-1,3.1-1.4l8-1.9c0.8,2.3,1.2,5,1.2,8.2
			c0,6.1-0.5,9.8-1.6,11.2c-0.3,0.2-1,0.5-1.9,1.1c-1,0.6-1.6,0.9-1.9,1s-0.9,0.4-1.7,0.7c-0.8,0.4-1.6,0.6-2.2,0.7
			c-0.6,0.1-1.5,0.2-2.7,0.4s-2.4,0.3-3.8,0.4c-1.3,0-2.9,0.1-4.7,0.1c-3.5,0-6.3-0.2-8.4-0.5c-2.2-0.4-4.2-1.1-6.2-2.2
			c-2-1.1-3.5-2.7-4.6-4.7s-2.1-4.7-2.9-8.2c-0.9-3.5-1.3-7.6-1.3-12.5c0-4.8,0-10.7,0-17.7c-3.5-0.4-5.9-0.9-7.1-1.6
			C242.9,588,242.4,584.3,242.4,578.1z"/>
		<path d="M298.7,611.6c0-5.9,1.5-11.6,4.5-17.2s7.3-10.4,13-14.2c5.6-3.8,11.8-5.8,18.6-5.8c8.1,0,14.1,2.7,18,8.2
			c3.8,5.5,5.7,12.4,5.7,20.7c0,10.9-3,19.3-9,24.9c-6,5.7-13.7,8.5-23.2,8.5c-9,0-15.8-2.4-20.5-7.2
			C301,624.8,298.7,618.8,298.7,611.6z M322,608.2c0,2.4,0.8,4.5,2.3,6.3s3.5,2.7,6,2.7c3.2,0,6.2-1.4,8.9-4.2
			c2.8-2.8,4.2-6.1,4.2-9.8c0-2.7-0.8-4.9-2.4-6.6c-1.6-1.8-3.7-2.6-6.2-2.6c-3.5,0-6.5,1.5-9,4.6C323.2,601.7,322,604.9,322,608.2z
			"/>
		<path d="M386,553.7c0-3.7,0.2-6,0.5-6.7l1-0.5c0.6-0.3,2.3-0.7,4.9-1.1c2.6-0.4,5.9-0.7,9.9-0.7c9.1,0,15,1.2,17.8,3.6
			c0.4,0.8,0.6,5.1,0.6,13c0,3.4-0.1,6.5-0.2,9.5s-0.2,4.6-0.2,4.7c3.3-1,6.8-1.4,10.5-1.4c8.4,0,15,3.2,19.9,9.5
			c4.9,6.4,7.4,13.6,7.4,21.8c0,4.6-0.8,9.2-2.4,13.9s-4.2,8.7-7.7,12.1c-3.5,3.4-7.5,5.1-11.9,5.1c-2.6,0-5.9-1-9.7-3
			c-3.9-2-6.5-3.2-7.8-3.5c0.1,0.1,0.1,0.4,0.1,1c0,1.2-0.2,2.6-0.6,4.1c-1.6,0.3-6.2,0.5-13.9,0.5c-3.7,0-7.1-0.4-10-1.2
			s-4.7-1.6-5.3-2.4c-0.2-0.9-0.4-3.1-0.4-6.5c0-6.1,0.3-9.4,0.9-9.9c2.5-0.6,5-0.9,7.4-0.9c1.2,0,1.9,0,2.2,0.1
			c-0.8-4.6-1.2-14.2-1.2-28.8c0-3.9,0.1-8.5,0.2-13.8c0.2-5.3,0.2-8.6,0.2-10c-0.8,0.2-1.7,0.2-2.6,0.2c-1.6,0-3.5-0.2-5.5-0.6
			s-3.3-0.9-3.8-1.5C386.2,559.8,386,557.5,386,553.7z M418.4,601.3c0,3.9,1.4,7.3,4.2,10.3c2.8,3,5.8,4.5,9,4.5
			c2.5,0,4.4-0.9,6-2.8c1.5-1.9,2.3-4.1,2.3-6.7c0-3.5-1.3-6.8-3.8-10.1s-5.5-4.9-9-4.9c-2.6,0-4.7,0.9-6.3,2.8
			C419.2,596.2,418.4,598.5,418.4,601.3z"/>
		<path d="M462.2,583c0-3.8,0.2-6,0.5-6.8c3-1.4,9-2.2,18-2.2c3.3,0,5.8,0.2,7.5,0.7c1.7,0.4,3.3,1.3,4.8,2.7
			c-0.1,1.4-0.1,3.4-0.1,6.2l0.4-1c0.3-0.6,0.8-1.4,1.5-2.4c0.7-0.9,1.5-1.9,2.5-2.8s2.3-1.7,4.1-2.4c1.8-0.6,3.7-1,5.9-1
			c6.1,0,11.2,2.6,15.5,7.9c-1.7,7.5-6.1,12.8-13.3,15.8c-2.9-2.1-5.6-3.1-8-3.1c-3.2,0-5.7,1.6-7.4,4.7c-1.7,3.2-2.6,7.1-2.6,11.7
			c0,1.6,0.1,3.3,0.3,5.2c0.4,0,1.8,0.2,4.3,0.7l1.3,0.2c1,0.9,1.5,3,1.5,6.4c0,2.4-0.3,4.8-0.9,7.2s-1.4,4.2-2.4,5.3
			c-1.5,0.3-5.8,0.5-12.8,0.5c-4.1,0-8.2-0.4-12.5-1.3c-4.3-0.8-6.7-1.7-7.2-2.5c-0.2-1-0.4-3.2-0.4-6.7c0-6.3,0.3-9.7,1-10.2
			c3.4-0.7,5.5-1.1,6.5-1.1c1.2,0,2.2,0.1,3,0.4c-1.4-1.1-2-6.9-2-17.4c0-3.6,0.1-5.6,0.4-6.1c-1,0.2-1.8,0.2-2.6,0.2
			c-2.9,0-4.9-0.7-6-2.2C462.4,589.1,462.2,586.8,462.2,583z"/>
		<path d="M521.9,611.6c0-5.9,1.5-11.6,4.5-17.2s7.3-10.4,13-14.2c5.6-3.8,11.8-5.8,18.6-5.8c8.1,0,14.1,2.7,18,8.2
			c3.8,5.5,5.7,12.4,5.7,20.7c0,10.9-3,19.3-9,24.9c-6,5.7-13.7,8.5-23.2,8.5c-9,0-15.8-2.4-20.5-7.2
			C524.2,624.8,521.9,618.8,521.9,611.6z M545.2,608.2c0,2.4,0.8,4.5,2.3,6.3s3.5,2.7,6,2.7c3.2,0,6.2-1.4,8.9-4.2
			c2.8-2.8,4.2-6.1,4.2-9.8c0-2.7-0.8-4.9-2.4-6.6c-1.6-1.8-3.7-2.6-6.2-2.6c-3.5,0-6.5,1.5-9,4.6
			C546.4,601.7,545.2,604.9,545.2,608.2z"/>
		<path d="M584.5,584.7c7-5.5,17.4-9.4,31.3-11.6c3.1,4.7,4.7,8.8,4.7,12.2c-0.2,0.6-1.1,1.3-2.9,2c-1.8,0.7-3,1.1-3.8,1.1
			c0.9,4.8,4,12.1,9.4,21.8c2.1-1.5,4.1-4.5,5.9-8.9c1.9-4.4,3.6-9.2,5.1-14.2s2.5-8,3-9c2.1-1.4,5.6-2.2,10.4-2.2
			c3.2,0,6.5,0.7,9.8,2.2c0.1,0.2,0.7,2.3,1.9,6.1s2.1,6.6,2.6,8.2c0.6,1.6,1.4,4,2.6,7c1.2,3,2.3,5.5,3.4,7.4
			c1.1,1.9,2.3,3.5,3.5,4.7c1.5-2.4,3.4-6.3,5.5-11.6c2.2-5.3,3.4-9.1,3.8-11.5c-0.9-0.1-2.2-0.5-4-1.2s-2.7-1.4-2.7-2
			c0-0.8,0.6-2.9,1.7-6.2c1.2-3.4,2.1-5.3,2.9-5.9c13.9,2.2,24.4,6.1,31.3,11.6c-0.8,5.1-1.9,9.4-3.4,12.7c-1.5-0.3-3.2-0.9-5-1.8
			c-0.1,2.2-1.3,5.7-3.6,10.7c-1.4,3-4.2,8.1-8.6,15.5c2.2,0.7,4.2,2.1,5.8,4.2c0,3-1.9,6-5.6,9c-0.2,0.1-1.4,0.2-3.5,0.4
			s-4.8,0.3-8.2,0.4c-3.4,0.1-6.6,0.2-9.7,0.2c-2.5,0-5.7-2.6-9.8-7.8c-4-5.2-7.8-10.9-11.2-17c-3.3,6.2-7,11.8-11,17
			c-4.1,5.2-7.4,7.8-9.8,7.8c-3,0-6.3-0.1-9.7-0.2c-3.4-0.1-6.1-0.3-8.2-0.4c-2.1-0.2-3.2-0.3-3.5-0.4c-3.8-3-5.6-6-5.6-9
			c0.5-0.6,1.5-1.4,2.9-2.5c1.5-1.1,2.4-1.7,2.8-1.7c-4.4-7.4-7.3-12.6-8.6-15.5c-2.3-4.9-3.5-8.4-3.6-10.7c-1.8,0.9-3.5,1.5-5,1.8
			C586.4,593.7,585.3,589.4,584.5,584.7z"/>
		<path d="M712,631.5c0.1-2.3,0.4-4.6,1.1-6.8c0.6-2.2,1.8-4.3,3.5-6.3c1.7-1.9,3.8-2.9,6.2-2.9c2,0,4.2,0.4,6.5,1.1
			c2.4,0.7,3.5,1.8,3.5,3.2c0,0.3-0.1,0.7-0.2,1.3c2.9,0.8,4.8,1.3,5.9,1.3c1.8,0,3.5-0.6,4.9-1.8s2.1-2.7,2.1-4.5
			c0-1.9-0.7-3.3-2.2-4.3s-3.4-1.5-5.6-1.5s-4.7-0.3-7.3-0.7s-5-0.9-7.3-1.6c-2.3-0.7-4.2-2.2-5.6-4.4c-1.5-2.3-2.2-5.2-2.2-8.9
			c0-5,1.4-9.2,4.1-12.5c2.7-3.3,5.9-5.5,9.7-6.6c3.7-1.1,7.9-1.7,12.5-1.7c3.5,0,7.4,0.4,11.8,1.1c0.8-1.5,1.7-2.4,2.8-2.7
			c5.9,0.6,9.8,2.7,11.8,6.3c-0.2,2.3-0.5,4.6-1.1,6.8s-1.8,4.3-3.5,6.3s-3.8,3-6.3,3c-2,0-4.2-0.4-6.5-1.2s-3.5-1.9-3.5-3.4
			c0-0.3,0.1-0.7,0.2-1.3c-1.9-0.6-3.4-0.9-4.6-0.9c-1.9,0-3.6,0.6-4.9,1.9c-1.4,1.3-2,2.7-2,4.1c0,1.9,1.1,3.3,3.4,4.2
			c2.3,0.9,5,1.5,8.3,1.8c3.2,0.3,6.5,0.8,9.8,1.4c3.3,0.6,6.1,2.1,8.3,4.4c2.3,2.3,3.4,5.5,3.4,9.6c0,7-3,12.3-8.9,15.8
			s-13,5.3-21.1,5.3c-3.8,0-7.9-0.4-12.2-1.1c-0.8,1.4-1.7,2.3-2.8,2.6C717.8,637.4,713.9,635.2,712,631.5z"/>
		<path d="M774.2,608.9c0-3.8,0.7-7.6,2.2-11.5s3.6-7.6,6.5-11.1c2.8-3.5,6.7-6.3,11.5-8.6c4.8-2.2,10.3-3.4,16.3-3.4
			c6.6,0,11.8,1.3,15.5,4s5.6,6.5,5.6,11.5c0,6.7-3.1,12.2-9.3,16.4s-13.1,6.3-20.8,6.3c-2.1,0-4.2-0.2-6.4-0.6
			c0.2,5.7,5,8.5,14.6,8.5c1.7,0,3.1-0.1,4.3-0.3c0-0.6,0.1-1.3,0.4-2c3.5-2.8,7.3-4.2,11.4-4.2c0.8,0,1.4,0,1.8,0.1
			c5.3,2.9,8.5,7.6,9.7,14.1c-0.1,0.6-0.4,1.3-0.9,2s-1.1,1.3-1.6,1.8c-0.6,0.5-1.4,1.1-2.4,1.8s-1.9,1.2-2.5,1.5s-1.5,0.8-2.6,1.4
			c-1.2,0.6-1.8,1-2,1.1c-0.5,0-0.9-0.1-1.2-0.2c-0.3-0.1-0.6-0.3-0.9-0.6c-0.3-0.3-0.5-0.5-0.5-0.6c-0.1-0.1-0.2-0.4-0.5-0.9
			c-0.2-0.5-0.4-0.8-0.5-0.8c-4.5,1.7-9.1,2.6-13.8,2.6c-10.7,0-19.1-2.8-25-8.3C777.2,623.5,774.2,616.8,774.2,608.9z M797.6,596.5
			c0,2.6,1.9,4,5.8,4c2.9,0,5.6-0.7,8.3-2c2.6-1.4,4-3,4-5c0-1.4-0.5-2.8-1.4-4.3s-2.4-2.2-4.4-2.2c-2.5,0-5.1,1-8,3
			C799.1,591.9,797.6,594.1,797.6,596.5z"/>
		<path d="M276.4,718.1c0-1.7,0.2-2.7,0.5-3c2.2-0.3,3.9-0.5,5-0.5c0.3,0,0.8,0,1.3,0.1c0.5,0,0.9,0.1,1.3,0.1h0.6v-22.4
			c6.2-0.5,9.9-0.7,11.2-0.7c3,0,6.6,0.2,11,0.7l0.1,22.7c7,0.2,11.3,0.8,12.9,1.7c1.2,1.4,1.7,5.1,1.7,11.2c0,1.7-0.2,2.7-0.5,3
			c-2.3,0.3-4.1,0.5-5.4,0.5h-1c-0.6,0-1.6,0-3-0.1c-1.4,0-3.2-0.1-5.2-0.1c0,0.4,0,3.3-0.1,8.7c0,5.4-0.1,8.3-0.1,8.8
			c0,3.5,0.7,6,2,7.4s3.3,2.1,6,2.1c0.9,0,1.5-0.1,1.7-0.3s0.4-0.7,0.5-1.5c0-0.6,1-1,3.1-1.4l8-1.9c0.8,2.3,1.2,5,1.2,8.2
			c0,6.1-0.5,9.8-1.6,11.2c-0.3,0.2-1,0.5-1.9,1.1c-1,0.6-1.6,0.9-1.9,1s-0.9,0.4-1.7,0.7c-0.8,0.4-1.6,0.6-2.2,0.7
			c-0.6,0.1-1.5,0.2-2.7,0.4s-2.4,0.3-3.8,0.4c-1.3,0-2.9,0.1-4.7,0.1c-3.5,0-6.3-0.2-8.4-0.5c-2.2-0.4-4.2-1.1-6.2-2.2
			c-2-1.1-3.5-2.7-4.6-4.7s-2.1-4.7-2.9-8.2c-0.9-3.5-1.3-7.6-1.3-12.5c0-4.8,0-10.7,0-17.7c-3.5-0.4-5.9-0.9-7.1-1.6
			C276.9,728,276.4,724.3,276.4,718.1z"/>
		<path d="M328.9,698.3c0-6,1.1-9.6,3.4-10.6c2.7-1.6,7.6-2.4,14.6-2.4c3.7,0,7.9,0.5,12.6,1.6c1.8,2.7,2.6,9.7,2.6,21
			c0,8.2-0.4,13.6-1.2,16.2c8.6-6.4,16.5-9.6,23.8-9.6c6.3,0,11.4,2.2,15.2,6.7c3.8,4.5,5.8,11.4,5.8,20.6c0,1.5-0.3,6-0.8,13.4
			c0-0.2,0.4-0.2,1.1-0.2c1.2,0,3.1,0.2,5.6,0.6c0.7,0.8,1.1,3.4,1.1,7.9c0,5.6-0.4,9.1-1.2,10.4c-6,1.3-11.5,1.9-16.4,1.9
			c-5.5,0-10.3-0.6-14.4-1.7c-0.6-0.4-1.2-1.8-1.8-4.3c-0.6-2.5-1-4.6-1-6.4c0-2.7,0.7-5,2.2-6.9c0.9-0.6,2-0.8,3.4-0.8
			c0.4,0,0.7,0,0.8,0.1c0.2,0.1,0.3,0.2,0.5,0.3s0.4,0.2,0.7,0.3c0.5-2.4,0.7-4.6,0.7-6.7c0-4.7-1.1-8.3-3.3-10.8
			c-2.2-2.5-4.9-3.8-8.2-3.8c-3.3,0-6.1,1.4-8.6,4.3c-2.5,2.9-3.7,6.8-3.7,11.7c0,2,0.2,4.2,0.6,6.4c0.9-0.7,2-1.1,3.3-1.1
			s2.1,0.3,2.4,0.8c0.7,0,1.1,1.6,1.1,4.9c0,0.7-0.4,4.1-1.1,10c-5.8,2.4-12.6,3.6-20.4,3.6c-8.8,0-14-1.1-15.6-3.4
			c-0.7-1-1.1-2.3-1.1-4c0-5.8,1.1-9.2,3.2-10.3c1-0.7,2.4-1.1,4.4-1.1c0.4,0,1,0.1,1.8,0.2c-0.9-5.5-1.3-16.4-1.3-32.5
			c0-10.7,0.3-17.5,0.8-20.4c-1.3,0.4-3.2,0.6-5.8,0.6c-1.8,0-3.4-0.2-4.9-0.5C329.2,703.5,328.9,701.5,328.9,698.3z"/>
		<path d="M417.1,748.9c0-3.8,0.7-7.6,2.2-11.5s3.6-7.6,6.5-11.1c2.8-3.5,6.7-6.3,11.5-8.6c4.8-2.2,10.3-3.4,16.3-3.4
			c6.6,0,11.8,1.3,15.5,4s5.6,6.5,5.6,11.5c0,6.7-3.1,12.2-9.3,16.4c-6.2,4.2-13.1,6.3-20.8,6.3c-2.1,0-4.2-0.2-6.4-0.6
			c0.2,5.7,5,8.5,14.6,8.5c1.7,0,3.1-0.1,4.3-0.3c0-0.6,0.1-1.3,0.4-2c3.5-2.8,7.3-4.2,11.4-4.2c0.8,0,1.4,0,1.8,0.1
			c5.3,2.9,8.5,7.6,9.7,14.1c-0.1,0.6-0.4,1.3-0.9,2s-1.1,1.3-1.6,1.8c-0.6,0.5-1.4,1.1-2.4,1.8s-1.9,1.2-2.5,1.5s-1.5,0.8-2.6,1.4
			c-1.2,0.6-1.8,1-2,1.1c-0.5,0-0.9-0.1-1.2-0.2c-0.3-0.1-0.6-0.3-0.9-0.6s-0.5-0.5-0.5-0.6c-0.1-0.1-0.2-0.4-0.5-0.9
			c-0.2-0.5-0.4-0.8-0.5-0.8c-4.5,1.7-9.1,2.6-13.8,2.6c-10.7,0-19.1-2.8-25-8.3C420,763.5,417.1,756.8,417.1,748.9z M440.5,736.5
			c0,2.6,1.9,4,5.8,4c2.9,0,5.6-0.7,8.3-2c2.6-1.4,4-3,4-5c0-1.4-0.5-2.8-1.4-4.3s-2.4-2.2-4.4-2.2c-2.5,0-5.1,1-8,3
			C441.9,731.9,440.5,734.1,440.5,736.5z"/>
		<path d="M505.6,693.7c0-3.7,0.2-6,0.5-6.7l1-0.5c0.6-0.3,2.3-0.7,4.9-1.1c2.6-0.4,5.9-0.7,9.9-0.7c9.1,0,15,1.2,17.8,3.6
			c0.4,0.8,0.6,5.1,0.6,13c0,3.4-0.1,6.5-0.2,9.5s-0.2,4.6-0.2,4.7c3.3-1,6.8-1.4,10.5-1.4c8.4,0,15,3.2,19.9,9.5s7.4,13.6,7.4,21.8
			c0,4.6-0.8,9.2-2.4,13.9c-1.6,4.7-4.2,8.7-7.7,12.1c-3.5,3.4-7.5,5.1-11.9,5.1c-2.6,0-5.9-1-9.7-3c-3.9-2-6.5-3.2-7.8-3.5
			c0.1,0.1,0.1,0.4,0.1,1c0,1.2-0.2,2.6-0.6,4.1c-1.6,0.3-6.2,0.5-13.9,0.5c-3.7,0-7.1-0.4-10-1.2c-2.9-0.8-4.7-1.6-5.3-2.4
			c-0.2-0.9-0.4-3.1-0.4-6.5c0-6.1,0.3-9.4,0.9-9.9c2.5-0.6,5-0.9,7.4-0.9c1.2,0,1.9,0,2.2,0.1c-0.8-4.6-1.2-14.2-1.2-28.8
			c0-3.9,0.1-8.5,0.2-13.8c0.2-5.3,0.2-8.6,0.2-10c-0.8,0.2-1.7,0.2-2.6,0.2c-1.6,0-3.5-0.2-5.5-0.6s-3.3-0.9-3.8-1.5
			C505.8,699.8,505.6,697.5,505.6,693.7z M538,741.3c0,3.9,1.4,7.3,4.2,10.3s5.8,4.5,9,4.5c2.5,0,4.4-0.9,6-2.8
			c1.5-1.9,2.3-4.1,2.3-6.7c0-3.5-1.3-6.8-3.8-10.1s-5.5-4.9-9-4.9c-2.6,0-4.7,0.9-6.3,2.8C538.8,736.2,538,738.5,538,741.3z"/>
		<path d="M580.6,751.6c0-5.9,1.5-11.6,4.5-17.2s7.3-10.4,13-14.2c5.6-3.8,11.8-5.8,18.6-5.8c8.1,0,14.1,2.7,18,8.2
			c3.8,5.5,5.7,12.4,5.7,20.7c0,10.9-3,19.3-9,24.9c-6,5.7-13.7,8.5-23.2,8.5c-9,0-15.8-2.4-20.5-7.2
			C583,764.8,580.6,758.8,580.6,751.6z M603.9,748.2c0,2.4,0.8,4.5,2.3,6.3s3.5,2.7,6,2.7c3.2,0,6.2-1.4,8.9-4.2s4.2-6.1,4.2-9.8
			c0-2.7-0.8-4.9-2.4-6.6c-1.6-1.8-3.7-2.6-6.2-2.6c-3.5,0-6.5,1.5-9,4.6S603.9,744.9,603.9,748.2z"/>
		<path d="M646.3,751.6c0-5.9,1.5-11.6,4.5-17.2s7.3-10.4,13-14.2c5.6-3.8,11.8-5.8,18.6-5.8c8.1,0,14.1,2.7,18,8.2
			c3.8,5.5,5.7,12.4,5.7,20.7c0,10.9-3,19.3-9,24.9c-6,5.7-13.7,8.5-23.2,8.5c-9,0-15.8-2.4-20.5-7.2
			C648.6,764.8,646.3,758.8,646.3,751.6z M669.5,748.2c0,2.4,0.8,4.5,2.3,6.3s3.5,2.7,6,2.7c3.2,0,6.2-1.4,8.9-4.2s4.2-6.1,4.2-9.8
			c0-2.7-0.8-4.9-2.4-6.6c-1.6-1.8-3.7-2.6-6.2-2.6c-3.5,0-6.5,1.5-9,4.6S669.5,744.9,669.5,748.2z"/>
		<path d="M708.7,695.7c0-4,1-6.6,2.9-7.9c3.3-1.6,8.2-2.4,14.6-2.4c8.2,0,13.7,0.8,16.4,2.4c1.6,0.7,2.4,3.2,2.4,7.3
			c0,3.7-0.4,6-1.3,6.8c-1.9,0.3-3.5,0.5-4.7,0.5c0.1,3.8,0.5,12,1.2,24.6c4.3-2.7,8.1-5.6,11.5-8.7c3.4-3.1,5.1-5.5,5.1-7.3
			c0-0.6-0.2-1-0.5-1.3c-0.6,0.6-1.6,0.8-3,0.8c-0.6,0-0.9-0.1-1.1-0.4c-0.7-0.7-1.1-2.4-1.1-5.2c0-1.1,0.2-1.8,0.6-2
			c3-0.9,6.7-1.3,11.1-1.3c9,0,15.9,0.9,20.5,2.8c0.3,0.6,0.5,1.6,0.5,2.9c0,3.7-0.9,5.8-2.8,6.4c-0.2,0.1-0.6,0.1-1.2,0.1
			c-2.3,0-3.7-0.3-4.4-1c-0.1,0.5-0.8,1.6-2.2,3.3c-1.4,1.8-3.5,4-6.3,6.6c-2.8,2.7-5.7,5.2-8.9,7.7c7.7,3.2,14.3,7.9,19.6,14.2
			s8,10.8,8,13.4c0.6-0.3,1.4-0.5,2.3-0.5c0.7,0,1.7,0.2,3,0.7c1.4,0.6,2.1,3,2.1,7.1c0,3.6-0.6,6.3-1.8,8.1c-2.7,1.4-8.3,2-16.8,2
			c-5.3,0-9.7-0.6-13.3-1.8c-1.9-2.4-2.9-5.6-2.9-9.6c0-2.4,0.4-4.3,1.3-5.6c0.6-0.4,1.4-0.6,2.3-0.6c0.6,0,1.3,0.1,2.1,0.4
			c-0.9-2.8-2.2-5.2-4-7.4c-1.8-2.1-4-3.8-6.6-5.1s-4.7-2.2-6.3-2.8s-3.7-1.2-6.2-1.9c0.1,1.9,0.1,4.8,0.1,8.7c0,3.1,0,5.4-0.1,6.9
			c1-0.6,2.2-0.9,3.7-0.9s2.3,0.2,2.7,0.6c1.3,0.3,1.9,2.9,1.9,7.7c0,4.5-0.2,7.7-0.5,9.6c-4.3,1.1-12.3,1.7-24.2,1.7
			c-5.5,0-9.4-0.5-11.9-1.4c-1.8-2.1-2.7-5.5-2.7-10.2c0-3.4,0.7-5.4,2-6.1c1.2-0.8,3.1-1.2,5.7-1.2c0.6,0,1.2,0.1,1.7,0.3
			c-0.5-22-0.7-37.4-0.7-46.2c0-5.1,0.1-7.9,0.2-8.4c-1.4,0.6-2.8,1-4.2,1c-1.6,0-2.9-0.4-4-1.3
			C709.3,700.1,708.7,698.1,708.7,695.7z"/>
		<path d="M797.5,718.5c0-9,1.8-17.6,5.3-25.7c0.4-0.1,1-0.3,1.9-0.7s1.7-0.6,2.5-0.8s1.5-0.2,2.3-0.2c1.8,0,3.9,0.6,6.1,1.7
			c4,9,6,18.2,6,27.7c0,10.9-2.6,21.3-7.8,31.3c-1.3,1.1-2.7,1.7-4.2,1.7c-1.4,0-2.7-0.4-4-1.3C800.2,740.7,797.5,729.4,797.5,718.5
			z M802.4,768.1c0-2.2,0.2-4.5,0.7-6.8c1.7-0.6,3.6-1,5.6-1c2.1,0,4.2,0.3,6.4,1c0.7,2.4,1.1,4.8,1.1,7.1c0,2.4-0.4,4.8-1.1,7.2
			c-1.5,0.6-3.4,1-5.6,1c-2.7,0-4.8-0.3-6.4-1C802.6,773,802.4,770.5,802.4,768.1z"/>
	</g>
</g>
</svg>
